<?xml version="1.0" encoding="UTF-8" standalone="no"?>
<!-- Created with Inkscape (http://www.inkscape.org/) -->

<svg
   xmlns:dc="http://purl.org/dc/elements/1.1/"
   xmlns:cc="http://creativecommons.org/ns#"
   xmlns:rdf="http://www.w3.org/1999/02/22-rdf-syntax-ns#"
   xmlns:svg="http://www.w3.org/2000/svg"
   xmlns="http://www.w3.org/2000/svg"
   xmlns:sodipodi="http://sodipodi.sourceforge.net/DTD/sodipodi-0.dtd"
   xmlns:inkscape="http://www.inkscape.org/namespaces/inkscape"
   sodipodi:docname="binary-trainer.svg"
   inkscape:version="0.91 r13725"
   version="1.1"
   id="svg2"
   viewBox="0 0 1171.6113 997.63689"
   height="281.5553mm"
   width="330.65475mm">
  <sodipodi:namedview
     fit-margin-left="5"
     fit-margin-bottom="5"
     fit-margin-right="5"
     fit-margin-top="5"
     inkscape:window-maximized="1"
     inkscape:window-y="49"
     inkscape:window-x="0"
     inkscape:window-height="961"
     inkscape:window-width="1920"
     showgrid="true"
     inkscape:current-layer="svg2"
     inkscape:document-units="px"
     inkscape:cy="416.51504"
     inkscape:cx="531.42874"
     inkscape:zoom="0.7"
     inkscape:pageshadow="2"
     inkscape:pageopacity="0.0"
     borderopacity="1.0"
     bordercolor="#666666"
     pagecolor="#ffffff"
     id="base">
    <inkscape:grid
       originy="22.72738"
       originx="19.536562"
       empspacing="3"
       spacingy="35.433072"
       spacingx="35.433071"
       units="mm"
       id="grid3336"
       type="xygrid" />
  </sodipodi:namedview>
  <defs
     id="defs4">
    <marker
       inkscape:isstock="true"
       style="overflow:visible"
       id="marker5769"
       refX="0"
       refY="0"
       orient="auto"
       inkscape:stockid="Arrow1Lend">
      <path
         inkscape:connector-curvature="0"
         transform="matrix(-0.8,0,0,-0.8,-10,0)"
         style="fill:#000000;fill-opacity:1;fill-rule:evenodd;stroke:#000000;stroke-width:1pt;stroke-opacity:1"
         d="M 0,0 5,-5 -12.5,0 5,5 0,0 Z"
         id="path5771" />
    </marker>
    <marker
       inkscape:isstock="true"
       style="overflow:visible"
       id="marker5246"
       refX="0"
       refY="0"
       orient="auto"
       inkscape:stockid="Arrow1Lend">
      <path
         inkscape:connector-curvature="0"
         transform="matrix(-0.8,0,0,-0.8,-10,0)"
         style="fill:#000000;fill-opacity:1;fill-rule:evenodd;stroke:#000000;stroke-width:1pt;stroke-opacity:1"
         d="M 0,0 5,-5 -12.5,0 5,5 0,0 Z"
         id="path5248" />
    </marker>
    <marker
       inkscape:isstock="true"
       style="overflow:visible"
       id="Arrow1Lstart"
       refX="0"
       refY="0"
       orient="auto"
       inkscape:stockid="Arrow1Lstart">
      <path
         inkscape:connector-curvature="0"
         transform="matrix(0.8,0,0,0.8,10,0)"
         style="fill:#000000;fill-opacity:1;fill-rule:evenodd;stroke:#000000;stroke-width:1pt;stroke-opacity:1"
         d="M 0,0 5,-5 -12.5,0 5,5 0,0 Z"
         id="path4158" />
    </marker>
  </defs>
  <metadata
     id="metadata7">
    <rdf:RDF>
      <cc:Work
         rdf:about="">
        <dc:format>image/svg+xml</dc:format>
        <dc:type
           rdf:resource="http://purl.org/dc/dcmitype/StillImage" />
        <dc:title></dc:title>
      </cc:Work>
    </rdf:RDF>
  </metadata>
  <g
     transform="translate(19.536563,-77.452715)"
     id="layer1"
     inkscape:groupmode="layer"
     inkscape:label="Calque 1">
    <path
       inkscape:connector-curvature="0"
       id="path3342"
       d="m 1027.559,911.94998 -70.86615,0 0,70.86615 70.86615,0 z"
       style="fill:none;fill-rule:evenodd;stroke:#000000;stroke-width:1px;stroke-linecap:butt;stroke-linejoin:miter;stroke-opacity:1;marker-end:" />
    <path
       inkscape:connector-curvature="0"
       id="path4582"
       d="m 744.09448,839.76378 177.16537,0 0,-70.86614 -177.16537,0 z"
       style="fill:none;fill-rule:evenodd;stroke:#000000;stroke-width:1px;stroke-linecap:butt;stroke-linejoin:miter;stroke-opacity:1;marker-end:" />
    <path
       inkscape:connector-curvature="0"
       id="path5238"
       d="m 106.29916,981.49607 531.4961,0 0,-70.86614 -531.4961,0 z"
       style="fill:none;fill-rule:evenodd;stroke:#000000;stroke-width:1px;stroke-linecap:butt;stroke-linejoin:miter;stroke-opacity:1;marker-end:" />
    <path
       inkscape:connector-curvature="0"
       id="path5354"
       d="m 106.29916,839.76378 531.4961,0 0,-70.86614 -531.4961,0 0,70.86614"
       style="fill:none;fill-rule:evenodd;stroke:#000000;stroke-width:1px;stroke-linecap:butt;stroke-linejoin:miter;stroke-opacity:1;marker-end:" />
    <path
       inkscape:connector-curvature="0"
       id="path5461"
       d="m -6.1035156e-5,1052.3622 0,-354.33071 1133.858261035156,0 0,354.33071 z"
       style="fill:none;fill-rule:evenodd;stroke:#000000;stroke-width:1px;stroke-linecap:butt;stroke-linejoin:miter;stroke-opacity:1;marker-end:" />
    <path
       inkscape:connector-curvature="0"
       id="path5527"
       d="m 141.73223,662.59842 0,-566.92917 106.29922,0 0,566.92917 z"
       style="fill:none;fill-rule:evenodd;stroke:#000000;stroke-width:1px;stroke-linecap:butt;stroke-linejoin:miter;stroke-opacity:1;marker-end:" />
    <path
       inkscape:connector-curvature="0"
       id="path5599"
       d="m 283.46453,662.59842 0,-566.92917 106.29922,0 0,566.92917 -106.29922,0"
       style="fill:none;fill-rule:evenodd;stroke:#000000;stroke-width:1px;stroke-linecap:butt;stroke-linejoin:miter;stroke-opacity:1;marker-end:" />
    <path
       inkscape:connector-curvature="0"
       id="path5677"
       d="m 425.19682,662.59842 0,-566.92917 106.29922,0 0,566.92917 z"
       style="fill:none;fill-rule:evenodd;stroke:#000000;stroke-width:1px;stroke-linecap:butt;stroke-linejoin:miter;stroke-opacity:1;marker-end:" />
    <path
       inkscape:connector-curvature="0"
       id="path5761"
       d="m 566.92911,662.59842 0,-566.92917 106.29922,0 0,566.92917 z"
       style="fill:none;fill-rule:evenodd;stroke:#000000;stroke-width:1px;stroke-linecap:butt;stroke-linejoin:miter;stroke-opacity:1;marker-end:" />
    <g
       id="g7036"
       transform="translate(728.6061,132.65333)"
       gcodetools="Gcodetools tool definition">
      <path
         id="path7038"
         d="m -20,-20 400,0 0,175 -400,0 z"
         style="fill:#00ff00;fill-opacity:0.5;stroke:#444444;stroke-width:1px"
         gcodetools="Gcodetools tool background"
         inkscape:connector-curvature="0" />
      <g
         id="g7040"
         gcodetools="Gcodetools tool parameter">
        <text
           id="text7042"
           xml:space="preserve"
           y="0"
           x="0"
           style="font-style:normal;font-variant:normal;font-weight:normal;font-stretch:normal;font-size:20px;font-family:'DejaVu Sans';fill:#000000;fill-opacity:1;stroke:none"
           gcodetools="Gcodetools tool definition field name"><tspan
             id="tspan7044"
             sodipodi:role="line"
             y="0"
             x="0">name</tspan></text>
        <text
           id="text7046"
           xml:space="preserve"
           y="0"
           x="150"
           style="font-style:normal;font-variant:normal;font-weight:normal;font-stretch:normal;font-size:20px;font-family:'DejaVu Sans';fill:#000000;fill-opacity:1;stroke:none"
           gcodetools="Gcodetools tool definition field value"><tspan
             id="tspan7048"
             sodipodi:role="line"
             y="0"
             x="150">Cylindrical cutter</tspan></text>
      </g>
      <g
         id="g7050"
         gcodetools="Gcodetools tool parameter">
        <text
           id="text7052"
           xml:space="preserve"
           y="20"
           x="0"
           style="font-style:normal;font-variant:normal;font-weight:normal;font-stretch:normal;font-size:10px;font-family:'DejaVu Sans';fill:#000000;fill-opacity:1;stroke:none"
           gcodetools="Gcodetools tool definition field name"><tspan
             id="tspan7054"
             sodipodi:role="line"
             y="20"
             x="0">id</tspan></text>
        <text
           id="text7056"
           xml:space="preserve"
           y="20"
           x="150"
           style="font-style:normal;font-variant:normal;font-weight:normal;font-stretch:normal;font-size:10px;font-family:'DejaVu Sans';fill:#000000;fill-opacity:1;stroke:none"
           gcodetools="Gcodetools tool definition field value"><tspan
             id="tspan7058"
             sodipodi:role="line"
             y="20"
             x="150">Cylindrical cutter 0001</tspan></text>
      </g>
      <g
         id="g7060"
         gcodetools="Gcodetools tool parameter">
        <text
           id="text7062"
           xml:space="preserve"
           y="35"
           x="0"
           style="font-style:normal;font-variant:normal;font-weight:normal;font-stretch:normal;font-size:10px;font-family:'DejaVu Sans';fill:#000000;fill-opacity:1;stroke:none"
           gcodetools="Gcodetools tool definition field name"><tspan
             id="tspan7064"
             sodipodi:role="line"
             y="35"
             x="0">diameter</tspan></text>
        <text
           id="text7066"
           xml:space="preserve"
           y="35"
           x="150"
           style="font-style:normal;font-variant:normal;font-weight:normal;font-stretch:normal;font-size:10px;font-family:'DejaVu Sans';fill:#000000;fill-opacity:1;stroke:none"
           gcodetools="Gcodetools tool definition field value"><tspan
             id="tspan7068"
             sodipodi:role="line"
             y="35"
             x="150">1</tspan></text>
      </g>
      <g
         id="g7070"
         gcodetools="Gcodetools tool parameter">
        <text
           id="text7072"
           xml:space="preserve"
           y="50"
           x="0"
           style="font-style:normal;font-variant:normal;font-weight:normal;font-stretch:normal;font-size:10px;font-family:'DejaVu Sans';fill:#000000;fill-opacity:1;stroke:none"
           gcodetools="Gcodetools tool definition field name"><tspan
             id="tspan7074"
             sodipodi:role="line"
             y="50"
             x="0">feed</tspan></text>
        <text
           id="text7076"
           xml:space="preserve"
           y="50"
           x="150"
           style="font-style:normal;font-variant:normal;font-weight:normal;font-stretch:normal;font-size:10px;font-family:'DejaVu Sans';fill:#000000;fill-opacity:1;stroke:none"
           gcodetools="Gcodetools tool definition field value"><tspan
             id="tspan7078"
             sodipodi:role="line"
             y="50"
             x="150">400</tspan></text>
      </g>
      <g
         id="g7080"
         gcodetools="Gcodetools tool parameter">
        <text
           id="text7082"
           xml:space="preserve"
           y="65"
           x="0"
           style="font-style:normal;font-variant:normal;font-weight:normal;font-stretch:normal;font-size:10px;font-family:'DejaVu Sans';fill:#000000;fill-opacity:1;stroke:none"
           gcodetools="Gcodetools tool definition field name"><tspan
             id="tspan7084"
             sodipodi:role="line"
             y="65"
             x="0">penetration angle</tspan></text>
        <text
           id="text7086"
           xml:space="preserve"
           y="65"
           x="150"
           style="font-style:normal;font-variant:normal;font-weight:normal;font-stretch:normal;font-size:10px;font-family:'DejaVu Sans';fill:#000000;fill-opacity:1;stroke:none"
           gcodetools="Gcodetools tool definition field value"><tspan
             id="tspan7088"
             sodipodi:role="line"
             y="65"
             x="150">90</tspan></text>
      </g>
      <g
         id="g7090"
         gcodetools="Gcodetools tool parameter">
        <text
           id="text7092"
           xml:space="preserve"
           y="80"
           x="0"
           style="font-style:normal;font-variant:normal;font-weight:normal;font-stretch:normal;font-size:10px;font-family:'DejaVu Sans';fill:#000000;fill-opacity:1;stroke:none"
           gcodetools="Gcodetools tool definition field name"><tspan
             id="tspan7094"
             sodipodi:role="line"
             y="80"
             x="0">penetration feed</tspan></text>
        <text
           id="text7096"
           xml:space="preserve"
           y="80"
           x="150"
           style="font-style:normal;font-variant:normal;font-weight:normal;font-stretch:normal;font-size:10px;font-family:'DejaVu Sans';fill:#000000;fill-opacity:1;stroke:none"
           gcodetools="Gcodetools tool definition field value"><tspan
             id="tspan7098"
             sodipodi:role="line"
             y="80"
             x="150">100</tspan></text>
      </g>
      <g
         id="g7100"
         gcodetools="Gcodetools tool parameter">
        <text
           id="text7102"
           xml:space="preserve"
           y="95"
           x="0"
           style="font-style:normal;font-variant:normal;font-weight:normal;font-stretch:normal;font-size:10px;font-family:'DejaVu Sans';fill:#000000;fill-opacity:1;stroke:none"
           gcodetools="Gcodetools tool definition field name"><tspan
             id="tspan7104"
             sodipodi:role="line"
             y="95"
             x="0">depth step</tspan></text>
        <text
           id="text7106"
           xml:space="preserve"
           y="95"
           x="150"
           style="font-style:normal;font-variant:normal;font-weight:normal;font-stretch:normal;font-size:10px;font-family:'DejaVu Sans';fill:#000000;fill-opacity:1;stroke:none"
           gcodetools="Gcodetools tool definition field value"><tspan
             id="tspan7108"
             sodipodi:role="line"
             y="95"
             x="150">1</tspan></text>
      </g>
      <g
         id="g7110"
         gcodetools="Gcodetools tool parameter">
        <text
           id="text7112"
           xml:space="preserve"
           y="110"
           x="0"
           style="font-style:normal;font-variant:normal;font-weight:normal;font-stretch:normal;font-size:10px;font-family:'DejaVu Sans';fill:#000000;fill-opacity:1;stroke:none"
           gcodetools="Gcodetools tool definition field name"><tspan
             id="tspan7114"
             sodipodi:role="line"
             y="110"
             x="0">tool change gcode</tspan></text>
        <text
           id="text7116"
           xml:space="preserve"
           y="110"
           x="150"
           style="font-style:normal;font-variant:normal;font-weight:normal;font-stretch:normal;font-size:10px;font-family:'DejaVu Sans';fill:#000000;fill-opacity:1;stroke:none"
           gcodetools="Gcodetools tool definition field value"><tspan
             id="tspan7118"
             sodipodi:role="line"
             y="110"
             x="150">(None)</tspan></text>
      </g>
    </g>
  </g>
  <g
     inkscape:label="Hershey Text"
     transform="matrix(1.5604397,0,0,1.5604397,622.99477,414.14354)"
     id="g8731">
    <path
       d="m -4,-8 2,-1 3,-3 0,21"
       style="fill:none;stroke:#000000"
       transform="translate(10,0)"
       id="path8733"
       inkscape:connector-curvature="0" />
  </g>
  <g
     id="g8879"
     transform="matrix(1.5604397,0,0,1.5604397,624.70904,198.89629)"
     inkscape:label="Hershey Text">
    <path
       id="path8881"
       transform="translate(10,0)"
       style="fill:none;stroke:#000000"
       d="m -1,-12 -3,1 -2,3 -1,5 0,3 1,5 2,3 3,1 2,0 3,-1 2,-3 1,-5 0,-3 -1,-5 -2,-3 -3,-1 -2,0"
       inkscape:connector-curvature="0" />
  </g>
  <g
     inkscape:label="Hershey Text"
     transform="matrix(1.5604397,0,0,1.5604397,482.11319,413.20173)"
     id="g9031">
    <path
       d="m -6,-7 0,-1 1,-2 1,-1 2,-1 4,0 2,1 1,1 1,2 0,2 L 5,-4 3,-1 -7,9 7,9"
       style="fill:none;stroke:#000000"
       transform="translate(10,0)"
       id="path9033"
       inkscape:connector-curvature="0" />
  </g>
  <g
     id="g9187"
     transform="matrix(1.5604397,0,0,1.5604397,345.45522,413.42848)"
     inkscape:label="Hershey Text">
    <path
       id="path9189"
       transform="translate(10,0)"
       style="fill:none;stroke:#000000"
       d="M 3,-12 -7,2 8,2 M 3,-12 3,9"
       inkscape:connector-curvature="0" />
  </g>
  <g
     inkscape:label="Hershey Text"
     transform="matrix(1.5604397,0,0,1.5604397,197.94494,413.20173)"
     id="g9347">
    <path
       d="m -2,-12 -3,1 -1,2 0,2 1,2 2,1 4,1 3,1 L 6,0 7,2 7,5 6,7 5,8 2,9 -2,9 -5,8 -6,7 -7,5 l 0,-3 1,-2 2,-2 3,-1 4,-1 2,-1 1,-2 0,-2 -1,-2 -3,-1 -4,0"
       style="fill:none;stroke:#000000"
       transform="translate(10,0)"
       id="path9349"
       inkscape:connector-curvature="0" />
  </g>
  <g
     id="g9599"
     transform="matrix(1.5604397,0,0,1.5604397,624.70905,268.61058)"
     inkscape:label="Hershey Text">
    <path
       inkscape:connector-curvature="0"
       id="path9601"
       transform="translate(10,0)"
       style="fill:none;stroke:#000000"
       d="m -4,-8 2,-1 3,-3 0,21" />
  </g>
  <g
     inkscape:label="Hershey Text"
     transform="matrix(1.5604397,0,0,1.5604397,477.56618,198.8963)"
     id="g9603">
    <path
       inkscape:connector-curvature="0"
       d="m -1,-12 -3,1 -2,3 -1,5 0,3 1,5 2,3 3,1 2,0 3,-1 2,-3 1,-5 0,-3 -1,-5 -2,-3 -3,-1 -2,0"
       style="fill:none;stroke:#000000"
       transform="translate(10,0)"
       id="path9605" />
  </g>
  <g
     inkscape:label="Hershey Text"
     transform="matrix(1.5604397,0,0,1.5604397,477.56619,268.61059)"
     id="g9607">
    <path
       d="m -4,-8 2,-1 3,-3 0,21"
       style="fill:none;stroke:#000000"
       transform="translate(10,0)"
       id="path9609"
       inkscape:connector-curvature="0" />
  </g>
  <g
     inkscape:label="Hershey Text"
     transform="matrix(1.5604397,0,0,1.5604397,341.8519,198.8963)"
     id="g9611">
    <path
       inkscape:connector-curvature="0"
       d="m -1,-12 -3,1 -2,3 -1,5 0,3 1,5 2,3 3,1 2,0 3,-1 2,-3 1,-5 0,-3 -1,-5 -2,-3 -3,-1 -2,0"
       style="fill:none;stroke:#000000"
       transform="translate(10,0)"
       id="path9613" />
  </g>
  <g
     inkscape:label="Hershey Text"
     transform="matrix(1.5604397,0,0,1.5604397,341.85191,268.61059)"
     id="g9615">
    <path
       d="m -4,-8 2,-1 3,-3 0,21"
       style="fill:none;stroke:#000000"
       transform="translate(10,0)"
       id="path9617"
       inkscape:connector-curvature="0" />
  </g>
  <g
     id="g9619"
     transform="matrix(1.5604397,0,0,1.5604397,194.70904,198.89629)"
     inkscape:label="Hershey Text">
    <path
       id="path9621"
       transform="translate(10,0)"
       style="fill:none;stroke:#000000"
       d="m -1,-12 -3,1 -2,3 -1,5 0,3 1,5 2,3 3,1 2,0 3,-1 2,-3 1,-5 0,-3 -1,-5 -2,-3 -3,-1 -2,0"
       inkscape:connector-curvature="0" />
  </g>
  <g
     id="g9623"
     transform="matrix(1.5604397,0,0,1.5604397,194.70905,268.61059)"
     inkscape:label="Hershey Text">
    <path
       inkscape:connector-curvature="0"
       id="path9625"
       transform="translate(10,0)"
       style="fill:none;stroke:#000000"
       d="m -4,-8 2,-1 3,-3 0,21" />
  </g>
  <path
     inkscape:connector-curvature="0"
     id="path5387"
     d="m 19.769705,586.17658 0,-566.9292 106.299215,0 0,566.9292 -106.299215,0"
     style="fill:none;fill-rule:evenodd;stroke:#000000;stroke-width:1px;stroke-linecap:butt;stroke-linejoin:miter;stroke-opacity:1" />
  <g
     id="g9511"
     transform="matrix(1.5604397,0,0,1.5604397,39.961781,413.75343)"
     inkscape:label="Hershey Text">
    <path
       id="path9513"
       transform="translate(10,0)"
       style="fill:none;stroke:#000000"
       d="m -4,-8 2,-1 3,-3 0,21"
       inkscape:connector-curvature="0" />
    <path
       id="path9515"
       transform="translate(30,0)"
       style="fill:none;stroke:#000000"
       d="m 6,-9 -1,-2 -3,-1 -2,0 -3,1 -2,3 -1,5 0,5 1,4 2,2 L 0,9 1,9 4,8 6,6 7,3 7,2 6,-1 4,-3 1,-4 l -1,0 -3,1 -2,2 -1,3"
       inkscape:connector-curvature="0" />
  </g>
  <g
     inkscape:label="Hershey Text"
     transform="matrix(1.5604397,0,0,1.5604397,56.137611,198.89629)"
     id="g9627">
    <path
       inkscape:connector-curvature="0"
       d="m -1,-12 -3,1 -2,3 -1,5 0,3 1,5 2,3 3,1 2,0 3,-1 2,-3 1,-5 0,-3 -1,-5 -2,-3 -3,-1 -2,0"
       style="fill:none;stroke:#000000"
       transform="translate(10,0)"
       id="path9629" />
  </g>
  <g
     inkscape:label="Hershey Text"
     transform="matrix(1.5604397,0,0,1.5604397,56.137621,268.61058)"
     id="g9631">
    <path
       d="m -4,-8 2,-1 3,-3 0,21"
       style="fill:none;stroke:#000000"
       transform="translate(10,0)"
       id="path9633"
       inkscape:connector-curvature="0" />
  </g>
</svg>
