<?xml version="1.0" encoding="UTF-8" standalone="no"?>
<!-- Created with Inkscape (http://www.inkscape.org/) -->

<svg
   xmlns:dc="http://purl.org/dc/elements/1.1/"
   xmlns:cc="http://creativecommons.org/ns#"
   xmlns:rdf="http://www.w3.org/1999/02/22-rdf-syntax-ns#"
   xmlns:svg="http://www.w3.org/2000/svg"
   xmlns="http://www.w3.org/2000/svg"
   xmlns:sodipodi="http://sodipodi.sourceforge.net/DTD/sodipodi-0.dtd"
   xmlns:inkscape="http://www.inkscape.org/namespaces/inkscape"
   width="165.71315mm"
   height="74.788429mm"
   viewBox="0 0 165.71315 74.788429"
   version="1.1"
   id="svg8"
   inkscape:version="0.92.3 (2405546, 2018-03-11)"
   sodipodi:docname="casque-chevalier-visiere.svg">
  <defs
     id="defs2" />
  <sodipodi:namedview
     id="base"
     pagecolor="#ffffff"
     bordercolor="#666666"
     borderopacity="1.0"
     inkscape:pageopacity="0.0"
     inkscape:pageshadow="2"
     inkscape:zoom="0.74788889"
     inkscape:cx="-177.08242"
     inkscape:cy="124.79671"
     inkscape:document-units="mm"
     inkscape:current-layer="layer3"
     showgrid="false"
     inkscape:window-width="1920"
     inkscape:window-height="1017"
     inkscape:window-x="-8"
     inkscape:window-y="-8"
     inkscape:window-maximized="1"
     fit-margin-top="0"
     fit-margin-left="0"
     fit-margin-right="0"
     fit-margin-bottom="0" />
  <metadata
     id="metadata5">
    <rdf:RDF>
      <cc:Work
         rdf:about="">
        <dc:format>image/svg+xml</dc:format>
        <dc:type
           rdf:resource="http://purl.org/dc/dcmitype/StillImage" />
        <dc:title></dc:title>
      </cc:Work>
    </rdf:RDF>
  </metadata>
  <g
     inkscape:groupmode="layer"
     id="layer3"
     inkscape:label="visière"
     style="display:inline"
     transform="translate(-31.259523,-59.96775)">
    <path
       style="fill:none;fill-opacity:1;fill-rule:evenodd;stroke:#ff0000;stroke-width:0.40681705px;stroke-linecap:butt;stroke-linejoin:miter;stroke-opacity:1"
       d="m 79.954467,60.171159 c 0,0 -6.150733,9.369058 -11.091327,10.029785 -3.724857,0.498144 -6.085124,-5.087557 -10.055215,-5.09872 l -0.313852,0.004 c -6.88987,0.163023 -12.355591,5.858035 -12.235504,12.748788 0.02909,1.402348 0.293398,2.789866 0.781855,4.10472 -8.78055,0.24636 -15.726694,7.514623 -15.575058,16.297316 0.157683,8.453272 6.854788,15.330182 15.300931,15.711702 -0.357848,1.21646 -0.52904,2.48016 -0.507728,3.74797 0.120393,6.89062 5.781274,12.39143 12.672516,12.31415 3.45766,-0.0446 5.842344,-4.78373 9.079485,-4.06498 3.693699,0.82011 7.423618,8.58686 7.423618,8.58686 H 194.60897 c 0,0 1.1703,0.005 1.83009,-0.85199 0.6598,-0.85717 0.12193,-2.64117 0.12193,-2.64117 L 176.93822,60.171159 Z M 58.79521,74.143575 c 1.92069,0.0025 3.479244,1.554761 3.488933,3.475426 0.0097,1.92075 -1.533314,3.488921 -3.45397,3.510389 -1.92084,0.0216 -3.498672,-1.511847 -3.531839,-3.43252 -0.03324,-1.920042 1.489686,-3.506844 3.409476,-3.552502 z m 36.159045,5.752649 c 1.479822,0 2.671328,1.191503 2.671328,2.671324 v 35.341442 c 0,1.47981 -1.191506,2.67133 -2.671328,2.67133 -1.479821,0 -2.671324,-1.19152 -2.671324,-2.67133 V 82.567548 c 0,-1.479821 1.191503,-2.671324 2.671324,-2.671324 z m 16.272685,0 c 1.47982,0 2.67133,1.191503 2.67133,2.671324 v 35.341442 c 0,1.47981 -1.19151,2.67133 -2.67133,2.67133 -1.47982,0 -2.67132,-1.19152 -2.67132,-2.67133 V 82.567548 c 0,-1.479821 1.1915,-2.671324 2.67132,-2.671324 z m 16.05815,0.0017 c 1.47974,-0.01558 2.68356,1.162984 2.69914,2.642724 l 0.37265,35.339052 c 0.0156,1.47974 -1.16299,2.68354 -2.64272,2.69913 -1.47974,0.0155 -2.68355,-1.16297 -2.69914,-2.64272 l -0.37265,-35.339121 c -0.0156,-1.47974 1.16298,-2.683547 2.64272,-2.699136 z m 15.72126,0.01276 c 1.47877,-0.05575 2.7141,1.090057 2.76985,2.568831 l 1.33089,35.316815 c 0.0558,1.47876 -1.09005,2.7141 -2.56882,2.76985 -1.47877,0.0558 -2.71411,-1.09007 -2.76986,-2.56883 l -1.33089,-35.316943 c -0.0558,-1.478772 1.09005,-2.714108 2.56883,-2.769855 z m 16.25837,8.14e-4 c 1.47873,-0.05677 2.71468,1.087711 2.77144,2.566442 l 1.35554,35.31602 c 0.0567,1.47873 -1.08773,2.71467 -2.56645,2.77144 -1.47873,0.0567 -2.71468,-1.08772 -2.77145,-2.56645 l -1.35553,-35.316018 c -0.0567,-1.478735 1.08772,-2.714682 2.56645,-2.771441 z m 15.3057,0.0723 c 1.35708,0.0017 2.51203,1.025472 2.64987,2.405941 l 3.51118,35.166631 c 0.14699,1.47249 -0.91993,2.77617 -2.39244,2.9232 -1.47249,0.14699 -2.77695,-0.91993 -2.92399,-2.39242 l -3.51118,-35.166768 c -0.14699,-1.472498 0.91993,-2.776175 2.39244,-2.923204 0.0919,-0.0092 0.18365,-0.01353 0.27412,-0.01353 z M 47.494915,94.485387 c 1.92038,0.0031 3.478452,1.555058 3.488139,3.475414 0.0097,1.920756 -1.533317,3.488929 -3.453974,3.510399 -1.920535,0.0217 -3.49824,-1.511365 -3.531839,-3.431736 -0.03369,-1.920341 1.489373,-3.507627 3.409477,-3.553278 z M 58.79521,114.00545 c 1.92069,0.003 3.479239,1.55476 3.488933,3.47542 0.0097,1.92075 -1.533314,3.48893 -3.45397,3.51039 -1.920534,0.0215 -3.498241,-1.51136 -3.531839,-3.43173 -0.03364,-1.92034 1.489374,-3.50763 3.409476,-3.55329 z"
       id="path822"
       inkscape:connector-curvature="0"
       sodipodi:nodetypes="caccccccccacczcccccccccsssssssssssssscccccccsccsccsccccccccccscccccccccccccccc" />
  </g>
</svg>
