<?xml version="1.0" encoding="UTF-8" standalone="no"?>
<!-- Created with Inkscape (http://www.inkscape.org/) -->

<svg
   xmlns:dc="http://purl.org/dc/elements/1.1/"
   xmlns:cc="http://creativecommons.org/ns#"
   xmlns:rdf="http://www.w3.org/1999/02/22-rdf-syntax-ns#"
   xmlns:svg="http://www.w3.org/2000/svg"
   xmlns="http://www.w3.org/2000/svg"
   xmlns:sodipodi="http://sodipodi.sourceforge.net/DTD/sodipodi-0.dtd"
   xmlns:inkscape="http://www.inkscape.org/namespaces/inkscape"
   width="216.0648mm"
   height="173.56177mm"
   viewBox="0 0 216.0648 173.56177"
   version="1.1"
   id="svg8"
   inkscape:version="0.92.3 (2405546, 2018-03-11)"
   sodipodi:docname="casque-chevalier-casque.svg">
  <defs
     id="defs2" />
  <sodipodi:namedview
     id="base"
     pagecolor="#ffffff"
     bordercolor="#666666"
     borderopacity="1.0"
     inkscape:pageopacity="0.0"
     inkscape:pageshadow="2"
     inkscape:zoom="0.74788889"
     inkscape:cx="7.3743844"
     inkscape:cy="356.3237"
     inkscape:document-units="mm"
     inkscape:current-layer="layer2"
     showgrid="false"
     inkscape:window-width="1920"
     inkscape:window-height="1017"
     inkscape:window-x="-8"
     inkscape:window-y="-8"
     inkscape:window-maximized="1"
     fit-margin-top="0"
     fit-margin-left="0"
     fit-margin-right="0"
     fit-margin-bottom="0" />
  <metadata
     id="metadata5">
    <rdf:RDF>
      <cc:Work
         rdf:about="">
        <dc:format>image/svg+xml</dc:format>
        <dc:type
           rdf:resource="http://purl.org/dc/dcmitype/StillImage" />
        <dc:title></dc:title>
      </cc:Work>
    </rdf:RDF>
  </metadata>
  <g
     inkscape:groupmode="layer"
     id="layer2"
     inkscape:label="casque"
     style="display:inline"
     transform="translate(17.544673,-22.452598)">
    <g
       id="g3774"
       transform="rotate(90,90.486403,109.23226)">
      <path
         sodipodi:nodetypes="ccccccc"
         inkscape:connector-curvature="0"
         id="path818"
         d="M 3.9131461,98.506256 38.160708,1.4463139 H 160.20582 L 177.05966,130.46544 142.77083,217.05935 12.941886,216.81862 Z"
         style="fill:none;fill-opacity:1;fill-rule:evenodd;stroke:#ff0000;stroke-width:0.40745771;stroke-linecap:butt;stroke-linejoin:miter;stroke-miterlimit:4;stroke-dasharray:none;stroke-opacity:1" />
      <path
         sodipodi:nodetypes="cccccccccsccsccccccc"
         inkscape:connector-curvature="0"
         id="path861"
         d="m 106.26012,1.4051607 c -0.004,0.101111 -0.006,0.2023343 -0.004,0.3035253 0.0504,2.7038403 2.18855,4.9055435 4.88975,5.035155 0.13065,2.7604984 2.4219,4.922901 5.18533,4.893724 2.4803,-0.02994 4.58492,-1.8279705 5.00179,-4.2731689 h 32.82584 l 16.82093,121.8456939 -19.38259,49.18355 c -1.16765,-0.34557 -4.16374,-1.29749 -5.25209,-2.30663 -1.3515,-1.25315 -1.44276,-2.40274 -2.17949,-4.21357 -0.73673,-1.81084 0.18389,-4.17286 -2.03408,-6.68309 -1.85106,3.02522 -1.37491,4.47431 -1.16245,6.68309 0.21246,2.20877 0.61397,4.28324 2.32489,6.10225 1.46972,1.56257 5.88201,2.94635 7.15745,3.32446 l -12.34754,31.33207 h -24.28037 c -1.45565,-2.71385 -4.28286,-4.41031 -7.36244,-4.41778 l -0.20977,0.003 c -4.60542,0.10886 -8.258891,3.91569 -8.17845,8.5217 0.0045,0.0867 0.0103,0.17331 0.0175,0.25982"
         style="fill:none;fill-opacity:1;stroke:#0000ff;stroke-width:0.40745771;stroke-linecap:round;stroke-linejoin:bevel;stroke-miterlimit:4;stroke-dasharray:none;stroke-dashoffset:0;stroke-opacity:1" />
      <path
         d="m 106.29168,187.8557 a 1.7435017,1.7435017 0 0 1 1.74111,1.73495 1.7435017,1.7435017 0 0 1 -1.72402,1.75194 1.7435017,1.7435017 0 0 1 -1.7627,-1.71302 1.7435017,1.7435017 0 0 1 1.70195,-1.77339"
         sodipodi:open="true"
         sodipodi:end="4.6887049"
         sodipodi:start="4.7137503"
         sodipodi:ry="1.7435017"
         sodipodi:rx="1.7435017"
         sodipodi:cy="189.5992"
         sodipodi:cx="106.28931"
         sodipodi:type="arc"
         id="path888"
         style="fill:none;fill-opacity:1;stroke:#ff0000;stroke-width:0.40745771;stroke-linecap:round;stroke-linejoin:bevel;stroke-miterlimit:4;stroke-dasharray:none;stroke-dashoffset:0;stroke-opacity:1" />
      <path
         style="fill:none;fill-opacity:1;stroke:#ff0000;stroke-width:0.40745771;stroke-linecap:round;stroke-linejoin:bevel;stroke-miterlimit:4;stroke-dasharray:none;stroke-dashoffset:0;stroke-opacity:1"
         id="path890"
         sodipodi:type="arc"
         sodipodi:cx="106.28931"
         sodipodi:cy="152.17253"
         sodipodi:rx="1.7435017"
         sodipodi:ry="1.7435017"
         sodipodi:start="4.7137503"
         sodipodi:end="4.6887049"
         sodipodi:open="true"
         d="m 106.29168,150.42903 a 1.7435017,1.7435017 0 0 1 1.74111,1.73496 1.7435017,1.7435017 0 0 1 -1.72402,1.75193 1.7435017,1.7435017 0 0 1 -1.7627,-1.71301 1.7435017,1.7435017 0 0 1 1.70195,-1.77339" />
      <path
         d="m 125.00507,169.1757 a 1.7435017,1.7435017 0 0 1 1.74111,1.73496 1.7435017,1.7435017 0 0 1 -1.72402,1.75194 1.7435017,1.7435017 0 0 1 -1.7627,-1.71302 1.7435017,1.7435017 0 0 1 1.70195,-1.77339"
         sodipodi:open="true"
         sodipodi:end="4.6887049"
         sodipodi:start="4.7137503"
         sodipodi:ry="1.7435017"
         sodipodi:rx="1.7435017"
         sodipodi:cy="170.9192"
         sodipodi:cx="125.0027"
         sodipodi:type="arc"
         id="path892"
         style="fill:none;fill-opacity:1;stroke:#ff0000;stroke-width:0.40745771;stroke-linecap:round;stroke-linejoin:bevel;stroke-miterlimit:4;stroke-dasharray:none;stroke-dashoffset:0;stroke-opacity:1" />
      <path
         style="fill:none;fill-opacity:1;stroke:#ff0000;stroke-width:0.40745771;stroke-linecap:round;stroke-linejoin:bevel;stroke-miterlimit:4;stroke-dasharray:none;stroke-dashoffset:0;stroke-opacity:1"
         id="path894"
         sodipodi:type="arc"
         sodipodi:cx="87.575768"
         sodipodi:cy="170.9192"
         sodipodi:rx="1.7435017"
         sodipodi:ry="1.7435017"
         sodipodi:start="4.7137503"
         sodipodi:end="4.6887049"
         sodipodi:open="true"
         d="m 87.578141,169.1757 a 1.7435017,1.7435017 0 0 1 1.741107,1.73496 1.7435017,1.7435017 0 0 1 -1.724021,1.75194 1.7435017,1.7435017 0 0 1 -1.762697,-1.71302 1.7435017,1.7435017 0 0 1 1.701948,-1.77339" />
      <path
         d="m 106.29168,169.1757 a 1.7435017,1.7435017 0 0 1 1.74111,1.73496 1.7435017,1.7435017 0 0 1 -1.72402,1.75194 1.7435017,1.7435017 0 0 1 -1.7627,-1.71302 1.7435017,1.7435017 0 0 1 1.70195,-1.77339"
         sodipodi:open="true"
         sodipodi:end="4.6887049"
         sodipodi:start="4.7137503"
         sodipodi:ry="1.7435017"
         sodipodi:rx="1.7435017"
         sodipodi:cy="170.9192"
         sodipodi:cx="106.28931"
         sodipodi:type="arc"
         id="path896"
         style="fill:none;fill-opacity:1;stroke:#ff0000;stroke-width:0.40745771;stroke-linecap:round;stroke-linejoin:bevel;stroke-miterlimit:4;stroke-dasharray:none;stroke-dashoffset:0;stroke-opacity:1" />
      <path
         style="fill:none;fill-opacity:1;stroke:#ff0000;stroke-width:0.40745771;stroke-linecap:round;stroke-linejoin:bevel;stroke-miterlimit:4;stroke-dasharray:none;stroke-dashoffset:0;stroke-opacity:1"
         id="path898"
         sodipodi:type="arc"
         sodipodi:cx="90.830246"
         sodipodi:cy="159.52849"
         sodipodi:rx="1.7435017"
         sodipodi:ry="1.7435017"
         sodipodi:start="4.7137503"
         sodipodi:end="4.6887049"
         sodipodi:open="true"
         d="m 90.832619,157.78499 a 1.7435017,1.7435017 0 0 1 1.741108,1.73495 1.7435017,1.7435017 0 0 1 -1.724022,1.75194 1.7435017,1.7435017 0 0 1 -1.762696,-1.71302 1.7435017,1.7435017 0 0 1 1.701948,-1.77338" />
      <path
         d="m 120.93691,157.78499 a 1.7435017,1.7435017 0 0 1 1.74111,1.73495 1.7435017,1.7435017 0 0 1 -1.72402,1.75194 1.7435017,1.7435017 0 0 1 -1.7627,-1.71302 1.7435017,1.7435017 0 0 1 1.70195,-1.77338"
         sodipodi:open="true"
         sodipodi:end="4.6887049"
         sodipodi:start="4.7137503"
         sodipodi:ry="1.7435017"
         sodipodi:rx="1.7435017"
         sodipodi:cy="159.52849"
         sodipodi:cx="120.93454"
         sodipodi:type="arc"
         id="path900"
         style="fill:none;fill-opacity:1;stroke:#ff0000;stroke-width:0.40745771;stroke-linecap:round;stroke-linejoin:bevel;stroke-miterlimit:4;stroke-dasharray:none;stroke-dashoffset:0;stroke-opacity:1" />
      <path
         style="fill:none;fill-opacity:1;stroke:#ff0000;stroke-width:0.40745771;stroke-linecap:round;stroke-linejoin:bevel;stroke-miterlimit:4;stroke-dasharray:none;stroke-dashoffset:0;stroke-opacity:1"
         id="path902"
         sodipodi:type="arc"
         sodipodi:cx="120.12092"
         sodipodi:cy="183.12357"
         sodipodi:rx="1.7435017"
         sodipodi:ry="1.7435017"
         sodipodi:start="4.7137503"
         sodipodi:end="4.6887049"
         sodipodi:open="true"
         d="m 120.12329,181.38007 a 1.7435017,1.7435017 0 0 1 1.74111,1.73495 1.7435017,1.7435017 0 0 1 -1.72402,1.75194 1.7435017,1.7435017 0 0 1 -1.7627,-1.71302 1.7435017,1.7435017 0 0 1 1.70195,-1.77339" />
      <path
         d="m 91.646264,181.38007 a 1.7435017,1.7435017 0 0 1 1.741107,1.73495 1.7435017,1.7435017 0 0 1 -1.724021,1.75194 1.7435017,1.7435017 0 0 1 -1.762697,-1.71302 1.7435017,1.7435017 0 0 1 1.701948,-1.77339"
         sodipodi:open="true"
         sodipodi:end="4.6887049"
         sodipodi:start="4.7137503"
         sodipodi:ry="1.7435017"
         sodipodi:rx="1.7435017"
         sodipodi:cy="183.12357"
         sodipodi:cx="91.64389"
         sodipodi:type="arc"
         id="path904"
         style="fill:none;fill-opacity:1;stroke:#ff0000;stroke-width:0.40745771;stroke-linecap:round;stroke-linejoin:bevel;stroke-miterlimit:4;stroke-dasharray:none;stroke-dashoffset:0;stroke-opacity:1" />
    </g>
  </g>
</svg>
