<?xml version="1.0" encoding="UTF-8" standalone="no"?>

<svg
   xmlns:dc="http://purl.org/dc/elements/1.1/"
   xmlns:cc="http://creativecommons.org/ns#"
   xmlns:rdf="http://www.w3.org/1999/02/22-rdf-syntax-ns#"
   xmlns:svg="http://www.w3.org/2000/svg"
   xmlns="http://www.w3.org/2000/svg"
   xmlns:inkscape="http://www.inkscape.org/namespaces/inkscape"
   version="1.1"
   x="0"
   y="0"
   width="210mm"
   height="297mm"
   viewBox="0 0 210 297"
   id="icesl-svg">

<!-- <IceSL May 25 2015 10:34:24> -->
<!-- printer_name          : 	 icesl-svg-printer -->
<!-- nozzle_mm_width       : 	 -0.2 -->
<!-- bed_size_x_mm         : 	 210 -->
<!-- bed_size_y_mm         : 	 297 -->
<!-- xy_mm_per_pixels      : 	 0.05 -->
<!-- z_layer_height_mm     : 	 0.2 -->
<!-- num_slice_nesting     : 	 2 -->
<!-- feed_rate_mm_per_sec  : 	 35 -->
<!-- travel_rate_mm_per_sec: 	 110 -->
<!-- perimeter_mm_per_sec  : 	 35 -->
<!-- min_sec_per_perimeter : 	 1 -->
<!-- brush0:has_perimeter         : 	 1 -->
<!-- brush0:detachable            : 	 1 -->
<!-- brush0:tool                  : 	 0 -->
<!-- brush0:infill_percentage     : 	 0 -->
<!-- brush0:num_shells            : 	 0 -->
<!-- brush0:num_covers            : 	 0 -->
<!-- brush0:flow_muitplier        : 	 1 -->
<!-- brush0:speed_muitplier       : 	 1 -->
<!-- brush1:has_perimeter         : 	 0 -->
<!-- brush1:detachable            : 	 0 -->
<!-- brush1:tool                  : 	 1 -->
<!-- brush1:infill_percentage     : 	 50 -->
<!-- brush1:num_shells            : 	 100 -->
<!-- brush1:num_covers            : 	 0 -->
<!-- brush1:flow_muitplier        : 	 1 -->
<!-- brush1:speed_muitplier       : 	 1 -->
<!-- brush2:has_perimeter         : 	 1 -->
<!-- brush2:detachable            : 	 0 -->
<!-- brush2:tool                  : 	 0 -->
<!-- brush2:infill_percentage     : 	 100 -->
<!-- brush2:num_shells            : 	 2 -->
<!-- brush2:num_covers            : 	 6 -->
<!-- brush2:flow_muitplier        : 	 1 -->
<!-- brush2:speed_muitplier       : 	 1 -->
<!-- brush3:has_perimeter         : 	 1 -->
<!-- brush3:detachable            : 	 0 -->
<!-- brush3:tool                  : 	 0 -->
<!-- brush3:infill_percentage     : 	 100 -->
<!-- brush3:num_shells            : 	 1 -->
<!-- brush3:num_covers            : 	 6 -->
<!-- brush3:flow_muitplier        : 	 2 -->
<!-- brush3:speed_muitplier       : 	 0.5 -->
<!-- hbp_temp_degree_c     : 	 60 -->
<!-- filament_diameter_mm[0]: 	 1.74 -->
<!-- filament_priming_mm[0]: 	 0.1 -->
<!-- tool_temp_degree_c[0]  : 	 180 -->
<!-- filament_diameter_mm[1]: 	 1.74 -->
<!-- filament_priming_mm[1]: 	 0.1 -->
<!-- tool_temp_degree_c[1]  : 	 180 -->
<!-- process_thin_features : 	 off -->
<g id="layer1" inkscape:groupmode="layer" inkscape:label="layer0.200(1)" >
<path style="fill:none;stroke:#000000;stroke-width:0.2;stroke-linecap:butt;stroke-linejoin:miter;stroke-opacity:1" 
d="
M 96.114,91.564 
L 97.114,81.614 
L 98.114,91.564 
L 99.114,81.614 
L 100.114,91.564 
L 101.114,81.614 
L 102.114,91.564 
L 103.114,81.614 
L 104.114,91.564 
L 105.114,81.614 
L 106.114,91.564 
L 107.114,81.614 
L 108.114,91.564 
L 109.064,81.664 
L 110.114,91.564 
L 111.064,81.664 
L 112.114,91.564 
L 113.064,81.664 
L 114.114,91.564 
L 115.164,81.664 
L 116.064,91.514 
" />
<path style="fill:none;stroke:#000000;stroke-width:0.2;stroke-linecap:butt;stroke-linejoin:miter;stroke-opacity:1" 
d="
M 73.564,96.614 
" />
<path style="fill:none;stroke:#000000;stroke-width:0.2;stroke-linecap:butt;stroke-linejoin:miter;stroke-opacity:1" 
d="
M 74.464,96.614 
L 75.214,96.614 
L 75.264,96.814 
L 73.914,99.114 
L 74.514,99.114 
L 74.614,99.014 
L 75.964,96.614 
L 78.514,96.864 
L 80.764,97.314 
L 83.614,98.214 
L 86.464,99.514 
L 89.064,101.114 
L 91.664,103.214 
L 93.114,104.664 
L 94.814,106.714 
L 96.214,108.814 
L 97.564,111.414 
L 98.264,113.164 
L 99.114,116.064 
L 99.514,118.264 
L 99.714,120.464 
L 99.664,122.364 
L 99.314,122.264 
L 97.214,121.014 
L 97.214,121.614 
L 97.314,121.714 
L 99.664,123.064 
L 99.514,125.114 
L 99.114,127.314 
L 98.214,130.364 
L 96.914,133.314 
L 95.214,136.114 
L 93.214,138.614 
L 91.564,140.264 
L 89.564,141.914 
L 87.114,143.514 
L 85.064,144.564 
L 82.814,145.464 
L 80.164,146.214 
L 77.464,146.664 
L 74.914,146.814 
L 74.014,146.814 
L 73.964,146.564 
L 75.264,144.314 
L 74.614,144.364 
L 73.264,146.764 
L 70.964,146.564 
L 69.064,146.214 
L 65.464,145.114 
L 62.564,143.764 
L 60.214,142.314 
L 57.714,140.314 
L 55.964,138.564 
L 54.114,136.264 
L 53.064,134.664 
L 51.864,132.414 
L 51.064,130.514 
L 50.264,127.964 
L 49.814,125.814 
L 49.514,123.014 
L 49.564,121.014 
L 49.714,121.014 
L 52.014,122.364 
L 51.964,121.714 
L 49.564,120.364 
L 49.664,118.614 
L 50.064,116.264 
L 51.014,113.014 
L 52.314,110.064 
L 54.014,107.264 
L 56.064,104.714 
L 58.114,102.714 
L 59.814,101.364 
L 62.214,99.814 
L 64.514,98.664 
L 67.214,97.664 
L 69.564,97.064 
L 72.314,96.664 
L 74.464,96.614 
" />
<path style="fill:none;stroke:#000000;stroke-width:0.2;stroke-linecap:butt;stroke-linejoin:miter;stroke-opacity:1" 
d="
M 73.564,96.614 
" />
<path style="fill:none;stroke:#000000;stroke-width:0.2;stroke-linecap:butt;stroke-linejoin:miter;stroke-opacity:1" 
d="
M 72.664,96.664 
" />
<path style="fill:none;stroke:#000000;stroke-width:0.2;stroke-linecap:butt;stroke-linejoin:miter;stroke-opacity:1" 
d="
M 75.064,101.664 
" />
<path style="fill:none;stroke:#000000;stroke-width:0.2;stroke-linecap:butt;stroke-linejoin:miter;stroke-opacity:1" 
d="
M 75.964,101.864 
L 73.264,101.814 
L 72.214,101.914 
L 70.214,102.264 
L 67.964,102.914 
L 66.464,103.514 
L 64.614,104.464 
L 62.914,105.564 
L 61.414,106.764 
L 60.164,107.964 
L 58.614,109.814 
L 57.514,111.464 
L 56.514,113.364 
L 55.914,114.814 
L 55.164,117.364 
L 54.714,120.664 
L 54.714,122.764 
L 54.914,124.664 
L 55.414,127.014 
L 55.914,128.564 
L 56.464,129.914 
L 57.364,131.664 
L 58.214,133.014 
L 59.614,134.814 
L 61.014,136.264 
L 62.364,137.414 
L 64.014,138.564 
L 66.114,139.714 
L 67.664,140.364 
L 69.364,140.914 
L 71.164,141.314 
L 73.264,141.564 
L 75.114,141.614 
L 77.464,141.414 
L 79.664,140.964 
L 81.564,140.364 
L 83.214,139.664 
L 84.714,138.864 
L 86.464,137.714 
L 87.764,136.664 
L 89.114,135.364 
L 90.614,133.564 
L 91.714,131.914 
L 92.714,130.014 
L 93.364,128.414 
L 94.014,126.214 
L 94.314,124.664 
L 94.514,122.664 
L 94.514,120.714 
L 94.264,118.414 
L 93.864,116.564 
L 93.364,114.964 
L 92.664,113.264 
L 91.914,111.814 
L 90.864,110.164 
L 89.514,108.464 
L 87.814,106.764 
L 86.314,105.564 
L 84.614,104.464 
L 82.764,103.514 
L 81.264,102.914 
L 79.014,102.264 
L 77.014,101.914 
L 75.964,101.864 
" />
<path style="fill:none;stroke:#000000;stroke-width:0.2;stroke-linecap:butt;stroke-linejoin:miter;stroke-opacity:1" 
d="
M 75.064,101.664 
" />
<path style="fill:none;stroke:#000000;stroke-width:0.2;stroke-linecap:butt;stroke-linejoin:miter;stroke-opacity:1" 
d="
M 90.014,101.814 
" />
<path style="fill:none;stroke:#000000;stroke-width:0.2;stroke-linecap:butt;stroke-linejoin:miter;stroke-opacity:1" 
d="
M 93.514,105.114 
" />
<path style="fill:none;stroke:#000000;stroke-width:0.2;stroke-linecap:butt;stroke-linejoin:miter;stroke-opacity:1" 
d="
M 96.214,108.814 
" />
<path style="fill:none;stroke:#000000;stroke-width:0.2;stroke-linecap:butt;stroke-linejoin:miter;stroke-opacity:1" 
d="
M 98.864,115.064 
" />
<path style="fill:none;stroke:#000000;stroke-width:0.2;stroke-linecap:butt;stroke-linejoin:miter;stroke-opacity:1" 
d="
M 99.714,121.214 
" />
<path style="fill:none;stroke:#000000;stroke-width:0.2;stroke-linecap:butt;stroke-linejoin:miter;stroke-opacity:1" 
d="
M 99.964,121.014 
" />
<path style="fill:none;stroke:#000000;stroke-width:0.2;stroke-linecap:butt;stroke-linejoin:miter;stroke-opacity:1" 
d="
M 102.114,122.314 
" />
<path style="fill:none;stroke:#000000;stroke-width:0.2;stroke-linecap:butt;stroke-linejoin:miter;stroke-opacity:1" 
d="
M 102.214,121.714 
" />
<path style="fill:none;stroke:#000000;stroke-width:0.2;stroke-linecap:butt;stroke-linejoin:miter;stroke-opacity:1" 
d="
M 99.814,120.364 
" />
<path style="fill:none;stroke:#000000;stroke-width:0.2;stroke-linecap:butt;stroke-linejoin:miter;stroke-opacity:1" 
d="
M 101.064,113.614 
" />
<path style="fill:none;stroke:#000000;stroke-width:0.2;stroke-linecap:butt;stroke-linejoin:miter;stroke-opacity:1" 
d="
M 104.264,107.314 
" />
<path style="fill:none;stroke:#000000;stroke-width:0.2;stroke-linecap:butt;stroke-linejoin:miter;stroke-opacity:1" 
d="
M 108.214,102.914 
" />
<path style="fill:none;stroke:#000000;stroke-width:0.2;stroke-linecap:butt;stroke-linejoin:miter;stroke-opacity:1" 
d="
M 112.514,99.814 
" />
<path style="fill:none;stroke:#000000;stroke-width:0.2;stroke-linecap:butt;stroke-linejoin:miter;stroke-opacity:1" 
d="
M 117.464,97.714 
" />
<path style="fill:none;stroke:#000000;stroke-width:0.2;stroke-linecap:butt;stroke-linejoin:miter;stroke-opacity:1" 
d="
M 125.314,101.664 
" />
<path style="fill:none;stroke:#000000;stroke-width:0.2;stroke-linecap:butt;stroke-linejoin:miter;stroke-opacity:1" 
d="
M 126.214,101.864 
L 123.514,101.814 
L 122.464,101.914 
L 120.464,102.264 
L 118.364,102.864 
L 116.614,103.564 
L 114.864,104.464 
L 112.964,105.714 
L 111.614,106.814 
L 110.014,108.414 
L 109.064,109.564 
L 107.864,111.314 
L 106.914,113.064 
L 106.214,114.714 
L 105.664,116.414 
L 105.264,118.164 
L 105.014,120.064 
L 104.964,122.514 
L 105.114,124.264 
L 105.414,125.964 
L 105.914,127.814 
L 106.614,129.664 
L 107.564,131.564 
L 108.614,133.214 
L 109.964,134.914 
L 111.114,136.114 
L 112.564,137.364 
L 114.114,138.464 
L 116.064,139.564 
L 118.064,140.414 
L 119.814,140.964 
L 121.714,141.364 
L 123.514,141.564 
L 125.364,141.614 
L 126.914,141.514 
L 128.864,141.214 
L 131.114,140.614 
L 132.814,139.964 
L 134.714,139.014 
L 136.514,137.864 
L 137.914,136.764 
L 139.514,135.214 
L 140.614,133.914 
L 141.664,132.414 
L 142.664,130.664 
L 143.514,128.714 
L 144.164,126.664 
L 144.564,124.714 
L 144.764,122.864 
L 144.764,120.564 
L 144.614,119.014 
L 144.214,116.914 
L 143.764,115.364 
L 143.014,113.464 
L 142.114,111.714 
L 141.264,110.364 
L 139.864,108.564 
L 138.514,107.164 
L 137.164,106.014 
L 135.614,104.914 
L 133.664,103.814 
L 132.064,103.114 
L 130.264,102.514 
L 127.964,102.014 
L 126.214,101.864 
" />
<path style="fill:none;stroke:#000000;stroke-width:0.2;stroke-linecap:butt;stroke-linejoin:miter;stroke-opacity:1" 
d="
M 125.314,101.664 
" />
<path style="fill:none;stroke:#000000;stroke-width:0.2;stroke-linecap:butt;stroke-linejoin:miter;stroke-opacity:1" 
d="
M 124.214,99.114 
" />
<path style="fill:none;stroke:#000000;stroke-width:0.2;stroke-linecap:butt;stroke-linejoin:miter;stroke-opacity:1" 
d="
M 123.864,96.614 
" />
<path style="fill:none;stroke:#000000;stroke-width:0.2;stroke-linecap:butt;stroke-linejoin:miter;stroke-opacity:1" 
d="
M 124.764,96.614 
L 125.464,96.614 
L 125.514,96.864 
L 124.214,99.114 
L 124.814,99.114 
L 126.214,96.614 
L 128.464,96.814 
L 130.814,97.264 
L 133.864,98.214 
L 136.814,99.564 
L 139.464,101.214 
L 141.764,103.064 
L 143.514,104.814 
L 145.364,107.114 
L 146.764,109.314 
L 147.664,111.064 
L 148.564,113.264 
L 149.114,115.014 
L 149.714,117.864 
L 149.964,120.264 
L 149.914,122.364 
L 149.664,122.314 
L 147.464,121.014 
L 147.514,121.664 
L 149.914,123.014 
L 149.814,124.814 
L 149.364,127.364 
L 148.364,130.664 
L 147.014,133.614 
L 145.614,135.914 
L 143.564,138.514 
L 141.714,140.364 
L 139.614,142.064 
L 137.714,143.314 
L 135.214,144.614 
L 132.464,145.664 
L 129.964,146.314 
L 127.264,146.714 
L 125.064,146.814 
L 124.264,146.814 
L 124.214,146.564 
L 125.514,144.314 
L 124.914,144.314 
L 123.514,146.764 
L 121.214,146.564 
L 119.314,146.214 
L 116.114,145.264 
L 112.914,143.814 
L 110.264,142.164 
L 107.864,140.214 
L 106.364,138.714 
L 104.664,136.664 
L 103.064,134.214 
L 101.964,132.064 
L 101.214,130.214 
L 100.414,127.514 
L 99.964,125.064 
L 99.764,122.764 
L 99.814,121.014 
L 100.064,121.064 
L 102.264,122.364 
L 102.214,121.714 
L 99.814,120.364 
L 99.964,118.314 
L 100.464,115.664 
L 101.364,112.764 
L 102.764,109.714 
L 104.564,106.864 
L 106.464,104.564 
L 108.264,102.814 
L 110.564,101.014 
L 112.564,99.764 
L 114.664,98.714 
L 117.464,97.664 
L 119.364,97.164 
L 122.114,96.714 
L 124.764,96.614 
" />
<path style="fill:none;stroke:#000000;stroke-width:0.2;stroke-linecap:butt;stroke-linejoin:miter;stroke-opacity:1" 
d="
M 123.864,96.614 
" />
<path style="fill:none;stroke:#000000;stroke-width:0.2;stroke-linecap:butt;stroke-linejoin:miter;stroke-opacity:1" 
d="
M 119.364,97.164 
" />
<path style="fill:none;stroke:#000000;stroke-width:0.2;stroke-linecap:butt;stroke-linejoin:miter;stroke-opacity:1" 
d="
M 114.114,98.964 
" />
<path style="fill:none;stroke:#000000;stroke-width:0.2;stroke-linecap:butt;stroke-linejoin:miter;stroke-opacity:1" 
d="
M 109.864,101.514 
" />
<path style="fill:none;stroke:#000000;stroke-width:0.2;stroke-linecap:butt;stroke-linejoin:miter;stroke-opacity:1" 
d="
M 106.064,105.014 
" />
<path style="fill:none;stroke:#000000;stroke-width:0.2;stroke-linecap:butt;stroke-linejoin:miter;stroke-opacity:1" 
d="
M 102.764,109.714 
" />
<path style="fill:none;stroke:#000000;stroke-width:0.2;stroke-linecap:butt;stroke-linejoin:miter;stroke-opacity:1" 
d="
M 100.314,116.314 
" />
<path style="fill:none;stroke:#000000;stroke-width:0.2;stroke-linecap:butt;stroke-linejoin:miter;stroke-opacity:1" 
d="
M 99.914,119.164 
" />
<path style="fill:none;stroke:#000000;stroke-width:0.2;stroke-linecap:butt;stroke-linejoin:miter;stroke-opacity:1" 
d="
M 102.264,121.764 
" />
<path style="fill:none;stroke:#000000;stroke-width:0.2;stroke-linecap:butt;stroke-linejoin:miter;stroke-opacity:1" 
d="
M 102.264,122.364 
" />
<path style="fill:none;stroke:#000000;stroke-width:0.2;stroke-linecap:butt;stroke-linejoin:miter;stroke-opacity:1" 
d="
M 99.814,121.014 
" />
<path style="fill:none;stroke:#000000;stroke-width:0.2;stroke-linecap:butt;stroke-linejoin:miter;stroke-opacity:1" 
d="
M 99.764,122.764 
" />
<path style="fill:none;stroke:#000000;stroke-width:0.2;stroke-linecap:butt;stroke-linejoin:miter;stroke-opacity:1" 
d="
M 100.414,127.514 
" />
<path style="fill:none;stroke:#000000;stroke-width:0.2;stroke-linecap:butt;stroke-linejoin:miter;stroke-opacity:1" 
d="
M 101.914,131.914 
" />
<path style="fill:none;stroke:#000000;stroke-width:0.2;stroke-linecap:butt;stroke-linejoin:miter;stroke-opacity:1" 
d="
M 104.714,136.664 
" />
<path style="fill:none;stroke:#000000;stroke-width:0.2;stroke-linecap:butt;stroke-linejoin:miter;stroke-opacity:1" 
d="
M 107.864,140.214 
" />
<path style="fill:none;stroke:#000000;stroke-width:0.2;stroke-linecap:butt;stroke-linejoin:miter;stroke-opacity:1" 
d="
M 110.914,142.614 
" />
<path style="fill:none;stroke:#000000;stroke-width:0.2;stroke-linecap:butt;stroke-linejoin:miter;stroke-opacity:1" 
d="
M 115.214,144.914 
" />
<path style="fill:none;stroke:#000000;stroke-width:0.2;stroke-linecap:butt;stroke-linejoin:miter;stroke-opacity:1" 
d="
M 119.314,146.214 
" />
<path style="fill:none;stroke:#000000;stroke-width:0.2;stroke-linecap:butt;stroke-linejoin:miter;stroke-opacity:1" 
d="
M 123.614,146.664 
" />
<path style="fill:none;stroke:#000000;stroke-width:0.2;stroke-linecap:butt;stroke-linejoin:miter;stroke-opacity:1" 
d="
M 126.214,147.914 
" />
<path style="fill:none;stroke:#000000;stroke-width:0.2;stroke-linecap:butt;stroke-linejoin:miter;stroke-opacity:1" 
d="
M 125.314,147.914 
L 125.964,147.864 
L 141.564,149.064 
L 142.964,150.364 
L 142.964,198.064 
L 141.664,200.564 
L 125.264,200.514 
L 125.314,199.114 
L 127.264,199.114 
L 127.714,199.114 
L 127.714,198.564 
L 125.264,198.514 
L 125.314,196.614 
L 138.964,197.864 
L 139.114,197.864 
L 140.264,196.714 
L 140.264,152.964 
L 139.114,151.814 
L 125.314,151.814 
L 125.314,149.864 
L 127.714,149.864 
L 127.714,149.314 
L 125.314,149.314 
L 125.314,147.914 
" />
<path style="fill:none;stroke:#000000;stroke-width:0.2;stroke-linecap:butt;stroke-linejoin:miter;stroke-opacity:1" 
d="
M 126.214,147.914 
" />
<path style="fill:none;stroke:#000000;stroke-width:0.2;stroke-linecap:butt;stroke-linejoin:miter;stroke-opacity:1" 
d="
M 125.264,147.914 
" />
<path style="fill:none;stroke:#000000;stroke-width:0.2;stroke-linecap:butt;stroke-linejoin:miter;stroke-opacity:1" 
d="
M 125.264,149.264 
" />
<path style="fill:none;stroke:#000000;stroke-width:0.2;stroke-linecap:butt;stroke-linejoin:miter;stroke-opacity:1" 
d="
M 127.714,149.314 
" />
<path style="fill:none;stroke:#000000;stroke-width:0.2;stroke-linecap:butt;stroke-linejoin:miter;stroke-opacity:1" 
d="
M 127.714,149.864 
" />
<path style="fill:none;stroke:#000000;stroke-width:0.2;stroke-linecap:butt;stroke-linejoin:miter;stroke-opacity:1" 
d="
M 125.314,149.864 
" />
<path style="fill:none;stroke:#000000;stroke-width:0.2;stroke-linecap:butt;stroke-linejoin:miter;stroke-opacity:1" 
d="
M 125.214,150.514 
" />
<path style="fill:none;stroke:#000000;stroke-width:0.2;stroke-linecap:butt;stroke-linejoin:miter;stroke-opacity:1" 
d="
M 108.464,147.914 
" />
<path style="fill:none;stroke:#000000;stroke-width:0.2;stroke-linecap:butt;stroke-linejoin:miter;stroke-opacity:1" 
d="
M 107.564,147.914 
L 108.214,147.864 
L 123.814,149.064 
L 125.214,150.364 
L 125.214,198.064 
L 123.914,200.564 
L 107.514,200.514 
L 107.564,199.114 
L 109.514,199.114 
L 109.964,199.114 
L 109.964,198.564 
L 107.514,198.514 
L 107.564,196.614 
L 121.214,197.864 
L 121.364,197.864 
L 122.514,196.714 
L 122.514,152.964 
L 121.364,151.814 
L 107.564,151.814 
L 107.564,149.864 
L 109.964,149.864 
L 109.964,149.314 
L 107.564,149.314 
L 107.564,147.914 
" />
<path style="fill:none;stroke:#000000;stroke-width:0.2;stroke-linecap:butt;stroke-linejoin:miter;stroke-opacity:1" 
d="
M 108.464,147.914 
" />
<path style="fill:none;stroke:#000000;stroke-width:0.2;stroke-linecap:butt;stroke-linejoin:miter;stroke-opacity:1" 
d="
M 107.514,147.914 
" />
<path style="fill:none;stroke:#000000;stroke-width:0.2;stroke-linecap:butt;stroke-linejoin:miter;stroke-opacity:1" 
d="
M 107.514,149.264 
" />
<path style="fill:none;stroke:#000000;stroke-width:0.2;stroke-linecap:butt;stroke-linejoin:miter;stroke-opacity:1" 
d="
M 109.964,149.314 
" />
<path style="fill:none;stroke:#000000;stroke-width:0.2;stroke-linecap:butt;stroke-linejoin:miter;stroke-opacity:1" 
d="
M 109.964,149.864 
" />
<path style="fill:none;stroke:#000000;stroke-width:0.2;stroke-linecap:butt;stroke-linejoin:miter;stroke-opacity:1" 
d="
M 107.564,149.864 
" />
<path style="fill:none;stroke:#000000;stroke-width:0.2;stroke-linecap:butt;stroke-linejoin:miter;stroke-opacity:1" 
d="
M 107.464,150.514 
" />
<path style="fill:none;stroke:#000000;stroke-width:0.2;stroke-linecap:butt;stroke-linejoin:miter;stroke-opacity:1" 
d="
M 90.714,147.914 
" />
<path style="fill:none;stroke:#000000;stroke-width:0.2;stroke-linecap:butt;stroke-linejoin:miter;stroke-opacity:1" 
d="
M 89.814,147.914 
L 90.414,147.864 
L 106.014,149.064 
L 106.214,149.114 
L 107.464,150.364 
L 107.464,198.064 
L 106.164,200.564 
L 89.764,200.514 
L 89.814,199.114 
L 91.764,199.114 
L 92.214,199.114 
L 92.214,198.564 
L 89.764,198.514 
L 89.814,196.614 
L 103.464,197.864 
L 104.764,196.664 
L 104.764,152.964 
L 103.614,151.814 
L 89.814,151.814 
L 89.814,149.864 
L 92.214,149.864 
L 92.214,149.314 
L 89.814,149.314 
L 89.814,147.914 
" />
<path style="fill:none;stroke:#000000;stroke-width:0.2;stroke-linecap:butt;stroke-linejoin:miter;stroke-opacity:1" 
d="
M 90.714,147.914 
" />
<path style="fill:none;stroke:#000000;stroke-width:0.2;stroke-linecap:butt;stroke-linejoin:miter;stroke-opacity:1" 
d="
M 89.764,147.914 
" />
<path style="fill:none;stroke:#000000;stroke-width:0.2;stroke-linecap:butt;stroke-linejoin:miter;stroke-opacity:1" 
d="
M 89.764,149.264 
" />
<path style="fill:none;stroke:#000000;stroke-width:0.2;stroke-linecap:butt;stroke-linejoin:miter;stroke-opacity:1" 
d="
M 92.214,149.314 
" />
<path style="fill:none;stroke:#000000;stroke-width:0.2;stroke-linecap:butt;stroke-linejoin:miter;stroke-opacity:1" 
d="
M 92.214,149.864 
" />
<path style="fill:none;stroke:#000000;stroke-width:0.2;stroke-linecap:butt;stroke-linejoin:miter;stroke-opacity:1" 
d="
M 89.814,149.864 
" />
<path style="fill:none;stroke:#000000;stroke-width:0.2;stroke-linecap:butt;stroke-linejoin:miter;stroke-opacity:1" 
d="
M 89.714,150.514 
" />
<path style="fill:none;stroke:#000000;stroke-width:0.2;stroke-linecap:butt;stroke-linejoin:miter;stroke-opacity:1" 
d="
M 72.964,147.914 
" />
<path style="fill:none;stroke:#000000;stroke-width:0.2;stroke-linecap:butt;stroke-linejoin:miter;stroke-opacity:1" 
d="
M 72.064,147.914 
L 72.664,147.864 
L 88.264,149.064 
L 88.464,149.114 
L 89.714,150.364 
L 89.714,198.064 
L 88.414,200.564 
L 72.014,200.514 
L 72.064,199.114 
L 74.014,199.114 
L 74.464,199.114 
L 74.464,198.564 
L 72.014,198.514 
L 72.064,196.614 
L 85.664,197.864 
L 85.814,197.864 
L 87.014,196.664 
L 87.014,152.964 
L 85.864,151.814 
L 72.064,151.814 
L 72.064,149.864 
L 74.464,149.864 
L 74.464,149.314 
L 72.064,149.314 
L 72.064,147.914 
" />
<path style="fill:none;stroke:#000000;stroke-width:0.2;stroke-linecap:butt;stroke-linejoin:miter;stroke-opacity:1" 
d="
M 72.964,147.914 
" />
<path style="fill:none;stroke:#000000;stroke-width:0.2;stroke-linecap:butt;stroke-linejoin:miter;stroke-opacity:1" 
d="
M 88.264,149.064 
" />
<path style="fill:none;stroke:#000000;stroke-width:0.2;stroke-linecap:butt;stroke-linejoin:miter;stroke-opacity:1" 
d="
M 89.714,150.464 
" />
<path style="fill:none;stroke:#000000;stroke-width:0.2;stroke-linecap:butt;stroke-linejoin:miter;stroke-opacity:1" 
d="
M 106.664,149.614 
" />
<path style="fill:none;stroke:#000000;stroke-width:0.2;stroke-linecap:butt;stroke-linejoin:miter;stroke-opacity:1" 
d="
M 107.514,150.414 
" />
<path style="fill:none;stroke:#000000;stroke-width:0.2;stroke-linecap:butt;stroke-linejoin:miter;stroke-opacity:1" 
d="
M 124.014,149.214 
" />
<path style="fill:none;stroke:#000000;stroke-width:0.2;stroke-linecap:butt;stroke-linejoin:miter;stroke-opacity:1" 
d="
M 125.264,150.364 
" />
<path style="fill:none;stroke:#000000;stroke-width:0.2;stroke-linecap:butt;stroke-linejoin:miter;stroke-opacity:1" 
d="
M 143.964,147.914 
" />
<path style="fill:none;stroke:#000000;stroke-width:0.2;stroke-linecap:butt;stroke-linejoin:miter;stroke-opacity:1" 
d="
M 143.064,147.914 
L 143.714,147.864 
L 159.314,149.064 
L 160.714,150.364 
L 160.714,198.114 
L 159.464,200.564 
L 143.014,200.514 
L 143.064,199.114 
L 145.014,199.114 
L 145.464,199.114 
L 145.464,198.564 
L 143.014,198.514 
L 143.064,196.614 
L 156.714,197.864 
L 156.864,197.864 
L 158.014,196.714 
L 158.014,152.964 
L 156.864,151.814 
L 143.064,151.814 
L 143.064,149.864 
L 145.464,149.864 
L 145.464,149.314 
L 143.064,149.314 
L 143.064,147.914 
" />
</g>
</svg>

