<?xml version="1.0" encoding="UTF-8" standalone="no"?>
<!-- Created with Inkscape (http://www.inkscape.org/) -->

<svg
   xmlns:dc="http://purl.org/dc/elements/1.1/"
   xmlns:cc="http://creativecommons.org/ns#"
   xmlns:rdf="http://www.w3.org/1999/02/22-rdf-syntax-ns#"
   xmlns:svg="http://www.w3.org/2000/svg"
   xmlns="http://www.w3.org/2000/svg"
   xmlns:sodipodi="http://sodipodi.sourceforge.net/DTD/sodipodi-0.dtd"
   xmlns:inkscape="http://www.inkscape.org/namespaces/inkscape"
   width="62.535488mm"
   height="69.968811mm"
   viewBox="0 0 62.535488 69.968811"
   version="1.1"
   id="svg4711"
   inkscape:version="0.92.4 (5da689c313, 2019-01-14)"
   sodipodi:docname="licorne.svg">
  <defs
     id="defs4705" />
  <sodipodi:namedview
     id="base"
     pagecolor="#ffffff"
     bordercolor="#666666"
     borderopacity="1.0"
     inkscape:pageopacity="0.0"
     inkscape:pageshadow="2"
     inkscape:zoom="0.43651796"
     inkscape:cx="345.9555"
     inkscape:cy="44.687391"
     inkscape:document-units="mm"
     inkscape:current-layer="layer1"
     showgrid="false"
     showguides="true"
     inkscape:guide-bbox="true"
     fit-margin-top="0"
     fit-margin-left="0"
     fit-margin-right="0"
     fit-margin-bottom="0"
     inkscape:window-width="1366"
     inkscape:window-height="670"
     inkscape:window-x="0"
     inkscape:window-y="33"
     inkscape:window-maximized="1">
    <sodipodi:guide
       position="179.281,159.71743"
       orientation="0,1"
       id="guide4759"
       inkscape:locked="false" />
  </sodipodi:namedview>
  <metadata
     id="metadata4708">
    <rdf:RDF>
      <cc:Work
         rdf:about="">
        <dc:format>image/svg+xml</dc:format>
        <dc:type
           rdf:resource="http://purl.org/dc/dcmitype/StillImage" />
        <dc:title></dc:title>
      </cc:Work>
    </rdf:RDF>
  </metadata>
  <g
     inkscape:label="Calque 1"
     inkscape:groupmode="layer"
     id="layer1"
     transform="translate(-12.253695,-90.354729)">
    <g
       id="g4757"
       transform="matrix(1.0611805,0,0,1.0611805,-0.74874699,-9.8095719)"
       style="fill:none;stroke:#ff0000;stroke-width:0.23558669;stroke-miterlimit:4;stroke-dasharray:none;stroke-opacity:1">
      <path
         sodipodi:nodetypes="ccccscaccccsccccscccccc"
         inkscape:connector-curvature="0"
         id="path4724"
         d="m 63.140126,154.0152 -17.164306,5.36384 c -4.459109,1.86173 -4.035655,0.40867 -5.363845,-2.6053 l -7.356131,-18.39032 c 0,0 -13.067435,9.84634 -18.696834,2.75854 -7.9806226,-10.04815 8.4289,-24.06067 8.4289,-24.06067 0,0 -6.213087,-3.52701 -5.05734,-5.82361 1.197649,-2.37986 7.969142,0.61301 7.969142,0.61301 -0.509514,-0.79297 -1.487593,-1.17594 -0.919516,-2.9118 -1.674834,-0.86843 -3.349667,-2.50313 -3.218308,-4.90409 -1.674833,-0.65315 -2.911802,-2.51042 -3.218307,-4.750832 -1.116556,-0.872081 -2.484427,-4.048261 -1.379275,-4.750834 0.708774,-0.450585 6.272416,2.824227 7.356132,5.057338 1.598207,-0.142305 3.962677,1.083718 4.137823,3.678068 1.988019,0.19735 4.301532,1.30647 4.750835,3.83132 1.91201,0.91221 1.908362,1.71497 2.452044,3.06505 0,0 2.748461,-7.42206 4.750834,-6.58986 3.031045,1.25972 1.532528,6.89637 1.532528,6.89637 6.283362,-3.21831 15.785032,-0.76626 11.034197,5.05734 4.750835,1.63469 7.662637,4.80192 3.218307,8.12239 0,0 9.348417,2.14554 4.137824,8.27565 4.297081,1.23003 8.215388,3.88328 4.44433,9.50167 10.574439,2.45205 5.670351,9.34842 -1.839034,12.56673 z"
         style="fill:none;fill-rule:evenodd;stroke:#ff0000;stroke-width:0.23558669;stroke-linecap:butt;stroke-linejoin:miter;stroke-miterlimit:4;stroke-dasharray:none;stroke-opacity:1" />
      <path
         sodipodi:nodetypes="ccsc"
         inkscape:connector-curvature="0"
         id="path4726"
         d="m 44.990625,111.67366 2.408256,4.81651 c 2.773144,-0.3284 6.105995,-2.32846 4.925981,-4.37865 -1.278613,-2.2215 -4.269182,-1.97039 -7.334237,-0.43786 z"
         style="fill:none;fill-rule:evenodd;stroke:#ff0000;stroke-width:0.23558669;stroke-linecap:butt;stroke-linejoin:miter;stroke-miterlimit:4;stroke-dasharray:none;stroke-opacity:1" />
      <path
         style="fill:none;fill-rule:evenodd;stroke:#ff0000;stroke-width:0.23558669;stroke-linecap:butt;stroke-linejoin:miter;stroke-miterlimit:4;stroke-dasharray:none;stroke-opacity:1"
         d="m 48.603011,119.11737 2.736655,5.36384 c 2.773144,-0.3284 5.451432,-2.84943 4.925981,-4.37865 -0.832929,-2.42407 -4.597581,-2.51772 -7.662636,-0.98519 z"
         id="path4728"
         inkscape:connector-curvature="0"
         sodipodi:nodetypes="ccsc" />
      <path
         sodipodi:nodetypes="ccsc"
         inkscape:connector-curvature="0"
         id="path4730"
         d="m 52.463818,127.48103 2.787144,5.57429 c 2.773144,-0.3284 5.34822,-3.27568 4.736537,-4.85226 -0.927131,-2.38963 -4.458626,-2.25456 -7.523681,-0.72203 z"
         style="fill:none;fill-rule:evenodd;stroke:#ff0000;stroke-width:0.23558669;stroke-linecap:butt;stroke-linejoin:miter;stroke-miterlimit:4;stroke-dasharray:none;stroke-opacity:1" />
      <path
         style="fill:none;fill-rule:evenodd;stroke:#ff0000;stroke-width:0.23558669;stroke-linecap:butt;stroke-linejoin:miter;stroke-miterlimit:4;stroke-dasharray:none;stroke-opacity:1"
         d="m 56.265648,135.87732 2.692421,5.71637 c 2.773144,-0.3284 5.395582,-2.84943 4.641816,-4.85226 -0.902834,-2.39892 -4.269182,-2.39664 -7.334237,-0.86411 z"
         id="path4732"
         inkscape:connector-curvature="0"
         sodipodi:nodetypes="ccsc" />
      <path
         sodipodi:nodetypes="ccsc"
         inkscape:connector-curvature="0"
         id="path4734"
         d="m 60.123328,144.36207 2.360895,6.61622 c 2.773144,-0.3284 6.011273,-3.55984 5.494312,-5.0417 -0.844291,-2.42014 -4.411265,-2.77553 -7.855207,-1.57452 z"
         style="fill:none;fill-rule:evenodd;stroke:#ff0000;stroke-width:0.23558669;stroke-linecap:butt;stroke-linejoin:miter;stroke-miterlimit:4;stroke-dasharray:none;stroke-opacity:1" />
      <path
         sodipodi:nodetypes="czccccccczc"
         inkscape:connector-curvature="0"
         id="path4736"
         d="m 29.557842,125.12167 c 0,0 -1.859101,-3.33442 -0.05335,-5.36203 1.805749,-2.02761 4.61508,-0.0267 4.61508,-0.0267 0.79141,-0.62246 0.59578,-1.2716 0.40015,-2.42759 1.476113,1.31605 0.898117,2.28531 0.346797,3.54801 0.702488,-0.22326 1.191561,0.10433 1.787342,-1.84069 0.462397,2.67657 -0.248983,2.5254 -1.013716,2.90776 l 0.533537,1.01372 -0.480181,0.1067 c -1.653959,-2.33136 -3.417692,-2.33999 -4.348314,-2.10746 -0.930622,0.23253 -1.698795,0.42693 -1.787342,4.18825 z"
         style="fill:none;fill-rule:evenodd;stroke:#ff0000;stroke-width:0.23558669;stroke-linecap:butt;stroke-linejoin:miter;stroke-miterlimit:4;stroke-dasharray:none;stroke-opacity:1" />
      <path
         sodipodi:nodetypes="cccc"
         inkscape:connector-curvature="0"
         id="path4738"
         d="m 19.535925,98.715313 c -0.859449,-0.958615 -1.223061,-1.669313 -1.38834,-2.875846 1.999871,0.793336 3.355155,1.68584 4.809606,3.570015 -1.289173,0.06611 -2.330428,-0.06611 -3.421266,-0.694169 z"
         style="fill:none;fill-rule:evenodd;stroke:#ff0000;stroke-width:0.23558669;stroke-linecap:butt;stroke-linejoin:miter;stroke-miterlimit:4;stroke-dasharray:none;stroke-opacity:1" />
      <path
         sodipodi:nodetypes="ccccc"
         inkscape:connector-curvature="0"
         id="path4740"
         d="m 20.428429,100.59949 c 1.636258,0.33055 2.975015,0.31402 4.462522,-0.0496 1.041255,0.56195 2.08251,1.4214 2.677513,2.57835 -1.785009,0.42972 -3.570017,0.21485 -5.355026,-0.0496 -1.190006,-0.7768 -1.785009,-2.47915 -1.785009,-2.47915 z"
         style="fill:none;fill-rule:evenodd;stroke:#ff0000;stroke-width:0.23558669;stroke-linecap:butt;stroke-linejoin:miter;stroke-miterlimit:4;stroke-dasharray:none;stroke-opacity:1" />
      <path
         sodipodi:nodetypes="ccccc"
         inkscape:connector-curvature="0"
         id="path4742"
         d="m 23.205109,104.56617 c 1.767576,0.39034 3.607405,0.59227 5.255858,-0.19833 1.603202,0.77681 2.413067,1.6032 3.024597,2.62793 -1.32289,1.48766 -3.764318,0.94738 -5.801276,1.14042 -0.975144,-0.89251 -1.999871,-1.83459 -2.479179,-3.57002 z"
         style="fill:none;fill-rule:evenodd;stroke:#ff0000;stroke-width:0.23558669;stroke-linecap:butt;stroke-linejoin:miter;stroke-miterlimit:4;stroke-dasharray:none;stroke-opacity:1" />
      <path
         sodipodi:nodetypes="ccccc"
         inkscape:connector-curvature="0"
         id="path4744"
         d="m 26.428041,109.32619 c 2.08251,0.36362 4.363354,0.38015 6.396281,-0.99166 0.859448,0.52889 1.322228,1.25611 1.834591,2.33042 -2.442784,0.34366 -4.21444,0.96631 -6.644198,2.57835 -0.776809,-1.25612 -1.404868,-2.56182 -1.586674,-3.91711 z"
         style="fill:none;fill-rule:evenodd;stroke:#ff0000;stroke-width:0.23558669;stroke-linecap:butt;stroke-linejoin:miter;stroke-miterlimit:4;stroke-dasharray:none;stroke-opacity:1" />
    </g>
  </g>
</svg>
