<?xml version="1.0" encoding="UTF-8" standalone="no"?>
<!-- Created with Inkscape (http://www.inkscape.org/) -->

<svg
   xmlns:dc="http://purl.org/dc/elements/1.1/"
   xmlns:cc="http://creativecommons.org/ns#"
   xmlns:rdf="http://www.w3.org/1999/02/22-rdf-syntax-ns#"
   xmlns:svg="http://www.w3.org/2000/svg"
   xmlns="http://www.w3.org/2000/svg"
   xmlns:sodipodi="http://sodipodi.sourceforge.net/DTD/sodipodi-0.dtd"
   xmlns:inkscape="http://www.inkscape.org/namespaces/inkscape"
   width="62.535488mm"
   height="69.968811mm"
   viewBox="0 0 62.535488 69.968811"
   version="1.1"
   id="svg4711"
   inkscape:version="0.92.4 (5da689c313, 2019-01-14)"
   sodipodi:docname="licorne-collier.svg">
  <defs
     id="defs4705" />
  <sodipodi:namedview
     id="base"
     pagecolor="#ffffff"
     bordercolor="#666666"
     borderopacity="1.0"
     inkscape:pageopacity="0.0"
     inkscape:pageshadow="2"
     inkscape:zoom="2.266651"
     inkscape:cx="175.64637"
     inkscape:cy="159.01485"
     inkscape:document-units="mm"
     inkscape:current-layer="layer1"
     showgrid="false"
     showguides="true"
     inkscape:guide-bbox="true"
     fit-margin-top="0"
     fit-margin-left="0"
     fit-margin-right="0"
     fit-margin-bottom="0"
     inkscape:window-width="1366"
     inkscape:window-height="670"
     inkscape:window-x="0"
     inkscape:window-y="33"
     inkscape:window-maximized="1">
    <sodipodi:guide
       position="179.281,159.71743"
       orientation="0,1"
       id="guide4759"
       inkscape:locked="false" />
  </sodipodi:namedview>
  <metadata
     id="metadata4708">
    <rdf:RDF>
      <cc:Work
         rdf:about="">
        <dc:format>image/svg+xml</dc:format>
        <dc:type
           rdf:resource="http://purl.org/dc/dcmitype/StillImage" />
        <dc:title></dc:title>
      </cc:Work>
    </rdf:RDF>
  </metadata>
  <g
     inkscape:label="Calque 1"
     inkscape:groupmode="layer"
     id="layer1"
     transform="translate(-12.253695,-90.354729)">
    <path
       style="fill:none;fill-rule:evenodd;stroke:#ff0000;stroke-width:0.25;stroke-linecap:butt;stroke-linejoin:miter;stroke-miterlimit:4;stroke-dasharray:none;stroke-opacity:1"
       d="m 66.254323,153.62836 -18.214426,5.692 c -4.73192,1.97563 -4.282559,0.43367 -5.692008,-2.7647 l -7.806183,-19.51545 c 0,0 -13.866907,10.44875 -19.840715,2.92731 -8.4688816,-10.6629 8.944584,-25.53271 8.944584,-25.53271 0,0 -6.593207,-3.74279 -5.366751,-6.1799 1.270922,-2.52546 8.456698,0.65051 8.456698,0.65051 -0.540686,-0.84148 -1.578604,-1.24788 -0.975772,-3.08994 -1.777301,-0.92156 -3.554601,-2.65628 -3.415206,-5.20413 -1.7773,-0.693107 -3.089947,-2.664006 -3.415204,-5.041487 -1.184868,-0.925436 -2.636426,-4.295936 -1.46366,-5.041493 0.752137,-0.478152 6.656165,2.997015 7.806184,5.366749 1.695986,-0.151012 4.205115,1.15002 4.390977,3.903094 2.109647,0.209427 4.564702,1.386397 5.041493,4.065717 2.028988,0.96802 2.025117,1.8199 2.602061,3.25258 0,0 2.916614,-7.876149 5.041493,-6.99303 3.216486,1.33679 1.626289,7.31829 1.626289,7.31829 6.667781,-3.41521 16.750768,-0.81314 11.709274,5.36675 5.041494,1.7347 8.131441,5.0957 3.415205,8.61932 0,0 9.920358,2.27681 4.390978,8.78196 4.559979,1.30528 8.71801,4.12086 4.716237,10.08299 11.221388,2.60206 6.017265,9.92036 -1.951548,13.33557 z"
       id="path4724"
       inkscape:connector-curvature="0"
       sodipodi:nodetypes="ccccscaccccsccccscccccc" />
    <path
       style="fill:none;fill-rule:evenodd;stroke:#0000ff;stroke-width:0.25;stroke-linecap:butt;stroke-linejoin:miter;stroke-miterlimit:4;stroke-dasharray:none;stroke-opacity:1"
       d="m 46.994427,108.69634 2.555594,5.11118 c 2.942807,-0.34849 6.479563,-2.47091 5.227355,-4.64653 -1.356839,-2.35742 -4.530372,-2.09094 -7.782949,-0.46465 z"
       id="path4726"
       inkscape:connector-curvature="0"
       sodipodi:nodetypes="ccsc" />
    <path
       sodipodi:nodetypes="ccsc"
       inkscape:connector-curvature="0"
       id="path4728"
       d="m 50.827821,116.59546 2.904084,5.692 c 2.942807,-0.34849 5.784954,-3.02376 5.227355,-4.64654 -0.883888,-2.57237 -4.878863,-2.67175 -8.131439,-1.04546 z"
       style="fill:none;fill-rule:evenodd;stroke:#0000ff;stroke-width:0.25;stroke-linecap:butt;stroke-linejoin:miter;stroke-miterlimit:4;stroke-dasharray:none;stroke-opacity:1" />
    <path
       style="fill:none;fill-rule:evenodd;stroke:#0000ff;stroke-width:0.25;stroke-linecap:butt;stroke-linejoin:miter;stroke-miterlimit:4;stroke-dasharray:none;stroke-opacity:1"
       d="m 54.924834,125.47081 2.957662,5.91533 c 2.942807,-0.34849 5.675427,-3.47609 5.026321,-5.14912 -0.983853,-2.53583 -4.731407,-2.3925 -7.983983,-0.76621 z"
       id="path4730"
       inkscape:connector-curvature="0"
       sodipodi:nodetypes="ccsc" />
    <path
       sodipodi:nodetypes="ccsc"
       inkscape:connector-curvature="0"
       id="path4732"
       d="m 58.959261,134.38079 2.857145,6.0661 c 2.942806,-0.34849 5.725687,-3.02376 4.925805,-5.14912 -0.95807,-2.54569 -4.530373,-2.54327 -7.78295,-0.91698 z"
       style="fill:none;fill-rule:evenodd;stroke:#0000ff;stroke-width:0.25;stroke-linecap:butt;stroke-linejoin:miter;stroke-miterlimit:4;stroke-dasharray:none;stroke-opacity:1" />
    <path
       style="fill:none;fill-rule:evenodd;stroke:#0000ff;stroke-width:0.25;stroke-linecap:butt;stroke-linejoin:miter;stroke-miterlimit:4;stroke-dasharray:none;stroke-opacity:1"
       d="m 63.052956,143.38464 2.505336,7.02101 c 2.942806,-0.3485 6.379046,-3.77764 5.830457,-5.35016 -0.895945,-2.5682 -4.681149,-2.94534 -8.335793,-1.67085 z"
       id="path4734"
       inkscape:connector-curvature="0"
       sodipodi:nodetypes="ccsc" />
    <path
       style="fill:none;fill-rule:evenodd;stroke:#0000ff;stroke-width:0.25;stroke-linecap:butt;stroke-linejoin:miter;stroke-miterlimit:4;stroke-dasharray:none;stroke-opacity:1"
       d="m 30.617459,122.9671 c 0,0 -1.972842,-3.53842 -0.05661,-5.69008 1.916225,-2.15166 4.897432,-0.0283 4.897432,-0.0283 0.839829,-0.66054 0.632231,-1.3494 0.424632,-2.57611 1.566422,1.39656 0.953064,2.42512 0.368014,3.76508 0.745467,-0.23692 1.264461,0.11071 1.896693,-1.95331 0.490686,2.84033 -0.264216,2.67991 -1.075736,3.08566 l 0.566179,1.07574 -0.509559,0.11323 c -1.755149,-2.47399 -3.626788,-2.48315 -4.614346,-2.2364 -0.987558,0.24676 -1.802728,0.45305 -1.896692,4.44449 z"
       id="path4736"
       inkscape:connector-curvature="0"
       sodipodi:nodetypes="czccccccczc" />
    <path
       style="fill:none;fill-rule:evenodd;stroke:#0000ff;stroke-width:0.25;stroke-linecap:butt;stroke-linejoin:miter;stroke-miterlimit:4;stroke-dasharray:none;stroke-opacity:1"
       d="m 19.982396,94.945193 c -0.912031,-1.017263 -1.297889,-1.771442 -1.47328,-3.051791 2.122224,0.841872 3.560425,1.78898 5.10386,3.78843 -1.368045,0.07015 -2.473004,-0.07015 -3.63058,-0.736639 z"
       id="path4738"
       inkscape:connector-curvature="0"
       sodipodi:nodetypes="cccc" />
    <path
       style="fill:none;fill-rule:evenodd;stroke:#0000ff;stroke-width:0.25;stroke-linecap:butt;stroke-linejoin:miter;stroke-miterlimit:4;stroke-dasharray:none;stroke-opacity:1"
       d="m 20.929504,96.944645 c 1.736365,0.350773 3.157027,0.333232 4.735541,-0.05263 1.104959,0.59633 2.209919,1.508362 2.841324,2.736094 -1.894216,0.456011 -3.788432,0.227995 -5.682649,-0.05263 -1.262811,-0.824325 -1.894216,-2.630826 -1.894216,-2.630826 z"
       id="path4740"
       inkscape:connector-curvature="0"
       sodipodi:nodetypes="ccccc" />
    <path
       style="fill:none;fill-rule:evenodd;stroke:#0000ff;stroke-width:0.25;stroke-linecap:butt;stroke-linejoin:miter;stroke-miterlimit:4;stroke-dasharray:none;stroke-opacity:1"
       d="m 23.876062,101.15401 c 1.875717,0.41422 3.828108,0.6285 5.577414,-0.21047 1.701287,0.82434 2.5607,1.70129 3.209644,2.78871 -1.403826,1.57868 -3.994621,1.00534 -6.156201,1.21019 -1.034804,-0.94711 -2.122225,-1.94683 -2.630857,-3.78843 z"
       id="path4742"
       inkscape:connector-curvature="0"
       sodipodi:nodetypes="ccccc" />
    <path
       style="fill:none;fill-rule:evenodd;stroke:#0000ff;stroke-width:0.25;stroke-linecap:butt;stroke-linejoin:miter;stroke-miterlimit:4;stroke-dasharray:none;stroke-opacity:1"
       d="m 27.296175,106.20525 c 2.209919,0.38587 4.630306,0.40341 6.787608,-1.05233 0.91203,0.56125 1.403123,1.33296 1.946833,2.473 -2.592235,0.36468 -4.472282,1.02542 -7.050694,2.73609 -0.824334,-1.33297 -1.490818,-2.71855 -1.683747,-4.15676 z"
       id="path4744"
       inkscape:connector-curvature="0"
       sodipodi:nodetypes="ccccc" />
    <path
       style="opacity:1;fill:none;fill-opacity:1;stroke:#ff0000;stroke-width:0.19897872;stroke-linecap:round;stroke-miterlimit:4;stroke-dasharray:none;stroke-dashoffset:0;stroke-opacity:1"
       id="path863"
       sodipodi:type="arc"
       sodipodi:cx="41.432632"
       sodipodi:cy="111.24202"
       sodipodi:rx="2.4008105"
       sodipodi:ry="2.4012167"
       sodipodi:start="0.96653117"
       sodipodi:end="0.95654295"
       d="m 42.796671,113.21803 a 2.4008105,2.4012167 0 0 1 -3.336301,-0.60681 2.4008105,2.4012167 0 0 1 0.598374,-3.33837 2.4008105,2.4012167 0 0 1 3.339289,0.59014 2.4008105,2.4012167 0 0 1 -0.581697,3.34131"
       sodipodi:open="true" />
  </g>
</svg>
