<?xml version="1.0" encoding="UTF-8" standalone="no"?>
<!-- Created with LibSL -->

<svg
   xmlns:dc="http://purl.org/dc/elements/1.1/"
   xmlns:cc="http://creativecommons.org/ns#"
   xmlns:rdf="http://www.w3.org/1999/02/22-rdf-syntax-ns#"
   xmlns:svg="http://www.w3.org/2000/svg"
   xmlns="http://www.w3.org/2000/svg"
   xmlns:sodipodi="http://sodipodi.sourceforge.net/DTD/sodipodi-0.dtd"
   xmlns:inkscape="http://www.inkscape.org/namespaces/inkscape"
   version="1.1"
   viewBox="1.5 -282.6 302.17277 172.84984"
   width="302.17276mm"
   height="172.84984mm"
   id="svg5"
   sodipodi:docname="grenouille_slice_0.svg"
   inkscape:version="0.92.3 (2405546, 2018-03-11)">
  <metadata
     id="metadata11">
    <rdf:RDF>
      <cc:Work
         rdf:about="">
        <dc:format>image/svg+xml</dc:format>
        <dc:type
           rdf:resource="http://purl.org/dc/dcmitype/StillImage" />
        <dc:title></dc:title>
      </cc:Work>
    </rdf:RDF>
  </metadata>
  <defs
     id="defs9" />
  <sodipodi:namedview
     pagecolor="#ffffff"
     bordercolor="#666666"
     borderopacity="1"
     objecttolerance="10"
     gridtolerance="10"
     guidetolerance="10"
     inkscape:pageopacity="0"
     inkscape:pageshadow="2"
     inkscape:window-width="1920"
     inkscape:window-height="1017"
     id="namedview7"
     showgrid="false"
     inkscape:zoom="1.0630631"
     inkscape:cx="531.28509"
     inkscape:cy="264.97857"
     inkscape:window-x="-8"
     inkscape:window-y="-8"
     inkscape:window-maximized="1"
     inkscape:current-layer="svg5"
     inkscape:document-units="mm"
     fit-margin-top="0"
     fit-margin-left="0"
     fit-margin-right="0"
     fit-margin-bottom="0" />
  <path
     inkscape:connector-curvature="0"
     style="fill:none;fill-rule:nonzero;stroke:#ff0000;stroke-width:0.25999999;stroke-linecap:butt;stroke-linejoin:miter;stroke-miterlimit:4;stroke-dasharray:none;stroke-opacity:1"
     d="m 303.54186,-217.14754 -0.1,-1.15 -0.25,-0.9 -0.85,-1.4 -0.95,-0.95 -0.2,-0.35 -1.3,-1.15 -2.05,-1.4 -0.85,-0.4 -1.15,-0.35 -0.9,-0.1 -0.95,0.15 -0.45,0.2 -0.8,0.65 -0.3,0.55 -0.15,0.6 v 0.95 l 0.4,1.35 2,3.95 0.5,0.7 1.1,0.9 1,0.35 0.95,0.15 3,0.05 1.2,-0.2 0.4,-0.25 0.5,-0.7 z"
     id="path921" />
  <path
     inkscape:connector-curvature="0"
     style="fill:none;fill-rule:nonzero;stroke:#ff0000;stroke-width:0.25999999;stroke-linecap:butt;stroke-linejoin:miter;stroke-miterlimit:4;stroke-dasharray:none;stroke-opacity:1"
     d="m 293.84186,-186.29754 -0.05,-1.1 -0.15,-0.25 0.1,-0.75 -0.35,-0.35 -0.05,-0.2 h -0.7 l -0.45,0.55 -0.3,0.2 -0.15,0.35 -0.6,0.4 -0.95,1.1 -0.95,2.25 -0.35,1.9 -0.55,1.55 -0.65,2.45 -0.2,1.7 v 1.45 l 0.3,0.6 0.6,-0.05 0.2,-0.25 0.35,-0.05 1.05,-1.35 0.2,-0.65 0.3,-0.2 0.25,-0.4 0.7,-1.4 0.6,-1.9 0.25,-0.35 0.75,-1.8 0.35,-1.35 0.4,-0.95 z"
     id="path919" />
  <path
     style="fill:none;fill-rule:nonzero;stroke:#ff0000;stroke-width:0.25999999;stroke-linecap:butt;stroke-linejoin:miter;stroke-miterlimit:4;stroke-dasharray:none;stroke-opacity:1"
     d="m 297.48472,-260.41767 -0.3,-1.35 -0.5,-1.2 -0.2,-0.2 -1.3,-2.4 -1.15,-1.6 -1.65,-1.65 -0.75,-0.4 -1.2,-0.4 -0.85,-0.8 -0.55,-0.7 -2.15,-2.05 -2.2,-1.75 -3,-2.15 -2.15,-1.1 -1.6,-0.5 -1.75,-0.35 -2.95,-0.1 -1.45,0.15 -2,0.45 -1.15,0.4 -1.7,0.85 -3.15,2.2 -2.45,1.95 -1.5,1.4 -2,2.1 -1.2,0.4 -1,0.6 -1.95,2.15 -2.15,3.6 -0.65,1.85 -0.1,0.55 v 1.6 l 0.5,2.5 0.5,1.55 1.3,2.65 1.8,2.55 0.7,0.7 0.55,0.8 1.15,1.2 0.6,0.9 0.7,0.75 0.75,1.3 0.55,0.6 1.35,1.9 2,2.05 2.2,1.7 3.35,1.75 1.75,0.6 1.7,0.35 2.95,0.05 0.85,-0.05 1.7,-0.35 1.75,-0.6 1.75,-0.85 1.6,-0.9 1.85,-1.4 2.15,-2.1 1.55,-2.15 0.55,-0.6 0.75,-1.3 4.35,-5.2 1.45,-2.2 0.85,-1.75 0.65,-1.95 0.45,-2.05 z"
     id="path917"
     inkscape:connector-curvature="0" />
  <path
     inkscape:connector-curvature="0"
     style="fill:none;fill-rule:nonzero;stroke:#ff0000;stroke-width:0.25999999;stroke-linecap:butt;stroke-linejoin:miter;stroke-miterlimit:4;stroke-dasharray:none;stroke-opacity:1"
     d="m 292.34186,-209.79754 -0.2,-3.8 -0.3,-1.9 -0.4,-1.55 -1.1,-2.85 -1.3,-2.45 -0.95,-1.3 -1.45,-1.55 -1.25,-1.1 -1.8,-1.1 -2.6,-0.95 -1.95,-0.45 -1.85,-0.25 -1.9,-0.1 -2.6,0.1 -1.85,0.25 -1.95,0.45 -2.6,0.95 -2.3,1.5 -1.65,1.6 -1.3,1.65 -1.5,2.75 -1.1,2.85 -0.4,1.55 -0.3,1.9 -0.15,1.95 -0.05,5.2 0.3,7.5 0.75,5.95 0.65,3.25 2.95,11.55 3.25,6.85 1.15,1.55 0.75,0.7 0.85,0.5 0.3,0.3 2.85,1.55 1.2,0.45 1.2,0.3 1.4,0.1 1,-0.1 1.2,-0.3 1.2,-0.45 2.85,-1.55 0.3,-0.3 0.85,-0.5 0.75,-0.7 1.15,-1.55 3.25,-6.85 2.95,-11.55 0.9,-4.85 0.55,-5.2 0.25,-6.65 z"
     id="path915" />
  <path
     style="fill:none;fill-rule:nonzero;stroke:#ff0000;stroke-width:0.25999999;stroke-linecap:butt;stroke-linejoin:miter;stroke-miterlimit:4;stroke-dasharray:none;stroke-opacity:1"
     d="m 275.18472,-243.46767 v 0.45 l -0.15,0.35 -0.2,0.25 -0.4,0.2 -0.85,-0.1 -0.25,-0.2 -0.25,-0.5 v -0.45 l 0.15,-0.35 0.2,-0.25 0.4,-0.2 0.85,0.1 0.25,0.2 z"
     id="path913"
     inkscape:connector-curvature="0" />
  <path
     inkscape:connector-curvature="0"
     style="fill:none;fill-rule:nonzero;stroke:#ff0000;stroke-width:0.25999999;stroke-linecap:butt;stroke-linejoin:miter;stroke-miterlimit:4;stroke-dasharray:none;stroke-opacity:1"
     d="m 275.99186,-208.99754 v 0.45 l -0.2,0.45 -0.2,0.2 -0.5,0.2 h -0.3 l -0.5,-0.2 -0.3,-0.35 -0.1,-0.3 v -0.45 l 0.15,-0.35 0.6,-0.45 h 0.6 l 0.3,0.15 0.3,0.3 z"
     id="path911" />
  <path
     inkscape:connector-curvature="0"
     style="fill:none;fill-rule:nonzero;stroke:#ff0000;stroke-width:0.25999999;stroke-linecap:butt;stroke-linejoin:miter;stroke-miterlimit:4;stroke-dasharray:none;stroke-opacity:1"
     d="m 275.99186,-195.99754 v 0.45 l -0.2,0.45 -0.2,0.2 -0.5,0.2 h -0.3 l -0.5,-0.2 -0.3,-0.35 -0.1,-0.3 v -0.45 l 0.15,-0.35 0.6,-0.45 h 0.6 l 0.3,0.15 0.3,0.3 z"
     id="path909" />
  <path
     inkscape:connector-curvature="0"
     style="fill:none;fill-rule:nonzero;stroke:#ff0000;stroke-width:0.25999999;stroke-linecap:butt;stroke-linejoin:miter;stroke-miterlimit:4;stroke-dasharray:none;stroke-opacity:1"
     d="m 257.59186,-223.14754 -0.35,-1 -0.55,-0.6 -0.65,-0.35 -0.75,-0.2 -1.45,0.15 -1.8,0.7 -1.35,0.85 -0.95,0.75 -0.5,0.55 -0.55,0.4 -0.2,0.35 -0.95,0.95 -0.85,1.4 -0.25,0.9 -0.1,1.25 0.2,1.15 0.3,0.45 0.45,0.45 0.55,0.15 0.8,0.1 3,-0.05 0.95,-0.15 1.1,-0.4 1,-0.85 0.95,-1.5 1.8,-3.8 0.15,-0.7 z"
     id="path903" />
  <path
     style="fill:none;fill-rule:nonzero;stroke:#ff0000;stroke-width:0.25999999;stroke-linecap:butt;stroke-linejoin:miter;stroke-miterlimit:4;stroke-dasharray:none;stroke-opacity:1"
     d="m 249.98472,-259.66767 -0.2,-1 -0.4,-0.9 -1.85,-2.25 -1.45,-1.45 -1.15,-0.95 -3.05,-2 -0.6,-0.55 -0.8,-1.25 -0.3,-0.3 -1.65,-2.9 -0.6,-0.65 -1.6,-1.2 -1.2,-1.7 -1.85,-1.75 -1.7,-1.15 -2.4,-0.95 -2.35,-0.4 h -3.2 l -1.85,0.3 -1.95,0.65 -1.7,0.95 -1.45,1.15 -1.4,1.45 -1.05,1.5 -1.55,1.15 -0.8,0.9 -1.45,2.65 -0.55,0.65 -0.55,0.9 -0.75,0.65 -1.2,0.7 -1.7,1.2 -1.15,0.95 -1.05,1 -2.05,2.4 -0.45,0.8 -0.25,0.8 -0.1,1.85 0.15,1.1 0.35,1.2 0.55,1.15 0.8,1.05 0.25,0.5 2.05,2.3 1.6,1.4 1.2,0.75 0.5,0.45 1.35,0.85 0.75,0.3 1.8,1.15 2.4,1.25 0.5,0.4 2.65,1.25 1.8,0.7 1.1,0.25 1.1,0.4 1.95,0.35 2.05,0.15 1.6,-0.15 1.95,-0.35 1.1,-0.4 1.1,-0.25 1.8,-0.7 2.55,-1.2 0.6,-0.45 2.3,-1.2 1.8,-1.15 1.2,-0.55 1.5,-1.1 0.8,-0.45 2.05,-1.75 1.15,-1.2 1.9,-2.6 0.5,-1 0.35,-1.05 0.2,-1.25 z"
     id="path899"
     inkscape:connector-curvature="0" />
  <path
     inkscape:connector-curvature="0"
     style="fill:none;fill-rule:nonzero;stroke:#ff0000;stroke-width:0.25999999;stroke-linecap:butt;stroke-linejoin:miter;stroke-miterlimit:4;stroke-dasharray:none;stroke-opacity:1"
     d="m 240.84186,-220.59754 -0.4,-1.55 -0.6,-1.25 -0.7,-1.05 -0.9,-1.05 -0.85,-0.65 -0.35,-0.4 -1.7,-1.05 -1.05,-0.45 -1.3,-0.2 -1.35,0.1 -0.3,0.15 -1.65,0.35 -1.35,-0.4 -2.5,-1.65 -1.9,-0.95 -2,-0.65 -1.9,-0.4 -2.05,-0.25 -2.9,-0.1 -3.85,0.35 -1.95,0.4 -1.85,0.6 -1.95,0.95 -2.6,1.7 -0.9,0.2 -0.4,0.2 -1.3,-0.25 -0.7,-0.25 -1.35,-0.1 -1.25,0.2 -1.5,0.65 -1.1,0.7 -1.1,0.95 -1.15,1.25 -0.8,1.2 -0.6,1.3 -0.3,1.15 v 1.45 l 0.5,1.45 0.75,1 0.75,0.5 1.05,0.25 0.75,-0.05 0.65,-0.25 0.6,-0.55 1.25,-1.5 0.6,-0.4 0.35,0.1 -0.45,2.25 0.1,5.6 0.5,8.95 0.6,6.4 0.7,4.05 0.5,1.85 1.3,3.9 1.4,3.5 0.85,1.75 1.35,2.25 1.4,1.9 2.8,3.2 1.6,1.5 1.1,0.75 2,0.8 1.4,0.25 h 1.55 l 1.2,-0.2 1.3,-0.4 1.1,-0.55 1.6,-1.25 2.55,-2.7 1.7,-2.1 1.65,-2.45 1.45,-2.85 1.4,-3.5 1.3,-3.95 0.6,-2.4 0.6,-3.65 0.8,-9.75 0.25,-5.05 0.05,-4 0.1,-0.25 -0.05,-1.65 -0.1,-0.75 -0.3,-0.95 v -0.5 l 0.35,-0.1 0.5,0.35 1.35,1.6 0.55,0.5 1.1,0.35 0.55,-0.1 0.8,-0.2 0.75,-0.5 0.55,-0.65 0.6,-1.3 0.15,-0.75 z"
     id="path895" />
  <path
     style="fill:none;fill-rule:nonzero;stroke:#ff0000;stroke-width:0.25999999;stroke-linecap:butt;stroke-linejoin:miter;stroke-miterlimit:4;stroke-dasharray:none;stroke-opacity:1"
     d="m 226.33472,-243.56767 v 0.65 l -0.15,0.3 -0.55,0.4 h -0.65 l -0.3,-0.15 -0.25,-0.25 -0.2,-0.6 0.2,-0.65 0.55,-0.4 0.35,-0.05 0.6,0.2 z"
     id="path893"
     inkscape:connector-curvature="0" />
  <path
     inkscape:connector-curvature="0"
     style="fill:none;fill-rule:nonzero;stroke:#ff0000;stroke-width:0.25999999;stroke-linecap:butt;stroke-linejoin:miter;stroke-miterlimit:4;stroke-dasharray:none;stroke-opacity:1"
     d="m 216.69186,-208.84754 -0.1,0.55 -0.2,0.3 -0.6,0.3 -0.75,-0.15 -0.45,-0.6 0.1,-0.85 0.25,-0.3 0.4,-0.2 h 0.55 l 0.35,0.15 0.25,0.25 z"
     id="path891" />
  <path
     inkscape:connector-curvature="0"
     style="fill:none;fill-rule:nonzero;stroke:#ff0000;stroke-width:0.25999999;stroke-linecap:butt;stroke-linejoin:miter;stroke-miterlimit:4;stroke-dasharray:none;stroke-opacity:1"
     d="m 216.69186,-195.84754 -0.1,0.55 -0.2,0.3 -0.6,0.3 -0.75,-0.15 -0.45,-0.6 0.1,-0.85 0.25,-0.3 0.4,-0.2 h 0.55 l 0.35,0.15 0.25,0.25 z"
     id="path889" />
  <path
     inkscape:connector-curvature="0"
     style="fill:none;fill-rule:nonzero;stroke:#ff0000;stroke-width:0.25999999;stroke-linecap:butt;stroke-linejoin:miter;stroke-miterlimit:4;stroke-dasharray:none;stroke-opacity:1"
     d="m 196.42651,-183.79113 -0.1,-0.75 -0.2,-0.2 -0.15,-0.45 -0.3,-0.2 -1.55,-0.5 -1.15,-0.05 -0.7,0.1 -1.6,0.7 -1.75,1.2 -0.6,0.5 -0.95,1.05 -0.6,1 -0.35,1.05 -0.2,1.05 v 1.05 l 0.2,0.7 0.45,0.6 1.1,0.55 1.25,0.2 1.55,0.05 0.95,-0.15 0.8,-0.35 1.4,-1.35 1.55,-2.4 0.75,-1.85 z"
     id="path887" />
  <path
     inkscape:connector-curvature="0"
     style="fill:none;fill-rule:nonzero;stroke:#ff0000;stroke-width:0.25999999;stroke-linecap:butt;stroke-linejoin:miter;stroke-miterlimit:4;stroke-dasharray:none;stroke-opacity:1"
     d="m 203.03394,-159.00895 -0.2,-1.05 -0.5,-0.5 -0.65,-0.6 -1.4,-0.45 -1.45,0.05 -1.8,0.45 -1.45,0.6 -1,0.65 -1.1,0.5 -1.1,0.75 -0.4,0.4 -0.85,0.5 -2.05,1.75 -1.65,1.7 -1.1,1.45 -0.65,0.65 -1.75,2.5 -0.7,1.2 -0.6,1.2 -0.5,2.1 0.35,-2.6 1.4,-6.1 0.45,-2.5 0.35,-4.2 v -3.1 l -0.25,-3.05 -0.65,-3.75 -0.5,-1.85 -0.75,-1.8 -1.2,-1.85 -1.05,-1.15 -1.4,-1.1 -2.35,-1.25 -1,-0.3 -1.45,-0.35 -2.5,-0.15 -1.85,0.2 -2.15,0.6 -1.95,1 -1,0.7 -0.65,0.55 -1.2,1.3 -1.2,1.85 -0.8,2.05 -0.55,2.2 -0.6,3.8 -0.2,3.2 0.05,2.55 0.35,4.05 0.5,2.65 1.4,6.15 0.25,2.05 -0.45,-1.85 -0.65,-1.3 -1.1,-1.8 -1.4,-1.95 -0.65,-0.65 -1.1,-1.45 -1.4,-1.45 -1.9,-1.65 -1.1,-0.7 -1.4,-1.1 -0.7,-0.4 -0.4,-0.1 -0.8,-0.55 -1.8,-0.8 -1.85,-0.45 -1.4,-0.05 -1.45,0.45 -1.1,1.1 -0.2,1.45 0.15,0.65 0.05,2.4 0.5,3 1.2,4 0.2,1.15 1.25,3 0.45,1.6 1.7,3.55 1.4,3.45 0.35,0.5 0.85,1.8 1.35,2.3 1.25,2.45 0.9,2.6 0.55,1.25 1,1.75 0.9,1 1.05,0.75 1.3,0.55 1.5,0.05 1,-0.3 0.8,-0.85 0.2,-0.4 0.3,-0.75 0.05,-1.25 -0.4,-1.35 -0.75,-1.75 -0.55,-1.65 -0.5,-2.7 0.25,0.2 1.15,2.6 0.8,1 0.85,0.7 1.2,0.65 1.15,0.4 0.5,0.35 0.85,0.35 1.1,-0.05 0.65,0.1 1.85,0.95 2.05,0.4 1.5,-0.05 1.35,-0.3 1,-0.4 1.05,-0.6 0.65,-0.1 0.95,0.1 3.75,-1.75 0.6,-0.45 1.1,-1.25 0.35,-0.6 0.7,-1.8 0.35,-0.45 v 0.55 l -0.45,2.1 -1.7,4.7 v 1.25 l 0.55,1.3 0.25,0.15 0.55,0.65 1,0.3 h 0.4 l 1.05,-0.05 1.4,-0.6 0.85,-0.6 1.1,-1.2 1.3,-2.45 0.85,-2.5 0.6,-1.3 3.45,-6.35 1.3,-3.2 1.8,-3.8 0.45,-1.6 1.25,-3 0.2,-1.15 0.95,-3.05 0.55,-2.45 0.2,-1.6 v -2 z"
     id="path885" />
  <path
     style="fill:none;fill-rule:nonzero;stroke:#ff0000;stroke-width:0.25999999;stroke-linecap:butt;stroke-linejoin:miter;stroke-miterlimit:4;stroke-dasharray:none;stroke-opacity:1"
     d="m 199.08472,-256.96767 -0.25,-0.8 -0.45,-0.55 0.15,-1 v -1.5 l -0.2,-0.95 -0.65,-1.65 -0.85,-1.2 -0.7,-0.7 -0.8,-0.6 -0.95,-0.35 -1.25,-0.25 -1.05,-1.2 -0.5,-0.3 -0.95,-0.25 h -0.95 l -1.1,0.2 -0.5,-0.45 -1.7,-0.95 -1,-1.15 -0.85,-1.55 -1.3,-5 -0.35,-0.8 -0.5,-0.55 -0.05,-0.2 -0.5,-0.45 -1.65,-0.95 -1.8,-1.4 -1.6,-0.5 -3.1,-0.45 -0.8,0.2 -2.1,0.25 -1.5,0.45 -1.05,0.7 -0.8,0.7 -1.7,1 -0.5,0.45 -0.1,0.25 -0.4,0.4 -0.45,1 -1.2,4.75 -1.05,1.9 -1,1.05 -1.25,0.65 -0.85,0.65 -1.1,-0.2 h -0.7 l -1.25,0.3 -0.4,0.25 -1.05,1.2 -1.2,0.2 -1.1,0.45 -1.45,1.3 -0.75,1.05 -0.7,1.7 -0.2,0.85 v 1.8 l 0.15,0.85 -0.55,0.7 -0.15,0.9 0.1,0.7 0.3,0.75 0.5,0.75 1.4,1.35 1.3,0.9 0.55,0.55 1.15,0.85 0.5,0.2 0.6,0.45 1.55,0.7 1.85,0.55 3.3,0.6 2.35,0.2 h 4.15 l 3.75,0.45 2.25,0.15 5.4,-0.6 h 4.1 l 2.35,-0.2 3.35,-0.6 1.95,-0.6 1.35,-0.6 0.7,-0.5 0.5,-0.2 1.15,-0.85 0.55,-0.55 1.35,-0.95 1.3,-1.25 0.5,-0.75 0.35,-0.9 z"
     id="path883"
     inkscape:connector-curvature="0" />
  <path
     style="fill:none;fill-rule:nonzero;stroke:#ff0000;stroke-width:0.25999999;stroke-linecap:butt;stroke-linejoin:miter;stroke-miterlimit:4;stroke-dasharray:none;stroke-opacity:1"
     d="m 191.38,-231.759 -0.3,-1.35 -0.4,-1.15 -0.9,-1.9 -0.65,-0.95 -0.45,-0.55 -1.3,-1.2 -2.15,-1.2 -1.95,-0.6 -2,-0.4 -2.15,-0.85 -1.65,-0.8 -2.8,-0.85 -3.6,-0.55 -4.7,-0.05 -2.8,0.25 -1.65,0.3 -1.45,0.4 -1.7,0.55 -1.4,0.7 -2.25,0.9 -2,0.4 -1.95,0.6 -1.75,0.9 -0.95,0.75 -0.85,0.85 -1,1.4 -0.4,0.75 -0.9,2.25 -0.3,1.35 -0.05,1.45 0.2,1.15 0.55,1.15 1.15,0.75 0.35,-0.1 0.6,0.65 0.5,1.05 0.15,0.75 0.4,1 0.4,2.15 1.1,9.5 0.1,1.7 0.65,4.65 1.05,4.7 0.4,1.15 1.3,2.95 1.7,2.85 1.6,2.3 0.65,0.65 0.7,0.95 1.65,1.65 0.6,0.4 0.7,0.7 1.85,1.3 1.3,0.6 2.15,0.55 1.9,0.1 1.75,-0.25 2.3,-0.8 1.2,-0.75 1.4,-1.1 0.4,-0.45 0.55,-0.35 0.65,-0.75 0.85,-0.75 1.8,-2.2 1.45,-2.15 1.7,-2.95 1.5,-3.7 1.05,-4.7 0.65,-4.75 0.05,-1.2 1.1,-9.55 0.45,-2.5 0.4,-1 0.15,-0.75 0.45,-0.95 0.65,-0.7 0.2,0.1 0.3,-0.1 1,-0.65 0.15,-0.3 0.35,-0.75 0.2,-1 z"
     id="path881"
     inkscape:connector-curvature="0" />
  <path
     inkscape:connector-curvature="0"
     style="fill:none;fill-rule:nonzero;stroke:#ff0000;stroke-width:0.25999999;stroke-linecap:butt;stroke-linejoin:miter;stroke-miterlimit:4;stroke-dasharray:none;stroke-opacity:1"
     d="m 182.18394,-144.25895 -0.05,0.6 -0.1,-0.1 0.05,-1.2 z"
     id="path879" />
  <path
     inkscape:connector-curvature="0"
     style="fill:none;fill-rule:nonzero;stroke:#ff0000;stroke-width:0.25999999;stroke-linecap:butt;stroke-linejoin:miter;stroke-miterlimit:4;stroke-dasharray:none;stroke-opacity:1"
     d="m 173.13394,-172.15895 v 0.4 l -0.2,0.45 -0.35,0.3 -0.3,0.1 h -0.4 l -0.4,-0.15 -0.3,-0.3 -0.15,-0.35 v -0.5 l 0.15,-0.35 0.3,-0.3 0.4,-0.15 h 0.4 l 0.45,0.2 0.3,0.35 z"
     id="path877" />
  <path
     inkscape:connector-curvature="0"
     style="fill:none;fill-rule:nonzero;stroke:#ff0000;stroke-width:0.25999999;stroke-linecap:butt;stroke-linejoin:miter;stroke-miterlimit:4;stroke-dasharray:none;stroke-opacity:1"
     d="m 173.13394,-159.15895 v 0.4 l -0.2,0.45 -0.35,0.3 -0.3,0.1 h -0.4 l -0.4,-0.15 -0.3,-0.3 -0.15,-0.35 v -0.5 l 0.15,-0.35 0.3,-0.3 0.4,-0.15 h 0.4 l 0.45,0.2 0.3,0.35 z"
     id="path875" />
  <path
     style="fill:none;fill-rule:nonzero;stroke:#ff0000;stroke-width:0.25999999;stroke-linecap:butt;stroke-linejoin:miter;stroke-miterlimit:4;stroke-dasharray:none;stroke-opacity:1"
     d="m 169.23,-218.809 v 0.6 l -0.15,0.3 -0.4,0.35 -0.35,0.1 -0.5,-0.05 -0.4,-0.25 -0.3,-0.7 0.2,-0.7 0.6,-0.4 0.8,0.1 0.3,0.25 z"
     id="path873"
     inkscape:connector-curvature="0" />
  <path
     style="fill:none;fill-rule:nonzero;stroke:#ff0000;stroke-width:0.25999999;stroke-linecap:butt;stroke-linejoin:miter;stroke-miterlimit:4;stroke-dasharray:none;stroke-opacity:1"
     d="m 169.23,-205.809 v 0.6 l -0.15,0.3 -0.4,0.35 -0.35,0.1 -0.5,-0.05 -0.4,-0.25 -0.3,-0.7 0.2,-0.7 0.6,-0.4 0.8,0.1 0.3,0.25 z"
     id="path871"
     inkscape:connector-curvature="0" />
  <path
     inkscape:connector-curvature="0"
     style="fill:none;fill-rule:nonzero;stroke:#ff0000;stroke-width:0.25999999;stroke-linecap:butt;stroke-linejoin:miter;stroke-miterlimit:4;stroke-dasharray:none;stroke-opacity:1"
     d="m 162.13394,-144.00895 -0.05,0.4 -0.1,-0.15 v -1.5 z"
     id="path869" />
  <path
     inkscape:connector-curvature="0"
     style="fill:none;fill-rule:nonzero;stroke:#ff0000;stroke-width:0.25999999;stroke-linecap:butt;stroke-linejoin:miter;stroke-miterlimit:4;stroke-dasharray:none;stroke-opacity:1"
     d="m 147.73394,-182.35895 -0.2,-1.1 -0.35,-1.05 -1,-1.5 -1.6,-1.45 -1.25,-0.8 -1.35,-0.65 -1,-0.2 h -0.7 l -0.65,0.1 -1.45,0.5 -0.25,0.2 -0.1,0.35 -0.25,0.3 -0.05,1.2 0.15,0.95 0.35,1.05 0.65,1.3 0.7,1.1 0.6,0.85 1,1.05 1,0.6 0.4,0.15 1.4,0.1 1.5,-0.1 1,-0.25 0.75,-0.4 0.4,-0.5 0.25,-0.75 z"
     id="path867" />
  <path
     style="fill:none;fill-rule:nonzero;stroke:#ff0000;stroke-width:0.25999999;stroke-linecap:butt;stroke-linejoin:miter;stroke-miterlimit:4;stroke-dasharray:none;stroke-opacity:1"
     d="m 145.88472,-260.71767 -0.1,-0.65 -0.45,-1.2 -0.6,-1.05 -0.5,-0.6 -1.4,-1.2 -0.95,-0.35 h -0.6 l -0.5,-0.5 -0.3,-0.55 -0.9,-0.85 -1.2,-0.55 -1.55,-0.4 -1.9,0.05 -0.75,0.25 -0.6,0.5 -0.25,0.05 -0.5,-0.45 -0.85,-0.2 -0.65,-0.45 -0.85,-1.1 -0.5,-0.95 -1.65,-5.25 -0.7,-1.55 -0.8,-1.4 -1.3,-1.05 -2.1,-1.1 -1.65,-0.45 h -1.45 l -1.65,0.45 -1.1,0.5 -1.3,0.8 -1.1,0.95 -1,1.85 -0.55,1.35 -1.5,4.85 -0.75,1.35 -1,1.05 -0.25,0.15 -0.8,0.15 -0.4,0.45 -0.2,0.05 h -0.15 l -0.5,-0.45 -0.4,-0.2 -1,-0.2 -1.8,0.05 -1.2,0.35 -1.3,0.65 -0.8,0.8 -0.2,0.4 -0.45,0.5 -0.15,0.1 h -0.6 l -0.850001,0.3 -1.499996,1.25 -0.45,0.55 -0.25,0.6 -0.25,0.3 -0.6,1.6 -0.1,0.75 0.1,2.2 0.2,0.8 0.4,0.8 -0.3,0.1 -0.3,0.3 -0.1,0.8 0.4,1 1.1,0.95 1.999996,0.9 1.900001,1.1 1.05,0.4 1.4,0.35 1.05,0.05 0.55,0.15 1.9,0.05 1.8,-0.15 2.75,-0.55 1.45,-0.65 0.45,-0.1 1.1,-0.65 1.1,-0.45 1.95,-1.15 2.75,-0.8 1.45,0.25 0.65,0.3 0.85,0.2 2.25,1.3 0.85,0.3 1.05,0.65 0.6,0.15 1.45,0.65 2.75,0.55 1.75,0.15 1.9,-0.05 2.05,-0.3 1.9,-0.6 1.65,-0.95 2.3,-1.05 1.2,-1 0.35,-0.9 v -0.7 l -0.3,-0.45 -0.35,-0.15 v -0.2 l 0.35,-0.55 0.2,-0.65 z"
     id="path865"
     inkscape:connector-curvature="0" />
  <path
     style="fill:none;fill-rule:nonzero;stroke:#ff0000;stroke-width:0.25999999;stroke-linecap:butt;stroke-linejoin:miter;stroke-miterlimit:4;stroke-dasharray:none;stroke-opacity:1"
     d="m 141.73,-233.509 -0.15,-1.35 -0.45,-1.65 -0.55,-1.1 -0.55,-0.8 -1.5,-1.6 -1.2,-0.9 -1.35,-0.75 -3.95,-1.8 -1.05,-0.6 -2.1,-0.9 -1.8,-0.6 -1.8,-0.45 -2.1,-0.3 -1.5,-0.1 h -3.95 l -3.55,0.4 -1.8,0.45 -1.8,0.6 -6.1,2.8 -2.65,1.45 -1.8,1.55 -1.2,1.6 -0.5,1 -0.5,1.85 -0.15,2.4 0.15,2.55 0.45,2 0.15,0.15 0.3,0.9 1.5,3.4 0.5,2 1.05,5.4 0.25,1.8 0.6,2.7 0.25,1.75 1,4.3 1.45,3.5 1.65,2.7 1.6,2.05 1.95,2 2.3,1.9 1.5,0.95 1.6,0.7 1.4,0.35 2.6,0.25 2.2,-0.25 1.65,-0.45 1.25,-0.55 2.25,-1.5 1.9,-1.65 1.55,-1.6 1.7,-2.15 1.65,-2.7 1.4,-3.3 0.55,-2.15 1.35,-6.7 0.85,-5.05 1,-4.35 1.4,-3.15 0.65,-1.75 0.35,-1.65 0.1,-1.15 z"
     id="path863"
     inkscape:connector-curvature="0" />
  <path
     inkscape:connector-curvature="0"
     style="fill:none;fill-rule:nonzero;stroke:#ff0000;stroke-width:0.25999999;stroke-linecap:butt;stroke-linejoin:miter;stroke-miterlimit:4;stroke-dasharray:none;stroke-opacity:1"
     d="m 133.48394,-160.30895 -0.45,-1.55 -1.55,-1.35 -0.4,-0.2 h -2.75 l -1.65,0.55 -0.7,0.35 -1.25,0.7 -1.55,1.1 -4.25,3.8 -1.55,1.55 -1.25,1.45 -1.35,1.85 -1.05,1.75 1,-3.95 0.7,-3.5 0.2,-2 0.15,-3.85 -0.05,-3.8 -0.3,-3.35 -0.4,-2.35 -0.65,-2.4 -1,-2.25 -1.05,-1.55 -2.1,-2.15 -1.55,-1.15 -1.4,-0.75 -2,-0.75 -2,-0.45 -2.5,-0.2 -2.200002,0.2 -2,0.45 -2,0.75 -1.4,0.75 -1.55,1.15 -2.1,2.15 -1.05,1.55 -1,2.25 -0.65,2.4 -0.4,2.35 -0.3,3.35 -0.05,3.75 0.15,3.9 0.2,1.95 0.45,2.45 1.25,5.05 -0.75,-1.3 -1.45,-2.05 -1.45,-1.7 -1.6,-1.6 -4.2,-3.75 -1.7,-1.2 -1.65,-0.9 -1.8,-0.6 h -2.75 l -1.65,1.2 -0.35,0.45 -0.35,1.1 -0.05,1.25 1.05,6.6 0.9,3.9 1.35,4.25 2.25,5.45 2.55,5.05 3.15,4.75 0.35,0.8 0.85,1.3 1.3,2.45 0.9,1.25 1.3,1.15 1.4,0.85 1.5,0.3 1.15,-0.35 0.45,-1 -0.15,-1.65 -0.5,-1.25 -0.7,-2.8 -0.45,-3.8 0.05,-0.5 1.2,1.1 1.6,1.9 1,0.65 1.45,0.65 0.6,0.5 1.75,1.1 3,1.5 1.35,0.4 1.800002,0.25 2,-0.25 1.35,-0.4 3.1,-1.55 1.65,-1.05 0.6,-0.5 1.45,-0.65 0.95,-0.6 0.9,-0.95 0.75,-1 1.2,-1.1 0.05,0.55 -0.45,3.8 -0.65,2.6 -0.55,1.4 -0.15,1.6 0.2,0.6 0.3,0.45 1.1,0.35 h 0.35 l 1.2,-0.3 0.75,-0.45 1.55,-1.2 0.7,-0.8 2.7,-4.55 0.35,-0.8 3.1,-4.65 2.45,-4.8 2.25,-5.4 1.45,-4.45 0.85,-3.6 0.55,-2.95 0.6,-4.15 z"
     id="path861" />
  <path
     inkscape:connector-curvature="0"
     style="fill:none;fill-rule:nonzero;stroke:#ff0000;stroke-width:0.25999999;stroke-linecap:butt;stroke-linejoin:miter;stroke-miterlimit:4;stroke-dasharray:none;stroke-opacity:1"
     d="m 133.18394,-184.50895 -0.1,-0.65 -0.35,-0.6 -0.65,-0.65 -0.7,-0.35 -0.75,-0.15 h -1.35 l -0.7,0.1 -1.35,0.45 -1.3,0.7 -1.1,0.8 -0.85,0.85 -0.55,0.75 -0.55,1.1 -0.3,1.15 -0.05,1.4 0.3,1 0.45,0.65 0.85,0.7 0.95,0.4 0.7,0.15 h 1.55 l 3.15,-0.6 1,-0.6 0.65,-1.1 0.6,-1.9 0.35,-1.6 z"
     id="path859" />
  <path
     style="fill:none;fill-rule:nonzero;stroke:#ff0000;stroke-width:0.25999999;stroke-linecap:butt;stroke-linejoin:miter;stroke-miterlimit:4;stroke-dasharray:none;stroke-opacity:1"
     d="m 120.78,-218.709 -0.05,0.55 -0.2,0.35 -0.65,0.35 -0.65,-0.1 -0.4,-0.35 -0.15,-0.35 0.1,-0.8 0.25,-0.3 0.4,-0.2 h 0.55 l 0.35,0.15 0.3,0.3 z"
     id="path857"
     inkscape:connector-curvature="0" />
  <path
     style="fill:none;fill-rule:nonzero;stroke:#ff0000;stroke-width:0.25999999;stroke-linecap:butt;stroke-linejoin:miter;stroke-miterlimit:4;stroke-dasharray:none;stroke-opacity:1"
     d="m 120.78,-205.709 -0.05,0.55 -0.2,0.35 -0.65,0.35 -0.65,-0.1 -0.4,-0.35 -0.15,-0.35 0.1,-0.8 0.25,-0.3 0.4,-0.2 h 0.55 l 0.35,0.15 0.3,0.3 z"
     id="path855"
     inkscape:connector-curvature="0" />
  <path
     inkscape:connector-curvature="0"
     style="fill:none;fill-rule:nonzero;stroke:#ff0000;stroke-width:0.25999999;stroke-linecap:butt;stroke-linejoin:miter;stroke-miterlimit:4;stroke-dasharray:none;stroke-opacity:1"
     d="m 101.98394,-172.15895 v 0.4 l -0.15,0.4 -0.3,0.3 -0.4,0.15 h -0.4 l -0.4,-0.15 -0.3,-0.3 -0.150001,-0.4 v -0.4 l 0.150001,-0.4 0.3,-0.3 0.4,-0.15 h 0.4 l 0.4,0.15 0.3,0.3 z"
     id="path853" />
  <path
     inkscape:connector-curvature="0"
     style="fill:none;fill-rule:nonzero;stroke:#ff0000;stroke-width:0.25999999;stroke-linecap:butt;stroke-linejoin:miter;stroke-miterlimit:4;stroke-dasharray:none;stroke-opacity:1"
     d="m 101.98394,-159.15895 v 0.4 l -0.15,0.4 -0.3,0.3 -0.4,0.15 h -0.4 l -0.4,-0.15 -0.3,-0.3 -0.150001,-0.4 v -0.4 l 0.150001,-0.4 0.3,-0.3 0.4,-0.15 h 0.4 l 0.4,0.15 0.3,0.3 z"
     id="path851" />
  <path
     style="fill:none;fill-rule:nonzero;stroke:#ff0000;stroke-width:0.25999999;stroke-linecap:butt;stroke-linejoin:miter;stroke-miterlimit:4;stroke-dasharray:none;stroke-opacity:1"
     d="m 92.984723,-260.61767 -0.25,-0.95 -0.35,-0.65 -1.05,-1.4 -0.5,-0.5 -1.65,-0.65 -0.85,-1.25 -0.9,-0.7 -1.05,-0.5 -1.25,-0.3 -1.75,0.05 -1.35,0.4 -0.75,0.5 -0.5,0.55 -0.95,-0.7 -0.45,-0.05 -0.8,-0.3 h -1.05 l -0.3,0.35 -1,0.4 -0.75,1.1 -0.25,1 -0.35,0.75 v 1.05 l 0.15,0.75 v 1.1 l 0.65,2.85 0.55,1.2 0.6,0.8 1.55,1.4 2.2,1.15 1.75,0.5 1.7,0.25 2.4,0.05 1.45,-0.2 3.35,-0.8 1.15,-0.6 0.3,-0.3 0.25,-0.55 v -0.55 l -0.3,-0.4 -0.3,-0.15 -0.1,-0.35 0.25,-0.25 0.25,-0.9 z"
     id="path849"
     inkscape:connector-curvature="0" />
  <path
     style="fill:none;fill-rule:nonzero;stroke:#ff0000;stroke-width:0.25999999;stroke-linecap:butt;stroke-linejoin:miter;stroke-miterlimit:4;stroke-dasharray:none;stroke-opacity:1"
     d="m 96.78,-235.459 -0.05,-0.7 -0.3,-0.7 -0.4,-0.35 -0.75,-1.05 -1,-1.1 -1.5,-1.4 -1.9,-1.45 -1.1,-0.7 -6.35,-3.75 -3.05,-1.35 -2.1,-0.65 -2.9,-0.4 h -3.6 l -2.95,0.4 -1.7,0.5 -1.55,0.6 -3.25,1.65 -1.9,1.25 -4.1,2.4 -2.65,2.1 -1.75,1.8 -0.9,1.25 -0.3,0.2 -0.3,0.6 -0.05,1.25 0.4,1.95 1,2.8 0.35,1.4 0.5,1.5 1.55,3.75 1.2,3.6 1.7,6.4 1,2.8 0.35,1.3 0.85,2.05 1.05,2 1.25,1.8 1.4,1.7 1.75,1.65 1.8,1.35 0.9,0.45 0.45,0.35 1.35,0.55 1.35,0.4 1.55,0.3 1.85,0.05 1.6,-0.15 2.2,-0.55 1.65,-0.7 1.4,-0.85 0.6,-0.55 1.1,-0.75 1.75,-1.7 1.35,-1.65 1.65,-2.5 1.45,-3.3 0.6,-2.1 0.75,-2.05 1.75,-6.55 1.2,-3.55 1.5,-3.6 0.8,-2.75 0.95,-2.65 z"
     id="path847"
     inkscape:connector-curvature="0" />
  <path
     inkscape:connector-curvature="0"
     style="fill:none;fill-rule:nonzero;stroke:#ff0000;stroke-width:0.25999999;stroke-linecap:butt;stroke-linejoin:miter;stroke-miterlimit:4;stroke-dasharray:none;stroke-opacity:1"
     d="m 79.333938,-180.45895 -0.35,-1.7 -0.5,-1.05 -0.6,-0.8 -0.85,-0.85 -1.5,-1.05 -1,-0.5 -1.25,-0.4 -2.05,-0.1 -0.75,0.15 -0.7,0.35 -0.65,0.65 -0.35,0.6 -0.1,1.9 0.35,1.95 0.7,2.3 0.65,1.1 1.15,0.65 3,0.55 h 1.55 l 1,-0.25 1.15,-0.65 0.8,-1 0.3,-0.95 z"
     id="path845" />
  <path
     style="fill:none;fill-rule:nonzero;stroke:#ff0000;stroke-width:0.25999999;stroke-linecap:butt;stroke-linejoin:miter;stroke-miterlimit:4;stroke-dasharray:none;stroke-opacity:1"
     d="m 74.63,-218.659 -0.05,0.5 -0.2,0.35 -0.65,0.35 -0.65,-0.1 -0.4,-0.35 -0.15,-0.35 0.1,-0.8 0.25,-0.3 0.4,-0.2 h 0.55 l 0.35,0.15 0.35,0.4 z"
     id="path843"
     inkscape:connector-curvature="0" />
  <path
     style="fill:none;fill-rule:nonzero;stroke:#ff0000;stroke-width:0.25999999;stroke-linecap:butt;stroke-linejoin:miter;stroke-miterlimit:4;stroke-dasharray:none;stroke-opacity:1"
     d="m 74.63,-205.659 -0.05,0.5 -0.2,0.35 -0.65,0.35 -0.65,-0.1 -0.4,-0.35 -0.15,-0.35 0.1,-0.8 0.25,-0.3 0.4,-0.2 h 0.55 l 0.35,0.15 0.35,0.4 z"
     id="path841"
     inkscape:connector-curvature="0" />
  <path
     inkscape:connector-curvature="0"
     style="fill:none;fill-rule:nonzero;stroke:#ff0000;stroke-width:0.25999999;stroke-linecap:butt;stroke-linejoin:miter;stroke-miterlimit:4;stroke-dasharray:none;stroke-opacity:1"
     d="m 65.033938,-156.40895 -0.25,-2.3 -0.3,-1.15 -0.65,-1.05 -0.85,-0.5 -1.9,-0.05 -0.8,0.15 -1.05,0.3 -1.2,0.7 -0.55,0.2 -2.7,2.55 -3.85,4.5 -2.6,3.85 -1.15,2.65 0.65,-3.4 0.7,-2.6 0.55,-2.6 0.65,-4.4 0.3,-3.65 0.1,-4.25 -0.1,-3.35 -0.15,-2.2 -0.3,-2.2 -0.5,-2.25 -0.95,-2.55 -1.3,-2.45 -0.3,-0.3 -0.6,-1.05 -0.8,-0.9 -1.95,-1.6 -1.65,-0.9 -2.55,-0.9 -3.2,-0.6 -2.35,-0.1 -3.1,0.3 -2.15,0.5 -2.1,0.75 -1.6,0.85 -0.7,0.5 -0.85,0.65 -1.3,1.35 -0.5,0.9 -0.5,0.6 -1.4,2.7 -0.8,2.2 -0.5,2.2 -0.3,2.15 -0.15,2.15 -0.1,2.7 0.1,5.35 0.3,3.55 0.65,4.35 1.2,4.95 0.7,3.55 -0.85,-2.05 -0.85,-1.5 -2.7,-3.75 -4.15,-4.65 -1.7,-1.55 -1.6000006,-0.85 -2.1,-0.55 -1.85,0.05 -0.75,0.4 -0.8,1.25 -0.25,0.95 -0.3,3.2 0.25,3.2 0.9,4.4 0.65,2.1 2.35,5.75 1.65,3.6 1.7000005,3.15 2.6500001,3.95 1.1,1.45 0.25,0.5 1.15,1.25 1.45,0.6 0.85,-0.1 0.4,-0.45 0.3,-1.2 0.2,-2.5 v -3.95 l -0.3,-2.95 -0.4,-2.45 -0.05,-1.4 0.15,0.05 0.55,1.3 1.05,1.7 0.45,0.4 0.1,0.25 1.1,1 h 0.2 l 0.3,0.25 h 0.15 l 0.55,-0.4 0.15,-0.65 0.05,-1.1 0.55,2.1 0.35,1.9 0.45,1.45 0.75,1.3 1.1,1.1 1.8,1.3 2.5,1.3 1.55,0.6 1.9,0.35 1.7,-0.1 1.1,-0.25 1.25,-0.45 2.6,-1.3 2.1,-1.5 1.1,-1.15 0.65,-1.1 0.5,-1.65 0.35,-1.9 0.5,-1.9 0.25,1.7 0.3,0.1 0.2,0.25 0.7,-0.25 1,-0.9 0.15,-0.3 0.55,-0.55 0.9,-1.45 0.65,-1.45 0.15,-0.05 -0.05,1.25 -0.4,2.5 -0.3,2.85 v 4.3 l 0.35,3.25 0.25,0.5 0.3,0.25 0.8,0.1 0.7,-0.2 0.75,-0.4 1.25,-1.35 0.1,-0.3 1.4,-1.85 2.4,-3.6 2.4,-4.55 3,-7.15 0.85,-2.45 0.5,-2 0.55,-3.05 z"
     id="path839" />
  <path
     inkscape:connector-curvature="0"
     style="fill:none;fill-rule:nonzero;stroke:#ff0000;stroke-width:0.25999999;stroke-linecap:butt;stroke-linejoin:miter;stroke-miterlimit:4;stroke-dasharray:none;stroke-opacity:1"
     d="m 64.433938,-182.00895 -0.2,-1 -0.4,-0.85 -0.65,-0.75 -0.75,-0.5 -1.45,-0.4 -2.65,-0.05 -1.5,-0.2 h -0.6 l -0.9,0.2 -0.8,0.6 -0.35,0.45 -0.3,0.7 -0.1,1.65 0.1,0.8 0.5,1.6 0.45,0.9 0.6,0.8 0.45,0.4 0.85,0.45 3.5,1.35 1.4,-0.05 0.5,-0.15 0.8,-0.5 0.55,-0.5 0.65,-1.15 0.2,-0.9 z"
     id="path837" />
  <path
     style="fill:none;fill-rule:nonzero;stroke:#ff0000;stroke-width:0.25999999;stroke-linecap:butt;stroke-linejoin:miter;stroke-miterlimit:4;stroke-dasharray:none;stroke-opacity:1"
     d="m 71.012939,-263.46767 -0.5,-1.2 -0.05,-0.45 -0.75,-1.1 -0.95,-0.4 -0.4,-0.4 h -1.05 l -0.75,0.3 -0.5,0.05 -0.9,0.7 -1.05,-0.95 -1.6,-0.5 -1.7,-0.05 -1.15,0.25 -0.7,0.3 -1.3,0.85 -0.55,0.7 -0.3,0.6 -0.4,0.4 -1.05,0.15 -0.35,0.15 -1.2,1.45 -0.65,1.1 -0.2,0.75 v 1 l 0.3,2.8 0.15,0.45 0.25,0.3 v 0.25 l -0.6,0.5 -0.1,0.65 0.35,0.7 1,0.65 1.8,0.55 2.5,0.5 0.85,0.1 2.4,-0.05 1.75,-0.25 1.7,-0.5 1.15,-0.65 0.6,-0.2 0.6,-0.4 1.15,-1 0.9,-1.15 0.5,-1.1 0.65,-2.8 z"
     id="path835"
     inkscape:connector-curvature="0" />
  <path
     style="fill:none;fill-rule:nonzero;stroke:#ff0000;stroke-width:0.25999999;stroke-linecap:butt;stroke-linejoin:miter;stroke-miterlimit:4;stroke-dasharray:none;stroke-opacity:1"
     d="m 48.58,-236.859 -0.05,-0.8 -0.2,-0.8 -0.4,-0.55 -0.95,-0.6 -0.55,0.15 -0.5,-0.4 -0.3,-0.6 -0.75,-1 -1.5,-1.5 -1.55,-1.15 -3.15,-2 -3.4,-2.45 -3.35,-1.85 -2.85,-1.05 -2.35,-0.45 -2.75,-0.05 -1.6,0.2 -1.3,0.3 -1.65,0.55 -2.6,1.2 -1.85,1.1 -3.55,2.55 -3.8,2.45 -1.35,1.1 -0.9,0.95 -1.25,1.8 -0.4,0.3 -0.55,-0.15 -0.2,0.2 -0.4,0.1 -0.45,0.45 -0.3,0.5 -0.2,0.8 v 1.6 l 0.3,1.8 0.4,1.35 1.8,5.15 3.65,7.2 2.4,6.1 1.2,2.1 0.95,1.4 1.35,1.75 1.85,1.9 1.75,1.4 1.4,0.9 1.55,0.75 1.7,0.5 1.5,0.25 2.5,0.05 2.3,-0.3 1.45,-0.4 2.3,-1.15 2.55,-1.9 1.85,-1.85 1.8,-2.35 1.75,-2.9 1.65,-4 0.75,-2.1 3.7,-7.3 2.2,-6.5 0.25,-1.25 z"
     id="path833"
     inkscape:connector-curvature="0" />
  <path
     style="fill:none;fill-rule:nonzero;stroke:#ff0000;stroke-width:0.25999999;stroke-linecap:butt;stroke-linejoin:miter;stroke-miterlimit:4;stroke-dasharray:none;stroke-opacity:1"
     d="m 48.512939,-255.36767 -0.4,-0.8 -0.9,-0.6 -0.35,-0.6 0.05,-0.15 0.4,-0.3 0.05,-0.35 0.1,-1.1 -0.25,-0.45 v -0.2 l -0.4,-0.25 -0.35,0.2 -0.4,-0.1 -0.2,-1.7 -0.4,-1.2 -0.7,-0.65 -1.05,-0.5 -0.65,-0.15 h -0.85 l -1.2,0.25 -0.6,0.35 -0.25,0.45 h -0.25 l -1.3,-1 -0.4,-0.05 -0.35,0.15 -0.65,0.8 -0.35,1.2 v 0.8 l 0.2,0.7 0.15,1.35 0.9,1.8 0.6,0.8 0.7,0.7 0.5,0.3 1.2,0.55 1.85,0.65 2.6,0.5 h 1.3 l 0.6,-0.15 0.4,-0.2 0.45,-0.45 z"
     id="path831"
     inkscape:connector-curvature="0" />
  <path
     inkscape:connector-curvature="0"
     style="fill:none;fill-rule:nonzero;stroke:#ff0000;stroke-width:0.25999999;stroke-linecap:butt;stroke-linejoin:miter;stroke-miterlimit:4;stroke-dasharray:none;stroke-opacity:1"
     d="m 34.783938,-172.25895 -0.1,0.85 -0.35,0.35 -0.35,0.15 h -0.45 l -0.45,-0.2 -0.2,-0.2 -0.2,-0.55 0.2,-0.75 0.35,-0.3 0.3,-0.1 h 0.45 l 0.35,0.15 z"
     id="path829" />
  <path
     inkscape:connector-curvature="0"
     style="fill:none;fill-rule:nonzero;stroke:#ff0000;stroke-width:0.25999999;stroke-linecap:butt;stroke-linejoin:miter;stroke-miterlimit:4;stroke-dasharray:none;stroke-opacity:1"
     d="m 34.783938,-159.25895 -0.1,0.85 -0.35,0.35 -0.35,0.15 h -0.45 l -0.45,-0.2 -0.2,-0.2 -0.2,-0.55 0.2,-0.75 0.35,-0.3 0.3,-0.1 h 0.45 l 0.35,0.15 z"
     id="path827" />
  <path
     style="fill:none;fill-rule:nonzero;stroke:#ff0000;stroke-width:0.25999999;stroke-linecap:butt;stroke-linejoin:miter;stroke-miterlimit:4;stroke-dasharray:none;stroke-opacity:1"
     d="m 26.13,-218.809 v 0.55 l -0.15,0.35 -0.4,0.35 -0.35,0.1 -0.5,-0.05 -0.35,-0.2 -0.35,-0.65 0.15,-0.75 0.3,-0.3 0.35,-0.15 0.8,0.1 0.25,0.2 z"
     id="path825"
     inkscape:connector-curvature="0" />
  <path
     style="fill:none;fill-rule:nonzero;stroke:#ff0000;stroke-width:0.25999999;stroke-linecap:butt;stroke-linejoin:miter;stroke-miterlimit:4;stroke-dasharray:none;stroke-opacity:1"
     d="m 26.13,-205.809 v 0.55 l -0.15,0.35 -0.4,0.35 -0.35,0.1 -0.5,-0.05 -0.35,-0.2 -0.35,-0.65 0.15,-0.75 0.3,-0.3 0.35,-0.15 0.8,0.1 0.25,0.2 z"
     id="path823"
     inkscape:connector-curvature="0" />
  <path
     inkscape:connector-curvature="0"
     style="fill:none;fill-rule:nonzero;stroke:#ff0000;stroke-width:0.25999999;stroke-linecap:butt;stroke-linejoin:miter;stroke-miterlimit:4;stroke-dasharray:none;stroke-opacity:1"
     d="m 13.733938,-183.20895 -0.35,-1.2 -0.55,-0.7 -0.8,-0.5 -1.35,-0.15 -1.5000001,0.2 -3.0500005,0.1 -1.3,0.5 -0.45,0.3 -0.75,0.85 -0.4,0.9 -0.15,0.8 -0.05,1.65 0.1,1.2 0.25,1.1 0.6,1.05 0.6,0.55 0.8,0.5 1,0.2 1.05,-0.05 1.8500005,-0.8 1.5000001,-0.5 0.9,-0.5 0.65,-0.65 0.5,-0.8 0.55,-1.3 0.25,-1 z"
     id="path821" />
  <path
     style="fill:none;fill-rule:nonzero;stroke:#ff0000;stroke-width:0.25999999;stroke-linecap:butt;stroke-linejoin:miter;stroke-miterlimit:4;stroke-dasharray:none;stroke-opacity:1"
     d="m 17.662939,-262.21767 -0.45,-1.3 -0.55,-0.6 -0.35,-0.15 h -0.3 l -0.7,0.45 -0.65,0.6 h -0.3 l -0.15,-0.4 -0.65,-0.4 -1.75,-0.3 -0.95,0.2 -1.0500001,0.5 -0.75,0.7 -0.4,1.2 -0.15,1.6 -0.4,0.15 -0.4,-0.2 -0.4,0.25 -0.05,0.35 -0.15,0.2 0.1,1.55 0.25,0.15 0.2,0.3 -0.1,0.05 -0.1,0.45 -1.2,0.9 -0.2,0.4 v 0.45 l 0.15,0.35 0.45,0.45 0.55,0.25 0.45,0.1 h 1.3 l 2.4500001,-0.45 2.15,-0.75 1.4,-0.7 0.9,-0.85 0.6,-0.8 0.85,-1.7 0.35,-2 z"
     id="path2"
     inkscape:connector-curvature="0" />
  <path
     inkscape:connector-curvature="0"
     style="fill:none;fill-rule:nonzero;stroke:#ff0000;stroke-width:0.25999999;stroke-linecap:butt;stroke-linejoin:miter;stroke-miterlimit:4;stroke-dasharray:none;stroke-opacity:1"
     d="m 294.4968,-152.5812 -0.25,-1.35 -0.5,-1 -0.6,-0.4 -0.65,-0.2 -1.35,-0.05 -0.4,0.1 -1.75,1 -1.45,0.45 -1.7,0.35 -0.9,-0.05 -0.35,-0.2 -0.3,-0.45 -0.05,-0.7 0.2,-0.6 0.35,-0.7 0.75,-0.95 0.9,-1.45 1.45,-1.55 1.75,-1.15 0.7,-0.75 0.4,-0.7 0.3,-1.25 -0.05,-0.8 -0.15,-0.4 -0.8,-1.1 -1.05,-0.8 -1.5,-0.55 h -1.1 l -1.15,0.5 -0.7,0.7 -0.3,0.45 -0.3,0.8 -0.15,1 0.05,1.35 -0.1,0.75 -0.75,2 -0.15,0.95 -0.35,1.05 -0.8,0.7 -1.05,0.45 -0.85,0.05 -0.25,-0.1 -1.1,-1.4 -0.4,-1.2 0.05,-2.15 -0.15,-0.6 -0.5,-0.85 -0.8,-0.7 -0.85,-0.4 -0.55,-0.1 -0.5,0.05 -0.95,0.35 -0.85,0.7 -0.6,0.95 -0.2,0.65 0.1,1.1 0.35,0.8 0.4,0.55 1.1,0.9 0.7,0.8 0.75,1.75 0.6,2.75 0.45,0.8 0.8,0.8 0.1,0.65 -0.25,0.45 -0.95,1.1 -2.7,2.4 -1.6,1.15 -6.9,4.3 -1.9,1.35 -1.1,0.95 -1.55,1.6 -1.15,1.6 -0.4,0.8 -0.3,0.95 -0.15,1.45 -0.3,0.35 -0.3,-0.15 -0.5,-0.65 -0.3,-0.6 -0.1,-0.6 0.2,-2.65 0.9,-6.15 0.3,-3.9 0.05,-3.4 -0.2,-2.7 -0.35,-2.55 -0.45,-2.25 -0.4,-1.4 -0.55,-1.35 -0.7,-0.95 -1.15,-1 -1.65,-0.85 -2.1,-0.55 -1.8,-0.1 -1.8,0.15 -1.7,0.5 -1.65,0.85 -1.15,1 -0.85,1.3 -0.8,2.4 -0.45,2.25 -0.35,2.55 -0.2,2.7 0.05,3.4 0.25,3.4 0.75,5.75 0.2,0.9 0.2,2.2 -0.1,1.05 -0.65,1.1 -0.4,0.3 -0.35,-0.35 -0.15,-1.45 -0.3,-0.95 -0.4,-0.8 -1.15,-1.6 -1.55,-1.6 -1.1,-0.95 -1.9,-1.35 -6.9,-4.3 -1.6,-1.15 -2.1,-1.8 -0.6,-0.7 -0.25,-0.15 -0.95,-1.25 0.1,-0.7 0.85,-0.85 0.4,-0.75 0.6,-2.65 0.65,-1.65 0.35,-0.55 1.55,-1.35 0.35,-0.5 0.4,-0.9 0.1,-1.05 -0.2,-0.65 -0.6,-0.95 -0.95,-0.75 -1.35,-0.35 -1.05,0.3 -0.9,0.6 -0.45,0.55 -0.45,1.2 0.05,2.1 -0.35,1.15 -0.55,0.85 -0.6,0.65 -0.25,0.1 -0.9,-0.05 -1,-0.45 -0.8,-0.7 -0.35,-1.1 -0.1,-0.75 -0.8,-2.2 -0.2,-3.15 -0.6,-1.15 -0.7,-0.7 -1.2,-0.5 h -1.05 l -0.85,0.25 -0.8,0.4 -1.2,1.05 -0.65,1.2 v 1.05 l 0.25,1 0.8,1.15 0.6,0.5 1.4,0.85 1.4,1.45 1,1.6 0.8,1.05 0.3,0.6 0.2,0.6 -0.05,0.75 -0.25,0.35 -0.45,0.25 h -1.1 l -2.85,-0.75 -2.2,-1.1 -1.4,0.05 -1,0.4 -0.35,0.45 -0.3,0.65 -0.25,0.95 -0.05,1 0.25,0.95 0.2,0.35 0.6,0.55 0.4,0.15 0.7,0.15 h 1 l 2.45,-0.7 2.5,-0.15 0.8,0.15 1.5,1 0.7,0.3 0.8,0.15 0.45,0.35 0.5,1.4 0.25,1.15 0.2,2.15 0.5,2.75 1.5,4.55 2.15,5.35 1.3,2.75 2.65,5 4,6 2.55,5.05 0.55,0.8 0.8,0.85 0.9,0.6 1.05,0.45 0.95,0.1 0.9,-0.1 0.4,-0.1 0.45,-0.5 0.55,-0.3 0.15,-0.45 0.5,-0.8 0.15,-0.8 -0.1,-1.5 -0.7,-1.95 -0.3,-0.5 -0.65,-1.65 -0.3,-1.1 -0.35,-0.8 v -0.6 l 0.5,0.2 0.9,1.75 1.1,1.6 0.85,0.85 0.85,0.6 0.8,0.4 1.35,0.4 0.85,0.4 0.85,-0.4 1.6,0.9 2,0.55 h 1.2 l 1.3,-0.3 1.05,-0.4 1.25,-0.75 0.85,0.4 0.85,-0.4 1.35,-0.4 0.8,-0.4 0.85,-0.6 0.85,-0.85 1.1,-1.6 0.9,-1.75 0.5,-0.2 v 0.6 l -0.35,0.8 -0.3,1.1 -0.65,1.65 -0.3,0.5 -0.7,1.95 -0.1,1.5 0.15,0.8 0.75,1.35 0.45,0.2 0.45,0.5 1.3,0.2 0.95,-0.1 1.15,-0.5 0.8,-0.55 0.95,-1 0.75,-1.2 2.2,-4.5 3.7,-5.5 2.95,-5.5 2.25,-4.95 2.35,-6.55 0.7,-2.85 0.4,-3.45 0.7,-2.3 0.45,-0.35 0.65,-0.1 0.85,-0.35 1.35,-0.95 0.9,-0.2 1.85,0.05 1.45,0.3 1,0.35 0.95,0.15 h 0.75 l 0.75,-0.15 0.7,-0.4 0.45,-0.6 0.2,-0.6 z"
     id="path923" />
  <g
     id="g1165"
     transform="rotate(-17.939665,4.4888761,14.558913)">
    <path
       id="path925"
       d="m 325.5678,-145.27988 -0.05,-0.5 -0.25,-0.65 -0.55,-0.65 -0.55,-0.25 -0.9,-0.05 -0.5,0.1 -1.7,0.9 -0.75,0.25 -1.25,0.1 -1.05,0.4 -0.75,0.15 h -0.9 l -0.35,-0.15 -0.3,-0.3 -0.3,-0.55 -0.65,-1.45 -0.25,-1.05 0.3,-0.25 0.1,-0.25 0.4,-0.25 0.75,-0.8 0.4,-0.65 0.6,-1.85 0.4,-0.6 0.6,-0.6 0.75,-0.45 1.15,-0.95 0.3,-0.35 0.4,-0.9 0.1,-0.9 -0.2,-0.6 -0.75,-0.8 -0.95,-0.55 -1.35,-0.3 -1.2,0.2 -0.75,0.55 -0.45,0.55 -0.3,0.7 -0.1,0.55 0.15,1.7 -0.05,1.5 -0.4,1.2 -0.75,1.5 -0.25,0.95 -0.1,1.15 -0.25,0.1 -0.25,0.35 -2.4,0.65 -0.75,-0.1 -0.35,-0.25 -1.45,-1.85 -0.45,-1.15 -0.25,-1.15 -0.8,-1.55 -0.7,-0.85 -0.9,-0.6 -0.9,-0.05 -0.65,0.15 -0.6,0.3 -0.65,0.6 -0.4,0.7 -0.2,0.75 -0.05,1.1 0.6,1.05 0.75,0.85 2.15,1.5 0.8,1.05 0.25,0.55 0.15,1.45 -0.2,2.6 -0.45,1.15 -0.95,1.55 -0.4,1.3 -0.1,0.85 0.25,1.45 0.3,0.45 0.5,0.45 0.6,0.3 0.6,0.1 0.85,-0.05 0.65,-0.15 0.75,-0.35 0.95,-0.7 2.05,-2 2.35,-1.2 1.3,-0.8 1.75,-1.7 0.85,-0.5 3.15,-0.75 h 0.6 l 1.75,0.35 1.3,-0.15 0.7,-0.5 0.35,-0.7 z"
       style="fill:none;fill-rule:nonzero;stroke:#ff0000;stroke-width:0.25999999;stroke-linecap:butt;stroke-linejoin:miter;stroke-miterlimit:4;stroke-dasharray:none;stroke-opacity:1"
       inkscape:connector-curvature="0" />
    <text
       id="text1043"
       y="-141.97845"
       x="309.37408"
       style="font-style:normal;font-variant:normal;font-weight:normal;font-stretch:normal;font-size:2.11666656px;line-height:1.25;font-family:Roboto;-inkscape-font-specification:Roboto;letter-spacing:0px;word-spacing:0px;fill:#000000;fill-opacity:1;stroke:none;stroke-width:0.26458332"
       xml:space="preserve"><tspan
         style="stroke-width:0.26458332"
         y="-141.97845"
         x="309.37408"
         id="tspan1041"
         sodipodi:role="line">1</tspan></text>
  </g>
  <path
     inkscape:connector-curvature="0"
     style="fill:none;fill-rule:nonzero;stroke:#ff0000;stroke-width:0.25999999;stroke-linecap:butt;stroke-linejoin:miter;stroke-miterlimit:4;stroke-dasharray:none;stroke-opacity:1"
     d="m 256.88345,-184.97776 -0.2,-0.9 -0.25,-0.5 -0.2,-0.35 -0.65,-0.6 -0.95,-0.4 h -1.2 l -0.9,0.6 -0.8,1 -0.55,0.95 -0.4,1.6 -0.4,1.05 -1.4,1.85 -0.5,0.35 -0.65,0.1 -2.35,-0.6 -0.3,-0.35 -0.3,-0.15 -0.1,-1.05 -0.25,-1.05 -0.85,-1.75 -0.3,-1 -0.05,-1 0.15,-2.15 -0.35,-1.2 -0.55,-0.65 -0.7,-0.5 -1.2,-0.2 -1.5,0.35 -0.8,0.5 -0.75,0.8 -0.2,0.6 0.1,0.9 0.4,0.9 0.5,0.6 1.65,1.1 0.55,0.5 0.5,0.75 0.6,1.85 0.35,0.6 0.65,0.75 0.45,0.3 0.45,0.5 -0.1,0.8 -0.4,0.8 v 0.2 l -0.55,1.15 -0.4,0.45 -0.35,0.15 h -0.9 l -1.85,-0.55 -1.2,-0.1 -0.75,-0.25 -1,-0.6 -0.75,-0.3 -0.5,-0.1 -0.8,0.05 -0.65,0.25 -0.55,0.65 -0.2,0.65 v 0.85 l 0.25,0.6 0.4,0.45 0.85,0.3 1.05,0.05 1.55,-0.35 h 0.6 l 3.15,0.75 0.85,0.5 1.75,1.7 1.3,0.8 2.35,1.2 2.05,2 0.95,0.7 0.75,0.35 0.65,0.15 0.85,0.05 0.6,-0.1 0.6,-0.3 0.5,-0.45 0.3,-0.45 0.25,-1.45 -0.1,-0.85 -0.4,-1.3 -0.95,-1.55 -0.45,-1.15 -0.2,-2.6 0.1,-1.25 0.3,-0.75 0.8,-1.05 1.85,-1.25 1.05,-1.1 0.6,-1.05 z"
     id="path897" />
  <text
     xml:space="preserve"
     style="font-style:normal;font-variant:normal;font-weight:normal;font-stretch:normal;font-size:2.11666656px;line-height:1.25;font-family:Roboto;-inkscape-font-specification:Roboto;letter-spacing:0px;word-spacing:0px;fill:#000000;fill-opacity:1;stroke:none;stroke-width:0.26458332"
     x="248.14229"
     y="-173.57744"
     id="text1047"><tspan
       sodipodi:role="line"
       id="tspan1045"
       x="248.14229"
       y="-173.57744"
       style="stroke-width:0.26458332">1</tspan></text>
  <text
     xml:space="preserve"
     style="font-style:normal;font-variant:normal;font-weight:normal;font-stretch:normal;font-size:2.11666656px;line-height:1.25;font-family:Roboto;-inkscape-font-specification:Roboto;letter-spacing:0px;word-spacing:0px;fill:#000000;fill-opacity:1;stroke:none;stroke-width:0.26458332"
     x="171.487"
     y="-168.02333"
     id="text1051"><tspan
       sodipodi:role="line"
       id="tspan1049"
       x="171.487"
       y="-168.02333"
       style="stroke-width:0.26458332">2</tspan></text>
  <text
     xml:space="preserve"
     style="font-style:normal;font-variant:normal;font-weight:normal;font-stretch:normal;font-size:2.11666656px;line-height:1.25;font-family:Roboto;-inkscape-font-specification:Roboto;letter-spacing:0px;word-spacing:0px;fill:#000000;fill-opacity:1;stroke:none;stroke-width:0.26458332"
     x="100.09895"
     y="-164.3506"
     id="text1055"><tspan
       sodipodi:role="line"
       id="tspan1053"
       x="100.09895"
       y="-164.3506"
       style="stroke-width:0.26458332">3</tspan></text>
  <text
     xml:space="preserve"
     style="font-style:normal;font-variant:normal;font-weight:normal;font-stretch:normal;font-size:2.11666656px;line-height:1.25;font-family:Roboto;-inkscape-font-specification:Roboto;letter-spacing:0px;word-spacing:0px;fill:#000000;fill-opacity:1;stroke:none;stroke-width:0.26458332"
     x="33.196037"
     y="-161.75464"
     id="text1059"><tspan
       sodipodi:role="line"
       id="tspan1057"
       x="33.196037"
       y="-161.75464"
       style="stroke-width:0.26458332">4</tspan></text>
  <text
     xml:space="preserve"
     style="font-style:normal;font-variant:normal;font-weight:normal;font-stretch:normal;font-size:2.11666656px;line-height:1.25;font-family:Roboto;-inkscape-font-specification:Roboto;letter-spacing:0px;word-spacing:0px;fill:#000000;fill-opacity:1;stroke:none;stroke-width:0.26458332"
     x="274.84833"
     y="-199.53804"
     id="text1063"><tspan
       sodipodi:role="line"
       id="tspan1061"
       x="274.84833"
       y="-199.53804"
       style="stroke-width:0.26458332">5</tspan></text>
  <text
     xml:space="preserve"
     style="font-style:normal;font-variant:normal;font-weight:normal;font-stretch:normal;font-size:2.11666656px;line-height:1.25;font-family:Roboto;-inkscape-font-specification:Roboto;letter-spacing:0px;word-spacing:0px;fill:#000000;fill-opacity:1;stroke:none;stroke-width:0.26458332"
     x="213.12418"
     y="-202.02693"
     id="text1067"><tspan
       sodipodi:role="line"
       id="tspan1065"
       x="213.12418"
       y="-202.02693"
       style="stroke-width:0.26458332">6</tspan></text>
  <text
     xml:space="preserve"
     style="font-style:normal;font-variant:normal;font-weight:normal;font-stretch:normal;font-size:2.11666656px;line-height:1.25;font-family:Roboto;-inkscape-font-specification:Roboto;letter-spacing:0px;word-spacing:0px;fill:#000000;fill-opacity:1;stroke:none;stroke-width:0.26458332"
     x="167.14034"
     y="-207.80618"
     id="text1071"><tspan
       sodipodi:role="line"
       id="tspan1069"
       x="167.14034"
       y="-207.80618"
       style="stroke-width:0.26458332">7</tspan></text>
  <text
     xml:space="preserve"
     style="font-style:normal;font-variant:normal;font-weight:normal;font-stretch:normal;font-size:2.11666656px;line-height:1.25;font-family:Roboto;-inkscape-font-specification:Roboto;letter-spacing:0px;word-spacing:0px;fill:#000000;fill-opacity:1;stroke:none;stroke-width:0.26458332"
     x="118.85612"
     y="-210.54395"
     id="text1075"><tspan
       sodipodi:role="line"
       id="tspan1073"
       x="118.85612"
       y="-210.54395"
       style="stroke-width:0.26458332">8</tspan></text>
  <text
     xml:space="preserve"
     style="font-style:normal;font-variant:normal;font-weight:normal;font-stretch:normal;font-size:2.11666656px;line-height:1.25;font-family:Roboto;-inkscape-font-specification:Roboto;letter-spacing:0px;word-spacing:0px;fill:#000000;fill-opacity:1;stroke:none;stroke-width:0.26458332"
     x="72.811882"
     y="-212.78395"
     id="text1079"><tspan
       sodipodi:role="line"
       id="tspan1077"
       x="72.811882"
       y="-212.78395"
       style="stroke-width:0.26458332">9</tspan></text>
  <text
     xml:space="preserve"
     style="font-style:normal;font-variant:normal;font-weight:normal;font-stretch:normal;font-size:2.11666656px;line-height:1.25;font-family:Roboto;-inkscape-font-specification:Roboto;letter-spacing:0px;word-spacing:0px;fill:#000000;fill-opacity:1;stroke:none;stroke-width:0.26458332"
     x="24.029894"
     y="-214.52615"
     id="text1083"><tspan
       sodipodi:role="line"
       id="tspan1081"
       x="24.029894"
       y="-214.52615"
       style="stroke-width:0.26458332">10</tspan></text>
  <text
     xml:space="preserve"
     style="font-style:normal;font-variant:normal;font-weight:normal;font-stretch:normal;font-size:2.11666656px;line-height:1.25;font-family:Roboto;-inkscape-font-specification:Roboto;letter-spacing:0px;word-spacing:0px;fill:#000000;fill-opacity:1;stroke:none;stroke-width:0.26458332"
     x="273.04565"
     y="-246.37894"
     id="text1087"><tspan
       sodipodi:role="line"
       id="tspan1085"
       x="273.04565"
       y="-246.37894"
       style="stroke-width:0.26458332">11</tspan></text>
  <text
     xml:space="preserve"
     style="font-style:normal;font-variant:normal;font-weight:normal;font-stretch:normal;font-size:2.11666656px;line-height:1.25;font-family:Roboto;-inkscape-font-specification:Roboto;letter-spacing:0px;word-spacing:0px;fill:#000000;fill-opacity:1;stroke:none;stroke-width:0.26458332"
     x="221.77477"
     y="-248.86781"
     id="text1091"><tspan
       sodipodi:role="line"
       id="tspan1089"
       x="221.77477"
       y="-248.86781"
       style="stroke-width:0.26458332">12</tspan></text>
  <text
     xml:space="preserve"
     style="font-style:normal;font-variant:normal;font-weight:normal;font-stretch:normal;font-size:2.11666656px;line-height:1.25;font-family:Roboto;-inkscape-font-specification:Roboto;letter-spacing:0px;word-spacing:0px;fill:#000000;fill-opacity:1;stroke:none;stroke-width:0.26458332"
     x="172.74388"
     y="-255.58775"
     id="text1095"><tspan
       sodipodi:role="line"
       id="tspan1093"
       x="172.74388"
       y="-255.58775"
       style="stroke-width:0.26458332">13</tspan></text>
  <text
     xml:space="preserve"
     style="font-style:normal;font-variant:normal;font-weight:normal;font-stretch:normal;font-size:2.11666656px;line-height:1.25;font-family:Roboto;-inkscape-font-specification:Roboto;letter-spacing:0px;word-spacing:0px;fill:#000000;fill-opacity:1;stroke:none;stroke-width:0.26458332"
     x="102.55754"
     y="-256.33444"
     id="text1099"><tspan
       sodipodi:role="line"
       id="tspan1097"
       x="102.55754"
       y="-256.33444"
       style="stroke-width:0.26458332">14</tspan></text>
  <text
     xml:space="preserve"
     style="font-style:normal;font-variant:normal;font-weight:normal;font-stretch:normal;font-size:2.11666656px;line-height:1.25;font-family:Roboto;-inkscape-font-specification:Roboto;letter-spacing:0px;word-spacing:0px;fill:#000000;fill-opacity:1;stroke:none;stroke-width:0.26458332"
     x="60.307106"
     y="-259.02222"
     id="text1103"><tspan
       sodipodi:role="line"
       id="tspan1101"
       x="60.307106"
       y="-259.02222"
       style="stroke-width:0.26458332">15</tspan></text>
  <text
     xml:space="preserve"
     style="font-style:normal;font-variant:normal;font-weight:normal;font-stretch:normal;font-size:2.11666656px;line-height:1.25;font-family:Roboto;-inkscape-font-specification:Roboto;letter-spacing:0px;word-spacing:0px;fill:#000000;fill-opacity:1;stroke:none;stroke-width:0.26458332"
     x="82.646523"
     y="-258.82333"
     id="text1107"><tspan
       sodipodi:role="line"
       id="tspan1105"
       x="82.646523"
       y="-258.82333"
       style="stroke-width:0.26458332">15</tspan></text>
  <text
     xml:space="preserve"
     style="font-style:normal;font-variant:normal;font-weight:normal;font-stretch:normal;font-size:2.11666656px;line-height:1.25;font-family:Roboto;-inkscape-font-specification:Roboto;letter-spacing:0px;word-spacing:0px;fill:#000000;fill-opacity:1;stroke:none;stroke-width:0.26458332"
     x="189.94437"
     y="-177.47211"
     id="text1111"><tspan
       sodipodi:role="line"
       id="tspan1109"
       x="189.94437"
       y="-177.47211"
       style="stroke-width:0.26458332">2</tspan></text>
  <text
     xml:space="preserve"
     style="font-style:normal;font-variant:normal;font-weight:normal;font-stretch:normal;font-size:2.11666656px;line-height:1.25;font-family:Roboto;-inkscape-font-specification:Roboto;letter-spacing:0px;word-spacing:0px;fill:#000000;fill-opacity:1;stroke:none;stroke-width:0.26458332"
     x="140.47397"
     y="-183.98373"
     id="text1115"><tspan
       sodipodi:role="line"
       id="tspan1113"
       x="140.47397"
       y="-183.98373"
       style="stroke-width:0.26458332">2</tspan></text>
  <text
     xml:space="preserve"
     style="font-style:normal;font-variant:normal;font-weight:normal;font-stretch:normal;font-size:2.11666656px;line-height:1.25;font-family:Roboto;-inkscape-font-specification:Roboto;letter-spacing:0px;word-spacing:0px;fill:#000000;fill-opacity:1;stroke:none;stroke-width:0.26458332"
     x="128.76892"
     y="-183.31514"
     id="text1119"><tspan
       sodipodi:role="line"
       id="tspan1117"
       x="128.76892"
       y="-183.31514"
       style="stroke-width:0.26458332">3</tspan></text>
  <text
     xml:space="preserve"
     style="font-style:normal;font-variant:normal;font-weight:normal;font-stretch:normal;font-size:2.11666656px;line-height:1.25;font-family:Roboto;-inkscape-font-specification:Roboto;letter-spacing:0px;word-spacing:0px;fill:#000000;fill-opacity:1;stroke:none;stroke-width:0.26458332"
     x="72.557816"
     y="-179.91095"
     id="text1123"><tspan
       sodipodi:role="line"
       id="tspan1121"
       x="72.557816"
       y="-179.91095"
       style="stroke-width:0.26458332">3</tspan></text>
  <text
     xml:space="preserve"
     style="font-style:normal;font-variant:normal;font-weight:normal;font-stretch:normal;font-size:2.11666656px;line-height:1.25;font-family:Roboto;-inkscape-font-specification:Roboto;letter-spacing:0px;word-spacing:0px;fill:#000000;fill-opacity:1;stroke:none;stroke-width:0.26458332"
     x="58.650299"
     y="-180.29311"
     id="text1127"><tspan
       sodipodi:role="line"
       id="tspan1125"
       x="58.650299"
       y="-180.29311"
       style="stroke-width:0.26458332">4</tspan></text>
  <text
     xml:space="preserve"
     style="font-style:normal;font-variant:normal;font-weight:normal;font-stretch:normal;font-size:2.11666656px;line-height:1.25;font-family:Roboto;-inkscape-font-specification:Roboto;letter-spacing:0px;word-spacing:0px;fill:#000000;fill-opacity:1;stroke:none;stroke-width:0.26458332"
     x="6.6327686"
     y="-180.04422"
     id="text1131"><tspan
       sodipodi:role="line"
       id="tspan1129"
       x="6.6327686"
       y="-180.04422"
       style="stroke-width:0.26458332">4</tspan></text>
  <text
     xml:space="preserve"
     style="font-style:normal;font-variant:normal;font-weight:normal;font-stretch:normal;font-size:2.11666656px;line-height:1.25;font-family:Roboto;-inkscape-font-specification:Roboto;letter-spacing:0px;word-spacing:0px;fill:#000000;fill-opacity:1;stroke:none;stroke-width:0.26458332"
     x="296.99933"
     y="-218.70241"
     id="text1135"><tspan
       sodipodi:role="line"
       id="tspan1133"
       x="296.99933"
       y="-218.70241"
       style="stroke-width:0.26458332">5</tspan></text>
  <text
     xml:space="preserve"
     style="font-style:normal;font-variant:normal;font-weight:normal;font-stretch:normal;font-size:2.11666656px;line-height:1.25;font-family:Roboto;-inkscape-font-specification:Roboto;letter-spacing:0px;word-spacing:0px;fill:#000000;fill-opacity:1;stroke:none;stroke-width:0.26458332"
     x="250.45732"
     y="-218.70241"
     id="text1139"><tspan
       sodipodi:role="line"
       id="tspan1137"
       x="250.45732"
       y="-218.70241"
       style="stroke-width:0.26458332">5</tspan></text>
  <text
     xml:space="preserve"
     style="font-style:normal;font-variant:normal;font-weight:normal;font-stretch:normal;font-size:2.11666656px;line-height:1.25;font-family:Roboto;-inkscape-font-specification:Roboto;letter-spacing:0px;word-spacing:0px;fill:#000000;fill-opacity:1;stroke:none;stroke-width:0.26458332"
     x="290.11545"
     y="-181.06822"
     id="text1151"><tspan
       sodipodi:role="line"
       id="tspan1149"
       x="290.11545"
       y="-181.06822"
       style="stroke-width:0.26458332">5</tspan></text>
  <g
     id="g1177"
     transform="translate(-6.9096074,-20.5845)">
    <path
       id="path901"
       d="m 254.4678,-176.47988 -0.2,-1.7 -0.65,-2.45 -0.55,-1.55 -0.35,-1.9 -0.95,-2.25 -0.95,-1.1 -0.6,-0.4 -0.15,-0.35 -0.3,-0.2 -0.45,-0.55 h -0.7 l -0.05,0.2 -0.35,0.35 0.1,0.75 -0.15,0.25 -0.05,1.25 0.05,1 0.4,0.95 0.05,0.45 0.55,1.55 0.75,1.5 0.6,1.9 0.85,1.65 0.4,0.35 0.2,0.65 1.05,1.35 0.35,0.05 0.2,0.25 0.6,0.05 0.3,-0.6 z"
       style="fill:none;fill-rule:nonzero;stroke:#ff0000;stroke-width:0.25999999;stroke-linecap:butt;stroke-linejoin:miter;stroke-miterlimit:4;stroke-dasharray:none;stroke-opacity:1"
       inkscape:connector-curvature="0" />
    <text
       id="text1155"
       y="-181.84251"
       x="250.7021"
       style="font-style:normal;font-variant:normal;font-weight:normal;font-stretch:normal;font-size:2.11666656px;line-height:1.25;font-family:Roboto;-inkscape-font-specification:Roboto;letter-spacing:0px;word-spacing:0px;fill:#000000;fill-opacity:1;stroke:none;stroke-width:0.26458332"
       xml:space="preserve"><tspan
         style="stroke-width:0.26458332"
         y="-181.84251"
         x="250.7021"
         id="tspan1153"
         sodipodi:role="line">5</tspan></text>
  </g>
  <text
     xml:space="preserve"
     style="font-style:normal;font-variant:normal;font-weight:normal;font-stretch:normal;font-size:2.11666656px;line-height:1.25;font-family:Roboto;-inkscape-font-specification:Roboto;letter-spacing:0px;word-spacing:0px;fill:#000000;fill-opacity:1;stroke:none;stroke-width:0.26458332"
     x="248.64549"
     y="-143.97223"
     id="text932"><tspan
       sodipodi:role="line"
       id="tspan930"
       x="248.64549"
       y="-143.97223"
       style="stroke-width:0.26458332">1</tspan></text>
</svg>
