<?xml version="1.0" encoding="UTF-8" standalone="no"?>
<!-- Created with LibSL -->

<svg
   xmlns:dc="http://purl.org/dc/elements/1.1/"
   xmlns:cc="http://creativecommons.org/ns#"
   xmlns:rdf="http://www.w3.org/1999/02/22-rdf-syntax-ns#"
   xmlns:svg="http://www.w3.org/2000/svg"
   xmlns="http://www.w3.org/2000/svg"
   xmlns:sodipodi="http://sodipodi.sourceforge.net/DTD/sodipodi-0.dtd"
   xmlns:inkscape="http://www.inkscape.org/namespaces/inkscape"
   version="1.1"
   viewBox="0.15 -233.3 293.65 172.7"
   width="293.65mm"
   height="172.7mm"
   id="svg5"
   sodipodi:docname="minion_slice_0.svg"
   inkscape:version="0.92.2 (5c3e80d, 2017-08-06)">
  <metadata
     id="metadata11">
    <rdf:RDF>
      <cc:Work
         rdf:about="">
        <dc:format>image/svg+xml</dc:format>
        <dc:type
           rdf:resource="http://purl.org/dc/dcmitype/StillImage" />
      </cc:Work>
    </rdf:RDF>
  </metadata>
  <defs
     id="defs9" />
  <sodipodi:namedview
     pagecolor="#ffffff"
     bordercolor="#666666"
     borderopacity="1"
     objecttolerance="10"
     gridtolerance="10"
     guidetolerance="10"
     inkscape:pageopacity="0"
     inkscape:pageshadow="2"
     inkscape:window-width="1920"
     inkscape:window-height="961"
     id="namedview7"
     showgrid="false"
     inkscape:zoom="1.0226503"
     inkscape:cx="553.57775"
     inkscape:cy="289.78833"
     inkscape:window-x="0"
     inkscape:window-y="49"
     inkscape:window-maximized="1"
     inkscape:current-layer="layer2" />
  <g
     id="layer1"
     style="stroke:#ff0000;stroke-opacity:1;stroke-width:0.28599999;stroke-miterlimit:4;stroke-dasharray:none">
    <path
       style="fill:none;fill-rule:nonzero;stroke:#ff0000;stroke-width:0.28599999;stroke-linecap:butt;stroke-linejoin:miter;stroke-opacity:1;stroke-miterlimit:4;stroke-dasharray:none"
       d="M 1.15,-102.8 1.25,-102.1 1.65,-100.95 2.55,-99.4 5.6,-97.2 7.8,-94.7 8.3,-91.85 8.2,-90.45 9.5,-85.7 9.35,-84.95 8.75,-83.85 8.95,-82.55 8.1,-79.2 7.8,-78.55 7.7,-77.5 7.75,-76.5 8.15,-75.6 8.65,-74 10.3,-71.7 11.1,-70.8 11.85,-68.2 13.7,-62.95 13.95,-62.75 14.2,-62.15 14.45,-61.9 14.7,-61.9 15.05,-62.2 15.65,-62.2 16.25,-61.65 16.75,-61.6 17.05,-61.75 17.35,-62.15 17.75,-62.3 18.15,-62.2 18.15,-62.1 18.45,-61.9 18.7,-61.9 18.9,-62.05 19,-62.4 19.25,-62.6 19.9,-64.85 20.35,-67.7 20.75,-69.4 22,-70.3 22.95,-71.2 23.75,-73.35 24.4,-74.4 24.3,-76.15 25.1,-78.25 24.6,-84.3 24.25,-86.05 24.35,-86.95 24.45,-87.05 24.45,-87.9 24.9,-89.8 24.95,-90.55 25.2,-91.3 25.85,-96.2 30.65,-100.2 32,-102.55 32.2,-103.45 32.15,-103.7 32.25,-103.8 30.65,-109.85 30.15,-110.35 29.35,-111.6 29.25,-112.1 28.85,-113 29.9,-120.55 30.05,-126.7 30.05,-128.1 29.85,-128.85 28.65,-131.15 28.85,-131.45 29.4,-139.75 28.9,-142.45 26.45,-146.1 23.2,-148.95 22.75,-148.95 21.35,-149.25 20.65,-149.25 19.15,-150.15 18.3,-151.1 15.85,-151.65 15.4,-151.5 13.05,-149.25 11.6,-149.25 8,-147.8 6.75,-146.75 3.75,-139.5 3.95,-136.75 5.25,-131.45 3.25,-125.1 3.05,-121.9 3.05,-121.6 4.3,-119 4,-116.7 4.2,-111.9 3,-110.8 2.75,-110.4 1.25,-104.35 Z M 4,-191.6 4.3,-190.95 4.6,-187.8 5.2,-186 5.25,-185 5.55,-183.95 5.95,-183.5 7.55,-184.3 8.35,-184.35 8.5,-184.6 8.6,-184.6 8.7,-184.4 9.15,-184.5 9.45,-184.35 9.8,-185 10.35,-185.2 11.85,-186.7 12.1,-187.1 12.4,-188.95 13.1,-190.25 13.1,-190.6 12.4,-194.5 11.1,-195.5 10.2,-196.45 8.25,-196.9 6.55,-196.35 5.55,-195.8 4.65,-194.55 4.05,-192.45 Z M 5.95,-221.7 6.35,-220.6 6.5,-219.6 7,-219.35 7.2,-218.45 8.35,-217.4 8.55,-217.4 8.6,-216.8 9.1,-216.25 9.3,-216.25 9.9,-216.95 10.2,-216.95 11.35,-217.5 11.9,-218.15 12.2,-218.75 12.9,-218.9 13.25,-220.3 13.1,-221.95 13.8,-223.65 13.8,-223.95 13.4,-227.7 11.9,-229.9 11.45,-230.3 7.85,-229.05 7.4,-228.8 6.9,-228.3 6.3,-226.65 6.45,-224.4 Z M 7.75,-108.45 7.85,-109.15 8.1,-109.45 8.5,-109.65 9.25,-109.55 9.55,-109.3 9.75,-108.85 9.65,-108.15 9.45,-107.9 8.95,-107.65 8.55,-107.65 8.2,-107.8 7.95,-108 Z M 7.75,-191.6 7.85,-192.3 8.1,-192.6 8.55,-192.8 9.25,-192.7 9.55,-192.45 9.75,-192 9.65,-191.3 9.4,-191 8.95,-190.8 8.25,-190.9 7.95,-191.15 Z M 9.75,-141.45 9.85,-142.15 10.1,-142.45 10.5,-142.65 11.25,-142.55 11.55,-142.3 11.75,-141.85 11.75,-141.45 11.55,-141 10.95,-140.65 10.55,-140.65 10.05,-140.9 Z M 9.75,-224.6 9.85,-225.3 10.1,-225.6 10.55,-225.8 11.25,-225.7 11.55,-225.45 11.75,-225 11.75,-224.6 11.55,-224.15 10.95,-223.8 10.25,-223.9 9.95,-224.15 Z M 19.35,-226.1 19.85,-222.4 19.8,-221.45 20.2,-219.1 21.25,-218.3 21.8,-217.3 23.5,-217.5 23.7,-217.4 24.1,-216.6 25.6,-218.35 26.3,-218.75 26.6,-219.6 27,-219.75 27.2,-220.45 27.2,-223.75 27.15,-224.75 26.65,-226.7 26.7,-227.3 23.2,-230.6 22.2,-230.3 22.05,-230.15 20.2,-227.85 19.35,-226.45 Z M 20.4,-191.7 21,-190 21.1,-187.25 21.3,-186.55 22.85,-185.05 23.5,-184.25 24.1,-184.7 24.5,-184.6 25.25,-183.7 25.7,-183.35 26.2,-183.4 26.5,-183.95 27.05,-183.7 27.45,-183.75 27.55,-183.95 28.05,-185.35 28.25,-187.1 28.55,-187.55 28.7,-189.9 29.05,-191 28.15,-195.2 26.05,-196.65 24.75,-197.05 23.9,-196.65 22.35,-196.35 22.15,-196.15 20.75,-194.05 Z M 21.25,-141.45 21.35,-142.15 21.6,-142.45 22,-142.65 22.75,-142.55 23.05,-142.3 23.25,-141.85 23.15,-141.15 22.95,-140.9 22.45,-140.65 22.05,-140.65 21.55,-140.9 Z M 21.25,-224.6 21.35,-225.3 21.6,-225.6 22.05,-225.8 22.75,-225.7 23.05,-225.45 23.25,-225 23.15,-224.3 22.9,-224 22.45,-223.8 21.75,-223.9 21.45,-224.15 Z M 22.75,-108.95 22.85,-109.65 23.1,-109.95 23.5,-110.15 24.25,-110.05 24.55,-109.8 24.75,-109.35 24.65,-108.65 24.45,-108.4 23.95,-108.15 23.55,-108.15 23.2,-108.3 22.95,-108.5 Z M 22.75,-192.1 22.85,-192.8 23.1,-193.1 23.55,-193.3 24.25,-193.2 24.55,-192.95 24.75,-192.5 24.65,-191.8 24.4,-191.5 23.95,-191.3 23.25,-191.4 22.95,-191.65 Z M 31.35,-191.95 31.45,-191.9 32.5,-189.3 33.4,-188.55 34.6,-188.2 34.9,-187.9 35.4,-187.8 37.05,-188.3 38.05,-188.9 38.2,-189.35 38.75,-189.7 39.05,-190.05 39.1,-191.05 39.9,-192.5 39.5,-194.6 38.55,-195.35 36.9,-197.05 35.4,-197.35 34.4,-197 32.15,-195.9 31.95,-195.7 31.7,-194.85 Z M 33.45,-225.25 33.6,-223.7 33.95,-223.25 34.35,-222.35 35.2,-221.7 35.75,-221.55 36.35,-221.2 37.1,-221.25 37.5,-221.15 37.95,-221.35 39.9,-223 40.55,-224.9 40.7,-225.05 40.7,-227.5 40.2,-228.7 39.45,-229.8 39.3,-229.95 38.4,-230.25 37.9,-230.25 34.6,-229.5 34.05,-228.65 33.45,-226.95 Z M 34.8,-102.65 35.7,-100.3 36.5,-98.8 37.25,-97.75 39.4,-96.2 40.9,-94.45 41.75,-89.35 41.6,-86.8 42.05,-85.3 42.05,-84.9 40.55,-82 40.55,-81.45 40,-79.9 39.85,-77.8 41.6,-72.5 43.35,-70.2 43.75,-69.8 45.05,-68.9 45.75,-68.1 47.05,-65.35 49.65,-63.55 49.8,-63.55 52.15,-64.9 52.9,-68.3 54.1,-69.05 54.8,-69.7 57.15,-71.45 58.5,-72.75 58.85,-73.8 58.8,-75.55 59.4,-77 59.65,-79.25 59.3,-80.65 59.15,-81.95 57.7,-85.5 57.75,-87.35 57.95,-89.1 60,-95.35 60.1,-96.25 60.95,-96.95 63.5,-100.8 64.7,-103.35 64.75,-104.4 63.4,-108.9 62.6,-110 62.45,-111.3 62.2,-111.9 62.85,-116.4 62.7,-118.1 62.7,-124.55 62.4,-129.05 61.45,-130.95 61.45,-131.2 62.15,-132.9 62.55,-134.9 62.75,-138.9 62.75,-139.45 62.55,-140.1 57.75,-147.2 56.45,-148.45 55.25,-148.45 54.2,-148.65 53,-150.25 52.75,-150.5 52.1,-150.75 48.65,-150.8 46.45,-149.15 41.55,-147.25 40.85,-146.7 38.75,-143.55 36.6,-138.3 36.55,-137.95 36.8,-136.05 37.95,-131.4 37.35,-129.45 36.85,-120.55 37.1,-120 37.05,-118.75 37.35,-110.85 36.5,-110 34.95,-103.85 Z M 34.9,-191.65 35.05,-192.35 35.35,-192.65 35.7,-192.8 36.1,-192.8 36.5,-192.65 36.9,-192.05 36.9,-191.55 36.75,-191.2 36.5,-190.95 36.1,-190.8 35.7,-190.8 35.35,-190.95 35.05,-191.25 Z M 36.9,-224.65 37.05,-225.35 37.35,-225.65 37.7,-225.8 38.1,-225.8 38.5,-225.65 38.9,-225.05 38.9,-224.55 38.75,-224.2 38.5,-223.95 38.1,-223.8 37.7,-223.8 37.35,-223.95 37.05,-224.25 Z M 40.95,-108.4 40.95,-108.9 41.1,-109.25 41.7,-109.65 42.45,-109.55 42.75,-109.3 42.95,-108.85 42.95,-108.45 42.8,-108.1 42.65,-107.9 42.15,-107.65 41.45,-107.75 41.15,-108 Z M 42.95,-141.4 42.95,-141.9 43.1,-142.25 43.7,-142.65 44.45,-142.55 44.75,-142.3 44.95,-141.85 44.95,-141.45 44.8,-141.1 44.65,-140.9 44.15,-140.65 43.45,-140.75 43.15,-141 Z M 46.6,-226.85 46.95,-224.1 47.9,-223 48.1,-222.5 48.3,-222.3 49.1,-221.8 49.7,-221.25 50.35,-221.15 50.6,-221.3 52,-221.5 53,-222.5 54.15,-224.75 54,-225.8 54.25,-227.05 53.45,-228 50.95,-230.3 48.9,-230.35 48.55,-230.15 47.7,-228.95 46.65,-227.2 Z M 47.85,-191.8 48.6,-190.55 49.05,-189.05 49.2,-188.9 49.7,-188.6 51.95,-187.9 53.5,-188 55.45,-189.25 56.1,-190.65 56.15,-191.95 55.7,-192.6 55.2,-195.9 53.55,-197 51.9,-197.5 49.95,-196.4 49.3,-196.3 49.05,-196.15 48.45,-195.25 48.15,-193.2 47.85,-192.25 Z M 48.4,-224.65 48.55,-225.35 48.85,-225.65 49.2,-225.8 49.6,-225.8 50,-225.65 50.4,-225.05 50.4,-224.55 50.25,-224.2 50,-223.95 49.6,-223.8 49.2,-223.8 48.85,-223.95 48.55,-224.25 Z M 49.9,-192.15 50.05,-192.85 50.35,-193.15 50.7,-193.3 51.1,-193.3 51.5,-193.15 51.9,-192.55 51.9,-192.05 51.75,-191.7 51.5,-191.45 51.1,-191.3 50.7,-191.3 50.35,-191.45 50.05,-191.75 Z M 54.45,-141.4 54.45,-141.9 54.6,-142.25 55.2,-142.65 55.95,-142.55 56.25,-142.3 56.45,-141.85 56.45,-141.45 56.3,-141.1 56.15,-140.9 55.65,-140.65 54.95,-140.75 54.65,-141 Z M 55.95,-108.9 55.95,-109.4 56.1,-109.75 56.7,-110.15 57.45,-110.05 57.75,-109.8 57.95,-109.35 57.95,-108.95 57.8,-108.6 57.65,-108.4 57.15,-108.15 56.45,-108.25 56.15,-108.5 Z M 57.9,-191.45 58.55,-190.1 60.65,-188 61.3,-187.75 62.7,-187.7 64.3,-188.25 65.25,-189.05 65.9,-189.95 66,-191.95 66.35,-194.65 63.3,-197.65 62.7,-197.8 61.95,-197.65 60.15,-196.7 58.95,-196.2 58.6,-195.8 Z M 60.3,-225.75 60.4,-223.4 61.45,-221.45 64.5,-220.7 66.45,-221.85 66.95,-222.35 67.3,-223.1 67.9,-223.85 67.9,-224.65 68.25,-226.5 68,-227.25 66.9,-229.35 66.7,-229.55 64.55,-230.2 62.3,-229.75 61.65,-229.5 60.45,-227.7 60.3,-227.25 Z M 61.8,-191.55 61.8,-192.05 61.95,-192.4 62.3,-192.7 62.6,-192.8 63,-192.8 63.5,-192.55 63.8,-191.95 63.75,-191.45 63.55,-191.1 63,-190.8 62.3,-190.9 61.95,-191.2 Z M 63.8,-224.55 63.8,-225.05 63.95,-225.4 64.3,-225.7 64.6,-225.8 65,-225.8 65.5,-225.55 65.8,-224.95 65.75,-224.45 65.55,-224.1 65,-223.8 64.3,-223.9 63.95,-224.2 Z M 68.55,-106.75 69.65,-98.75 70.05,-97.6 70.85,-96.15 71.05,-95.9 72.1,-95.2 72.8,-94.4 74.15,-86.45 74,-85.15 74,-83.75 73.7,-83.5 73.55,-83.15 72.65,-80.5 72.6,-80.1 72.6,-74.55 72.9,-73.4 74.45,-71.05 75.75,-70 77.35,-68.9 77.75,-68.9 77.85,-68.75 78.65,-68.6 79.55,-67.8 79.65,-67.55 81.3,-66.95 84.2,-67.5 84.35,-67.95 85.05,-68.65 86,-69 86.7,-69.1 89.4,-71.35 90.4,-73.15 90.65,-74.65 91.2,-76.8 91.35,-79.1 90.5,-81.05 89.7,-83.35 89.8,-87.5 90.2,-88.6 92.5,-97.3 94.6,-100.45 95.35,-102.05 95.35,-104.2 95.3,-107.05 95,-108.05 94.75,-108.45 94.6,-109.7 94,-111.75 93.65,-116 93.7,-118.95 92.95,-129.95 92.3,-131.2 92.45,-131.85 93.9,-135.45 93.85,-137.05 93.4,-138.8 92.75,-140.6 88.25,-147.3 87.05,-147.95 86.6,-147.95 86.3,-148.25 82.55,-149.7 80.7,-149.7 79.7,-148.9 77.1,-147.9 76.65,-147.55 74.85,-145.95 69.65,-138.3 69.75,-137.3 70.95,-131.2 70.25,-126 69.85,-116.8 69.3,-113.75 69.45,-109.85 69.1,-109.45 68.55,-107.25 Z M 73.05,-108.35 73.15,-109.2 73.45,-109.5 73.8,-109.65 74.25,-109.65 74.6,-109.5 75,-108.95 74.95,-108.2 74.4,-107.7 73.65,-107.7 73.2,-108.05 Z M 73.4,-226.65 73.65,-223.5 74.1,-222.85 74.5,-222 75.5,-221.45 76.65,-220.4 77,-220.4 77.75,-220.5 78.65,-220.45 79.25,-221.1 81.05,-224.25 81.55,-226.8 80.55,-228 78.45,-230 75.6,-230.05 74.95,-229.65 73.5,-227.6 73.4,-227.4 Z M 74.85,-191.85 74.9,-191.4 75.1,-191 76.5,-188.6 77.8,-187.9 79.2,-187.6 79.75,-187.6 80.4,-187.65 81.3,-188.05 82.75,-189 83.25,-190.2 83.3,-192.4 83.25,-193 82.25,-194.5 81.95,-196.6 80.8,-197.35 78.9,-197.95 75.75,-196.2 74.85,-192.8 Z M 75.05,-141.35 75.15,-142.2 75.45,-142.5 75.8,-142.65 76.25,-142.65 76.6,-142.5 77,-141.95 76.95,-141.2 76.4,-140.7 75.65,-140.7 75.2,-141.05 Z M 75.3,-224.55 75.3,-225.05 75.45,-225.4 75.8,-225.7 76.1,-225.8 76.5,-225.8 77,-225.55 77.3,-224.95 77.25,-224.45 77.05,-224.1 76.5,-223.8 75.8,-223.9 75.45,-224.2 Z M 76.8,-192.05 76.8,-192.55 76.95,-192.9 77.3,-193.2 77.6,-193.3 78,-193.3 78.5,-193.05 78.8,-192.45 78.75,-191.95 78.55,-191.6 78,-191.3 77.3,-191.4 76.95,-191.7 Z M 85.05,-190.85 85.7,-189.65 87.65,-187.6 88,-187.45 89.8,-187.4 90.9,-187.4 91.5,-187.6 91.95,-187.95 93.35,-189.8 93.55,-193.35 93.75,-194.9 93.45,-195.6 90.8,-197.7 90.3,-198.25 90.1,-198.3 86.95,-196.7 86.6,-196.65 85.85,-195.75 85.55,-195.05 85.45,-193.35 Z M 86.55,-141.35 86.65,-142.2 86.95,-142.5 87.3,-142.65 87.75,-142.65 88.1,-142.5 88.5,-141.95 88.45,-141.2 87.9,-140.7 87.15,-140.7 86.7,-141.05 Z M 87.7,-225.3 88.05,-221.35 88.85,-219.85 90.3,-219.15 92.3,-218.75 92.9,-218.85 94.8,-220.5 96.15,-223.5 96.1,-223.9 96.4,-225.55 95.9,-227 95.05,-228.5 93.35,-229.85 92.1,-229.9 91.45,-230.1 89.45,-229.7 88.65,-228.45 87.7,-227.6 Z M 88.05,-108.85 88.15,-109.7 88.45,-110 88.8,-110.15 89.25,-110.15 89.6,-110 90,-109.45 89.95,-108.7 89.4,-108.2 88.65,-108.2 88.2,-108.55 Z M 89.25,-191.7 89.4,-192.35 89.7,-192.65 90.05,-192.8 90.5,-192.8 90.85,-192.65 91.25,-192.1 91.25,-191.5 91.1,-191.2 90.5,-190.8 90.05,-190.8 89.7,-190.95 89.4,-191.25 Z M 91.25,-224.7 91.4,-225.35 91.7,-225.65 92.05,-225.8 92.5,-225.8 92.85,-225.65 93.25,-225.1 93.25,-224.5 93.1,-224.2 92.5,-223.8 92.05,-223.8 91.7,-223.95 91.4,-224.25 Z M 99.2,-108.6 101.65,-94.1 103.55,-84.9 103.6,-84.05 103.45,-83.2 103,-82.05 101.95,-80.25 101.85,-78.45 102.45,-77.35 102.45,-77.05 103.15,-74.55 105.5,-69.9 105.75,-69.65 107.2,-68.9 108.85,-68.25 113.95,-68.55 115,-68.85 117.8,-74 118.95,-75.9 119.35,-77.15 119.4,-77.7 119.8,-78.5 119.55,-80.9 119.05,-82.2 118.3,-83.05 118.3,-84.6 116.95,-86.95 116.9,-87.2 120.5,-94.2 121.7,-98.8 122.55,-100 122.85,-100.65 122.85,-102.8 122.2,-110.65 121.55,-112.7 121.4,-114.55 121.45,-115.7 120.45,-130.4 120.4,-130.85 120.05,-131.5 120.95,-133.9 120.95,-134.35 120.9,-134.85 119.2,-141.45 118.9,-142.2 117.4,-144.45 116.55,-145.5 109.9,-148.65 109.3,-148.35 105.7,-145.1 102.75,-140.8 100.95,-135.9 100.95,-135.45 101.8,-131.15 99.95,-116.75 99.75,-112 99.2,-109.05 Z M 99.85,-224.8 99.95,-223.55 100.4,-222.9 100.95,-221.5 101.5,-220.45 102.55,-219.8 103.35,-219.05 106.75,-219.25 108.55,-221.1 108.85,-221.65 108.9,-223.35 109.4,-226.6 107.75,-228.55 106.55,-229.65 102.95,-229.75 102.15,-229.35 101.2,-228.1 100,-225.95 Z M 102,-108.5 102.05,-109 102.25,-109.35 102.8,-109.65 103.25,-109.65 103.6,-109.5 104,-108.9 103.9,-108.15 103.65,-107.85 103.2,-107.65 102.8,-107.65 102.45,-107.8 102.15,-108.1 Z M 102.4,-192.75 102.55,-190.95 104.25,-188 107.25,-187.3 107.95,-187.3 109.75,-188.15 110.65,-188.8 110.95,-189.5 111.05,-192.8 110.95,-194 109.45,-196.2 109.3,-197.3 108.8,-197.65 107.35,-198.15 106.3,-198.15 105.7,-198 104.45,-197.35 103.4,-196.5 102.6,-193.95 Z M 102.75,-224.7 102.9,-225.35 103.2,-225.65 103.55,-225.8 104,-225.8 104.35,-225.65 104.75,-225.1 104.75,-224.5 104.6,-224.2 104,-223.8 103.55,-223.8 103.2,-223.95 102.9,-224.25 Z M 104,-141.5 104.05,-142 104.25,-142.35 104.8,-142.65 105.25,-142.65 105.6,-142.5 106,-141.9 105.9,-141.15 105.65,-140.85 105.2,-140.65 104.8,-140.65 104.45,-140.8 104.15,-141.1 Z M 104.25,-192.2 104.4,-192.85 104.7,-193.15 105.05,-193.3 105.5,-193.3 105.85,-193.15 106.25,-192.6 106.25,-192 106.1,-191.7 105.5,-191.3 105.05,-191.3 104.7,-191.45 104.4,-191.75 Z M 112.85,-190.35 113.25,-189.55 115.45,-187.1 119.45,-186.8 120.7,-188.75 121.45,-189.65 121.85,-195.1 121.35,-196.4 119.95,-197.6 119.15,-197.9 117.5,-198.25 115.55,-197.25 115,-197.15 113.8,-195.7 113.35,-194.85 113.2,-192.5 Z M 115.5,-141.5 115.55,-142 115.75,-142.35 116.3,-142.65 116.75,-142.65 117.1,-142.5 117.5,-141.9 117.4,-141.15 117.15,-140.85 116.7,-140.65 116.3,-140.65 115.95,-140.8 115.65,-141.1 Z M 115.8,-226.1 116.4,-219.25 116.95,-218.25 119.75,-216.9 120.4,-216.75 122.1,-217 122.8,-217.65 125.35,-223.75 125.35,-224.05 124.55,-226.6 124.2,-227.3 120.7,-230.15 119.55,-230.2 118.75,-229.85 117.6,-229.75 115.8,-228.1 Z M 117,-109 117.05,-109.5 117.25,-109.85 117.8,-110.15 118.25,-110.15 118.6,-110 119,-109.4 118.9,-108.65 118.65,-108.35 118.2,-108.15 117.8,-108.15 117.45,-108.3 117.15,-108.6 Z M 117.45,-191.5 117.45,-192.1 117.6,-192.4 118.2,-192.8 118.65,-192.8 119,-192.65 119.3,-192.35 119.45,-191.85 119.3,-191.25 119,-190.95 118.65,-190.8 118.2,-190.8 117.85,-190.95 Z M 119.45,-224.5 119.45,-225.1 119.6,-225.4 120.2,-225.8 120.65,-225.8 121,-225.65 121.3,-225.35 121.45,-224.85 121.3,-224.25 121,-223.95 120.65,-223.8 120.2,-223.8 119.85,-223.95 Z M 126.65,-78.35 127,-77.85 128.55,-78 129.6,-77.45 130.55,-76.1 130.65,-75.6 131.35,-74.2 132.45,-73.2 132.85,-73.15 134.55,-72.4 138.25,-72.6 141.05,-73.5 141.7,-74.05 142.9,-76.3 144.25,-77.7 146.4,-78.1 146.55,-78.15 146.55,-78.25 145.4,-81.25 142.9,-83.05 141.55,-84.95 140.5,-86.85 144.75,-95.3 144.75,-98.5 145.75,-100.35 144.85,-109.05 144.6,-108.5 144,-108.15 143.6,-108.15 143.1,-108.4 142.8,-108.95 142.9,-109.65 143.15,-109.95 143.55,-110.15 144.3,-110.05 144.75,-109.55 144.5,-112 145.2,-123.85 144.7,-131.6 144.6,-131.8 144.8,-132.5 143.85,-136.2 142.35,-140.55 141.6,-140.9 141.3,-141.45 141.4,-142.15 141.65,-142.4 141.5,-142.9 140.8,-143.75 136.6,-145.9 134.2,-145.1 133.45,-144.4 133.05,-143.8 129.1,-133.1 129.45,-131 126.8,-110.2 126.75,-107.65 127.1,-106.95 131.75,-94.4 132,-89.25 131.1,-85.55 131.1,-85.1 130.35,-83.05 127.3,-80.3 126.85,-79.55 Z M 127.25,-224.2 127.4,-222.25 129,-218.75 131.15,-217.15 132.8,-216.95 135.25,-218 136.75,-219.5 137.35,-220.4 137.4,-221.8 137.95,-226.4 135.35,-229.35 133.75,-229.4 131.75,-230 129.75,-228.8 127.35,-224.65 Z M 127.8,-108.45 127.9,-109.15 128.15,-109.45 128.55,-109.65 129.3,-109.55 129.6,-109.3 129.8,-108.9 129.7,-108.15 129.45,-107.85 129,-107.65 128.6,-107.65 128.25,-107.8 128.05,-107.95 Z M 130.4,-193.45 130.75,-190.6 131.95,-187.65 132.8,-186.85 136.2,-186.9 136.35,-187.1 138.55,-188.05 139.1,-188.4 139.35,-188.95 139.5,-192.95 139.3,-195.05 137.5,-197.8 137.3,-197.95 136.6,-198 134.6,-198.1 132.3,-197.45 131.5,-196.5 Z M 130.95,-224.5 130.95,-225.1 131.1,-225.4 131.7,-225.8 132.15,-225.8 132.5,-225.65 132.8,-225.35 132.95,-224.85 132.8,-224.25 132.5,-223.95 132.15,-223.8 131.7,-223.8 131.35,-223.95 Z M 132.45,-192 132.45,-192.6 132.6,-192.9 133.2,-193.3 133.65,-193.3 134,-193.15 134.3,-192.85 134.45,-192.35 134.3,-191.75 134,-191.45 133.65,-191.3 133.2,-191.3 132.85,-191.45 Z M 141.3,-189.75 141.5,-189.35 142.8,-187.95 143.6,-185.9 145.7,-185 148,-185.5 151.65,-188.95 152,-189.15 153.3,-191.4 156.1,-192.05 157.15,-189.05 158.5,-189.85 160.15,-187.25 162.1,-185.5 165.25,-185.15 168.1,-188.1 168.3,-188.15 168.55,-193.25 168.4,-195.8 168.25,-195.95 166.75,-196.6 164.15,-198.05 163.35,-198.05 162.7,-198.2 161.2,-198.1 160.75,-200.1 161.75,-202.25 162.5,-206.1 162.8,-208.25 162.8,-208.65 161,-212.8 161.2,-215.4 164.3,-216.7 165.1,-217.5 166.5,-219.6 166.85,-222.85 166.85,-224.75 166.95,-225.5 166.85,-226.5 166.55,-227.15 164.75,-229.15 163,-230 161.65,-230.4 161.35,-230.4 158.35,-229.25 157.9,-228.55 156.5,-227.15 155.85,-227.15 155.3,-227.3 153.15,-226.95 149.95,-229.35 148.75,-230.4 148.5,-230.45 146.05,-229.5 145.45,-229.45 144.45,-228.55 144.45,-227.55 145.4,-217.1 145.65,-216.65 148.55,-215.3 148.5,-214.25 149.3,-214 148,-210.85 147.35,-208.35 147.35,-207.85 147.55,-205.85 148.45,-202.15 149.7,-200.4 149.55,-199.25 149.8,-198.3 148.85,-198.1 146.75,-197.95 145.5,-198.2 144.7,-197.75 144.1,-197.65 143.85,-197.45 142.35,-195.65 141.75,-194.5 141.5,-191.05 Z M 146.2,-191.6 146.3,-192.3 146.55,-192.6 147,-192.8 147.7,-192.7 148,-192.45 148.2,-192 148.1,-191.3 147.85,-191 147.4,-190.8 146.7,-190.9 146.4,-191.15 Z M 148.2,-224.6 148.3,-225.3 148.55,-225.6 149,-225.8 149.7,-225.7 150,-225.45 150.2,-225 150.1,-224.3 149.85,-224 149.4,-223.8 148.7,-223.9 148.4,-224.15 Z M 150.55,-78.1 151.4,-77.35 152.65,-77.05 153.25,-77.05 153.45,-77.2 153.5,-78.1 153.3,-79.6 153.2,-79.75 150.95,-80.05 150.7,-80.05 Z M 153.4,-105.45 157.85,-94.95 161.65,-102.2 161.15,-106.95 161.15,-108.05 161.75,-118.25 160.55,-136.35 159.55,-140.15 158.1,-140.1 157.55,-139.95 157.4,-139.75 155.35,-134.55 153.95,-123.6 Z M 159.7,-224.6 159.8,-225.3 160.05,-225.6 160.5,-225.8 161.2,-225.7 161.5,-225.45 161.7,-225 161.6,-224.3 161.35,-224 160.9,-223.8 160.2,-223.9 159.9,-224.15 Z M 161.2,-192.1 161.3,-192.8 161.55,-193.1 162,-193.3 162.7,-193.2 163,-192.95 163.2,-192.5 163.1,-191.8 162.85,-191.5 162.4,-191.3 161.7,-191.4 161.4,-191.65 Z M 163.85,-78.55 164.15,-77.2 164.6,-77.1 166.9,-78.15 167.5,-78.5 167.5,-78.6 166.35,-80.15 165.7,-80.25 164.6,-80.15 164.05,-79.85 Z M 170.35,-189.2 170.75,-188.8 172.35,-184.85 172.45,-184.65 172.7,-184.5 176.3,-182.9 176.8,-183 178.05,-183.7 180.25,-184 185.25,-182.2 186.6,-183.25 189,-184.25 191.15,-182.65 194.35,-183.15 195.15,-183.85 198.1,-187.4 198.25,-188.1 198.05,-190.2 198.2,-192.2 198.1,-195 197.55,-196.1 197.3,-196.35 195.75,-197.7 194.65,-198.2 194.55,-198.7 194.2,-199.3 194.75,-201.15 194.5,-204.8 194.7,-208.85 194,-214.65 193.8,-215.3 194.1,-215.55 196.3,-218.9 196.35,-223.2 196.5,-225.5 196.2,-227 195.5,-228.35 195.15,-228.75 194.85,-229.05 191.25,-230.85 190.65,-230.85 188.1,-229.85 186.05,-229.25 185.6,-228.75 184.05,-228.7 181.6,-228.25 181.2,-228.25 177.85,-230.85 174.8,-229.45 173.95,-229.2 173.75,-229 174.9,-215.5 174.95,-215.05 175.1,-215 174.9,-214.15 174.2,-208.1 174.1,-202.05 174.3,-199.95 174.25,-198.25 173.65,-198.1 173.4,-197.85 171.55,-195.65 170.75,-194.15 Z M 175.6,-191.55 175.6,-192.05 175.75,-192.4 176.1,-192.7 176.4,-192.8 176.8,-192.8 177.3,-192.55 177.6,-191.95 177.55,-191.45 177.35,-191.1 176.8,-190.8 176.1,-190.9 175.75,-191.2 Z M 177.6,-224.55 177.6,-225.05 177.75,-225.4 178.1,-225.7 178.4,-225.8 178.8,-225.8 179.3,-225.55 179.6,-224.95 179.55,-224.45 179.35,-224.1 178.8,-223.8 178.1,-223.9 177.75,-224.2 Z M 189.1,-224.55 189.1,-225.05 189.25,-225.4 189.6,-225.7 189.9,-225.8 190.3,-225.8 190.8,-225.55 191.1,-224.95 191.05,-224.45 190.85,-224.1 190.3,-223.8 189.6,-223.9 189.25,-224.2 Z M 190.6,-192.05 190.6,-192.55 190.75,-192.9 191.1,-193.2 191.4,-193.3 191.8,-193.3 192.3,-193.05 192.6,-192.45 192.55,-191.95 192.35,-191.6 191.8,-191.3 191.1,-191.4 190.75,-191.7 Z M 199.9,-188.1 201.9,-183.35 203.1,-182.85 207.95,-179.05 209.8,-179.3 214.05,-178.05 216.25,-177.2 216.5,-177.2 219.85,-179.9 220.3,-180.1 220.55,-180.05 220.75,-179.85 221.5,-180 226.15,-183.85 228.5,-186.65 228.75,-187.7 228.75,-188.25 228.4,-192.4 228.45,-194 227.9,-195.05 227.6,-195.9 225.85,-197.4 225.45,-197.9 225.45,-198.2 225.9,-199.4 226,-200.05 225.95,-200.75 226.5,-207.35 226.5,-208.45 226.25,-210.5 225.7,-213.8 225.15,-215.65 225.2,-215.95 226.35,-217.75 226.4,-221.25 226.65,-224.9 226.2,-227.3 225.45,-228.75 224.7,-229.4 221,-231.3 219.6,-231.25 215.85,-229.9 214.9,-229.8 213.6,-229.9 211.85,-229.85 210,-229.5 207.8,-231.2 207.5,-231.25 204.85,-230.05 204.4,-229.75 203.85,-229.25 203.25,-227.8 204.15,-216.2 204.5,-214.9 203.65,-212.25 203.1,-207.5 202.95,-199.8 203.4,-198.9 203.2,-197.65 202.6,-197.15 201.25,-195.55 200.35,-193.8 Z M 205.55,-191.6 205.55,-192 205.7,-192.35 205.85,-192.55 206.35,-192.8 207.05,-192.7 207.35,-192.45 207.55,-192.05 207.45,-191.3 207.2,-191 206.75,-190.8 206.35,-190.8 205.85,-191.05 Z M 207.55,-224.6 207.55,-225 207.8,-225.5 208.35,-225.8 209.05,-225.7 209.35,-225.45 209.55,-225.05 209.45,-224.3 209.2,-224 208.75,-223.8 208.35,-223.8 207.85,-224.05 Z M 219.05,-224.6 219.05,-225 219.2,-225.35 219.35,-225.55 219.85,-225.8 220.55,-225.7 220.85,-225.45 221.05,-225.05 220.95,-224.3 220.7,-224 220.25,-223.8 219.85,-223.8 219.5,-223.95 219.3,-224.1 Z M 220.55,-192.1 220.55,-192.5 220.7,-192.85 220.85,-193.05 221.35,-193.3 222.05,-193.2 222.35,-192.95 222.55,-192.55 222.45,-191.8 222.2,-191.5 221.75,-191.3 221.35,-191.3 220.85,-191.55 Z M 230.35,-186.7 231.5,-184 232.3,-182.9 233.05,-182.4 235.05,-180.2 239.55,-176.2 240.1,-174.3 240.65,-173.1 245.25,-173.15 248.55,-172.15 249.3,-172.75 251.95,-175.9 252.5,-179.25 258.2,-183.95 259.85,-185.85 260.25,-187.5 260.25,-188.15 259.95,-192.1 259.55,-193.8 258.9,-195.25 257.9,-196.1 257.55,-196.75 257.3,-196.95 257.05,-197.9 257.05,-198.2 257.25,-198.6 257.5,-200.85 258.5,-206.8 258.55,-208.4 257,-214.35 256.5,-215.25 257.4,-216.7 257.45,-219.55 257.8,-224 257.2,-227.5 256.8,-228.35 254.4,-230.35 251.75,-231.75 249.45,-231.65 248.25,-231.15 245.05,-230.8 241.8,-231 240.6,-231 239.6,-230.8 238.5,-231.7 238.35,-231.7 236.85,-231 235.05,-229.5 233.65,-226.1 234.3,-217.45 234.95,-214.9 234.7,-213.85 233.3,-209.55 232.95,-206.6 232.9,-202.1 233.8,-200.3 233.9,-199.7 233.5,-196.95 232.7,-196.3 231.95,-195.45 231.65,-194.75 231.35,-194.4 230.7,-192.65 230.6,-192.3 230.65,-192 230.4,-191.65 230.6,-189.2 Z M 236.5,-191.6 236.5,-192 236.75,-192.5 237.3,-192.8 238,-192.7 238.3,-192.45 238.5,-192.05 238.4,-191.3 238.15,-191 237.7,-190.8 237.3,-190.8 236.8,-191.05 Z M 238.5,-224.6 238.5,-225 238.75,-225.5 239.3,-225.8 240,-225.7 240.3,-225.45 240.5,-225.05 240.4,-224.3 240.15,-224 239.7,-223.8 239.3,-223.8 238.95,-223.95 238.75,-224.1 Z M 250,-224.6 250,-225 250.25,-225.5 250.8,-225.8 251.5,-225.7 251.8,-225.45 252,-225.05 251.9,-224.3 251.65,-224 251.2,-223.8 250.8,-223.8 250.3,-224.05 Z M 251.5,-192.1 251.5,-192.5 251.75,-193 252.3,-193.3 253,-193.2 253.3,-192.95 253.5,-192.55 253.4,-191.8 253.15,-191.5 252.7,-191.3 252.3,-191.3 251.8,-191.55 Z M 261.95,-185.25 263.85,-182.65 265.65,-181.4 268.7,-178 268.75,-177.2 270.85,-169.6 270.8,-169.2 271.05,-169 271.05,-168.2 271.45,-166.9 270.85,-159.6 271.6,-158.15 272.1,-157.45 272.45,-157.2 272.45,-156.95 272.8,-156.75 273.7,-155.25 274.75,-149.1 275.3,-147.9 275.95,-147.3 278.3,-147.2 278.6,-147.55 279.55,-148.2 279.7,-148.6 280.1,-149.15 280.25,-150.95 280.25,-153.9 281.1,-155.35 281.15,-155.65 281.45,-155.85 281.55,-156.15 282.6,-157.65 283.85,-160.05 283.55,-165.2 283.25,-167.1 283.65,-168.55 283.55,-168.95 283.9,-169.25 284.55,-171.15 284.65,-173.65 285.05,-175.6 285.5,-179.25 291.8,-184.5 292.25,-185.05 292.8,-187.4 292.8,-187.85 292.6,-189.55 291.85,-192.65 291.35,-194.25 291.2,-194.6 289.7,-195.95 289.65,-196.75 289.4,-197.35 289.95,-201.65 290.55,-205.1 290.65,-209.9 289.75,-213.3 288.95,-214.75 289.5,-215.65 289.5,-217.35 289.95,-223.25 289.9,-224 289.15,-228 284.95,-231.45 283.55,-232.2 280.9,-232.05 280.4,-232.3 280,-232.3 277.35,-231.95 276.85,-232.2 276.55,-232.2 276.2,-232.1 275.9,-231.75 270.25,-232.15 267.25,-229.7 265.05,-224.35 265.5,-218.6 266.45,-214.55 264,-206.85 263.85,-205.85 263.85,-204.5 265.5,-200.95 264.95,-197.3 264.95,-196.1 263.6,-194.8 263.2,-194.1 262.3,-190.75 262.1,-189.4 Z M 268.5,-191.55 268.6,-192.3 268.85,-192.6 269.3,-192.8 269.7,-192.8 270.05,-192.65 270.25,-192.5 270.5,-192 270.5,-191.6 270.25,-191.1 269.7,-190.8 269,-190.9 268.7,-191.15 Z M 270.5,-224.55 270.6,-225.3 270.85,-225.6 271.3,-225.8 271.7,-225.8 272.05,-225.65 272.25,-225.5 272.5,-225 272.5,-224.6 272.35,-224.25 272.2,-224.05 271.7,-223.8 271,-223.9 270.7,-224.15 Z M 282,-224.55 282.1,-225.3 282.35,-225.6 282.8,-225.8 283.2,-225.8 283.55,-225.65 283.75,-225.5 284,-225 284,-224.6 283.85,-224.25 283.7,-224.05 283.2,-223.8 282.5,-223.9 282.2,-224.15 Z M 283.5,-192.05 283.6,-192.8 283.85,-193.1 284.3,-193.3 284.7,-193.3 285.05,-193.15 285.25,-193 285.5,-192.5 285.5,-192.1 285.25,-191.6 284.7,-191.3 284,-191.4 283.7,-191.65 Z "
       id="path2" />
  </g>
  <text
     xml:space="preserve"
     style="font-style:normal;font-variant:normal;font-weight:normal;font-stretch:normal;font-size:11.28888893px;line-height:125%;font-family:Verdana;-inkscape-font-specification:Verdana;letter-spacing:0px;word-spacing:0px;fill:#000000;fill-opacity:1;stroke:none;stroke-width:0.26458332px;stroke-linecap:butt;stroke-linejoin:miter;stroke-opacity:1"
     x="10.240204"
     y="-206.51988"
     id="text820"><tspan
       sodipodi:role="line"
       id="tspan818"
       x="10.240204"
       y="-196.22069"
       style="stroke-width:0.26458332px"></tspan></text>
  <g
     inkscape:groupmode="layer"
     id="layer2"
     inkscape:label="engrave"
     style="display:inline">
    <text
       xml:space="preserve"
       style="font-style:normal;font-variant:normal;font-weight:normal;font-stretch:normal;font-size:11.28888893px;line-height:125%;font-family:Verdana;-inkscape-font-specification:Verdana;letter-spacing:0px;word-spacing:0px;fill:none;fill-opacity:1;stroke:#0000ff;stroke-width:0.26458332px;stroke-linecap:butt;stroke-linejoin:miter;stroke-opacity:1"
       x="11.275096"
       y="-206.19759"
       id="text825"><tspan
         sodipodi:role="line"
         id="tspan823"
         x="11.275096"
         y="-206.19759"
         style="fill:none;stroke:#0000ff;stroke-width:0.26458332px;stroke-opacity:1">1</tspan><tspan
         sodipodi:role="line"
         x="11.275096"
         y="-192.08647"
         style="fill:none;stroke:#0000ff;stroke-width:0.26458332px;stroke-opacity:1"
         id="tspan827" /></text>
    <text
       xml:space="preserve"
       style="font-style:normal;font-variant:normal;font-weight:normal;font-stretch:normal;font-size:11.28888893px;line-height:125%;font-family:Verdana;-inkscape-font-specification:Verdana;letter-spacing:0px;word-spacing:0px;fill:none;fill-opacity:1;stroke:#0000ff;stroke-width:0.26458332px;stroke-linecap:butt;stroke-linejoin:miter;stroke-opacity:1"
       x="38.182308"
       y="-206.12593"
       id="text831"><tspan
         sodipodi:role="line"
         id="tspan829"
         x="38.182308"
         y="-206.12593"
         style="fill:none;stroke:#0000ff;stroke-width:0.26458332px;stroke-opacity:1">2</tspan></text>
    <text
       xml:space="preserve"
       style="font-style:normal;font-variant:normal;font-weight:normal;font-stretch:normal;font-size:11.28888893px;line-height:125%;font-family:Verdana;-inkscape-font-specification:Verdana;letter-spacing:0px;word-spacing:0px;fill:none;fill-opacity:1;stroke:#0000ff;stroke-width:0.26458332px;stroke-linecap:butt;stroke-linejoin:miter;stroke-opacity:1"
       x="65.089516"
       y="-206.21136"
       id="text835"><tspan
         sodipodi:role="line"
         id="tspan833"
         x="65.089516"
         y="-206.21136"
         style="fill:none;stroke:#0000ff;stroke-width:0.26458332px;stroke-opacity:1">3</tspan></text>
    <text
       xml:space="preserve"
       style="font-style:normal;font-variant:normal;font-weight:normal;font-stretch:normal;font-size:11.28888893px;line-height:125%;font-family:Verdana;-inkscape-font-specification:Verdana;letter-spacing:0px;word-spacing:0px;fill:none;fill-opacity:1;stroke:#0000ff;stroke-width:0.26458332px;stroke-linecap:butt;stroke-linejoin:miter;stroke-opacity:1"
       x="93.549065"
       y="-206.21136"
       id="text839"><tspan
         sodipodi:role="line"
         id="tspan837"
         x="93.549065"
         y="-206.21136"
         style="fill:none;stroke:#0000ff;stroke-width:0.26458332px;stroke-opacity:1">4</tspan></text>
    <text
       xml:space="preserve"
       style="font-style:normal;font-variant:normal;font-weight:normal;font-stretch:normal;font-size:11.28888893px;line-height:125%;font-family:Verdana;-inkscape-font-specification:Verdana;letter-spacing:0px;word-spacing:0px;fill:none;fill-opacity:1;stroke:#0000ff;stroke-width:0.26458332px;stroke-linecap:butt;stroke-linejoin:miter;stroke-opacity:1"
       x="122.26733"
       y="-206.29681"
       id="text843"><tspan
         sodipodi:role="line"
         id="tspan841"
         x="122.26733"
         y="-206.29681"
         style="fill:none;stroke:#0000ff;stroke-width:0.26458332px;stroke-opacity:1">5</tspan></text>
    <text
       xml:space="preserve"
       style="font-style:normal;font-variant:normal;font-weight:normal;font-stretch:normal;font-size:11.28888893px;line-height:125%;font-family:Verdana;-inkscape-font-specification:Verdana;letter-spacing:0px;word-spacing:0px;fill:none;fill-opacity:1;stroke:#0000ff;stroke-width:0.26458332px;stroke-linecap:butt;stroke-linejoin:miter;stroke-opacity:1"
       x="150.72688"
       y="-206.21964"
       id="text847"><tspan
         sodipodi:role="line"
         id="tspan845"
         x="150.72688"
         y="-206.21964"
         style="fill:none;stroke:#0000ff;stroke-width:0.26458332px;stroke-opacity:1">6</tspan></text>
    <text
       xml:space="preserve"
       style="font-style:normal;font-variant:normal;font-weight:normal;font-stretch:normal;font-size:11.28888893px;line-height:125%;font-family:Verdana;-inkscape-font-specification:Verdana;letter-spacing:0px;word-spacing:0px;fill:none;fill-opacity:1;stroke:#0000ff;stroke-width:0.26458332px;stroke-linecap:butt;stroke-linejoin:miter;stroke-opacity:1"
       x="178.41028"
       y="-206.21136"
       id="text851"><tspan
         sodipodi:role="line"
         id="tspan849"
         x="178.41028"
         y="-206.21136"
         style="fill:none;stroke:#0000ff;stroke-width:0.26458332px;stroke-opacity:1">7</tspan></text>
    <text
       xml:space="preserve"
       style="font-style:normal;font-variant:normal;font-weight:normal;font-stretch:normal;font-size:11.28888893px;line-height:125%;font-family:Verdana;-inkscape-font-specification:Verdana;letter-spacing:0px;word-spacing:0px;fill:none;fill-opacity:1;stroke:#0000ff;stroke-width:0.26458332px;stroke-linecap:butt;stroke-linejoin:miter;stroke-opacity:1"
       x="209.45705"
       y="-206.21136"
       id="text855"><tspan
         sodipodi:role="line"
         id="tspan853"
         x="209.45705"
         y="-206.21136"
         style="fill:none;stroke:#0000ff;stroke-width:0.26458332px;stroke-opacity:1">8</tspan></text>
    <text
       xml:space="preserve"
       style="font-style:normal;font-variant:normal;font-weight:normal;font-stretch:normal;font-size:11.28888893px;line-height:125%;font-family:Verdana;-inkscape-font-specification:Verdana;letter-spacing:0px;word-spacing:0px;fill:none;fill-opacity:1;stroke:#0000ff;stroke-width:0.26458332px;stroke-linecap:butt;stroke-linejoin:miter;stroke-opacity:1"
       x="238.43405"
       y="-206.20862"
       id="text859"><tspan
         sodipodi:role="line"
         id="tspan857"
         x="238.43405"
         y="-206.20862"
         style="fill:none;stroke:#0000ff;stroke-width:0.26458332px;stroke-opacity:1">9</tspan></text>
    <text
       xml:space="preserve"
       style="font-style:normal;font-variant:normal;font-weight:normal;font-stretch:normal;font-size:11.28888893px;line-height:125%;font-family:Verdana;-inkscape-font-specification:Verdana;letter-spacing:0px;word-spacing:0px;fill:none;fill-opacity:1;stroke:#0000ff;stroke-width:0.26458332px;stroke-linecap:butt;stroke-linejoin:miter;stroke-opacity:1"
       x="269.73953"
       y="-206.21413"
       id="text863"><tspan
         sodipodi:role="line"
         id="tspan861"
         x="269.73953"
         y="-206.21413"
         style="fill:none;stroke:#0000ff;stroke-width:0.26458332px;stroke-opacity:1">10</tspan></text>
    <text
       xml:space="preserve"
       style="font-style:normal;font-variant:normal;font-weight:normal;font-stretch:normal;font-size:11.28888893px;line-height:125%;font-family:Verdana;-inkscape-font-specification:Verdana;letter-spacing:0px;word-spacing:0px;fill:none;fill-opacity:1;stroke:#0000ff;stroke-width:0.26458332px;stroke-linecap:butt;stroke-linejoin:miter;stroke-opacity:1;"
       x="9.2053108"
       y="-116.2255"
       id="text867"><tspan
         sodipodi:role="line"
         id="tspan865"
         x="9.2053108"
         y="-116.2255"
         style="stroke-width:0.26458332px;fill:none;stroke:#0000ff;stroke-opacity:1;">11</tspan></text>
    <text
       xml:space="preserve"
       style="font-style:normal;font-variant:normal;font-weight:normal;font-stretch:normal;font-size:11.28888893px;line-height:125%;font-family:Verdana;-inkscape-font-specification:Verdana;letter-spacing:0px;word-spacing:0px;fill:none;fill-opacity:1;stroke:#0000ff;stroke-width:0.26458332px;stroke-linecap:butt;stroke-linejoin:miter;stroke-opacity:1;"
       x="45.167831"
       y="-116.15384"
       id="text871"><tspan
         sodipodi:role="line"
         id="tspan869"
         x="45.167831"
         y="-116.15384"
         style="stroke-width:0.26458332px;fill:none;stroke:#0000ff;stroke-opacity:1;">12</tspan></text>
    <text
       xml:space="preserve"
       style="font-style:normal;font-variant:normal;font-weight:normal;font-stretch:normal;font-size:11.28888893px;line-height:125%;font-family:Verdana;-inkscape-font-specification:Verdana;letter-spacing:0px;word-spacing:0px;fill:none;fill-opacity:1;stroke:#0000ff;stroke-width:0.26458332px;stroke-linecap:butt;stroke-linejoin:miter;stroke-opacity:1;"
       x="76.473335"
       y="-116.23928"
       id="text875"><tspan
         sodipodi:role="line"
         id="tspan873"
         x="76.473335"
         y="-116.23928"
         style="stroke-width:0.26458332px;fill:none;stroke:#0000ff;stroke-opacity:1;">13</tspan></text>
    <text
       xml:space="preserve"
       style="font-style:normal;font-variant:normal;font-weight:normal;font-stretch:normal;font-size:11.28888893px;line-height:125%;font-family:Verdana;-inkscape-font-specification:Verdana;letter-spacing:0px;word-spacing:0px;fill:none;fill-opacity:1;stroke:#0000ff;stroke-width:0.26458332px;stroke-linecap:butt;stroke-linejoin:miter;stroke-opacity:1"
       x="103.8511"
       y="-116.2255"
       id="text879"><tspan
         sodipodi:role="line"
         id="tspan877"
         x="103.8511"
         y="-116.2255"
         style="fill:none;stroke:#0000ff;stroke-width:0.26458332px;stroke-opacity:1">14</tspan></text>
    <text
       xml:space="preserve"
       style="font-style:normal;font-variant:normal;font-weight:normal;font-stretch:normal;font-size:11.28888893px;line-height:125%;font-family:Verdana;-inkscape-font-specification:Verdana;letter-spacing:0px;word-spacing:0px;fill:none;fill-opacity:1;stroke:#0000ff;stroke-width:0.26458332px;stroke-linecap:butt;stroke-linejoin:miter;stroke-opacity:1"
       x="129.47644"
       y="-116.31094"
       id="text883"><tspan
         sodipodi:role="line"
         id="tspan881"
         x="129.47644"
         y="-116.31094"
         style="fill:none;stroke:#0000ff;stroke-width:0.26458332px;stroke-opacity:1">15</tspan></text>
  </g>
</svg>
