<?xml version="1.0" encoding="UTF-8" standalone="no"?>
<!-- Created with LibSL -->

<svg
   xmlns:dc="http://purl.org/dc/elements/1.1/"
   xmlns:cc="http://creativecommons.org/ns#"
   xmlns:rdf="http://www.w3.org/1999/02/22-rdf-syntax-ns#"
   xmlns:svg="http://www.w3.org/2000/svg"
   xmlns="http://www.w3.org/2000/svg"
   xmlns:sodipodi="http://sodipodi.sourceforge.net/DTD/sodipodi-0.dtd"
   xmlns:inkscape="http://www.inkscape.org/namespaces/inkscape"
   version="1.1"
   viewBox="0.25 -296.4 284.16866 193.05025"
   width="284.16867mm"
   height="193.05025mm"
   id="svg5"
   sodipodi:docname="unicorn-laser-3mm.svg"
   inkscape:version="0.92.2 (5c3e80d, 2017-08-06)">
  <metadata
     id="metadata11">
    <rdf:RDF>
      <cc:Work
         rdf:about="">
        <dc:format>image/svg+xml</dc:format>
        <dc:type
           rdf:resource="http://purl.org/dc/dcmitype/StillImage" />
        <dc:title />
      </cc:Work>
    </rdf:RDF>
  </metadata>
  <defs
     id="defs9" />
  <sodipodi:namedview
     pagecolor="#ffffff"
     bordercolor="#666666"
     borderopacity="1"
     objecttolerance="10"
     gridtolerance="10"
     guidetolerance="10"
     inkscape:pageopacity="0"
     inkscape:pageshadow="2"
     inkscape:window-width="1920"
     inkscape:window-height="961"
     id="namedview7"
     showgrid="false"
     inkscape:zoom="0.95149206"
     inkscape:cx="577.69993"
     inkscape:cy="395.54891"
     inkscape:window-x="0"
     inkscape:window-y="49"
     inkscape:window-maximized="1"
     inkscape:current-layer="svg5"
     showguides="false"
     fit-margin-top="1"
     fit-margin-left="1"
     fit-margin-right="1"
     fit-margin-bottom="1"
     inkscape:document-units="mm" />
  <path
     style="fill:none;fill-rule:nonzero;stroke:#ff0000;stroke-width:0.28600001;stroke-linecap:butt;stroke-linejoin:miter;stroke-miterlimit:4;stroke-dasharray:none;stroke-opacity:1"
     d="m 3.7788431,-260.84655 1.75,-1.6 2.95,-6.05 0.1000001,-1.75 -0.7500001,-0.25 -0.35,-0.35 -0.25,-0.55 v -0.7 l 0.15,-0.4 0.45,-0.5 0.4,-0.2 0.5000001,-0.05 0.05,-0.25 -5.0000001,-16.35 z"
     id="path893"
     inkscape:connector-curvature="0" />
  <g
     id="g905"
     transform="translate(-13.671156,-7.4140221)">
    <path
       id="path891"
       d="m 17.45,-207.95 4.45,-4.15 2,-4.1 0.2,-3.55 -3.45,-11.25 0.5,-6.7 -3.7,-11.8 z"
       style="fill:none;fill-rule:nonzero;stroke:#ff0000;stroke-width:0.28600001;stroke-linecap:butt;stroke-linejoin:miter;stroke-miterlimit:4;stroke-dasharray:none;stroke-opacity:1"
       inkscape:connector-curvature="0" />
    <path
       id="path889"
       d="m 20.9,-219.55 v -0.7 l 0.2,-0.5 0.4,-0.4 0.6,-0.25 h 0.55 l 0.6,0.25 0.4,0.4 0.25,0.8 -0.05,0.45 -0.2,0.45 -0.55,0.5 -0.45,0.15 H 22.1 l -0.6,-0.25 -0.4,-0.4 z"
       style="fill:none;fill-rule:nonzero;stroke:#ff0000;stroke-width:0.28600001;stroke-linecap:butt;stroke-linejoin:miter;stroke-miterlimit:4;stroke-dasharray:none;stroke-opacity:1"
       inkscape:connector-curvature="0" />
  </g>
  <g
     id="g909"
     transform="translate(-9.7171824,-31.255982)">
    <path
       inkscape:connector-curvature="0"
       id="path887"
       d="m 23.890481,-206.3049 7.05,-6.5 1.15,-2.35 0.1,-2.05 -1.95,-6.25 0.95,-12.4 0.1,-0.55 0.3,-0.45 -1,-1.5 -6.7,-21.7 z"
       style="fill:none;fill-rule:nonzero;stroke:#ff0000;stroke-width:0.28600001;stroke-linecap:butt;stroke-linejoin:miter;stroke-miterlimit:4;stroke-dasharray:none;stroke-opacity:1" />
    <path
       inkscape:connector-curvature="0"
       id="path885"
       d="m 27.290481,-219.1549 0.1,-0.65 0.3,-0.5 0.4,-0.3 0.45,-0.15 h 0.55 l 0.6,0.25 0.45,0.5 0.15,0.4 v 0.7 l -0.15,0.4 -0.45,0.5 -0.6,0.25 -0.75,-0.05 -0.6,-0.35 -0.35,-0.55 z"
       style="fill:none;fill-rule:nonzero;stroke:#ff0000;stroke-width:0.28600001;stroke-linecap:butt;stroke-linejoin:miter;stroke-miterlimit:4;stroke-dasharray:none;stroke-opacity:1" />
  </g>
  <g
     id="g913"
     transform="translate(-7.7509165,-13.166333)">
    <path
       inkscape:connector-curvature="0"
       id="path883"
       d="m 34.240481,-205.2049 9.55,-8.85 0.45,-0.7 v -0.5 l -0.4,-1.15 0.15,-2.45 2.1,-16.75 10,-15.35 -8.8,-13.5 17.6,-14.3 -30.65,10.05 z"
       style="fill:none;fill-rule:nonzero;stroke:#ff0000;stroke-width:0.28600001;stroke-linecap:butt;stroke-linejoin:miter;stroke-miterlimit:4;stroke-dasharray:none;stroke-opacity:1" />
    <path
       inkscape:connector-curvature="0"
       id="path881"
       d="m 37.690481,-219.0549 v -0.4 l 0.2,-0.6 0.35,-0.4 0.7,-0.3 0.7,0.05 0.5,0.25 0.35,0.4 0.2,0.5 v 0.6 l -0.3,0.65 -0.4,0.35 -0.55,0.2 h -0.5 l -0.7,-0.3 -0.35,-0.4 z"
       style="fill:none;fill-rule:nonzero;stroke:#ff0000;stroke-width:0.28600001;stroke-linecap:butt;stroke-linejoin:miter;stroke-miterlimit:4;stroke-dasharray:none;stroke-opacity:1" />
  </g>
  <g
     id="g958"
     transform="translate(200.67329,-76.873357)">
    <path
       inkscape:connector-curvature="0"
       id="path901"
       d="m -1.1095194,-34.254899 8.95,-11.45 2.5000004,-2.55 1.25,-3.55 7.5,-28 3.15,-1.95 11.5,-9.35 0.45,0.3 8.95,8.65 6.15,1.8 8.1,-10.5 1.8,-9.350001 -1.7,-4.25 -1.95,-1.8 -6.2,-5.15 0.1,-0.4 2.85,-6.1 v -0.1 h -0.55 l -6.8,0.6 -0.6,4.1 -9.15,3.2 -8.15,3.45 -11.6,2.25 -15.60000039,5.650001 -0.95000001,0.45 z"
       style="fill:none;fill-rule:nonzero;stroke:#ff0000;stroke-width:0.28600001;stroke-linecap:butt;stroke-linejoin:miter;stroke-miterlimit:4;stroke-dasharray:none;stroke-opacity:1" />
    <path
       inkscape:connector-curvature="0"
       id="path897"
       d="m 2.3404806,-48.054899 v -0.55 l 0.25,-0.6 0.5,-0.45 0.4,-0.15 h 0.7 l 0.4,0.15 0.5,0.45 0.25,0.6 -0.05,0.75 -0.3,0.55 -0.4,0.3 -0.6,0.2 -0.7,-0.1 -0.5,-0.3 -0.3,-0.4 z"
       style="fill:none;fill-rule:nonzero;stroke:#ff0000;stroke-width:0.28600001;stroke-linecap:butt;stroke-linejoin:miter;stroke-miterlimit:4;stroke-dasharray:none;stroke-opacity:1" />
    <path
       inkscape:connector-curvature="0"
       id="path879"
       d="m 47.340481,-100.0549 v -0.55 l 0.25,-0.6 0.5,-0.45 0.4,-0.15 h 0.7 l 0.4,0.15 0.5,0.45 0.25,0.6 -0.05,0.750001 -0.3,0.55 -0.5,0.35 -0.5,0.15 -0.7,-0.1 -0.5,-0.3 -0.3,-0.4 z"
       style="fill:none;fill-rule:nonzero;stroke:#ff0000;stroke-width:0.28600001;stroke-linecap:butt;stroke-linejoin:miter;stroke-miterlimit:4;stroke-dasharray:none;stroke-opacity:1" />
  </g>
  <g
     id="g937"
     transform="rotate(-23.705621,36.131638,-188.96759)">
    <path
       inkscape:connector-curvature="0"
       id="path899"
       d="m -1.1095194,-114.3049 6.4,-5.2 7.8500004,-7.5 2.85,-6.15 4.9,-16.35 8.9,-5.8 8.9,-9.65 6.55,3.7 6.9,3.5 5.75,4.95 7.6,5.85 4.6,0.25 3.2,0.3 4.35,-9.15 0.8,-2.3 0,-0.25 -3.1,-5.2 -11.15,-15.35 -4.8,-15.1 c 10.861432,-12.9751 23.730069,-29.71337 -6.65,-4.55 l -2.9,-0.75 -7.5,-0.5 -17.75,0.35 -7.65,1.9 -18.0000004,6.7 -0.05,6.45 32.3000004,-11.8 0.15,0 1.3,3.6 0,0.1 -0.25,0.1 -33.5000004,12.15 z"
       style="fill:none;fill-rule:nonzero;stroke:#ff0000;stroke-width:0.28600001;stroke-linecap:butt;stroke-linejoin:miter;stroke-miterlimit:4;stroke-dasharray:none;stroke-opacity:1"
       sodipodi:nodetypes="ccccccccccccccccccccccccccccccccc" />
    <path
       inkscape:connector-curvature="0"
       id="path895"
       d="m 2.3404806,-131.4049 0.05,-0.7 0.25,-0.5 0.4,-0.35 0.55,-0.2 0.7,0.05 0.5,0.25 0.35,0.4 0.2,0.55 v 0.5 l -0.3,0.7 -0.4,0.35 -0.5,0.2 h -0.6 l -0.65,-0.3 -0.35,-0.4 z"
       style="fill:none;fill-rule:nonzero;stroke:#ff0000;stroke-width:0.28600001;stroke-linecap:butt;stroke-linejoin:miter;stroke-miterlimit:4;stroke-dasharray:none;stroke-opacity:1" />
    <path
       inkscape:connector-curvature="0"
       id="path877"
       d="m 47.340481,-183.4049 v -0.5 l 0.3,-0.7 0.4,-0.35 0.55,-0.2 h 0.5 l 0.7,0.3 0.35,0.4 0.2,0.55 -0.05,0.7 -0.25,0.5 -0.4,0.35 -0.5,0.2 h -0.6 l -0.65,-0.3 -0.35,-0.4 z"
       style="fill:none;fill-rule:nonzero;stroke:#ff0000;stroke-width:0.28600001;stroke-linecap:butt;stroke-linejoin:miter;stroke-miterlimit:4;stroke-dasharray:none;stroke-opacity:1" />
  </g>
  <g
     id="g962"
     transform="translate(206.17884,-110.29988)">
    <path
       inkscape:connector-curvature="0"
       id="path875"
       d="m 61.340481,-35.554899 5.55,-7 3.95,-5.65 0.2,-0.9 -0.05,-0.35 -0.3,-1.1 -1.15,-2.6 -0.05,-0.45 7.05,-24.95 -8.75,-7.1 -0.25,-0.35 0.9,-2.5 8.7,-8.4 -15.8,7 z"
       style="fill:none;fill-rule:nonzero;stroke:#ff0000;stroke-width:0.28600001;stroke-linecap:butt;stroke-linejoin:miter;stroke-miterlimit:4;stroke-dasharray:none;stroke-opacity:1" />
    <path
       inkscape:connector-curvature="0"
       id="path873"
       d="m 64.790481,-48.104899 0.05,-0.65 0.25,-0.5 0.45,-0.4 0.4,-0.15 h 0.7 l 0.4,0.15 0.5,0.45 0.25,0.6 v 0.6 l -0.2,0.5 -0.6,0.55 -0.55,0.15 -0.55,-0.05 -0.45,-0.2 -0.4,-0.4 z"
       style="fill:none;fill-rule:nonzero;stroke:#ff0000;stroke-width:0.28600001;stroke-linecap:butt;stroke-linejoin:miter;stroke-miterlimit:4;stroke-dasharray:none;stroke-opacity:1" />
  </g>
  <g
     id="g917"
     transform="translate(-35.342582,27.133667)">
    <path
       inkscape:connector-curvature="0"
       id="path871"
       d="m 72.640481,-259.1549 3.9,3.75 14.1,5.4 3.85,-5.8 0.15,-17.6 -1.75,-3.35 -1.2,-1.1 -10.55,-4.35 -3.35,4 z"
       style="fill:none;fill-rule:nonzero;stroke:#ff0000;stroke-width:0.28600001;stroke-linecap:butt;stroke-linejoin:miter;stroke-miterlimit:4;stroke-dasharray:none;stroke-opacity:1" />
    <path
       inkscape:connector-curvature="0"
       id="path865"
       d="m 82.690481,-271.0549 v -0.4 l 0.2,-0.6 0.35,-0.4 0.7,-0.3 h 0.5 l 0.7,0.3 0.35,0.4 0.2,0.5 v 0.6 l -0.3,0.65 -0.4,0.35 -0.55,0.2 h -0.5 l -0.7,-0.3 -0.35,-0.4 z"
       style="fill:none;fill-rule:nonzero;stroke:#ff0000;stroke-width:0.28600001;stroke-linecap:butt;stroke-linejoin:miter;stroke-miterlimit:4;stroke-dasharray:none;stroke-opacity:1" />
  </g>
  <path
     style="fill:none;fill-rule:nonzero;stroke:#ff0000;stroke-width:0.28600001;stroke-linecap:butt;stroke-linejoin:miter;stroke-miterlimit:4;stroke-dasharray:none;stroke-opacity:1"
     d="m 197.41516,-190.9703 6.25,0.3 8.9,3.2 0.55,0.1 -7.25,-6.05 0.1,-0.4 4.45,-9.65 -3.8,0.35 -1.45,9.4 z"
     id="path857"
     inkscape:connector-curvature="0" />
  <g
     id="g966"
     transform="translate(60.675146,-80.019383)">
    <path
       inkscape:connector-curvature="0"
       id="path855"
       d="m 119.54048,-37.254899 7.1,-10 0.55,-2.85 -0.85,-3.25 -3.15,-7.35 v -0.35 l 3.2,-11.35 -6.85,-5.5 z"
       style="fill:none;fill-rule:nonzero;stroke:#ff0000;stroke-width:0.28600001;stroke-linecap:butt;stroke-linejoin:miter;stroke-miterlimit:4;stroke-dasharray:none;stroke-opacity:1" />
    <path
       inkscape:connector-curvature="0"
       id="path853"
       d="m 122.99048,-47.954899 v -0.7 l 0.2,-0.5 0.45,-0.45 0.5,-0.2 h 0.7 l 0.6,0.3 0.35,0.4 0.2,0.6 -0.05,0.6 -0.2,0.45 -0.5,0.45 -0.6,0.2 -0.55,-0.05 -0.55,-0.25 -0.35,-0.4 z"
       style="fill:none;fill-rule:nonzero;stroke:#ff0000;stroke-width:0.28600001;stroke-linecap:butt;stroke-linejoin:miter;stroke-miterlimit:4;stroke-dasharray:none;stroke-opacity:1" />
  </g>
  <g
     id="g932"
     transform="rotate(157.61309,98.274525,-156.66082)">
    <path
       inkscape:connector-curvature="0"
       id="path867"
       d="m 80.540481,-114.7049 13.4,-10.9 1.55,-1.55 1.3,-3.65 6.099999,-20.35 13.65,-8.9 4.1,-4.45 h 0.15 l 4.05,2.3 8.8,4.45 1.4,1.25 7.55,5.8 3.9,2.5 6.85,1.5 1.65,0.1 0.6,-1.3 1.55,-10.2 v -0.5 l -0.95,-5.2 -10.6,-14.65 -2.8,-8.85 -2.7,-6.7 -2.45,-2.25 -3.6,-1.5 -4.8,-1.2 -5.25,-0.35 -16.2,0.3 -3.9,1.6 -6.599999,1.25 -16.7,5.95 z"
       style="fill:none;fill-rule:nonzero;stroke:#ff0000;stroke-width:0.28600001;stroke-linecap:butt;stroke-linejoin:miter;stroke-miterlimit:4;stroke-dasharray:none;stroke-opacity:1" />
    <path
       inkscape:connector-curvature="0"
       id="path863"
       d="m 83.990481,-131.3049 v -0.7 l 0.25,-0.55 0.45,-0.4 0.55,-0.2 0.7,0.05 0.4,0.2 0.4,0.4 0.25,0.7 -0.05,0.55 -0.3,0.6 -0.35,0.3 -0.55,0.2 h -0.55 l -0.45,-0.15 -0.5,-0.45 z"
       style="fill:none;fill-rule:nonzero;stroke:#ff0000;stroke-width:0.28600001;stroke-linecap:butt;stroke-linejoin:miter;stroke-miterlimit:4;stroke-dasharray:none;stroke-opacity:1" />
    <path
       inkscape:connector-curvature="0"
       id="path851"
       d="m 128.99048,-183.3049 v -0.7 l 0.25,-0.55 0.45,-0.4 0.55,-0.2 0.7,0.05 0.4,0.2 0.4,0.4 0.25,0.7 -0.05,0.55 -0.3,0.6 -0.35,0.3 -0.55,0.2 h -0.55 l -0.45,-0.15 -0.5,-0.45 z"
       style="fill:none;fill-rule:nonzero;stroke:#ff0000;stroke-width:0.28600001;stroke-linecap:butt;stroke-linejoin:miter;stroke-miterlimit:4;stroke-dasharray:none;stroke-opacity:1" />
  </g>
  <g
     id="g922"
     transform="rotate(-4.8770292,134.30153,176.21608)">
    <path
       inkscape:connector-curvature="0"
       id="path861"
       d="m 96.690481,-204.2049 11.199999,-10.45 3.55,-7.7 1.55,-12.6 14.75,-22.7 3.3,-2.5 6.05,5.85 9.5,3.6 7.95,3.9 4.8,3.55 6.25,4 h 0.1 l 0.05,-0.2 0.5,-7.1 -6.35,-10 0.15,-13.3 -4.5,-8.55 -2.75,-2.35 -9.85,-4.05 0.45,-0.6 6.5,-6.75 -6,0.8 -3.85,5.9 -3.85,0.8 -11.75,2.95 -27.749999,8.15 z"
       style="fill:none;fill-rule:nonzero;stroke:#ff0000;stroke-width:0.28600001;stroke-linecap:butt;stroke-linejoin:miter;stroke-miterlimit:4;stroke-dasharray:none;stroke-opacity:1" />
    <path
       inkscape:connector-curvature="0"
       id="path859"
       d="m 100.14048,-218.9549 v -0.6 l 0.25,-0.6 0.45,-0.4 0.55,-0.2 h 0.5 l 0.55,0.2 0.55,0.6 0.15,0.5 -0.05,0.65 -0.3,0.55 -0.35,0.3 -0.55,0.2 -0.75,-0.05 -0.45,-0.25 -0.3,-0.3 z"
       style="fill:none;fill-rule:nonzero;stroke:#ff0000;stroke-width:0.28600001;stroke-linecap:butt;stroke-linejoin:miter;stroke-miterlimit:4;stroke-dasharray:none;stroke-opacity:1" />
    <path
       inkscape:connector-curvature="0"
       id="path849"
       d="m 145.14048,-270.9549 v -0.6 l 0.25,-0.6 0.45,-0.4 0.55,-0.2 h 0.5 l 0.55,0.2 0.55,0.6 0.15,0.5 -0.05,0.65 -0.3,0.55 -0.35,0.3 -0.55,0.2 -0.75,-0.05 -0.45,-0.25 -0.3,-0.3 z"
       style="fill:none;fill-rule:nonzero;stroke:#ff0000;stroke-width:0.28600001;stroke-linecap:butt;stroke-linejoin:miter;stroke-miterlimit:4;stroke-dasharray:none;stroke-opacity:1" />
  </g>
  <path
     style="fill:none;fill-rule:nonzero;stroke:#ff0000;stroke-width:0.28600001;stroke-linecap:butt;stroke-linejoin:miter;stroke-miterlimit:4;stroke-dasharray:none;stroke-opacity:1"
     d="m 161.73401,-127.24609 4.65,-6.5 0.15,-0.6 -0.55,-0.1 -0.5,-0.4 -0.3,-0.65 v -0.65 l 0.25,-0.55 0.4,-0.4 0.5,-0.2 h 0.9 l 0.15,-1.1 -1.4,-5.3 -4.25,-10 z"
     id="path837"
     inkscape:connector-curvature="0" />
  <path
     style="fill:none;fill-rule:nonzero;stroke:#ff0000;stroke-width:0.28600001;stroke-linecap:butt;stroke-linejoin:miter;stroke-miterlimit:4;stroke-dasharray:none;stroke-opacity:1"
     d="m 169.53401,-129.74609 2.35,-3.25 1.25,-5.55 0.05,-0.6 -1.85,-7.1 -1.8,-4.2 z"
     id="path835"
     inkscape:connector-curvature="0" />
  <g
     id="g943"
     transform="rotate(-27.162576,175.76561,-88.965153)">
    <path
       inkscape:connector-curvature="0"
       id="path847"
       d="m 159.24048,-115.1049 2.15,-1.7 11.6,-11.8 7.65,-21.4 0.9,-3.35 0.7,-0.55 15.7,-10 1.25,-1 0.7,0.65 2.7,0.75 12.3,4.8 6.45,4.15 3.8,0.8 0.85,-5.65 -2.75,-15.9 0.6,-3.25 -5.4,-13.4 -5.45,-5 -7.4,-1.9 -3,-0.2 -9.1,0.2 -9.4,3.95 -16.65,3.2 -8.15,2.9 z"
       style="fill:none;fill-rule:nonzero;stroke:#ff0000;stroke-width:0.28600001;stroke-linecap:butt;stroke-linejoin:miter;stroke-miterlimit:4;stroke-dasharray:none;stroke-opacity:1" />
    <path
       inkscape:connector-curvature="0"
       id="path845"
       d="m 162.64048,-131.4549 0.05,-0.6 0.35,-0.65 0.4,-0.3 0.5,-0.15 0.65,0.05 0.5,0.25 0.3,0.3 0.25,0.55 v 0.7 l -0.15,0.4 -0.45,0.5 -0.6,0.25 h -0.55 l -0.55,-0.2 -0.55,-0.6 z"
       style="fill:none;fill-rule:nonzero;stroke:#ff0000;stroke-width:0.28600001;stroke-linecap:butt;stroke-linejoin:miter;stroke-miterlimit:4;stroke-dasharray:none;stroke-opacity:1" />
    <path
       inkscape:connector-curvature="0"
       id="path833"
       d="m 207.64048,-183.4549 0.05,-0.6 0.35,-0.65 0.4,-0.3 0.5,-0.15 0.65,0.05 0.5,0.25 0.3,0.3 0.25,0.55 v 0.7 l -0.15,0.4 -0.45,0.5 -0.6,0.25 h -0.55 l -0.55,-0.2 -0.55,-0.6 z"
       style="fill:none;fill-rule:nonzero;stroke:#ff0000;stroke-width:0.28600001;stroke-linecap:butt;stroke-linejoin:miter;stroke-miterlimit:4;stroke-dasharray:none;stroke-opacity:1" />
  </g>
  <g
     id="g927"
     transform="rotate(156.28356,167.10704,-251.38199)">
    <path
       inkscape:connector-curvature="0"
       id="path843"
       d="m 168.34048,-203.1549 12.2,-11.45 8.35,-18 0.2,-1.65 1.7,-2.6 4.4,-3.25 12.25,-13.3 0.7,0.3 11.5,6.55 2.1,1.1 11.8,8.6 4.55,2.85 4.3,0.35 0.35,-0.05 1.05,-2.35 3.15,-9.35 -11.85,-20.05 -1.05,-1.4 -0.5,-1.55 -6.05,-11.5 -4.35,-3.75 -5.1,-2.05 3.55,-3.8 -9.3,1.2 -0.8,1.15 -8.8,1.9 -25.95,6.5 -8.4,2.45 z"
       style="fill:none;fill-rule:nonzero;stroke:#ff0000;stroke-width:0.28600001;stroke-linecap:butt;stroke-linejoin:miter;stroke-miterlimit:4;stroke-dasharray:none;stroke-opacity:1" />
    <path
       inkscape:connector-curvature="0"
       id="path841"
       d="m 171.79048,-218.9049 v -0.7 l 0.15,-0.4 0.45,-0.5 0.6,-0.25 0.75,0.05 0.6,0.35 0.35,0.55 0.1,0.4 -0.05,0.55 -0.35,0.65 -0.4,0.3 -0.45,0.15 h -0.55 l -0.6,-0.25 -0.35,-0.35 z"
       style="fill:none;fill-rule:nonzero;stroke:#ff0000;stroke-width:0.28600001;stroke-linecap:butt;stroke-linejoin:miter;stroke-miterlimit:4;stroke-dasharray:none;stroke-opacity:1" />
    <path
       inkscape:connector-curvature="0"
       id="path831"
       d="m 216.79048,-270.9049 v -0.7 l 0.15,-0.4 0.45,-0.5 0.6,-0.25 0.75,0.05 0.6,0.35 0.35,0.55 0.1,0.4 -0.1,0.7 -0.3,0.5 -0.4,0.3 -0.45,0.15 h -0.55 l -0.6,-0.25 -0.35,-0.35 z"
       style="fill:none;fill-rule:nonzero;stroke:#ff0000;stroke-width:0.28600001;stroke-linecap:butt;stroke-linejoin:miter;stroke-miterlimit:4;stroke-dasharray:none;stroke-opacity:1" />
  </g>
  <g
     id="g953"
     transform="rotate(179.46375,252.28353,-202.09466)">
    <path
       inkscape:connector-curvature="0"
       id="path829"
       d="m 228.04048,-116.2549 3.9,-5 8.7,-8.8 4.55,-12.7 4.15,-15.55 10.05,-6.4 6.1,-5 5.05,4.85 15,4.4 1.3,-1.75 3.7,-18.75 -3.6,-8.95 -3.6,-3.3 -3.25,-2.7 1.4,-3.15 -8,0.7 -1.9,-0.45 -1.95,0.05 -15.2,6.35 -24.6,4.75 -1.2,0.25 -0.6,0.25 z"
       style="fill:none;fill-rule:nonzero;stroke:#ff0000;stroke-width:0.28600001;stroke-linecap:butt;stroke-linejoin:miter;stroke-miterlimit:4;stroke-dasharray:none;stroke-opacity:1" />
    <path
       inkscape:connector-curvature="0"
       id="path827"
       d="m 231.49048,-131.4049 0.05,-0.7 0.3,-0.55 0.45,-0.35 0.45,-0.15 0.7,0.05 0.5,0.25 0.35,0.4 0.2,0.5 v 0.6 l -0.25,0.6 -0.35,0.35 -0.6,0.25 h -0.6 l -0.65,-0.3 -0.35,-0.4 z"
       style="fill:none;fill-rule:nonzero;stroke:#ff0000;stroke-width:0.28600001;stroke-linecap:butt;stroke-linejoin:miter;stroke-miterlimit:4;stroke-dasharray:none;stroke-opacity:1" />
    <path
       inkscape:connector-curvature="0"
       id="path821"
       d="m 276.49048,-183.4049 0.05,-0.7 0.3,-0.55 0.45,-0.35 0.45,-0.15 h 0.5 l 0.7,0.3 0.35,0.4 0.2,0.5 v 0.6 l -0.25,0.6 -0.35,0.35 -0.6,0.25 h -0.6 l -0.65,-0.3 -0.35,-0.4 z"
       style="fill:none;fill-rule:nonzero;stroke:#ff0000;stroke-width:0.28600001;stroke-linecap:butt;stroke-linejoin:miter;stroke-miterlimit:4;stroke-dasharray:none;stroke-opacity:1" />
  </g>
  <g
     id="g948"
     transform="rotate(-17.286144,242.86235,-0.53450023)">
    <path
       inkscape:connector-curvature="0"
       id="path825"
       d="m 248.99048,-202.1049 13.2,-12.5 6.1,-13.1 2.35,-7.8 4.1,-2.65 13.7,-14.85 10.35,5.85 3.5,1.75 10.05,8.6 3.05,2.35 8,0.6 2.6,-5.5 2.1,-6.15 -7.45,-12.6 -6.1,-8.35 -2.7,-8.45 -3.4,-6.5 -5.85,-5.05 -0.4,-0.15 0.15,-0.25 -0.9,0.1 -9,-0.65 -7.95,0.15 -6.3,1.4 -22.35,5.6 -6.85,2.55 z"
       style="fill:none;fill-rule:nonzero;stroke:#ff0000;stroke-width:0.28600001;stroke-linecap:butt;stroke-linejoin:miter;stroke-miterlimit:4;stroke-dasharray:none;stroke-opacity:1" />
    <path
       inkscape:connector-curvature="0"
       id="path823"
       d="m 252.44048,-218.9049 v -0.7 l 0.15,-0.4 0.45,-0.5 0.6,-0.25 0.75,0.05 0.6,0.35 0.35,0.55 0.1,0.45 -0.1,0.65 -0.3,0.5 -0.4,0.3 -0.45,0.15 h -0.55 l -0.6,-0.25 -0.35,-0.35 z"
       style="fill:none;fill-rule:nonzero;stroke:#ff0000;stroke-width:0.28600001;stroke-linecap:butt;stroke-linejoin:miter;stroke-miterlimit:4;stroke-dasharray:none;stroke-opacity:1" />
    <path
       inkscape:connector-curvature="0"
       id="path2"
       d="m 297.44048,-270.9049 v -0.7 l 0.15,-0.4 0.45,-0.5 0.6,-0.25 0.75,0.05 0.6,0.35 0.35,0.55 0.1,0.45 -0.1,0.65 -0.3,0.5 -0.4,0.3 -0.45,0.15 h -0.55 l -0.6,-0.25 -0.35,-0.35 z"
       style="fill:none;fill-rule:nonzero;stroke:#ff0000;stroke-width:0.28600001;stroke-linecap:butt;stroke-linejoin:miter;stroke-miterlimit:4;stroke-dasharray:none;stroke-opacity:1" />
  </g>
  <text
     xml:space="preserve"
     style="font-style:normal;font-variant:normal;font-weight:normal;font-stretch:normal;font-size:11.28888893px;line-height:125%;font-family:Verdana;-inkscape-font-specification:Verdana;letter-spacing:0px;word-spacing:0px;fill:#0000ff;fill-opacity:1;stroke:none;stroke-width:0.26458332px;stroke-linecap:butt;stroke-linejoin:miter;stroke-opacity:1;"
     x="4.7328815"
     y="-269.87329"
     id="text868"><tspan
       sodipodi:role="line"
       id="tspan866"
       x="4.7328815"
       y="-269.87329"
       style="font-size:2.82222223px;stroke-width:0.26458332px;fill:#0000ff;fill-opacity:1;">1</tspan></text>
  <text
     xml:space="preserve"
     style="font-style:normal;font-variant:normal;font-weight:normal;font-stretch:normal;font-size:2.82222223px;line-height:125%;font-family:Verdana;-inkscape-font-specification:Verdana;letter-spacing:0px;word-spacing:0px;fill:#0000ff;fill-opacity:1;stroke:none;stroke-width:0.26458332px;stroke-linecap:butt;stroke-linejoin:miter;stroke-opacity:1;"
     x="4.5757856"
     y="-229.1908"
     id="text872"><tspan
       sodipodi:role="line"
       id="tspan870"
       x="4.5757856"
       y="-229.1908"
       style="stroke-width:0.26458332px;fill:#0000ff;fill-opacity:1;">2</tspan></text>
  <text
     xml:space="preserve"
     style="font-style:normal;font-variant:normal;font-weight:normal;font-stretch:normal;font-size:2.82222223px;line-height:125%;font-family:Verdana;-inkscape-font-specification:Verdana;letter-spacing:0px;word-spacing:0px;fill:#0000ff;fill-opacity:1;stroke:none;stroke-width:0.26458332px;stroke-linecap:butt;stroke-linejoin:miter;stroke-opacity:1;"
     x="15.980129"
     y="-262.22406"
     id="text876"><tspan
       sodipodi:role="line"
       id="tspan874"
       x="15.980129"
       y="-262.22406"
       style="stroke-width:0.26458332px;fill:#0000ff;fill-opacity:1;">3</tspan></text>
  <text
     xml:space="preserve"
     style="font-style:normal;font-variant:normal;font-weight:normal;font-stretch:normal;font-size:2.82222223px;line-height:125%;font-family:Verdana;-inkscape-font-specification:Verdana;letter-spacing:0px;word-spacing:0px;fill:#0000ff;fill-opacity:1;stroke:none;stroke-width:0.26458332px;stroke-linecap:butt;stroke-linejoin:miter;stroke-opacity:1;"
     x="31.513632"
     y="-264.78021"
     id="text880"><tspan
       sodipodi:role="line"
       id="tspan878"
       x="31.513632"
       y="-264.78021"
       style="stroke-width:0.26458332px;fill:#0000ff;fill-opacity:1;">4</tspan></text>
  <text
     xml:space="preserve"
     style="font-style:normal;font-variant:normal;font-weight:normal;font-stretch:normal;font-size:2.82222223px;line-height:125%;font-family:Verdana;-inkscape-font-specification:Verdana;letter-spacing:0px;word-spacing:0px;fill:#0000ff;fill-opacity:1;stroke:none;stroke-width:0.26458332px;stroke-linecap:butt;stroke-linejoin:miter;stroke-opacity:1;"
     x="47.243763"
     y="-233.7132"
     id="text884"><tspan
       sodipodi:role="line"
       id="tspan882"
       x="47.243763"
       y="-233.7132"
       style="stroke-width:0.26458332px;fill:#0000ff;fill-opacity:1;">4</tspan></text>
  <text
     xml:space="preserve"
     style="font-style:normal;font-variant:normal;font-weight:normal;font-stretch:normal;font-size:2.82222223px;line-height:125%;font-family:Verdana;-inkscape-font-specification:Verdana;letter-spacing:0px;word-spacing:0px;fill:#0000ff;fill-opacity:1;stroke:none;stroke-width:0.26458332px;stroke-linecap:butt;stroke-linejoin:miter;stroke-opacity:1;"
     x="73.198479"
     y="-255.73538"
     id="text888"><tspan
       sodipodi:role="line"
       id="tspan886"
       x="73.198479"
       y="-255.73538"
       style="stroke-width:0.26458332px;fill:#0000ff;fill-opacity:1;">5</tspan></text>
  <text
     xml:space="preserve"
     style="font-style:normal;font-variant:normal;font-weight:normal;font-stretch:normal;font-size:2.82222223px;line-height:125%;font-family:Verdana;-inkscape-font-specification:Verdana;letter-spacing:0px;word-spacing:0px;fill:#0000ff;fill-opacity:1;stroke:none;stroke-width:0.26458332px;stroke-linecap:butt;stroke-linejoin:miter;stroke-opacity:1;"
     x="137.88863"
     y="-231.15706"
     id="text892"><tspan
       sodipodi:role="line"
       id="tspan890"
       x="137.88863"
       y="-231.15706"
       style="stroke-width:0.26458332px;fill:#0000ff;fill-opacity:1;">6</tspan></text>
  <text
     xml:space="preserve"
     style="font-style:normal;font-variant:normal;font-weight:normal;font-stretch:normal;font-size:2.82222223px;line-height:125%;font-family:Verdana;-inkscape-font-specification:Verdana;letter-spacing:0px;word-spacing:0px;fill:#0000ff;fill-opacity:1;stroke:none;stroke-width:0.26458332px;stroke-linecap:butt;stroke-linejoin:miter;stroke-opacity:1;"
     x="183.11275"
     y="-257.50504"
     id="text896"><tspan
       sodipodi:role="line"
       id="tspan894"
       x="183.11275"
       y="-257.50504"
       style="stroke-width:0.26458332px;fill:#0000ff;fill-opacity:1;">7</tspan></text>
  <text
     xml:space="preserve"
     style="font-style:normal;font-variant:normal;font-weight:normal;font-stretch:normal;font-size:2.82222223px;line-height:125%;font-family:Verdana;-inkscape-font-specification:Verdana;letter-spacing:0px;word-spacing:0px;fill:#0000ff;fill-opacity:1;stroke:none;stroke-width:0.26458332px;stroke-linecap:butt;stroke-linejoin:miter;stroke-opacity:1;"
     x="252.12869"
     y="-222.30885"
     id="text900"><tspan
       sodipodi:role="line"
       id="tspan898"
       x="252.12869"
       y="-222.30885"
       style="stroke-width:0.26458332px;fill:#0000ff;fill-opacity:1;">8</tspan></text>
  <text
     xml:space="preserve"
     style="font-style:normal;font-variant:normal;font-weight:normal;font-stretch:normal;font-size:2.82222223px;line-height:125%;font-family:Verdana;-inkscape-font-specification:Verdana;letter-spacing:0px;word-spacing:0px;fill:#0000ff;fill-opacity:1;stroke:none;stroke-width:0.26458332px;stroke-linecap:butt;stroke-linejoin:miter;stroke-opacity:1;"
     x="25.81146"
     y="-164.89389"
     id="text904"><tspan
       sodipodi:role="line"
       id="tspan902"
       x="25.81146"
       y="-164.89389"
       style="stroke-width:0.26458332px;fill:#0000ff;fill-opacity:1;">9</tspan></text>
  <text
     xml:space="preserve"
     style="font-style:normal;font-variant:normal;font-weight:normal;font-stretch:normal;font-size:2.82222223px;line-height:125%;font-family:Verdana;-inkscape-font-specification:Verdana;letter-spacing:0px;word-spacing:0px;fill:#0000ff;fill-opacity:1;stroke:none;stroke-width:0.26458332px;stroke-linecap:butt;stroke-linejoin:miter;stroke-opacity:1;"
     x="97.973427"
     y="-179.64088"
     id="text908"><tspan
       sodipodi:role="line"
       id="tspan906"
       x="97.973427"
       y="-179.64088"
       style="stroke-width:0.26458332px;fill:#0000ff;fill-opacity:1;">10</tspan></text>
  <text
     xml:space="preserve"
     style="font-style:normal;font-variant:normal;font-weight:normal;font-stretch:normal;font-size:2.82222223px;line-height:125%;font-family:Verdana;-inkscape-font-specification:Verdana;letter-spacing:0px;word-spacing:0px;fill:#0000ff;fill-opacity:1;stroke:none;stroke-width:0.26458332px;stroke-linecap:butt;stroke-linejoin:miter;stroke-opacity:1;"
     x="143.78743"
     y="-127.14157"
     id="text912"><tspan
       sodipodi:role="line"
       id="tspan910"
       x="143.78743"
       y="-127.14157"
       style="stroke-width:0.26458332px;fill:#0000ff;fill-opacity:1;">11</tspan></text>
  <text
     xml:space="preserve"
     style="font-style:normal;font-variant:normal;font-weight:normal;font-stretch:normal;font-size:2.82222223px;line-height:125%;font-family:Verdana;-inkscape-font-specification:Verdana;letter-spacing:0px;word-spacing:0px;fill:#0000ff;fill-opacity:1;stroke:none;stroke-width:0.26458332px;stroke-linecap:butt;stroke-linejoin:miter;stroke-opacity:1;"
     x="203.16867"
     y="-129.89435"
     id="text920"><tspan
       sodipodi:role="line"
       id="tspan918"
       x="203.16867"
       y="-129.89435"
       style="stroke-width:0.26458332px;fill:#0000ff;fill-opacity:1;">12</tspan></text>
  <text
     xml:space="preserve"
     style="font-style:normal;font-variant:normal;font-weight:normal;font-stretch:normal;font-size:2.82222223px;line-height:125%;font-family:Verdana;-inkscape-font-specification:Verdana;letter-spacing:0px;word-spacing:0px;fill:#0000ff;fill-opacity:1;stroke:none;stroke-width:0.26458332px;stroke-linecap:butt;stroke-linejoin:miter;stroke-opacity:1;"
     x="181.73637"
     y="-133.04039"
     id="text924"><tspan
       sodipodi:role="line"
       id="tspan922"
       x="181.73637"
       y="-133.04039"
       style="stroke-width:0.26458332px;fill:#0000ff;fill-opacity:1;">13</tspan></text>
  <text
     xml:space="preserve"
     style="font-style:normal;font-variant:normal;font-weight:normal;font-stretch:normal;font-size:2.82222223px;line-height:125%;font-family:Verdana;-inkscape-font-specification:Verdana;letter-spacing:0px;word-spacing:0px;fill:#0000ff;fill-opacity:1;stroke:none;stroke-width:0.26458332px;stroke-linecap:butt;stroke-linejoin:miter;stroke-opacity:1;"
     x="162.27034"
     y="-139.92232"
     id="text928"><tspan
       sodipodi:role="line"
       id="tspan926"
       x="162.27034"
       y="-139.92232"
       style="stroke-width:0.26458332px;fill:#0000ff;fill-opacity:1;">14</tspan></text>
</svg>
