<?xml version="1.0" encoding="UTF-8" standalone="no"?>
<!-- Created with Inkscape (http://www.inkscape.org/) -->

<svg
   xmlns:dc="http://purl.org/dc/elements/1.1/"
   xmlns:cc="http://creativecommons.org/ns#"
   xmlns:rdf="http://www.w3.org/1999/02/22-rdf-syntax-ns#"
   xmlns:svg="http://www.w3.org/2000/svg"
   xmlns="http://www.w3.org/2000/svg"
   xmlns:sodipodi="http://sodipodi.sourceforge.net/DTD/sodipodi-0.dtd"
   xmlns:inkscape="http://www.inkscape.org/namespaces/inkscape"
   id="svg2"
   version="1.1"
   inkscape:version="0.91 r13725"
   width="536.59845"
   height="393.44373"
   viewBox="0 0 536.59845 393.44372"
   sodipodi:docname="cheval.svg">
  <metadata
     id="metadata8">
    <rdf:RDF>
      <cc:Work
         rdf:about="">
        <dc:format>image/svg+xml</dc:format>
        <dc:type
           rdf:resource="http://purl.org/dc/dcmitype/StillImage" />
        <dc:title></dc:title>
      </cc:Work>
    </rdf:RDF>
  </metadata>
  <defs
     id="defs6" />
  <sodipodi:namedview
     pagecolor="#ffffff"
     bordercolor="#666666"
     borderopacity="1"
     objecttolerance="10"
     gridtolerance="10"
     guidetolerance="10"
     inkscape:pageopacity="0"
     inkscape:pageshadow="2"
     inkscape:window-width="1920"
     inkscape:window-height="961"
     id="namedview4"
     showgrid="false"
     fit-margin-top="0"
     fit-margin-left="0"
     fit-margin-right="0"
     fit-margin-bottom="0"
     inkscape:zoom="1.0615598"
     inkscape:cx="46.45238"
     inkscape:cy="139.62837"
     inkscape:window-x="0"
     inkscape:window-y="49"
     inkscape:window-maximized="1"
     inkscape:current-layer="layer4"
     showguides="false" />
  <g
     inkscape:groupmode="layer"
     id="layer2"
     inkscape:label="complet"
     style="display:none"
     transform="translate(0.2533176,354.3558)">
    <path
       style="fill:none;stroke:#000000;stroke-width:10.00021553;stroke-miterlimit:4;stroke-dasharray:none;stroke-opacity:1"
       d="m 305.7854,33.628715 c -4.00618,-1.600565 -5.86701,-5.422327 -5.86701,-12.04966 0,-5.768715 -0.72302,-7.234936 -6.08099,-12.3318662 -6.94903,-6.6104527 -7.11658,-2.6729777 1.50182,-35.2959818 3.20937,-12.148372 4.58392,-20.704237 4.59504,-28.601687 0.009,-6.197524 0.96682,-14.401901 2.12897,-18.231974 1.16222,-3.830062 2.5768,-15.30948 3.14354,-25.50981 l 1.03043,-18.546066 -7.19296,0.84491 c -3.95615,0.46471 -15.11346,2.53164 -24.79404,4.59317 -20.53453,4.37296 -39.55521,4.88551 -60.87026,1.6403 -17.325,-2.63773 -25.61955,-5.49422 -46.76444,-16.1048 -11.54618,-5.79391 -17.7272,-8.1193 -20.03919,-7.53903 -3.89503,0.97762 -11.35903,13.52373 -18.01737,30.28514 -2.4183,6.087723 -6.7207,15.320542 -9.56086,20.517374 -12.21346,22.347763 -13.25608,29.272922 -9.01599,59.884803 l 2.35949,17.0346375 7.0685,6.60039241 c 3.88768,3.63020829 7.81844,8.86766139 8.73503,11.63879109 0.91662,2.7711 2.7284,6.211724 4.02623,7.645815 4.64972,5.137871 1.61212,7.116954 -10.92351,7.116954 -13.30532,0 -17.39377,-2.497384 -16.00257,-9.774941 1.32775,-6.94572 -1.03513,-10.5167872 -7.30057,-11.0334584 l -5.571913,-0.4595099 -0.0713,-23.4680567 c -0.06137,-20.217076 -0.636651,-25.95917 -4.152796,-41.450884 l -4.081559,-17.982848 6.110011,-11.352215 6.11001,-11.352235 -5.220708,5.867016 c -2.87139,3.22685 -7.712351,9.421394 -10.757698,13.765637 l -5.536989,7.898621 0.273746,24.369956 c 0.150533,13.403469 0.9209,27.668417 1.711867,31.699914 0.990901,5.050469 0.951701,7.9160606 -0.126043,9.2146687 C 75.77103,-5.801626 74.926986,-0.3587685 74.755669,5.2570227 74.42306,16.159488 69.377136,29.006645 65.10441,29.829503 62.565865,30.318414 53.151816,22.117057 50.64588,17.233531 48.036093,12.147621 50.141029,5.6955722 55.82425,1.3607586 c 5.315334,-4.0541975 6.380823,-6.4091883 2.899767,-6.4091883 -3.211779,0 -4.085377,-2.5061441 -2.140413,-6.1403423 3.090462,-5.774585 2.592857,-24.294605 -1.23405,-45.929401 -4.384511,-24.787125 -3.947466,-27.698168 7.147876,-47.610437 6.214477,-11.15281 7.850637,-15.52397 8.339261,-22.2791 0.70631,-9.76466 -3.401572,-24.99533 -9.237608,-34.24995 l -3.699783,-5.86702 0.173024,26.40156 c 0.140563,21.44715 -0.261566,27.23505 -2.142838,30.84312 -3.418295,6.5559 -6.834409,30.369543 -7.521757,52.434 -0.833868,26.767977 -3.149615,42.021346 -7.008532,46.163866 -1.690844,1.8151089 -3.824807,3.300201 -4.742142,3.300201 -0.91733,0 -3.087738,1.3227885 -4.823119,2.9395434 -3.111534,2.8988226 -3.176339,2.9001526 -4.676848,0.096002 -0.836878,-1.5636637 -1.521595,-7.1560044 -1.521595,-12.4273484 0,-7.794448 -0.399399,-9.431033 -2.138715,-8.763589 -2.201317,0.845118 -2.278203,0.639014 -4.71908,-12.646433 -1.019634,-5.54977 -1.796069,-6.670214 -4.877885,-7.039012 -6.9447513,-0.831058 -7.184549,-1.507632 -2.35086,-6.632833 9.063165,-9.609757 14.849418,-19.072751 14.34629,-23.462296 -0.461395,-4.025437 -0.566084,-4.071608 -4.052343,-1.787329 -3.437553,2.252369 -3.635829,2.194638 -5.026696,-1.463621 -0.79639,-2.094665 -1.447982,-9.70586 -1.447982,-16.913775 0,-12.266486 -0.193934,-13.105296 -3.029933,-13.105296 -1.666463,0 -4.2847708,-0.67161 -5.8184612,-1.49238 -2.6646861,-1.42609 -2.5977372,-1.79322 1.5074787,-8.26647 5.3837645,-8.48931 8.2917925,-21.95398 10.3458095,-47.90292 1.833114,-23.15819 3.985647,-32.73004 10.04198,-44.65441 10.000974,-19.69103 15.70124,-24.28307 35.981931,-28.98648 7.193947,-1.66839 11.914878,-3.90082 17.373391,-8.21553 23.947762,-18.92961 51.301252,-22.99829 108.141462,-16.08547 34.18165,4.15712 57.56942,5.32809 66.80177,3.3446 4.06906,-0.87422 12.47153,-3.96529 18.67219,-6.86907 6.20064,-2.90378 14.47197,-5.65837 18.3807,-6.1213 6.14069,-0.72732 7.32368,-1.41624 8.70206,-5.06796 1.23459,-3.27078 2.53597,-4.23549 5.75622,-4.26707 2.29314,-0.022 6.74733,-1.99774 9.92259,-4.40026 3.63071,-2.74713 7.51491,-4.35945 10.50225,-4.35945 3.28343,0 6.93223,-1.73234 11.87034,-5.63572 8.65094,-6.83816 12.59767,-9.03182 16.24966,-9.03182 1.52586,0 4.29144,-1.61494 6.14573,-3.58876 1.8543,-1.97381 4.72466,-3.78892 6.37857,-4.03357 1.65392,-0.2446 4.09062,-2.40668 5.41492,-4.8045 1.99182,-3.6065 4.12909,-4.802 12.37107,-6.91991 5.47981,-1.40811 10.71652,-3.16526 11.63716,-3.90476 0.92062,-0.73952 3.90819,-1.82283 6.63899,-2.40738 2.73082,-0.58451 8.93851,-3.63093 13.79488,-6.76976 9.87786,-6.38437 14.87435,-7.0407 26.57579,-3.49094 9.57722,2.90535 13.42278,2.75387 16.59749,-0.65381 2.78612,-2.99056 10.58894,-6.5335 11.77562,-5.34684 0.3837,0.38371 0.79441,2.61952 0.91252,4.96837 0.2985,5.93635 2.67353,8.27278 12.34138,12.14102 4.60691,1.84329 10.71425,4.80134 13.57188,6.57345 6.79943,4.21652 14.60549,13.18897 14.60549,16.78782 0,3.33639 -6.38233,7.99549 -9.37802,6.84594 -1.25291,-0.48082 -2.37218,0.374 -2.84194,2.17036 -0.58142,2.22338 -1.5333,2.72283 -3.81141,1.9998 -3.56777,-1.13237 -3.88768,0.48131 -0.88291,4.45394 1.1844,1.56594 2.20345,4.16723 2.26451,5.78067 0.21461,5.67702 3.92856,13.3498 13.71777,28.34206 5.4376,8.32771 10.4956,16.74321 11.24002,18.70111 0.74442,1.95789 1.97734,3.55981 2.73995,3.55981 4.25309,0 3.36707,22.45175 -1.10393,27.97322 -2.10435,2.59874 -4.61259,3.24488 -15.14775,3.90215 -16.36857,1.0212 -19.76499,0.1388 -20.99347,-5.45455 -0.99552,-4.53262 -6.01228,-9.43531 -11.40679,-11.14746 -1.70143,-0.54001 -7.42234,-4.11112 -12.71314,-7.93578 -5.2908,-3.82467 -11.92976,-8.10304 -14.75326,-9.5075 -2.8235,-1.40446 -7.50365,-4.82226 -10.40032,-7.5951 l -5.26666,-5.04154 -5.064,6.30322 c -24.52501,30.52661 -49.2342,72.24495 -55.5657,93.81563 -2.79966,9.53819 -4.14347,11.69271 -11.83368,18.97312 -4.77146,4.51719 -8.67537,8.60707 -8.67537,9.08864 0,2.39234 11.73602,20.40644 20.09509,30.844761 11.57411,14.453082 14.07332,19.107573 12.99309,24.198203 -0.94882,4.471196 -1.22485,40.895562 -0.3688,48.66249 0.3112,2.823501 0.97372,8.433832 1.47237,12.4674087 0.49861,4.0335671 0.43491,11.6165807 -0.14151,16.8511437 -0.83711,7.6009946 -1.5932,9.6216276 -3.75499,10.0351066 -3.10589,0.594013 -15.51913,-11.5183886 -19.30263,-18.83489653 -2.31485,-4.47639657 -2.27611,-4.70349147 1.38005,-8.09191467 4.76393,-4.4150448 4.71705,-4.9126558 -0.63852,-6.7796158 -5.04735,-1.759508 -5.3274,-2.868682 -2.00472,-7.939722 1.71506,-2.617506 2.60251,-8.34628 3.12417,-20.167625 0.65331,-14.804749 0.40571,-17.14463 -2.39551,-22.635488 -1.71831,-3.368143 -3.12419,-6.898569 -3.12419,-7.84539 0,-1.723027 -18.92758,-22.479225 -23.57765,-25.855528 -2.19574,-1.594273 -3.0597,-0.246205 -7.83047,12.217874 -2.94935,7.705426 -5.9826,18.901158 -6.74056,24.879387 -0.90251,7.118173 -3.50163,15.809901 -7.53101,25.184323 -5.23944,12.189643 -6.25047,16.1973 -6.81021,26.9950128 l -0.65732,12.6802137 6.03907,6.5516014 c 3.32148,3.6034081 6.03907,7.8394191 6.03907,9.4133731 0,1.573964 1.99019,4.768473 4.42265,7.098913 3.62653,3.474445 4.0294,4.457216 2.23807,5.459698 -2.80219,1.568174 -19.90745,2.814431 -22.79501,1.660806 z"
       id="path4138"
       inkscape:connector-curvature="0" />
  </g>
  <g
     inkscape:groupmode="layer"
     id="layer3"
     inkscape:label="sans-queue"
     style="display:inline"
     transform="translate(0.2533176,354.3558)">
    <path
       inkscape:connector-curvature="0"
       id="path4147"
       d="m 305.95537,34.570851 c -4.0061,-1.600528 -5.86688,-5.422202 -5.86688,-12.049382 0,-5.768582 -0.723,-7.23477 -6.08085,-12.331582 -6.94887,-6.6103004 -7.11641,-2.6729163 1.50178,-35.295168 3.2093,-12.148092 4.58382,-20.70376 4.59494,-28.601028 0.009,-6.197381 0.96679,-14.401569 2.12892,-18.231553 1.16219,-3.829974 2.57674,-15.309127 3.14347,-25.509222 l 1.03041,-18.545646 -7.1928,0.8449 c -3.95606,0.4647 -15.11311,2.53158 -24.79347,4.59306 -20.53406,4.37286 -39.5543,4.8854 -60.86886,1.64026 -17.3246,-2.63766 -25.61896,-5.49409 -46.76336,-16.10442 -11.54591,-5.79379 -17.72679,-8.11912 -20.03873,-7.53886 -3.89493,0.9776 -11.35876,13.52342 -18.01695,30.28444 -2.41825,6.087584 -6.72054,15.32019 -9.56064,20.516902 -12.21318,22.347247 -13.25578,29.272247 -9.01578,59.883422 l 2.35943,17.034245 7.06834,6.6002403 c 3.88759,3.6301246 7.81826,8.8674567 8.73483,11.6385227 0.9166,2.771036 2.72834,6.211581 4.02614,7.645639 4.64961,5.137752 1.61208,7.116789 -10.92326,7.116789 -13.30501,0 -17.39337,-2.497326 -16.00221,-9.774715 1.32773,-6.94556 -1.03509,-10.5165448 -7.300392,-11.033204 l -5.571785,-0.4594993 -0.0713,-23.4675157 c -0.06137,-20.21661 -0.636638,-25.958571 -4.152701,-41.449929 l -4.081465,-17.982433 6.10987,-11.351953 6.10987,-11.351974 -5.220589,5.866882 c -2.871323,3.226775 -7.712172,9.421176 -10.75745,13.765319 l -5.536861,7.898439 0.27374,24.369394 c 0.15053,13.40316 0.920879,27.667779 1.711827,31.699183 0.990879,5.050353 0.951679,7.9158785 -0.126039,9.2144565 C 75.946297,-4.858581 75.102272,0.58415102 74.930959,6.1998127 74.59836,17.102027 69.552552,29.948888 65.279925,30.771726 62.741438,31.260626 53.327606,23.059458 50.821728,18.176045 48.212001,13.090253 50.316888,6.638352 55.999979,2.3036384 c 5.315212,-4.054104 6.380676,-6.4090405 2.8997,-6.4090405 -3.211705,0 -4.085283,-2.5060863 -2.140364,-6.1402009 3.090392,-5.774452 2.592797,-24.294044 -1.234021,-45.928342 -4.384409,-24.786554 -3.947375,-27.697529 7.147712,-47.609345 6.214333,-11.15255 7.850455,-15.5236 8.339068,-22.27858 -7.52776,-61.96176 -39.87882,-72.67086 10.933475,-121.69559 14.702796,-11.62189 51.300061,-22.99776 108.138971,-16.0851 34.18086,4.15702 57.56808,5.32796 66.80023,3.34452 4.06896,-0.8742 12.47124,-3.9652 18.67175,-6.86891 6.2005,-2.90372 14.47164,-5.65825 18.38029,-6.12117 6.14054,-0.72729 7.3235,-1.4162 8.70185,-5.06784 1.23456,-3.2707 2.53591,-4.23538 5.75608,-4.26696 2.29309,-0.022 6.74718,-1.9977 9.92237,-4.40017 3.63062,-2.74706 7.51474,-4.35935 10.502,-4.35935 3.28336,0 6.93207,-1.7323 11.87008,-5.63558 8.65073,-6.83801 12.59737,-9.03162 16.24928,-9.03162 1.52582,0 4.29134,-1.61489 6.14558,-3.58867 1.85426,-1.97377 4.72456,-3.78884 6.37843,-4.03348 1.65388,-0.2446 4.09053,-2.40662 5.4148,-4.80439 1.99177,-3.60641 4.12899,-4.80189 12.37078,-6.91975 5.47968,-1.40808 10.71627,-3.16518 11.63689,-3.90467 0.9206,-0.7395 3.9081,-1.82279 6.63884,-2.40732 2.73076,-0.5845 8.9383,-3.63085 13.79456,-6.76961 9.87764,-6.38422 14.87401,-7.04054 26.57518,-3.49085 9.577,2.90527 13.42247,2.7538 16.59711,-0.6538 2.78605,-2.99049 10.58869,-6.53335 11.77534,-5.34672 0.3837,0.3837 0.7944,2.61946 0.9125,4.96826 0.2985,5.93621 2.67347,8.27258 12.3411,12.14074 4.6068,1.84325 10.714,4.80122 13.57157,6.57329 6.79927,4.21642 14.60515,13.18867 14.60515,16.78743 0,3.33632 -6.38218,7.99531 -9.37781,6.84578 -1.25288,-0.48079 -2.37212,0.374 -2.84187,2.17032 -0.5814,2.22333 -1.53326,2.72277 -3.81132,1.99975 -3.56769,-1.13234 -3.88759,0.4813 -0.8829,4.45384 1.18438,1.5659 2.20341,4.16714 2.26447,5.78053 0.2146,5.6769 3.92846,13.3495 13.71745,28.34141 5.43747,8.32752 10.49535,16.74283 11.23976,18.70069 0.7444,1.95784 1.97729,3.55972 2.73989,3.55972 4.25299,0 3.36699,22.45124 -1.10391,27.97258 -2.1043,2.59867 -4.61248,3.2448 -15.1474,3.90205 -16.36819,1.02118 -19.76453,0.1388 -20.99299,-5.45442 -0.99549,-4.53251 -6.01214,-9.4351 -11.40652,-11.1472 -1.70139,-0.54 -7.42217,-4.11103 -12.71285,-7.9356 -5.29067,-3.82458 -11.92948,-8.10285 -14.75292,-9.50728 -2.82343,-1.40442 -7.50348,-4.82215 -10.40007,-7.59493 l -5.26655,-5.04142 -5.06388,6.30307 c -24.52444,30.52592 -49.23307,72.2433 -55.56442,93.81347 -2.79959,9.53797 -4.14337,11.69245 -11.83341,18.97269 -4.77134,4.51708 -8.67517,8.60686 -8.67517,9.08842 0,2.39229 11.73576,20.40597 20.09463,30.844057 11.57385,14.452749 14.07299,19.107132 12.9928,24.197644 -0.9488,4.471094 -1.22483,40.89462 -0.3688,48.661369 0.3112,2.823435 0.97369,8.433637 1.47233,12.4671211 0.4986,4.0334741 0.4349,11.6163129 -0.1415,16.8507549 -0.83709,7.600819 -1.59316,9.621406 -3.7549,10.034875 -3.10583,0.594 -15.51878,-11.5181225 -19.30219,-18.8344617 -2.3148,-4.4762934 -2.27606,-4.7033831 1.38002,-8.0917281 4.76382,-4.4149432 4.71694,-4.9125432 -0.6385,-6.7794602 -5.04724,-1.759467 -5.32729,-2.868616 -2.00468,-7.939538 1.71502,-2.617446 2.60245,-8.346088 3.1241,-20.16716 0.65329,-14.804408 0.40569,-17.144235 -2.39546,-22.634967 -1.71827,-3.368065 -3.12412,-6.89841 -3.12412,-7.845208 0,-1.722988 -18.92714,-22.478707 -23.5771,-25.854932 -2.19569,-1.594236 -3.05963,-0.2462 -7.83029,12.217592 -2.94929,7.705248 -5.98246,18.900722 -6.7404,24.878813 -0.9025,7.11801 -3.50156,15.809537 -7.53084,25.183743 -5.23932,12.189362 -6.25033,16.196926 -6.81006,26.9943901 l -0.6573,12.6799213 6.03893,6.5514506 c 3.32141,3.603324 6.03893,7.839238 6.03893,9.413156 0,1.573927 1.99015,4.768363 4.42255,7.098749 3.62644,3.474365 4.02931,4.457114 2.23801,5.459572 -2.80212,1.568138 -19.90699,2.814366 -22.79447,1.660768 z"
       style="display:inline;fill:none;stroke:#000000;stroke-width:9.99998569;stroke-miterlimit:4;stroke-dasharray:none;stroke-opacity:1"
       sodipodi:nodetypes="csssccscsssssssscscsssscsscccsscsssscssssssccssssscssssscssccsssssssscssscsssssssssscssssssssccsssssssssssscsssscc" />
  </g>
  <g
     inkscape:groupmode="layer"
     id="layer4"
     inkscape:label="sans-queue-sans-patte"
     style="display:inline"
     transform="translate(0.2533176,354.3558)">
    <path
       sodipodi:nodetypes="csssscccssssscssssscssccsssssssscssscsssssssssscssscc"
       style="display:inline;fill:none;stroke:#000000;stroke-width:10.00008583;stroke-miterlimit:4;stroke-dasharray:none;stroke-opacity:1"
       d="m 305.55246,-116.54866 -7.19287,0.84491 c -3.9561,0.4647 -15.11326,2.5316 -24.79371,4.59311 -20.53427,4.3729 -39.5547,4.88544 -60.86948,1.64027 -17.32478,-2.63769 -25.61922,-5.49414 -46.76383,-16.10458 -11.54603,-5.79384 -17.72697,-8.1192 -20.03893,-7.53894 l -75.738632,6.49599 c -7.527836,-61.96239 -39.879221,-72.6716 10.933585,-121.69681 14.702944,-11.62201 51.300577,-22.99799 108.140057,-16.08526 34.18121,4.15706 57.56867,5.32801 66.80091,3.34455 4.069,-0.87421 12.47136,-3.96524 18.67194,-6.86898 6.20056,-2.90375 14.47178,-5.6583 18.38046,-6.12123 6.14061,-0.7273 7.32359,-1.41622 8.70195,-5.06789 1.23457,-3.27074 2.53593,-4.23543 5.75614,-4.26701 2.29311,-0.022 6.74725,-1.99771 9.92246,-4.4002 3.63066,-2.7471 7.51482,-4.3594 10.50211,-4.3594 3.28339,0 6.93214,-1.73232 11.8702,-5.63564 8.65082,-6.83808 12.59749,-9.03171 16.24944,-9.03171 1.52584,0 4.29138,-1.61491 6.14565,-3.58871 1.85427,-1.97378 4.7246,-3.78887 6.37849,-4.03351 1.6539,-0.2446 4.09057,-2.40665 5.41485,-4.80444 1.9918,-3.60645 4.12903,-4.80194 12.3709,-6.91982 5.47974,-1.4081 10.71639,-3.16522 11.63701,-3.90472 0.92061,-0.7395 3.90815,-1.8228 6.63891,-2.40734 2.73079,-0.5845 8.93839,-3.63089 13.7947,-6.76968 9.87774,-6.38428 14.87416,-7.04061 26.57545,-3.49089 9.57709,2.90531 13.4226,2.75384 16.59727,-0.6538 2.78609,-2.99052 10.5888,-6.53342 11.77546,-5.34677 0.38371,0.38371 0.79441,2.61949 0.91251,4.96831 0.2985,5.93627 2.6735,8.27267 12.34123,12.14086 4.60685,1.84327 10.71411,4.80127 13.5717,6.57336 6.79934,4.21646 14.6053,13.1888 14.6053,16.7876 0,3.33635 -6.38225,7.99539 -9.3779,6.84585 -1.25289,-0.4808 -2.37215,0.374 -2.84191,2.17034 -0.5814,2.22335 -1.53327,2.72279 -3.81135,1.99977 -3.56773,-1.13235 -3.88763,0.4813 -0.88291,4.45388 1.18439,1.56592 2.20343,4.16718 2.26449,5.78059 0.2146,5.67695 3.92851,13.34964 13.71759,28.3417 5.43753,8.3276 10.49546,16.74299 11.23988,18.70087 0.7444,1.95786 1.9773,3.55976 2.73991,3.55976 4.25304,0 3.36703,22.45146 -1.10392,27.97285 -2.10432,2.59871 -4.61253,3.24484 -15.14755,3.9021 -16.36836,1.02119 -19.76473,0.1388 -20.9932,-5.45448 -0.99551,-4.53256 -6.0122,-9.43519 -11.40664,-11.14731 -1.7014,-0.54001 -7.42224,-4.11107 -12.71298,-7.93568 -5.29072,-3.82461 -11.9296,-8.10293 -14.75306,-9.50737 -2.82347,-1.40444 -7.50356,-4.8222 -10.40018,-7.59501 l -5.2666,-5.04147 -5.06393,6.30314 c -24.52469,30.52621 -49.23356,72.24401 -55.56498,93.81441 -2.79962,9.53806 -4.14341,11.69256 -11.83353,18.97287 -4.77139,4.51713 -8.67525,8.60695 -8.67525,9.08852 z"
       id="path4151"
       inkscape:connector-curvature="0" />
  </g>
</svg>
