  0
SECTION
  2
HEADER
  9
$ACADVER
  1
AC1014
  9
$HANDSEED
  5
FFFF
  9
$MEASUREMENT
 70
     1
  0
ENDSEC
  0
SECTION
  2
TABLES
  0
TABLE
  2
VPORT
  5
8
330
0
100
AcDbSymbolTable
 70
     4
  0
VPORT
  5
2E
330
8
100
AcDbSymbolTableRecord
100
AcDbViewportTableRecord
  2
*ACTIVE
 70
     0
 10
0.0
 20
0.0
 11
1.0
 21
1.0
 12
210.0
 22
148.5
 13
0.0
 23
0.0
 14
10.0
 24
10.0
 15
10.0
 25
10.0
 16
0.0
 26
0.0
 36
1.0
 17
0.0
 27
0.0
 37
0.0
 40
341.0
 41
1.24
 42
50.0
 43
0.0
 44
0.0
 50
0.0
 51
0.0
 71
     0
 72
   100
 73
     1
 74
     3
 75
     0
 76
     0
 77
     0
 78
     0
  0
ENDTAB
  0
TABLE
  2
LTYPE
  5
5
330
0
100
AcDbSymbolTable
 70
     1
  0
LTYPE
  5
14
330
5
100
AcDbSymbolTableRecord
100
AcDbLinetypeTableRecord
  2
BYBLOCK
 70
     0
  3

 72
    65
 73
     0
 40
0.0
  0
LTYPE
  5
15
330
5
100
AcDbSymbolTableRecord
100
AcDbLinetypeTableRecord
  2
BYLAYER
 70
     0
  3

 72
    65
 73
     0
 40
0.0
  0
LTYPE
  5
16
330
5
100
AcDbSymbolTableRecord
100
AcDbLinetypeTableRecord
  2
CONTINUOUS
 70
     0
  3
Solid line
 72
    65
 73
     0
 40
0.0
  0
ENDTAB
  0
TABLE
  2
LAYER
  5
2
100
AcDbSymbolTable
 70
2
  0
LAYER
  5
50
100
AcDbSymbolTableRecord
100
AcDbLayerTableRecord
  2
0
 70
0
  6
CONTINUOUS
  0
LAYER
  5
51
100
AcDbSymbolTableRecord
100
AcDbLayerTableRecord
  2
turtle1
 70
0
  6
CONTINUOUS
  0
ENDTAB
  0
TABLE
  2
STYLE
  5
3
330
0
100
AcDbSymbolTable
 70
     1
  0
STYLE
  5
11
330
3
100
AcDbSymbolTableRecord
100
AcDbTextStyleTableRecord
  2
STANDARD
 70
     0
 40
0.0
 41
1.0
 50
0.0
 71
     0
 42
2.5
  3
txt
  4

  0
ENDTAB
  0
TABLE
  2
VIEW
  5
6
330
0
100
AcDbSymbolTable
 70
     0
  0
ENDTAB
  0
TABLE
  2
UCS
  5
7
330
0
100
AcDbSymbolTable
 70
     0
  0
ENDTAB
  0
TABLE
  2
APPID
  5
9
330
0
100
AcDbSymbolTable
 70
     2
  0
APPID
  5
12
330
9
100
AcDbSymbolTableRecord
100
AcDbRegAppTableRecord
  2
ACAD
 70
     0
  0
ENDTAB
  0
TABLE
  2
DIMSTYLE
  5
A
330
0
100
AcDbSymbolTable
 70
     1
  0
DIMSTYLE
105
27
330
A
100
AcDbSymbolTableRecord
100
AcDbDimStyleTableRecord
  2
ISO-25
 70
     0
  3

  4

  5

  6

  7

 40
1.0
 41
2.5
 42
0.625
 43
3.75
 44
1.25
 45
0.0
 46
0.0
 47
0.0
 48
0.0
140
2.5
141
2.5
142
0.0
143
0.03937007874016
144
1.0
145
0.0
146
1.0
147
0.625
 71
     0
 72
     0
 73
     0
 74
     0
 75
     0
 76
     0
 77
     1
 78
     8
170
     0
171
     3
172
     1
173
     0
174
     0
175
     0
176
     0
177
     0
178
     0
270
     2
271
     2
272
     2
273
     2
274
     3
340
11
275
     0
280
     0
281
     0
282
     0
283
     0
284
     8
285
     0
286
     0
287
     3
288
     0
  0
ENDTAB
  0
TABLE
  2
BLOCK_RECORD
  5
1
330
0
100
AcDbSymbolTable
 70
     1
  0
BLOCK_RECORD
  5
1F
330
1
100
AcDbSymbolTableRecord
100
AcDbBlockTableRecord
  2
*MODEL_SPACE
  0
BLOCK_RECORD
  5
1B
330
1
100
AcDbSymbolTableRecord
100
AcDbBlockTableRecord
  2
*PAPER_SPACE
  0
ENDTAB
  0
ENDSEC
  0
SECTION
  2
BLOCKS
  0
BLOCK
  5
20
330
1F
100
AcDbEntity
  8
0
100
AcDbBlockBegin
  2
*MODEL_SPACE
 70
     0
 10
0.0
 20
0.0
 30
0.0
  3
*MODEL_SPACE
  1

  0
ENDBLK
  5
21
330
1F
100
AcDbEntity
  8
0
100
AcDbBlockEnd
  0
BLOCK
  5
1C
330
1B
100
AcDbEntity
 67
     1
  8
0
100
AcDbBlockBegin
  2
*PAPER_SPACE
  1

  0
ENDBLK
  5
1D
330
1B
100
AcDbEntity
 67
     1
  8
0
100
AcDbBlockEnd
  0
ENDSEC
  0
SECTION
  2
ENTITIES
  0
LWPOLYLINE
  5
100
100
AcDbEntity
  8
turtle1
 62
7
100
AcDbPolyline
 90
4
 70
0
 10
0.000000
 20
83.820000
 30
0.0
 10
29.633333
 20
32.737778
 30
0.0
 10
59.266667
 20
83.820000
 30
0.0
 10
0.000000
 20
83.820000
 30
0.0
  0
LWPOLYLINE
  5
101
100
AcDbEntity
  8
turtle1
 62
7
100
AcDbPolyline
 90
4
 70
0
 10
15.522222
 20
58.702222
 30
0.0
 10
43.462222
 20
58.702222
 30
0.0
 10
29.633333
 20
82.973333
 30
0.0
 10
15.522222
 20
58.702222
 30
0.0
  0
LWPOLYLINE
  5
102
100
AcDbEntity
  8
turtle1
 62
7
100
AcDbPolyline
 90
4
 70
0
 10
22.860000
 20
46.002222
 30
0.0
 10
35.842222
 20
46.002222
 30
0.0
 10
29.351111
 20
57.573333
 30
0.0
 10
22.860000
 20
46.002222
 30
0.0
  0
LWPOLYLINE
  5
103
100
AcDbEntity
  8
turtle1
 62
7
100
AcDbPolyline
 90
4
 70
0
 10
26.528889
 20
39.793333
 30
0.0
 10
32.173333
 20
39.793333
 30
0.0
 10
29.351111
 20
44.873333
 30
0.0
 10
26.528889
 20
39.793333
 30
0.0
  0
LWPOLYLINE
  5
104
100
AcDbEntity
  8
turtle1
 62
7
100
AcDbPolyline
 90
4
 70
0
 10
28.222222
 20
36.406667
 30
0.0
 10
30.480000
 20
36.406667
 30
0.0
 10
29.351111
 20
38.382222
 30
0.0
 10
28.222222
 20
36.406667
 30
0.0
  0
LWPOLYLINE
  5
105
100
AcDbEntity
  8
turtle1
 62
7
100
AcDbPolyline
 90
4
 70
0
 10
24.553333
 20
42.897778
 30
0.0
 10
26.811111
 20
42.897778
 30
0.0
 10
25.682222
 20
44.873333
 30
0.0
 10
24.553333
 20
42.897778
 30
0.0
  0
LWPOLYLINE
  5
106
100
AcDbEntity
  8
turtle1
 62
7
100
AcDbPolyline
 90
4
 70
0
 10
31.891111
 20
42.897778
 30
0.0
 10
34.148889
 20
42.897778
 30
0.0
 10
33.020000
 20
44.873333
 30
0.0
 10
31.891111
 20
42.897778
 30
0.0
  0
LWPOLYLINE
  5
107
100
AcDbEntity
  8
turtle1
 62
7
100
AcDbPolyline
 90
4
 70
0
 10
19.191111
 20
52.493333
 30
0.0
 10
24.835556
 20
52.493333
 30
0.0
 10
22.013333
 20
57.573333
 30
0.0
 10
19.191111
 20
52.493333
 30
0.0
  0
LWPOLYLINE
  5
108
100
AcDbEntity
  8
turtle1
 62
7
100
AcDbPolyline
 90
4
 70
0
 10
20.884444
 20
49.106667
 30
0.0
 10
23.142222
 20
49.106667
 30
0.0
 10
22.013333
 20
51.082222
 30
0.0
 10
20.884444
 20
49.106667
 30
0.0
  0
LWPOLYLINE
  5
109
100
AcDbEntity
  8
turtle1
 62
7
100
AcDbPolyline
 90
4
 70
0
 10
17.215556
 20
55.597778
 30
0.0
 10
19.473333
 20
55.597778
 30
0.0
 10
18.344444
 20
57.573333
 30
0.0
 10
17.215556
 20
55.597778
 30
0.0
  0
LWPOLYLINE
  5
10a
100
AcDbEntity
  8
turtle1
 62
7
100
AcDbPolyline
 90
4
 70
0
 10
24.553333
 20
55.597778
 30
0.0
 10
26.811111
 20
55.597778
 30
0.0
 10
25.682222
 20
57.573333
 30
0.0
 10
24.553333
 20
55.597778
 30
0.0
  0
LWPOLYLINE
  5
10b
100
AcDbEntity
  8
turtle1
 62
7
100
AcDbPolyline
 90
4
 70
0
 10
33.866667
 20
52.493333
 30
0.0
 10
39.511111
 20
52.493333
 30
0.0
 10
36.688889
 20
57.573333
 30
0.0
 10
33.866667
 20
52.493333
 30
0.0
  0
LWPOLYLINE
  5
10c
100
AcDbEntity
  8
turtle1
 62
7
100
AcDbPolyline
 90
4
 70
0
 10
35.560000
 20
49.106667
 30
0.0
 10
37.817778
 20
49.106667
 30
0.0
 10
36.688889
 20
51.082222
 30
0.0
 10
35.560000
 20
49.106667
 30
0.0
  0
LWPOLYLINE
  5
10d
100
AcDbEntity
  8
turtle1
 62
7
100
AcDbPolyline
 90
4
 70
0
 10
31.891111
 20
55.597778
 30
0.0
 10
34.148889
 20
55.597778
 30
0.0
 10
33.020000
 20
57.573333
 30
0.0
 10
31.891111
 20
55.597778
 30
0.0
  0
LWPOLYLINE
  5
10e
100
AcDbEntity
  8
turtle1
 62
7
100
AcDbPolyline
 90
4
 70
0
 10
39.228889
 20
55.597778
 30
0.0
 10
41.486667
 20
55.597778
 30
0.0
 10
40.357778
 20
57.573333
 30
0.0
 10
39.228889
 20
55.597778
 30
0.0
  0
LWPOLYLINE
  5
10f
100
AcDbEntity
  8
turtle1
 62
7
100
AcDbPolyline
 90
4
 70
0
 10
7.902222
 20
71.684444
 30
0.0
 10
21.166667
 20
71.684444
 30
0.0
 10
14.675556
 20
82.973333
 30
0.0
 10
7.902222
 20
71.684444
 30
0.0
  0
LWPOLYLINE
  5
110
100
AcDbEntity
  8
turtle1
 62
7
100
AcDbPolyline
 90
4
 70
0
 10
11.571111
 20
65.193333
 30
0.0
 10
17.497778
 20
65.193333
 30
0.0
 10
14.675556
 20
70.273333
 30
0.0
 10
11.571111
 20
65.193333
 30
0.0
  0
LWPOLYLINE
  5
111
100
AcDbEntity
  8
turtle1
 62
7
100
AcDbPolyline
 90
4
 70
0
 10
13.546667
 20
62.088889
 30
0.0
 10
15.522222
 20
62.088889
 30
0.0
 10
14.675556
 20
64.064444
 30
0.0
 10
13.546667
 20
62.088889
 30
0.0
  0
LWPOLYLINE
  5
112
100
AcDbEntity
  8
turtle1
 62
7
100
AcDbPolyline
 90
4
 70
0
 10
9.877778
 20
68.580000
 30
0.0
 10
11.853333
 20
68.580000
 30
0.0
 10
11.006667
 20
70.273333
 30
0.0
 10
9.877778
 20
68.580000
 30
0.0
  0
LWPOLYLINE
  5
113
100
AcDbEntity
  8
turtle1
 62
7
100
AcDbPolyline
 90
4
 70
0
 10
17.215556
 20
68.580000
 30
0.0
 10
19.191111
 20
68.580000
 30
0.0
 10
18.344444
 20
70.273333
 30
0.0
 10
17.215556
 20
68.580000
 30
0.0
  0
LWPOLYLINE
  5
114
100
AcDbEntity
  8
turtle1
 62
7
100
AcDbPolyline
 90
4
 70
0
 10
4.233333
 20
77.893333
 30
0.0
 10
10.160000
 20
77.893333
 30
0.0
 10
7.337778
 20
83.255556
 30
0.0
 10
4.233333
 20
77.893333
 30
0.0
  0
LWPOLYLINE
  5
115
100
AcDbEntity
  8
turtle1
 62
7
100
AcDbPolyline
 90
4
 70
0
 10
6.208889
 20
74.788889
 30
0.0
 10
8.184444
 20
74.788889
 30
0.0
 10
7.337778
 20
76.764444
 30
0.0
 10
6.208889
 20
74.788889
 30
0.0
  0
LWPOLYLINE
  5
116
100
AcDbEntity
  8
turtle1
 62
7
100
AcDbPolyline
 90
4
 70
0
 10
2.540000
 20
81.280000
 30
0.0
 10
4.515556
 20
81.280000
 30
0.0
 10
3.668889
 20
83.255556
 30
0.0
 10
2.540000
 20
81.280000
 30
0.0
  0
LWPOLYLINE
  5
117
100
AcDbEntity
  8
turtle1
 62
7
100
AcDbPolyline
 90
4
 70
0
 10
9.877778
 20
81.280000
 30
0.0
 10
11.853333
 20
81.280000
 30
0.0
 10
11.006667
 20
82.973333
 30
0.0
 10
9.877778
 20
81.280000
 30
0.0
  0
LWPOLYLINE
  5
118
100
AcDbEntity
  8
turtle1
 62
7
100
AcDbPolyline
 90
4
 70
0
 10
18.908889
 20
77.893333
 30
0.0
 10
24.835556
 20
77.893333
 30
0.0
 10
22.013333
 20
82.973333
 30
0.0
 10
18.908889
 20
77.893333
 30
0.0
  0
LWPOLYLINE
  5
119
100
AcDbEntity
  8
turtle1
 62
7
100
AcDbPolyline
 90
4
 70
0
 10
20.884444
 20
74.788889
 30
0.0
 10
22.860000
 20
74.788889
 30
0.0
 10
22.013333
 20
76.764444
 30
0.0
 10
20.884444
 20
74.788889
 30
0.0
  0
LWPOLYLINE
  5
11a
100
AcDbEntity
  8
turtle1
 62
7
100
AcDbPolyline
 90
4
 70
0
 10
17.215556
 20
81.280000
 30
0.0
 10
19.191111
 20
81.280000
 30
0.0
 10
18.344444
 20
82.973333
 30
0.0
 10
17.215556
 20
81.280000
 30
0.0
  0
LWPOLYLINE
  5
11b
100
AcDbEntity
  8
turtle1
 62
7
100
AcDbPolyline
 90
4
 70
0
 10
24.553333
 20
81.280000
 30
0.0
 10
26.528889
 20
81.280000
 30
0.0
 10
25.682222
 20
82.973333
 30
0.0
 10
24.553333
 20
81.280000
 30
0.0
  0
LWPOLYLINE
  5
11c
100
AcDbEntity
  8
turtle1
 62
7
100
AcDbPolyline
 90
4
 70
0
 10
37.535556
 20
71.684444
 30
0.0
 10
50.800000
 20
71.684444
 30
0.0
 10
44.308889
 20
82.973333
 30
0.0
 10
37.535556
 20
71.684444
 30
0.0
  0
LWPOLYLINE
  5
11d
100
AcDbEntity
  8
turtle1
 62
7
100
AcDbPolyline
 90
4
 70
0
 10
41.204444
 20
65.193333
 30
0.0
 10
47.131111
 20
65.193333
 30
0.0
 10
44.026667
 20
70.273333
 30
0.0
 10
41.204444
 20
65.193333
 30
0.0
  0
LWPOLYLINE
  5
11e
100
AcDbEntity
  8
turtle1
 62
7
100
AcDbPolyline
 90
4
 70
0
 10
43.180000
 20
62.088889
 30
0.0
 10
45.155556
 20
62.088889
 30
0.0
 10
44.026667
 20
64.064444
 30
0.0
 10
43.180000
 20
62.088889
 30
0.0
  0
LWPOLYLINE
  5
11f
100
AcDbEntity
  8
turtle1
 62
7
100
AcDbPolyline
 90
4
 70
0
 10
39.511111
 20
68.580000
 30
0.0
 10
41.486667
 20
68.580000
 30
0.0
 10
40.357778
 20
70.273333
 30
0.0
 10
39.511111
 20
68.580000
 30
0.0
  0
LWPOLYLINE
  5
120
100
AcDbEntity
  8
turtle1
 62
7
100
AcDbPolyline
 90
4
 70
0
 10
46.848889
 20
68.580000
 30
0.0
 10
48.824444
 20
68.580000
 30
0.0
 10
47.695556
 20
70.273333
 30
0.0
 10
46.848889
 20
68.580000
 30
0.0
  0
LWPOLYLINE
  5
121
100
AcDbEntity
  8
turtle1
 62
7
100
AcDbPolyline
 90
4
 70
0
 10
33.866667
 20
77.893333
 30
0.0
 10
39.793333
 20
77.893333
 30
0.0
 10
36.971111
 20
82.973333
 30
0.0
 10
33.866667
 20
77.893333
 30
0.0
  0
LWPOLYLINE
  5
122
100
AcDbEntity
  8
turtle1
 62
7
100
AcDbPolyline
 90
4
 70
0
 10
35.842222
 20
74.788889
 30
0.0
 10
37.817778
 20
74.788889
 30
0.0
 10
36.971111
 20
76.764444
 30
0.0
 10
35.842222
 20
74.788889
 30
0.0
  0
LWPOLYLINE
  5
123
100
AcDbEntity
  8
turtle1
 62
7
100
AcDbPolyline
 90
4
 70
0
 10
32.173333
 20
81.280000
 30
0.0
 10
34.148889
 20
81.280000
 30
0.0
 10
33.302222
 20
82.973333
 30
0.0
 10
32.173333
 20
81.280000
 30
0.0
  0
LWPOLYLINE
  5
124
100
AcDbEntity
  8
turtle1
 62
7
100
AcDbPolyline
 90
4
 70
0
 10
39.511111
 20
81.280000
 30
0.0
 10
41.486667
 20
81.280000
 30
0.0
 10
40.640000
 20
82.973333
 30
0.0
 10
39.511111
 20
81.280000
 30
0.0
  0
LWPOLYLINE
  5
125
100
AcDbEntity
  8
turtle1
 62
7
100
AcDbPolyline
 90
4
 70
0
 10
48.542222
 20
77.893333
 30
0.0
 10
54.468889
 20
77.893333
 30
0.0
 10
51.646667
 20
82.973333
 30
0.0
 10
48.542222
 20
77.893333
 30
0.0
  0
LWPOLYLINE
  5
126
100
AcDbEntity
  8
turtle1
 62
7
100
AcDbPolyline
 90
4
 70
0
 10
50.517778
 20
74.788889
 30
0.0
 10
52.493333
 20
74.788889
 30
0.0
 10
51.646667
 20
76.764444
 30
0.0
 10
50.517778
 20
74.788889
 30
0.0
  0
LWPOLYLINE
  5
127
100
AcDbEntity
  8
turtle1
 62
7
100
AcDbPolyline
 90
4
 70
0
 10
46.848889
 20
81.280000
 30
0.0
 10
48.824444
 20
81.280000
 30
0.0
 10
47.977778
 20
82.973333
 30
0.0
 10
46.848889
 20
81.280000
 30
0.0
  0
LWPOLYLINE
  5
128
100
AcDbEntity
  8
turtle1
 62
7
100
AcDbPolyline
 90
4
 70
0
 10
54.186667
 20
81.280000
 30
0.0
 10
56.162222
 20
81.280000
 30
0.0
 10
55.315556
 20
82.973333
 30
0.0
 10
54.186667
 20
81.280000
 30
0.0
  0
ENDSEC
  0
SECTION
  2
OBJECTS
  0
DICTIONARY
  5
C
330
0
100
AcDbDictionary
  3
ACAD_GROUP
350
D
  3
ACAD_MLINESTYLE
350
17
  0
DICTIONARY
  5
D
330
C
100
AcDbDictionary
  0
DICTIONARY
  5
1A
330
C
100
AcDbDictionary
  0
DICTIONARY
  5
17
330
C
100
AcDbDictionary
  3
STANDARD
350
18
  0
DICTIONARY
  5
19
330
C
100
AcDbDictionary
  0
ENDSEC
  0
EOF
