<?xml version="1.0" encoding="UTF-8" standalone="no"?>

<svg
   xmlns:dc="http://purl.org/dc/elements/1.1/"
   xmlns:cc="http://creativecommons.org/ns#"
   xmlns:rdf="http://www.w3.org/1999/02/22-rdf-syntax-ns#"
   xmlns:svg="http://www.w3.org/2000/svg"
   xmlns="http://www.w3.org/2000/svg"
   xmlns:inkscape="http://www.inkscape.org/namespaces/inkscape"
   version="1.1"
   x="0"
   y="0"
   width="210mm"
   height="297mm"
   viewBox="0 0 210 297"
   id="turtle-svg">
<g id="turtle1" inkscape:groupmode="layer" inkscape:label="turtle1" >
  <path style="fill:none;stroke:#000000;stroke-width:0.2;stroke-linecap:butt;stroke-linejoin:miter;stroke-opacity:1" 
        d="M0,0 L105,181 L210,0 L0,0 " />
  <path style="fill:none;stroke:#000000;stroke-width:0.2;stroke-linecap:butt;stroke-linejoin:miter;stroke-opacity:1" 
        d="M55,89 L154,89 L105,3 L55,89 " />
  <path style="fill:none;stroke:#000000;stroke-width:0.2;stroke-linecap:butt;stroke-linejoin:miter;stroke-opacity:1" 
        d="M81,134 L127,134 L104,93 L81,134 " />
  <path style="fill:none;stroke:#000000;stroke-width:0.2;stroke-linecap:butt;stroke-linejoin:miter;stroke-opacity:1" 
        d="M94,156 L114,156 L104,138 L94,156 " />
  <path style="fill:none;stroke:#000000;stroke-width:0.2;stroke-linecap:butt;stroke-linejoin:miter;stroke-opacity:1" 
        d="M100,168 L108,168 L104,161 L100,168 " />
  <path style="fill:none;stroke:#000000;stroke-width:0.2;stroke-linecap:butt;stroke-linejoin:miter;stroke-opacity:1" 
        d="M87,145 L95,145 L91,138 L87,145 " />
  <path style="fill:none;stroke:#000000;stroke-width:0.2;stroke-linecap:butt;stroke-linejoin:miter;stroke-opacity:1" 
        d="M113,145 L121,145 L117,138 L113,145 " />
  <path style="fill:none;stroke:#000000;stroke-width:0.2;stroke-linecap:butt;stroke-linejoin:miter;stroke-opacity:1" 
        d="M68,111 L88,111 L78,93 L68,111 " />
  <path style="fill:none;stroke:#000000;stroke-width:0.2;stroke-linecap:butt;stroke-linejoin:miter;stroke-opacity:1" 
        d="M74,123 L82,123 L78,116 L74,123 " />
  <path style="fill:none;stroke:#000000;stroke-width:0.2;stroke-linecap:butt;stroke-linejoin:miter;stroke-opacity:1" 
        d="M61,100 L69,100 L65,93 L61,100 " />
  <path style="fill:none;stroke:#000000;stroke-width:0.2;stroke-linecap:butt;stroke-linejoin:miter;stroke-opacity:1" 
        d="M87,100 L95,100 L91,93 L87,100 " />
  <path style="fill:none;stroke:#000000;stroke-width:0.2;stroke-linecap:butt;stroke-linejoin:miter;stroke-opacity:1" 
        d="M120,111 L140,111 L130,93 L120,111 " />
  <path style="fill:none;stroke:#000000;stroke-width:0.2;stroke-linecap:butt;stroke-linejoin:miter;stroke-opacity:1" 
        d="M126,123 L134,123 L130,116 L126,123 " />
  <path style="fill:none;stroke:#000000;stroke-width:0.2;stroke-linecap:butt;stroke-linejoin:miter;stroke-opacity:1" 
        d="M113,100 L121,100 L117,93 L113,100 " />
  <path style="fill:none;stroke:#000000;stroke-width:0.2;stroke-linecap:butt;stroke-linejoin:miter;stroke-opacity:1" 
        d="M139,100 L147,100 L143,93 L139,100 " />
  <path style="fill:none;stroke:#000000;stroke-width:0.2;stroke-linecap:butt;stroke-linejoin:miter;stroke-opacity:1" 
        d="M28,43 L75,43 L52,3 L28,43 " />
  <path style="fill:none;stroke:#000000;stroke-width:0.2;stroke-linecap:butt;stroke-linejoin:miter;stroke-opacity:1" 
        d="M41,66 L62,66 L52,48 L41,66 " />
  <path style="fill:none;stroke:#000000;stroke-width:0.2;stroke-linecap:butt;stroke-linejoin:miter;stroke-opacity:1" 
        d="M48,77 L55,77 L52,70 L48,77 " />
  <path style="fill:none;stroke:#000000;stroke-width:0.2;stroke-linecap:butt;stroke-linejoin:miter;stroke-opacity:1" 
        d="M35,54 L42,54 L39,48 L35,54 " />
  <path style="fill:none;stroke:#000000;stroke-width:0.2;stroke-linecap:butt;stroke-linejoin:miter;stroke-opacity:1" 
        d="M61,54 L68,54 L65,48 L61,54 " />
  <path style="fill:none;stroke:#000000;stroke-width:0.2;stroke-linecap:butt;stroke-linejoin:miter;stroke-opacity:1" 
        d="M15,21 L36,21 L26,2 L15,21 " />
  <path style="fill:none;stroke:#000000;stroke-width:0.2;stroke-linecap:butt;stroke-linejoin:miter;stroke-opacity:1" 
        d="M22,32 L29,32 L26,25 L22,32 " />
  <path style="fill:none;stroke:#000000;stroke-width:0.2;stroke-linecap:butt;stroke-linejoin:miter;stroke-opacity:1" 
        d="M9,9 L16,9 L13,2 L9,9 " />
  <path style="fill:none;stroke:#000000;stroke-width:0.2;stroke-linecap:butt;stroke-linejoin:miter;stroke-opacity:1" 
        d="M35,9 L42,9 L39,3 L35,9 " />
  <path style="fill:none;stroke:#000000;stroke-width:0.2;stroke-linecap:butt;stroke-linejoin:miter;stroke-opacity:1" 
        d="M67,21 L88,21 L78,3 L67,21 " />
  <path style="fill:none;stroke:#000000;stroke-width:0.2;stroke-linecap:butt;stroke-linejoin:miter;stroke-opacity:1" 
        d="M74,32 L81,32 L78,25 L74,32 " />
  <path style="fill:none;stroke:#000000;stroke-width:0.2;stroke-linecap:butt;stroke-linejoin:miter;stroke-opacity:1" 
        d="M61,9 L68,9 L65,3 L61,9 " />
  <path style="fill:none;stroke:#000000;stroke-width:0.2;stroke-linecap:butt;stroke-linejoin:miter;stroke-opacity:1" 
        d="M87,9 L94,9 L91,3 L87,9 " />
  <path style="fill:none;stroke:#000000;stroke-width:0.2;stroke-linecap:butt;stroke-linejoin:miter;stroke-opacity:1" 
        d="M133,43 L180,43 L157,3 L133,43 " />
  <path style="fill:none;stroke:#000000;stroke-width:0.2;stroke-linecap:butt;stroke-linejoin:miter;stroke-opacity:1" 
        d="M146,66 L167,66 L156,48 L146,66 " />
  <path style="fill:none;stroke:#000000;stroke-width:0.2;stroke-linecap:butt;stroke-linejoin:miter;stroke-opacity:1" 
        d="M153,77 L160,77 L156,70 L153,77 " />
  <path style="fill:none;stroke:#000000;stroke-width:0.2;stroke-linecap:butt;stroke-linejoin:miter;stroke-opacity:1" 
        d="M140,54 L147,54 L143,48 L140,54 " />
  <path style="fill:none;stroke:#000000;stroke-width:0.2;stroke-linecap:butt;stroke-linejoin:miter;stroke-opacity:1" 
        d="M166,54 L173,54 L169,48 L166,54 " />
  <path style="fill:none;stroke:#000000;stroke-width:0.2;stroke-linecap:butt;stroke-linejoin:miter;stroke-opacity:1" 
        d="M120,21 L141,21 L131,3 L120,21 " />
  <path style="fill:none;stroke:#000000;stroke-width:0.2;stroke-linecap:butt;stroke-linejoin:miter;stroke-opacity:1" 
        d="M127,32 L134,32 L131,25 L127,32 " />
  <path style="fill:none;stroke:#000000;stroke-width:0.2;stroke-linecap:butt;stroke-linejoin:miter;stroke-opacity:1" 
        d="M114,9 L121,9 L118,3 L114,9 " />
  <path style="fill:none;stroke:#000000;stroke-width:0.2;stroke-linecap:butt;stroke-linejoin:miter;stroke-opacity:1" 
        d="M140,9 L147,9 L144,3 L140,9 " />
  <path style="fill:none;stroke:#000000;stroke-width:0.2;stroke-linecap:butt;stroke-linejoin:miter;stroke-opacity:1" 
        d="M172,21 L193,21 L183,3 L172,21 " />
  <path style="fill:none;stroke:#000000;stroke-width:0.2;stroke-linecap:butt;stroke-linejoin:miter;stroke-opacity:1" 
        d="M179,32 L186,32 L183,25 L179,32 " />
  <path style="fill:none;stroke:#000000;stroke-width:0.2;stroke-linecap:butt;stroke-linejoin:miter;stroke-opacity:1" 
        d="M166,9 L173,9 L170,3 L166,9 " />
  <path style="fill:none;stroke:#000000;stroke-width:0.2;stroke-linecap:butt;stroke-linejoin:miter;stroke-opacity:1" 
        d="M192,9 L199,9 L196,3 L192,9 " />
</g>
</svg>