  0
SECTION
  2
HEADER
  9
$ACADVER
  1
AC1014
  9
$HANDSEED
  5
FFFF
  9
$MEASUREMENT
 70
     1
  0
ENDSEC
  0
SECTION
  2
TABLES
  0
TABLE
  2
VPORT
  5
8
330
0
100
AcDbSymbolTable
 70
     4
  0
VPORT
  5
2E
330
8
100
AcDbSymbolTableRecord
100
AcDbViewportTableRecord
  2
*ACTIVE
 70
     0
 10
0.0
 20
0.0
 11
1.0
 21
1.0
 12
210.0
 22
148.5
 13
0.0
 23
0.0
 14
10.0
 24
10.0
 15
10.0
 25
10.0
 16
0.0
 26
0.0
 36
1.0
 17
0.0
 27
0.0
 37
0.0
 40
341.0
 41
1.24
 42
50.0
 43
0.0
 44
0.0
 50
0.0
 51
0.0
 71
     0
 72
   100
 73
     1
 74
     3
 75
     0
 76
     0
 77
     0
 78
     0
  0
ENDTAB
  0
TABLE
  2
LTYPE
  5
5
330
0
100
AcDbSymbolTable
 70
     1
  0
LTYPE
  5
14
330
5
100
AcDbSymbolTableRecord
100
AcDbLinetypeTableRecord
  2
BYBLOCK
 70
     0
  3

 72
    65
 73
     0
 40
0.0
  0
LTYPE
  5
15
330
5
100
AcDbSymbolTableRecord
100
AcDbLinetypeTableRecord
  2
BYLAYER
 70
     0
  3

 72
    65
 73
     0
 40
0.0
  0
LTYPE
  5
16
330
5
100
AcDbSymbolTableRecord
100
AcDbLinetypeTableRecord
  2
CONTINUOUS
 70
     0
  3
Solid line
 72
    65
 73
     0
 40
0.0
  0
ENDTAB
  0
TABLE
  2
LAYER
  5
2
100
AcDbSymbolTable
 70
2
  0
LAYER
  5
50
100
AcDbSymbolTableRecord
100
AcDbLayerTableRecord
  2
0
 70
0
  6
CONTINUOUS
  0
LAYER
  5
51
100
AcDbSymbolTableRecord
100
AcDbLayerTableRecord
  2
turtle1
 70
0
  6
CONTINUOUS
  0
ENDTAB
  0
TABLE
  2
STYLE
  5
3
330
0
100
AcDbSymbolTable
 70
     1
  0
STYLE
  5
11
330
3
100
AcDbSymbolTableRecord
100
AcDbTextStyleTableRecord
  2
STANDARD
 70
     0
 40
0.0
 41
1.0
 50
0.0
 71
     0
 42
2.5
  3
txt
  4

  0
ENDTAB
  0
TABLE
  2
VIEW
  5
6
330
0
100
AcDbSymbolTable
 70
     0
  0
ENDTAB
  0
TABLE
  2
UCS
  5
7
330
0
100
AcDbSymbolTable
 70
     0
  0
ENDTAB
  0
TABLE
  2
APPID
  5
9
330
0
100
AcDbSymbolTable
 70
     2
  0
APPID
  5
12
330
9
100
AcDbSymbolTableRecord
100
AcDbRegAppTableRecord
  2
ACAD
 70
     0
  0
ENDTAB
  0
TABLE
  2
DIMSTYLE
  5
A
330
0
100
AcDbSymbolTable
 70
     1
  0
DIMSTYLE
105
27
330
A
100
AcDbSymbolTableRecord
100
AcDbDimStyleTableRecord
  2
ISO-25
 70
     0
  3

  4

  5

  6

  7

 40
1.0
 41
2.5
 42
0.625
 43
3.75
 44
1.25
 45
0.0
 46
0.0
 47
0.0
 48
0.0
140
2.5
141
2.5
142
0.0
143
0.03937007874016
144
1.0
145
0.0
146
1.0
147
0.625
 71
     0
 72
     0
 73
     0
 74
     0
 75
     0
 76
     0
 77
     1
 78
     8
170
     0
171
     3
172
     1
173
     0
174
     0
175
     0
176
     0
177
     0
178
     0
270
     2
271
     2
272
     2
273
     2
274
     3
340
11
275
     0
280
     0
281
     0
282
     0
283
     0
284
     8
285
     0
286
     0
287
     3
288
     0
  0
ENDTAB
  0
TABLE
  2
BLOCK_RECORD
  5
1
330
0
100
AcDbSymbolTable
 70
     1
  0
BLOCK_RECORD
  5
1F
330
1
100
AcDbSymbolTableRecord
100
AcDbBlockTableRecord
  2
*MODEL_SPACE
  0
BLOCK_RECORD
  5
1B
330
1
100
AcDbSymbolTableRecord
100
AcDbBlockTableRecord
  2
*PAPER_SPACE
  0
ENDTAB
  0
ENDSEC
  0
SECTION
  2
BLOCKS
  0
BLOCK
  5
20
330
1F
100
AcDbEntity
  8
0
100
AcDbBlockBegin
  2
*MODEL_SPACE
 70
     0
 10
0.0
 20
0.0
 30
0.0
  3
*MODEL_SPACE
  1

  0
ENDBLK
  5
21
330
1F
100
AcDbEntity
  8
0
100
AcDbBlockEnd
  0
BLOCK
  5
1C
330
1B
100
AcDbEntity
 67
     1
  8
0
100
AcDbBlockBegin
  2
*PAPER_SPACE
  1

  0
ENDBLK
  5
1D
330
1B
100
AcDbEntity
 67
     1
  8
0
100
AcDbBlockEnd
  0
ENDSEC
  0
SECTION
  2
ENTITIES
  0
LWPOLYLINE
  5
100
100
AcDbEntity
  8
turtle1
 62
7
100
AcDbPolyline
 90
4
 70
0
 10
0.000000
 20
83.820000
 30
0.0
 10
29.633333
 20
32.493561
 30
0.0
 10
59.266667
 20
83.820000
 30
0.0
 10
0.000000
 20
83.820000
 30
0.0
  0
LWPOLYLINE
  5
101
100
AcDbEntity
  8
turtle1
 62
7
100
AcDbPolyline
 90
4
 70
0
 10
15.061078
 20
58.297892
 30
0.0
 10
44.205588
 20
58.297892
 30
0.0
 10
29.633333
 20
83.537778
 30
0.0
 10
15.061078
 20
58.297892
 30
0.0
  0
LWPOLYLINE
  5
102
100
AcDbEntity
  8
turtle1
 62
7
100
AcDbPolyline
 90
4
 70
0
 10
22.398856
 20
45.588488
 30
0.0
 10
36.585588
 20
45.588488
 30
0.0
 10
29.492222
 20
57.874558
 30
0.0
 10
22.398856
 20
45.588488
 30
0.0
  0
LWPOLYLINE
  5
103
100
AcDbEntity
  8
turtle1
 62
7
100
AcDbPolyline
 90
4
 70
0
 10
26.067745
 20
39.233786
 30
0.0
 10
32.916700
 20
39.233786
 30
0.0
 10
29.492222
 20
45.165154
 30
0.0
 10
26.067745
 20
39.233786
 30
0.0
  0
LWPOLYLINE
  5
104
100
AcDbEntity
  8
turtle1
 62
7
100
AcDbPolyline
 90
4
 70
0
 10
27.902189
 20
36.056435
 30
0.0
 10
31.082255
 20
36.056435
 30
0.0
 10
29.492222
 20
38.810452
 30
0.0
 10
27.902189
 20
36.056435
 30
0.0
  0
LWPOLYLINE
  5
105
100
AcDbEntity
  8
turtle1
 62
7
100
AcDbPolyline
 90
4
 70
0
 10
28.748856
 20
34.589965
 30
0.0
 10
29.953366
 20
34.589965
 30
0.0
 10
29.351111
 20
35.633101
 30
0.0
 10
28.748856
 20
34.589965
 30
0.0
  0
LWPOLYLINE
  5
106
100
AcDbEntity
  8
turtle1
 62
7
100
AcDbPolyline
 90
4
 70
0
 10
29.172189
 20
33.856730
 30
0.0
 10
29.530033
 20
33.856730
 30
0.0
 10
29.351111
 20
34.166632
 30
0.0
 10
29.172189
 20
33.856730
 30
0.0
  0
LWPOLYLINE
  5
107
100
AcDbEntity
  8
turtle1
 62
7
100
AcDbPolyline
 90
4
 70
0
 10
28.325523
 20
35.323200
 30
0.0
 10
28.683366
 20
35.323200
 30
0.0
 10
28.504444
 20
35.633101
 30
0.0
 10
28.325523
 20
35.323200
 30
0.0
  0
LWPOLYLINE
  5
108
100
AcDbEntity
  8
turtle1
 62
7
100
AcDbPolyline
 90
4
 70
0
 10
30.018856
 20
35.323200
 30
0.0
 10
30.376700
 20
35.323200
 30
0.0
 10
30.197778
 20
35.633101
 30
0.0
 10
30.018856
 20
35.323200
 30
0.0
  0
LWPOLYLINE
  5
109
100
AcDbEntity
  8
turtle1
 62
7
100
AcDbPolyline
 90
4
 70
0
 10
26.914411
 20
37.767316
 30
0.0
 10
28.118922
 20
37.767316
 30
0.0
 10
27.516667
 20
38.810452
 30
0.0
 10
26.914411
 20
37.767316
 30
0.0
  0
LWPOLYLINE
  5
10a
100
AcDbEntity
  8
turtle1
 62
7
100
AcDbPolyline
 90
4
 70
0
 10
27.337745
 20
37.034081
 30
0.0
 10
27.695588
 20
37.034081
 30
0.0
 10
27.516667
 20
37.343983
 30
0.0
 10
27.337745
 20
37.034081
 30
0.0
  0
LWPOLYLINE
  5
10b
100
AcDbEntity
  8
turtle1
 62
7
100
AcDbPolyline
 90
4
 70
0
 10
26.491078
 20
38.500551
 30
0.0
 10
26.848922
 20
38.500551
 30
0.0
 10
26.670000
 20
38.810452
 30
0.0
 10
26.491078
 20
38.500551
 30
0.0
  0
LWPOLYLINE
  5
10c
100
AcDbEntity
  8
turtle1
 62
7
100
AcDbPolyline
 90
4
 70
0
 10
28.184411
 20
38.500551
 30
0.0
 10
28.542255
 20
38.500551
 30
0.0
 10
28.363333
 20
38.810452
 30
0.0
 10
28.184411
 20
38.500551
 30
0.0
  0
LWPOLYLINE
  5
10d
100
AcDbEntity
  8
turtle1
 62
7
100
AcDbPolyline
 90
4
 70
0
 10
30.583300
 20
37.767316
 30
0.0
 10
31.787811
 20
37.767316
 30
0.0
 10
31.185556
 20
38.810452
 30
0.0
 10
30.583300
 20
37.767316
 30
0.0
  0
LWPOLYLINE
  5
10e
100
AcDbEntity
  8
turtle1
 62
7
100
AcDbPolyline
 90
4
 70
0
 10
31.006634
 20
37.034081
 30
0.0
 10
31.364477
 20
37.034081
 30
0.0
 10
31.185556
 20
37.343983
 30
0.0
 10
31.006634
 20
37.034081
 30
0.0
  0
LWPOLYLINE
  5
10f
100
AcDbEntity
  8
turtle1
 62
7
100
AcDbPolyline
 90
4
 70
0
 10
30.159967
 20
38.500551
 30
0.0
 10
30.517811
 20
38.500551
 30
0.0
 10
30.338889
 20
38.810452
 30
0.0
 10
30.159967
 20
38.500551
 30
0.0
  0
LWPOLYLINE
  5
110
100
AcDbEntity
  8
turtle1
 62
7
100
AcDbPolyline
 90
4
 70
0
 10
31.853300
 20
38.500551
 30
0.0
 10
32.211144
 20
38.500551
 30
0.0
 10
32.032222
 20
38.810452
 30
0.0
 10
31.853300
 20
38.500551
 30
0.0
  0
LWPOLYLINE
  5
111
100
AcDbEntity
  8
turtle1
 62
7
100
AcDbPolyline
 90
4
 70
0
 10
24.233300
 20
42.411137
 30
0.0
 10
27.413366
 20
42.411137
 30
0.0
 10
25.823333
 20
45.165154
 30
0.0
 10
24.233300
 20
42.411137
 30
0.0
  0
LWPOLYLINE
  5
112
100
AcDbEntity
  8
turtle1
 62
7
100
AcDbPolyline
 90
4
 70
0
 10
25.079967
 20
40.944667
 30
0.0
 10
26.284477
 20
40.944667
 30
0.0
 10
25.682222
 20
41.987803
 30
0.0
 10
25.079967
 20
40.944667
 30
0.0
  0
LWPOLYLINE
  5
113
100
AcDbEntity
  8
turtle1
 62
7
100
AcDbPolyline
 90
4
 70
0
 10
25.503300
 20
40.211432
 30
0.0
 10
25.861144
 20
40.211432
 30
0.0
 10
25.682222
 20
40.521334
 30
0.0
 10
25.503300
 20
40.211432
 30
0.0
  0
LWPOLYLINE
  5
114
100
AcDbEntity
  8
turtle1
 62
7
100
AcDbPolyline
 90
4
 70
0
 10
24.656634
 20
41.677902
 30
0.0
 10
25.014477
 20
41.677902
 30
0.0
 10
24.835556
 20
41.987803
 30
0.0
 10
24.656634
 20
41.677902
 30
0.0
  0
LWPOLYLINE
  5
115
100
AcDbEntity
  8
turtle1
 62
7
100
AcDbPolyline
 90
4
 70
0
 10
26.349967
 20
41.677902
 30
0.0
 10
26.707811
 20
41.677902
 30
0.0
 10
26.528889
 20
41.987803
 30
0.0
 10
26.349967
 20
41.677902
 30
0.0
  0
LWPOLYLINE
  5
116
100
AcDbEntity
  8
turtle1
 62
7
100
AcDbPolyline
 90
4
 70
0
 10
23.245523
 20
44.122018
 30
0.0
 10
24.450033
 20
44.122018
 30
0.0
 10
23.847778
 20
45.165154
 30
0.0
 10
23.245523
 20
44.122018
 30
0.0
  0
LWPOLYLINE
  5
117
100
AcDbEntity
  8
turtle1
 62
7
100
AcDbPolyline
 90
4
 70
0
 10
23.668856
 20
43.388783
 30
0.0
 10
24.026700
 20
43.388783
 30
0.0
 10
23.847778
 20
43.698685
 30
0.0
 10
23.668856
 20
43.388783
 30
0.0
  0
LWPOLYLINE
  5
118
100
AcDbEntity
  8
turtle1
 62
7
100
AcDbPolyline
 90
4
 70
0
 10
22.822189
 20
44.855253
 30
0.0
 10
23.180033
 20
44.855253
 30
0.0
 10
23.001111
 20
45.165154
 30
0.0
 10
22.822189
 20
44.855253
 30
0.0
  0
LWPOLYLINE
  5
119
100
AcDbEntity
  8
turtle1
 62
7
100
AcDbPolyline
 90
4
 70
0
 10
24.515523
 20
44.855253
 30
0.0
 10
24.873366
 20
44.855253
 30
0.0
 10
24.694444
 20
45.165154
 30
0.0
 10
24.515523
 20
44.855253
 30
0.0
  0
LWPOLYLINE
  5
11a
100
AcDbEntity
  8
turtle1
 62
7
100
AcDbPolyline
 90
4
 70
0
 10
26.914411
 20
44.122018
 30
0.0
 10
28.118922
 20
44.122018
 30
0.0
 10
27.516667
 20
45.165154
 30
0.0
 10
26.914411
 20
44.122018
 30
0.0
  0
LWPOLYLINE
  5
11b
100
AcDbEntity
  8
turtle1
 62
7
100
AcDbPolyline
 90
4
 70
0
 10
27.337745
 20
43.388783
 30
0.0
 10
27.695588
 20
43.388783
 30
0.0
 10
27.516667
 20
43.698685
 30
0.0
 10
27.337745
 20
43.388783
 30
0.0
  0
LWPOLYLINE
  5
11c
100
AcDbEntity
  8
turtle1
 62
7
100
AcDbPolyline
 90
4
 70
0
 10
26.491078
 20
44.855253
 30
0.0
 10
26.848922
 20
44.855253
 30
0.0
 10
26.670000
 20
45.165154
 30
0.0
 10
26.491078
 20
44.855253
 30
0.0
  0
LWPOLYLINE
  5
11d
100
AcDbEntity
  8
turtle1
 62
7
100
AcDbPolyline
 90
4
 70
0
 10
28.184411
 20
44.855253
 30
0.0
 10
28.542255
 20
44.855253
 30
0.0
 10
28.363333
 20
45.165154
 30
0.0
 10
28.184411
 20
44.855253
 30
0.0
  0
LWPOLYLINE
  5
11e
100
AcDbEntity
  8
turtle1
 62
7
100
AcDbPolyline
 90
4
 70
0
 10
31.571078
 20
42.411137
 30
0.0
 10
34.751144
 20
42.411137
 30
0.0
 10
33.161111
 20
45.165154
 30
0.0
 10
31.571078
 20
42.411137
 30
0.0
  0
LWPOLYLINE
  5
11f
100
AcDbEntity
  8
turtle1
 62
7
100
AcDbPolyline
 90
4
 70
0
 10
32.417745
 20
40.944667
 30
0.0
 10
33.622255
 20
40.944667
 30
0.0
 10
33.020000
 20
41.987803
 30
0.0
 10
32.417745
 20
40.944667
 30
0.0
  0
LWPOLYLINE
  5
120
100
AcDbEntity
  8
turtle1
 62
7
100
AcDbPolyline
 90
4
 70
0
 10
32.841078
 20
40.211432
 30
0.0
 10
33.198922
 20
40.211432
 30
0.0
 10
33.020000
 20
40.521334
 30
0.0
 10
32.841078
 20
40.211432
 30
0.0
  0
LWPOLYLINE
  5
121
100
AcDbEntity
  8
turtle1
 62
7
100
AcDbPolyline
 90
4
 70
0
 10
31.994411
 20
41.677902
 30
0.0
 10
32.352255
 20
41.677902
 30
0.0
 10
32.173333
 20
41.987803
 30
0.0
 10
31.994411
 20
41.677902
 30
0.0
  0
LWPOLYLINE
  5
122
100
AcDbEntity
  8
turtle1
 62
7
100
AcDbPolyline
 90
4
 70
0
 10
33.687745
 20
41.677902
 30
0.0
 10
34.045589
 20
41.677902
 30
0.0
 10
33.866667
 20
41.987803
 30
0.0
 10
33.687745
 20
41.677902
 30
0.0
  0
LWPOLYLINE
  5
123
100
AcDbEntity
  8
turtle1
 62
7
100
AcDbPolyline
 90
4
 70
0
 10
30.583300
 20
44.122018
 30
0.0
 10
31.787811
 20
44.122018
 30
0.0
 10
31.185556
 20
45.165154
 30
0.0
 10
30.583300
 20
44.122018
 30
0.0
  0
LWPOLYLINE
  5
124
100
AcDbEntity
  8
turtle1
 62
7
100
AcDbPolyline
 90
4
 70
0
 10
31.006634
 20
43.388783
 30
0.0
 10
31.364477
 20
43.388783
 30
0.0
 10
31.185556
 20
43.698685
 30
0.0
 10
31.006634
 20
43.388783
 30
0.0
  0
LWPOLYLINE
  5
125
100
AcDbEntity
  8
turtle1
 62
7
100
AcDbPolyline
 90
4
 70
0
 10
30.159967
 20
44.855253
 30
0.0
 10
30.517811
 20
44.855253
 30
0.0
 10
30.338889
 20
45.165154
 30
0.0
 10
30.159967
 20
44.855253
 30
0.0
  0
LWPOLYLINE
  5
126
100
AcDbEntity
  8
turtle1
 62
7
100
AcDbPolyline
 90
4
 70
0
 10
31.853300
 20
44.855253
 30
0.0
 10
32.211144
 20
44.855253
 30
0.0
 10
32.032222
 20
45.165154
 30
0.0
 10
31.853300
 20
44.855253
 30
0.0
  0
LWPOLYLINE
  5
127
100
AcDbEntity
  8
turtle1
 62
7
100
AcDbPolyline
 90
4
 70
0
 10
34.252189
 20
44.122018
 30
0.0
 10
35.456700
 20
44.122018
 30
0.0
 10
34.854444
 20
45.165154
 30
0.0
 10
34.252189
 20
44.122018
 30
0.0
  0
LWPOLYLINE
  5
128
100
AcDbEntity
  8
turtle1
 62
7
100
AcDbPolyline
 90
4
 70
0
 10
34.675523
 20
43.388783
 30
0.0
 10
35.033366
 20
43.388783
 30
0.0
 10
34.854444
 20
43.698685
 30
0.0
 10
34.675523
 20
43.388783
 30
0.0
  0
LWPOLYLINE
  5
129
100
AcDbEntity
  8
turtle1
 62
7
100
AcDbPolyline
 90
4
 70
0
 10
33.828856
 20
44.855253
 30
0.0
 10
34.186700
 20
44.855253
 30
0.0
 10
34.007778
 20
45.165154
 30
0.0
 10
33.828856
 20
44.855253
 30
0.0
  0
LWPOLYLINE
  5
12a
100
AcDbEntity
  8
turtle1
 62
7
100
AcDbPolyline
 90
4
 70
0
 10
35.522189
 20
44.855253
 30
0.0
 10
35.880033
 20
44.855253
 30
0.0
 10
35.701111
 20
45.165154
 30
0.0
 10
35.522189
 20
44.855253
 30
0.0
  0
LWPOLYLINE
  5
12b
100
AcDbEntity
  8
turtle1
 62
7
100
AcDbPolyline
 90
4
 70
0
 10
18.729967
 20
51.943190
 30
0.0
 10
25.578922
 20
51.943190
 30
0.0
 10
22.154444
 20
57.874558
 30
0.0
 10
18.729967
 20
51.943190
 30
0.0
  0
LWPOLYLINE
  5
12c
100
AcDbEntity
  8
turtle1
 62
7
100
AcDbPolyline
 90
4
 70
0
 10
20.564411
 20
48.765839
 30
0.0
 10
23.744477
 20
48.765839
 30
0.0
 10
22.154444
 20
51.519856
 30
0.0
 10
20.564411
 20
48.765839
 30
0.0
  0
LWPOLYLINE
  5
12d
100
AcDbEntity
  8
turtle1
 62
7
100
AcDbPolyline
 90
4
 70
0
 10
21.411078
 20
47.299369
 30
0.0
 10
22.615589
 20
47.299369
 30
0.0
 10
22.013333
 20
48.342505
 30
0.0
 10
21.411078
 20
47.299369
 30
0.0
  0
LWPOLYLINE
  5
12e
100
AcDbEntity
  8
turtle1
 62
7
100
AcDbPolyline
 90
4
 70
0
 10
21.834411
 20
46.566134
 30
0.0
 10
22.192255
 20
46.566134
 30
0.0
 10
22.013333
 20
46.876036
 30
0.0
 10
21.834411
 20
46.566134
 30
0.0
  0
LWPOLYLINE
  5
12f
100
AcDbEntity
  8
turtle1
 62
7
100
AcDbPolyline
 90
4
 70
0
 10
20.987745
 20
48.032604
 30
0.0
 10
21.345589
 20
48.032604
 30
0.0
 10
21.166667
 20
48.342505
 30
0.0
 10
20.987745
 20
48.032604
 30
0.0
  0
LWPOLYLINE
  5
130
100
AcDbEntity
  8
turtle1
 62
7
100
AcDbPolyline
 90
4
 70
0
 10
22.681078
 20
48.032604
 30
0.0
 10
23.038922
 20
48.032604
 30
0.0
 10
22.860000
 20
48.342505
 30
0.0
 10
22.681078
 20
48.032604
 30
0.0
  0
LWPOLYLINE
  5
131
100
AcDbEntity
  8
turtle1
 62
7
100
AcDbPolyline
 90
4
 70
0
 10
19.576634
 20
50.476720
 30
0.0
 10
20.781144
 20
50.476720
 30
0.0
 10
20.178889
 20
51.519856
 30
0.0
 10
19.576634
 20
50.476720
 30
0.0
  0
LWPOLYLINE
  5
132
100
AcDbEntity
  8
turtle1
 62
7
100
AcDbPolyline
 90
4
 70
0
 10
19.999967
 20
49.743485
 30
0.0
 10
20.357811
 20
49.743485
 30
0.0
 10
20.178889
 20
50.053387
 30
0.0
 10
19.999967
 20
49.743485
 30
0.0
  0
LWPOLYLINE
  5
133
100
AcDbEntity
  8
turtle1
 62
7
100
AcDbPolyline
 90
4
 70
0
 10
19.153300
 20
51.209955
 30
0.0
 10
19.511144
 20
51.209955
 30
0.0
 10
19.332222
 20
51.519856
 30
0.0
 10
19.153300
 20
51.209955
 30
0.0
  0
LWPOLYLINE
  5
134
100
AcDbEntity
  8
turtle1
 62
7
100
AcDbPolyline
 90
4
 70
0
 10
20.846634
 20
51.209955
 30
0.0
 10
21.204477
 20
51.209955
 30
0.0
 10
21.025556
 20
51.519856
 30
0.0
 10
20.846634
 20
51.209955
 30
0.0
  0
LWPOLYLINE
  5
135
100
AcDbEntity
  8
turtle1
 62
7
100
AcDbPolyline
 90
4
 70
0
 10
23.245523
 20
50.476720
 30
0.0
 10
24.450033
 20
50.476720
 30
0.0
 10
23.847778
 20
51.519856
 30
0.0
 10
23.245523
 20
50.476720
 30
0.0
  0
LWPOLYLINE
  5
136
100
AcDbEntity
  8
turtle1
 62
7
100
AcDbPolyline
 90
4
 70
0
 10
23.668856
 20
49.743485
 30
0.0
 10
24.026700
 20
49.743485
 30
0.0
 10
23.847778
 20
50.053387
 30
0.0
 10
23.668856
 20
49.743485
 30
0.0
  0
LWPOLYLINE
  5
137
100
AcDbEntity
  8
turtle1
 62
7
100
AcDbPolyline
 90
4
 70
0
 10
22.822189
 20
51.209955
 30
0.0
 10
23.180033
 20
51.209955
 30
0.0
 10
23.001111
 20
51.519856
 30
0.0
 10
22.822189
 20
51.209955
 30
0.0
  0
LWPOLYLINE
  5
138
100
AcDbEntity
  8
turtle1
 62
7
100
AcDbPolyline
 90
4
 70
0
 10
24.515523
 20
51.209955
 30
0.0
 10
24.873366
 20
51.209955
 30
0.0
 10
24.694444
 20
51.519856
 30
0.0
 10
24.515523
 20
51.209955
 30
0.0
  0
LWPOLYLINE
  5
139
100
AcDbEntity
  8
turtle1
 62
7
100
AcDbPolyline
 90
4
 70
0
 10
16.895523
 20
55.120541
 30
0.0
 10
20.075589
 20
55.120541
 30
0.0
 10
18.485556
 20
57.874558
 30
0.0
 10
16.895523
 20
55.120541
 30
0.0
  0
LWPOLYLINE
  5
13a
100
AcDbEntity
  8
turtle1
 62
7
100
AcDbPolyline
 90
4
 70
0
 10
17.742189
 20
53.654071
 30
0.0
 10
18.946700
 20
53.654071
 30
0.0
 10
18.344444
 20
54.697207
 30
0.0
 10
17.742189
 20
53.654071
 30
0.0
  0
LWPOLYLINE
  5
13b
100
AcDbEntity
  8
turtle1
 62
7
100
AcDbPolyline
 90
4
 70
0
 10
18.165523
 20
52.920836
 30
0.0
 10
18.523366
 20
52.920836
 30
0.0
 10
18.344444
 20
53.230738
 30
0.0
 10
18.165523
 20
52.920836
 30
0.0
  0
LWPOLYLINE
  5
13c
100
AcDbEntity
  8
turtle1
 62
7
100
AcDbPolyline
 90
4
 70
0
 10
17.318856
 20
54.387306
 30
0.0
 10
17.676700
 20
54.387306
 30
0.0
 10
17.497778
 20
54.697207
 30
0.0
 10
17.318856
 20
54.387306
 30
0.0
  0
LWPOLYLINE
  5
13d
100
AcDbEntity
  8
turtle1
 62
7
100
AcDbPolyline
 90
4
 70
0
 10
19.012189
 20
54.387306
 30
0.0
 10
19.370033
 20
54.387306
 30
0.0
 10
19.191111
 20
54.697207
 30
0.0
 10
19.012189
 20
54.387306
 30
0.0
  0
LWPOLYLINE
  5
13e
100
AcDbEntity
  8
turtle1
 62
7
100
AcDbPolyline
 90
4
 70
0
 10
15.907745
 20
56.831422
 30
0.0
 10
17.112255
 20
56.831422
 30
0.0
 10
16.510000
 20
57.874558
 30
0.0
 10
15.907745
 20
56.831422
 30
0.0
  0
LWPOLYLINE
  5
13f
100
AcDbEntity
  8
turtle1
 62
7
100
AcDbPolyline
 90
4
 70
0
 10
16.331078
 20
56.098187
 30
0.0
 10
16.688922
 20
56.098187
 30
0.0
 10
16.510000
 20
56.408089
 30
0.0
 10
16.331078
 20
56.098187
 30
0.0
  0
LWPOLYLINE
  5
140
100
AcDbEntity
  8
turtle1
 62
7
100
AcDbPolyline
 90
4
 70
0
 10
15.484412
 20
57.564657
 30
0.0
 10
15.842255
 20
57.564657
 30
0.0
 10
15.663333
 20
57.874558
 30
0.0
 10
15.484412
 20
57.564657
 30
0.0
  0
LWPOLYLINE
  5
141
100
AcDbEntity
  8
turtle1
 62
7
100
AcDbPolyline
 90
4
 70
0
 10
17.177745
 20
57.564657
 30
0.0
 10
17.535588
 20
57.564657
 30
0.0
 10
17.356667
 20
57.874558
 30
0.0
 10
17.177745
 20
57.564657
 30
0.0
  0
LWPOLYLINE
  5
142
100
AcDbEntity
  8
turtle1
 62
7
100
AcDbPolyline
 90
4
 70
0
 10
19.576634
 20
56.831422
 30
0.0
 10
20.781144
 20
56.831422
 30
0.0
 10
20.178889
 20
57.874558
 30
0.0
 10
19.576634
 20
56.831422
 30
0.0
  0
LWPOLYLINE
  5
143
100
AcDbEntity
  8
turtle1
 62
7
100
AcDbPolyline
 90
4
 70
0
 10
19.999967
 20
56.098187
 30
0.0
 10
20.357811
 20
56.098187
 30
0.0
 10
20.178889
 20
56.408089
 30
0.0
 10
19.999967
 20
56.098187
 30
0.0
  0
LWPOLYLINE
  5
144
100
AcDbEntity
  8
turtle1
 62
7
100
AcDbPolyline
 90
4
 70
0
 10
19.153300
 20
57.564657
 30
0.0
 10
19.511144
 20
57.564657
 30
0.0
 10
19.332222
 20
57.874558
 30
0.0
 10
19.153300
 20
57.564657
 30
0.0
  0
LWPOLYLINE
  5
145
100
AcDbEntity
  8
turtle1
 62
7
100
AcDbPolyline
 90
4
 70
0
 10
20.846634
 20
57.564657
 30
0.0
 10
21.204477
 20
57.564657
 30
0.0
 10
21.025556
 20
57.874558
 30
0.0
 10
20.846634
 20
57.564657
 30
0.0
  0
LWPOLYLINE
  5
146
100
AcDbEntity
  8
turtle1
 62
7
100
AcDbPolyline
 90
4
 70
0
 10
24.233300
 20
55.120541
 30
0.0
 10
27.413366
 20
55.120541
 30
0.0
 10
25.823333
 20
57.874558
 30
0.0
 10
24.233300
 20
55.120541
 30
0.0
  0
LWPOLYLINE
  5
147
100
AcDbEntity
  8
turtle1
 62
7
100
AcDbPolyline
 90
4
 70
0
 10
25.079967
 20
53.654071
 30
0.0
 10
26.284477
 20
53.654071
 30
0.0
 10
25.682222
 20
54.697207
 30
0.0
 10
25.079967
 20
53.654071
 30
0.0
  0
LWPOLYLINE
  5
148
100
AcDbEntity
  8
turtle1
 62
7
100
AcDbPolyline
 90
4
 70
0
 10
25.503300
 20
52.920836
 30
0.0
 10
25.861144
 20
52.920836
 30
0.0
 10
25.682222
 20
53.230738
 30
0.0
 10
25.503300
 20
52.920836
 30
0.0
  0
LWPOLYLINE
  5
149
100
AcDbEntity
  8
turtle1
 62
7
100
AcDbPolyline
 90
4
 70
0
 10
24.656634
 20
54.387306
 30
0.0
 10
25.014477
 20
54.387306
 30
0.0
 10
24.835556
 20
54.697207
 30
0.0
 10
24.656634
 20
54.387306
 30
0.0
  0
LWPOLYLINE
  5
14a
100
AcDbEntity
  8
turtle1
 62
7
100
AcDbPolyline
 90
4
 70
0
 10
26.349967
 20
54.387306
 30
0.0
 10
26.707811
 20
54.387306
 30
0.0
 10
26.528889
 20
54.697207
 30
0.0
 10
26.349967
 20
54.387306
 30
0.0
  0
LWPOLYLINE
  5
14b
100
AcDbEntity
  8
turtle1
 62
7
100
AcDbPolyline
 90
4
 70
0
 10
23.245523
 20
56.831422
 30
0.0
 10
24.450033
 20
56.831422
 30
0.0
 10
23.847778
 20
57.874558
 30
0.0
 10
23.245523
 20
56.831422
 30
0.0
  0
LWPOLYLINE
  5
14c
100
AcDbEntity
  8
turtle1
 62
7
100
AcDbPolyline
 90
4
 70
0
 10
23.668856
 20
56.098187
 30
0.0
 10
24.026700
 20
56.098187
 30
0.0
 10
23.847778
 20
56.408089
 30
0.0
 10
23.668856
 20
56.098187
 30
0.0
  0
LWPOLYLINE
  5
14d
100
AcDbEntity
  8
turtle1
 62
7
100
AcDbPolyline
 90
4
 70
0
 10
22.822189
 20
57.564657
 30
0.0
 10
23.180033
 20
57.564657
 30
0.0
 10
23.001111
 20
57.874558
 30
0.0
 10
22.822189
 20
57.564657
 30
0.0
  0
LWPOLYLINE
  5
14e
100
AcDbEntity
  8
turtle1
 62
7
100
AcDbPolyline
 90
4
 70
0
 10
24.515523
 20
57.564657
 30
0.0
 10
24.873366
 20
57.564657
 30
0.0
 10
24.694444
 20
57.874558
 30
0.0
 10
24.515523
 20
57.564657
 30
0.0
  0
LWPOLYLINE
  5
14f
100
AcDbEntity
  8
turtle1
 62
7
100
AcDbPolyline
 90
4
 70
0
 10
26.914411
 20
56.831422
 30
0.0
 10
28.118922
 20
56.831422
 30
0.0
 10
27.516667
 20
57.874558
 30
0.0
 10
26.914411
 20
56.831422
 30
0.0
  0
LWPOLYLINE
  5
150
100
AcDbEntity
  8
turtle1
 62
7
100
AcDbPolyline
 90
4
 70
0
 10
27.337745
 20
56.098187
 30
0.0
 10
27.695588
 20
56.098187
 30
0.0
 10
27.516667
 20
56.408089
 30
0.0
 10
27.337745
 20
56.098187
 30
0.0
  0
LWPOLYLINE
  5
151
100
AcDbEntity
  8
turtle1
 62
7
100
AcDbPolyline
 90
4
 70
0
 10
26.491078
 20
57.564657
 30
0.0
 10
26.848922
 20
57.564657
 30
0.0
 10
26.670000
 20
57.874558
 30
0.0
 10
26.491078
 20
57.564657
 30
0.0
  0
LWPOLYLINE
  5
152
100
AcDbEntity
  8
turtle1
 62
7
100
AcDbPolyline
 90
4
 70
0
 10
28.184411
 20
57.564657
 30
0.0
 10
28.542255
 20
57.564657
 30
0.0
 10
28.363333
 20
57.874558
 30
0.0
 10
28.184411
 20
57.564657
 30
0.0
  0
LWPOLYLINE
  5
153
100
AcDbEntity
  8
turtle1
 62
7
100
AcDbPolyline
 90
4
 70
0
 10
33.405523
 20
51.943190
 30
0.0
 10
40.254477
 20
51.943190
 30
0.0
 10
36.830000
 20
57.874558
 30
0.0
 10
33.405523
 20
51.943190
 30
0.0
  0
LWPOLYLINE
  5
154
100
AcDbEntity
  8
turtle1
 62
7
100
AcDbPolyline
 90
4
 70
0
 10
35.239967
 20
48.765839
 30
0.0
 10
38.420033
 20
48.765839
 30
0.0
 10
36.830000
 20
51.519856
 30
0.0
 10
35.239967
 20
48.765839
 30
0.0
  0
LWPOLYLINE
  5
155
100
AcDbEntity
  8
turtle1
 62
7
100
AcDbPolyline
 90
4
 70
0
 10
36.086634
 20
47.299369
 30
0.0
 10
37.291144
 20
47.299369
 30
0.0
 10
36.688889
 20
48.342505
 30
0.0
 10
36.086634
 20
47.299369
 30
0.0
  0
LWPOLYLINE
  5
156
100
AcDbEntity
  8
turtle1
 62
7
100
AcDbPolyline
 90
4
 70
0
 10
36.509967
 20
46.566134
 30
0.0
 10
36.867811
 20
46.566134
 30
0.0
 10
36.688889
 20
46.876036
 30
0.0
 10
36.509967
 20
46.566134
 30
0.0
  0
LWPOLYLINE
  5
157
100
AcDbEntity
  8
turtle1
 62
7
100
AcDbPolyline
 90
4
 70
0
 10
35.663300
 20
48.032604
 30
0.0
 10
36.021144
 20
48.032604
 30
0.0
 10
35.842222
 20
48.342505
 30
0.0
 10
35.663300
 20
48.032604
 30
0.0
  0
LWPOLYLINE
  5
158
100
AcDbEntity
  8
turtle1
 62
7
100
AcDbPolyline
 90
4
 70
0
 10
37.356634
 20
48.032604
 30
0.0
 10
37.714477
 20
48.032604
 30
0.0
 10
37.535556
 20
48.342505
 30
0.0
 10
37.356634
 20
48.032604
 30
0.0
  0
LWPOLYLINE
  5
159
100
AcDbEntity
  8
turtle1
 62
7
100
AcDbPolyline
 90
4
 70
0
 10
34.252189
 20
50.476720
 30
0.0
 10
35.456700
 20
50.476720
 30
0.0
 10
34.854444
 20
51.519856
 30
0.0
 10
34.252189
 20
50.476720
 30
0.0
  0
LWPOLYLINE
  5
15a
100
AcDbEntity
  8
turtle1
 62
7
100
AcDbPolyline
 90
4
 70
0
 10
34.675523
 20
49.743485
 30
0.0
 10
35.033366
 20
49.743485
 30
0.0
 10
34.854444
 20
50.053387
 30
0.0
 10
34.675523
 20
49.743485
 30
0.0
  0
LWPOLYLINE
  5
15b
100
AcDbEntity
  8
turtle1
 62
7
100
AcDbPolyline
 90
4
 70
0
 10
33.828856
 20
51.209955
 30
0.0
 10
34.186700
 20
51.209955
 30
0.0
 10
34.007778
 20
51.519856
 30
0.0
 10
33.828856
 20
51.209955
 30
0.0
  0
LWPOLYLINE
  5
15c
100
AcDbEntity
  8
turtle1
 62
7
100
AcDbPolyline
 90
4
 70
0
 10
35.522189
 20
51.209955
 30
0.0
 10
35.880033
 20
51.209955
 30
0.0
 10
35.701111
 20
51.519856
 30
0.0
 10
35.522189
 20
51.209955
 30
0.0
  0
LWPOLYLINE
  5
15d
100
AcDbEntity
  8
turtle1
 62
7
100
AcDbPolyline
 90
4
 70
0
 10
37.921078
 20
50.476720
 30
0.0
 10
39.125588
 20
50.476720
 30
0.0
 10
38.523333
 20
51.519856
 30
0.0
 10
37.921078
 20
50.476720
 30
0.0
  0
LWPOLYLINE
  5
15e
100
AcDbEntity
  8
turtle1
 62
7
100
AcDbPolyline
 90
4
 70
0
 10
38.344411
 20
49.743485
 30
0.0
 10
38.702255
 20
49.743485
 30
0.0
 10
38.523333
 20
50.053387
 30
0.0
 10
38.344411
 20
49.743485
 30
0.0
  0
LWPOLYLINE
  5
15f
100
AcDbEntity
  8
turtle1
 62
7
100
AcDbPolyline
 90
4
 70
0
 10
37.497745
 20
51.209955
 30
0.0
 10
37.855588
 20
51.209955
 30
0.0
 10
37.676667
 20
51.519856
 30
0.0
 10
37.497745
 20
51.209955
 30
0.0
  0
LWPOLYLINE
  5
160
100
AcDbEntity
  8
turtle1
 62
7
100
AcDbPolyline
 90
4
 70
0
 10
39.191078
 20
51.209955
 30
0.0
 10
39.548922
 20
51.209955
 30
0.0
 10
39.370000
 20
51.519856
 30
0.0
 10
39.191078
 20
51.209955
 30
0.0
  0
LWPOLYLINE
  5
161
100
AcDbEntity
  8
turtle1
 62
7
100
AcDbPolyline
 90
4
 70
0
 10
31.571078
 20
55.120541
 30
0.0
 10
34.751144
 20
55.120541
 30
0.0
 10
33.161111
 20
57.874558
 30
0.0
 10
31.571078
 20
55.120541
 30
0.0
  0
LWPOLYLINE
  5
162
100
AcDbEntity
  8
turtle1
 62
7
100
AcDbPolyline
 90
4
 70
0
 10
32.417745
 20
53.654071
 30
0.0
 10
33.622255
 20
53.654071
 30
0.0
 10
33.020000
 20
54.697207
 30
0.0
 10
32.417745
 20
53.654071
 30
0.0
  0
LWPOLYLINE
  5
163
100
AcDbEntity
  8
turtle1
 62
7
100
AcDbPolyline
 90
4
 70
0
 10
32.841078
 20
52.920836
 30
0.0
 10
33.198922
 20
52.920836
 30
0.0
 10
33.020000
 20
53.230738
 30
0.0
 10
32.841078
 20
52.920836
 30
0.0
  0
LWPOLYLINE
  5
164
100
AcDbEntity
  8
turtle1
 62
7
100
AcDbPolyline
 90
4
 70
0
 10
31.994411
 20
54.387306
 30
0.0
 10
32.352255
 20
54.387306
 30
0.0
 10
32.173333
 20
54.697207
 30
0.0
 10
31.994411
 20
54.387306
 30
0.0
  0
LWPOLYLINE
  5
165
100
AcDbEntity
  8
turtle1
 62
7
100
AcDbPolyline
 90
4
 70
0
 10
33.687745
 20
54.387306
 30
0.0
 10
34.045589
 20
54.387306
 30
0.0
 10
33.866667
 20
54.697207
 30
0.0
 10
33.687745
 20
54.387306
 30
0.0
  0
LWPOLYLINE
  5
166
100
AcDbEntity
  8
turtle1
 62
7
100
AcDbPolyline
 90
4
 70
0
 10
30.583300
 20
56.831422
 30
0.0
 10
31.787811
 20
56.831422
 30
0.0
 10
31.185556
 20
57.874558
 30
0.0
 10
30.583300
 20
56.831422
 30
0.0
  0
LWPOLYLINE
  5
167
100
AcDbEntity
  8
turtle1
 62
7
100
AcDbPolyline
 90
4
 70
0
 10
31.006634
 20
56.098187
 30
0.0
 10
31.364477
 20
56.098187
 30
0.0
 10
31.185556
 20
56.408089
 30
0.0
 10
31.006634
 20
56.098187
 30
0.0
  0
LWPOLYLINE
  5
168
100
AcDbEntity
  8
turtle1
 62
7
100
AcDbPolyline
 90
4
 70
0
 10
30.159967
 20
57.564657
 30
0.0
 10
30.517811
 20
57.564657
 30
0.0
 10
30.338889
 20
57.874558
 30
0.0
 10
30.159967
 20
57.564657
 30
0.0
  0
LWPOLYLINE
  5
169
100
AcDbEntity
  8
turtle1
 62
7
100
AcDbPolyline
 90
4
 70
0
 10
31.853300
 20
57.564657
 30
0.0
 10
32.211144
 20
57.564657
 30
0.0
 10
32.032222
 20
57.874558
 30
0.0
 10
31.853300
 20
57.564657
 30
0.0
  0
LWPOLYLINE
  5
16a
100
AcDbEntity
  8
turtle1
 62
7
100
AcDbPolyline
 90
4
 70
0
 10
34.252189
 20
56.831422
 30
0.0
 10
35.456700
 20
56.831422
 30
0.0
 10
34.854444
 20
57.874558
 30
0.0
 10
34.252189
 20
56.831422
 30
0.0
  0
LWPOLYLINE
  5
16b
100
AcDbEntity
  8
turtle1
 62
7
100
AcDbPolyline
 90
4
 70
0
 10
34.675523
 20
56.098187
 30
0.0
 10
35.033366
 20
56.098187
 30
0.0
 10
34.854444
 20
56.408089
 30
0.0
 10
34.675523
 20
56.098187
 30
0.0
  0
LWPOLYLINE
  5
16c
100
AcDbEntity
  8
turtle1
 62
7
100
AcDbPolyline
 90
4
 70
0
 10
33.828856
 20
57.564657
 30
0.0
 10
34.186700
 20
57.564657
 30
0.0
 10
34.007778
 20
57.874558
 30
0.0
 10
33.828856
 20
57.564657
 30
0.0
  0
LWPOLYLINE
  5
16d
100
AcDbEntity
  8
turtle1
 62
7
100
AcDbPolyline
 90
4
 70
0
 10
35.522189
 20
57.564657
 30
0.0
 10
35.880033
 20
57.564657
 30
0.0
 10
35.701111
 20
57.874558
 30
0.0
 10
35.522189
 20
57.564657
 30
0.0
  0
LWPOLYLINE
  5
16e
100
AcDbEntity
  8
turtle1
 62
7
100
AcDbPolyline
 90
4
 70
0
 10
38.908856
 20
55.120541
 30
0.0
 10
42.088922
 20
55.120541
 30
0.0
 10
40.498889
 20
57.874558
 30
0.0
 10
38.908856
 20
55.120541
 30
0.0
  0
LWPOLYLINE
  5
16f
100
AcDbEntity
  8
turtle1
 62
7
100
AcDbPolyline
 90
4
 70
0
 10
39.755523
 20
53.654071
 30
0.0
 10
40.960033
 20
53.654071
 30
0.0
 10
40.357778
 20
54.697207
 30
0.0
 10
39.755523
 20
53.654071
 30
0.0
  0
LWPOLYLINE
  5
170
100
AcDbEntity
  8
turtle1
 62
7
100
AcDbPolyline
 90
4
 70
0
 10
40.178856
 20
52.920836
 30
0.0
 10
40.536700
 20
52.920836
 30
0.0
 10
40.357778
 20
53.230738
 30
0.0
 10
40.178856
 20
52.920836
 30
0.0
  0
LWPOLYLINE
  5
171
100
AcDbEntity
  8
turtle1
 62
7
100
AcDbPolyline
 90
4
 70
0
 10
39.332189
 20
54.387306
 30
0.0
 10
39.690033
 20
54.387306
 30
0.0
 10
39.511111
 20
54.697207
 30
0.0
 10
39.332189
 20
54.387306
 30
0.0
  0
LWPOLYLINE
  5
172
100
AcDbEntity
  8
turtle1
 62
7
100
AcDbPolyline
 90
4
 70
0
 10
41.025523
 20
54.387306
 30
0.0
 10
41.383366
 20
54.387306
 30
0.0
 10
41.204444
 20
54.697207
 30
0.0
 10
41.025523
 20
54.387306
 30
0.0
  0
LWPOLYLINE
  5
173
100
AcDbEntity
  8
turtle1
 62
7
100
AcDbPolyline
 90
4
 70
0
 10
37.921078
 20
56.831422
 30
0.0
 10
39.125588
 20
56.831422
 30
0.0
 10
38.523333
 20
57.874558
 30
0.0
 10
37.921078
 20
56.831422
 30
0.0
  0
LWPOLYLINE
  5
174
100
AcDbEntity
  8
turtle1
 62
7
100
AcDbPolyline
 90
4
 70
0
 10
38.344411
 20
56.098187
 30
0.0
 10
38.702255
 20
56.098187
 30
0.0
 10
38.523333
 20
56.408089
 30
0.0
 10
38.344411
 20
56.098187
 30
0.0
  0
LWPOLYLINE
  5
175
100
AcDbEntity
  8
turtle1
 62
7
100
AcDbPolyline
 90
4
 70
0
 10
37.497745
 20
57.564657
 30
0.0
 10
37.855588
 20
57.564657
 30
0.0
 10
37.676667
 20
57.874558
 30
0.0
 10
37.497745
 20
57.564657
 30
0.0
  0
LWPOLYLINE
  5
176
100
AcDbEntity
  8
turtle1
 62
7
100
AcDbPolyline
 90
4
 70
0
 10
39.191078
 20
57.564657
 30
0.0
 10
39.548922
 20
57.564657
 30
0.0
 10
39.370000
 20
57.874558
 30
0.0
 10
39.191078
 20
57.564657
 30
0.0
  0
LWPOLYLINE
  5
177
100
AcDbEntity
  8
turtle1
 62
7
100
AcDbPolyline
 90
4
 70
0
 10
41.589967
 20
56.831422
 30
0.0
 10
42.794477
 20
56.831422
 30
0.0
 10
42.192222
 20
57.874558
 30
0.0
 10
41.589967
 20
56.831422
 30
0.0
  0
LWPOLYLINE
  5
178
100
AcDbEntity
  8
turtle1
 62
7
100
AcDbPolyline
 90
4
 70
0
 10
42.013300
 20
56.098187
 30
0.0
 10
42.371144
 20
56.098187
 30
0.0
 10
42.192222
 20
56.408089
 30
0.0
 10
42.013300
 20
56.098187
 30
0.0
  0
LWPOLYLINE
  5
179
100
AcDbEntity
  8
turtle1
 62
7
100
AcDbPolyline
 90
4
 70
0
 10
41.166634
 20
57.564657
 30
0.0
 10
41.524477
 20
57.564657
 30
0.0
 10
41.345556
 20
57.874558
 30
0.0
 10
41.166634
 20
57.564657
 30
0.0
  0
LWPOLYLINE
  5
17a
100
AcDbEntity
  8
turtle1
 62
7
100
AcDbPolyline
 90
4
 70
0
 10
42.859967
 20
57.564657
 30
0.0
 10
43.217811
 20
57.564657
 30
0.0
 10
43.038889
 20
57.874558
 30
0.0
 10
42.859967
 20
57.564657
 30
0.0
  0
LWPOLYLINE
  5
17b
100
AcDbEntity
  8
turtle1
 62
7
100
AcDbPolyline
 90
4
 70
0
 10
7.582189
 20
71.251707
 30
0.0
 10
21.768922
 20
71.251707
 30
0.0
 10
14.675556
 20
83.537778
 30
0.0
 10
7.582189
 20
71.251707
 30
0.0
  0
LWPOLYLINE
  5
17c
100
AcDbEntity
  8
turtle1
 62
7
100
AcDbPolyline
 90
4
 70
0
 10
11.251078
 20
64.897005
 30
0.0
 10
18.100033
 20
64.897005
 30
0.0
 10
14.675556
 20
70.828374
 30
0.0
 10
11.251078
 20
64.897005
 30
0.0
  0
LWPOLYLINE
  5
17d
100
AcDbEntity
  8
turtle1
 62
7
100
AcDbPolyline
 90
4
 70
0
 10
13.085523
 20
61.719654
 30
0.0
 10
16.265588
 20
61.719654
 30
0.0
 10
14.675556
 20
64.473672
 30
0.0
 10
13.085523
 20
61.719654
 30
0.0
  0
LWPOLYLINE
  5
17e
100
AcDbEntity
  8
turtle1
 62
7
100
AcDbPolyline
 90
4
 70
0
 10
13.932189
 20
60.253185
 30
0.0
 10
15.136700
 20
60.253185
 30
0.0
 10
14.534444
 20
61.296321
 30
0.0
 10
13.932189
 20
60.253185
 30
0.0
  0
LWPOLYLINE
  5
17f
100
AcDbEntity
  8
turtle1
 62
7
100
AcDbPolyline
 90
4
 70
0
 10
14.355523
 20
59.519950
 30
0.0
 10
14.713366
 20
59.519950
 30
0.0
 10
14.534444
 20
59.829851
 30
0.0
 10
14.355523
 20
59.519950
 30
0.0
  0
LWPOLYLINE
  5
180
100
AcDbEntity
  8
turtle1
 62
7
100
AcDbPolyline
 90
4
 70
0
 10
13.508856
 20
60.986419
 30
0.0
 10
13.866700
 20
60.986419
 30
0.0
 10
13.687778
 20
61.296321
 30
0.0
 10
13.508856
 20
60.986419
 30
0.0
  0
LWPOLYLINE
  5
181
100
AcDbEntity
  8
turtle1
 62
7
100
AcDbPolyline
 90
4
 70
0
 10
15.202189
 20
60.986419
 30
0.0
 10
15.560033
 20
60.986419
 30
0.0
 10
15.381111
 20
61.296321
 30
0.0
 10
15.202189
 20
60.986419
 30
0.0
  0
LWPOLYLINE
  5
182
100
AcDbEntity
  8
turtle1
 62
7
100
AcDbPolyline
 90
4
 70
0
 10
12.097745
 20
63.430536
 30
0.0
 10
13.302255
 20
63.430536
 30
0.0
 10
12.700000
 20
64.473672
 30
0.0
 10
12.097745
 20
63.430536
 30
0.0
  0
LWPOLYLINE
  5
183
100
AcDbEntity
  8
turtle1
 62
7
100
AcDbPolyline
 90
4
 70
0
 10
12.521078
 20
62.697301
 30
0.0
 10
12.878922
 20
62.697301
 30
0.0
 10
12.700000
 20
63.007202
 30
0.0
 10
12.521078
 20
62.697301
 30
0.0
  0
LWPOLYLINE
  5
184
100
AcDbEntity
  8
turtle1
 62
7
100
AcDbPolyline
 90
4
 70
0
 10
11.674411
 20
64.163770
 30
0.0
 10
12.032255
 20
64.163770
 30
0.0
 10
11.853333
 20
64.473672
 30
0.0
 10
11.674411
 20
64.163770
 30
0.0
  0
LWPOLYLINE
  5
185
100
AcDbEntity
  8
turtle1
 62
7
100
AcDbPolyline
 90
4
 70
0
 10
13.367745
 20
64.163770
 30
0.0
 10
13.725588
 20
64.163770
 30
0.0
 10
13.546667
 20
64.473672
 30
0.0
 10
13.367745
 20
64.163770
 30
0.0
  0
LWPOLYLINE
  5
186
100
AcDbEntity
  8
turtle1
 62
7
100
AcDbPolyline
 90
4
 70
0
 10
15.766634
 20
63.430536
 30
0.0
 10
16.971144
 20
63.430536
 30
0.0
 10
16.368889
 20
64.473672
 30
0.0
 10
15.766634
 20
63.430536
 30
0.0
  0
LWPOLYLINE
  5
187
100
AcDbEntity
  8
turtle1
 62
7
100
AcDbPolyline
 90
4
 70
0
 10
16.189967
 20
62.697301
 30
0.0
 10
16.547811
 20
62.697301
 30
0.0
 10
16.368889
 20
63.007202
 30
0.0
 10
16.189967
 20
62.697301
 30
0.0
  0
LWPOLYLINE
  5
188
100
AcDbEntity
  8
turtle1
 62
7
100
AcDbPolyline
 90
4
 70
0
 10
15.343300
 20
64.163770
 30
0.0
 10
15.701144
 20
64.163770
 30
0.0
 10
15.522222
 20
64.473672
 30
0.0
 10
15.343300
 20
64.163770
 30
0.0
  0
LWPOLYLINE
  5
189
100
AcDbEntity
  8
turtle1
 62
7
100
AcDbPolyline
 90
4
 70
0
 10
17.036634
 20
64.163770
 30
0.0
 10
17.394477
 20
64.163770
 30
0.0
 10
17.215556
 20
64.473672
 30
0.0
 10
17.036634
 20
64.163770
 30
0.0
  0
LWPOLYLINE
  5
18a
100
AcDbEntity
  8
turtle1
 62
7
100
AcDbPolyline
 90
4
 70
0
 10
9.416634
 20
68.074356
 30
0.0
 10
12.596700
 20
68.074356
 30
0.0
 10
11.006667
 20
70.828374
 30
0.0
 10
9.416634
 20
68.074356
 30
0.0
  0
LWPOLYLINE
  5
18b
100
AcDbEntity
  8
turtle1
 62
7
100
AcDbPolyline
 90
4
 70
0
 10
10.263300
 20
66.607886
 30
0.0
 10
11.467811
 20
66.607886
 30
0.0
 10
10.865556
 20
67.651023
 30
0.0
 10
10.263300
 20
66.607886
 30
0.0
  0
LWPOLYLINE
  5
18c
100
AcDbEntity
  8
turtle1
 62
7
100
AcDbPolyline
 90
4
 70
0
 10
10.686634
 20
65.874652
 30
0.0
 10
11.044477
 20
65.874652
 30
0.0
 10
10.865556
 20
66.184553
 30
0.0
 10
10.686634
 20
65.874652
 30
0.0
  0
LWPOLYLINE
  5
18d
100
AcDbEntity
  8
turtle1
 62
7
100
AcDbPolyline
 90
4
 70
0
 10
9.839967
 20
67.341121
 30
0.0
 10
10.197811
 20
67.341121
 30
0.0
 10
10.018889
 20
67.651023
 30
0.0
 10
9.839967
 20
67.341121
 30
0.0
  0
LWPOLYLINE
  5
18e
100
AcDbEntity
  8
turtle1
 62
7
100
AcDbPolyline
 90
4
 70
0
 10
11.533300
 20
67.341121
 30
0.0
 10
11.891144
 20
67.341121
 30
0.0
 10
11.712222
 20
67.651023
 30
0.0
 10
11.533300
 20
67.341121
 30
0.0
  0
LWPOLYLINE
  5
18f
100
AcDbEntity
  8
turtle1
 62
7
100
AcDbPolyline
 90
4
 70
0
 10
8.428856
 20
69.785238
 30
0.0
 10
9.633366
 20
69.785238
 30
0.0
 10
9.031111
 20
70.828374
 30
0.0
 10
8.428856
 20
69.785238
 30
0.0
  0
LWPOLYLINE
  5
190
100
AcDbEntity
  8
turtle1
 62
7
100
AcDbPolyline
 90
4
 70
0
 10
8.852189
 20
69.052003
 30
0.0
 10
9.210033
 20
69.052003
 30
0.0
 10
9.031111
 20
69.361904
 30
0.0
 10
8.852189
 20
69.052003
 30
0.0
  0
LWPOLYLINE
  5
191
100
AcDbEntity
  8
turtle1
 62
7
100
AcDbPolyline
 90
4
 70
0
 10
8.005523
 20
70.518472
 30
0.0
 10
8.363366
 20
70.518472
 30
0.0
 10
8.184444
 20
70.828374
 30
0.0
 10
8.005523
 20
70.518472
 30
0.0
  0
LWPOLYLINE
  5
192
100
AcDbEntity
  8
turtle1
 62
7
100
AcDbPolyline
 90
4
 70
0
 10
9.698856
 20
70.518472
 30
0.0
 10
10.056700
 20
70.518472
 30
0.0
 10
9.877778
 20
70.828374
 30
0.0
 10
9.698856
 20
70.518472
 30
0.0
  0
LWPOLYLINE
  5
193
100
AcDbEntity
  8
turtle1
 62
7
100
AcDbPolyline
 90
4
 70
0
 10
12.097745
 20
69.785238
 30
0.0
 10
13.302255
 20
69.785238
 30
0.0
 10
12.700000
 20
70.828374
 30
0.0
 10
12.097745
 20
69.785238
 30
0.0
  0
LWPOLYLINE
  5
194
100
AcDbEntity
  8
turtle1
 62
7
100
AcDbPolyline
 90
4
 70
0
 10
12.521078
 20
69.052003
 30
0.0
 10
12.878922
 20
69.052003
 30
0.0
 10
12.700000
 20
69.361904
 30
0.0
 10
12.521078
 20
69.052003
 30
0.0
  0
LWPOLYLINE
  5
195
100
AcDbEntity
  8
turtle1
 62
7
100
AcDbPolyline
 90
4
 70
0
 10
11.674411
 20
70.518472
 30
0.0
 10
12.032255
 20
70.518472
 30
0.0
 10
11.853333
 20
70.828374
 30
0.0
 10
11.674411
 20
70.518472
 30
0.0
  0
LWPOLYLINE
  5
196
100
AcDbEntity
  8
turtle1
 62
7
100
AcDbPolyline
 90
4
 70
0
 10
13.367745
 20
70.518472
 30
0.0
 10
13.725588
 20
70.518472
 30
0.0
 10
13.546667
 20
70.828374
 30
0.0
 10
13.367745
 20
70.518472
 30
0.0
  0
LWPOLYLINE
  5
197
100
AcDbEntity
  8
turtle1
 62
7
100
AcDbPolyline
 90
4
 70
0
 10
16.754411
 20
68.074356
 30
0.0
 10
19.934477
 20
68.074356
 30
0.0
 10
18.344444
 20
70.828374
 30
0.0
 10
16.754411
 20
68.074356
 30
0.0
  0
LWPOLYLINE
  5
198
100
AcDbEntity
  8
turtle1
 62
7
100
AcDbPolyline
 90
4
 70
0
 10
17.601078
 20
66.607886
 30
0.0
 10
18.805589
 20
66.607886
 30
0.0
 10
18.203333
 20
67.651023
 30
0.0
 10
17.601078
 20
66.607886
 30
0.0
  0
LWPOLYLINE
  5
199
100
AcDbEntity
  8
turtle1
 62
7
100
AcDbPolyline
 90
4
 70
0
 10
18.024411
 20
65.874652
 30
0.0
 10
18.382255
 20
65.874652
 30
0.0
 10
18.203333
 20
66.184553
 30
0.0
 10
18.024411
 20
65.874652
 30
0.0
  0
LWPOLYLINE
  5
19a
100
AcDbEntity
  8
turtle1
 62
7
100
AcDbPolyline
 90
4
 70
0
 10
17.177745
 20
67.341121
 30
0.0
 10
17.535588
 20
67.341121
 30
0.0
 10
17.356667
 20
67.651023
 30
0.0
 10
17.177745
 20
67.341121
 30
0.0
  0
LWPOLYLINE
  5
19b
100
AcDbEntity
  8
turtle1
 62
7
100
AcDbPolyline
 90
4
 70
0
 10
18.871078
 20
67.341121
 30
0.0
 10
19.228922
 20
67.341121
 30
0.0
 10
19.050000
 20
67.651023
 30
0.0
 10
18.871078
 20
67.341121
 30
0.0
  0
LWPOLYLINE
  5
19c
100
AcDbEntity
  8
turtle1
 62
7
100
AcDbPolyline
 90
4
 70
0
 10
15.766634
 20
69.785238
 30
0.0
 10
16.971144
 20
69.785238
 30
0.0
 10
16.368889
 20
70.828374
 30
0.0
 10
15.766634
 20
69.785238
 30
0.0
  0
LWPOLYLINE
  5
19d
100
AcDbEntity
  8
turtle1
 62
7
100
AcDbPolyline
 90
4
 70
0
 10
16.189967
 20
69.052003
 30
0.0
 10
16.547811
 20
69.052003
 30
0.0
 10
16.368889
 20
69.361904
 30
0.0
 10
16.189967
 20
69.052003
 30
0.0
  0
LWPOLYLINE
  5
19e
100
AcDbEntity
  8
turtle1
 62
7
100
AcDbPolyline
 90
4
 70
0
 10
15.343300
 20
70.518472
 30
0.0
 10
15.701144
 20
70.518472
 30
0.0
 10
15.522222
 20
70.828374
 30
0.0
 10
15.343300
 20
70.518472
 30
0.0
  0
LWPOLYLINE
  5
19f
100
AcDbEntity
  8
turtle1
 62
7
100
AcDbPolyline
 90
4
 70
0
 10
17.036634
 20
70.518472
 30
0.0
 10
17.394477
 20
70.518472
 30
0.0
 10
17.215556
 20
70.828374
 30
0.0
 10
17.036634
 20
70.518472
 30
0.0
  0
LWPOLYLINE
  5
1a0
100
AcDbEntity
  8
turtle1
 62
7
100
AcDbPolyline
 90
4
 70
0
 10
19.435523
 20
69.785238
 30
0.0
 10
20.640033
 20
69.785238
 30
0.0
 10
20.037778
 20
70.828374
 30
0.0
 10
19.435523
 20
69.785238
 30
0.0
  0
LWPOLYLINE
  5
1a1
100
AcDbEntity
  8
turtle1
 62
7
100
AcDbPolyline
 90
4
 70
0
 10
19.858856
 20
69.052003
 30
0.0
 10
20.216700
 20
69.052003
 30
0.0
 10
20.037778
 20
69.361904
 30
0.0
 10
19.858856
 20
69.052003
 30
0.0
  0
LWPOLYLINE
  5
1a2
100
AcDbEntity
  8
turtle1
 62
7
100
AcDbPolyline
 90
4
 70
0
 10
19.012189
 20
70.518472
 30
0.0
 10
19.370033
 20
70.518472
 30
0.0
 10
19.191111
 20
70.828374
 30
0.0
 10
19.012189
 20
70.518472
 30
0.0
  0
LWPOLYLINE
  5
1a3
100
AcDbEntity
  8
turtle1
 62
7
100
AcDbPolyline
 90
4
 70
0
 10
20.705523
 20
70.518472
 30
0.0
 10
21.063366
 20
70.518472
 30
0.0
 10
20.884444
 20
70.828374
 30
0.0
 10
20.705523
 20
70.518472
 30
0.0
  0
LWPOLYLINE
  5
1a4
100
AcDbEntity
  8
turtle1
 62
7
100
AcDbPolyline
 90
4
 70
0
 10
3.913300
 20
77.606409
 30
0.0
 10
10.762255
 20
77.606409
 30
0.0
 10
7.337778
 20
83.537778
 30
0.0
 10
3.913300
 20
77.606409
 30
0.0
  0
LWPOLYLINE
  5
1a5
100
AcDbEntity
  8
turtle1
 62
7
100
AcDbPolyline
 90
4
 70
0
 10
5.747745
 20
74.429058
 30
0.0
 10
8.927811
 20
74.429058
 30
0.0
 10
7.337778
 20
77.183076
 30
0.0
 10
5.747745
 20
74.429058
 30
0.0
  0
LWPOLYLINE
  5
1a6
100
AcDbEntity
  8
turtle1
 62
7
100
AcDbPolyline
 90
4
 70
0
 10
6.594411
 20
72.962589
 30
0.0
 10
7.798922
 20
72.962589
 30
0.0
 10
7.196667
 20
74.005725
 30
0.0
 10
6.594411
 20
72.962589
 30
0.0
  0
LWPOLYLINE
  5
1a7
100
AcDbEntity
  8
turtle1
 62
7
100
AcDbPolyline
 90
4
 70
0
 10
7.017745
 20
72.229354
 30
0.0
 10
7.375588
 20
72.229354
 30
0.0
 10
7.196667
 20
72.539255
 30
0.0
 10
7.017745
 20
72.229354
 30
0.0
  0
LWPOLYLINE
  5
1a8
100
AcDbEntity
  8
turtle1
 62
7
100
AcDbPolyline
 90
4
 70
0
 10
6.171078
 20
73.695823
 30
0.0
 10
6.528922
 20
73.695823
 30
0.0
 10
6.350000
 20
74.005725
 30
0.0
 10
6.171078
 20
73.695823
 30
0.0
  0
LWPOLYLINE
  5
1a9
100
AcDbEntity
  8
turtle1
 62
7
100
AcDbPolyline
 90
4
 70
0
 10
7.864412
 20
73.695823
 30
0.0
 10
8.222255
 20
73.695823
 30
0.0
 10
8.043333
 20
74.005725
 30
0.0
 10
7.864412
 20
73.695823
 30
0.0
  0
LWPOLYLINE
  5
1aa
100
AcDbEntity
  8
turtle1
 62
7
100
AcDbPolyline
 90
4
 70
0
 10
4.759967
 20
76.139939
 30
0.0
 10
5.964477
 20
76.139939
 30
0.0
 10
5.362222
 20
77.183076
 30
0.0
 10
4.759967
 20
76.139939
 30
0.0
  0
LWPOLYLINE
  5
1ab
100
AcDbEntity
  8
turtle1
 62
7
100
AcDbPolyline
 90
4
 70
0
 10
5.183300
 20
75.406705
 30
0.0
 10
5.541144
 20
75.406705
 30
0.0
 10
5.362222
 20
75.716606
 30
0.0
 10
5.183300
 20
75.406705
 30
0.0
  0
LWPOLYLINE
  5
1ac
100
AcDbEntity
  8
turtle1
 62
7
100
AcDbPolyline
 90
4
 70
0
 10
4.336634
 20
76.873174
 30
0.0
 10
4.694477
 20
76.873174
 30
0.0
 10
4.515556
 20
77.183076
 30
0.0
 10
4.336634
 20
76.873174
 30
0.0
  0
LWPOLYLINE
  5
1ad
100
AcDbEntity
  8
turtle1
 62
7
100
AcDbPolyline
 90
4
 70
0
 10
6.029967
 20
76.873174
 30
0.0
 10
6.387811
 20
76.873174
 30
0.0
 10
6.208889
 20
77.183076
 30
0.0
 10
6.029967
 20
76.873174
 30
0.0
  0
LWPOLYLINE
  5
1ae
100
AcDbEntity
  8
turtle1
 62
7
100
AcDbPolyline
 90
4
 70
0
 10
8.428856
 20
76.139939
 30
0.0
 10
9.633366
 20
76.139939
 30
0.0
 10
9.031111
 20
77.183076
 30
0.0
 10
8.428856
 20
76.139939
 30
0.0
  0
LWPOLYLINE
  5
1af
100
AcDbEntity
  8
turtle1
 62
7
100
AcDbPolyline
 90
4
 70
0
 10
8.852189
 20
75.406705
 30
0.0
 10
9.210033
 20
75.406705
 30
0.0
 10
9.031111
 20
75.716606
 30
0.0
 10
8.852189
 20
75.406705
 30
0.0
  0
LWPOLYLINE
  5
1b0
100
AcDbEntity
  8
turtle1
 62
7
100
AcDbPolyline
 90
4
 70
0
 10
8.005523
 20
76.873174
 30
0.0
 10
8.363366
 20
76.873174
 30
0.0
 10
8.184444
 20
77.183076
 30
0.0
 10
8.005523
 20
76.873174
 30
0.0
  0
LWPOLYLINE
  5
1b1
100
AcDbEntity
  8
turtle1
 62
7
100
AcDbPolyline
 90
4
 70
0
 10
9.698856
 20
76.873174
 30
0.0
 10
10.056700
 20
76.873174
 30
0.0
 10
9.877778
 20
77.183076
 30
0.0
 10
9.698856
 20
76.873174
 30
0.0
  0
LWPOLYLINE
  5
1b2
100
AcDbEntity
  8
turtle1
 62
7
100
AcDbPolyline
 90
4
 70
0
 10
2.078856
 20
80.783760
 30
0.0
 10
5.258922
 20
80.783760
 30
0.0
 10
3.668889
 20
83.537778
 30
0.0
 10
2.078856
 20
80.783760
 30
0.0
  0
LWPOLYLINE
  5
1b3
100
AcDbEntity
  8
turtle1
 62
7
100
AcDbPolyline
 90
4
 70
0
 10
2.925523
 20
79.317290
 30
0.0
 10
4.130033
 20
79.317290
 30
0.0
 10
3.527778
 20
80.360427
 30
0.0
 10
2.925523
 20
79.317290
 30
0.0
  0
LWPOLYLINE
  5
1b4
100
AcDbEntity
  8
turtle1
 62
7
100
AcDbPolyline
 90
4
 70
0
 10
3.348856
 20
78.584056
 30
0.0
 10
3.706700
 20
78.584056
 30
0.0
 10
3.527778
 20
78.893957
 30
0.0
 10
3.348856
 20
78.584056
 30
0.0
  0
LWPOLYLINE
  5
1b5
100
AcDbEntity
  8
turtle1
 62
7
100
AcDbPolyline
 90
4
 70
0
 10
2.502189
 20
80.050525
 30
0.0
 10
2.860033
 20
80.050525
 30
0.0
 10
2.681111
 20
80.360427
 30
0.0
 10
2.502189
 20
80.050525
 30
0.0
  0
LWPOLYLINE
  5
1b6
100
AcDbEntity
  8
turtle1
 62
7
100
AcDbPolyline
 90
4
 70
0
 10
4.195523
 20
80.050525
 30
0.0
 10
4.553366
 20
80.050525
 30
0.0
 10
4.374444
 20
80.360427
 30
0.0
 10
4.195523
 20
80.050525
 30
0.0
  0
LWPOLYLINE
  5
1b7
100
AcDbEntity
  8
turtle1
 62
7
100
AcDbPolyline
 90
4
 70
0
 10
1.091078
 20
82.494642
 30
0.0
 10
2.295588
 20
82.494642
 30
0.0
 10
1.693333
 20
83.537778
 30
0.0
 10
1.091078
 20
82.494642
 30
0.0
  0
LWPOLYLINE
  5
1b8
100
AcDbEntity
  8
turtle1
 62
7
100
AcDbPolyline
 90
4
 70
0
 10
1.514411
 20
81.761406
 30
0.0
 10
1.872255
 20
81.761406
 30
0.0
 10
1.693333
 20
82.071308
 30
0.0
 10
1.514411
 20
81.761406
 30
0.0
  0
LWPOLYLINE
  5
1b9
100
AcDbEntity
  8
turtle1
 62
7
100
AcDbPolyline
 90
4
 70
0
 10
0.667745
 20
83.227876
 30
0.0
 10
1.025589
 20
83.227876
 30
0.0
 10
0.846667
 20
83.537778
 30
0.0
 10
0.667745
 20
83.227876
 30
0.0
  0
LWPOLYLINE
  5
1ba
100
AcDbEntity
  8
turtle1
 62
7
100
AcDbPolyline
 90
4
 70
0
 10
2.361078
 20
83.227876
 30
0.0
 10
2.718922
 20
83.227876
 30
0.0
 10
2.540000
 20
83.537778
 30
0.0
 10
2.361078
 20
83.227876
 30
0.0
  0
LWPOLYLINE
  5
1bb
100
AcDbEntity
  8
turtle1
 62
7
100
AcDbPolyline
 90
4
 70
0
 10
4.759967
 20
82.494642
 30
0.0
 10
5.964477
 20
82.494642
 30
0.0
 10
5.362222
 20
83.537778
 30
0.0
 10
4.759967
 20
82.494642
 30
0.0
  0
LWPOLYLINE
  5
1bc
100
AcDbEntity
  8
turtle1
 62
7
100
AcDbPolyline
 90
4
 70
0
 10
5.183300
 20
81.761406
 30
0.0
 10
5.541144
 20
81.761406
 30
0.0
 10
5.362222
 20
82.071308
 30
0.0
 10
5.183300
 20
81.761406
 30
0.0
  0
LWPOLYLINE
  5
1bd
100
AcDbEntity
  8
turtle1
 62
7
100
AcDbPolyline
 90
4
 70
0
 10
4.336634
 20
83.227876
 30
0.0
 10
4.694477
 20
83.227876
 30
0.0
 10
4.515556
 20
83.537778
 30
0.0
 10
4.336634
 20
83.227876
 30
0.0
  0
LWPOLYLINE
  5
1be
100
AcDbEntity
  8
turtle1
 62
7
100
AcDbPolyline
 90
4
 70
0
 10
6.029967
 20
83.227876
 30
0.0
 10
6.387811
 20
83.227876
 30
0.0
 10
6.208889
 20
83.537778
 30
0.0
 10
6.029967
 20
83.227876
 30
0.0
  0
LWPOLYLINE
  5
1bf
100
AcDbEntity
  8
turtle1
 62
7
100
AcDbPolyline
 90
4
 70
0
 10
9.416634
 20
80.783760
 30
0.0
 10
12.596700
 20
80.783760
 30
0.0
 10
11.006667
 20
83.537778
 30
0.0
 10
9.416634
 20
80.783760
 30
0.0
  0
LWPOLYLINE
  5
1c0
100
AcDbEntity
  8
turtle1
 62
7
100
AcDbPolyline
 90
4
 70
0
 10
10.263300
 20
79.317290
 30
0.0
 10
11.467811
 20
79.317290
 30
0.0
 10
10.865556
 20
80.360427
 30
0.0
 10
10.263300
 20
79.317290
 30
0.0
  0
LWPOLYLINE
  5
1c1
100
AcDbEntity
  8
turtle1
 62
7
100
AcDbPolyline
 90
4
 70
0
 10
10.686634
 20
78.584056
 30
0.0
 10
11.044477
 20
78.584056
 30
0.0
 10
10.865556
 20
78.893957
 30
0.0
 10
10.686634
 20
78.584056
 30
0.0
  0
LWPOLYLINE
  5
1c2
100
AcDbEntity
  8
turtle1
 62
7
100
AcDbPolyline
 90
4
 70
0
 10
9.839967
 20
80.050525
 30
0.0
 10
10.197811
 20
80.050525
 30
0.0
 10
10.018889
 20
80.360427
 30
0.0
 10
9.839967
 20
80.050525
 30
0.0
  0
LWPOLYLINE
  5
1c3
100
AcDbEntity
  8
turtle1
 62
7
100
AcDbPolyline
 90
4
 70
0
 10
11.533300
 20
80.050525
 30
0.0
 10
11.891144
 20
80.050525
 30
0.0
 10
11.712222
 20
80.360427
 30
0.0
 10
11.533300
 20
80.050525
 30
0.0
  0
LWPOLYLINE
  5
1c4
100
AcDbEntity
  8
turtle1
 62
7
100
AcDbPolyline
 90
4
 70
0
 10
8.428856
 20
82.494642
 30
0.0
 10
9.633366
 20
82.494642
 30
0.0
 10
9.031111
 20
83.537778
 30
0.0
 10
8.428856
 20
82.494642
 30
0.0
  0
LWPOLYLINE
  5
1c5
100
AcDbEntity
  8
turtle1
 62
7
100
AcDbPolyline
 90
4
 70
0
 10
8.852189
 20
81.761406
 30
0.0
 10
9.210033
 20
81.761406
 30
0.0
 10
9.031111
 20
82.071308
 30
0.0
 10
8.852189
 20
81.761406
 30
0.0
  0
LWPOLYLINE
  5
1c6
100
AcDbEntity
  8
turtle1
 62
7
100
AcDbPolyline
 90
4
 70
0
 10
8.005523
 20
83.227876
 30
0.0
 10
8.363366
 20
83.227876
 30
0.0
 10
8.184444
 20
83.537778
 30
0.0
 10
8.005523
 20
83.227876
 30
0.0
  0
LWPOLYLINE
  5
1c7
100
AcDbEntity
  8
turtle1
 62
7
100
AcDbPolyline
 90
4
 70
0
 10
9.698856
 20
83.227876
 30
0.0
 10
10.056700
 20
83.227876
 30
0.0
 10
9.877778
 20
83.537778
 30
0.0
 10
9.698856
 20
83.227876
 30
0.0
  0
LWPOLYLINE
  5
1c8
100
AcDbEntity
  8
turtle1
 62
7
100
AcDbPolyline
 90
4
 70
0
 10
12.097745
 20
82.494642
 30
0.0
 10
13.302255
 20
82.494642
 30
0.0
 10
12.700000
 20
83.537778
 30
0.0
 10
12.097745
 20
82.494642
 30
0.0
  0
LWPOLYLINE
  5
1c9
100
AcDbEntity
  8
turtle1
 62
7
100
AcDbPolyline
 90
4
 70
0
 10
12.521078
 20
81.761406
 30
0.0
 10
12.878922
 20
81.761406
 30
0.0
 10
12.700000
 20
82.071308
 30
0.0
 10
12.521078
 20
81.761406
 30
0.0
  0
LWPOLYLINE
  5
1ca
100
AcDbEntity
  8
turtle1
 62
7
100
AcDbPolyline
 90
4
 70
0
 10
11.674411
 20
83.227876
 30
0.0
 10
12.032255
 20
83.227876
 30
0.0
 10
11.853333
 20
83.537778
 30
0.0
 10
11.674411
 20
83.227876
 30
0.0
  0
LWPOLYLINE
  5
1cb
100
AcDbEntity
  8
turtle1
 62
7
100
AcDbPolyline
 90
4
 70
0
 10
13.367745
 20
83.227876
 30
0.0
 10
13.725588
 20
83.227876
 30
0.0
 10
13.546667
 20
83.537778
 30
0.0
 10
13.367745
 20
83.227876
 30
0.0
  0
LWPOLYLINE
  5
1cc
100
AcDbEntity
  8
turtle1
 62
7
100
AcDbPolyline
 90
4
 70
0
 10
18.588856
 20
77.606409
 30
0.0
 10
25.437811
 20
77.606409
 30
0.0
 10
22.013333
 20
83.537778
 30
0.0
 10
18.588856
 20
77.606409
 30
0.0
  0
LWPOLYLINE
  5
1cd
100
AcDbEntity
  8
turtle1
 62
7
100
AcDbPolyline
 90
4
 70
0
 10
20.423300
 20
74.429058
 30
0.0
 10
23.603366
 20
74.429058
 30
0.0
 10
22.013333
 20
77.183076
 30
0.0
 10
20.423300
 20
74.429058
 30
0.0
  0
LWPOLYLINE
  5
1ce
100
AcDbEntity
  8
turtle1
 62
7
100
AcDbPolyline
 90
4
 70
0
 10
21.269967
 20
72.962589
 30
0.0
 10
22.474477
 20
72.962589
 30
0.0
 10
21.872222
 20
74.005725
 30
0.0
 10
21.269967
 20
72.962589
 30
0.0
  0
LWPOLYLINE
  5
1cf
100
AcDbEntity
  8
turtle1
 62
7
100
AcDbPolyline
 90
4
 70
0
 10
21.693300
 20
72.229354
 30
0.0
 10
22.051144
 20
72.229354
 30
0.0
 10
21.872222
 20
72.539255
 30
0.0
 10
21.693300
 20
72.229354
 30
0.0
  0
LWPOLYLINE
  5
1d0
100
AcDbEntity
  8
turtle1
 62
7
100
AcDbPolyline
 90
4
 70
0
 10
20.846634
 20
73.695823
 30
0.0
 10
21.204477
 20
73.695823
 30
0.0
 10
21.025556
 20
74.005725
 30
0.0
 10
20.846634
 20
73.695823
 30
0.0
  0
LWPOLYLINE
  5
1d1
100
AcDbEntity
  8
turtle1
 62
7
100
AcDbPolyline
 90
4
 70
0
 10
22.539967
 20
73.695823
 30
0.0
 10
22.897811
 20
73.695823
 30
0.0
 10
22.718889
 20
74.005725
 30
0.0
 10
22.539967
 20
73.695823
 30
0.0
  0
LWPOLYLINE
  5
1d2
100
AcDbEntity
  8
turtle1
 62
7
100
AcDbPolyline
 90
4
 70
0
 10
19.435523
 20
76.139939
 30
0.0
 10
20.640033
 20
76.139939
 30
0.0
 10
20.037778
 20
77.183076
 30
0.0
 10
19.435523
 20
76.139939
 30
0.0
  0
LWPOLYLINE
  5
1d3
100
AcDbEntity
  8
turtle1
 62
7
100
AcDbPolyline
 90
4
 70
0
 10
19.858856
 20
75.406705
 30
0.0
 10
20.216700
 20
75.406705
 30
0.0
 10
20.037778
 20
75.716606
 30
0.0
 10
19.858856
 20
75.406705
 30
0.0
  0
LWPOLYLINE
  5
1d4
100
AcDbEntity
  8
turtle1
 62
7
100
AcDbPolyline
 90
4
 70
0
 10
19.012189
 20
76.873174
 30
0.0
 10
19.370033
 20
76.873174
 30
0.0
 10
19.191111
 20
77.183076
 30
0.0
 10
19.012189
 20
76.873174
 30
0.0
  0
LWPOLYLINE
  5
1d5
100
AcDbEntity
  8
turtle1
 62
7
100
AcDbPolyline
 90
4
 70
0
 10
20.705523
 20
76.873174
 30
0.0
 10
21.063366
 20
76.873174
 30
0.0
 10
20.884444
 20
77.183076
 30
0.0
 10
20.705523
 20
76.873174
 30
0.0
  0
LWPOLYLINE
  5
1d6
100
AcDbEntity
  8
turtle1
 62
7
100
AcDbPolyline
 90
4
 70
0
 10
23.104411
 20
76.139939
 30
0.0
 10
24.308922
 20
76.139939
 30
0.0
 10
23.706667
 20
77.183076
 30
0.0
 10
23.104411
 20
76.139939
 30
0.0
  0
LWPOLYLINE
  5
1d7
100
AcDbEntity
  8
turtle1
 62
7
100
AcDbPolyline
 90
4
 70
0
 10
23.527745
 20
75.406705
 30
0.0
 10
23.885589
 20
75.406705
 30
0.0
 10
23.706667
 20
75.716606
 30
0.0
 10
23.527745
 20
75.406705
 30
0.0
  0
LWPOLYLINE
  5
1d8
100
AcDbEntity
  8
turtle1
 62
7
100
AcDbPolyline
 90
4
 70
0
 10
22.681078
 20
76.873174
 30
0.0
 10
23.038922
 20
76.873174
 30
0.0
 10
22.860000
 20
77.183076
 30
0.0
 10
22.681078
 20
76.873174
 30
0.0
  0
LWPOLYLINE
  5
1d9
100
AcDbEntity
  8
turtle1
 62
7
100
AcDbPolyline
 90
4
 70
0
 10
24.374411
 20
76.873174
 30
0.0
 10
24.732255
 20
76.873174
 30
0.0
 10
24.553333
 20
77.183076
 30
0.0
 10
24.374411
 20
76.873174
 30
0.0
  0
LWPOLYLINE
  5
1da
100
AcDbEntity
  8
turtle1
 62
7
100
AcDbPolyline
 90
4
 70
0
 10
16.754411
 20
80.783760
 30
0.0
 10
19.934477
 20
80.783760
 30
0.0
 10
18.344444
 20
83.537778
 30
0.0
 10
16.754411
 20
80.783760
 30
0.0
  0
LWPOLYLINE
  5
1db
100
AcDbEntity
  8
turtle1
 62
7
100
AcDbPolyline
 90
4
 70
0
 10
17.601078
 20
79.317290
 30
0.0
 10
18.805589
 20
79.317290
 30
0.0
 10
18.203333
 20
80.360427
 30
0.0
 10
17.601078
 20
79.317290
 30
0.0
  0
LWPOLYLINE
  5
1dc
100
AcDbEntity
  8
turtle1
 62
7
100
AcDbPolyline
 90
4
 70
0
 10
18.024411
 20
78.584056
 30
0.0
 10
18.382255
 20
78.584056
 30
0.0
 10
18.203333
 20
78.893957
 30
0.0
 10
18.024411
 20
78.584056
 30
0.0
  0
LWPOLYLINE
  5
1dd
100
AcDbEntity
  8
turtle1
 62
7
100
AcDbPolyline
 90
4
 70
0
 10
17.177745
 20
80.050525
 30
0.0
 10
17.535588
 20
80.050525
 30
0.0
 10
17.356667
 20
80.360427
 30
0.0
 10
17.177745
 20
80.050525
 30
0.0
  0
LWPOLYLINE
  5
1de
100
AcDbEntity
  8
turtle1
 62
7
100
AcDbPolyline
 90
4
 70
0
 10
18.871078
 20
80.050525
 30
0.0
 10
19.228922
 20
80.050525
 30
0.0
 10
19.050000
 20
80.360427
 30
0.0
 10
18.871078
 20
80.050525
 30
0.0
  0
LWPOLYLINE
  5
1df
100
AcDbEntity
  8
turtle1
 62
7
100
AcDbPolyline
 90
4
 70
0
 10
15.766634
 20
82.494642
 30
0.0
 10
16.971144
 20
82.494642
 30
0.0
 10
16.368889
 20
83.537778
 30
0.0
 10
15.766634
 20
82.494642
 30
0.0
  0
LWPOLYLINE
  5
1e0
100
AcDbEntity
  8
turtle1
 62
7
100
AcDbPolyline
 90
4
 70
0
 10
16.189967
 20
81.761406
 30
0.0
 10
16.547811
 20
81.761406
 30
0.0
 10
16.368889
 20
82.071308
 30
0.0
 10
16.189967
 20
81.761406
 30
0.0
  0
LWPOLYLINE
  5
1e1
100
AcDbEntity
  8
turtle1
 62
7
100
AcDbPolyline
 90
4
 70
0
 10
15.343300
 20
83.227876
 30
0.0
 10
15.701144
 20
83.227876
 30
0.0
 10
15.522222
 20
83.537778
 30
0.0
 10
15.343300
 20
83.227876
 30
0.0
  0
LWPOLYLINE
  5
1e2
100
AcDbEntity
  8
turtle1
 62
7
100
AcDbPolyline
 90
4
 70
0
 10
17.036634
 20
83.227876
 30
0.0
 10
17.394477
 20
83.227876
 30
0.0
 10
17.215556
 20
83.537778
 30
0.0
 10
17.036634
 20
83.227876
 30
0.0
  0
LWPOLYLINE
  5
1e3
100
AcDbEntity
  8
turtle1
 62
7
100
AcDbPolyline
 90
4
 70
0
 10
19.435523
 20
82.494642
 30
0.0
 10
20.640033
 20
82.494642
 30
0.0
 10
20.037778
 20
83.537778
 30
0.0
 10
19.435523
 20
82.494642
 30
0.0
  0
LWPOLYLINE
  5
1e4
100
AcDbEntity
  8
turtle1
 62
7
100
AcDbPolyline
 90
4
 70
0
 10
19.858856
 20
81.761406
 30
0.0
 10
20.216700
 20
81.761406
 30
0.0
 10
20.037778
 20
82.071308
 30
0.0
 10
19.858856
 20
81.761406
 30
0.0
  0
LWPOLYLINE
  5
1e5
100
AcDbEntity
  8
turtle1
 62
7
100
AcDbPolyline
 90
4
 70
0
 10
19.012189
 20
83.227876
 30
0.0
 10
19.370033
 20
83.227876
 30
0.0
 10
19.191111
 20
83.537778
 30
0.0
 10
19.012189
 20
83.227876
 30
0.0
  0
LWPOLYLINE
  5
1e6
100
AcDbEntity
  8
turtle1
 62
7
100
AcDbPolyline
 90
4
 70
0
 10
20.705523
 20
83.227876
 30
0.0
 10
21.063366
 20
83.227876
 30
0.0
 10
20.884444
 20
83.537778
 30
0.0
 10
20.705523
 20
83.227876
 30
0.0
  0
LWPOLYLINE
  5
1e7
100
AcDbEntity
  8
turtle1
 62
7
100
AcDbPolyline
 90
4
 70
0
 10
24.092189
 20
80.783760
 30
0.0
 10
27.272255
 20
80.783760
 30
0.0
 10
25.682222
 20
83.537778
 30
0.0
 10
24.092189
 20
80.783760
 30
0.0
  0
LWPOLYLINE
  5
1e8
100
AcDbEntity
  8
turtle1
 62
7
100
AcDbPolyline
 90
4
 70
0
 10
24.938856
 20
79.317290
 30
0.0
 10
26.143366
 20
79.317290
 30
0.0
 10
25.541111
 20
80.360427
 30
0.0
 10
24.938856
 20
79.317290
 30
0.0
  0
LWPOLYLINE
  5
1e9
100
AcDbEntity
  8
turtle1
 62
7
100
AcDbPolyline
 90
4
 70
0
 10
25.362189
 20
78.584056
 30
0.0
 10
25.720033
 20
78.584056
 30
0.0
 10
25.541111
 20
78.893957
 30
0.0
 10
25.362189
 20
78.584056
 30
0.0
  0
LWPOLYLINE
  5
1ea
100
AcDbEntity
  8
turtle1
 62
7
100
AcDbPolyline
 90
4
 70
0
 10
24.515523
 20
80.050525
 30
0.0
 10
24.873366
 20
80.050525
 30
0.0
 10
24.694444
 20
80.360427
 30
0.0
 10
24.515523
 20
80.050525
 30
0.0
  0
LWPOLYLINE
  5
1eb
100
AcDbEntity
  8
turtle1
 62
7
100
AcDbPolyline
 90
4
 70
0
 10
26.208856
 20
80.050525
 30
0.0
 10
26.566700
 20
80.050525
 30
0.0
 10
26.387778
 20
80.360427
 30
0.0
 10
26.208856
 20
80.050525
 30
0.0
  0
LWPOLYLINE
  5
1ec
100
AcDbEntity
  8
turtle1
 62
7
100
AcDbPolyline
 90
4
 70
0
 10
23.104411
 20
82.494642
 30
0.0
 10
24.308922
 20
82.494642
 30
0.0
 10
23.706667
 20
83.537778
 30
0.0
 10
23.104411
 20
82.494642
 30
0.0
  0
LWPOLYLINE
  5
1ed
100
AcDbEntity
  8
turtle1
 62
7
100
AcDbPolyline
 90
4
 70
0
 10
23.527745
 20
81.761406
 30
0.0
 10
23.885589
 20
81.761406
 30
0.0
 10
23.706667
 20
82.071308
 30
0.0
 10
23.527745
 20
81.761406
 30
0.0
  0
LWPOLYLINE
  5
1ee
100
AcDbEntity
  8
turtle1
 62
7
100
AcDbPolyline
 90
4
 70
0
 10
22.681078
 20
83.227876
 30
0.0
 10
23.038922
 20
83.227876
 30
0.0
 10
22.860000
 20
83.537778
 30
0.0
 10
22.681078
 20
83.227876
 30
0.0
  0
LWPOLYLINE
  5
1ef
100
AcDbEntity
  8
turtle1
 62
7
100
AcDbPolyline
 90
4
 70
0
 10
24.374411
 20
83.227876
 30
0.0
 10
24.732255
 20
83.227876
 30
0.0
 10
24.553333
 20
83.537778
 30
0.0
 10
24.374411
 20
83.227876
 30
0.0
  0
LWPOLYLINE
  5
1f0
100
AcDbEntity
  8
turtle1
 62
7
100
AcDbPolyline
 90
4
 70
0
 10
26.773300
 20
82.494642
 30
0.0
 10
27.977811
 20
82.494642
 30
0.0
 10
27.375556
 20
83.537778
 30
0.0
 10
26.773300
 20
82.494642
 30
0.0
  0
LWPOLYLINE
  5
1f1
100
AcDbEntity
  8
turtle1
 62
7
100
AcDbPolyline
 90
4
 70
0
 10
27.196634
 20
81.761406
 30
0.0
 10
27.554477
 20
81.761406
 30
0.0
 10
27.375556
 20
82.071308
 30
0.0
 10
27.196634
 20
81.761406
 30
0.0
  0
LWPOLYLINE
  5
1f2
100
AcDbEntity
  8
turtle1
 62
7
100
AcDbPolyline
 90
4
 70
0
 10
26.349967
 20
83.227876
 30
0.0
 10
26.707811
 20
83.227876
 30
0.0
 10
26.528889
 20
83.537778
 30
0.0
 10
26.349967
 20
83.227876
 30
0.0
  0
LWPOLYLINE
  5
1f3
100
AcDbEntity
  8
turtle1
 62
7
100
AcDbPolyline
 90
4
 70
0
 10
28.043300
 20
83.227876
 30
0.0
 10
28.401144
 20
83.227876
 30
0.0
 10
28.222222
 20
83.537778
 30
0.0
 10
28.043300
 20
83.227876
 30
0.0
  0
LWPOLYLINE
  5
1f4
100
AcDbEntity
  8
turtle1
 62
7
100
AcDbPolyline
 90
4
 70
0
 10
37.215523
 20
71.251707
 30
0.0
 10
51.402255
 20
71.251707
 30
0.0
 10
44.308889
 20
83.537778
 30
0.0
 10
37.215523
 20
71.251707
 30
0.0
  0
LWPOLYLINE
  5
1f5
100
AcDbEntity
  8
turtle1
 62
7
100
AcDbPolyline
 90
4
 70
0
 10
40.884411
 20
64.897005
 30
0.0
 10
47.733366
 20
64.897005
 30
0.0
 10
44.308889
 20
70.828374
 30
0.0
 10
40.884411
 20
64.897005
 30
0.0
  0
LWPOLYLINE
  5
1f6
100
AcDbEntity
  8
turtle1
 62
7
100
AcDbPolyline
 90
4
 70
0
 10
42.718856
 20
61.719654
 30
0.0
 10
45.898922
 20
61.719654
 30
0.0
 10
44.308889
 20
64.473672
 30
0.0
 10
42.718856
 20
61.719654
 30
0.0
  0
LWPOLYLINE
  5
1f7
100
AcDbEntity
  8
turtle1
 62
7
100
AcDbPolyline
 90
4
 70
0
 10
43.565523
 20
60.253185
 30
0.0
 10
44.770033
 20
60.253185
 30
0.0
 10
44.167778
 20
61.296321
 30
0.0
 10
43.565523
 20
60.253185
 30
0.0
  0
LWPOLYLINE
  5
1f8
100
AcDbEntity
  8
turtle1
 62
7
100
AcDbPolyline
 90
4
 70
0
 10
43.988856
 20
59.519950
 30
0.0
 10
44.346700
 20
59.519950
 30
0.0
 10
44.167778
 20
59.829851
 30
0.0
 10
43.988856
 20
59.519950
 30
0.0
  0
LWPOLYLINE
  5
1f9
100
AcDbEntity
  8
turtle1
 62
7
100
AcDbPolyline
 90
4
 70
0
 10
43.142189
 20
60.986419
 30
0.0
 10
43.500033
 20
60.986419
 30
0.0
 10
43.321111
 20
61.296321
 30
0.0
 10
43.142189
 20
60.986419
 30
0.0
  0
LWPOLYLINE
  5
1fa
100
AcDbEntity
  8
turtle1
 62
7
100
AcDbPolyline
 90
4
 70
0
 10
44.835523
 20
60.986419
 30
0.0
 10
45.193366
 20
60.986419
 30
0.0
 10
45.014444
 20
61.296321
 30
0.0
 10
44.835523
 20
60.986419
 30
0.0
  0
LWPOLYLINE
  5
1fb
100
AcDbEntity
  8
turtle1
 62
7
100
AcDbPolyline
 90
4
 70
0
 10
41.731078
 20
63.430536
 30
0.0
 10
42.935588
 20
63.430536
 30
0.0
 10
42.333333
 20
64.473672
 30
0.0
 10
41.731078
 20
63.430536
 30
0.0
  0
LWPOLYLINE
  5
1fc
100
AcDbEntity
  8
turtle1
 62
7
100
AcDbPolyline
 90
4
 70
0
 10
42.154412
 20
62.697301
 30
0.0
 10
42.512255
 20
62.697301
 30
0.0
 10
42.333333
 20
63.007202
 30
0.0
 10
42.154412
 20
62.697301
 30
0.0
  0
LWPOLYLINE
  5
1fd
100
AcDbEntity
  8
turtle1
 62
7
100
AcDbPolyline
 90
4
 70
0
 10
41.307745
 20
64.163770
 30
0.0
 10
41.665588
 20
64.163770
 30
0.0
 10
41.486667
 20
64.473672
 30
0.0
 10
41.307745
 20
64.163770
 30
0.0
  0
LWPOLYLINE
  5
1fe
100
AcDbEntity
  8
turtle1
 62
7
100
AcDbPolyline
 90
4
 70
0
 10
43.001078
 20
64.163770
 30
0.0
 10
43.358922
 20
64.163770
 30
0.0
 10
43.180000
 20
64.473672
 30
0.0
 10
43.001078
 20
64.163770
 30
0.0
  0
LWPOLYLINE
  5
1ff
100
AcDbEntity
  8
turtle1
 62
7
100
AcDbPolyline
 90
4
 70
0
 10
45.399967
 20
63.430536
 30
0.0
 10
46.604477
 20
63.430536
 30
0.0
 10
46.002222
 20
64.473672
 30
0.0
 10
45.399967
 20
63.430536
 30
0.0
  0
LWPOLYLINE
  5
200
100
AcDbEntity
  8
turtle1
 62
7
100
AcDbPolyline
 90
4
 70
0
 10
45.823300
 20
62.697301
 30
0.0
 10
46.181144
 20
62.697301
 30
0.0
 10
46.002222
 20
63.007202
 30
0.0
 10
45.823300
 20
62.697301
 30
0.0
  0
LWPOLYLINE
  5
201
100
AcDbEntity
  8
turtle1
 62
7
100
AcDbPolyline
 90
4
 70
0
 10
44.976634
 20
64.163770
 30
0.0
 10
45.334477
 20
64.163770
 30
0.0
 10
45.155556
 20
64.473672
 30
0.0
 10
44.976634
 20
64.163770
 30
0.0
  0
LWPOLYLINE
  5
202
100
AcDbEntity
  8
turtle1
 62
7
100
AcDbPolyline
 90
4
 70
0
 10
46.669967
 20
64.163770
 30
0.0
 10
47.027811
 20
64.163770
 30
0.0
 10
46.848889
 20
64.473672
 30
0.0
 10
46.669967
 20
64.163770
 30
0.0
  0
LWPOLYLINE
  5
203
100
AcDbEntity
  8
turtle1
 62
7
100
AcDbPolyline
 90
4
 70
0
 10
39.049967
 20
68.074356
 30
0.0
 10
42.230033
 20
68.074356
 30
0.0
 10
40.640000
 20
70.828374
 30
0.0
 10
39.049967
 20
68.074356
 30
0.0
  0
LWPOLYLINE
  5
204
100
AcDbEntity
  8
turtle1
 62
7
100
AcDbPolyline
 90
4
 70
0
 10
39.896634
 20
66.607886
 30
0.0
 10
41.101144
 20
66.607886
 30
0.0
 10
40.498889
 20
67.651023
 30
0.0
 10
39.896634
 20
66.607886
 30
0.0
  0
LWPOLYLINE
  5
205
100
AcDbEntity
  8
turtle1
 62
7
100
AcDbPolyline
 90
4
 70
0
 10
40.319967
 20
65.874652
 30
0.0
 10
40.677811
 20
65.874652
 30
0.0
 10
40.498889
 20
66.184553
 30
0.0
 10
40.319967
 20
65.874652
 30
0.0
  0
LWPOLYLINE
  5
206
100
AcDbEntity
  8
turtle1
 62
7
100
AcDbPolyline
 90
4
 70
0
 10
39.473300
 20
67.341121
 30
0.0
 10
39.831144
 20
67.341121
 30
0.0
 10
39.652222
 20
67.651023
 30
0.0
 10
39.473300
 20
67.341121
 30
0.0
  0
LWPOLYLINE
  5
207
100
AcDbEntity
  8
turtle1
 62
7
100
AcDbPolyline
 90
4
 70
0
 10
41.166634
 20
67.341121
 30
0.0
 10
41.524477
 20
67.341121
 30
0.0
 10
41.345556
 20
67.651023
 30
0.0
 10
41.166634
 20
67.341121
 30
0.0
  0
LWPOLYLINE
  5
208
100
AcDbEntity
  8
turtle1
 62
7
100
AcDbPolyline
 90
4
 70
0
 10
38.062189
 20
69.785238
 30
0.0
 10
39.266700
 20
69.785238
 30
0.0
 10
38.664444
 20
70.828374
 30
0.0
 10
38.062189
 20
69.785238
 30
0.0
  0
LWPOLYLINE
  5
209
100
AcDbEntity
  8
turtle1
 62
7
100
AcDbPolyline
 90
4
 70
0
 10
38.485523
 20
69.052003
 30
0.0
 10
38.843366
 20
69.052003
 30
0.0
 10
38.664444
 20
69.361904
 30
0.0
 10
38.485523
 20
69.052003
 30
0.0
  0
LWPOLYLINE
  5
20a
100
AcDbEntity
  8
turtle1
 62
7
100
AcDbPolyline
 90
4
 70
0
 10
37.638856
 20
70.518472
 30
0.0
 10
37.996700
 20
70.518472
 30
0.0
 10
37.817778
 20
70.828374
 30
0.0
 10
37.638856
 20
70.518472
 30
0.0
  0
LWPOLYLINE
  5
20b
100
AcDbEntity
  8
turtle1
 62
7
100
AcDbPolyline
 90
4
 70
0
 10
39.332189
 20
70.518472
 30
0.0
 10
39.690033
 20
70.518472
 30
0.0
 10
39.511111
 20
70.828374
 30
0.0
 10
39.332189
 20
70.518472
 30
0.0
  0
LWPOLYLINE
  5
20c
100
AcDbEntity
  8
turtle1
 62
7
100
AcDbPolyline
 90
4
 70
0
 10
41.731078
 20
69.785238
 30
0.0
 10
42.935588
 20
69.785238
 30
0.0
 10
42.333333
 20
70.828374
 30
0.0
 10
41.731078
 20
69.785238
 30
0.0
  0
LWPOLYLINE
  5
20d
100
AcDbEntity
  8
turtle1
 62
7
100
AcDbPolyline
 90
4
 70
0
 10
42.154412
 20
69.052003
 30
0.0
 10
42.512255
 20
69.052003
 30
0.0
 10
42.333333
 20
69.361904
 30
0.0
 10
42.154412
 20
69.052003
 30
0.0
  0
LWPOLYLINE
  5
20e
100
AcDbEntity
  8
turtle1
 62
7
100
AcDbPolyline
 90
4
 70
0
 10
41.307745
 20
70.518472
 30
0.0
 10
41.665588
 20
70.518472
 30
0.0
 10
41.486667
 20
70.828374
 30
0.0
 10
41.307745
 20
70.518472
 30
0.0
  0
LWPOLYLINE
  5
20f
100
AcDbEntity
  8
turtle1
 62
7
100
AcDbPolyline
 90
4
 70
0
 10
43.001078
 20
70.518472
 30
0.0
 10
43.358922
 20
70.518472
 30
0.0
 10
43.180000
 20
70.828374
 30
0.0
 10
43.001078
 20
70.518472
 30
0.0
  0
LWPOLYLINE
  5
210
100
AcDbEntity
  8
turtle1
 62
7
100
AcDbPolyline
 90
4
 70
0
 10
46.387745
 20
68.074356
 30
0.0
 10
49.567811
 20
68.074356
 30
0.0
 10
47.977778
 20
70.828374
 30
0.0
 10
46.387745
 20
68.074356
 30
0.0
  0
LWPOLYLINE
  5
211
100
AcDbEntity
  8
turtle1
 62
7
100
AcDbPolyline
 90
4
 70
0
 10
47.234412
 20
66.607886
 30
0.0
 10
48.438922
 20
66.607886
 30
0.0
 10
47.836667
 20
67.651023
 30
0.0
 10
47.234412
 20
66.607886
 30
0.0
  0
LWPOLYLINE
  5
212
100
AcDbEntity
  8
turtle1
 62
7
100
AcDbPolyline
 90
4
 70
0
 10
47.657745
 20
65.874652
 30
0.0
 10
48.015588
 20
65.874652
 30
0.0
 10
47.836667
 20
66.184553
 30
0.0
 10
47.657745
 20
65.874652
 30
0.0
  0
LWPOLYLINE
  5
213
100
AcDbEntity
  8
turtle1
 62
7
100
AcDbPolyline
 90
4
 70
0
 10
46.811078
 20
67.341121
 30
0.0
 10
47.168922
 20
67.341121
 30
0.0
 10
46.990000
 20
67.651023
 30
0.0
 10
46.811078
 20
67.341121
 30
0.0
  0
LWPOLYLINE
  5
214
100
AcDbEntity
  8
turtle1
 62
7
100
AcDbPolyline
 90
4
 70
0
 10
48.504411
 20
67.341121
 30
0.0
 10
48.862255
 20
67.341121
 30
0.0
 10
48.683333
 20
67.651023
 30
0.0
 10
48.504411
 20
67.341121
 30
0.0
  0
LWPOLYLINE
  5
215
100
AcDbEntity
  8
turtle1
 62
7
100
AcDbPolyline
 90
4
 70
0
 10
45.399967
 20
69.785238
 30
0.0
 10
46.604477
 20
69.785238
 30
0.0
 10
46.002222
 20
70.828374
 30
0.0
 10
45.399967
 20
69.785238
 30
0.0
  0
LWPOLYLINE
  5
216
100
AcDbEntity
  8
turtle1
 62
7
100
AcDbPolyline
 90
4
 70
0
 10
45.823300
 20
69.052003
 30
0.0
 10
46.181144
 20
69.052003
 30
0.0
 10
46.002222
 20
69.361904
 30
0.0
 10
45.823300
 20
69.052003
 30
0.0
  0
LWPOLYLINE
  5
217
100
AcDbEntity
  8
turtle1
 62
7
100
AcDbPolyline
 90
4
 70
0
 10
44.976634
 20
70.518472
 30
0.0
 10
45.334477
 20
70.518472
 30
0.0
 10
45.155556
 20
70.828374
 30
0.0
 10
44.976634
 20
70.518472
 30
0.0
  0
LWPOLYLINE
  5
218
100
AcDbEntity
  8
turtle1
 62
7
100
AcDbPolyline
 90
4
 70
0
 10
46.669967
 20
70.518472
 30
0.0
 10
47.027811
 20
70.518472
 30
0.0
 10
46.848889
 20
70.828374
 30
0.0
 10
46.669967
 20
70.518472
 30
0.0
  0
LWPOLYLINE
  5
219
100
AcDbEntity
  8
turtle1
 62
7
100
AcDbPolyline
 90
4
 70
0
 10
49.068856
 20
69.785238
 30
0.0
 10
50.273366
 20
69.785238
 30
0.0
 10
49.671111
 20
70.828374
 30
0.0
 10
49.068856
 20
69.785238
 30
0.0
  0
LWPOLYLINE
  5
21a
100
AcDbEntity
  8
turtle1
 62
7
100
AcDbPolyline
 90
4
 70
0
 10
49.492189
 20
69.052003
 30
0.0
 10
49.850033
 20
69.052003
 30
0.0
 10
49.671111
 20
69.361904
 30
0.0
 10
49.492189
 20
69.052003
 30
0.0
  0
LWPOLYLINE
  5
21b
100
AcDbEntity
  8
turtle1
 62
7
100
AcDbPolyline
 90
4
 70
0
 10
48.645523
 20
70.518472
 30
0.0
 10
49.003366
 20
70.518472
 30
0.0
 10
48.824444
 20
70.828374
 30
0.0
 10
48.645523
 20
70.518472
 30
0.0
  0
LWPOLYLINE
  5
21c
100
AcDbEntity
  8
turtle1
 62
7
100
AcDbPolyline
 90
4
 70
0
 10
50.338856
 20
70.518472
 30
0.0
 10
50.696700
 20
70.518472
 30
0.0
 10
50.517778
 20
70.828374
 30
0.0
 10
50.338856
 20
70.518472
 30
0.0
  0
LWPOLYLINE
  5
21d
100
AcDbEntity
  8
turtle1
 62
7
100
AcDbPolyline
 90
4
 70
0
 10
33.546634
 20
77.606409
 30
0.0
 10
40.395588
 20
77.606409
 30
0.0
 10
36.971111
 20
83.537778
 30
0.0
 10
33.546634
 20
77.606409
 30
0.0
  0
LWPOLYLINE
  5
21e
100
AcDbEntity
  8
turtle1
 62
7
100
AcDbPolyline
 90
4
 70
0
 10
35.381078
 20
74.429058
 30
0.0
 10
38.561144
 20
74.429058
 30
0.0
 10
36.971111
 20
77.183076
 30
0.0
 10
35.381078
 20
74.429058
 30
0.0
  0
LWPOLYLINE
  5
21f
100
AcDbEntity
  8
turtle1
 62
7
100
AcDbPolyline
 90
4
 70
0
 10
36.227745
 20
72.962589
 30
0.0
 10
37.432255
 20
72.962589
 30
0.0
 10
36.830000
 20
74.005725
 30
0.0
 10
36.227745
 20
72.962589
 30
0.0
  0
LWPOLYLINE
  5
220
100
AcDbEntity
  8
turtle1
 62
7
100
AcDbPolyline
 90
4
 70
0
 10
36.651078
 20
72.229354
 30
0.0
 10
37.008922
 20
72.229354
 30
0.0
 10
36.830000
 20
72.539255
 30
0.0
 10
36.651078
 20
72.229354
 30
0.0
  0
LWPOLYLINE
  5
221
100
AcDbEntity
  8
turtle1
 62
7
100
AcDbPolyline
 90
4
 70
0
 10
35.804411
 20
73.695823
 30
0.0
 10
36.162255
 20
73.695823
 30
0.0
 10
35.983333
 20
74.005725
 30
0.0
 10
35.804411
 20
73.695823
 30
0.0
  0
LWPOLYLINE
  5
222
100
AcDbEntity
  8
turtle1
 62
7
100
AcDbPolyline
 90
4
 70
0
 10
37.497745
 20
73.695823
 30
0.0
 10
37.855588
 20
73.695823
 30
0.0
 10
37.676667
 20
74.005725
 30
0.0
 10
37.497745
 20
73.695823
 30
0.0
  0
LWPOLYLINE
  5
223
100
AcDbEntity
  8
turtle1
 62
7
100
AcDbPolyline
 90
4
 70
0
 10
34.393300
 20
76.139939
 30
0.0
 10
35.597811
 20
76.139939
 30
0.0
 10
34.995556
 20
77.183076
 30
0.0
 10
34.393300
 20
76.139939
 30
0.0
  0
LWPOLYLINE
  5
224
100
AcDbEntity
  8
turtle1
 62
7
100
AcDbPolyline
 90
4
 70
0
 10
34.816634
 20
75.406705
 30
0.0
 10
35.174477
 20
75.406705
 30
0.0
 10
34.995556
 20
75.716606
 30
0.0
 10
34.816634
 20
75.406705
 30
0.0
  0
LWPOLYLINE
  5
225
100
AcDbEntity
  8
turtle1
 62
7
100
AcDbPolyline
 90
4
 70
0
 10
33.969967
 20
76.873174
 30
0.0
 10
34.327811
 20
76.873174
 30
0.0
 10
34.148889
 20
77.183076
 30
0.0
 10
33.969967
 20
76.873174
 30
0.0
  0
LWPOLYLINE
  5
226
100
AcDbEntity
  8
turtle1
 62
7
100
AcDbPolyline
 90
4
 70
0
 10
35.663300
 20
76.873174
 30
0.0
 10
36.021144
 20
76.873174
 30
0.0
 10
35.842222
 20
77.183076
 30
0.0
 10
35.663300
 20
76.873174
 30
0.0
  0
LWPOLYLINE
  5
227
100
AcDbEntity
  8
turtle1
 62
7
100
AcDbPolyline
 90
4
 70
0
 10
38.062189
 20
76.139939
 30
0.0
 10
39.266700
 20
76.139939
 30
0.0
 10
38.664444
 20
77.183076
 30
0.0
 10
38.062189
 20
76.139939
 30
0.0
  0
LWPOLYLINE
  5
228
100
AcDbEntity
  8
turtle1
 62
7
100
AcDbPolyline
 90
4
 70
0
 10
38.485523
 20
75.406705
 30
0.0
 10
38.843366
 20
75.406705
 30
0.0
 10
38.664444
 20
75.716606
 30
0.0
 10
38.485523
 20
75.406705
 30
0.0
  0
LWPOLYLINE
  5
229
100
AcDbEntity
  8
turtle1
 62
7
100
AcDbPolyline
 90
4
 70
0
 10
37.638856
 20
76.873174
 30
0.0
 10
37.996700
 20
76.873174
 30
0.0
 10
37.817778
 20
77.183076
 30
0.0
 10
37.638856
 20
76.873174
 30
0.0
  0
LWPOLYLINE
  5
22a
100
AcDbEntity
  8
turtle1
 62
7
100
AcDbPolyline
 90
4
 70
0
 10
39.332189
 20
76.873174
 30
0.0
 10
39.690033
 20
76.873174
 30
0.0
 10
39.511111
 20
77.183076
 30
0.0
 10
39.332189
 20
76.873174
 30
0.0
  0
LWPOLYLINE
  5
22b
100
AcDbEntity
  8
turtle1
 62
7
100
AcDbPolyline
 90
4
 70
0
 10
31.712189
 20
80.783760
 30
0.0
 10
34.892255
 20
80.783760
 30
0.0
 10
33.302222
 20
83.537778
 30
0.0
 10
31.712189
 20
80.783760
 30
0.0
  0
LWPOLYLINE
  5
22c
100
AcDbEntity
  8
turtle1
 62
7
100
AcDbPolyline
 90
4
 70
0
 10
32.558856
 20
79.317290
 30
0.0
 10
33.763366
 20
79.317290
 30
0.0
 10
33.161111
 20
80.360427
 30
0.0
 10
32.558856
 20
79.317290
 30
0.0
  0
LWPOLYLINE
  5
22d
100
AcDbEntity
  8
turtle1
 62
7
100
AcDbPolyline
 90
4
 70
0
 10
32.982189
 20
78.584056
 30
0.0
 10
33.340033
 20
78.584056
 30
0.0
 10
33.161111
 20
78.893957
 30
0.0
 10
32.982189
 20
78.584056
 30
0.0
  0
LWPOLYLINE
  5
22e
100
AcDbEntity
  8
turtle1
 62
7
100
AcDbPolyline
 90
4
 70
0
 10
32.135523
 20
80.050525
 30
0.0
 10
32.493366
 20
80.050525
 30
0.0
 10
32.314444
 20
80.360427
 30
0.0
 10
32.135523
 20
80.050525
 30
0.0
  0
LWPOLYLINE
  5
22f
100
AcDbEntity
  8
turtle1
 62
7
100
AcDbPolyline
 90
4
 70
0
 10
33.828856
 20
80.050525
 30
0.0
 10
34.186700
 20
80.050525
 30
0.0
 10
34.007778
 20
80.360427
 30
0.0
 10
33.828856
 20
80.050525
 30
0.0
  0
LWPOLYLINE
  5
230
100
AcDbEntity
  8
turtle1
 62
7
100
AcDbPolyline
 90
4
 70
0
 10
30.724411
 20
82.494642
 30
0.0
 10
31.928922
 20
82.494642
 30
0.0
 10
31.326667
 20
83.537778
 30
0.0
 10
30.724411
 20
82.494642
 30
0.0
  0
LWPOLYLINE
  5
231
100
AcDbEntity
  8
turtle1
 62
7
100
AcDbPolyline
 90
4
 70
0
 10
31.147745
 20
81.761406
 30
0.0
 10
31.505589
 20
81.761406
 30
0.0
 10
31.326667
 20
82.071308
 30
0.0
 10
31.147745
 20
81.761406
 30
0.0
  0
LWPOLYLINE
  5
232
100
AcDbEntity
  8
turtle1
 62
7
100
AcDbPolyline
 90
4
 70
0
 10
30.301078
 20
83.227876
 30
0.0
 10
30.658922
 20
83.227876
 30
0.0
 10
30.480000
 20
83.537778
 30
0.0
 10
30.301078
 20
83.227876
 30
0.0
  0
LWPOLYLINE
  5
233
100
AcDbEntity
  8
turtle1
 62
7
100
AcDbPolyline
 90
4
 70
0
 10
31.994411
 20
83.227876
 30
0.0
 10
32.352255
 20
83.227876
 30
0.0
 10
32.173333
 20
83.537778
 30
0.0
 10
31.994411
 20
83.227876
 30
0.0
  0
LWPOLYLINE
  5
234
100
AcDbEntity
  8
turtle1
 62
7
100
AcDbPolyline
 90
4
 70
0
 10
34.393300
 20
82.494642
 30
0.0
 10
35.597811
 20
82.494642
 30
0.0
 10
34.995556
 20
83.537778
 30
0.0
 10
34.393300
 20
82.494642
 30
0.0
  0
LWPOLYLINE
  5
235
100
AcDbEntity
  8
turtle1
 62
7
100
AcDbPolyline
 90
4
 70
0
 10
34.816634
 20
81.761406
 30
0.0
 10
35.174477
 20
81.761406
 30
0.0
 10
34.995556
 20
82.071308
 30
0.0
 10
34.816634
 20
81.761406
 30
0.0
  0
LWPOLYLINE
  5
236
100
AcDbEntity
  8
turtle1
 62
7
100
AcDbPolyline
 90
4
 70
0
 10
33.969967
 20
83.227876
 30
0.0
 10
34.327811
 20
83.227876
 30
0.0
 10
34.148889
 20
83.537778
 30
0.0
 10
33.969967
 20
83.227876
 30
0.0
  0
LWPOLYLINE
  5
237
100
AcDbEntity
  8
turtle1
 62
7
100
AcDbPolyline
 90
4
 70
0
 10
35.663300
 20
83.227876
 30
0.0
 10
36.021144
 20
83.227876
 30
0.0
 10
35.842222
 20
83.537778
 30
0.0
 10
35.663300
 20
83.227876
 30
0.0
  0
LWPOLYLINE
  5
238
100
AcDbEntity
  8
turtle1
 62
7
100
AcDbPolyline
 90
4
 70
0
 10
39.049967
 20
80.783760
 30
0.0
 10
42.230033
 20
80.783760
 30
0.0
 10
40.640000
 20
83.537778
 30
0.0
 10
39.049967
 20
80.783760
 30
0.0
  0
LWPOLYLINE
  5
239
100
AcDbEntity
  8
turtle1
 62
7
100
AcDbPolyline
 90
4
 70
0
 10
39.896634
 20
79.317290
 30
0.0
 10
41.101144
 20
79.317290
 30
0.0
 10
40.498889
 20
80.360427
 30
0.0
 10
39.896634
 20
79.317290
 30
0.0
  0
LWPOLYLINE
  5
23a
100
AcDbEntity
  8
turtle1
 62
7
100
AcDbPolyline
 90
4
 70
0
 10
40.319967
 20
78.584056
 30
0.0
 10
40.677811
 20
78.584056
 30
0.0
 10
40.498889
 20
78.893957
 30
0.0
 10
40.319967
 20
78.584056
 30
0.0
  0
LWPOLYLINE
  5
23b
100
AcDbEntity
  8
turtle1
 62
7
100
AcDbPolyline
 90
4
 70
0
 10
39.473300
 20
80.050525
 30
0.0
 10
39.831144
 20
80.050525
 30
0.0
 10
39.652222
 20
80.360427
 30
0.0
 10
39.473300
 20
80.050525
 30
0.0
  0
LWPOLYLINE
  5
23c
100
AcDbEntity
  8
turtle1
 62
7
100
AcDbPolyline
 90
4
 70
0
 10
41.166634
 20
80.050525
 30
0.0
 10
41.524477
 20
80.050525
 30
0.0
 10
41.345556
 20
80.360427
 30
0.0
 10
41.166634
 20
80.050525
 30
0.0
  0
LWPOLYLINE
  5
23d
100
AcDbEntity
  8
turtle1
 62
7
100
AcDbPolyline
 90
4
 70
0
 10
38.062189
 20
82.494642
 30
0.0
 10
39.266700
 20
82.494642
 30
0.0
 10
38.664444
 20
83.537778
 30
0.0
 10
38.062189
 20
82.494642
 30
0.0
  0
LWPOLYLINE
  5
23e
100
AcDbEntity
  8
turtle1
 62
7
100
AcDbPolyline
 90
4
 70
0
 10
38.485523
 20
81.761406
 30
0.0
 10
38.843366
 20
81.761406
 30
0.0
 10
38.664444
 20
82.071308
 30
0.0
 10
38.485523
 20
81.761406
 30
0.0
  0
LWPOLYLINE
  5
23f
100
AcDbEntity
  8
turtle1
 62
7
100
AcDbPolyline
 90
4
 70
0
 10
37.638856
 20
83.227876
 30
0.0
 10
37.996700
 20
83.227876
 30
0.0
 10
37.817778
 20
83.537778
 30
0.0
 10
37.638856
 20
83.227876
 30
0.0
  0
LWPOLYLINE
  5
240
100
AcDbEntity
  8
turtle1
 62
7
100
AcDbPolyline
 90
4
 70
0
 10
39.332189
 20
83.227876
 30
0.0
 10
39.690033
 20
83.227876
 30
0.0
 10
39.511111
 20
83.537778
 30
0.0
 10
39.332189
 20
83.227876
 30
0.0
  0
LWPOLYLINE
  5
241
100
AcDbEntity
  8
turtle1
 62
7
100
AcDbPolyline
 90
4
 70
0
 10
41.731078
 20
82.494642
 30
0.0
 10
42.935588
 20
82.494642
 30
0.0
 10
42.333333
 20
83.537778
 30
0.0
 10
41.731078
 20
82.494642
 30
0.0
  0
LWPOLYLINE
  5
242
100
AcDbEntity
  8
turtle1
 62
7
100
AcDbPolyline
 90
4
 70
0
 10
42.154412
 20
81.761406
 30
0.0
 10
42.512255
 20
81.761406
 30
0.0
 10
42.333333
 20
82.071308
 30
0.0
 10
42.154412
 20
81.761406
 30
0.0
  0
LWPOLYLINE
  5
243
100
AcDbEntity
  8
turtle1
 62
7
100
AcDbPolyline
 90
4
 70
0
 10
41.307745
 20
83.227876
 30
0.0
 10
41.665588
 20
83.227876
 30
0.0
 10
41.486667
 20
83.537778
 30
0.0
 10
41.307745
 20
83.227876
 30
0.0
  0
LWPOLYLINE
  5
244
100
AcDbEntity
  8
turtle1
 62
7
100
AcDbPolyline
 90
4
 70
0
 10
43.001078
 20
83.227876
 30
0.0
 10
43.358922
 20
83.227876
 30
0.0
 10
43.180000
 20
83.537778
 30
0.0
 10
43.001078
 20
83.227876
 30
0.0
  0
LWPOLYLINE
  5
245
100
AcDbEntity
  8
turtle1
 62
7
100
AcDbPolyline
 90
4
 70
0
 10
48.222189
 20
77.606409
 30
0.0
 10
55.071144
 20
77.606409
 30
0.0
 10
51.646667
 20
83.537778
 30
0.0
 10
48.222189
 20
77.606409
 30
0.0
  0
LWPOLYLINE
  5
246
100
AcDbEntity
  8
turtle1
 62
7
100
AcDbPolyline
 90
4
 70
0
 10
50.056634
 20
74.429058
 30
0.0
 10
53.236700
 20
74.429058
 30
0.0
 10
51.646667
 20
77.183076
 30
0.0
 10
50.056634
 20
74.429058
 30
0.0
  0
LWPOLYLINE
  5
247
100
AcDbEntity
  8
turtle1
 62
7
100
AcDbPolyline
 90
4
 70
0
 10
50.903300
 20
72.962589
 30
0.0
 10
52.107811
 20
72.962589
 30
0.0
 10
51.505556
 20
74.005725
 30
0.0
 10
50.903300
 20
72.962589
 30
0.0
  0
LWPOLYLINE
  5
248
100
AcDbEntity
  8
turtle1
 62
7
100
AcDbPolyline
 90
4
 70
0
 10
51.326634
 20
72.229354
 30
0.0
 10
51.684477
 20
72.229354
 30
0.0
 10
51.505556
 20
72.539255
 30
0.0
 10
51.326634
 20
72.229354
 30
0.0
  0
LWPOLYLINE
  5
249
100
AcDbEntity
  8
turtle1
 62
7
100
AcDbPolyline
 90
4
 70
0
 10
50.479967
 20
73.695823
 30
0.0
 10
50.837811
 20
73.695823
 30
0.0
 10
50.658889
 20
74.005725
 30
0.0
 10
50.479967
 20
73.695823
 30
0.0
  0
LWPOLYLINE
  5
24a
100
AcDbEntity
  8
turtle1
 62
7
100
AcDbPolyline
 90
4
 70
0
 10
52.173300
 20
73.695823
 30
0.0
 10
52.531144
 20
73.695823
 30
0.0
 10
52.352222
 20
74.005725
 30
0.0
 10
52.173300
 20
73.695823
 30
0.0
  0
LWPOLYLINE
  5
24b
100
AcDbEntity
  8
turtle1
 62
7
100
AcDbPolyline
 90
4
 70
0
 10
49.068856
 20
76.139939
 30
0.0
 10
50.273366
 20
76.139939
 30
0.0
 10
49.671111
 20
77.183076
 30
0.0
 10
49.068856
 20
76.139939
 30
0.0
  0
LWPOLYLINE
  5
24c
100
AcDbEntity
  8
turtle1
 62
7
100
AcDbPolyline
 90
4
 70
0
 10
49.492189
 20
75.406705
 30
0.0
 10
49.850033
 20
75.406705
 30
0.0
 10
49.671111
 20
75.716606
 30
0.0
 10
49.492189
 20
75.406705
 30
0.0
  0
LWPOLYLINE
  5
24d
100
AcDbEntity
  8
turtle1
 62
7
100
AcDbPolyline
 90
4
 70
0
 10
48.645523
 20
76.873174
 30
0.0
 10
49.003366
 20
76.873174
 30
0.0
 10
48.824444
 20
77.183076
 30
0.0
 10
48.645523
 20
76.873174
 30
0.0
  0
LWPOLYLINE
  5
24e
100
AcDbEntity
  8
turtle1
 62
7
100
AcDbPolyline
 90
4
 70
0
 10
50.338856
 20
76.873174
 30
0.0
 10
50.696700
 20
76.873174
 30
0.0
 10
50.517778
 20
77.183076
 30
0.0
 10
50.338856
 20
76.873174
 30
0.0
  0
LWPOLYLINE
  5
24f
100
AcDbEntity
  8
turtle1
 62
7
100
AcDbPolyline
 90
4
 70
0
 10
52.737745
 20
76.139939
 30
0.0
 10
53.942255
 20
76.139939
 30
0.0
 10
53.340000
 20
77.183076
 30
0.0
 10
52.737745
 20
76.139939
 30
0.0
  0
LWPOLYLINE
  5
250
100
AcDbEntity
  8
turtle1
 62
7
100
AcDbPolyline
 90
4
 70
0
 10
53.161078
 20
75.406705
 30
0.0
 10
53.518922
 20
75.406705
 30
0.0
 10
53.340000
 20
75.716606
 30
0.0
 10
53.161078
 20
75.406705
 30
0.0
  0
LWPOLYLINE
  5
251
100
AcDbEntity
  8
turtle1
 62
7
100
AcDbPolyline
 90
4
 70
0
 10
52.314411
 20
76.873174
 30
0.0
 10
52.672255
 20
76.873174
 30
0.0
 10
52.493333
 20
77.183076
 30
0.0
 10
52.314411
 20
76.873174
 30
0.0
  0
LWPOLYLINE
  5
252
100
AcDbEntity
  8
turtle1
 62
7
100
AcDbPolyline
 90
4
 70
0
 10
54.007745
 20
76.873174
 30
0.0
 10
54.365588
 20
76.873174
 30
0.0
 10
54.186667
 20
77.183076
 30
0.0
 10
54.007745
 20
76.873174
 30
0.0
  0
LWPOLYLINE
  5
253
100
AcDbEntity
  8
turtle1
 62
7
100
AcDbPolyline
 90
4
 70
0
 10
46.387745
 20
80.783760
 30
0.0
 10
49.567811
 20
80.783760
 30
0.0
 10
47.977778
 20
83.537778
 30
0.0
 10
46.387745
 20
80.783760
 30
0.0
  0
LWPOLYLINE
  5
254
100
AcDbEntity
  8
turtle1
 62
7
100
AcDbPolyline
 90
4
 70
0
 10
47.234412
 20
79.317290
 30
0.0
 10
48.438922
 20
79.317290
 30
0.0
 10
47.836667
 20
80.360427
 30
0.0
 10
47.234412
 20
79.317290
 30
0.0
  0
LWPOLYLINE
  5
255
100
AcDbEntity
  8
turtle1
 62
7
100
AcDbPolyline
 90
4
 70
0
 10
47.657745
 20
78.584056
 30
0.0
 10
48.015588
 20
78.584056
 30
0.0
 10
47.836667
 20
78.893957
 30
0.0
 10
47.657745
 20
78.584056
 30
0.0
  0
LWPOLYLINE
  5
256
100
AcDbEntity
  8
turtle1
 62
7
100
AcDbPolyline
 90
4
 70
0
 10
46.811078
 20
80.050525
 30
0.0
 10
47.168922
 20
80.050525
 30
0.0
 10
46.990000
 20
80.360427
 30
0.0
 10
46.811078
 20
80.050525
 30
0.0
  0
LWPOLYLINE
  5
257
100
AcDbEntity
  8
turtle1
 62
7
100
AcDbPolyline
 90
4
 70
0
 10
48.504411
 20
80.050525
 30
0.0
 10
48.862255
 20
80.050525
 30
0.0
 10
48.683333
 20
80.360427
 30
0.0
 10
48.504411
 20
80.050525
 30
0.0
  0
LWPOLYLINE
  5
258
100
AcDbEntity
  8
turtle1
 62
7
100
AcDbPolyline
 90
4
 70
0
 10
45.399967
 20
82.494642
 30
0.0
 10
46.604477
 20
82.494642
 30
0.0
 10
46.002222
 20
83.537778
 30
0.0
 10
45.399967
 20
82.494642
 30
0.0
  0
LWPOLYLINE
  5
259
100
AcDbEntity
  8
turtle1
 62
7
100
AcDbPolyline
 90
4
 70
0
 10
45.823300
 20
81.761406
 30
0.0
 10
46.181144
 20
81.761406
 30
0.0
 10
46.002222
 20
82.071308
 30
0.0
 10
45.823300
 20
81.761406
 30
0.0
  0
LWPOLYLINE
  5
25a
100
AcDbEntity
  8
turtle1
 62
7
100
AcDbPolyline
 90
4
 70
0
 10
44.976634
 20
83.227876
 30
0.0
 10
45.334477
 20
83.227876
 30
0.0
 10
45.155556
 20
83.537778
 30
0.0
 10
44.976634
 20
83.227876
 30
0.0
  0
LWPOLYLINE
  5
25b
100
AcDbEntity
  8
turtle1
 62
7
100
AcDbPolyline
 90
4
 70
0
 10
46.669967
 20
83.227876
 30
0.0
 10
47.027811
 20
83.227876
 30
0.0
 10
46.848889
 20
83.537778
 30
0.0
 10
46.669967
 20
83.227876
 30
0.0
  0
LWPOLYLINE
  5
25c
100
AcDbEntity
  8
turtle1
 62
7
100
AcDbPolyline
 90
4
 70
0
 10
49.068856
 20
82.494642
 30
0.0
 10
50.273366
 20
82.494642
 30
0.0
 10
49.671111
 20
83.537778
 30
0.0
 10
49.068856
 20
82.494642
 30
0.0
  0
LWPOLYLINE
  5
25d
100
AcDbEntity
  8
turtle1
 62
7
100
AcDbPolyline
 90
4
 70
0
 10
49.492189
 20
81.761406
 30
0.0
 10
49.850033
 20
81.761406
 30
0.0
 10
49.671111
 20
82.071308
 30
0.0
 10
49.492189
 20
81.761406
 30
0.0
  0
LWPOLYLINE
  5
25e
100
AcDbEntity
  8
turtle1
 62
7
100
AcDbPolyline
 90
4
 70
0
 10
48.645523
 20
83.227876
 30
0.0
 10
49.003366
 20
83.227876
 30
0.0
 10
48.824444
 20
83.537778
 30
0.0
 10
48.645523
 20
83.227876
 30
0.0
  0
LWPOLYLINE
  5
25f
100
AcDbEntity
  8
turtle1
 62
7
100
AcDbPolyline
 90
4
 70
0
 10
50.338856
 20
83.227876
 30
0.0
 10
50.696700
 20
83.227876
 30
0.0
 10
50.517778
 20
83.537778
 30
0.0
 10
50.338856
 20
83.227876
 30
0.0
  0
LWPOLYLINE
  5
260
100
AcDbEntity
  8
turtle1
 62
7
100
AcDbPolyline
 90
4
 70
0
 10
53.725523
 20
80.783760
 30
0.0
 10
56.905588
 20
80.783760
 30
0.0
 10
55.315556
 20
83.537778
 30
0.0
 10
53.725523
 20
80.783760
 30
0.0
  0
LWPOLYLINE
  5
261
100
AcDbEntity
  8
turtle1
 62
7
100
AcDbPolyline
 90
4
 70
0
 10
54.572189
 20
79.317290
 30
0.0
 10
55.776700
 20
79.317290
 30
0.0
 10
55.174444
 20
80.360427
 30
0.0
 10
54.572189
 20
79.317290
 30
0.0
  0
LWPOLYLINE
  5
262
100
AcDbEntity
  8
turtle1
 62
7
100
AcDbPolyline
 90
4
 70
0
 10
54.995523
 20
78.584056
 30
0.0
 10
55.353366
 20
78.584056
 30
0.0
 10
55.174444
 20
78.893957
 30
0.0
 10
54.995523
 20
78.584056
 30
0.0
  0
LWPOLYLINE
  5
263
100
AcDbEntity
  8
turtle1
 62
7
100
AcDbPolyline
 90
4
 70
0
 10
54.148856
 20
80.050525
 30
0.0
 10
54.506700
 20
80.050525
 30
0.0
 10
54.327778
 20
80.360427
 30
0.0
 10
54.148856
 20
80.050525
 30
0.0
  0
LWPOLYLINE
  5
264
100
AcDbEntity
  8
turtle1
 62
7
100
AcDbPolyline
 90
4
 70
0
 10
55.842189
 20
80.050525
 30
0.0
 10
56.200033
 20
80.050525
 30
0.0
 10
56.021111
 20
80.360427
 30
0.0
 10
55.842189
 20
80.050525
 30
0.0
  0
LWPOLYLINE
  5
265
100
AcDbEntity
  8
turtle1
 62
7
100
AcDbPolyline
 90
4
 70
0
 10
52.737745
 20
82.494642
 30
0.0
 10
53.942255
 20
82.494642
 30
0.0
 10
53.340000
 20
83.537778
 30
0.0
 10
52.737745
 20
82.494642
 30
0.0
  0
LWPOLYLINE
  5
266
100
AcDbEntity
  8
turtle1
 62
7
100
AcDbPolyline
 90
4
 70
0
 10
53.161078
 20
81.761406
 30
0.0
 10
53.518922
 20
81.761406
 30
0.0
 10
53.340000
 20
82.071308
 30
0.0
 10
53.161078
 20
81.761406
 30
0.0
  0
LWPOLYLINE
  5
267
100
AcDbEntity
  8
turtle1
 62
7
100
AcDbPolyline
 90
4
 70
0
 10
52.314411
 20
83.227876
 30
0.0
 10
52.672255
 20
83.227876
 30
0.0
 10
52.493333
 20
83.537778
 30
0.0
 10
52.314411
 20
83.227876
 30
0.0
  0
LWPOLYLINE
  5
268
100
AcDbEntity
  8
turtle1
 62
7
100
AcDbPolyline
 90
4
 70
0
 10
54.007745
 20
83.227876
 30
0.0
 10
54.365588
 20
83.227876
 30
0.0
 10
54.186667
 20
83.537778
 30
0.0
 10
54.007745
 20
83.227876
 30
0.0
  0
LWPOLYLINE
  5
269
100
AcDbEntity
  8
turtle1
 62
7
100
AcDbPolyline
 90
4
 70
0
 10
56.406634
 20
82.494642
 30
0.0
 10
57.611144
 20
82.494642
 30
0.0
 10
57.008889
 20
83.537778
 30
0.0
 10
56.406634
 20
82.494642
 30
0.0
  0
LWPOLYLINE
  5
26a
100
AcDbEntity
  8
turtle1
 62
7
100
AcDbPolyline
 90
4
 70
0
 10
56.829967
 20
81.761406
 30
0.0
 10
57.187811
 20
81.761406
 30
0.0
 10
57.008889
 20
82.071308
 30
0.0
 10
56.829967
 20
81.761406
 30
0.0
  0
LWPOLYLINE
  5
26b
100
AcDbEntity
  8
turtle1
 62
7
100
AcDbPolyline
 90
4
 70
0
 10
55.983300
 20
83.227876
 30
0.0
 10
56.341144
 20
83.227876
 30
0.0
 10
56.162222
 20
83.537778
 30
0.0
 10
55.983300
 20
83.227876
 30
0.0
  0
LWPOLYLINE
  5
26c
100
AcDbEntity
  8
turtle1
 62
7
100
AcDbPolyline
 90
4
 70
0
 10
57.676634
 20
83.227876
 30
0.0
 10
58.034477
 20
83.227876
 30
0.0
 10
57.855556
 20
83.537778
 30
0.0
 10
57.676634
 20
83.227876
 30
0.0
  0
ENDSEC
  0
SECTION
  2
OBJECTS
  0
DICTIONARY
  5
C
330
0
100
AcDbDictionary
  3
ACAD_GROUP
350
D
  3
ACAD_MLINESTYLE
350
17
  0
DICTIONARY
  5
D
330
C
100
AcDbDictionary
  0
DICTIONARY
  5
1A
330
C
100
AcDbDictionary
  0
DICTIONARY
  5
17
330
C
100
AcDbDictionary
  3
STANDARD
350
18
  0
DICTIONARY
  5
19
330
C
100
AcDbDictionary
  0
ENDSEC
  0
EOF
