<?xml version="1.0" encoding="UTF-8" standalone="no"?>
<!-- Created with Inkscape (http://www.inkscape.org/) -->

<svg
   xmlns:dc="http://purl.org/dc/elements/1.1/"
   xmlns:cc="http://creativecommons.org/ns#"
   xmlns:rdf="http://www.w3.org/1999/02/22-rdf-syntax-ns#"
   xmlns:svg="http://www.w3.org/2000/svg"
   xmlns="http://www.w3.org/2000/svg"
   xmlns:xlink="http://www.w3.org/1999/xlink"
   xmlns:sodipodi="http://sodipodi.sourceforge.net/DTD/sodipodi-0.dtd"
   xmlns:inkscape="http://www.inkscape.org/namespaces/inkscape"
   id="svg2"
   version="1.1"
   inkscape:version="0.48.5 r10040"
   width="1005"
   height="921"
   sodipodi:docname="fuselage_helico_hugues_500_02.svg">
  <metadata
     id="metadata8">
    <rdf:RDF>
      <cc:Work
         rdf:about="">
        <dc:format>image/svg+xml</dc:format>
        <dc:type
           rdf:resource="http://purl.org/dc/dcmitype/StillImage" />
        <dc:title></dc:title>
      </cc:Work>
    </rdf:RDF>
  </metadata>
  <defs
     id="defs6" />
  <sodipodi:namedview
     pagecolor="#ffffff"
     bordercolor="#666666"
     borderopacity="1"
     objecttolerance="10"
     gridtolerance="10"
     guidetolerance="10"
     inkscape:pageopacity="0"
     inkscape:pageshadow="2"
     inkscape:window-width="1920"
     inkscape:window-height="968"
     id="namedview4"
     showgrid="false"
     inkscape:zoom="1.0177952"
     inkscape:cx="436.72817"
     inkscape:cy="500.82138"
     inkscape:window-x="0"
     inkscape:window-y="49"
     inkscape:window-maximized="1"
     inkscape:current-layer="layer1" />
  <g
     inkscape:groupmode="layer"
     id="layer2"
     inkscape:label="original"
     style="display:none">
    <image
       style="display:inline"
       width="1005"
       height="921"
       xlink:href="file:///home/loic/projets/fabmoments/hugues500/fuselage_helico_hugues_500_02.gif"
       id="image10"
       x="0"
       y="0" />
  </g>
  <g
     inkscape:groupmode="layer"
     id="layer1"
     inkscape:label="body"
     style="display:inline">
    <path
       style="fill:none;stroke:#ff0000;stroke-width:1px;stroke-linecap:butt;stroke-linejoin:miter;stroke-opacity:1"
       d="m 259.51907,137.56462 c -8.17072,0.0888 -25.46841,0.96348 -37.07415,3.90254 -11.60574,2.93906 -22.22007,7.1081 -31.94347,13.17452 -9.72339,6.06641 -20.12298,15.28606 -25.61903,22.67149 -5.49605,7.38542 -8.96249,12.48935 -9.74948,19.27396 -0.787,6.78461 1.96874,13.98847 5.3488,19.75834 3.38006,5.76987 8.38723,11.00374 13.41327,14.62078 5.02604,3.61704 8.8989,4.88918 16.35393,7.08883 7.45503,2.19965 20.78705,6.22783 30.22406,7.78445 9.43701,1.55663 18.4194,2.12339 26.10342,1.95815 7.68401,-0.16524 13.06173,0.83519 22.93775,-0.007 9.87603,-0.84206 27.84913,-0.6875 39.27794,-3.1519 11.4288,-2.4644 18.91577,-4.75391 29.99219,-8.29634 11.07642,-3.54242 25.74969,-8.01312 35.85977,-12.92201 10.11008,-4.90889 25.61903,-15.11891 25.61903,-15.11891 l -0.25251,-18.29145 c 0,0 -19.9761,-11.87023 -28.29343,-16.34706 -8.31733,-4.47683 -13.94566,-7.1473 -21.46398,-10.73199 -7.51832,-3.58469 -14.87089,-7.4345 -23.654,-10.73887 -8.78312,-3.30436 -21.47413,-6.6563 -29.03032,-8.77384 -7.55619,-2.11754 -10.4174,-2.63399 -16.76263,-3.65004 -6.34522,-1.01604 -13.11644,-2.29257 -21.28716,-2.20377 z"
       id="path2988"
       inkscape:connector-curvature="0"
       sodipodi:nodetypes="zzzzzzzzzzzzzzcczzzzzz" />
    <path
       style="fill:none;stroke:#ff0000;stroke-width:1px;stroke-linecap:butt;stroke-linejoin:miter;stroke-opacity:1"
       d="m 877.63497,136.80805 c -4.59648,0.0764 -9.22212,0.44507 -13.72118,1.38949 -4.04954,0.85006 -8.32286,1.59473 -11.81065,3.82109 -5.45606,3.48277 -9.87624,8.68796 -13.20013,14.24225 -3.01797,5.04309 -4.40856,10.12204 -5.90532,15.80541 -1.85513,7.04417 -2.77345,7.8993 -3.12634,11.63696 -0.7997,8.47014 -0.49698,23.38074 0,26.74763 0.44333,3.00342 2.39486,11.88928 4.16846,15.80543 1.65652,3.65765 2.05992,5.72803 4.34214,9.03166 1.5372,2.22518 8.24905,6.08482 10.76853,7.46849 4.5534,2.50069 3.6224,2.01849 6.77375,3.12635 3.47826,1.22278 4.99647,1.65754 8.6843,2.25792 3.84942,0.62669 8.77937,1.61866 12.67907,1.56318 5.25616,-0.0748 10.85745,-1.0741 15.97911,-2.25792 4.28107,-0.98953 8.76767,-1.85844 12.50538,-4.16847 4.31819,-2.66879 7.9696,-6.53353 10.76853,-10.76852 2.82159,-4.26928 4.23892,-9.34736 5.73164,-14.24225 1.38118,-4.52912 2.45784,-9.18575 2.95266,-13.89487 0.73812,-7.02456 0.67579,-14.15886 0,-21.18969 -0.37805,-3.9332 -1.35211,-7.79085 -2.25792,-11.63695 -0.74382,-3.15831 -1.40865,-6.36304 -2.60529,-9.37904 -1.37531,-3.46633 -3.18181,-6.77104 -5.21058,-9.9001 -1.12155,-1.72982 -2.33737,-3.43187 -3.82109,-4.86321 -2.47525,-2.38786 -5.29259,-4.47875 -8.33692,-6.079 -2.00976,-1.05643 -4.23102,-1.67864 -6.42638,-2.25792 -2.84395,-0.75042 -5.76519,-1.20262 -8.6843,-1.56317 -3.39784,-0.41969 -6.82428,-0.75163 -10.24747,-0.69475 z"
       id="path3758"
       inkscape:connector-curvature="0"
       sodipodi:nodetypes="sssssssssssssssssssssssssss" />
    <path
       style="fill:none;stroke:#ff0000;stroke-width:1px;stroke-linecap:butt;stroke-linejoin:miter;stroke-opacity:1"
       d="m 594.42215,630.91216 c -4.23554,-2.09371 -8.26165,-4.59983 -12.52707,-6.63198 -3.77552,-1.79875 -7.60881,-3.49841 -11.54457,-4.91258 -5.70506,-2.04991 -11.65111,-3.35748 -17.43965,-5.15821 -4.02991,-1.25365 -7.97755,-2.77154 -12.03583,-3.93006 -4.29644,-1.22651 -8.66115,-2.20389 -13.01833,-3.19318 -5.4651,-1.24084 -10.90194,-2.69941 -16.45714,-3.4388 -8.60669,-1.14554 -17.23174,-3.96489 -25.29979,-5.40384 -7.1596,-1.27693 -14.1817,-1.63726 -20.87846,-2.45629 -6.34679,-0.77622 -13.04589,-1.11673 -18.91344,-1.47378 -5.41023,-0.32922 -10.71425,-1.36047 -15.72025,-1.7194 -4.49241,-0.32211 -9.01029,-0.0413 -13.5096,-0.24563 -4.51044,-0.20487 -8.99812,-1.16318 -13.50959,-0.98251 -3.22816,0.12928 -6.42438,0.779 -9.57953,1.47377 -4.32749,0.95292 -8.82767,1.66654 -12.77271,3.68443 -3.42679,1.75281 -6.37166,4.39648 -9.08827,7.12325 -1.97663,1.98402 -3.37118,4.47562 -5.15821,6.63198 -1.18446,1.42926 -2.68319,2.61261 -3.68443,4.17569 -2.51109,3.92016 -4.47202,8.26862 -5.64947,12.77271 -0.87367,3.34206 -0.95112,6.8622 -0.98252,10.31642 -0.0388,4.26997 0.0465,8.6064 0.98252,12.7727 0.65327,2.90787 1.90299,5.66478 3.19318,8.35139 1.19148,2.48105 2.674,4.8167 4.17569,7.12324 1.37618,2.11376 2.72432,4.2747 4.42132,6.14072 1.75675,1.93172 3.76249,3.65166 5.8951,5.15821 3.14374,2.22084 6.55076,4.09232 10.07078,5.64947 2.6046,1.1522 5.31043,2.15635 8.10576,2.70192 3.78461,0.73864 7.69806,0.4662 11.54456,0.73689 6.38942,0.44965 12.75409,1.5304 19.15906,1.47377 7.81278,-0.0691 15.53371,-1.77733 23.33476,-2.21066 9.89314,-0.54955 19.8566,0.44018 29.72111,-0.49126 8.10765,-0.76555 16.062,-2.70407 24.07164,-4.17569 5.49603,-1.00979 10.97314,-2.11997 16.45714,-3.19318 6.22457,-1.21814 12.48944,-2.25022 18.6678,-3.68443 7.10005,-1.64817 14.12094,-3.62884 21.1241,-5.64947 5.84736,-1.68714 11.6536,-3.5171 17.43965,-5.40384 6.00648,-1.95862 12.05009,-3.83208 17.93092,-6.14072 2.25186,-0.88402 4.48411,-1.83444 6.63198,-2.94755 5.24861,-2.72005 22.59787,-10.07079 22.59787,-10.07079 0,0 -18.62601,-8.25954 -27.75608,-12.77271 z"
       id="path3760"
       inkscape:connector-curvature="0"
       sodipodi:nodetypes="sssssssssssssssssssssssssssssssssssssscs" />
  </g>
</svg>
