<?xml version="1.0" encoding="UTF-8" standalone="no"?>
<!-- Created with Inkscape (http://www.inkscape.org/) -->

<svg
   xmlns:dc="http://purl.org/dc/elements/1.1/"
   xmlns:cc="http://creativecommons.org/ns#"
   xmlns:rdf="http://www.w3.org/1999/02/22-rdf-syntax-ns#"
   xmlns:svg="http://www.w3.org/2000/svg"
   xmlns="http://www.w3.org/2000/svg"
   xmlns:sodipodi="http://sodipodi.sourceforge.net/DTD/sodipodi-0.dtd"
   xmlns:inkscape="http://www.inkscape.org/namespaces/inkscape"
   version="1.1"
   id="svg2"
   width="99.191711mm"
   height="135mm"
   viewBox="0 0 374.89781 510.23622"
   sodipodi:docname="calavera-laurence.svg"
   inkscape:version="0.92.3 (2405546, 2018-03-11)">
  <metadata
     id="metadata8">
    <rdf:RDF>
      <cc:Work
         rdf:about="">
        <dc:format>image/svg+xml</dc:format>
        <dc:type
           rdf:resource="http://purl.org/dc/dcmitype/StillImage" />
        <dc:title></dc:title>
      </cc:Work>
    </rdf:RDF>
  </metadata>
  <defs
     id="defs6" />
  <sodipodi:namedview
     pagecolor="#ffffff"
     bordercolor="#666666"
     borderopacity="1"
     objecttolerance="10"
     gridtolerance="10"
     guidetolerance="10"
     inkscape:pageopacity="0"
     inkscape:pageshadow="2"
     inkscape:window-width="1920"
     inkscape:window-height="1017"
     id="namedview4"
     showgrid="false"
     units="mm"
     inkscape:document-units="mm"
     fit-margin-top="0"
     fit-margin-left="0"
     fit-margin-right="0"
     fit-margin-bottom="0"
     inkscape:zoom="1.0742244"
     inkscape:cx="549.84235"
     inkscape:cy="319.71439"
     inkscape:window-x="-8"
     inkscape:window-y="-8"
     inkscape:window-maximized="1"
     inkscape:current-layer="svg2" />
  <path
     style="fill:none;stroke:#ff0000;stroke-width:0.78517693;stroke-opacity:1"
     d="m 162.90801,508.7397 c -1.94331,-0.66817 -4.63333,-2.03423 -5.97781,-3.0357 -1.34448,-1.00147 -3.46446,-2.05998 -4.71106,-2.35223 -8.37103,-1.96249 -34.96874,-17.56898 -47.80681,-28.05115 -8.676365,-7.08417 -39.763077,-37.72117 -43.949177,-43.3134 -7.87461,-10.51972 -9.275052,-14.27418 -13.337675,-35.75711 -1.102499,-5.82994 -2.348143,-12.36653 -2.768102,-14.52577 -0.78144,-4.01785 -3.299094,-20.9518 -4.78618,-32.19226 -0.457051,-3.45477 -1.15143,-8.22472 -1.543053,-10.59988 -0.391623,-2.37517 -1.085193,-7.39867 -1.541279,-11.16335 -0.848823,-7.00658 -1.958459,-10.98223 -4.365152,-15.6397 -1.713013,-3.31504 -2.288822,-3.73796 -11.03143,-8.1023 -3.937929,-1.96584 -8.354549,-4.62726 -9.814712,-5.91428 C 9.8154161,296.80556 8.3858366,295.7469 8.0987288,295.74 7.811621,295.733 6.348428,294.04915 4.8471776,291.99787 0.07877444,285.48241 -0.97520783,272.06172 2.2960749,259.51371 c 3.12173,-11.97437 3.4069534,-12.7139 7.5072416,-19.46478 2.1596375,-3.5557 4.4963785,-8.29414 5.1927445,-10.52986 0.696373,-2.23572 2.175277,-6.36159 3.286452,-9.16859 1.709228,-4.31778 2.005507,-6.25224 1.924084,-12.56283 -0.107216,-8.31017 -1.659872,-14.25574 -7.279101,-27.87379 C 7.8092969,167.51005 6.8097195,163.46025 5.8538529,151.25491 4.1209674,129.12787 7.1316185,113.77438 17.9016,89.814811 c 1.310296,-2.91497 2.61639,-5.29994 2.902422,-5.29994 0.28604,0 0.95348,-0.97166 1.483192,-2.15924 1.211394,-2.71585 6.517188,-11.80074 10.203013,-17.47019 7.907619,-12.16332 22.885238,-27.69247 33.76721,-35.01063 8.934073,-6.0082 38.470753,-20.7516999 41.554743,-20.7424299 1.00622,0.003 4.71618,-1.00779 8.24435,-2.24625 3.52818,-1.23846 8.53484,-2.49377 11.12593,-2.78958 2.59108,-0.29581 8.42102,-1.03422 12.95542,-1.64091 28.03729,-3.7513 76.80104,-2.18099999 98.14712,3.16056 2.37516,0.59435 7.1571,1.61305 10.62653,2.26376 8.92481,1.67392 22.49605,6.6898299 35.30632,13.0491799 13.82527,6.86321 19.79687,10.33167 21.90131,12.72083 0.9097,1.03277 3.59731,3.17654 5.97247,4.76393 6.15082,4.11077 11.6205,9.68371 20.97197,21.36789 13.31247,16.63324 17.07924,23.58351 21.16055,39.04452 7.20142,27.280689 9.25045,45.963479 6.25212,57.006019 -0.74222,2.73351 -2.90813,9.9073 -4.81315,15.94177 -3.5459,11.23225 -5.16123,18.67683 -6.64565,30.62795 l -0.8427,6.78464 2.77553,4.65929 c 1.52654,2.56262 3.38939,5.35277 4.13968,6.20033 2.11914,2.39394 4.89744,6.45359 4.89744,7.15615 0,0.3488 1.52205,2.39475 3.38233,4.54657 3.75887,4.34795 5.95062,8.6492 9.26385,18.18007 2.1339,6.13838 2.19605,6.71573 1.43705,13.34801 -0.64678,5.65161 -1.44313,8.26604 -4.31118,14.15358 -3.60433,7.39899 -6.81997,10.90604 -12.77191,13.92936 -1.434,0.72841 -4.61397,2.82835 -7.06659,4.66654 -2.45263,1.83819 -5.78877,4.14443 -7.41367,5.12499 -1.62489,0.98056 -3.30982,2.44705 -3.7443,3.25889 -0.48835,0.91248 -0.73379,10.25417 -0.64284,24.4666 0.14311,22.36386 0.0812,23.38649 -2.2722,37.51632 -4.64929,27.91451 -9.47218,41.95444 -20.0176,58.27326 -1.59534,2.46875 -3.78199,6.22794 -4.85923,8.35376 -1.07723,2.12583 -2.46152,4.36804 -3.07619,4.98271 -0.61466,0.61467 -1.88483,2.62152 -2.82259,4.45969 -0.93776,1.83816 -3.65146,5.52597 -6.03046,8.19513 -2.37899,2.66917 -6.15763,6.91534 -8.39698,9.43594 -2.23934,2.5206 -4.45032,4.99414 -4.9133,5.49675 -0.46297,0.5026 -2.32298,3.08381 -4.13336,5.73601 -1.81038,2.65221 -4.59901,5.8194 -6.19695,7.03822 -1.59794,1.2188 -3.54471,2.85538 -4.32615,3.63682 -0.78145,0.78145 -3.2673,2.52744 -5.52412,3.87998 -4.5924,2.7523 -11.34007,6.98999 -15.48838,9.72707 -4.54796,3.00078 -24.61521,9.64004 -36.90332,12.20948 -10.31414,2.15669 -44.81859,2.78942 -50.25132,0.92149 z m 42.79214,-8.9747 c 6.0197,-1.11053 20.27488,-5.00541 27.87378,-7.61583 5.46125,-1.87607 13.97539,-6.49012 17.66649,-9.57395 0.86369,-0.72159 2.23381,-1.54754 3.04469,-1.83543 1.35587,-0.48136 1.43993,-1.20064 1.04601,-8.95024 -0.48894,-9.61886 -2.21024,-15.77434 -5.85838,-20.95 -4.03697,-5.7273 -9.8046,-5.88742 -15.21527,-0.42241 -5.03163,5.08218 -3.63689,8.71807 2.87562,7.49632 2.12719,-0.39907 2.79755,-0.19563 3.46503,1.05157 1.22898,2.29637 1.01789,3.88804 -0.86666,6.53464 -1.64848,2.31509 -1.82154,2.36604 -6.40704,1.88677 -5.5525,-0.58035 -8.8936,-2.33475 -11.32918,-5.94891 -3.67631,-5.45529 -1.39099,-12.69541 6.00571,-19.02672 5.93683,-5.0817 16.56861,-6.28689 23.13263,-2.62225 2.07663,1.15938 3.85182,1.99125 3.94484,1.84859 0.093,-0.14265 0.77464,-2.25104 1.51469,-4.6853 2.05598,-6.76278 7.47407,-11.36005 15.51846,-13.1675 5.63204,-1.26543 13.68857,3.932 15.50792,10.00448 1.76886,5.9039 0.51348,11.06116 -3.55996,14.62485 -3.7113,3.24687 -5.98991,3.87621 -8.79059,2.42792 -3.54373,-1.83253 -3.59181,-5.17843 -0.12072,-8.4009 2.99614,-2.78154 3.6119,-4.99908 2.05005,-7.38277 -1.79654,-2.74186 -5.75816,-2.63206 -8.46899,0.23474 -2.8062,2.96764 -3.97299,7.90197 -3.317,14.02751 0.37999,3.54831 0.25087,5.36887 -0.43982,6.20109 -0.77008,0.92789 -0.77842,1.88997 -0.0393,4.52996 0.51615,1.84351 1.00307,5.08065 1.08203,7.19362 0.079,2.11298 0.55596,3.97857 1.06,4.14577 0.50404,0.16719 2.70361,-1.92402 4.88795,-4.64713 6.32971,-7.89095 8.12428,-10.00687 15.09758,-17.80108 6.93076,-7.74667 11.89223,-14.57489 16.31009,-22.44677 1.46534,-2.611 4.13902,-7.04392 5.9415,-9.85093 5.73285,-8.92781 8.64805,-15.40294 13.25617,-29.44413 0.70863,-2.15924 2.16923,-9.4025 3.24579,-16.09613 1.07655,-6.69363 2.37108,-14.11356 2.87675,-16.48872 1.4019,-6.58494 1.60219,-47.1052 0.23543,-47.62968 -1.24666,-0.47839 -16.13682,4.1506 -18.17026,5.64868 -1.35633,0.99925 -1.35192,1.15456 0.11042,3.89162 1.42641,2.66981 1.46013,3.35892 0.53106,10.8517 -0.54564,4.40047 -1.98109,11.35748 -3.1899,15.46003 -1.20881,4.10255 -2.79887,10.81581 -3.53346,14.91836 -3.71694,20.75842 -9.87313,37.67006 -16.45847,45.21304 -1.85371,2.12329 -3.85076,5.19428 -4.43786,6.82441 -1.21149,3.36378 -4.64894,7.18196 -8.04846,8.93992 -2.72291,1.40807 -6.72594,0.89377 -10.59712,-1.3615 -1.4282,-0.83203 -2.70902,-1.51277 -2.84628,-1.51277 -0.13726,0 -0.45255,1.01497 -0.70066,2.2555 -0.54758,2.73787 -4.3191,6.65526 -8.16406,8.47982 -4.01855,1.90693 -9.51857,1.73248 -13.16249,-0.41749 -3.05354,-1.80163 -5.11466,-1.76211 -5.11466,0.0981 0,1.59759 -5.5912,6.69908 -8.42475,7.68685 -2.87735,1.00306 -7.14144,-0.0345 -10.32909,-2.51339 -2.58217,-2.00802 -3.32813,-1.82833 -5.58665,1.34573 -2.36677,3.32622 -6.85083,5.84131 -10.37231,5.8178 -2.98883,-0.0199 -8.3746,-2.28258 -9.94213,-4.17679 -1.29191,-1.56114 -2.92884,-1.68264 -3.79073,-0.28133 -0.34535,0.56148 -1.81901,1.85266 -3.27483,2.8693 l -2.64692,1.84844 1.86175,1.43157 c 1.02396,0.78736 2.92173,1.95288 4.21728,2.59003 3.16643,1.55727 6.60674,4.87902 7.50785,7.24912 1.19016,3.13036 0.8556,9.83782 -0.63877,12.80662 -1.50439,2.98869 -6.40259,6.72565 -9.84541,7.51131 -3.12308,0.71269 -6.05321,-1.37653 -6.05321,-4.31604 0,-1.81479 0.6873,-2.74589 3.337,-4.52068 2.79535,-1.87235 3.37668,-2.71119 3.58143,-5.16782 0.19915,-2.38954 -0.18955,-3.36663 -2.09884,-5.27592 -6.83358,-6.83358 -16.61781,2.77086 -16.71432,16.4072 -0.0621,8.77511 0.7759,30.85106 1.18672,31.26187 0.23136,0.23137 3.88364,0.88815 8.11616,1.45953 8.37243,1.13026 22.78586,0.87296 30.46563,-0.54383 z m -48.52433,-14.80989 c -0.74338,-18.07756 -6.22294,-30.6662 -15.36216,-35.29268 -3.94641,-1.99776 -6.22949,-1.71913 -10.11033,1.23392 -4.84863,3.68946 -3.88296,7.95527 2.67023,11.79569 4.35354,2.55134 5.76432,4.58018 5.76432,8.28963 0,4.36187 -2.46055,4.71161 -9.17957,1.30477 -8.72495,-4.42394 -12.80539,-9.70172 -12.80539,-16.56294 0,-4.58817 3.83228,-10.32142 9.02954,-13.50857 3.4696,-2.12769 4.61031,-2.40626 9.81471,-2.39691 5.07304,0.009 6.41333,0.32316 9.67495,2.26697 2.08237,1.24102 5.76449,4.23476 8.18248,6.65275 2.418,2.418 4.52395,4.01359 4.6799,3.54575 0.84447,-2.53342 5.53639,-7.613 9.402,-10.17885 l 4.41211,-2.92859 -2.7226,-1.39678 c -1.49743,-0.76822 -4.01089,-2.72313 -5.58547,-4.34425 l -2.86287,-2.94747 -4.84877,2.50071 c -2.66683,1.37538 -5.59413,2.49294 -6.50512,2.48346 -3.15379,-0.0328 -8.11616,-2.9607 -11.13103,-6.56746 -3.35766,-4.01684 -4.1887,-4.30662 -6.14649,-2.14329 -1.77701,1.96358 -7.62072,3.53897 -10.86778,2.92982 -3.42684,-0.64288 -8.10081,-4.56957 -10.09723,-8.48287 -1.45069,-2.84359 -1.79703,-3.07763 -3.70679,-2.50479 -3.11946,0.93568 -9.300409,0.47467 -11.940542,-0.8906 -3.770287,-1.94969 -7.811969,-5.89966 -9.55463,-9.33783 -0.896264,-1.76828 -1.892787,-3.39172 -2.214498,-3.60764 -1.061205,-0.71226 -7.722775,-12.15076 -10.578801,-18.16472 -2.828812,-5.95669 -4.418512,-12.71967 -7.449955,-31.69402 -0.482954,-3.02293 -2.495897,-12.27391 -4.473208,-20.55774 -2.219844,-9.29994 -3.403263,-15.82583 -3.093613,-17.05956 0.427026,-1.70143 0.04122,-2.30264 -2.598936,-4.0498 -2.473071,-1.63661 -4.381656,-2.13958 -9.43255,-2.48578 -4.556892,-0.31233 -6.332146,-0.17659 -6.332146,0.48417 0,0.505 0.695455,3.64712 1.545456,6.9825 0.850001,3.33537 1.750371,8.8577 2.000827,12.27183 0.250456,3.41414 0.743296,6.77077 1.095212,7.45919 0.351909,0.68841 0.870275,3.90163 1.151918,7.14048 0.281643,3.23886 1.186959,9.95212 2.011819,14.91836 0.82486,4.96625 1.878442,11.32618 2.341288,14.13319 0.462854,2.80701 1.334557,7.57696 1.937133,10.59989 0.602569,3.02293 1.99764,10.08952 3.100154,15.70354 2.196689,11.1855 3.328192,15.05896 4.949386,16.94312 0.586622,0.68178 1.066585,1.63169 1.066585,2.11092 0,2.06539 10.058572,13.90859 19.744446,23.24756 5.766677,5.56014 13.8415,13.35445 17.944045,17.32067 4.10255,3.96623 11.16915,10.0468 15.70354,13.51238 8.24606,6.30236 28.84316,18.59246 35.90412,21.42366 5.47913,2.19695 5.94647,1.3303 5.47431,-10.15179 z m 19.08844,-56.26992 c 3.23589,-1.91149 4.13515,-4.47839 4.52688,-12.92181 l 0.35054,-7.55533 -6.81704,-0.56786 c -3.74937,-0.31232 -6.97628,-0.40861 -7.17091,-0.21398 -0.34375,0.34374 0.65451,7.70668 2.18123,16.08827 0.72436,3.97671 2.23479,6.47824 3.91158,6.47824 0.44233,0 1.80031,-0.58839 3.01772,-1.30753 z m 24.47841,-0.99445 c 2.88104,-2.26622 4.92155,-9.77401 4.29241,-15.79329 -0.27642,-2.64464 -0.73146,-5.17878 -1.01119,-5.63141 -0.50789,-0.82178 -11.00813,-0.36138 -11.89089,0.52138 -0.23418,0.23418 0.14492,1.57622 0.84246,2.9823 0.76741,1.54695 1.40491,5.34713 1.61432,9.62311 0.19034,3.88663 0.59754,7.68492 0.90487,8.44065 0.73263,1.80148 2.84955,1.74391 5.24802,-0.14274 z m -48.06172,-4.62405 c 1.89601,-1.89602 2.29609,-3.0807 2.77835,-8.22709 0.30986,-3.30667 0.37566,-6.50131 0.14623,-7.09919 -0.27116,-0.70666 -2.39018,-1.28149 -6.0553,-1.64264 -3.10099,-0.30556 -5.76085,-0.43287 -5.91082,-0.28291 -0.54379,0.54378 1.27644,16.55436 2.04541,17.99117 1.16473,2.17633 4.425,1.83179 6.99613,-0.73934 z m 70.37201,0.82889 c 0.47526,-0.31728 1.84739,-2.14619 3.0492,-4.06424 2.06004,-3.2878 2.15753,-3.84487 1.70343,-9.73359 -0.26492,-3.43541 -0.60545,-6.36997 -0.75672,-6.52124 -0.34198,-0.34199 -12.45518,1.16483 -12.89434,1.60398 -0.17576,0.17577 0.38366,1.698 1.24316,3.38277 0.8595,1.68475 1.97402,5.33135 2.47672,8.10356 1.31916,7.27474 2.54548,8.98657 5.17855,7.22876 z m -97.35175,-4.82155 c 5.10182,-3.11098 7.78249,-14.08532 4.18953,-17.15139 -0.88561,-0.75573 -2.56393,-2.28377 -3.72959,-3.39564 -2.29599,-2.19003 -4.98154,-3.19695 -6.32011,-2.36967 -1.45438,0.89886 -3.58763,13.27984 -2.62652,15.24385 0.46031,0.94063 1.54655,3.38855 2.41387,5.43983 1.74738,4.13269 2.50228,4.41027 6.07282,2.23302 z M 248.518,417.02401 c 3.46848,-1.79362 4.72614,-4.99422 4.91361,-12.50451 0.0904,-3.62084 -0.11289,-6.86166 -0.45174,-7.20183 -0.67205,-0.67468 -16.27422,4.17246 -16.25094,5.04869 0.008,0.29576 1.06785,2.09258 2.35553,3.99291 1.28769,1.90034 2.34322,4.02032 2.34563,4.71106 0.002,0.69075 0.37234,2.5809 0.82208,4.20032 0.92163,3.31864 2.42526,3.7394 6.26583,1.75336 z m -141.34895,-7.64218 c 1.16565,-1.91181 1.55662,-3.95496 1.55881,-8.14621 0.005,-9.17595 -0.40518,-10.22565 -4.54488,-11.63619 -1.97103,-0.6716 -4.757405,-1.22109 -6.191939,-1.22109 h -2.608248 v 4.72172 c 0,2.59694 -0.439801,5.42595 -0.977334,6.28668 -1.997309,3.19819 5.31071,12.54691 9.808081,12.54691 0.7698,0 2.09978,-1.14832 2.95551,-2.55182 z m 165.17556,-1.73771 c 2.36784,-2.55494 6.65195,-18.11366 5.34006,-19.3936 -0.4323,-0.42175 -15.56923,5.10434 -16.50305,6.02482 -0.14635,0.14426 0.64864,1.60845 1.76665,3.25374 1.11801,1.6453 2.03274,3.41013 2.03274,3.92185 0,0.51173 0.69411,2.54969 1.54245,4.52879 1.75482,4.09384 3.18946,4.50403 5.82115,1.6644 z m -91.37753,-20.1261 c 0,-10.36095 -1.02616,-13.69447 -4.4826,-14.56198 -1.93814,-0.48644 -6.8657,2.16045 -8.01304,4.30429 -0.38398,0.71746 -0.74143,5.45583 -0.79434,10.52971 l -0.0962,9.22525 h 6.69309 6.69309 z m -23.21067,-1.07021 c 0.6997,-12.2819 0.0955,-14.04821 -4.9294,-14.41017 -6.95283,-0.50084 -9.24065,3 -9.65252,14.77035 l -0.28849,8.24436 3.14071,0.47745 c 1.72738,0.26262 4.94784,0.52761 7.15655,0.58889 l 4.01585,0.11142 z m 44.91821,8.21195 c 1.82239,0 1.84777,-0.11272 1.84777,-8.20742 0,-4.51407 -0.39766,-9.08018 -0.8837,-10.1469 -1.69088,-3.71109 -5.71832,-3.34736 -10.30507,0.93068 -2.08945,1.9488 -2.15924,2.27927 -2.15924,10.22321 v 8.20931 l 4.82624,-0.50444 c 2.65443,-0.27744 5.65773,-0.50444 6.674,-0.50444 z m 19.26104,-1.91929 c 3.42204,-0.57603 3.71515,-1.42037 3.99308,-11.50279 0.21084,-7.6488 -0.57209,-9.34805 -4.30711,-9.34805 -1.60227,0 -3.16064,0.82272 -4.95255,2.61464 l -2.61464,2.61463 0.45339,7.78896 c 0.44751,7.68811 1.04729,9.22651 3.36257,8.62477 0.64777,-0.16836 2.47713,-0.52483 4.06526,-0.79216 z m -89.35511,-2.88992 c 0.76444,-3.8222 0.57678,-16.8472 -0.27501,-19.08757 -0.62037,-1.63169 -1.2867,-2.01406 -3.50979,-2.01406 -2.121,0 -3.12844,0.51992 -4.43702,2.28987 -0.93114,1.25944 -2.35504,2.46301 -3.16422,2.67461 -1.27525,0.33349 -1.47123,1.17897 -1.47123,6.34708 0,4.91543 0.27573,6.23806 1.57035,7.53269 0.8637,0.86369 2.18868,1.57268 2.94442,1.57552 0.75573,0.003 2.43404,0.70718 3.72959,1.56518 3.22113,2.13327 4.04099,1.97628 4.61291,-0.88332 z m 111.87098,-2.27387 c 5.37955,-1.45155 6.48535,-2.02789 6.87581,-3.58361 0.59404,-2.36683 -0.99947,-14.3711 -2.08063,-15.6738 -2.24904,-2.70993 -7.72174,-1.63286 -12.04053,2.36965 -1.84221,1.70731 -2.15457,2.50394 -1.75843,4.48467 0.26494,1.32471 0.48172,5.22884 0.48172,8.67584 0,4.92649 0.22587,6.1806 1.05577,5.86214 0.58068,-0.22283 3.94051,-1.18353 7.46629,-2.13489 z M 110.1856,373.78906 c -0.31234,-11.13694 -0.80896,-12.10673 -6.19982,-12.10673 -6.889386,0 -11.699505,7.24275 -10.429152,15.70354 l 0.648399,4.31847 6.056943,0.42984 c 3.33131,0.2364 6.30517,0.67807 6.60857,0.98147 0.3034,0.3034 1.23574,0.55163 2.07186,0.55163 1.43764,0 1.50518,-0.53663 1.2432,-9.87822 z m 157.32397,5.69719 c 2.27999,-1.00403 5.57419,-2.43813 7.32043,-3.1869 l 3.17498,-1.36138 -0.28012,-5.25376 c -0.15406,-2.88957 -0.66633,-6.25515 -1.13836,-7.47906 -2.01078,-5.21362 -9.4837,-4.31797 -14.60019,1.74989 l -3.09122,3.666 1.06366,5.07871 c 0.58501,2.79329 1.07102,5.8737 1.08001,6.84535 0.0208,2.24495 1.26492,2.23363 6.47081,-0.0589 z m -79.37574,-12.03672 c 1.49035,-1.79708 5.62454,-3.41318 8.70786,-3.404 1.41738,0.004 4.46522,0.88666 6.77299,1.96099 l 4.19593,1.95332 3.09324,-2.6477 c 3.95801,-3.38791 7.54038,-3.98507 12.95019,-2.15873 l 4.1781,1.41052 2.18201,-2.32499 c 4.61729,-4.91983 11.95971,-6.52643 18.27625,-3.99906 l 3.1706,1.26862 4.16867,-4.33858 c 5.07749,-5.28442 9.84746,-7.08956 15.79681,-5.9781 3.79113,0.70826 8.07442,2.90001 9.85112,5.04081 1.70498,2.05438 2.57166,1.31944 2.09451,-1.77613 -0.39531,-2.56463 0.58535,-8.76175 2.21786,-14.01538 0.50535,-1.62628 0.43366,-1.6213 -5.24095,0.36409 -9.77255,3.41915 -23.87189,2.69398 -36.88432,-1.89708 -1.77189,-0.62515 -3.67837,-1.13664 -4.23664,-1.13664 -0.56192,0 -1.77325,2.3659 -2.71355,5.29994 -1.98571,6.19609 -4.85378,9.2159 -12.17682,12.82101 -3.72806,1.83532 -6.2148,2.44315 -11.40969,2.78886 -12.79465,0.85145 -21.84785,-1.9656 -25.66,-7.98453 -1.20035,-1.8952 -2.47534,-3.45873 -2.83332,-3.47449 -0.35798,-0.0158 -2.2172,1.53766 -4.1316,3.45207 -6.49853,6.49852 -16.6231,9.62613 -33.75126,10.42622 -7.81927,0.36525 -10.21642,0.19905 -13.66883,-0.94765 -4.97307,-1.6518 -12.15661,-8.15333 -13.0174,-11.78154 -0.9487,-3.99879 -1.64697,-4.38815 -6.92535,-3.8616 -5.47028,0.54569 -15.253604,-1.02363 -25.493859,-4.0894 -3.607252,-1.07997 -6.704256,-1.81796 -6.882217,-1.64 -0.177968,0.17797 0.916105,5.23538 2.431269,11.23871 1.515164,6.00331 2.75718,11.00345 2.760038,11.11141 0.0031,0.10796 0.49456,0.1963 1.092661,0.1963 0.5981,0 1.661458,-0.87603 2.363005,-1.94672 1.551565,-2.368 7.326808,-5.11988 10.744843,-5.11988 3.43747,0 8.49525,1.53733 11.32294,3.44165 2.56169,1.72518 2.53139,1.69558 4.46583,4.36296 1.30096,1.79388 1.38354,1.80381 4.53066,0.54459 5.6302,-2.25277 11.41008,-1.10764 15.8437,3.13898 l 2.07005,1.98274 3.19861,-1.63181 c 4.75178,-2.42418 10.39437,-2.17542 16.08198,0.70897 l 4.57645,2.32089 3.90123,-2.0399 c 4.85842,-2.54039 9.55654,-2.14532 14.81965,1.2462 4.12498,2.65813 5.68509,2.90064 7.16675,1.11406 z m -28.51711,-20.7773 c 9.20884,-1.99455 12.35618,-3.51184 15.51736,-7.4807 4.92663,-6.18538 5.77959,-10.23921 1.4683,-6.97831 -0.86351,0.65313 -3.25978,1.16362 -5.5285,1.17777 -4.13549,0.0257 -7.9373,-1.9878 -11.65119,-6.17093 -1.90977,-2.15105 -2.5749,-9.68678 -1.23032,-13.9392 2.72379,-8.61438 6.55467,-17.8618 9.76277,-23.56652 1.9744,-3.51091 3.58982,-6.77421 3.58982,-7.25177 0,-1.65292 -3.01199,-0.85282 -10.04682,2.66883 -8.01106,4.01034 -14.15029,9.12456 -17.19973,14.32803 l -2.08054,3.55018 1.65233,3.22922 c 2.42394,4.73722 2.717,7.40387 1.37658,12.52607 -2.23036,8.52294 -8.16722,16.13204 -15.47666,19.83602 -2.07098,1.04944 -3.76543,2.33482 -3.76543,2.85638 0,1.42528 5.49513,6.0286 8.21371,6.8807 3.48885,1.09352 16.64145,0.2309 25.39832,-1.66577 z m 53.00614,-1.02088 c 10.52308,-1.85466 16.10982,-6.70184 16.2023,-14.05747 0.0304,-2.41473 -0.61317,-3.7715 -3.29929,-6.95608 -3.30848,-3.92244 -3.33936,-4.01625 -3.61295,-10.97822 -0.36139,-9.19585 0.23734,-12.03957 3.06542,-14.5594 2.77118,-2.46913 2.93738,-4.79818 0.63476,-8.89514 -1.38564,-2.46542 -2.88164,-3.54669 -8.5523,-6.18139 -7.47019,-3.4708 -14.97111,-5.54022 -20.14755,-5.55847 -3.97749,-0.0141 -4.87479,1.09366 -2.74087,3.38352 0.87569,0.93968 3.50045,5.24182 5.8328,9.56029 2.33234,4.31847 4.94289,9.08842 5.80124,10.59989 1.65829,2.9201 4.56543,10.71753 5.35371,14.35955 0.66468,3.07089 -1.02827,8.12328 -3.66925,10.95046 -2.23451,2.39206 -2.23662,2.39252 -8.60111,1.86174 l -6.36605,-0.53091 0.5031,3.67048 c 0.2767,2.01875 0.50309,5.1436 0.50309,6.9441 0,5.55338 0.95262,6.13114 12.17024,7.38127 0.43185,0.0481 3.54707,-0.39927 6.92271,-0.99422 z m -91.70478,-13.08293 c 4.1712,-1.28835 6.09747,-2.44407 9.13303,-5.47963 4.32092,-4.32092 6.94606,-9.62509 6.94606,-14.03473 0,-5.35383 -6.18579,-11.83036 -11.29928,-11.83036 -2.81414,0 -12.63273,3.68906 -17.04594,6.40454 -3.97081,2.44326 -6.98774,6.40028 -6.98774,9.16512 0,1.25072 0.74402,1.84405 3.11196,2.48167 3.38745,0.91215 5.52498,3.26103 5.52498,6.07128 0,3.7334 -8.92201,2.1897 -14.020193,-2.42579 -2.129581,-1.92795 -3.232142,-4.41918 -3.720978,-8.4075 -0.679876,-5.54703 5.613246,-12.12473 16.548991,-17.29735 8.64985,-4.09139 14.32102,-4.73188 21.02268,-2.37428 l 4.51955,1.58996 1.53359,-3.0061 c 0.84347,-1.65334 3.20182,-4.67431 5.24076,-6.71324 2.98545,-2.98546 3.54823,-3.95912 2.89081,-5.00133 -0.44898,-0.71179 -1.21949,-1.25883 -1.71223,-1.21565 -0.49274,0.0432 -3.31001,0.13152 -6.26059,0.19629 -5.26199,0.11553 -5.40102,0.17296 -7.26288,3.00064 -3.87978,5.89235 -9.83939,7.93126 -18.593,6.36106 -4.78473,-0.85827 -4.97502,-0.8269 -7.06659,1.16469 -4.600364,4.38048 -15.845119,4.95671 -20.937054,1.07289 -1.542622,-1.17661 -2.804762,-2.59655 -2.804762,-3.1554 0,-0.55887 -0.720981,-1.6686 -1.60218,-2.46607 -1.558866,-1.41075 -1.670299,-1.40881 -4.122179,0.0718 -3.672147,2.21753 -12.937761,2.15559 -16.006727,-0.10701 -3.229472,-2.38093 -6.945557,-8.99522 -8.093879,-14.40638 l -0.999836,-4.71144 -4.439068,-0.50222 c -2.441485,-0.27623 -5.042061,-0.94315 -5.779044,-1.48205 -2.15579,-1.57634 -3.893049,-6.73603 -3.976874,-11.81135 -0.06391,-3.86895 0.303683,-5.30477 2.056386,-8.03246 2.291688,-3.56651 2.782596,-6.49334 1.089111,-6.49334 -1.000009,0 -2.19877,-1.86413 -3.209811,-4.99144 -1.199224,-3.70939 3.096879,-13.52439 7.610987,-17.3883 2.967867,-2.54038 3.010745,-2.65348 2.17823,-5.7452 -1.14847,-4.26512 1.326407,-10.97012 5.77617,-15.64891 2.779165,-2.92221 3.895326,-3.50576 8.228866,-4.30229 4.54327,-0.83506 5.112185,-1.15751 6.064762,-3.43735 2.408365,-5.76403 11.285136,-10.27225 17.82176,-9.05108 2.0665,0.38607 3.962867,0.90753 4.214155,1.15881 0.25128,0.25128 2.761514,-0.76614 5.578297,-2.26093 5.772111,-3.06312 9.58099,-3.44834 13.87049,-1.40282 2.50909,1.19651 2.88295,1.20389 4.14882,0.0819 1.90961,-1.69259 8.31827,-3.75242 11.67473,-3.75242 4.1896,0 10.3706,2.3058 12.11056,4.5178 1.44974,1.84305 1.76263,1.9142 4.88836,1.11147 9.08258,-2.33253 12.82398,-1.69785 17.77932,3.01606 2.96326,2.81888 3.33934,3.51452 4.34639,8.03968 0.58336,2.62132 1.43295,2.71293 3.64077,0.39259 4.9734,-5.22685 9.72439,-13.60397 11.76779,-20.74936 1.38366,-4.83839 1.38393,-5.14614 0.008,-9.14598 -3.33612,-9.69659 -8.13284,-15.86177 -18.49903,-23.77666 -9.58394,-7.31761 -14.35372,-11.34073 -26.05983,-21.98045 -5.35221,-4.86464 -17.39244,-19.424589 -19.27787,-23.312249 -1.09089,-2.24937 -2.38482,-5.99518 -2.8754,-8.32403 -1.04092,-4.94105 -7.90175,-25.56435 -10.215185,-30.70612 -2.418517,-5.37531 -7.029225,-10.88728 -12.078047,-14.43893 -3.431278,-2.41378 -4.706327,-2.95102 -5.18099,-2.18299 -0.346286,0.5603 -1.4416,5.32444 -2.434033,10.58698 -2.314751,12.27436 -3.781736,16.84028 -8.15602,25.38525 l -3.559387,6.95312 0.675095,6.76031 c 0.371302,3.71817 1.207476,7.78982 1.858168,9.04812 2.023786,3.91357 7.322144,9.104029 10.47844,10.265069 8.478404,3.11874 10.101058,3.07815 13.758601,-0.34418 3.870263,-3.621379 4.882544,-14.705409 1.639229,-17.948729 -1.248321,-1.24832 -2.129745,-1.23151 -8.257305,0.15741 -1.939042,0.43952 -2.159237,0.27541 -2.159237,-1.6092 0,-1.73684 0.618217,-2.3721 3.586092,-3.68493 4.194768,-1.85554 8.592929,-1.46165 12.535299,1.12263 3.26839,2.14248 5.02029,9.07081 3.57714,14.14667 -1.70433,5.994499 -2.47611,7.315559 -5.989498,10.252389 -7.199986,6.01845 -14.573324,6.7866 -23.576581,2.45621 -6.528692,-3.14018 -10.204019,-6.92225 -13.490683,-13.882509 -1.186818,-2.51335 -2.511671,-4.46021 -2.944115,-4.32633 -0.432444,0.13388 -1.360264,1.37143 -2.06182,2.75012 -0.701555,1.37868 -2.644868,4.06963 -4.318473,5.97989 -1.673605,1.910259 -3.999173,4.647819 -5.16794,6.083489 -1.168768,1.43566 -3.578177,4.33833 -5.354232,6.45037 -5.565672,6.61852 -5.764212,7.06594 -4.349495,9.8017 0.67588,1.307 1.228864,2.8644 1.228864,3.46089 0,1.47853 2.95795,11.25226 4.53563,14.98674 3.007793,7.11965 11.673924,14.78399 20.405696,18.0468 3.2543,1.21604 8.536059,2.31051 13.733617,2.84584 13.446416,1.38493 21.679169,-0.82766 27.33335,-7.34597 2.28993,-2.6399 2.63346,-3.58253 2.5828,-7.08696 -0.0642,-4.44422 -1.45514,-7.74865 -4.43176,-10.52872 -1.53906,-1.43744 -2.6602,-1.76502 -5.374546,-1.57035 -3.169178,0.22728 -3.560275,0.50452 -5.146709,3.64839 -1.85067,3.66753 -1.674468,5.62712 0.505976,5.62712 0.753047,0 2.481889,0.38789 3.841878,0.86199 2.929151,1.0211 3.337571,3.60816 0.915634,5.79998 -1.284879,1.1628 -2.348613,1.31863 -6.085121,0.8914 -7.268022,-0.831 -10.426482,-4.24844 -9.329716,-10.09472 1.159173,-6.17891 7.74022,-12.23738 14.067639,-12.95057 5.778395,-0.65131 11.061285,1.02978 14.218585,4.52453 3.83893,4.24924 5.28823,7.4061 5.72434,12.46876 0.35786,4.15428 0.21181,4.60795 -2.74815,8.53622 -5.89922,7.82906 -9.58333,10.22334 -19.624615,12.75386 -7.151243,1.8022 -14.41175,1.94012 -24.110038,0.45797 -8.449327,-1.29123 -13.545314,-3.14915 -19.525717,-7.11871 -8.794939,-5.83775 -15.223882,-15.66357 -18.136331,-27.71904 -0.757311,-3.13473 -1.698267,-5.89812 -2.091004,-6.14085 -0.392738,-0.24272 -2.477901,0.85345 -4.633691,2.43595 -2.155789,1.5825 -5.689627,3.34419 -7.85297,3.91486 -6.095832,1.60805 -6.985099,3.20099 -7.009613,12.55616 -0.02787,10.62878 1.616876,20.78386 4.514454,27.87378 1.323682,3.23886 3.684435,8.97245 5.24612,12.74131 4.934994,11.90978 6.434054,25.07658 3.899228,34.24846 -1.996454,7.22387 -4.519007,14.25403 -5.114611,14.25403 -0.305167,0 -0.790186,0.97166 -1.07782,2.15924 -0.287634,1.18758 -1.528104,4.11014 -2.756592,6.49456 -4.129724,8.01557 -7.8831605,21.01522 -7.8831605,27.30258 0,3.36593 0.3282982,5.658 0.8103968,5.658 2.1326667,0 6.6008177,-2.61495 10.1654657,-5.94926 3.193684,-2.98732 3.942499,-4.1805 3.942499,-6.28208 0,-3.07359 -0.943594,-3.87692 -3.02615,-2.57634 -1.091514,0.68166 -2.261922,0.73006 -4.15412,0.17176 -2.160446,-0.63743 -2.594625,-1.12071 -2.413163,-2.68604 0.369418,-3.18668 2.123048,-4.1969 7.829306,-4.51027 5.067964,-0.27831 5.397573,-0.18562 7.609369,2.13978 2.032776,2.13718 2.317199,3.01644 2.355531,7.28193 l 0.04358,4.85126 2.748119,0.70648 c 3.362002,0.8643 9.015339,5.02798 10.154261,7.47861 2.951889,6.35162 -3.265794,16.5291 -10.255015,16.78602 -3.721613,0.13681 -6.182742,-0.80082 -6.168641,-2.3501 0.01869,-2.05232 0.923769,-3.00685 4.108399,-4.33281 5.576806,-2.32198 5.717682,-8.00286 0.263474,-10.62454 -3.038242,-1.4604 -6.475746,-0.26322 -14.708971,5.12267 -3.527046,2.30729 -6.710075,4.19506 -7.073407,4.19506 -0.363325,0 -0.6605933,0.68983 -0.6605933,1.53296 0,2.4137 7.2985813,9.09903 12.7358603,11.66576 2.711844,1.28015 7.050599,3.33771 9.641683,4.57234 3.980611,1.89675 5.502394,2.20542 9.814711,1.99082 11.116316,-0.5532 22.349497,3.69729 28.060811,10.61782 6.243452,7.56535 11.699932,13.02644 14.385842,14.39802 8.968974,4.58008 26.728993,6.0677 36.480673,3.05571 z m 154.29661,-0.43392 c 4.81396,-1.59103 6.93082,-2.78211 9.19842,-5.17561 8.06561,-8.51343 11.17295,-11.86851 15.37385,-16.59958 6.14873,-6.92471 12.02752,-9.45302 29.57856,-12.72099 2.7079,-0.50421 14.50007,-7.75904 16.47015,-10.13284 0.55615,-0.67013 2.46618,-1.87745 4.24448,-2.68292 5.04352,-2.28446 9.31494,-6.51246 12.25693,-12.13234 1.48398,-2.83475 2.53405,-5.27393 2.33348,-5.42039 -0.20056,-0.14645 -2.83797,-0.8919 -5.8609,-1.65654 -3.02293,-0.76464 -6.83211,-2.07501 -8.46483,-2.91193 -4.5078,-2.31067 -6.06201,-2.04627 -6.05577,1.03014 0.006,2.97795 1.70788,5.7954 5.33572,8.83344 4.65562,3.89874 2.3208,7.52772 -3.78683,5.88579 -6.52599,-1.7544 -12.59173,-10.63569 -11.44365,-16.75547 0.2823,-1.50483 1.91723,-4.29705 3.70579,-6.32896 2.0854,-2.36914 3.03037,-4.07971 2.71203,-4.90928 -0.26872,-0.70027 0.27818,-2.85712 1.21533,-4.793 1.32249,-2.73191 2.48242,-3.86418 5.18181,-5.05825 3.06826,-1.35723 3.93779,-1.42812 7.38226,-0.6018 4.60258,1.10414 6.81418,3.60728 5.44593,6.16386 -0.65274,1.21966 -1.78992,1.63651 -4.96315,1.8193 -3.96682,0.22851 -4.12502,0.32535 -4.3532,2.66487 -0.19445,1.99367 0.25958,2.80635 2.53931,4.54519 3.08366,2.35202 8.28712,4.41213 11.14421,4.41213 1.72959,0 1.86422,-0.30299 1.86422,-4.19555 0,-7.80323 -2.25873,-12.25331 -17.8271,-35.12243 -1.63905,-2.40768 -3.95175,-5.52642 -5.13933,-6.93053 -1.68665,-1.99419 -2.15784,-3.35604 -2.1529,-6.22229 0.0115,-6.67628 2.25714,-20.8245 4.57034,-28.79501 8.29255,-28.57317 9.63489,-34.34709 8.98378,-38.64262 -0.38522,-2.54139 -1.48386,-3.47596 -8.84939,-7.52782 -1.51147,-0.83147 -5.09228,-3.06147 -7.95736,-4.95556 -2.86509,-1.89409 -5.60339,-3.4438 -6.08512,-3.4438 -0.53128,0 -0.87588,1.5947 -0.87588,4.0532 0,6.77884 -4.07616,12.66054 -13.7406,19.82703 -8.07847,5.99044 -14.31713,9.6518 -19.62942,11.52017 -4.19173,1.47427 -6.05267,1.62489 -16.88131,1.36636 -11.29274,-0.26961 -12.50422,-0.44573 -16.80222,-2.44275 -2.54758,-1.18371 -5.11426,-2.76592 -5.70372,-3.51604 -4.5491,-5.78889 -6.2071,-15.62646 -3.61953,-21.47608 3.82022,-8.63624 21.5582,-11.26112 27.78956,-4.11233 0.69728,0.79995 1.50068,2.98777 1.78533,4.86184 0.41525,2.73395 0.17913,3.95495 -1.19469,6.17783 -1.97193,3.19065 -6.77088,5.68293 -10.99183,5.70848 -5.68442,0.0344 -5.98701,-4.233 -0.47679,-6.72397 6.64047,-3.00191 3.8447,-8.85482 -3.2188,-6.73855 -4.60592,1.37997 -6.01897,3.42533 -6.01897,8.71238 0,3.49297 0.43264,5.12126 1.94856,7.3336 2.96397,4.32562 4.5866,4.79375 17.68087,5.10096 l 11.77765,0.27631 6.66669,-3.24971 c 3.66668,-1.78734 6.84665,-3.50277 7.06659,-3.81207 0.21995,-0.3093 2.60281,-2.2407 5.29526,-4.29199 8.48173,-6.46197 10.4156,-10.26921 10.4156,-20.50541 v -6.40748 l -3.63866,-4.27154 c -2.00126,-2.34935 -5.0929,-5.96344 -6.8703,-8.03132 -1.77741,-2.06788 -3.78269,-4.763549 -4.45619,-5.990389 -1.58356,-2.88456 -5.16537,-7.13737 -5.98765,-7.10932 -0.35176,0.012 -1.69956,1.10303 -2.9951,2.42453 -1.29554,1.3215 -4.65217,3.69275 -7.45918,5.26945 -4.9676,2.790299 -5.32342,2.866949 -13.34801,2.875409 -7.12332,0.008 -8.7248,-0.24111 -11.77765,-1.828319 -7.03647,-3.65835 -10.2073,-7.96589 -10.2073,-13.86654 0,-4.66254 1.51225,-7.48836 5.62677,-10.51421 2.68212,-1.97244 4.08238,-2.44121 7.29221,-2.44121 5.11061,0 8.84805,1.09189 11.15464,3.25883 4.6005,4.32194 -0.41181,8.55097 -5.44363,4.59294 -4.11737,-3.23873 -9.36056,-1.00321 -10.45252,4.4566 -0.56017,2.80086 0.49901,5.12676 3.86714,8.49191 2.24163,2.23964 2.6764,2.35689 8.3642,2.25546 4.35197,-0.0776 6.8729,-0.55249 9.1793,-1.72913 6.61633,-3.3754 10.45591,-8.1088 10.45591,-12.88994 0,-1.0016 -1.46815,-4.63457 -3.26256,-8.07329 -3.88145,-7.4382 -10.34245,-23.61667 -12.02572,-30.11261 -0.66024,-2.54795 -1.20044,-6.08328 -1.20044,-7.8563 0,-4.10155 -0.68915,-4.11604 -9.4863,-0.19942 -8.28403,3.68817 -12.43427,6.50003 -18.97999,12.85928 -5.81718,5.65147 -8.32452,10.02306 -8.99481,15.68263 -0.34826,2.9405 -0.84371,4.07499 -1.90024,4.35128 -0.92862,0.24284 -1.58756,1.37467 -1.88141,3.23163 -1.59952,10.10788 -6.20356,22.57811 -11.23792,30.438419 -2.17773,3.40014 -4.2627,6.53542 -4.63328,6.96727 -0.37058,0.43184 -3.25251,3.96514 -6.40431,7.85176 -3.15179,3.88663 -7.7277,9.01973 -10.16868,11.40689 -6.16904,6.03302 -17.2153,19.37231 -19.13509,23.10723 -1.31431,2.55699 -1.44885,3.53003 -0.75996,5.49624 0.46039,1.31406 1.40727,4.68584 2.10417,7.49285 1.68908,6.80342 3.47261,11.58427 5.5654,14.91836 2.43244,3.87523 10.3692,11.14131 11.84757,10.84642 0.67977,-0.13559 1.81107,-1.71961 2.514,-3.52003 1.47204,-3.77032 4.42664,-6.61707 9.69207,-9.33829 4.13328,-2.1361 7.19563,-2.36098 13.21873,-0.97068 3.97665,0.91792 4.13476,0.88731 5.87642,-1.13749 4.21412,-4.89922 11.82716,-6.66563 17.8615,-4.14432 2.67468,1.11755 2.95246,1.06305 8.00471,-1.57036 2.87863,-1.50044 6.35653,-2.72032 7.72865,-2.71084 3.39032,0.0234 8.28779,2.40571 11.10166,5.40017 2.23782,2.38144 2.49718,2.45529 6.88091,1.95934 3.40002,-0.38468 5.44891,-0.17417 8.07812,0.82993 1.93748,0.73993 3.52269,1.66943 3.52269,2.06556 0,0.39613 0.44166,0.73134 0.98147,0.74491 1.39579,0.0351 3.88609,3.69373 4.46972,6.56674 0.47452,2.33588 0.69164,2.45572 5.17753,2.85767 7.2248,0.64737 11.97286,3.58702 14.79484,9.15988 1.67949,3.31666 1.60135,5.57503 -0.30084,8.69491 -2.02003,3.31316 -1.97543,3.83056 0.38113,4.42202 5.10873,1.28221 9.82911,8.59221 9.82911,15.22139 0,3.50458 -2.9518,8.72295 -5.2622,9.30282 -2.45202,0.61542 -2.26818,2.15313 0.69879,5.84513 3.44922,4.29209 4.02061,10.809 1.29589,14.77991 -3.13025,4.56193 -5.6008,5.8784 -11.67595,6.22167 -3.30963,0.18702 -5.50554,0.6619 -5.55822,1.20202 -0.0479,0.49108 -0.0176,3.24676 0.0673,6.12375 0.19429,6.58311 -1.85759,11.68863 -5.61931,13.98207 -2.21824,1.35242 -3.95618,1.5888 -11.69966,1.5913 l -9.09442,0.003 -2.43942,3.03552 c -1.77581,2.20978 -3.4013,3.27774 -5.97533,3.92589 -6.11308,1.53929 -8.51353,1.16921 -12.04986,-1.85776 -3.63098,-3.10797 -4.34742,-3.23692 -8.45341,-1.52133 -4.25935,1.77968 -12.67054,1.84781 -16.25149,0.13164 -3.35588,-1.60831 -5.82151,-4.45086 -6.48849,-7.48042 -0.46438,-2.10932 -0.51057,-2.12267 -7.51347,-2.17064 -6.67794,-0.0458 -8.81439,0.55901 -5.59005,1.58238 2.63196,0.83535 7.0772,6.0374 8.8839,10.39639 l 1.77427,4.28074 4.34643,-0.47891 c 9.19814,-1.01349 14.8062,2.65446 17.28774,11.30708 2.37272,8.27321 -8.31311,19.2161 -14.31537,14.65973 -2.12534,-1.61336 -1.63972,-3.90917 1.41484,-6.68876 1.5339,-1.39581 3.11513,-3.3959 3.51386,-4.44463 0.93354,-2.45539 -0.21544,-5.53925 -2.31168,-6.20457 -2.20587,-0.70011 -9.97293,1.87714 -12.37995,4.10789 -1.8455,1.71035 -1.96516,2.25368 -1.69117,7.67931 l 0.29484,5.83874 4.60578,4.65435 c 4.84338,4.89445 7.84152,6.34834 18.52743,8.98453 10.24666,2.52783 13.62319,2.53068 21.22615,0.0179 z M 96.059011,286.82922 c 1.030764,-1.242 3.760212,-11.26754 3.215794,-11.81195 -0.207522,-0.20753 -3.464766,-0.62783 -7.238311,-0.93402 l -6.861002,-0.5567 v 2.48873 c 0,3.08533 1.888037,7.72828 4.100226,10.08305 1.853748,1.97322 5.432246,2.3588 6.783293,0.73089 z m 23.724659,-5.17455 c 1.86118,-1.86116 2.29514,-2.96763 2.29514,-5.85187 0,-4.24581 -1.34686,-7.55837 -3.07045,-7.55169 -0.68641,0.002 -2.26007,0.53265 -3.49701,1.17776 -1.23695,0.64511 -2.69534,1.17293 -3.24086,1.17293 -3.34673,0 -3.29782,8.16502 0.0691,11.53193 2.43222,2.43222 4.6773,2.28774 7.44409,-0.47906 z m 158.44196,-0.74218 c 1.34226,-1.34226 3.12531,-9.90603 2.24567,-10.78567 -0.18852,-0.18852 -2.16097,0.0472 -4.38323,0.52376 l -4.04046,0.86653 v 3.91244 c 0,2.15184 0.36575,4.59587 0.81279,5.43117 1.03028,1.92508 3.46839,1.94861 5.36523,0.0517 z M 69.307755,280.36463 c 1.984747,-1.39017 4.875258,-6.60483 4.875258,-8.79526 0,-0.95478 -1.140509,-1.94792 -3.337002,-2.90583 -1.835351,-0.80041 -3.513667,-1.6634 -3.729591,-1.91775 -0.704484,-0.82987 -6.46616,-3.28757 -6.837234,-2.91649 -0.198768,0.19876 -0.555254,1.80676 -0.792204,3.57332 -0.557751,4.15835 1.489527,9.58456 4.605384,12.20639 2.775106,2.3351 2.928616,2.35733 5.215389,0.75562 z m 186.720995,-2.22005 c 5.51541,-2.56816 6.66836,-5.9578 2.03562,-5.98469 -1.16209,-0.007 -4.22861,-0.50989 -6.81448,-1.11812 -5.17102,-1.21626 -5.86474,-0.88731 -5.88628,2.79114 -0.0158,2.69112 2.78899,6.19305 4.95232,6.18334 0.94032,-0.004 3.51108,-0.84646 5.71282,-1.87167 z m -88.42508,-6.42272 c 4.23511,-1.08498 5.68005,-1.13228 9.54361,-0.31237 4.18919,0.88901 4.9042,0.8236 8.95059,-0.8187 3.82966,-1.55435 5.27824,-1.72545 11.21481,-1.32463 3.76218,0.25401 8.92828,1.20374 11.52818,2.11933 7.99151,2.81429 7.76254,2.77924 7.23123,1.10696 -3.20872,-10.09923 -3.11713,-9.96883 -7.68808,-10.94602 -6.84637,-1.46362 -8.23604,-2.31624 -10.12075,-6.20953 -1.75204,-3.61925 -1.86915,-7.51467 -0.39697,-13.20493 0.4854,-1.87618 0.11966,-2.5599 -2.73013,-5.10365 -2.57846,-2.30156 -3.38297,-3.63963 -3.71731,-6.18271 -0.51043,-3.88246 0.76342,-8.13585 3.36124,-11.22317 1.77274,-2.1068 1.91582,-4.7682 0.25633,-4.7682 -1.06546,0 -3.07686,-4.4062 -3.07686,-6.74021 0,-3.90528 1.87202,-8.39553 4.6079,-11.05259 l 2.71891,-2.64058 -6.29919,-6.46832 c -3.46455,-3.55758 -6.8888,-7.61664 -7.60946,-9.02015 -0.72064,-1.4035 -1.62976,-2.55182 -2.02027,-2.55182 -0.39052,0 -2.15435,2.61648 -3.91964,5.8144 -1.76529,3.19792 -4.97001,7.68945 -7.12159,9.98118 -2.15158,2.29171 -3.91197,4.44075 -3.91197,4.77563 0,0.33488 1.35776,1.46598 3.01725,2.51357 5.71865,3.61003 6.04798,10.04804 0.81866,16.00392 -1.24606,1.41917 -2.26556,2.84653 -2.26556,3.1719 0,0.32538 1.51071,1.85438 3.35714,3.39781 2.59128,2.16603 3.58619,3.69996 4.36122,6.72398 0.88834,3.46607 0.84075,4.27063 -0.41272,6.97847 -1.75886,3.79962 -3.69258,5.51655 -7.58067,6.73079 -2.95435,0.92265 -3.00912,1.00778 -2.40662,3.74067 0.33908,1.5381 0.63952,4.80535 0.66762,7.26056 0.0449,3.92203 -0.2349,4.76466 -2.30444,6.94039 -2.97652,3.12924 -5.94926,4.69172 -8.92632,4.69172 -3.03604,0 -4.81428,0.71288 -4.81428,1.93001 0,0.53725 -0.88332,2.63812 -1.96294,4.6686 -3.95256,7.43375 -2.02856,8.65617 6.72277,4.2713 3.26568,-1.63627 8.18341,-3.55039 10.92831,-4.25361 z m 136.94185,2.38799 c 1.96327,-1.96326 2.22825,-5.86657 0.85113,-12.53758 -0.71319,-3.45478 -1.42337,-6.41013 -1.57819,-6.56743 -0.15481,-0.1573 -2.33164,1.456 -4.83739,3.58512 -2.50576,2.12913 -5.52758,4.47428 -6.71516,5.21146 -2.57091,1.59589 -2.71567,3.53562 -0.61003,8.17444 l 1.51473,3.337 h 5.08595 c 3.52137,0 5.45603,-0.37007 6.28896,-1.20301 z m -164.82854,-3.29772 c 2.58386,-3.80249 2.65908,-8.40923 0.19699,-12.06272 -0.98684,-1.46438 -2.3352,-2.76668 -2.99634,-2.89401 -1.58832,-0.30589 -8.55741,5.86814 -8.55741,7.58114 0,2.0497 6.38839,10.30597 7.97437,10.30597 0.76513,0 2.28721,-1.31867 3.38239,-2.93038 z m 92.69609,-2.23392 c 4.1226,-1.9563 3.9618,-3.13947 -0.84454,-6.21405 -5.51238,-3.52623 -7.03758,-3.53463 -8.18921,-0.0451 -1.87333,5.67627 3.05959,9.09415 9.03375,6.25922 z M 106.8409,265.16844 c 16.32653,-5.48635 38.14551,-26.36625 41.50044,-39.71431 0.82548,-3.28428 0.56584,-13.29024 -0.41156,-15.86101 -1.16975,-3.07668 -4.68181,-5.92335 -11.56974,-9.37777 l -6.03687,-3.02759 -11.38507,0.005 c -18.12267,0.008 -34.726719,3.81698 -43.96991,10.08574 -6.486787,4.39936 -7.854942,5.94189 -11.245799,12.67914 -7.421972,14.74661 -6.496813,26.89795 2.761695,36.27291 2.261592,2.29004 4.449566,4.1637 4.862161,4.1637 0.412595,0 1.37099,0.56183 2.129761,1.24851 0.758772,0.68668 4.319887,2.27194 7.913597,3.52279 9.025734,3.14158 16.108085,3.14231 25.451295,0.002 z m 163.00882,-0.11907 c 6.33701,-1.28143 11.75781,-3.15824 14.36813,-4.9746 5.45691,-3.79712 14.12518,-12.06131 16.66787,-15.89088 3.05947,-4.60789 6.4465,-15.36773 6.4757,-20.57186 0.0365,-6.50915 -3.44681,-15.1656 -9.13722,-22.70698 -2.41102,-3.19527 -9.30169,-7.22417 -12.436,-7.27119 -1.29554,-0.0195 -4.47551,-0.54722 -7.06659,-1.17287 -10.04176,-2.42468 -29.27729,-1.04502 -39.9013,2.86189 -3.37627,1.2416 -6.86362,2.25747 -7.74965,2.25747 -2.26958,0 -8.39108,6.6625 -10.64505,11.58583 -3.73877,8.16652 -3.79495,17.41548 -0.17763,29.24337 2.10769,6.89169 4.83629,10.55745 11.78541,15.83322 13.27673,10.07966 24.93537,13.4113 37.81633,10.8066 z M 50.507078,258.37405 c 1.514606,-0.75559 2.476157,-1.83237 2.476157,-2.77289 0,-1.83398 -2.994884,-11.02358 -3.897139,-11.95809 -0.347975,-0.36041 -1.556786,0.55626 -2.686247,2.03706 -1.575364,2.06541 -2.051063,3.58929 -2.042835,6.54413 0.02089,7.50166 1.158953,8.63968 6.150064,6.14979 z M 157.1579,257.0575 c 2.25912,-2.50976 2.62269,-4.00822 1.74433,-7.18936 -0.78412,-2.83984 -4.25149,-6.09226 -7.56904,-7.09983 -1.39415,-0.42341 -2.33206,0.0882 -4.51101,2.4607 -1.51301,1.64739 -2.7526,3.56232 -2.75466,4.25541 -0.006,1.71439 8.17538,9.33973 10.01968,9.33973 0.81427,0 2.19608,-0.79499 3.0707,-1.76665 z m 58.71261,-3.07045 c 2.04463,-0.93159 2.61874,-2.53952 1.21623,-3.40632 -0.431,-0.26638 -1.69332,-2.4072 -2.80514,-4.7574 -1.11182,-2.35019 -2.37239,-4.27308 -2.80126,-4.27308 -3.87276,0 -7.34224,8.18824 -4.92922,11.63332 1.37009,1.95608 5.92736,2.34899 9.31939,0.80348 z m 108.42216,-3.04023 c 2.95287,-2.45066 0.19059,-9.56037 -5.09948,-13.12536 -2.85569,-1.92444 -3.93979,-1.9588 -4.74459,-0.15036 -0.27684,0.62207 -1.47933,3.03801 -2.6722,5.36876 l -2.16887,4.23772 2.22352,1.87465 c 1.22294,1.03106 2.93018,2.2114 3.79388,2.62298 1.96178,0.93487 7.13937,0.44005 8.66774,-0.82839 z M 166.45875,235.7222 c 1.05632,-0.69213 2.15359,-2.18688 2.43842,-3.32168 1.17414,-4.67819 -2.36028,-8.28017 -8.28338,-8.44169 -2.55071,-0.0696 -2.7872,0.12619 -3.22936,2.67306 -0.2624,1.51147 -1.09582,3.92834 -1.85204,5.37082 -0.75622,1.44248 -1.19433,3.09338 -0.97356,3.66868 0.84195,2.19409 8.57845,2.22712 11.89992,0.0508 z M 50.32454,229.95935 c 0.302277,-1.61418 1.024138,-4.07184 1.604148,-5.46147 1.56364,-3.74633 1.347858,-4.93258 -0.897253,-4.93258 -2.381607,0 -5.475817,4.32403 -6.545392,9.14693 -0.765579,3.45212 -0.474444,4.50118 1.4306,5.15501 2.055248,0.70538 3.840379,-0.87724 4.407897,-3.90789 z m 158.63251,-1.16822 c -0.27232,-2.2672 -0.4982,-4.91717 -0.50195,-5.88883 -0.01,-2.57137 -2.07381,-2.21223 -5.189,0.90296 -1.99928,1.99928 -2.6696,3.34649 -2.6696,5.36537 0,1.48268 0.23556,2.93133 0.52346,3.21922 0.28789,0.2879 2.28042,0.52346 4.42784,0.52346 h 3.90438 z m 115.58025,-2.23605 c 2.12943,-0.74232 2.47269,-1.23823 2.47269,-3.57229 0,-3.19196 -1.78679,-6.98374 -3.7982,-8.06022 -1.59976,-0.85616 -9.54981,-2.05991 -9.54981,-1.44597 0,0.21726 0.53,1.89719 1.17777,3.73317 0.64777,1.83598 1.17776,4.88371 1.17776,6.77272 v 3.43458 h 3.02355 c 1.66294,0 4.13625,-0.38789 5.49624,-0.86199 z M 163.16424,212.87062 c 3.24949,-3.24949 4.40446,-7.0402 2.67268,-8.77198 -0.89499,-0.89499 -2.16878,-1.03383 -5.57769,-0.60791 -4.1195,0.5147 -4.41594,0.69167 -4.38999,2.62074 0.0153,1.13782 0.53278,2.95209 1.14994,4.03171 0.61717,1.07961 1.13465,2.75793 1.14994,3.72959 0.04,2.53796 1.81015,2.18282 4.99512,-1.00215 z M 60.62877,209.358 c 1.962416,-1.72739 3.871613,-3.14071 4.242665,-3.14071 1.422748,0 0.584642,-4.28823 -1.328269,-6.79618 -2.751189,-3.607 -4.436603,-3.35156 -7.281786,1.10365 -3.370646,5.27801 -3.715323,7.2805 -1.695181,9.84869 0.91945,1.1689 1.856857,2.12526 2.08313,2.12526 0.22628,0 2.017025,-1.41332 3.979441,-3.14071 z m 148.71976,2.15924 c 1.42661,-1.16642 4.7672,-9.82015 3.97114,-10.28715 -2.07693,-1.21841 -5.72472,-1.23631 -8.23257,-0.0404 -2.2963,1.09504 -2.95247,1.97008 -3.69825,4.93183 -0.83868,3.33072 -0.77814,3.70464 0.80784,4.98889 1.99709,1.61715 5.43253,1.81257 7.15184,0.40683 z m 104.73626,-8.01009 c 5.12504,-2.14138 5.17971,-6.80418 0.11597,-9.89177 -2.87207,-1.75122 -3.74858,-1.83041 -7.80166,-0.70481 -3.31123,0.91957 -3.82627,2.6388 -1.53103,5.11061 0.77737,0.83716 2.0902,2.67043 2.91741,4.07393 1.69128,2.86954 2.42004,3.0329 6.29931,1.41204 z M 78.557911,197.86166 c 5.504734,-1.83381 5.90267,-2.28677 5.328682,-6.06552 -0.640885,-4.21921 -2.598991,-7.5638 -4.428249,-7.5638 -4.984117,0 -8.305753,7.04997 -6.079941,12.9043 0.907303,2.3864 0.403887,2.31593 5.179508,0.72502 z m 71.260929,-2.04796 c 2.05653,-4.9272 2.20429,-7.85934 0.53417,-10.59989 -1.64532,-2.69986 -3.00717,-3.10295 -5.66951,-1.67811 -3.43424,1.83795 -8.03125,8.29489 -7.04011,9.88853 0.78177,1.25699 7.98998,4.94129 9.66749,4.94129 0.88592,0 1.854,-0.985 2.50796,-2.55182 z m 75.07026,-2.88613 c 1.10595,-0.77422 3.86166,-2.0144 6.12378,-2.75595 4.69711,-1.5398 5.14645,-2.0019 4.48995,-4.61762 -0.58247,-2.32076 -7.52402,-5.00193 -10.81291,-4.17646 -3.33079,0.83597 -7.49197,4.98868 -8.06624,8.04983 -1.00575,5.36115 3.11455,7.106 8.26542,3.5002 z m -120.06777,-1.34774 c 0.36119,-0.37042 0.32964,-2.44014 -0.0701,-4.59937 -0.84918,-4.58661 -3.18234,-7.09845 -5.460835,-5.87903 -2.324933,1.24426 -4.457772,4.8335 -5.077975,8.54545 l -0.576705,3.45159 5.264463,-0.42258 c 2.895452,-0.23242 5.559982,-0.72565 5.921172,-1.09606 z m 22.108,-1.26484 c 1.02837,-1.61947 0.72352,-8.81682 -0.4409,-10.40925 -1.22677,-1.67772 -6.07012,-1.93875 -7.89358,-0.42541 -3.20119,2.65675 -4.78392,10.67804 -2.20857,11.19306 3.78182,0.75629 9.96878,0.54596 10.54305,-0.3584 z m 169.41328,-1.70938 c 0.51259,-0.61764 0.82085,-2.44043 0.68503,-4.05067 -0.20824,-2.46859 -0.69757,-3.16068 -3.12045,-4.41344 -2.63899,-1.36449 -3.1034,-1.38968 -5.69077,-0.3086 -4.58505,1.91575 -5.94577,7.46376 -1.86397,7.59988 0.9852,0.0328 3.02794,0.53597 4.5394,1.11803 3.60687,1.389 4.33738,1.39634 5.45076,0.0548 z m -44.65351,-3.61812 c 1.27786,-0.68389 1.44244,-1.34788 1.02173,-4.12218 -0.62728,-4.13654 -2.34444,-6.25732 -4.50994,-5.57001 -3.10788,0.9864 -4.80104,4.1975 -2.8493,5.40374 0.43185,0.2669 0.78518,1.52441 0.78518,2.79446 0,1.95546 0.30859,2.30919 2.01456,2.30919 1.10801,0 2.70001,-0.36684 3.53777,-0.8152 z m 23.34474,-4.96559 c 0.26634,-5.14873 -1.08412,-7.56722 -4.22545,-7.56722 -3.68464,0 -8.15563,5.87481 -8.17853,10.74644 -0.005,1.0498 3.38083,1.64278 8.63257,1.51187 l 3.53329,-0.0881 z m -89.22697,-41.3696 c 5.8237,-6.75917 12.78735,-14.29539 16.13553,-17.46224 2.2517,-2.12975 5.59725,-5.86466 7.43455,-8.29979 1.83729,-2.43513 4.51767,-5.84083 5.9564,-7.56822 3.64041,-4.37081 3.43539,-4.06013 6.99485,-10.599879 4.08893,-7.51255 6.42556,-14.70736 7.5879,-23.36415 1.13765,-8.47291 0.45766,-16.18356 -1.74984,-19.84187 -0.90498,-1.49976 -1.89071,-3.25683 -2.19052,-3.9046 -1.8499,-3.99695 -9.83044,-8.64105 -18.02891,-10.49153 -9.51185,-2.14693 -17.91071,0.36408 -21.26551,6.35776 -1.72391,3.07993 -4.11639,13.17542 -4.1816,17.64498 -0.0207,1.4217 -0.64239,3.82157 -1.38144,5.33303 -1.20144,2.45714 -1.6755,2.74812 -4.47705,2.74812 h -3.13333 l 0.28184,-9.02953 c 0.34053,-10.91003 -0.54898,-14.74356 -4.25653,-18.34428 -3.46981,-3.36984 -8.31548,-4.75727 -14.79768,-4.23694 -7.89696,0.63389 -13.08991,3.47711 -20.66928,11.31678 -3.57016,3.69277 -6.4912,7.20795 -6.4912,7.81151 0,0.60358 -0.31213,1.0974 -0.6936,1.0974 -0.38148,0 -0.89086,0.61833 -1.13195,1.37406 -0.24109,0.75573 -1.36438,3.49404 -2.49621,6.08512 -3.76688,8.6235 -4.43432,10.95894 -4.39452,15.37702 0.0652,7.2303 2.00824,10.41051 14.9963,24.543929 4.676,5.08836 25.90992,23.19245 31.54902,26.89878 2.45246,1.6119 6.67082,5.35918 9.37415,8.32732 l 4.91513,5.3966 2.53223,-2.97592 c 1.39273,-1.63675 3.0043,-3.52382 3.58127,-4.19346 z M 19.25804,126.11016 c 3.335024,-1.7014 7.406292,-5.52091 13.703183,-12.85577 6.465084,-7.53078 6.552734,-8.59042 0.776061,-9.3822 -2.024484,-0.27748 -5.740954,-1.60252 -8.258813,-2.94453 -2.517858,-1.341999 -4.927307,-2.224069 -5.354333,-1.960149 -0.427027,0.26391 -1.166734,2.331639 -1.643792,4.594959 -0.477065,2.26331 -2.078387,7.12494 -3.5585,10.80363 -1.480114,3.67868 -2.930194,8.18363 -3.222406,10.01101 -0.53074,3.3191 -0.528746,3.32249 1.955876,3.32249 1.367943,0 3.88917,-0.71525 5.602724,-1.58944 z m 332.57499,-5.67345 c -0.29046,-3.13089 -1.02599,-7.45918 -1.6345,-9.61842 -0.60851,-2.15923 -2.01492,-7.60974 -3.12535,-12.112229 -1.11043,-4.5025 -2.17755,-8.34493 -2.37136,-8.53875 -0.19382,-0.19382 -2.22213,0.87098 -4.50735,2.36621 -5.48158,3.58665 -10.38799,4.8576 -16.77371,4.34501 -3.99691,-0.32083 -5.07696,-0.18328 -4.89221,0.62308 0.35843,1.56444 9.87208,12.059479 14.56257,16.064799 2.27575,1.94332 4.76634,4.07618 5.53465,4.7397 2.47947,2.14131 11.79129,7.69827 13.03375,7.77807 0.39704,0.0255 0.47236,-2.42618 0.17351,-5.64747 z M 41.453493,97.755941 c 3.852596,-2.00402 10.138676,-8.15084 11.909768,-11.64592 1.038687,-2.04976 2.785682,-4.79303 3.882205,-6.09618 2.332156,-2.77161 3.957575,-9.38714 3.242679,-13.19786 -0.757939,-4.04014 -3.75379,-7.00703 -9.090881,-9.00297 l -4.758078,-1.7794 -2.025568,1.87409 c -1.75564,1.62435 -3.891706,4.54011 -6.925284,9.45311 -9.442138,15.29192 -13.756646,22.71071 -13.756646,23.65453 0,1.09698 3.813275,4.50546 7.410029,6.62341 2.060501,1.21334 7.87498,1.28071 10.111776,0.11719 z m 291.407347,-8.85613 c 3.26485,-1.36414 3.99788,-2.71437 4.6567,-8.57759 0.49562,-4.41094 0.40316,-4.73926 -2.43251,-8.63695 -1.62125,-2.22844 -3.59535,-4.75837 -4.38689,-5.62206 -0.79154,-0.8637 -3.58093,-4.28533 -6.19864,-7.60364 -4.00725,-5.07975 -5.20876,-6.10452 -7.6022,-6.48404 -4.78569,-0.75883 -9.56837,1.1975 -12.26485,5.0169 -2.19858,3.11415 -2.34478,3.7629 -2.19417,9.7369 0.1444,5.72784 0.47399,6.99398 3.1362,12.04808 2.68833,5.10368 3.27778,5.72631 6.12006,6.46467 1.72986,0.44938 4.91186,1.69521 7.07109,2.76849 4.50957,2.24155 10.02576,2.58957 14.09521,0.88924 z M 117.24959,60.288931 c 3.50532,-6.71054 11.32679,-15.54096 17.49393,-19.7506 2.52528,-1.72374 4.90548,-3.13408 5.28934,-3.13408 0.38385,0 1.11886,-0.50721 1.63336,-1.12714 1.24445,-1.49947 10.6366,-3.58392 16.14846,-3.58392 6.36116,0 7.44886,-0.80077 7.44886,-5.48391 0,-3.44289 -0.27921,-4.07126 -2.59327,-5.83628 -1.42629,-1.08788 -4.46099,-2.37853 -6.74377,-2.8681 -3.50252,-0.75116 -4.69634,-0.68167 -7.64664,0.44506 -4.55235,1.73856 -6.01786,3.91719 -5.00668,7.44294 0.96401,3.36132 -0.0794,4.72994 -3.60593,4.72994 -5.17488,0 -6.55494,-6.32187 -2.59429,-11.8841 2.78528,-3.91155 7.73617,-5.65863 16.02034,-5.65326 6.09711,0.004 7.62738,0.29105 11.15417,2.09266 2.24817,1.14844 4.79113,2.84325 5.65102,3.76623 2.28315,2.45067 3.31006,8.16661 2.20768,12.28829 -0.86994,3.2526 -0.82138,3.43241 1.42835,5.28908 1.2809,1.05711 2.75566,2.28228 3.27724,2.72262 1.35456,1.14355 1.54118,1.07401 4.6085,-1.71719 1.52177,-1.38478 4.07399,-3.24907 5.67161,-4.14287 2.85093,-1.59499 2.91202,-1.72918 3.29733,-7.24291 0.4334,-6.2017 1.79372,-8.76212 6.27591,-11.81265 5.75645,-3.91776 16.30943,-4.44226 22.67017,-1.12673 5.4303,2.83056 7.17206,5.24195 7.17206,9.92946 0,2.33631 -0.36101,2.95643 -2.10777,3.62055 -3.97656,1.51188 -5.30589,0.73349 -5.7792,-3.38401 -0.61861,-5.38162 -4.68537,-7.71937 -11.5038,-6.61289 -6.45085,1.04683 -10.17812,5.47657 -9.12145,10.84057 0.37757,1.91668 0.80251,2.11864 5.52118,2.62397 13.97939,1.49706 27.52514,9.4923 31.97713,18.87416 0.71218,1.50084 1.54331,2.72816 1.84694,2.72739 0.30362,-7.8e-4 1.52824,-1.54666 2.72137,-3.4353 2.68686,-4.25309 8.13265,-9.39609 14.31938,-13.52319 5.13625,-3.42633 16.66359,-8.90136 20.40986,-9.69386 5.08061,-1.07476 3.1985,-2.69289 -8.48869,-7.29806 -11.70922,-4.61386 -16.20833,-5.96906 -26.83953,-8.08447 C 223.3032,7.0708711 200.90821,4.3151911 190.3892,4.2478711 c -14.56063,-0.0932 -43.22082,1.13343 -50.64391,2.16748 -4.31847,0.60157 -10.14841,1.33612 -12.95542,1.63234 -5.79313,0.61134 -13.7083,3.3897299 -25.51825,8.9574399 -1.72739,0.81437 -5.437351,2.41587 -8.244358,3.5589 -2.807008,1.14303 -5.634289,2.54845 -6.282853,3.12316 -0.648564,0.57471 -2.175921,1.42388 -3.394131,1.88704 -2.825349,1.0742 -2.519594,3.18516 0.612485,4.22869 3.954442,1.31752 10.883958,5.73006 14.600287,9.29708 4.88851,4.69212 7.3418,8.58545 10.5836,16.79601 4.02914,10.20469 4.30921,10.80751 4.79533,10.3214 0.24272,-0.24273 1.73114,-2.91054 3.30761,-5.92848 z m -48.336732,-5.02191 c 0.66119,-2.69904 1.835579,-8.70487 2.60974,-13.34628 1.122332,-6.72883 1.209667,-8.63684 0.430944,-9.41556 -0.623415,-0.62342 -1.177781,-0.69503 -1.532814,-0.19802 -0.305905,0.42824 -2.322837,2.17655 -4.482073,3.88513 -5.403109,4.27542 -14.525774,13.74788 -14.525774,15.08275 0,0.60327 0.618327,1.29015 1.37406,1.5264 3.43065,1.07246 8.834473,3.78572 10.893435,5.46959 1.242056,1.01579 2.656984,1.85958 3.144296,1.87511 0.487304,0.0155 1.426989,-2.18007 2.088186,-4.87912 z m 230.379522,-2.50827 c 2.57826,-3.33844 4.16134,-4.57597 7.26289,-5.67754 2.1813,-0.77473 3.96601,-1.79408 3.96601,-2.26521 0,-1.25976 -3.01217,-3.78702 -7.35465,-6.17068 -2.10174,-1.15367 -4.39839,-2.67504 -5.10365,-3.38082 -2.12675,-2.12828 -8.13943,-5.69152 -8.85634,-5.24844 -1.18141,0.73015 -0.71767,8.43871 0.82339,13.6866 2.52604,8.60217 4.35901,13.31536 5.18029,13.3203 0.43185,0.002 2.26877,-1.91629 4.08206,-4.26421 z"
     id="path817"
     inkscape:connector-curvature="0" />
</svg>
