<?xml version="1.0" encoding="UTF-8" standalone="no"?>
<!-- Created with Inkscape (http://www.inkscape.org/) -->

<svg
   xmlns:dc="http://purl.org/dc/elements/1.1/"
   xmlns:cc="http://creativecommons.org/ns#"
   xmlns:rdf="http://www.w3.org/1999/02/22-rdf-syntax-ns#"
   xmlns:svg="http://www.w3.org/2000/svg"
   xmlns="http://www.w3.org/2000/svg"
   xmlns:sodipodi="http://sodipodi.sourceforge.net/DTD/sodipodi-0.dtd"
   xmlns:inkscape="http://www.inkscape.org/namespaces/inkscape"
   version="1.1"
   id="svg2"
   width="99.33876mm"
   height="135mm"
   viewBox="0 0 375.45358 510.23624"
   sodipodi:docname="calavera-simeon-flou.svg"
   inkscape:version="0.92.3 (2405546, 2018-03-11)">
  <metadata
     id="metadata8">
    <rdf:RDF>
      <cc:Work
         rdf:about="">
        <dc:format>image/svg+xml</dc:format>
        <dc:type
           rdf:resource="http://purl.org/dc/dcmitype/StillImage" />
        <dc:title />
      </cc:Work>
    </rdf:RDF>
  </metadata>
  <defs
     id="defs6" />
  <sodipodi:namedview
     pagecolor="#ffffff"
     bordercolor="#666666"
     borderopacity="1"
     objecttolerance="10"
     gridtolerance="10"
     guidetolerance="10"
     inkscape:pageopacity="0"
     inkscape:pageshadow="2"
     inkscape:window-width="1366"
     inkscape:window-height="665"
     id="namedview4"
     showgrid="false"
     fit-margin-top="0"
     fit-margin-left="0"
     fit-margin-right="0"
     fit-margin-bottom="0"
     units="mm"
     inkscape:document-units="mm"
     inkscape:zoom="1.1446499"
     inkscape:cx="303.64364"
     inkscape:cy="335.23285"
     inkscape:window-x="0"
     inkscape:window-y="33"
     inkscape:window-maximized="1"
     inkscape:current-layer="svg2" />
  <path
     style="fill:none;fill-opacity:1;stroke-width:0.37795277;stroke-miterlimit:4;stroke-dasharray:none;stroke:#ff0000;stroke-opacity:1"
     d="m 152.47832,509.74861 c -8.5859,-1.14225 -22.49813,-5.44146 -26.09851,-8.06506 -1.23036,-0.89657 -3.0759,-1.83745 -4.1012,-2.09085 -1.0253,-0.2534 -4.00784,-2.06825 -6.62789,-4.033 -2.62004,-1.96475 -5.31141,-3.90782 -5.98084,-4.31794 -4.74357,-2.90612 -14.153565,-10.28079 -22.437835,-17.58466 -3.0759,-2.71187 -6.6033,-5.51045 -7.83867,-6.21905 -1.23537,-0.7086 -2.91313,-2.22854 -3.72836,-3.37765 -2.53507,-3.57332 -7.23567,-9.48861 -12.58698,-15.8396 -4.66042,-5.53102 -7.63134,-9.78058 -14.24809,-20.38025 -1.23036,-1.97097 -3.14895,-4.95406 -4.26353,-6.6291 -10.09206,-15.16681 -12.83502,-31.93054 -13.73645,-83.95092 -0.16701,-9.63781 -0.66823,-20.37548 -1.11382,-23.8615 -0.44559,-3.48601 -1.04659,-8.13531 -1.33555,-10.33176 -0.49144,-3.73546 -2.59216,-6.7419 -4.7529,-6.80211 -0.32729,-0.009 -2.48558,-1.22593 -4.7962,-2.704 C 5.822325,285.23928 -0.02571502,273.56917 8.497847e-5,255.9823 0.01908498,242.75203 2.008445,238.34476 15.388475,221.88318 c 3.15303,-3.8792 6.22445,-11.79796 6.22445,-16.04794 0,-1.03974 0.54221,-4.51235 1.20493,-7.71689 1.38046,-6.67521 1.46763,-6.17807 -6.39365,-36.46353 -2.67334,-10.29902 -1.86348,-22.00065 2.26329,-32.7017 1.88385,-4.88499 2.1872,-6.51886 1.80129,-9.70209 -0.31814,-2.62425 -0.0971,-4.85383 0.70288,-7.09072 0.6418,-1.79457 1.16946,-4.81454 1.17256,-6.71105 0.0168,-10.287148 4.42356,-22.087598 11.17314,-29.919538 1.94393,-2.25565 4.33447,-5.66914 5.3123,-7.58551 2.56424,-5.02543 12.8272,-15.98757 16.96088,-18.116352 1.90234,-0.979678 5.86086,-4.070231 8.79672,-6.867897 2.93585,-2.797665 6.7361,-5.925545 8.445,-6.950844 3.73589,-2.241448 11.06206,-8.025736 15.67112,-12.372939 6.14074,-5.791866 16.864295,-10.420042 36.386255,-15.7039251 2.17224,-0.587947 7.53615,-2.269146 11.91979,-3.73601 10.37931,-3.47312996 16.55106,-3.95522196 53.47815,-4.17730496 34.93305,-0.210101 45.33398,1.20642996 76.43136,10.40935506 19.15563,5.668887 22.80593,6.871276 28.21863,9.29503 2.60147,1.164917 5.75518,2.11803 7.00824,2.11803 3.02096,0 13.35487,5.691598 20.14019,11.092597 6.05817,4.822198 21.43714,19.88287 21.43714,20.99346 0,0.39556 1.10076,1.97849 2.44614,3.51762 1.34537,1.53913 3.30495,4.14063 4.35461,5.78111 3.16225,4.94216 4.25078,6.51317 7.75003,11.18508 5.20605,6.95069 8.33874,13.61198 9.68117,20.58582 0.66258,3.4421 1.54417,7.936118 1.95909,9.986718 1.12103,5.54034 2.965,23.4254 3.41096,33.08375 0.594,12.86426 -1.14829,18.89547 -9.39372,32.51792 -8.82015,14.57196 -11.11164,30.24775 -7.20894,49.31566 2.05096,10.02067 3.30305,13.46283 5.67101,15.59037 11.46471,10.30068 16.2368,29.14896 10.79231,42.62622 -1.47306,3.64642 -2.0225,6.24412 -1.94535,9.19761 0.0956,3.6618 -0.2243,4.608 -2.89973,8.57523 -1.65399,2.45258 -3.84316,5.71124 -4.86482,7.24143 -1.10464,1.6545 -2.68852,2.97463 -3.9077,3.257 -1.12757,0.26115 -6.41231,2.07396 -11.74387,4.02848 -5.33155,1.95451 -10.75164,3.77999 -12.04464,4.05662 -3.61793,0.77403 -5.17855,6.6507 -7.33834,27.63335 -1.65669,16.0949 -3.19772,24.05371 -5.91874,30.56807 -2.29899,5.50397 -4.21455,13.8754 -5.29041,23.1203 -1.27407,10.94804 -5.16483,20.76766 -13.47509,34.00883 -2.21574,3.53043 -4.02861,6.64862 -4.02861,6.9293 0,1.71549 -15.38133,19.57049 -23.5919,27.38602 -3.83712,3.6525 -6.26086,5.34775 -19.5868,13.69975 -7.6805,4.81373 -10.30194,6.68539 -22.31323,15.93129 -4.33505,3.33698 -12.56221,7.55737 -14.73222,7.55737 -1.5391,0 -16.32279,4.97952 -19.19812,6.46641 -3.51575,1.81807 -38.24885,3.25091 -47.84791,1.97387 z m 42.3301,-4.31667 c 1.73573,-0.55924 5.50475,-1.91592 8.37558,-3.01484 2.87084,-1.09891 7.23302,-2.52212 9.69374,-3.16269 10.06236,-2.6194 15.53792,-5.57137 24.60717,-13.26613 3.25388,-2.76075 17.64595,-12.40529 23.7334,-15.90444 9.25947,-5.32248 35.54751,-31.88731 35.54751,-35.9218 0,-0.39791 1.81869,-3.54268 4.04154,-6.98838 7.7517,-12.01611 12.30698,-23.30364 13.41542,-33.24207 1.03591,-9.28808 2.97949,-17.8813 5.37942,-23.78429 2.77023,-6.8138 4.24188,-14.35235 5.83776,-29.90408 2.37423,-23.13659 4.10972,-29.0812 8.49005,-29.0812 0.70884,0 5.63952,-1.67381 10.95708,-3.71956 5.31756,-2.04576 10.39181,-3.72352 11.2761,-3.72836 1.57126,-0.009 3.76736,-2.57687 9.56202,-11.18245 1.91453,-2.84324 2.2146,-3.9164 2.00352,-7.16529 -0.19346,-2.97786 0.25757,-5.00986 2.04367,-9.20711 2.5931,-6.09371 2.69857,-7.04394 1.70147,-15.33008 -1.0093,-8.38757 -5.14458,-15.98375 -12.33789,-22.66368 -8.70633,-8.08496 -9.61923,-48.95348 -1.43424,-64.20709 14.37245,-26.78457 13.88291,-24.66472 11.45114,-49.58717 -0.85477,-8.7603 -2.04152,-16.30398 -4.23497,-26.920018 -1.38504,-6.70341 -4.95029,-14.15725 -9.88957,-20.67608 -2.12234,-2.80104 -5.06318,-6.97555 -6.53521,-9.2767 -12.04218,-18.824961 -38.85765,-42.449747 -47.68677,-42.012681 -1.26694,0.06272 -4.94414,-1.092293 -8.19705,-2.574691 -6.95697,-3.170396 -9.6672,-4.09336 -27.90738,-9.503844 C 244.2148,7.3302289 224.13469,3.4893409 209.14938,2.7812139 c -19.10461,-0.902778 -58.7933,0.845532 -65.61912,2.890567 -3.28096,0.982982 -12.94891,3.836444 -21.48433,6.3410211 -17.48247,5.129954 -25.832655,9.003422 -30.281465,14.046916 -3.76918,4.273011 -10.43056,9.589733 -13.75591,10.979153 -2.9378,1.227488 -11.65533,7.743643 -11.65533,8.712088 0,0.50074 -9.13111,7.952783 -15.01685,12.255483 -3.15423,2.30586 -8.77818,9.69067 -9.98509,13.11143 -0.59749,1.69348 -2.69469,4.9728 -4.66044,7.28739 -7.02896,8.27631 -11.30612,19.34072 -11.33662,29.326228 -0.007,2.33149 -0.38533,5.18368 -0.84047,6.33821 -0.45513,1.15453 -0.7736,4.34235 -0.70769,7.08406 0.0973,4.04944 -0.30101,5.97384 -2.12267,10.25468 -4.1426,9.73495 -4.68467,19.91598 -1.61041,30.24638 0.73228,2.46072 2.10152,7.82955 3.04272,11.93075 0.94121,4.10119 2.16255,9.11149 2.7141,11.13399 1.18726,4.35364 1.26302,9.9487 0.19733,14.57364 -0.42297,1.83562 -1.05111,5.52669 -1.39588,8.20239 -0.97984,7.60433 -3.21638,12.4042 -9.38964,20.15118 -9.41985,11.82123 -12.27049,18.43605 -12.27049,28.4733 0,15.65882 7.63728,28.42267 21.53974,35.99842 6.07386,3.30978 6.85476,4.3203 7.14968,9.25205 0.11358,1.89929 0.56336,5.96991 0.99952,9.0458 0.43616,3.0759 0.96129,13.81357 1.16696,23.8615 0.34428,16.81925 1.62018,46.52215 2.22614,51.82419 1.33052,11.64198 10.21373,33.80175 14.64898,36.54288 0.42406,0.26209 1.81607,2.54927 3.09335,5.08265 2.44239,4.84425 8.21189,12.88413 13.57438,18.91612 1.75346,1.97237 4.23523,5.09611 5.51505,6.94165 5.05912,7.29541 26.55294,26.29185 38.208605,33.76913 2.25566,1.44704 5.92345,4.0042 8.15065,5.68257 2.2272,1.67838 4.42648,3.0516 4.8873,3.0516 0.46081,0 2.3997,0.9905 4.30865,2.20112 3.43256,2.17686 16.83957,7.11024 17.50755,6.44225 0.19018,-0.19018 1.23404,0.0178 2.3197,0.46222 4.07013,1.66604 8.40445,1.93626 25.66223,1.59992 12.05684,-0.23498 18.73187,-0.67048 20.87881,-1.3622 z m -43.02985,-3.54607 c -3.48604,-1.95088 -0.0538,-11.63773 6.00991,-16.96172 6.40926,-5.62741 22.12132,-0.7763 26.802,8.27514 1.28151,2.47816 1.41495,7.80797 0.21408,8.55016 -1.25648,0.77655 -31.65775,0.90212 -33.02599,0.13642 z m 30.45105,-3.60129 c 2.6602,-2.49323 -10.66318,-12.63536 -16.59866,-12.63536 -3.69043,0 -13.51457,10.75904 -11.57795,12.67976 1.44397,1.43214 26.64357,1.39243 28.17661,-0.0444 z m 10.34757,3.14342 c -1.93898,-1.21638 -3.21674,-10.7382 -1.57698,-11.75162 1.19706,-0.73982 9.45491,-0.37169 10.95603,0.48842 0.67527,0.38691 2.17181,1.03896 3.32564,1.44899 3.81868,1.35703 2.60311,5.07873 -2.47071,7.56461 -4.25839,2.08636 -8.87612,3.10141 -10.23398,2.2496 z m 8.61042,-5.5269 2.47764,-1.06557 -4.17026,-1.31171 c -3.98931,-1.25479 -6.91871,-1.15106 -6.07437,0.21509 0.21874,0.35392 0.73332,1.52623 1.14351,2.60512 0.80178,2.10884 0.66961,2.11767 6.62348,-0.44293 z m -61.87165,3.17864 c -17.72716,-2.27865 -20.63598,-16.40216 -3.37982,-16.41042 9.2313,-0.004 10.17639,0.86306 10.19255,9.35539 0.0102,5.39078 -0.74292,8.03908 -2.18831,7.6945 -0.22557,-0.0538 -2.30656,-0.34153 -4.62442,-0.63947 z m 3.70998,-5.89056 c 0.66161,-6.9259 -6.23118,-10.13866 -12.57701,-5.8622 -3.21724,2.1681 -3.17843,2.60876 0.40491,4.59711 8.59871,4.77131 11.80533,5.10459 12.1721,1.26509 z m 74.8372,-4.55863 c -1.76934,-0.80297 -6.10685,-1.81905 -9.63891,-2.25796 -7.7085,-0.95789 -7.65008,-0.92729 -7.65008,-4.00733 0,-3.30206 1.85557,-4.78883 7.1607,-5.73752 29.7189,-5.31449 42.56021,-18.40107 30.45407,-31.03575 l -3.20713,-3.34715 -2.84964,1.67989 c -3.98072,2.34667 -9.66508,8.73596 -8.66334,9.7377 0.53973,0.53973 1.6325,-0.26563 3.57191,-2.63242 3.50842,-4.28156 8.28922,-4.93942 10.57242,-1.45481 2.1917,3.34495 2.27567,10.42088 0.15069,12.69781 -5.59018,5.98992 -32.70053,12.67092 -34.88133,8.59606 -0.42049,-0.7857 -0.57046,-1.62261 -0.33327,-1.85981 0.81106,-0.81106 -2.73035,-10.84688 -4.62013,-13.09276 -1.81368,-2.15544 -7.79881,-4.56818 -11.33196,-4.56818 -3.7289,0 -10.62926,4.55454 -13.6584,9.01514 -4.35198,6.40857 -5.60377,6.20608 -12.68494,-2.05202 -11.84781,-13.81697 -21.77194,-11.67504 -23.0164,4.96763 l -0.41819,5.59253 -3.30769,0.23607 c -4.6468,0.33163 -27.51088,-8.67763 -30.23325,-11.91298 -3.290275,-3.91028 -4.276575,-13.66224 -1.70367,-16.84503 1.78644,-2.20991 6.91748,-1.09497 11.77899,2.5595 4.42934,3.32959 4.69271,3.42613 5.67647,2.08075 1.52127,-2.08045 1.11998,-2.53154 -5.36767,-6.03387 -10.34575,-5.5851 -15.990945,-2.44013 -15.990945,8.90866 0,9.84274 4.911245,15.14574 18.268955,19.72626 11.36185,3.8961 14.5406,5.89608 14.5406,9.14853 0,2.60874 -4.41708,6.66271 -7.29625,6.69643 -1.11356,0.0131 -2.676,0.51637 -3.47209,1.1185 -3.80954,2.8814 -7.91142,1.25407 -18.54463,-7.35717 -13.159175,-10.65686 -16.173005,-13.73679 -16.173005,-16.52771 0,-1.82024 -0.81744,-3.37882 -3.18438,-6.07147 -8.70108,-9.89845 -9.82355,-14.38521 -4.86325,-19.43938 1.72614,-1.75881 3.38228,-3.19784 3.68031,-3.19784 0.29803,0 1.39216,-0.32328 2.43139,-0.7184 l 1.88951,-0.71838 -4.90849,-6.55192 c -7.59952,-10.1439 -7.67016,-10.20694 -9.53318,-8.50748 -5.69034,5.19071 -10.94921,5.17274 -15.82574,-0.0541 -4.87803,-5.22843 -7.21222,-7.47105 -9.16199,-8.80252 -1.06988,-0.73061 -2.14788,-2.9287 -3.10842,-6.33821 -2.60146,-9.23413 -3.03613,-12.44852 -3.37793,-24.98001 -0.18457,-6.76697 -0.6544,-13.47802 -1.04405,-14.91343 -0.38966,-1.43542 -0.74811,-8.98535 -0.79657,-16.77762 -0.0485,-7.79227 -0.39052,-19.03327 -0.76015,-24.98001 -0.36962,-5.94673 -0.75127,-12.49 -0.84814,-14.5406 l -0.1761,-3.72836 4.23809,-0.22215 c 3.52005,-0.18451 5.00817,0.16659 8.78332,2.07228 7.17904,3.62396 7.5828,4.24665 7.40608,11.42162 -0.18784,7.62621 1.87317,19.25597 5.11432,28.85871 0.6229,1.84554 1.3861,5.20106 1.69598,7.45672 0.30988,2.25566 1.43475,8.63115 2.4997,14.16776 1.06496,5.53662 1.94017,12.11655 1.94492,14.62208 0.0116,6.07431 8.29676,16.312 14.45117,17.85666 2.12296,0.53283 4.19888,2.89766 4.19986,4.78436 0.002,4.52808 7.31129,14.6217 10.02911,13.85013 0.84052,-0.23863 3.54153,-0.61828 6.002245,-0.84368 l 4.47403,-0.40981 3.35552,4.30127 c 5.20352,6.67012 7.12476,7.50883 12.47559,5.44617 7.73774,-2.98277 10.94658,-2.85122 13.10832,0.5374 1.00513,1.57558 2.68122,3.65439 3.72464,4.61957 l 1.89713,1.75489 3.51902,-2.68698 c 5.18389,-3.95819 7.2421,-3.70809 13.51508,1.64224 2.79167,2.38106 6.313,5.04173 7.82518,5.91259 l 2.74943,1.58338 3.30889,-3.11632 c 1.8199,-1.71398 3.8629,-4.20686 4.54003,-5.53975 2.02195,-3.98014 5.44753,-3.47848 9.11862,1.33538 1.57658,2.06734 3.92284,4.38206 5.21391,5.14381 l 2.34741,1.385 3.9753,-4.0253 c 4.92029,-4.98219 7.65498,-5.36396 12.11117,-1.69079 5.46336,4.50337 13.54128,3.35501 15.93501,-2.26531 2.02654,-4.7582 2.18492,-4.92689 4.39051,-4.67626 1.32699,0.15079 2.99503,1.27325 4.49327,3.02361 5.27347,6.16085 14.69383,3.95823 17.14644,-4.0091 1.38795,-4.50876 4.55767,-5.1792 8.9115,-1.88492 6.38793,4.83335 14.00938,-0.40791 16.71346,-11.49382 1.10885,-4.54593 2.00963,-6.48104 3.98086,-8.55191 6.44404,-6.76978 9.38711,-15.59661 12.82636,-38.46877 1.11005,-7.38215 2.80113,-16.77761 3.75796,-20.87881 0.95684,-4.10119 1.96944,-9.23091 2.25023,-11.39939 0.51669,-3.99027 4.7161,-10.58531 7.39475,-11.6132 0.61524,-0.2361 1.11863,-1.05889 1.11863,-1.82844 0,-3.4923 12.60306,-5.55927 17.06868,-2.79936 1.24745,0.77097 0.9963,7.58459 -0.58297,15.81549 -0.77573,4.04298 -1.81428,11.3775 -2.30788,16.29893 -1.175,11.71531 -2.53923,17.96897 -5.64282,25.86667 -2.49672,6.35341 -4.30019,14.42219 -5.55805,24.86694 -0.97362,8.08453 -1.11934,8.53905 -6.56544,20.47805 -2.07656,4.55227 -13.35344,21.38491 -14.6634,21.88759 -4.94257,1.89664 -13.81201,-3.70484 -13.81201,-8.72296 0,-2.16849 -1.50976,-2.07208 -3.43804,0.21956 -1.06265,1.26288 -4.75044,4.34381 -8.19508,6.84652 -7.77399,5.64818 -7.73603,6.24486 1.10216,17.322 2.15058,2.69539 2.40896,3.93877 1.66625,8.01828 -0.0844,0.4636 -2.34519,2.01918 -9.77708,6.7273 -5.88822,3.7302 -12.03634,6.05318 -14.43038,5.45231 -1.09516,-0.27487 -1.9744,-0.18083 -1.9744,0.21117 0,0.75723 -6.63513,7.72765 -11.7253,12.3178 -3.61824,3.26281 -6.26034,3.5689 -11.25199,1.30357 z m 8.80953,-5.9019 c 0,-0.48695 0.98772,-1.22969 2.19494,-1.65053 1.20722,-0.42084 3.40395,-2.2406 4.88164,-4.04391 4.15031,-5.06491 4.79218,-5.55275 7.30593,-5.55275 2.98143,0 8.25178,-1.95018 12.08883,-4.47322 1.64048,-1.07868 4.55922,-2.86634 6.4861,-3.97257 4.44398,-2.55131 4.82742,-3.22246 2.98108,-5.21793 -3.73018,-4.03144 -8.34867,-11.96253 -8.34867,-14.33673 0,-3.74913 0.59719,-4.65136 5.12676,-7.74553 2.30678,-1.57577 6.1407,-4.57758 8.51983,-6.67071 6.5401,-5.75387 10.12389,-5.83366 11.69423,-0.26034 0.84292,2.99157 5.386,7.10008 7.43486,6.72366 4.78022,-0.87823 19.5444,-29.82806 20.87806,-40.93804 1.2857,-10.71037 3.11127,-18.954 5.58968,-25.24103 2.97006,-7.53423 4.51301,-14.57089 5.64631,-25.75028 0.45733,-4.51132 1.5218,-11.96103 2.36549,-16.55492 1.87586,-10.21404 1.83603,-10.33594 -3.59852,-11.01495 -4.45842,-0.55704 -6.98564,0.79913 -6.98564,3.7487 0,0.54649 -0.74638,1.5164 -1.65863,2.15536 -3.53796,2.47809 -6.332,6.97329 -6.84974,11.02021 -0.27684,2.16401 -1.30935,7.45785 -2.29445,11.76411 -0.98511,4.30625 -2.66156,13.53394 -3.72544,20.50597 -3.60778,23.64323 -6.31075,31.80406 -12.72552,38.42087 -1.9476,2.00895 -2.89832,3.997 -4.03292,8.43323 -1.83514,7.17533 -3.36802,9.3879 -8.2637,11.92787 -5.13753,2.66544 -10.41719,2.73026 -13.77504,0.16911 -2.24774,-1.71444 -4.09129,-1.51546 -4.09129,0.44159 0,1.47978 -4.86296,7.50778 -6.91124,8.56699 -5.34909,2.76613 -13.73316,0.20668 -16.38985,-5.00339 l -1.30376,-2.55685 -0.001,2.43439 c -7.5e-4,1.73116 -0.73851,3.23896 -2.55371,5.2197 l -2.55256,2.78531 h -7.4726 -7.4726 l -2.70576,-2.60985 -2.70578,-2.60985 -3.48744,3.96161 c -5.79155,6.57899 -12.18118,5.78095 -17.66683,-2.20653 l -2.37944,-3.46463 -1.25032,2.83393 c -4.843,10.97692 -15.08684,10.17851 -27.00811,-2.10503 l -1.67541,-1.72633 -2.98478,2.69656 c -5.52664,4.993 -10.05401,3.93592 -14.70624,-3.43369 l -1.7815,-2.82207 -3.55532,1.61471 c -2.57935,1.17147 -5.05258,1.62214 -9.00959,1.64175 l -5.45427,0.027 -3.12095,-3.3815 c -1.71653,-1.85982 -3.83322,-4.37646 -4.70375,-5.59254 l -1.58279,-2.21104 -3.736985,1.30493 c -7.89371,2.75641 -12.60208,-1.21574 -16.33301,-13.77915 -0.59381,-1.99957 -1.48089,-3.7578 -1.97129,-3.90721 -0.49041,-0.14939 -1.74378,-0.45609 -2.78529,-0.68155 -2.31294,-0.5007 -12.03562,-9.79159 -13.78325,-13.17112 -0.9023,-1.74486 -1.14461,-3.43337 -0.84209,-5.86813 0.53209,-4.28251 -3.31097,-26.25902 -6.7264,-38.46495 -2.36385,-8.44784 -4.19738,-19.03366 -4.35898,-25.16643 -0.0946,-3.58854 -0.21385,-6.8441 -0.26512,-7.23458 -0.0513,-0.39047 -2.15554,-1.91865 -4.67617,-3.39594 -7.15581,-4.19391 -10.60886,-4.2866 -8.85117,-0.2376 0.41392,0.95351 1.09102,12.97465 1.50465,26.71365 1.60677,53.36895 3.87936,71.5845 8.93092,71.5845 0.78266,0 2.5325,1.35751 3.88854,3.01669 7.81614,9.56341 8.89798,9.98576 14.18437,5.53756 5.01005,-4.21568 7.85827,-2.62607 16.63752,9.28556 5.22262,7.08602 5.42223,12.73273 0.45009,12.73273 -0.70771,0 -2.54094,1.2844 -4.07383,2.85422 -3.55059,3.63614 -3.27527,4.44283 4.89549,14.34422 1.89916,2.30141 2.80863,4.14503 2.80863,5.69346 0,2.51571 4.1176,6.78765 14.949825,15.5102 3.05588,2.46071 5.8917,4.83921 6.30182,5.28554 2.41647,2.62982 6.30619,3.98343 8.38062,2.91644 1.13233,-0.58242 2.89766,-1.23904 3.92296,-1.45915 1.0253,-0.2201 2.70306,-1.06982 3.72836,-1.88826 2.32671,-1.85729 2.08793,-2.03957 -7.45672,-5.69245 -20.408735,-7.81081 -23.171505,-10.79323 -23.054605,-24.88776 0.12042,-14.51857 7.875495,-18.87662 21.298945,-11.9692 6.54559,3.36822 6.9487,3.82025 6.96428,7.80929 0.0221,5.67587 -5.30241,7.60162 -10.50414,3.79907 -7.72582,-5.6477 -8.26884,-5.74686 -8.93769,-1.63199 -0.49333,3.03501 1.13849,7.49355 3.50241,9.56946 1.27331,1.11818 15.56437,7.33677 16.86082,7.3368 0.29544,0 2.42427,0.86319 4.73073,1.91818 4.90941,2.24561 5.07594,2.15714 5.34905,-2.84147 1.01259,-18.53296 15.78934,-21.91184 28.99313,-6.62962 l 5.13025,5.93781 1.23438,-2.37575 c 4.38859,-8.44646 15.08556,-12.22541 25.691,-9.07593 5.9657,1.77162 8.89514,6.22488 10.57747,16.07961 l 0.55883,3.27354 3.69931,-0.22749 c 6.27688,-0.386 21.5458,-5.65147 24.79022,-8.54888 2.08853,-1.86516 2.12005,-3.85923 0.11302,-7.15145 l -1.55917,-2.55757 -3.20406,3.48966 c -7.82435,8.52178 -13.85,1.84927 -6.70004,-7.41928 9.24599,-11.98566 21.21729,-7.82738 22.47287,7.80605 0.95217,11.85578 -12.11815,21.8586 -32.39952,24.79559 -4.46959,0.64725 -10.42069,2.60882 -9.78297,3.22461 0.1655,0.15981 3.43197,0.6689 7.25881,1.13131 3.82685,0.46242 8.1798,1.4178 9.67322,2.12309 2.82552,1.33438 6.11187,-0.14792 6.11187,-2.75675 z m -47.00247,0.34266 c -2.24183,-1.41786 -4.45365,-2.90199 -4.91516,-3.29807 -1.93776,-1.66304 -2.0538,-14.69631 -0.16093,-18.07588 3.10143,-5.53739 12.18473,-7.80679 18.73825,-4.68164 6.07259,2.89582 6.90053,12.10066 1.80415,20.05827 -6.27348,9.79559 -8.24931,10.56174 -15.46631,5.99732 z m 12.3752,-8.94504 c 1.81998,-2.8516 3.28352,-5.7038 3.25232,-6.33821 -0.34947,-7.10571 -7.87873,-11.1862 -13.88411,-7.52449 -4.15517,2.53357 -4.94748,4.47806 -4.78682,11.74774 0.0922,4.17288 0.0799,4.15551 5.6784,7.99728 l 3.72836,2.55843 1.3514,-1.628 c 0.74328,-0.89541 2.84048,-3.96114 4.66045,-6.81275 z m -41.24269,3.79501 c -1.53913,-1.37952 -3.86859,-3.05537 -5.17659,-3.7241 -3.99351,-2.04173 -4.70571,-3.75822 -4.70571,-11.3413 0,-8.20433 0.73712,-9.27055 6.4091,-9.27055 7.87037,0 22.76235,19.33627 18.07008,23.46285 -4.33933,3.8162 -10.87701,4.20724 -14.59688,0.8731 z m 11.7217,-4.26139 c 0.0524,-1.1038 -5.23657,-8.19008 -8.92758,-11.96138 -6.75904,-6.90606 -9.69374,-6.65611 -9.69374,0.82563 0,4.73628 1.63467,7.71164 4.65299,8.46919 0.93164,0.23382 2.99671,1.75935 4.58905,3.39005 l 2.89515,2.96491 3.23183,-1.6285 c 1.77751,-0.89566 3.24104,-1.82262 3.2523,-2.0599 z m 104.94036,-20.26098 c -3.72977,-5.05785 -4.25419,-6.19762 -4.25419,-9.2461 0,-4.00721 3.9405,-7.71793 8.19582,-7.71793 2.44805,0 10.27804,4.30734 10.54114,5.79877 1.64286,9.31252 -9.5091,17.90996 -14.48277,11.16526 z m 7.88384,-3.72835 c 3.7464,-4.66672 3.74504,-4.61964 0.20644,-7.16087 -4.00291,-2.87468 -4.81959,-2.90467 -7.34403,-0.26972 l -1.98962,2.07671 2.70453,4.2615 c 3.23616,5.09915 3.20968,5.09465 6.42268,1.09238 z M 67.103575,431.84897 c -2.45025,-3.38248 -3.15324,-9.3884 -1.2808,-10.94238 4.56826,-3.79133 11.71553,0.65214 11.71553,7.28355 0,6.99508 -6.3939,9.23704 -10.43473,3.65883 z m 6.72242,-2.15512 c 1.05421,-1.9698 -1.64562,-6.68106 -3.82862,-6.68106 -2.33322,0 -2.4759,2.04824 -0.36491,5.23817 2.21582,3.34834 3.0248,3.62668 4.19353,1.44289 z m 87.227555,-1.51256 c -7.27749,-5.26584 -7.9848,-7.35651 -5.34712,-15.80506 1.77843,-5.69638 1.72756,-5.66481 9.39704,-5.83187 8.76917,-0.19102 9.72954,0.73765 10.51508,10.16801 1.1632,13.96399 -4.71733,18.59449 -14.565,11.46892 z m 11.02117,-4.19243 c 0.94118,-3.1666 0.28457,-9.9609 -1.23264,-12.75482 -1.13724,-2.09421 -9.55079,-2.21547 -10.54548,-0.152 -3.50892,7.27921 -3.18107,9.05423 2.43121,13.16321 6.41991,4.70028 7.88563,4.66007 9.34691,-0.25639 z m 16.38804,5.00727 c -4.1098,-3.23278 -7.42288,-17.8507 -4.72215,-20.83498 2.35302,-2.60006 13.16126,-3.59897 16.02581,-1.48112 3.53486,2.61343 2.8527,14.01065 -1.26166,21.07923 -1.77996,3.05801 -6.92167,3.69131 -10.042,1.23687 z m 6.98434,-3.17377 c 2.54768,-4.76038 4.23611,-14.74032 2.4938,-14.74032 -0.62806,0 -1.33506,-0.50333 -1.57112,-1.11851 -0.75314,-1.96264 -9.3716,-0.75355 -10.21044,1.43243 -0.21748,0.56675 0.11637,2.99032 0.74189,5.38571 2.31562,8.86751 6.35281,13.13845 8.54587,9.04069 z m 15.06592,2.06879 c -3.54898,-1.54378 -3.97349,-3.04319 -3.97349,-14.03467 0,-11.47164 -0.1422,-11.18921 6.96381,-13.83174 9.81806,-3.65107 11.70025,-2.10651 11.632,9.54546 -0.0638,10.8939 -1.34657,17.2605 -3.71968,18.46146 -2.40762,1.21841 -7.94262,1.14708 -10.90264,-0.14051 z m 9.90697,-3.38702 c 1.58601,0 1.90225,-20.05142 0.34582,-21.9268 -0.90114,-1.08582 -9.3531,1.79887 -10.66944,3.64152 -0.70178,0.98238 -0.2585,15.4949 0.51134,16.74052 1.08229,1.75119 4.97361,2.90512 7.42544,2.20194 1.26031,-0.36145 2.33438,-0.65718 2.38684,-0.65718 z m 15.95146,0.18642 c -3.79404,-3.44939 -8.40203,-25.44499 -5.73862,-27.39252 1.7249,-1.26128 16.83699,-2.12547 18.14758,-1.03778 1.1276,0.93582 1.34122,5.68442 0.32772,7.28493 -0.41394,0.6537 -0.13347,2.56156 0.75709,5.15002 2.40078,6.97799 1.00845,15.12322 -2.947,17.24011 -2.97226,1.59071 -8.0927,0.98638 -10.54677,-1.24476 z m 9.92987,-3.33408 c 1.88568,-2.53514 1.90968,-5.53072 0.0956,-11.93691 -1.13095,-3.99382 -1.25346,-5.46178 -0.60026,-7.19231 1.2605,-3.33943 0.53759,-3.72781 -5.7825,-3.10667 -8.10463,0.79653 -8.01129,0.42738 -4.01774,15.88891 2.07328,8.02701 6.86159,10.97622 10.30489,6.34698 z m -107.84672,2.56116 c -4.11059,-4.54215 -6.57072,-18.7125 -3.74012,-21.5431 1.29484,-1.29484 2.06967,-1.39605 7.00007,-0.91438 10.16658,0.99322 11.32374,2.3106 9.7072,11.05124 -0.49933,2.69987 -1.07775,5.82256 -1.28539,6.9393 -0.87843,4.72438 -8.73127,7.7272 -11.68176,4.46694 z m 6.86612,-3.59034 c 0.83922,-1.0669 1.71974,-3.1641 1.95671,-4.66045 0.23697,-1.49634 0.71564,-3.98764 1.06372,-5.53621 0.74246,-3.3031 -1.00755,-4.6745 -7.01597,-5.49804 -4.32499,-0.59281 -5.27312,1.20732 -3.84592,7.30188 2.0498,8.75334 5.04022,11.95402 7.84146,8.39282 z m -32.28467,-1.81978 c -3.02462,-2.65565 -3.60416,-4.75222 -3.72084,-13.46042 -0.12087,-9.02075 0.02,-9.1425 10.09596,-8.72735 10.83506,0.44642 10.62951,0.22116 10.12833,11.09899 -0.43658,9.47572 -1.13452,11.40375 -4.56053,12.59805 -4.44924,1.55102 -9.13135,0.95932 -11.94292,-1.50927 z m 9.84453,-1.83757 c 2.18941,-0.63095 3.04674,-2.92928 3.61929,-9.70256 0.55885,-6.61119 -0.2389,-7.32003 -8.32245,-7.39491 l -5.21971,-0.0483 v 6.58338 6.5834 l 2.82887,2.59099 c 1.6973,1.55458 3.33779,2.44956 4.10119,2.23742 0.69978,-0.19446 2.04655,-0.57669 2.99281,-0.84938 z m 138.09299,1.0156 c -5.70379,-2.2141 -8.20239,-6.90492 -8.20239,-15.39896 0,-8.14169 0.39539,-8.60156 8.50732,-9.89472 7.77955,-1.24017 8.64843,-0.43446 7.7972,7.23018 -0.92288,8.30969 -0.89597,8.46755 1.5916,9.33471 1.23036,0.42892 2.28813,1.16645 2.35059,1.63898 0.34311,2.5954 0.30197,3.21334 -0.29537,4.43678 -1.22112,2.50104 -8.12461,4.05992 -11.74895,2.65303 z m 8.87639,-4.37097 c 0.95385,-0.55767 0.80113,-0.70034 -0.76912,-0.71851 -3.39703,-0.0393 -3.90428,-1.5085 -3.39682,-9.83826 l 0.45879,-7.53066 -3.19571,0.43802 c -6.54023,0.89643 -7.19323,1.4526 -7.19323,6.12655 0,9.36242 7.41865,15.4268 14.09609,11.52286 z M 92.814815,411.71164 c -3.55702,-4.14233 -6.30181,-11.61568 -6.31959,-17.20659 -0.0118,-3.70529 2.65745,-4.57341 6.77523,-2.20351 1.51806,0.87368 4.14759,1.81038 5.84341,2.08155 5.594695,0.89463 6.759965,2.48288 6.759965,9.21375 0,7.53004 -0.90908,8.73494 -7.083875,9.389 -4.07574,0.43172 -4.60766,0.31829 -5.97514,-1.2742 z m 8.455765,-3.18593 c 3.77122,-3.68568 1.42845,-9.48078 -4.397805,-10.87848 -2.01194,-0.48266 -4.55001,-1.57915 -5.64015,-2.43667 l -1.9821,-1.55911 0.52224,2.93634 c 0.56033,3.15049 3.75305,10.27894 5.59225,12.48589 1.22505,1.47001 4.11516,1.20184 5.905565,-0.54797 z m 66.14194,-6.98533 c -8.4297,-0.31306 -8.59599,-0.52964 -8.59599,-11.19534 v -8.57511 l 3.01409,-2.86724 c 4.62272,-4.39749 14.10223,-3.62397 15.32566,1.25057 0.48317,1.92507 -0.24313,15.13743 -1.09414,19.90389 -0.21569,1.20809 -3.03594,1.6917 -8.64962,1.48323 z m 5.10747,-3.73243 c 0.99366,-1.60778 2.00144,-13.35256 1.3033,-15.18882 -1.65356,-4.34919 -7.3663,-4.31946 -10.48088,0.0546 -1.99689,2.80437 -2.24888,12.6827 -0.37142,14.56016 1.24076,1.24076 8.85408,1.6985 9.549,0.5741 z m 8.91309,3.14689 c -0.40526,-1.05609 -0.19761,-4.59825 0.8926,-15.22564 0.79596,-7.75896 13.74048,-9.72477 18.57605,-2.82104 1.73901,2.4828 1.63744,14.04744 -0.14116,16.07182 -2.36336,2.68996 -18.42338,4.33095 -19.32749,1.97486 z m 10.10703,-2.65412 c 6.13507,-1.05788 7.5427,-2.44311 7.5427,-7.42267 0,-5.32798 -2.96663,-8.53342 -7.80383,-8.43205 -4.49171,0.0941 -4.64718,0.30392 -6.00778,8.10616 -1.62997,9.34693 -1.79779,9.1395 6.26891,7.74856 z m -45.585,-0.73486 c -9.06342,-1.26366 -10.25441,-2.70084 -10.25441,-12.37409 0,-8.9507 0.37099,-9.92821 4.73968,-12.48843 9.30077,-5.45062 14.48063,0.32118 13.4171,14.95038 -0.75619,10.4017 -1.11982,10.85781 -7.90237,9.91214 z m 3.78654,-4.19353 c 1.05959,-2.05962 1.57699,-12.36678 0.70336,-14.01149 -0.42689,-0.80366 -1.62167,-2.37224 -2.65508,-3.48575 l -1.87893,-2.02455 -3.05455,1.81969 c -3.41767,2.03601 -3.99157,3.35456 -4.09873,9.41711 -0.0886,5.01167 1.15467,6.91923 5.51821,8.46669 3.93428,1.39523 4.66699,1.37087 5.46572,-0.1817 z m 56.94701,3.39281 c -0.95426,-0.95426 -1.27097,-14.18839 -0.43909,-18.34781 1.79703,-8.98517 15.41172,-5.65544 15.20708,3.71918 -0.0387,1.77092 0.23369,4.63775 0.60523,6.37074 0.8877,4.1406 -0.18278,5.62442 -5.4902,7.61019 -4.62515,1.73049 -8.54344,1.98728 -9.88302,0.6477 z m 11.5546,-5.93726 c 0.70516,-0.58524 0.73717,-1.16275 0.12758,-2.30179 -0.44757,-0.83629 -0.64437,-2.78351 -0.43732,-4.32715 0.60183,-4.48696 -5.91197,-9.94888 -7.75591,-6.50345 -1.27713,2.38634 -1.81742,14.46311 -0.70692,15.80118 0.91134,1.0981 6.15637,-0.49754 8.77257,-2.66879 z m -97.24638,1.61236 c -5.38684,-0.26357 -7.94459,-0.70062 -8.72771,-1.49134 -1.47305,-1.48735 -3.30727,-17.46003 -2.20558,-19.20657 1.59345,-2.52613 14.93017,-6.25909 17.20166,-4.81476 3.18768,2.02692 6.15816,19.9167 3.98214,23.98262 -0.99852,1.86574 -1.58887,1.95386 -10.25051,1.53005 z m 7.22087,-4.42501 c 2.06916,-3.86626 -1.86462,-18.69081 -4.95971,-18.69081 -1.60969,0 -8.72574,3.39884 -9.78286,4.6726 -1.69252,2.03935 0.51634,13.32128 2.83806,14.49563 3.10978,1.57296 10.97601,1.2575 11.90451,-0.47742 z m 99.98251,3.35018 c -1.81583,-2.18794 -0.19568,-13.01428 2.4778,-16.55749 4.56621,-6.05168 12.36695,-8.48148 15.63519,-4.87011 2.96277,3.27382 4.89763,18.5148 2.54315,20.0326 -3.01863,1.94593 -19.28708,3.04462 -20.65614,1.395 z m 11.04961,-2.95193 c 8.16184,-1.32686 8.98898,-2.77344 6.16726,-10.78599 -2.09736,-5.95567 -3.21063,-6.79084 -6.58773,-4.94211 -5.58566,3.05778 -10.09733,12.58767 -7.49905,15.84009 0.8955,1.12095 0.28203,1.12962 7.91952,-0.11199 z m -143.643945,1.38888 c -3.67406,-2.59587 -9.11956,-10.85187 -9.11956,-13.82632 0,-10.38531 12.73869,-22.20619 17.952565,-16.6591 1.92391,2.04687 2.99464,21.6138 1.56206,28.54579 -0.66519,3.21877 -6.930125,4.38775 -10.395065,1.93963 z m 7.440955,-13.31257 c 0.52549,-11.02167 0.0595,-14.22503 -2.27965,-15.6707 -0.950215,-0.58727 -6.672055,4.55988 -8.087525,7.27524 -3.48607,6.68747 -3.39529,7.79216 1.09717,13.3524 7.820855,9.67972 8.591825,9.26747 9.270005,-4.95694 z m 150.05105,11.99806 c -0.94679,-2.4673 0.0509,-20.87045 1.16459,-21.48153 11.44879,-6.282 17.90457,-4.19361 17.88727,5.78637 -0.0107,6.2153 -1.69153,12.93538 -3.50242,14.00353 -3.85625,2.27457 -14.86611,3.47234 -15.54944,1.69163 z m 10.44758,-3.82716 c 2.75828,-0.78615 3.02918,-1.12127 4.27748,-5.29151 3.07155,-10.26122 -0.29136,-14.52425 -8.34077,-10.57328 l -3.35552,1.64702 -0.21612,7.02795 c -0.30727,9.99141 -0.74577,9.57846 7.63493,7.18982 z m -67.07255,-7.87955 c -3.7139,-1.71923 -5.43664,-1.79195 -8.83305,-0.37284 -2.96608,1.23931 -6.8881,1.47897 -7.51822,0.45942 -2.1725,-3.51518 -11.3163,-4.63908 -15.71262,-1.93131 -5.21958,3.21482 -6.83472,2.60525 -11.77772,-4.44504 -2.99675,-4.2743 -5.10402,-4.49789 -10.50072,-1.11417 -7.01012,4.39533 -9.63702,3.97051 -11.37604,-1.83973 -1.27438,-4.25785 -3.67156,-4.2665 -15.37596,-0.0555 -4.10833,1.47808 -5.7717,0.74858 -5.78343,-2.53647 -0.008,-2.11395 -3.56438,-8.85709 -5.53417,-10.49188 -2.6483,-2.19789 -12.758385,5.8551 -16.747905,13.34021 -4.10518,7.70212 -7.4723,6.43772 -9.04017,-3.3947 -0.7734,-4.85008 -4.19738,-16.51656 -6.34872,-21.6319 -2.14501,-5.10027 -3.59007,-12.8652 -3.64728,-19.59842 l -0.0596,-7.00784 2.98269,-0.842 c 2.44888,-0.6913 3.33257,-1.48717 4.93769,-4.44698 2.2892,-4.22124 3.17724,-4.90287 6.40757,-4.91826 2.32534,-0.0111 4.01871,1.59191 3.53264,3.34411 -0.11377,0.41012 -0.40388,1.64258 -0.64469,2.7388 -0.24082,1.09622 -1.30665,3.02564 -2.36853,4.28761 -2.21625,2.63387 -1.23325,3.02412 1.85892,0.73798 3.10701,-2.29712 5.53184,-1.67945 6.11044,1.5565 1.06192,5.93903 2.49317,7.75234 6.63731,8.409 5.157635,0.81725 15.217835,7.39321 15.737815,10.2872 1.54058,8.57411 6.50463,13.84526 16.17041,17.17077 8.61654,2.96453 28.59476,0.78335 38.16783,-4.16708 3.67358,-1.89968 6.31111,-1.34558 15.04315,3.16027 10.82973,5.5883 15.85322,5.86689 25.8492,1.43355 11.5087,-5.10425 17.3653,-10.20317 20.27491,-17.65191 2.36969,-6.06655 6.15978,-8.20239 14.55529,-8.20239 5.14736,0 6.36347,-1.37555 6.70668,-7.58589 0.71915,-13.01326 1.06231,-13.47022 9.86581,-13.1377 l 5.76146,0.21761 2.61807,4.77651 c 2.97982,5.43649 4.21749,5.69047 3.86908,0.79398 -0.54073,-7.59929 5.59549,-8.24027 9.2877,-0.97018 2.12822,4.19054 2.40086,4.45621 3.06087,2.98268 0.52034,-1.16169 0.42616,-2.07442 -0.33413,-3.23837 -0.59184,-0.90605 -0.95513,-2.87898 -0.82386,-4.47403 l 0.23486,-2.8533 h 11.84948 c 12.98092,0 13.87151,0.3017 12.85431,4.35453 -0.36803,1.46635 -1.66135,2.56388 -5.01797,4.25829 -6.24181,3.15086 -10.43122,7.55705 -12.7605,13.42077 -1.05101,2.64582 -3.42593,8.33389 -5.2776,12.64015 -1.85166,4.30625 -4.2897,10.68175 -5.41787,14.16776 -2.93503,9.06923 -5.21989,10.43328 -10.70175,6.3889 -2.7417,-2.02276 -2.01534,-2.16416 -11.87949,2.31253 -5.93571,2.69382 -10.31655,3.16571 -13.00935,1.40132 -2.39705,-1.57061 -6.87841,0.6372 -12.76299,6.28786 -5.60292,5.38021 -7.85447,5.79454 -11.94963,2.19894 -5.60625,-4.92235 -8.80186,-4.44397 -13.79922,2.06576 -2.80341,3.65181 -4.51154,3.96439 -9.37102,1.71485 z m 5.59254,-2.87916 c 0,-0.35318 1.44954,-2.19872 3.22122,-4.1012 4.40693,-4.73231 12.51625,-4.7825 16.91085,-0.10466 2.38207,2.5356 2.85092,2.41084 6.71012,-1.78559 6.03568,-6.56309 13.82019,-9.26334 18.28029,-6.34097 1.6929,1.10923 2.04528,1.08642 5.00706,-0.32406 12.27942,-5.84782 15.52811,-6.47922 19.34669,-3.76014 2.74781,1.95661 2.8639,1.82034 5.47821,-6.4299 1.9959,-6.29871 8.84661,-22.85642 12.4435,-30.07518 1.88813,-3.78937 5.91871,-7.25305 12.14924,-10.44042 l 4.47403,-2.2888 -9.38303,-0.0359 c -10.20467,-0.039 -10.86318,0.1368 -9.23243,2.46501 2.67705,3.82203 0.40482,10.17554 -3.63912,10.17554 -2.06681,0 -3.45025,-1.43151 -5.69393,-5.89176 -1.7416,-3.46216 -3.53411,-3.0751 -2.18553,0.47194 1.44143,3.79123 -0.11967,6.17293 -4.03371,6.15407 -3.29582,-0.0159 -4.11657,-0.70642 -6.76328,-5.69033 -2.12393,-3.9995 -2.54933,-4.38403 -5.08263,-4.59437 -5.45087,-0.45257 -6.73896,2.04312 -6.56753,12.72467 0.0916,5.70522 -1.95488,8.01086 -7.11031,8.01086 -3.97907,0 -11.07151,1.8813 -12.07839,3.20386 -0.37574,0.49353 -1.14241,2.07176 -1.70371,3.50718 -3.21807,8.22962 -9.59182,14.0654 -20.66039,18.91659 -13.58295,5.9532 -22.95584,4.94161 -37.23241,-4.01839 -1.7576,-1.10307 -2.09103,-1.03083 -11.42975,2.47661 -14.77984,5.55101 -42.20273,2.52018 -48.24051,-5.33165 -1.74956,-2.2752 -4.23914,-7.86357 -4.66193,-10.46462 -0.49508,-3.04579 -10.26973,-9.44097 -15.898695,-10.40191 -3.62268,-0.61844 -6.47768,-4.54531 -6.49945,-8.9396 -0.011,-2.2246 -0.12855,-2.36041 -1.15474,-1.33421 -1.57341,1.57341 -6.06877,2.33306 -7.37773,1.24672 -1.21598,-1.00917 -0.73995,-3.25139 1.70973,-8.05315 2.77331,-5.43615 1.41396,-5.6376 -1.72893,-0.25624 -2.10882,3.6108 -3.80856,4.98007 -6.74686,5.43513 -3.16715,0.49049 -1.59412,10.51003 4.39364,27.98583 1.86016,5.42903 3.6116,11.601 3.8921,13.71549 0.2805,2.11449 0.92667,5.22249 1.43594,6.90666 l 0.92593,3.06212 0.56803,-2.23701 c 1.72994,-6.81292 13.48141,-17.52329 19.226625,-17.52329 3.64461,0 9.39484,7.48241 9.4553,12.30358 0.0403,3.20998 1.03045,3.50583 4.75898,1.42192 7.58454,-4.23909 15.74326,-3.26796 16.58143,1.97367 0.63298,3.95841 0.71673,3.96735 5.83086,0.62218 7.39162,-4.83487 13.06408,-3.61814 17.61522,3.77841 l 2.28686,3.71662 2.92479,-1.93554 c 3.95855,-2.61965 14.16456,-2.35621 17.9792,0.46407 2.14297,1.58437 2.5702,1.65038 4.99843,0.77232 3.65034,-1.31998 9.76849,-1.20427 12.42808,0.23506 2.47048,1.33697 4.07264,1.57802 4.07264,0.61274 z m -18.05857,-24.21539 -9.47156,-4.86259 -3.74447,1.36865 c -2.05946,0.75275 -4.96265,2.12153 -6.45155,3.04172 -5.34583,3.3039 -31.40137,4.01805 -37.40708,1.02527 -9.24671,-4.60783 -11.5821,-13.3097 -5.12841,-19.10886 l 3.25361,-2.92363 -1.0537,-3.05838 c -1.48591,-4.31288 -2.33959,-5.78971 -5.1883,-8.97562 -5.44992,-6.09501 -3.23417,-11.15283 5.09197,-11.62331 5.89799,-0.33326 8.05394,0.92162 9.59244,5.58332 0.87419,2.64884 2.2188,3.38797 2.1744,1.19527 -0.0145,-0.71771 -0.50597,-2.1438 -1.09208,-3.1691 -1.32609,-2.31974 -1.42706,-6.27323 -0.18642,-7.29939 3.1567,-2.61099 11.9375,-4.63725 12.95575,-2.98969 1.30787,2.11618 -0.39226,11.11607 -3.41733,18.09015 -2.11986,4.8872 -1.64351,6.22276 3.4054,9.54773 l 4.244,2.7949 3.43005,-2.01028 c 6.07366,-3.55962 6.36523,-3.63904 11.86169,-3.23066 5.1219,0.38057 5.44974,0.52387 8.88267,3.88292 l 3.56449,3.48777 3.9148,-1.028 c 5.49246,-1.4423 7.82367,-3.01302 10.12392,-6.82124 l 1.99595,-3.30443 -2.91298,-5.37347 c -2.97349,-5.48509 -4.20642,-9.34542 -3.89229,-12.18684 0.097,-0.87723 -0.69655,-2.53535 -1.76521,-3.68845 -1.60224,-1.72884 -1.90273,-2.68796 -1.7201,-5.49022 0.28329,-4.34673 2.9819,-4.93066 9.19395,-1.98939 2.1888,1.03635 6.26643,2.34446 9.0614,2.9069 5.83735,1.17468 6.72878,2.97384 4.38087,8.84186 -1.08575,2.71355 -0.66902,5.85983 0.77616,5.85983 1.43613,0 3.50326,-1.99448 4.85605,-4.68539 3.48856,-6.93928 6.9229,-7.55792 14.26973,-2.57049 3.3423,2.26893 2.657,8.00101 -1.33167,11.1385 -2.95358,2.32329 -2.83669,4.26026 0.43775,7.25338 3.68176,3.36547 3.84033,5.94111 0.70751,11.49216 -1.23036,2.18007 -2.23702,4.87608 -2.23702,5.99111 0,7.55483 -13.85846,16.99213 -25.6911,17.49506 l -6.01174,0.25553 z m 22.5326,-0.54382 c 10.47488,-4.93685 15.6591,-10.01351 15.6591,-15.33419 0,-1.111 0.99037,-3.77483 2.2008,-5.91961 l 2.20081,-3.8996 -2.10408,-0.87154 c -4.74475,-1.96534 -4.78595,-14.9385 -0.0474,-14.9385 2.43455,0 1.99105,-3.39464 -0.6571,-5.02947 -3.94705,-2.4367 -4.84242,-2.15984 -6.84545,2.11673 -2.18014,4.65468 -3.84706,5.89543 -7.92043,5.89543 -5.07909,0 -7.23619,-5.60459 -4.32432,-11.23551 1.29448,-2.50325 1.58993,-2.28892 -5.02218,-3.64329 -2.33774,-0.47884 -5.78355,-1.64679 -7.65736,-2.59543 -4.10466,-2.07804 -4.85325,-1.4028 -2.08805,1.88346 1.19887,1.42477 2.07108,3.38067 2.10644,4.72359 0.0903,3.42886 1.01767,6.23108 3.89616,11.77269 5.35458,10.30852 1.22222,17.72512 -11.71645,21.02823 -5.53488,1.413 -7.20625,0.93749 -11.72446,-3.33565 -3.9128,-3.70056 -8.9636,-5.13931 -10.32258,-2.94043 -2.18303,3.53222 -10.87418,5.15543 -15.63121,2.91936 -7.04412,-3.31112 -8.86356,-8.22829 -5.90815,-15.96717 1.95927,-5.13043 4.14077,-12.42656 3.81336,-12.75397 -1.11011,-1.11011 -7.35918,2.92551 -6.86118,4.43092 3.14977,9.52157 -2.65838,15.14351 -7.04361,6.81777 -2.1591,-4.09923 -3.70484,-5.05628 -7.12892,-4.41393 -4.24345,0.79608 -4.59617,2.02935 -1.54598,5.40554 6.19986,6.86251 7.95418,16.97189 3.46115,19.94523 -5.41863,3.58588 -4.70597,8.21659 1.94404,12.63194 7.26415,4.82313 26.6858,4.40677 36.57034,-0.78399 8.51858,-4.47345 12.2289,-4.19677 23.49011,1.75172 10.28406,5.43232 12.15988,5.66083 19.20663,2.33967 z m -102.0534,-21.83521 c -9.872505,-5.47256 -10.121675,-5.79145 -9.447165,-12.09 0.81286,-7.59036 2.1888,-8.79004 9.590105,-8.36159 7.15617,0.41427 7.86438,1.03901 9.84811,8.68737 1.1584,4.46629 1.6285,5.2858 3.26813,5.69732 2.97805,0.74744 3.78763,1.80035 3.78763,4.92609 0,7.3754 -5.17486,7.7217 -17.04681,1.14081 z m 12.6218,0.97867 c 2.33684,-1.25064 1.68988,-2.83231 -1.51108,-3.69423 -2.87022,-0.77288 -4.48152,-3.37404 -4.49916,-7.2631 -0.0388,-8.56657 -10.84918,-10.65852 -12.479145,-2.4149 l -0.75364,3.8116 2.699535,1.75039 c 2.34804,1.52249 14.21856,8.31952 14.86573,8.51209 0.12949,0.0385 0.88448,-0.2773 1.67776,-0.70185 z m 116.1924,-3.7855 c -2.31926,-2.31927 -1.84595,-15.7966 0.62503,-17.79748 1.69468,-1.37227 8.30077,-0.92242 11.48578,0.78215 1.83745,0.98338 1.84173,5.08036 0.009,8.73961 -0.76204,1.52161 -1.62707,3.77322 -1.92227,5.00358 -1.17728,4.90663 -6.76896,6.70085 -10.19767,3.27214 z m 6.79443,-5.12552 c 0,-0.68717 0.79827,-2.82618 1.77393,-4.75336 1.94682,-3.84546 1.78763,-4.16213 -2.6207,-5.21365 -3.65606,-0.87209 -6.24649,8.88703 -3.24059,12.20851 1.53354,1.69454 4.08736,0.29403 4.08736,-2.2415 z M 65.891235,312.99476 c -1.7584,-2.68364 -1.98294,-6.90253 -0.40872,-7.67919 1.70712,-0.84224 8.0942,-0.17993 9.01976,0.9353 1.49811,1.80511 -0.52376,6.40816 -3.32972,7.58056 -3.416,1.4273 -3.84216,1.35979 -5.28132,-0.83667 z m 5.24097,-4.17961 c -0.41865,-0.67739 -3.28763,-0.89806 -3.28763,-0.25287 0,1.80847 1.92515,3.28731 2.77238,2.12966 0.49951,-0.68254 0.73137,-1.52709 0.51525,-1.87679 z m 243.792455,0.11484 c -0.8808,-0.35538 -1.83178,-1.01881 -2.11328,-1.47429 -1.01668,-1.64504 -6.16935,-4.36713 -10.13295,-5.35314 -4.75033,-1.18172 -28.41716,-0.62244 -34.62098,0.81814 -13.87641,3.22221 -30.65496,1.00165 -42.57811,-5.63502 -6.08288,-3.38586 -11.63716,-5.23002 -21.93427,-7.28276 -9.20408,-1.83484 -20.00727,-6.64327 -27.10961,-12.0663 -6.0323,-4.60601 -11.29369,-2.62442 -17.85246,6.72378 -2.29577,3.27216 -23.92072,13.2996 -34.80396,16.13853 -13.7153,3.57768 -62.919455,1.50772 -76.440445,-3.21576 -1.23035,-0.42982 -3.66311,-1.15001 -5.40612,-1.60042 -1.743,-0.4504 -3.1691,-1.07818 -3.1691,-1.39505 0,-0.31687 -1.35558,-0.57614 -3.0124,-0.57614 -8.72142,0 -13.04333,-7.42059 -6.3085,-10.83151 7.9224,-4.01238 11.49053,-7.47633 10.15656,-9.86001 -0.56334,-1.00663 -0.73035,-0.94813 -1.16026,0.40638 -0.59373,1.87069 -5.22872,5.6949 -8.74412,7.21457 -1.36906,0.59182 -3.49585,1.75929 -4.72621,2.59436 -3.73186,2.53291 -6.77471,2.03357 -10.53752,-1.72926 -5.24462,-5.2446 -4.32906,-8.53564 3.45364,-12.41438 3.95905,-1.97311 11.973,-8.26374 11.50084,-9.02771 -0.18063,-0.29227 -2.255,0.73239 -4.60971,2.27703 -2.3547,1.54464 -6.16155,4.03385 -8.45966,5.53157 -8.48492,5.5298 -12.01997,0.81374 -10.84644,-14.47008 0.53731,-6.99776 1.05101,-7.52738 7.13337,-7.35439 5.6604,0.16098 13.17429,-0.94295 14.33786,-2.10651 1.91284,-1.91284 -2.24387,-2.63241 -9.58992,-1.66013 -11.57675,1.53224 -11.77213,-0.55101 -1.30101,-13.87242 7.63189,-9.70931 9.33554,-13.29409 11.19037,-23.54633 0.61936,-3.42339 1.44696,-7.63599 1.83914,-9.36137 0.90274,-3.97168 -0.42916,-12.01609 -4.60418,-27.80834 -5.29652,-20.03441 -4.42293,-35.57326 2.1855,-38.87419 1.34088,-0.66978 3.31606,-2.09588 4.3893,-3.16911 4.58747,-4.58747 7.97742,-2.43903 8.68676,5.50538 0.26222,2.93674 1.95599,9.25486 4.29788,16.03194 6.30394,18.24273 5.22522,28.70837 -2.95902,28.70837 -3.49984,0 -5.49835,-7.4042 -5.09922,-18.89184 0.12386,-3.5646 -0.12738,-5.34953 -0.83569,-5.93723 -1.37318,-1.13935 -3.34923,1.50274 -2.6756,3.57742 0.26632,0.82024 0.78046,4.17576 1.14253,7.45672 0.36207,3.28096 0.99912,7.57576 1.41566,9.54402 0.41654,1.96825 0.75736,4.66945 0.75736,6.00265 0,1.33321 0.3666,2.79062 0.81466,3.23869 0.81331,0.81329 1.26339,0.60243 8.26472,-3.87193 2.73451,-1.74755 6.54034,-8.68709 6.5636,-11.96803 0.0309,-4.3548 4.77048,-5.47286 10.59779,-2.49999 2.34463,1.19614 5.28879,1.71136 12.51953,2.19089 8.61367,0.57124 11.27156,0.91543 15.11449,1.95728 1.96791,0.53352 1.65656,4.49837 -0.58391,7.43577 -2.12509,2.78613 -4.49178,2.99362 -7.99138,0.70061 -4.02287,-2.6359 -13.64132,1.01378 -16.01785,6.07789 -1.44254,3.07387 -5.77619,4.24861 -9.10371,2.46778 -1.24165,-0.66452 -2.12324,-0.37028 -5.06177,1.68937 -5.58551,3.91495 -6.99899,8.76022 -4.90293,16.80675 0.98008,3.76237 -0.504,6.08707 -3.88598,6.08707 -3.45547,0 -6.99454,4.23625 -7.52904,9.0122 l -0.46615,4.16534 3.44382,2.82195 c 3.92441,3.21576 4.5263,5.92214 1.84715,8.30569 -3.49783,3.11191 -5.40209,10.39989 -3.59811,13.77067 1.1277,2.10712 6.50582,4.66848 10.78731,5.13751 l 3.72836,0.40844 v 8.60002 c 0,12.02647 3.74897,16.48878 11.99908,14.28221 5.02934,-1.34514 6.48508,-1.10551 10.06229,1.65634 6.18199,4.77294 14.18696,5.59026 19.27408,1.96791 2.92878,-2.08548 5.03636,-1.92302 10.305235,0.79436 5.66611,2.92224 8.43013,2.306 12.62645,-2.81505 2.96485,-3.61821 2.96995,-3.61921 10.51799,-2.06861 5.46521,1.12273 12.52918,-3.83348 14.4097,-10.11009 1.18729,-3.96282 2.36398,-4.81029 6.33949,-4.56582 7.22659,0.44441 12.21526,-4.53269 12.21526,-12.18692 0,-4.54927 0.17808,-5.06807 2.69655,-7.85571 3.58057,-3.96327 4.97434,-13.11355 2.84066,-18.64939 -4.44508,-11.53279 -0.43121,-20.61227 6.38853,-14.45105 3.56868,3.22409 6.25151,4.17805 10.11893,3.5981 7.27582,-1.09108 11.94397,7.2597 8.15457,14.58758 -0.79237,1.53226 -0.91625,2.66413 -0.42445,3.87775 0.382,0.94264 0.88544,2.61079 1.11876,3.70701 0.23332,1.09622 1.26321,2.9902 2.28863,4.20883 2.1752,2.58509 2.4108,5.86473 0.66398,9.2427 -1.32741,2.56695 -1.17276,4.8884 0.79847,11.98534 0.65936,2.37386 4.32178,4.26106 8.2693,4.26106 2.89563,0 4.80906,1.63366 4.80906,4.10591 0,7.19787 7.96261,13.79021 16.65661,13.79021 5.25915,0 5.57796,0.20708 8.1952,5.32303 0.89075,1.74117 2.87923,4.16775 4.41885,5.39242 l 2.7993,2.22668 3.79872,-2.64762 c 4.71397,-3.28556 7.19319,-2.97366 11.7851,1.48263 5.24365,5.08879 9.40534,4.75465 15.9531,-1.28087 4.15146,-3.82668 6.09825,-3.88611 13.32297,-0.40676 9.5207,4.58505 12.50586,2.22183 14.15614,-11.20678 1.13172,-9.20902 2.23167,-10.81348 7.41319,-10.81348 7.18617,0 17.07996,-6.21933 17.07996,-10.73662 0,-2.07127 -2.116,-8.46097 -3.52499,-10.64445 -2.04732,-3.17267 -0.95343,-6.94875 2.77068,-9.56429 6.98547,-4.90607 7.05164,-11.10914 0.20624,-19.33487 -1.88139,-2.26076 -1.92281,-3.10939 -0.53467,-10.95472 1.07462,-6.07345 -5.74088,-11.7559 -11.63541,-9.70106 -6.32349,2.20438 -8.13105,1.20461 -8.47101,-4.6854 -0.56109,-9.72141 -6.1412,-13.35607 -17.31301,-11.27701 -2.89396,0.53856 -3.19079,0.42682 -4.84687,-1.82449 -3.39734,-4.61843 -6.63772,-5.59537 -12.57631,-3.79158 -6.00794,1.82486 -9.00479,1.93712 -11.88955,0.44535 -6.57843,-3.40185 -15.92887,-1.60778 -21.85293,4.1929 -4.19806,4.11063 -5.77125,4.41249 -10.46832,2.00867 -4.14978,-2.12374 -8.47509,-2.19129 -11.34179,-0.17713 -5.17542,3.63629 -6.79338,3.06055 -9.83408,-3.49935 l -2.27605,-4.9103 0.14899,-17.45985 c 0.13508,-15.82956 0.30865,-17.98206 1.85891,-23.0524 2.77349,-9.07112 2.6986,-8.94806 5.44629,-8.94806 4.0749,0 5.41051,1.62375 9.06695,11.02306 l 3.41959,8.79051 4.65993,2.29175 c 8.02356,3.946 9.32751,1.80669 6.07704,-9.97029 -1.16133,-4.20768 -2.55249,-5.42398 -6.20377,-5.42398 -4.7384,0 -11.24529,-5.31218 -11.24529,-9.18057 0,-2.92839 1.33377,-3.3533 11.35664,-3.618 13.26621,-0.35035 16.61524,-4.57714 14.39179,-18.163738 -1.15268,-7.0435 -2.02729,-7.42978 -15.33143,-6.77127 -5.58662,0.27652 -10.71921,0.28721 -11.40576,0.0238 -3.61612,-1.38763 0.74821,-12.42671 5.30785,-13.42558 15.05918,-3.299 16.02322,-3.76973 18.73932,-9.15029 1.195,-2.36728 2.69975,-4.74154 3.34388,-5.27612 1.80505,-1.49806 0.60387,-2.41514 -1.65102,-1.26051 -1.10456,0.56558 -3.76849,1.26674 -5.91984,1.55814 -3.89801,0.52796 -11.38196,6.92372 -20.44191,17.4696 -4.83553,5.6286 -6.71858,2.792 -7.00756,-10.55607 -0.1265,-5.84319 -0.25251,-10.89453 -0.28001,-11.22518 -0.30162,-3.62583 -12.05498,-4.17395 -19.00455,-0.88628 -5.42096,2.56452 -6.25472,3.95595 -6.94629,11.59236 l -0.57052,6.29985 -2.71075,0.22634 c -4.38023,0.36572 -7.62535,-5.60958 -5.16142,-9.5038 0.47489,-0.75058 0.13383,-1.72443 -1.12993,-3.22633 -0.99558,-1.18317 -1.81015,-2.50063 -1.81015,-2.92767 0,-0.42704 -1.01034,-1.92715 -2.2452,-3.33358 -1.56709,-1.78481 -2.14571,-3.10581 -1.91579,-4.37375 0.48245,-2.6605 0.64176,-2.80838 5.83937,-5.420185 8.19782,-4.119408 12.19114,-14.21871 8.72261,-22.059904 -2.11079,-4.771764 -3.43434,-5.41657 -15.32755,-7.46726 -12.54002,-2.162216 -15.79099,-1.851952 -18.83798,1.797855 -2.07497,2.485485 -3.71182,2.70757 -8.67218,1.176628 -2.22772,-0.687556 -3.6871,0.528938 -2.74541,2.2885 0.86776,1.621423 0.64722,30.886046 -0.24362,32.327456 -0.39583,0.64046 -2.09388,0.74875 -6.00048,0.38267 -3.02057,-0.28305 -7.88033,-0.15411 -10.90589,0.28937 -10.20104,1.49522 -26.356235,0.92095 -27.629755,-0.98215 -1.17708,-1.75899 -0.48183,-4.2417 1.74157,-6.21904 4.97249,-4.422181 6.26298,-7.88888 6.26298,-16.824553 0,-7.720753 0.0778,-8.116099 1.86418,-9.468796 5.21382,-3.948125 12.326275,-7.033462 23.488665,-10.189219 6.56191,-1.85515 14.95072,-4.31266 18.64179,-5.4611441 12.56807,-3.910572 13.43854,-3.982507 48.84151,-4.036523 l 33.18239,-0.05063 16.77762,3.484151 c 20.76805,4.3128321 29.34875,6.6042741 47.35016,12.6446611 6.56709,2.203597 6.60471,2.259098 5.97034,8.80896 -0.29909,3.088058 -0.65276,6.923785 -0.78592,8.523839 -0.37076,4.454892 -3.00197,4.990376 -10.70642,2.178897 -1.80674,-0.659309 -4.95052,-1.570517 -6.98616,-2.024906 l -3.70118,-0.826166 -1.39097,-4.534313 c -1.66459,-5.426274 -3.65161,-7.701726 -5.14945,-5.896944 -0.8144,0.981305 -0.65543,1.48872 1.0116,3.228719 2.69814,2.816248 2.84216,8.328881 0.26178,10.019613 -7.98017,5.228807 -34.74443,7.305092 -41.94977,3.254328 -6.56601,-3.691332 -11.45787,-16.053778 -8.27484,-20.911698 5.46879,-8.346432 28.61063,-4.834871 27.93084,4.238245 -0.3734,4.983751 -8.86053,8.701428 -12.44959,5.45338 -1.17357,-1.062072 -1.44901,-1.088585 -1.80025,-0.173286 -1.35547,3.532301 6.7085,3.945603 12.47269,0.639263 3.67825,-2.109843 5.97579,-7.520663 4.06521,-9.57375 -7.52686,-8.088249 -23.67906,-9.170554 -30.7473,-2.060269 -4.73005,4.758181 -0.78182,18.01205 6.85524,23.012454 8.06174,5.278467 30.99973,4.41268 42.91219,-1.619706 9.55002,-4.836061 34.01987,2.412063 34.01987,10.076893 0,2.8601 -0.59592,3.27544 -8.79978,6.13328 -7.61083,2.65126 -13.52007,7.04866 -14.93804,11.11626 -2.09721,6.01606 12.79593,16.44816 25.51881,17.87497 6.88032,0.7716 7.91274,1.50069 7.91274,5.58792 0,12.754218 -34.03692,20.458038 -41.55915,9.406388 -1.32718,-1.9499 -1.75929,-2.2034 -2.12615,-1.24738 -0.5741,1.49608 2.70136,5.58718 5.90362,7.37371 3.8973,2.17429 11.39797,1.75072 22.76622,-1.28562 5.80663,-1.55088 6.1352,-1.29779 6.93448,5.34135 1.85687,15.42399 8.14988,18.93502 23.92068,13.34598 4.40558,-1.5613 8.51609,-2.64458 9.13448,-2.40728 2.43899,0.93593 0.56338,10.90172 -3.80898,20.23856 -1.20265,2.56817 -7.08984,6.81754 -12.7282,9.18721 -8.05874,3.38688 -42.08521,1.84204 -46.86869,-2.12789 -0.82058,-0.68102 -1.08891,-2.7228 -1.08891,-8.28579 v -7.38208 l 3.07765,-3.33886 3.07766,-3.33886 h 5.18209 c 6.68475,0 9.54141,2.29236 9.54141,7.65662 0,4.04539 -1.63039,5.76547 -5.46484,5.76547 -3.03343,0 -3.67318,1.06667 -1.05979,1.76703 3.92848,1.05279 6.55394,-0.22717 9.71076,-4.73416 3.85714,-5.50684 -3.01223,-12.69198 -12.13419,-12.69198 -11.24847,0 -18.05725,9.6614 -15.92063,22.59075 0.87194,5.27639 10.11512,7.70769 31.95257,8.4047 l 14.91344,0.47602 4.28298,-1.92936 c 8.53027,-3.84263 10.82965,-3.14633 9.90791,3.00027 -0.92618,6.17624 4.1158,14.40885 10.94355,17.86873 l 3.74725,1.89887 2.11834,-2.02949 c 1.62312,-1.55505 1.9557,-2.33339 1.42265,-3.3294 -1.38041,-2.57932 -1.5668,-9.07834 -0.30049,-10.4776 1.18336,-1.30759 0.42042,-4.4096 -1.08454,-4.4096 -1.21272,0 -4.5663,7.34748 -4.5663,10.00446 0,3.09897 -1.34058,4.02736 -4.291,2.97164 -6.95947,-2.49023 -6.26601,-21.98951 1.01085,-28.42409 3.3824,-2.99089 3.49466,-3.21217 2.29957,-4.53274 -1.8178,-2.00865 -1.58766,-3.94487 1.67308,-14.07582 3.83014,-11.90004 4.07072,-12.31761 6.93226,-12.03223 2.00431,0.19987 2.77368,1.01038 5.88104,6.19534 4.38215,7.3121 6.61382,9.13155 12.55583,10.23658 6.07374,1.12953 6.2468,1.53171 5.82827,13.54505 -0.38086,10.93256 -1.08707,13.58613 -5.89067,22.13421 -7.25366,12.90798 -8.14359,14.71492 -9.52027,19.33044 -4.91984,16.4943 -2.30521,47.31567 4.53121,53.41425 8.30198,7.40598 10.90318,12.95407 11.19241,23.87222 l 0.23414,8.83862 -2.75722,0.2291 c -1.95515,0.16246 -4.88347,-0.68468 -10.06657,-2.91219 -5.09539,-2.18983 -8.49779,-3.18226 -11.23295,-3.27652 -2.88437,-0.0994 -4.38431,-0.56803 -5.66303,-1.76933 -1.061,-0.99674 -2.22092,-1.44935 -2.97387,-1.16042 -4.06325,1.55922 3.43827,7.02518 9.6414,7.02518 3.79077,0 6.03646,0.49536 9.878,2.17892 2.73451,1.1984 5.88085,2.40576 6.99186,2.68301 7.56383,1.88757 0.96481,22.72793 -7.1967,22.72793 -2.822,0 -14.39432,-8.41392 -23.33193,-16.96403 -4.09222,-3.91479 -5.63063,-4.63719 -6.58542,-3.09231 -0.69118,1.11835 9.79285,11.56679 12.66982,12.62682 9.41726,3.4698 16.41952,11.07894 12.89054,14.00773 -1.87577,1.55675 -12.15002,5.18633 -15.73675,5.55932 l -3.64594,0.37915 -7.1663,-7.41777 c -3.94146,-4.07977 -7.74016,-8.45976 -8.44156,-9.73333 -1.81651,-3.29836 -2.66572,-4.02644 -3.60302,-3.08915 -1.35125,1.35125 3.93564,10.18132 6.65014,11.10692 4.56369,1.55615 7.8939,6.69608 5.90029,9.10665 -0.87203,1.05441 -5.36923,1.16502 -7.78226,0.19141 z m 4.7945,-3.1741 c -0.15772,-0.51264 -1.67128,-1.60568 -3.36348,-2.42896 -5.80872,-2.82605 -9.89613,-8.6244 -9.89613,-14.03853 0,-5.62467 6.85706,-6.77777 9.51351,-1.59981 1.69778,3.3093 14.87521,17.50805 16.24871,17.50805 1.39037,0 13.77046,-4.69234 13.71617,-5.19874 -0.10448,-0.97465 -9.18634,-6.92967 -11.57349,-7.58879 -5.15268,-1.42273 -14.48281,-11.62632 -14.48281,-15.83866 0,-6.51217 7.60972,-5.77323 14.69109,1.42657 1.2007,1.22079 4.341,3.89738 6.97843,5.94797 2.63744,2.0506 6.26015,5.06375 8.05046,6.69589 l 3.25512,2.96754 1.83035,-2.22187 c 3.92973,-4.77028 6.65813,-12.77786 4.71516,-13.83849 -5.8094,-3.17122 -14.28098,-5.90692 -18.29964,-5.90944 -8.18901,-0.005 -13.81157,-6.26634 -10.75533,-11.97698 1.07908,-2.01628 6.53696,-1.98696 9.1253,0.049 1.19261,0.93811 3.02503,1.49134 4.93958,1.49134 2.81149,0 9.36272,2.2088 15.71384,5.29803 4.07638,1.98278 4.05911,2.0521 2.56122,-10.282 -0.38227,-3.14769 -2.95801,-7.03688 -9.41952,-14.22279 -3.55878,-3.95776 -3.93576,-4.94599 -6.60762,-17.32129 -4.59086,-21.2636 -1.90623,-42.62479 7.11724,-56.63064 6.50462,-10.09621 9.42299,-18.50781 9.27896,-26.74475 -0.1266,-7.24056 -0.44349,-7.72741 -5.91389,-9.0859 -2.65321,-0.65889 -5.54484,-1.59572 -6.42585,-2.08186 -1.77159,-0.97757 -7.64787,-9.85793 -8.41078,-12.71056 -0.38086,-1.42409 -1.15984,0.24773 -3.62907,7.78854 -3.51892,10.74644 -3.58554,11.13395 -2.01743,11.73569 2.62226,1.00625 1.35575,5.61763 -2.55715,9.31057 -5.54579,5.23404 -7.4771,13.88569 -4.54311,20.35164 l 1.47497,3.25053 0.0327,-2.98269 c 0.0407,-3.70462 2.2549,-8.72657 4.55926,-10.3406 5.34808,-3.74594 11.52876,3.59278 7.66803,9.10474 -0.99456,1.41994 -1.05705,2.25288 -0.37283,4.97014 1.29521,5.14373 1.02828,6.98637 -1.35769,9.37233 -7.65582,7.65587 -23.17317,-4.84935 -23.17317,-18.67492 0,-2.13226 -0.25167,-3.75043 -0.55926,-3.59593 -7.75874,3.89709 -6.8326,3.77586 -25.0308,3.2765 -17.14452,-0.47045 -19.90917,-0.8024 -28.95401,-3.47658 -6.01851,-1.77942 -5.97775,-1.69595 -6.42415,-13.15452 l -0.35439,-9.09678 4.37637,-4.58868 c 5.86221,-6.14659 7.05683,-6.6718 15.17554,-6.6718 11.83089,0 16.78729,3.89702 16.28403,12.80351 -0.40989,7.254 -3.49346,10.46699 -10.46752,10.90681 -9.24963,0.58333 -12.91459,-6.4312 -4.13713,-7.91823 6.24862,-1.05859 4.10495,-7.5897 -2.49112,-7.5897 -6.54656,0 -11.68882,13.32782 -6.44548,16.70553 6.21364,4.00277 33.44276,5.02496 41.29938,1.55039 8.41968,-3.72358 10.96584,-6.36462 13.98627,-14.50744 3.6215,-9.76323 4.15783,-9.18136 -5.13922,-5.57546 -6.68166,2.59151 -17.26685,2.96502 -19.77222,0.69768 -2.44391,-2.21169 -5.94338,-10.10709 -6.44297,-14.5364 -0.68277,-6.05327 -1.23624,-6.8452 -3.86689,-5.53286 -5.19852,2.59336 -20.2933,3.4937 -25.07536,1.49562 -5.30682,-2.21733 -8.93491,-10.42567 -5.93439,-13.426188 1.99109,-1.99109 4.04623,-1.32691 7.66279,2.476468 5.32712,5.60234 13.93484,5.69957 24.7141,0.27919 12.66143,-6.366848 13.61284,-9.920668 2.91022,-10.870718 -11.35762,-1.0082 -26.76515,-11.40617 -26.76515,-18.06282 0,-5.4768 6.82652,-13.62464 12.5636,-14.99538 3.3887,-0.80966 11.2979,-4.12258 11.2979,-4.73236 0,-4.172338 -21.83223,-10.4278 -27.024,-7.743028 -12.99838,6.721718 -39.21895,7.683438 -48.52785,1.779913 -8.09092,-5.131115 -12.78616,-20.961948 -8.00982,-27.006551 6.84625,-8.664119 28.09243,-8.406065 36.94725,0.448764 3.77626,3.776258 1.16823,12.638183 -4.50404,15.304465 -10.33263,4.856908 -18.22902,3.775238 -18.22902,-2.497064 0,-4.384404 3.64703,-6.291535 7.23095,-3.781261 1.34326,0.940851 2.05021,0.970511 4.44334,0.186418 5.6879,-1.863598 2.81908,-5.583716 -5.98055,-7.755243 -12.6008,-3.109558 -17.41026,3.752907 -10.08842,14.394837 4.39966,6.39469 9.62304,7.624889 24.96725,5.880228 15.71889,-1.787263 21.09929,-4.985632 15.96535,-9.490583 -4.17636,-3.664691 -2.15882,-9.554228 3.27292,-9.554228 3.59159,0 5.53141,1.947428 7.04815,7.07579 l 1.32081,4.465938 4.43205,1.207972 c 2.43763,0.664384 5.37666,1.590794 6.53119,2.058689 3.80181,1.540761 4.06913,1.261236 4.71293,-4.928238 0.3306,-3.178426 0.6109,-6.082488 0.62288,-6.453472 0.0245,-0.758534 -3.80501,-2.158534 -17.87436,-6.534589 -13.3492,-4.152065 -15.57719,-4.709089 -34.67374,-8.668919 l -16.77761,-3.4789771 -32.06389,0.08931 -32.06389,0.0893 -8.20239,2.2592881 c -4.51131,1.24261 -14.27259,3.918305 -21.69173,5.94598 -12.92406,3.532202 -16.65268,5.092517 -24.004635,10.045222 -2.87842,1.939071 -3.154,2.384699 -2.79651,4.522158 0.21811,1.304113 0.52691,3.209997 0.68623,4.235296 0.94732,6.096775 -2.81987,15.990555 -7.0736,18.577405 l -2.19274,1.33348 6.53918,0.6335 c 3.59654,0.34843 8.552485,0.59303 11.013195,0.54357 16.60148,-0.33372 21.99156,-0.65922 21.98493,-1.32765 -0.004,-0.41012 0.12356,-6.282287 0.2836,-13.049259 0.21963,-9.286579 0.0392,-12.920174 -0.73578,-14.818083 -2.32088,-5.6837 3.31387,-10.416959 8.86456,-7.446323 1.07016,0.572735 1.9005,0.261675 3.83465,-1.436528 3.7802,-3.31906 8.50055,-3.579232 22.28185,-1.228092 13.59361,2.319113 14.59104,2.739629 16.69764,7.039694 4.84231,9.884291 0.22268,24.153262 -9.18647,28.374861 l -4.86086,2.18092 2.29541,2.78474 c 1.26248,1.5316 2.29541,3.07479 2.29541,3.42931 0,0.35452 0.67111,1.49775 1.49135,2.54051 1.58001,2.00866 1.94452,5.42012 0.80636,7.54679 -0.481,0.89875 -0.29312,1.7994 0.6309,3.02439 1.30124,1.7251 1.32148,1.67719 1.82065,-4.3082 0.73968,-8.86939 0.97146,-9.23642 7.56656,-11.98197 7.33955,-3.05546 14.23615,-3.73786 19.63925,-1.94324 4.94332,1.64191 5.50512,2.8186 5.30812,11.11785 -0.089,3.74793 -0.12077,8.80954 -0.0707,11.24802 l 0.0911,4.43361 2.12344,-3.3151 c 1.1679,-1.8233 4.10398,-5.22904 6.52463,-7.56831 2.42065,-2.33926 5.07552,-5.13503 5.89971,-6.21282 1.47169,-1.92453 2.92409,-2.37899 16.96368,-5.30795 5.22381,-1.0898 5.47115,2.72297 0.73885,11.38887 -4.10647,7.51984 -5.61721,8.49786 -15.47269,10.01665 -6.75355,1.04076 -7.3906,1.39701 -9.34345,5.22491 -1.87092,3.66731 -2.08496,3.59762 9.62536,3.13405 10.90303,-0.43163 15.37555,0.30677 16.03185,2.64677 1.57225,5.6058 2.02849,12.418848 1.15787,17.290518 -1.77169,9.91376 -3.72017,11.17417 -17.28522,11.1812 -4.57427,0.002 -8.01597,0.30894 -8.01597,0.71401 0,1.46765 6.70504,5.28324 10.10239,5.7489 5.71083,0.78275 7.2362,3.67914 8.23313,15.63315 0.75955,9.10771 -3.80903,11.08576 -13.77043,5.96216 l -4.75579,-2.44611 -2.58184,-6.65219 c -1.42001,-3.65869 -2.75336,-7.38066 -2.963,-8.27104 -0.20965,-0.89038 -1.16895,-2.35895 -2.13179,-3.26348 l -1.75061,-1.64462 -0.47655,2.14498 c -0.26211,1.17973 -1.18498,4.32606 -2.05084,6.99184 -2.33616,7.19254 -2.25842,33.67003 0.11385,38.77493 0.85763,1.84554 1.56669,3.75516 1.5757,4.24361 0.0315,1.71072 1.63312,1.86393 3.28288,0.31405 2.97704,-2.79678 9.67338,-2.8114 16.54729,-0.0361 2.20127,0.88874 2.42093,0.79434 5.63851,-2.42324 5.62458,-5.62458 19.43342,-7.74331 26.53441,-4.07125 1.9731,1.02034 2.54059,1.02002 5.49299,-0.003 8.11692,-2.81278 16.67107,-1.39031 18.72313,3.11347 0.73049,1.60326 1.07768,1.67157 6.57921,1.29449 10.2538,-0.70281 14.9681,3.08741 16.2578,13.07102 0.47663,3.68953 0.74604,4.22201 2.02001,3.99239 14.1299,-2.54683 22.10394,5.3113 17.54839,17.2933 -0.55909,1.47051 -0.39432,2.11513 0.82201,3.21589 7.64709,6.92052 7.37189,21.63398 -0.47594,25.44675 l -3.35003,1.62757 1.78036,3.34841 c 2.41138,4.53517 3.86302,13.18687 2.68839,16.02268 -1.89938,4.5855 -10.47802,9.73069 -16.25949,9.7519 -6.37057,0.0234 -6.80776,0.66387 -8.40702,12.3167 -1.71237,12.47693 -7.8474,15.48917 -19.84064,9.74156 l -5.29744,-2.53873 -1.59984,2.16389 c -5.71862,7.73486 -17.70837,8.04025 -23.76569,0.60535 l -1.70158,-2.08856 -2.71794,1.84445 c -6.85453,4.65162 -14.2272,2.24621 -17.77643,-5.79975 -1.75344,-3.97497 -2.34896,-4.409 -5.30722,-3.86799 -7.91422,1.44725 -18.89107,-6.94632 -18.89107,-14.4454 0,-2.83371 -1.23963,-3.9072 -4.5119,-3.9072 -7.32739,0 -9.6345,-3.05237 -10.23235,-13.53771 -0.2897,-5.08107 -0.11968,-6.93275 0.75981,-8.27504 1.04661,-1.59732 1.00222,-1.8813 -0.58199,-3.72305 -3.52264,-4.09532 -5.18496,-14.30582 -2.86768,-17.6142 2.25025,-3.21269 -1.50008,-9.3874 -4.96747,-8.17866 -3.20077,1.11579 -8.49825,-0.49425 -11.98207,-3.64167 l -2.76078,-2.49421 -0.49653,2.93897 c -0.36513,2.16117 -0.13687,3.59823 0.8625,5.43003 3.10566,5.69249 1.34248,23.1849 -2.73026,27.08683 -2.06832,1.98158 -2.2489,2.56045 -2.2489,7.20884 0,7.70877 -4.93906,12.54603 -12.83889,12.57427 -4.01536,0.0144 -4.25482,0.20488 -6.69232,5.3242 -3.68353,7.73631 -15.1812,12.93658 -20.44727,9.24808 -1.42715,-0.99962 -1.72682,-0.84638 -4.25161,2.17407 -4.40707,5.27227 -12.00666,6.35451 -18.114505,2.57965 l -2.58801,-1.59949 -3.52486,1.51635 c -7.9885,3.43657 -19.5101,1.78926 -24.26582,-3.46939 -1.10262,-1.21923 -1.74653,-1.38434 -3.21765,-0.82502 -3.2539,1.23713 -9.77012,0.8185 -13.01326,-0.83603 -4.34921,-2.21879 -5.3599,-5.12952 -5.027,-14.47735 l 0.26624,-7.47604 -3.72836,-0.40843 c -4.43841,-0.48622 -9.67107,-3.0518 -10.89724,-5.34294 -2.01473,-3.76456 -0.45878,-13.15594 2.93076,-17.68942 1.50565,-2.01378 1.68688,-2.63818 0.84697,-2.91815 -7.61127,-2.53709 -6.93524,-18.80456 0.91632,-22.04926 4.86783,-2.01166 5.49009,-2.44403 5.08469,-3.53301 -0.86187,-2.31508 -0.33477,-13.00688 0.74567,-15.12519 2.52822,-4.95685 11.21065,-9.10961 14.90843,-7.13062 1.81294,0.97025 3.73336,0.19755 3.73336,-1.50216 0,-2.07365 3.92137,-4.89962 9.10261,-6.55989 7.14861,-2.29068 9.07646,-2.41613 11.7881,-0.76708 2.24937,1.36792 2.47545,1.37968 3.7825,0.19682 2.65215,-2.40017 0.69576,-2.93333 -14.7476,-4.01902 -7.33125,-0.5154 -10.57782,-1.07051 -12.75405,-2.18074 -3.38897,-1.72892 -4.62827,-1.08544 -4.62827,2.40311 0,8.24799 -14.34992,19.83512 -20.07623,16.21095 -0.59392,-0.37589 -1.29961,-2.58822 -1.60188,-5.02186 -1.75044,-14.09324 -2.39738,-18.15745 -3.43494,-21.57905 -1.84134,-6.07232 0.13538,-9.98796 5.04221,-9.98796 4.495,0 5.22195,1.30302 4.88967,8.76449 -0.49664,11.15193 2.08903,19.55005 4.35181,14.13447 1.86924,-4.47373 1.37272,-8.4522 -2.49622,-20.00099 -1.99751,-5.96258 -4.06056,-13.72275 -4.58456,-17.24482 l -0.95272,-6.40376 -2.40095,2.54575 c -1.32053,1.40016 -3.06432,2.54575 -3.8751,2.54575 -5.8518,0 -6.58657,13.97678 -1.75027,33.29356 4.84816,19.36417 5.92529,26.95011 4.57764,32.23905 -0.37788,1.483 -1.0714,5.04523 -1.54118,7.91606 -1.991,12.16724 -4.86416,17.52545 -16.51737,30.80361 -2.66124,3.03233 -2.25671,3.91486 1.40476,3.06462 4.78408,-1.11092 12.60809,-0.83803 13.93206,0.48594 2.81373,2.81374 0.49251,8.52196 -3.46543,8.52196 -1.27359,0 -4.09875,0.56209 -6.27814,1.24908 -3.12853,0.98618 -4.50997,1.08106 -6.56356,0.45079 -2.07911,-0.63809 -2.78019,-0.5824 -3.49388,0.27752 -1.18675,1.42996 -1.19177,11.07924 -0.008,14.56963 l 0.93371,2.75209 3.71528,-2.812 c 5.97819,-4.52471 12.36219,-7.65867 15.0676,-7.3968 6.52323,0.63142 0.84556,10.05225 -8.84913,14.68313 -6.14958,2.93749 -6.60371,4.04924 -3.00221,7.34977 2.49869,2.28988 2.92241,2.44357 4.03857,1.46485 0.68584,-0.60139 1.9931,-1.3207 2.90502,-1.59847 2.26988,-0.69138 9.09377,-5.44051 11.50397,-8.00626 3.60335,-3.83589 7.34397,-2.11666 7.34397,3.37537 0,3.26219 -1.62241,6.45086 -3.28223,6.45086 -0.52837,0 -1.53243,0.6318 -2.23125,1.40398 -0.69882,0.77219 -2.76414,1.97438 -4.58959,2.67153 -4.08764,1.56108 -4.13643,2.18822 -0.32163,4.13438 2.82921,1.44336 3.02051,1.45467 3.40933,0.20158 1.4984,-4.82913 5.12337,-5.25097 5.20002,-0.60515 0.0463,2.80601 0.19359,2.98953 2.84081,3.53955 1.53559,0.31904 3.4225,0.91753 4.19314,1.32996 5.15055,2.7565 33.55881,5.52816 56.299325,5.49288 10.94736,-0.017 18.4967,-1.46922 25.13671,-4.83542 1.52162,-0.7714 3.25085,-1.40254 3.84275,-1.40254 2.8559,0 21.98325,-10.59664 22.8338,-12.65002 3.1804,-7.67818 15.85495,-11.16056 22.23342,-6.10872 6.35983,5.03708 19.34967,11.00609 26.99185,12.40313 9.92209,1.81381 15.94671,3.73408 21.55466,6.87022 11.76194,6.57765 23.73477,8.79456 35.1164,6.5022 16.05736,-3.23408 43.18712,-2.54239 47.97421,1.22314 1.01651,0.79959 2.13082,1.45546 2.47625,1.45749 0.34543,0.002 1.63471,0.82885 2.86507,1.83736 2.41314,1.97803 4.40176,2.4603 3.93872,0.9552 z M 39.486205,289.53753 c 0,-1.47564 -0.15066,-1.63105 -0.72283,-0.74567 -0.39756,0.61518 -0.72284,1.95739 -0.72284,2.98269 0,1.47564 0.15065,1.63105 0.72284,0.74567 0.39755,-0.61518 0.72283,-1.95739 0.72283,-2.98269 z m 216.379545,-0.004 c -3.06565,-2.22075 -3.09435,-2.28521 -3.07086,-6.89747 0.0306,-6.00356 0.93379,-7.13443 6.41508,-8.0321 10.29355,-1.68575 11.75305,-0.90377 11.5404,6.18317 -0.28533,9.50915 -7.76464,13.90409 -14.88462,8.7464 z m 10.95539,-5.6271 c 2.44121,-5.35787 0.93636,-7.18707 -5.1245,-6.22898 -6.56362,1.03757 -7.97123,4.86912 -3.19609,8.69986 l 2.74667,2.20347 2.35523,-1.38962 c 1.29537,-0.76429 2.74378,-2.24242 3.21869,-3.28473 z m 16.14975,2.72654 c -6.94364,-3.2148 -9.6097,-10.05814 -4.47403,-11.48409 1.23035,-0.34162 3.747,-1.1331 5.59253,-1.75886 8.65135,-2.93337 9.89444,-2.11051 9.20119,6.09069 -0.71997,8.51718 -3.38386,10.36344 -10.31969,7.15226 z m 6.8025,-6.61433 c 0.91247,-4.109 0.33225,-5.49208 -1.62319,-3.86921 -0.60146,0.49917 -2.65638,1.19955 -4.5665,1.55639 -4.47204,0.83547 -4.61104,1.03862 -2.09366,3.0601 5.73537,4.60557 7.12246,4.48044 8.28335,-0.74728 z m -55.05978,5.97742 c -5.26764,-6.03893 -3.05271,-17.34171 3.39683,-17.33408 2.6261,0.003 7.16922,2.44172 7.26759,3.90103 0.4296,6.37294 -0.56264,11.40217 -2.66423,13.50376 -1.66364,1.66363 -6.52483,1.62068 -8.00019,-0.0707 z m 6.51095,-5.17534 c 1.67345,-4.00512 1.40006,-5.88607 -1.1159,-7.6776 l -2.22312,-1.583 -1.50245,2.46432 c -2.08578,3.42106 -1.7963,5.42298 1.29729,8.97135 1.41021,1.61753 2.14897,1.16414 3.54418,-2.17507 z M 80.266985,278.02787 c -8.92353,-2.39822 -10.48683,-15.30109 -1.71622,-14.16504 1.28869,0.16692 4.27013,0.43246 6.62542,0.59008 5.90413,0.39512 6.52989,1.09095 6.52989,7.26112 0,7.1205 -2.76302,8.64555 -11.43909,6.31384 z m 7.68449,-3.35428 c 2.53698,-4.74039 1.074,-6.58297 -5.72871,-7.21522 -5.91949,-0.55016 -6.87023,0.19496 -4.9562,3.88427 1.44394,2.78318 1.20879,2.61807 5.29295,3.71664 4.68042,1.25896 4.50506,1.2715 5.39196,-0.38569 z m 15.312505,3.03764 c -6.207505,-3.83435 -6.711635,-9.04219 -1.14693,-11.84831 7.04939,-3.55479 11.2135,-1.25309 11.2135,6.19824 0,6.25113 -4.76436,8.92522 -10.06657,5.65007 z m 7.08388,-4.64127 c 0,-0.82618 -0.51294,-2.49405 -1.13986,-3.70639 l -1.13986,-2.20424 -2.96134,1.51076 c -3.19672,1.63085 -3.39076,1.99382 -2.00553,3.75168 2.95384,3.74842 7.24659,4.13239 7.24659,0.64819 z m 105.45175,2.32351 c -6.48092,-2.62182 -7.65164,-11.73978 -2.16356,-16.85052 3.8141,-3.55186 2.97012,-5.16632 -1.33011,-2.54438 -1.84224,1.12325 -3.75448,1.47063 -8.10724,1.47276 -7.52442,0.004 -8.80381,-0.97427 -9.36454,-7.15816 -0.54811,-6.04466 0.28323,-7.3175 6.84105,-10.47401 3.01235,-1.44995 6.20777,-3.3171 7.10094,-4.14921 2.45065,-2.28312 4.41611,-0.7899 10.4513,7.94016 2.85386,4.12818 7.20651,9.95589 9.67255,12.95045 5.94233,7.21588 6.10939,9.66084 1.00403,14.69397 -5.00782,4.93698 -9.11638,6.13681 -14.10442,4.11894 z m 7.18173,-3.3979 c 1.20999,-0.62571 2.19998,-1.64068 2.19998,-2.25547 0,-0.6148 0.76878,-1.41011 1.70841,-1.76736 4.01325,-1.52583 3.94484,-2.64096 -0.48217,-7.85927 -2.27257,-2.67878 -6.3225,-7.97569 -8.99984,-11.7709 -2.67734,-3.79522 -5.50572,-7.71017 -6.28531,-8.69989 l -1.41743,-1.7995 -0.86513,1.61652 c -0.47582,0.88908 -2.802,2.59424 -5.16928,3.78924 -5.4084,2.73015 -6.21077,3.6867 -5.61042,6.68845 0.90724,4.53622 6.2758,5.94675 11.65682,3.06269 8.6267,-4.62363 13.47047,1.08927 6.88913,8.12525 -3.76942,4.02981 -3.94612,4.75886 -1.9042,7.85642 2.53198,3.84096 4.96633,4.72709 8.27944,3.01382 z M 55.913825,271.66724 c -1.99326,-1.53203 -2.984,-14.18245 -1.35976,-17.36223 1.65487,-3.23975 11.15001,0.69588 12.24969,5.07735 2.46155,9.80761 -4.25501,17.38453 -10.88993,12.28488 z m 6.51794,-2.44879 c 2.21857,-2.8128 1.78356,-7.2004 -0.97997,-9.88415 -3.48655,-3.38591 -3.81029,-3.30675 -4.4135,1.07915 -0.89493,6.5069 2.64627,12.28801 5.39347,8.805 z m 60.035565,0.98307 c -9.6394,-6.98275 -9.1332,-12.45161 1.58383,-17.11149 6.26808,-2.72543 8.11208,-2.28445 11.21923,2.68299 6.67523,10.67177 -2.97541,21.54761 -12.80306,14.4285 z m 9.73834,-2.88806 c 2.59198,-2.70544 2.52752,-4.72142 -0.29001,-9.0696 l -2.29371,-3.5398 -4.97659,2.54557 c -6.78167,3.46887 -6.72824,3.20604 -1.61431,7.94064 5.16941,4.78596 6.35964,5.0614 9.17462,2.12319 z m 137.959,-3.26476 c -5.43708,-2.63806 -8.67835,-16.2963 -4.74029,-19.97499 6.84885,-6.39778 13.94716,-0.088 14.2695,12.6844 0.17612,6.97907 -3.83941,10.05126 -9.52921,7.29059 z m 5.5732,-3.74103 c 3.21233,-3.21233 -2.7179,-16.82156 -6.45783,-14.82001 -3.52569,1.8869 -3.28187,5.09549 0.93385,12.28906 2.02235,3.45089 3.79284,4.26208 5.52398,2.53095 z m 29.72745,2.6347 c -1.07532,-1.07532 -0.44654,-6.0771 0.99423,-7.90874 0.82024,-1.04276 1.49134,-2.35556 1.49134,-2.91733 0,-3.39109 5.29394,-5.82341 7.3314,-3.36842 1.14282,1.37702 2.21207,8.95923 1.52526,10.81585 -1.05091,2.84089 -9.39456,5.32631 -11.34223,3.37864 z m 6.54681,-4.37802 c 1.24342,-1.15236 1.86923,-2.34267 1.60023,-3.04368 -0.24297,-0.63316 -0.44176,-1.6271 -0.44176,-2.20874 0,-0.58163 -0.33556,-1.05752 -0.74568,-1.05752 -0.41012,0 -0.74567,0.4565 -0.74567,1.01445 0,0.55795 -0.81025,2.20842 -1.80055,3.66771 -2.61444,3.8526 -1.32706,4.83485 2.13343,1.62778 z m -67.9263,2.40136 c -5.43992,-2.97074 -2.90018,-15.98928 3.63638,-18.63983 l 3.52626,-1.42988 3.55762,1.76443 c 3.47548,1.72368 3.56271,1.85108 3.7774,5.51733 0.45096,7.70066 -8.82715,15.8846 -14.49766,12.78795 z m 5.26551,-4.18805 c 4.63608,-3.05622 7.3301,-8.70886 5.17682,-10.86213 -4.01084,-4.01084 -11.54102,4.31875 -9.28014,10.26533 0.91993,2.41959 1.26265,2.46944 4.10332,0.5968 z m -143.08201,-1.25159 c -2.01193,-2.01193 -5.61552,-10.76559 -5.61011,-13.62779 0.0129,-6.82776 10.18295,-7.79402 15.43439,-1.46641 1.17595,1.41693 1.4051,11.0988 0.31107,13.14302 -1.71237,3.19959 -7.72872,4.35781 -10.13535,1.95118 z m 6.50197,-3.87348 c 1.3127,-1.12734 1.67187,-4.29151 0.83957,-7.39642 -0.80377,-2.99851 -6.51249,-5.57131 -8.32975,-3.75405 -1.48106,1.48105 -1.48032,1.49091 0.42415,5.68587 3.55146,7.82273 3.95593,8.13553 7.06603,5.4646 z m -33.841885,2.98298 c -6.06093,-4.24525 3.45492,-23.64439 10.50125,-21.40797 5.81803,1.84657 8.81412,6.66484 6.55203,10.53689 -0.5066,0.86716 -1.64253,2.88047 -2.52428,4.47403 -2.99418,5.41131 -10.94093,8.91022 -14.529,6.39705 z m 7.19439,-4.70563 c 1.78023,-1.27846 3.63283,-3.28065 4.11691,-4.44931 0.48407,-1.16866 1.34736,-2.5126 1.91842,-2.98653 1.83754,-1.52503 1.25004,-4.13881 -1.15411,-5.13464 -4.85731,-2.01196 -12.20928,8.04004 -10.03142,13.71546 0.64287,1.67528 1.48321,1.48845 5.1502,-1.14498 z m 55.169435,4.81114 c -6.04181,-3.19233 -6.57169,-6.88173 -1.84684,-12.85911 4.50765,-5.70261 8.87756,-5.26333 13.75641,1.38283 2.39006,3.25583 2.67533,9.53491 0.52172,11.48389 -1.79429,1.62382 -9.3524,1.61919 -12.43129,-0.008 z m 9.66117,-2.74348 c 1.96754,-1.4387 1.06675,-4.10159 -2.70068,-7.98367 -2.86316,-2.95029 -3.19629,-3.10732 -3.92605,-1.85063 -0.43858,0.75526 -1.71411,2.44935 -2.83452,3.76463 -1.9143,2.24726 -1.95925,2.45944 -0.74567,3.51995 3.72829,3.25802 7.83522,4.28395 10.20692,2.54972 z M 41.373225,247.29777 c -7.79529,-4.07212 -4.31606,-15.1765 4.7551,-15.1765 4.80179,0 6.24003,1.85534 6.66975,8.60398 0.46184,7.25302 -4.57512,10.15069 -11.42485,6.57252 z m 7.14854,-3.14816 c 3.80437,-3.0806 -0.52446,-10.16936 -4.92777,-8.06957 -4.4068,2.10146 -4.27154,5.85325 0.2982,8.27082 2.63182,1.39235 2.66325,1.39098 4.62957,-0.20125 z m 207.332655,-2.49495 c -9.09977,-4.40971 -6.9776,-19.97279 2.72347,-19.97279 8.73886,0 13.58076,3.4839 13.58076,9.7718 0,9.16632 -8.04825,14.20182 -16.30423,10.20099 z m 7.37666,-2.56386 c 8.36643,-5.59462 7.95426,-11.01181 -1.01346,-13.31984 -5.14493,-1.32414 -5.10695,-1.34068 -7.31495,3.18534 -1.92855,3.95322 -1.89865,4.82441 0.2701,7.87013 2.42541,3.40617 5.18936,4.18283 8.05831,2.26437 z m 12.30372,0.22165 c -1.7454,-1.27627 -0.96753,-12.98307 0.91056,-13.70376 1.4258,-0.54712 17.24765,1.25385 19.01553,2.16451 0.99641,0.51326 1.30493,1.61534 1.30493,4.66138 0,5.45695 -1.31913,6.25239 -11.33254,6.83365 -4.21902,0.2449 -7.87569,0.57182 -8.12592,0.72647 -0.25024,0.15465 -1.04789,-0.15236 -1.77256,-0.68225 z m 16.01131,-4.4846 c 5.03752,-2.33068 0.42029,-5.00492 -10.06263,-5.82817 l -2.97876,-0.23393 -0.46876,3.35552 c -0.25782,1.84554 -0.30803,3.6325 -0.11159,3.97102 0.47873,0.82494 11.27104,-0.17687 13.62174,-1.26444 z m -58.06499,1.70402 c -7.05967,-5.62099 -5.41178,-10.37764 3.59367,-10.37318 8.08133,0.004 10.47669,1.54645 10.47669,6.74631 0,7.92528 -6.55097,9.6139 -14.07036,3.62687 z m 9.64535,-0.70847 c 3.32431,-1.77912 0.61714,-5.79167 -4.35769,-6.45894 -5.86991,-0.78731 -6.76138,0.90413 -2.25937,4.28688 4.29096,3.22417 4.51423,3.29746 6.61706,2.17206 z m -90.83457,0.79198 c -1.74301,-0.79118 -3.20736,-1.70658 -3.25413,-2.03422 -0.51639,-3.61812 -0.41448,-4.99925 0.49788,-6.74826 0.58812,-1.12741 1.07137,-3.14038 1.0739,-4.47327 0.007,-3.36084 2.21175,-5.38298 5.76166,-5.28293 4.81188,0.13562 5.42801,1.26428 5.42801,9.94338 0,10.2793 -1.93782,12.03123 -9.50732,8.5953 z m 6.15179,-8.60552 c 0,-5.80554 -0.0454,-5.95516 -1.8078,-5.95516 -1.55389,0 -1.93252,0.52369 -2.69562,3.72836 -0.48829,2.0506 -1.12734,4.29099 -1.42011,4.97866 -0.38577,0.9061 0.0484,1.56771 1.57711,2.40331 3.81454,2.08507 4.34642,1.45422 4.34642,-5.15517 z m -64.978435,6.08847 -3.62336,-2.49699 v -5.50445 -5.50443 l 3.03899,-1.67641 c 6.23678,-3.4404 18.137145,-0.39858 17.179195,4.39114 -0.25184,1.2592 -0.45789,3.57179 -0.45789,5.13908 0,6.53102 -9.853415,9.98224 -16.136935,5.65206 z m 9.659535,-3.10532 c 6.88221,-5.25496 5.65894,-10.05681 -2.56196,-10.05681 -8.030905,0 -10.645495,4.36005 -6.060485,10.10638 2.59695,3.25474 4.30781,3.24491 8.622445,-0.0496 z m 94.50311,4.8438 c -3.49264,-0.82225 -4.51047,-2.50054 -4.51047,-7.43728 0,-5.49296 0.60872,-5.97199 7.58867,-5.97199 6.60975,0 7.0719,0.36646 8.8449,7.01359 1.59273,5.97126 -3.07973,8.47761 -11.9231,6.39568 z m 9.25261,-2.91834 c 0.23596,-0.38178 0.0971,-0.89928 -0.30855,-1.14999 -0.40567,-0.25072 -1.09518,-1.78388 -1.53226,-3.40705 -1.24043,-4.60663 -8.93958,-4.20861 -8.93958,0.46215 0,3.12357 9.21696,6.62459 10.78039,4.09489 z m 104.64549,0.71999 c -1.40593,-1.13845 -3.10653,-11.67168 -2.26146,-14.00719 0.55014,-1.52045 8.63821,-1.22055 10.05458,0.37284 2.69018,3.02636 3.62235,11.15881 1.49461,13.03933 -1.88294,1.66417 -7.5213,2.02539 -9.28773,0.59502 z m 6.01334,-2.92768 c 1.61457,-1.02301 0.36568,-6.5869 -1.79653,-8.00364 -3.25775,-2.13455 -4.38749,0.93673 -2.23743,6.08256 1.08612,2.59945 2.15782,3.10982 4.03396,1.92108 z m -247.113545,1.64818 c -1.67741,-1.67742 -1.13419,-7.98774 0.85724,-9.95788 1.75185,-1.73315 12.94209,-2.28645 14.81447,-0.73251 2.34836,1.94896 1.50985,8.75445 -1.2889,10.46088 -3.23639,1.97327 -12.49137,2.12095 -14.38281,0.22951 z m 12.59181,-3.89422 c 2.42306,-2.42307 0.93527,-4.11565 -3.86586,-4.39798 -4.6009,-0.27055 -8.32726,3.56463 -5.52816,5.68961 1.88165,1.42848 7.43785,0.66453 9.39402,-1.29163 z m 29.574875,2.76774 c -1.83944,-0.68045 -2.13667,-6.90209 -0.44055,-9.22167 1.57228,-2.15022 16.62667,-2.17158 18.99645,-0.0269 3.38617,3.06443 1.6312,7.81212 -3.07202,8.31072 -1.34322,0.1424 -5.03933,0.53644 -8.21358,0.87566 -3.17425,0.3392 -6.44588,0.36722 -7.2703,0.0623 z m 13.04165,-4.08093 c 4.29392,-0.57978 4.62395,-1.37023 1.15211,-2.75938 -6.57493,-2.63077 -13.8831,-0.87749 -12.40442,2.9759 0.48155,1.25492 0.33346,1.25777 11.25231,-0.21652 z m -82.986905,-2.22058 c -3.76557,-1.88452 -5.3752,-4.40799 -5.3752,-8.42685 0,-5.46023 1.04978,-6.31519 8.15014,-6.63764 8.06442,-0.36622 8.57967,0.0791 8.00622,6.91918 -0.70451,8.40339 -4.5142,11.28166 -10.78116,8.14531 z m 6.87614,-6.28848 c 1.48687,-5.00682 1.01992,-5.90868 -3.05924,-5.90868 -7.86502,0 -8.34424,5.36399 -0.83124,9.30445 2.29144,1.20183 2.60692,0.92647 3.89048,-3.39577 z m 193.686575,4.08286 c -7.87652,-9.55557 0.0851,-25.22136 9.18152,-18.06613 5.80733,4.56805 6.37841,12.22145 1.28619,17.2371 -4.61248,4.54312 -7.23504,4.75083 -10.46771,0.82903 z m 8.3321,-3.91287 2.80189,-2.86939 -1.8313,-4.14089 c -2.10767,-4.76582 -4.18591,-5.96267 -6.59151,-3.79605 -3.33873,3.00705 -3.23462,8.22047 0.23797,11.91688 2.12384,2.26072 2.08271,2.26921 5.38295,-1.11055 z m 15.02407,2.25035 c -4.34854,-1.45226 -5.52775,-4.75785 -2.80085,-7.85136 0.77386,-0.8779 1.98439,-2.5256 2.69007,-3.66157 5.22993,-8.41884 17.8008,-8.97478 16.11447,-0.71265 -0.31186,1.52792 -0.94218,4.62359 -1.40072,6.87924 -1.35836,6.6821 -5.76857,8.29673 -14.60297,5.34634 z m 8.96707,-2.65818 c 2.92456,-2.13848 4.37957,-12.30389 1.77063,-12.37047 -1.27221,-0.0324 -6.84884,4.8286 -8.45106,7.36668 -1.01098,1.60149 -2.27461,3.07185 -2.80806,3.26745 -0.53346,0.19561 0.0368,0.59415 1.26709,0.88565 1.23036,0.2915 3.0759,0.80971 4.10119,1.15157 2.57732,0.85937 2.52861,0.86292 4.12021,-0.30088 z m -71.97634,1.0402 c -0.61518,-0.39756 -2.73444,-0.72797 -4.70947,-0.73425 -6.21483,-0.0198 -9.4583,-3.82206 -9.4583,-11.08793 0,-8.06834 10.0096,-11.36012 19.65831,-6.4649 6.71619,3.40743 7.16203,5.116 3.40651,13.05454 -2.85208,6.02882 -5.37181,7.51073 -8.89705,5.23254 z m 5.55299,-7.50232 c 2.07363,-4.62067 2.09211,-6.66544 0.0602,-6.66544 -0.62954,0 -2.39675,-0.67111 -3.92714,-1.49135 -8.75584,-4.69284 -16.16632,1.99174 -10.32678,9.31521 1.55444,1.94946 2.17146,2.18459 5.38457,2.05191 1.99592,-0.0824 4.13227,0.17333 4.74745,0.56831 1.76777,1.13503 1.92013,0.99329 4.06165,-3.77864 z m -102.67675,5.49461 c -4.16441,-2.3179 -4.55047,-4.32646 -2.05059,-10.66871 0.82024,-2.08096 1.49134,-4.38376 1.49134,-5.11733 0,-4.61364 10.28739,-7.27367 13.3031,-3.4398 3.60176,4.57888 0.73777,15.64286 -5.06079,19.5505 -3.11148,2.09683 -3.35069,2.08672 -7.68306,-0.32466 z m 9.30841,-8.5171 c 2.38472,-4.69875 2.4752,-5.67436 0.7358,-7.93397 -2.45516,-3.18946 -5.65219,-0.98258 -7.94897,5.48708 -2.26895,6.3913 -2.23356,5.91614 -0.60389,8.10818 l 1.30492,1.75523 2.23702,-1.70037 c 1.23036,-0.9352 3.15416,-3.50747 4.27512,-5.71615 z m -29.503675,8.53635 c -0.87235,-0.87234 -0.53293,-6.74807 0.43497,-7.52966 3.75438,-3.03168 10.41741,-1.76975 10.10781,1.91434 -0.34495,4.10463 -7.98449,8.17362 -10.54278,5.61532 z m 7.268,-5.57251 c -0.38805,-0.62789 -2.37404,-0.0851 -3.84213,1.05017 -1.78641,1.38137 -0.067,2.0457 2.05316,0.79328 1.17983,-0.69693 1.98487,-1.52649 1.78897,-1.84345 z m 55.388155,1.00905 c -3.80771,-4.20747 -4.79223,-13.30836 -1.66159,-15.35964 5.81354,-3.80918 11.58415,0.92916 11.58415,9.51193 0,3.19824 -0.36389,5.75421 -0.89481,6.28512 -1.42351,1.42352 -7.61512,1.12352 -9.02775,-0.43741 z m 6.78342,-5.00599 c 0.38295,-5.27895 -5.3936,-10.23134 -7.01267,-6.01213 -0.83562,2.17759 3.21159,9.50354 5.10201,9.23526 1.3945,-0.1979 1.73256,-0.76818 1.91066,-3.22313 z m 150.45287,4.59424 c -5.9583,-5.4874 -3.11214,-13.13296 4.89844,-13.15848 4.36064,-0.0139 5.33557,1.11677 5.67056,6.57638 0.42225,6.88149 -5.94099,10.84434 -10.569,6.5821 z m 6.67012,-3.74792 c 2.27908,-3.47831 -0.53335,-7.19243 -4.34806,-5.74207 -2.31621,0.88061 -2.37268,1.19453 -0.86426,4.80469 1.33437,3.19358 3.48105,3.57964 5.21232,0.93738 z m -138.32474,-0.97917 c -2.1262,-0.73745 -8.22542,-8.0862 -10.52526,-12.68153 -6.86798,-13.72298 1.15827,-27.07238 11.71774,-19.48915 l 3.30046,2.37021 3.97086,-1.2517 c 9.96452,-3.14104 15.3229,-1.32574 15.97015,5.41031 0.77637,8.07981 0.0101,9.85072 -7.6074,17.58044 -8.0983,8.21765 -11.57449,9.88306 -16.82655,8.06142 z m 5.45514,-3.32856 c 3.41996,-1.78807 14.47311,-13.65458 15.40064,-16.53391 2.57956,-8.00769 -2.80529,-11.82336 -11.26704,-7.98375 -4.63321,2.10237 -6.66208,1.8891 -10.41589,-1.09489 -9.16914,-7.28876 -12.40904,5.38472 -4.41606,17.27424 5.67744,8.44517 7.61122,9.95236 10.69835,8.33831 z m -93.071575,0.31524 c -6.76899,-1.64904 -4.91788,-9.65193 1.94237,-8.39744 3.73908,0.68373 4.63604,1.54141 4.85042,4.63802 0.27145,3.92084 -1.68519,5.00372 -6.79279,3.75942 z m 2.62481,-4.29253 c -1.00921,-1.21602 -2.99765,-1.55087 -2.99765,-0.5048 0,0.6828 3.16648,2.33493 3.6482,1.90347 0.16098,-0.14418 -0.13177,-0.77358 -0.65055,-1.39867 z m -39.08137,2.93951 c -3.41155,-3.41155 -3.6517,-12.829 -0.39699,-15.56767 4.90079,-4.12373 16.72024,1.46965 16.20026,7.66655 -0.44122,5.25813 -12.44483,11.25956 -15.80327,7.90112 z m 9.79879,-6.43056 c 3.1607,-1.98391 3.11533,-2.13074 -1.52758,-4.94464 -7.41359,-4.49311 -10.33255,-0.8556 -6.01436,7.49486 l 1.09185,2.1114 2.01333,-1.57024 c 1.10733,-0.86364 3.10387,-2.25475 4.43676,-3.09138 z m 152.542985,4.19794 c -8.63865,-6.80934 -6.87233,-20.0035 2.50581,-18.71808 11.2405,1.54068 15.52319,13.53461 6.68276,18.71544 -4.04258,2.36911 -6.18558,2.36973 -9.18857,0.003 z m 7.41694,-3.73448 c 4.21142,-2.86174 2.6248,-8.08884 -3.34396,-11.0166 -6.62402,-3.24917 -8.52215,3.69081 -2.79386,10.21498 2.81548,3.20665 2.63348,3.18288 6.13782,0.80162 z m 70.26625,-0.49609 c -1.64048,-0.36605 -3.98935,-0.85844 -5.21971,-1.0942 -8.61558,-1.65093 -5.33752,-13.6691 3.72836,-13.6691 6.07559,0 8.09928,2.5397 7.68719,9.64726 -0.28577,4.92876 -1.72163,6.11439 -6.19584,5.11604 z m 3.35552,-6.21459 c 0,-4.81198 -5.01737,-7.19109 -7.95735,-3.77317 -2.6251,3.05186 -2.28858,4.75144 1.05988,5.35285 1.53795,0.27624 3.27933,0.75983 3.86974,1.07465 1.83229,0.97702 3.02773,-0.071 3.02773,-2.65433 z m -156.13994,4.93179 c -3.49967,-2.30715 -4.7611,-5.08998 -5.33301,-11.76518 l -0.52386,-6.11425 2.03686,-0.51121 c 7.82174,-1.96313 17.53663,4.8507 17.53663,12.29983 0,5.72732 -8.5255,9.51303 -13.71662,6.09081 z m 7.82006,-3.82187 c 4.57621,-2.3346 2.61095,-7.02295 -4.26302,-10.16997 -6.13519,-2.80878 -6.62779,-2.27647 -5.07782,5.48702 0.34262,1.71613 4.41715,6.2094 5.63073,6.2094 0.39491,0 2.06446,-0.68691 3.71011,-1.52645 z m 85.26759,0.55731 c -2.4107,-1.33662 -1.37249,-7.85738 1.74781,-10.97768 4.32838,-4.32837 16.85077,-6.13245 20.65448,-2.97566 1.51596,1.25814 1.57689,11.04276 0.0815,13.08783 -1.11869,1.52989 -19.97626,2.25582 -22.48379,0.86551 z m 19.77709,-4.20154 c 0.85431,-1.59629 1.0095,-4.5276 0.33302,-6.29046 -1.32775,-3.46005 -12.31732,-1.90134 -15.97629,2.26601 -4.20252,4.78641 -3.35382,5.46677 6.81948,5.46677 7.1975,0 8.13379,-0.15304 8.82379,-1.44232 z m 7.98007,4.67356 c -0.72817,-0.72816 -0.60629,-5.12868 0.19695,-7.11093 0.38173,-0.94207 0.89039,-2.63137 1.13034,-3.75401 0.8737,-4.08763 10.08797,-6.69203 14.18306,-4.00882 2.19003,1.43497 2.81247,10.09409 0.91238,12.69263 -1.48713,2.03375 -14.80177,3.8021 -16.42273,2.18113 z m 13.11139,-4.8723 c 4.28032,-4.94263 -2.10533,-10.66496 -6.84788,-6.13655 -1.33036,1.27029 -3.76393,7.54306 -3.1605,8.14649 1.01825,1.01826 8.72656,-0.52977 10.00838,-2.00994 z m -201.000955,3.29153 c -6.82158,-7.53775 -3.65634,-14.96877 6.41256,-15.05477 3.43396,-0.0293 9.47537,6.13133 9.47537,9.66241 0,2.67605 -2.36256,6.10191 -3.45481,5.00967 -0.25463,-0.25464 -1.63576,0.0271 -3.06917,0.62597 -3.60864,1.50778 -7.87968,1.39682 -9.36395,-0.24328 z m 10.60027,-3.88749 c 2.78102,0 2.40658,-1.53008 -1.18287,-4.83359 -7.229,-6.65314 -13.04604,-1.56704 -6.49141,5.67575 1.02945,1.13753 1.41176,1.15975 3.67597,0.2137 1.38987,-0.58072 3.18911,-1.05586 3.99831,-1.05586 z m 10.69706,-4.21655 c -3.84672,-3.84672 -1.55588,-11.44255 3.45097,-11.44255 4.928015,0 9.436755,8.86324 5.946385,11.68939 -2.113945,1.71168 -7.582485,1.56804 -9.397355,-0.24684 z m 6.39942,-2.72041 c 0.85364,-1.02856 -1.41051,-5.73946 -2.75849,-5.73946 -1.36749,0 -2.45518,2.18888 -1.92755,3.879 0.86811,2.78073 3.16535,3.69279 4.68604,1.86046 z m 14.408175,3.32709 c -3.66542,-3.66542 0.69144,-12.82479 6.07489,-12.77119 5.46525,0.0544 9.72049,9.42087 5.86508,12.90997 -2.00089,1.81078 -10.08436,1.71683 -11.93997,-0.13878 z m 8.36788,-2.57115 c 1.60393,-1.17282 1.04869,-4.24169 -1.12302,-6.20707 -1.75576,-1.58893 -3.91231,0.0427 -4.78597,3.62107 -0.70606,2.89198 3.17043,4.58848 5.90899,2.586 z m 29.52638,0.32424 c -5.167,-4.24072 -13.05514,-7.08482 -19.07857,-6.87887 -2.66264,0.091 -3.56568,-0.34708 -6.9066,-3.35084 l -3.84344,-3.4556 -3.15998,1.2492 c -1.73798,0.68706 -4.50218,2.55413 -6.14266,4.14906 -3.89997,3.79167 -5.79036,3.62722 -10.3131,-0.89715 -4.782405,-4.78413 -4.767565,-7.004 0.0706,-10.55553 8.52076,-6.25481 12.39539,-17.41239 8.20567,-23.6295 -8.36709,-12.41594 -31.285635,-1.6532 -25.171305,11.82065 1.54821,3.41168 3.52981,3.91766 3.10165,0.79198 -1.62154,-11.83783 0.34885,-15.58765 8.18642,-15.57948 8.963425,0.009 11.928875,2.1515 12.422335,8.97357 0.79494,10.98993 -7.38148,19.98049 -17.316835,19.04111 -2.90616,-0.27477 -9.98165,-0.75698 -15.72332,-1.07158 -11.26148,-0.61704 -13.85622,-1.40535 -16.75479,-5.09028 -1.32414,-1.68337 -2.09787,-1.99837 -4.48523,-1.826 -3.37403,0.24361 -3.33912,0.29128 -6.62568,-9.04539 -2.30352,-6.544 -3.97627,-18.3449 -2.62764,-18.53747 3.61669,-0.51644 4.64479,-0.24247 7.36602,1.96284 8.47021,6.86437 14.29302,7.11656 21.02563,0.91066 4.72312,-4.35362 6.03508,-7.87883 7.1393,-19.18312 0.22532,-2.3067 4.12035,-2.80475 7.63881,-0.97677 5.12384,2.66205 17.224175,2.25032 23.851215,-0.81156 4.44875,-2.05545 5.66383,-2.92295 5.00995,-3.57683 -0.65388,-0.65388 -1.184,-0.57808 -2.18578,0.31252 -3.81413,3.39082 -11.55229,4.42162 -20.759475,2.76538 -5.09226,-0.91603 -15.68998,-6.86981 -16.50173,-9.270648 -1.56196,-4.61965 0.31329,-6.41809 5.14789,-4.93704 6.80264,2.08395 10.55188,0.45386 18.922215,-8.22694 9.26381,-9.60742 9.27299,-9.6848 2.0304,-17.1176 -7.706825,-7.90924 -1.85673,-11.26455 17.41007,-9.9855 5.07285,0.33676 7.47937,0.18027 9.36895,-0.60924 1.4365,-0.60022 5.92801,-1.18522 10.3242,-1.34469 l 7.78147,-0.28229 0.22521,3.90988 c 0.18867,3.2754 -0.0564,4.19157 -1.51073,5.64582 l -1.73595,1.73595 3.29974,2.55657 c 1.81486,1.40611 4.508,3.5724 5.98477,4.81398 4.09932,3.44649 6.64463,4.47595 10.49037,4.2429 4.15495,-0.25179 6.08202,1.36771 6.40028,5.37878 0.28784,3.6277 -0.79873,4.26499 -5.67893,3.33077 -23.86453,-4.5684 -26.44281,-2.79415 -28.51821,19.624838 l -0.32553,3.51649 3.90917,1.13643 c 4.8017,1.3959 5.27546,1.96537 5.92063,7.11686 0.2825,2.25566 0.69734,5.37627 0.92186,6.9347 0.45528,3.16013 -0.885,5.30208 -3.77091,6.02639 -1.82645,0.45842 -6.17782,8.7433 -5.3206,10.1303 0.84377,1.36525 3.07573,0.8248 6.05501,-1.46617 1.59948,-1.22995 4.20113,-3.23222 5.78144,-4.44949 1.58031,-1.21727 3.88442,-3.81813 5.12026,-5.77969 5.92003,-9.39653 10.84534,-13.18472 13.2988,-10.22848 1.58653,1.91165 1.13698,22.22611 -0.66645,30.11575 -0.98122,4.29262 -1.61127,9.56145 -1.61127,13.47429 0,6.21206 -0.0831,6.52258 -2.5033,9.3558 -1.37681,1.61177 -3.22917,4.35659 -4.11635,6.0996 -2.03835,4.00468 -5.02622,4.34803 -9.05598,1.04068 z m 6.25924,-3.65229 c 0.58373,-1.1288 1.80113,-2.72188 2.70534,-3.54018 2.87237,-2.59946 3.72836,-5.20974 3.72836,-11.36938 0,-3.21799 0.70476,-9.02293 1.56613,-12.89987 1.3864,-6.24004 2.25776,-24.72528 1.21467,-25.76836 -0.1426,-0.14262 -2.25273,2.62846 -4.68915,6.15794 -2.43643,3.52948 -5.22533,7.12858 -6.19758,7.998 -9.16988,8.20006 -9.9488,8.66465 -14.52705,8.66465 -5.12855,0 -5.70255,-0.43023 -5.70255,-4.27415 0,-5.08584 3.10992,-11.40443 6.54506,-13.29797 1.63133,-0.89924 2.66247,-1.97323 2.50088,-2.60482 -0.15123,-0.59109 -0.44555,-2.58469 -0.65405,-4.43023 -0.41782,-3.6983 -1.93735,-5.96538 -3.99834,-5.96538 -3.61267,0 -6.68055,-2.3816 -6.16169,-4.78331 0.18475,-0.8552 0.64536,-4.23932 1.02357,-7.52027 1.64748,-14.291998 2.46436,-16.864048 5.74936,-18.102698 7.61431,-2.87108 11.59625,-3.06289 20.9339,-1.00842 6.49963,1.43006 7.35648,1.29785 5.75783,-0.88845 -0.54208,-0.74134 -1.17992,-1.01914 -1.42596,-0.62105 -0.43872,0.70987 -2.62243,0.32032 -8.64608,-1.54235 -2.60396,-0.80521 -6.60296,-3.7549 -12.04043,-8.8811 -3.44635,-3.24907 -3.71771,-5.76603 -0.9733,-9.02758 3.88735,-4.61985 0.3018,-5.77984 -9.34113,-3.02203 -3.12067,0.89249 -5.93912,1.06059 -11.93075,0.71158 -4.61959,-0.26909 -10.34375,-0.10098 -13.92298,0.40891 l -6.07814,0.86586 3.76189,3.38227 c 8.56595,7.70151 8.02875,12.53741 -2.55049,22.95984 -8.797435,8.66703 -15.789995,11.633048 -20.746175,8.79984 -2.1619,-1.23585 -2.98268,-1.37076 -2.98268,-0.49025 0,0.34553 1.25832,1.2683 2.79627,2.05059 1.53795,0.782298 4.14927,2.310948 5.80296,3.397018 6.77654,4.45057 19.279095,4.5308 23.376595,0.15001 3.2152,-3.437478 8.52899,-1.2158 8.14173,3.40404 -0.60993,7.2762 -20.679225,10.92193 -35.286495,6.41002 -1.39592,-0.43117 -1.57685,0.0466 -2.45185,6.47428 -2.42999,17.85076 -22.42855,25.33373 -33.27981,12.4525 l -2.13128,-2.52999 0.54794,3.66371 c 0.50511,3.37727 4.25022,15.01576 5.65206,17.56458 0.41039,0.74619 1.5587,1.02611 3.60364,0.87846 2.66348,-0.19231 3.12841,0.029 4.13028,1.96644 1.85481,3.58683 7.1292,5.38085 15.81959,5.38085 3.99157,0 9.4079,0.37449 12.03628,0.8322 7.17428,1.24935 13.073485,-2.99347 15.768325,-11.34083 2.54072,-7.87 -6.572835,-13.73162 -12.757705,-8.20545 l -2.42277,2.16475 1.03063,3.61421 c 2.49629,8.75398 1.03082,11.75867 -5.00307,10.25793 -7.25255,-1.80384 -7.32741,-15.73303 -0.11954,-22.2449 8.32916,-7.5249 23.917095,-6.03719 28.380795,2.70864 3.9185,7.67763 -0.78668,21.32742 -9.51157,27.59317 l -3.30728,2.37511 1.89572,0.99326 c 1.04265,0.5463 1.90639,1.23421 1.91943,1.52871 0.13526,3.05388 2.29383,3.36985 5.01333,0.73385 6.421,-6.22386 12.68333,-6.80873 18.15015,-1.69516 2.30802,2.15888 3.96068,3.14546 4.87863,2.91238 3.49961,-0.8886 19.80444,5.12725 21.54961,7.95097 0.76152,1.23218 1.7688,0.75571 2.85894,-1.35239 z m 16.99229,-5.80758 c -6.78395,-4.93632 -6.99255,-6.11018 -3.83742,-21.5941 1.93683,-9.50505 2.17611,-12.03302 2.32055,-24.51541 0.1468,-12.68703 -0.0584,-13.13599 -5.28831,-11.56908 -2.32941,0.69791 -4.06904,0.68738 -8.02426,-0.0485 -2.77752,-0.51682 -7.39891,-1.17931 -10.26975,-1.47221 -9.17252,-0.9358 -9.97075,-2.63876 -7.55503,-16.118158 1.21283,-6.7675 1.23179,-6.79139 6.20929,-7.82472 4.63443,-0.9621 6.07574,-0.83144 16.91863,1.53363 13.18292,2.87549 13.52859,2.54789 14.55614,-13.79507 0.94685,-15.05948 2.38732,-16.87859 13.52853,-17.08466 6.46581,-0.11958 6.38495,-0.30206 6.9878,15.77126 0.51667,13.7758 1.37718,19.46798 2.97463,19.67692 0.44773,0.0585 7.20121,0.021 15.00774,-0.0834 17.42328,-0.23306 17.93755,0.21962 16.41381,14.447978 -0.68029,6.35258 -0.18208,6.15778 -17.42822,6.81431 -16.3174,0.62113 -16.5348,0.70118 -16.5348,6.0881 0,1.87304 -1.07137,6.96624 -2.38081,11.31823 -2.31926,7.70816 -2.38192,8.29247 -2.42343,22.60219 -0.0489,16.83688 0.42008,15.72181 -7.45923,17.73699 -7.97467,2.03958 -8.40443,1.98054 -13.71586,-1.8843 z m 12.93007,-1.24772 c 4.73941,-1.2703 5.76757,-2.55122 5.23672,-6.52412 -1.35961,-10.1755 -0.35153,-22.74624 2.66985,-33.29289 1.188,-4.14694 2.16514,-9.18022 2.17142,-11.18508 0.0186,-5.93198 -0.39529,-5.76324 15.79329,-6.43911 18.7057,-0.78095 17.46725,-0.41537 18.08225,-5.33768 0.29752,-2.38121 0.1553,-5.346 -0.34568,-7.2065 l -0.85114,-3.160908 -14.39245,0.49839 c -7.91584,0.27413 -14.93193,0.29138 -15.59129,0.0383 -1.92322,-0.73801 -2.57869,-4.97762 -3.13587,-20.2827 -0.62215,-17.08952 -1.1177,-17.87035 -9.27093,-14.60807 -4.18301,1.67371 -4.48062,2.56546 -5.2734,15.80107 -0.38511,6.42939 -0.87577,12.24304 -1.09038,12.9192 -1.06028,3.34063 -9.16776,3.61925 -21.45706,0.73738 -7.26789,-1.70434 -12.80946,-1.47586 -13.86085,0.57147 -1.52924,2.97784 -2.54498,13.583878 -1.40965,14.719208 1.41175,1.41175 11.44604,2.7433 21.47353,2.84954 9.20388,0.0975 9.42764,0.12784 9.88822,1.34038 0.9293,2.44649 -0.8585,33.2598 -2.30379,39.70702 -2.69864,12.03805 -2.71621,11.93214 2.75307,16.59252 3.6663,3.12406 5.10715,3.93166 6.33821,3.55258 0.87628,-0.26983 2.93546,-0.85036 4.57593,-1.29006 z M 59.269345,131.16828 c -7.85357,-3.73146 -15.0315,-17.28713 -14.39242,-27.18039 l 0.22466,-3.47769 5.66332,-2.982688 c 3.11482,-1.64048 6.74775,-3.90545 8.07318,-5.03328 1.32543,-1.12783 3.16022,-2.0506 4.07732,-2.0506 2.87494,0 7.90336,6.37389 7.92543,10.046068 0.008,1.25595 1.00001,3.7133 2.23701,5.53883 5.45725,8.05369 1.08425,26.17272 -6.31674,26.17272 -0.97749,0 -2.22413,0.16616 -2.77032,0.36924 -0.5462,0.20308 -2.67084,-0.42792 -4.72144,-1.40221 z m 9.12227,-3.76118 c 3.97863,-3.3478 4.7672,-14.08891 1.39192,-18.95943 -1.11299,-1.60605 -1.93896,-3.82657 -1.93896,-5.21263 0,-4.731118 -5.7665,-10.729928 -7.39298,-7.690808 -0.40392,0.75473 -3.27681,2.59599 -6.3842,4.09169 -7.07708,3.406448 -7.02827,3.237508 -3.73853,12.938438 4.42569,13.05071 12.39915,19.59834 18.06275,14.83274 z m 235.980915,-0.41654 c -2.85863,-1.22333 -5.60006,-8.31682 -5.97711,-15.46586 l -0.32361,-6.13596 4.5667,-4.35895 c 3.35465,-3.202028 4.56671,-4.885348 4.56671,-6.342278 0,-3.41221 3.59178,-6.61568 7.87384,-7.02257 3.43243,-0.32617 4.14248,-0.0685 10.39512,3.77178 3.69108,2.26703 7.7177,4.35948 8.94806,4.64989 4.28588,1.01165 4.90637,4.003118 1.58651,7.648698 -1.28515,1.41124 -1.59725,2.76213 -1.67771,7.2617 -0.12219,6.83277 -1.28181,8.81417 -6.49549,11.09846 -10.55937,4.62644 -19.65603,6.52427 -23.46302,4.89509 z m 12.40117,-4.20522 c 12.07789,-4.13846 14.29302,-6.35042 14.29302,-14.27256 0,-4.74916 0.23003,-5.69055 1.76576,-7.22628 l 1.76576,-1.765758 -2.37867,-0.44624 c -1.30826,-0.24543 -5.27018,-2.26171 -8.80426,-4.48061 -8.25878,-5.18535 -11.91415,-4.60678 -12.97932,2.05436 -0.466,2.91422 -1.46086,4.374158 -4.44103,6.517078 -5.14362,3.69857 -5.848,8.45367 -2.42939,16.40043 2.52601,5.87188 4.2448,6.29085 13.20813,3.21958 z m 40.59333,4.03986 c -3.24146,-0.83995 -5.82716,-4.20922 -10.14198,-13.21543 -5.19949,-10.85277 -5.42181,-13.892588 -1.2573,-17.190938 12.11745,-9.5972 13.77643,-9.1377 16.29428,4.513128 4.57873,24.8241 3.94364,28.18356 -4.895,25.89324 z m 4.12817,-9.51022 c -0.7036,-5.89115 -4.02291,-23.084488 -4.56041,-23.621998 -0.47273,-0.47272 -4.05907,1.80495 -7.71676,4.90092 l -3.02179,2.557718 1.68943,4.31092 c 7.17283,18.30284 15.21659,25.3081 13.60953,11.85244 z m -211.45796,7.24314 c -1.13412,-1.39185 -1.65809,-6.7471 -0.76538,-7.82274 1.36642,-1.64645 5.38888,-1.11718 7.34655,0.96667 1.30097,1.38483 1.43838,1.77058 0.50281,1.41157 -0.99758,-0.38281 -1.28738,-0.0938 -1.28738,1.28402 0,3.78462 -3.85076,6.54848 -5.7966,4.16048 z m 2.81392,-3.54195 c 0,-0.82023 0,-1.65912 0,-1.86418 0,-1.44627 -0.99599,-0.33635 -1.17098,1.30493 -0.12024,1.12783 0.094,2.0506 0.47617,2.0506 0.38215,0 0.69481,-0.67111 0.69481,-1.49135 z M 28.344515,119.92242 c -2.69319,-3.24509 0.71199,-14.56535 4.38132,-14.56535 3.21275,0 4.06767,1.57515 3.60776,6.64711 -0.69585,7.67398 -4.8087,11.75037 -7.98908,7.91824 z m 4.33805,-6.47461 c 0.48751,-2.11199 0.7401,-3.98627 0.56132,-4.16505 -0.53209,-0.5321 -1.76746,2.2406 -2.32687,5.22251 -0.80143,4.27197 0.74984,3.34286 1.76555,-1.05746 z m 5.82354,-15.419758 c -1.52909,-1.68962 -1.59112,-5.4767 -0.13579,-8.29099 0.60406,-1.16812 1.43965,-3.75199 1.85687,-5.74193 0.8014,-3.82227 2.70595,-11.30093 3.6749,-14.43031 1.92179,-6.20679 8.04142,-11.33687 11.90346,-9.97866 4.7741,1.67896 10.52896,18.17751 8.7763,25.16068 -1.59612,6.35945 -22.63993,17.077728 -26.07574,13.28121 z m 9.46291,-4.14629 c 2.33664,-1.03338 6.17573,-3.81592 9.14141,-6.62562 l 5.11295,-4.84404 -1.73113,-6.61006 c -1.62261,-6.19566 -5.16273,-12.7702 -7.25106,-13.46631 -0.98698,-0.32899 -7.02109,8.94594 -7.02109,10.79199 0,2.60388 -3.08825,15.47527 -4.45353,18.56173 -2.04765,4.62905 -0.52468,5.16736 6.20245,2.19231 z m 288.563155,0.28587 c -5.34175,-0.78139 -18.5635,-8.53432 -20.39708,-11.96039 -4.47133,-8.35474 6.88493,-26.81019 16.4972,-26.81019 4.0717,0 6.93509,2.84101 15.7825,15.65911 0.70769,1.0253 2.79827,3.99899 4.64574,6.60819 5.03046,7.10461 4.78878,8.69421 -2.04709,13.46445 -5.76926,4.02592 -6.57599,4.19521 -14.48127,3.03883 z m 10.79764,-4.81255 c 1.92347,-1.41894 4.10274,-3.01282 4.84284,-3.54195 1.44752,-1.03488 1.32571,-1.22932 -12.803,-20.43733 -6.32601,-8.60021 -8.5825,-8.86194 -14.02164,-1.62637 -4.48474,5.96597 -6.95771,10.55549 -6.95771,12.91267 0,4.49766 12.92829,13.5239 20.82891,14.54227 2.2831,0.29428 4.25512,0.57906 4.38224,0.63283 0.12714,0.0538 1.8049,-1.06318 3.72836,-2.48212 z m -264.571805,3.22174 c -1.06897,-0.43292 -3.86697,-0.54489 -6.55927,-0.26251 -7.41857,0.77812 -8.69566,-0.41948 -8.08985,-7.58628 0.34704,-4.10548 0.17983,-6.23905 -0.64337,-8.20925 -1.33509,-3.19531 -1.46687,-10.02947 -0.21748,-11.27886 2.06835,-2.06834 24.68342,-0.39454 29.87415,2.21107 6.769275,3.39799 9.061745,10.58834 5.113545,16.03866 -5.517725,7.617 -13.691615,11.43046 -19.477725,9.08717 z m 10.50178,-5.53671 c 12.137475,-9.33957 8.660145,-16.69676 -8.94258,-18.92026 -14.50941,-1.83277 -16.10581,-1.22072 -13.91169,5.33368 1.46569,4.3784 1.78935,7.94902 0.98861,10.90648 -0.87486,3.23122 0.98564,5.75676 3.32037,4.50725 1.49137,-0.79816 7.79857,-0.27847 10.65337,0.8778 2.58569,1.04728 3.36095,0.78156 7.89192,-2.70495 z m 208.786045,0.35095 c -0.99213,-0.39657 -3.50877,-0.84409 -5.59254,-0.99449 -7.10936,-0.51315 -17.66701,-5.48183 -21.61331,-10.17175 -9.54828,-11.34747 17.20037,-22.38891 35.64981,-14.7157 6.02429,2.50554 6.63485,4.56509 3.31884,11.1951 -0.91316,1.82577 -1.38371,4.38068 -1.38371,7.51315 0,7.05339 -3.9133,9.75813 -10.37909,7.17369 z m 6.03277,-3.40121 c 1.04983,-0.95009 1.36364,-2.3297 1.36364,-5.99508 0,-3.28946 0.46094,-5.66454 1.49134,-7.68428 1.91621,-3.75607 2.05298,-3.40567 -2.0506,-5.25351 -10.54216,-4.74716 -23.77558,-3.3907 -30.49938,3.12627 -3.13666,3.04017 -3.12277,3.25383 0.4314,6.63483 4.78929,4.55595 12.96851,8.13797 19.76496,8.6559 2.4332,0.18544 4.94984,0.64482 5.59254,1.02087 1.67244,0.97856 2.36584,0.88891 3.9061,-0.505 z M 60.798635,59.614282 c -2.42403,-3.17807 -2.40999,-5.39898 0.0471,-7.44275 1.07206,-0.89174 4.49747,-3.932645 7.61203,-6.757571 9.99358,-9.064245 12.80892,-9.251126 12.80892,-0.850251 v 5.618242 l -5.78947,5.96307 c -7.07579,7.28798 -11.04953,8.22716 -14.67856,3.46926 z m 11.77809,-6.5247 c 4.81371,-5.090856 5.70725,-6.433416 5.70725,-8.57523 0,-3.519427 -0.57069,-3.286782 -7.20842,2.938545 -3.21246,3.012865 -6.56818,5.862065 -7.45715,6.331565 l -1.61632,0.85362 1.96879,2.24367 c 2.56213,2.91986 2.04284,3.14868 8.60585,-3.79217 z m 242.099295,7.46563 c -2.91202,-0.63525 -5.25329,-3.17138 -7.11942,-7.71194 -0.68689,-1.67132 -2.07333,-4.884292 -3.08098,-7.139949 -1.46474,-3.278884 -1.78592,-5.073016 -1.60184,-8.948062 l 0.23025,-4.846867 3.35552,-0.214877 c 4.28029,-0.274097 8.46059,2.30124 17.43026,10.738152 7.54347,7.095417 8.28177,9.358913 4.0078,12.287253 -1.33288,0.91324 -3.49107,2.65748 -4.79598,3.87609 -2.57588,2.40555 -4.41874,2.83428 -8.42561,1.9602 z m 5.61022,-4.44757 c 0.75977,-0.83954 2.65731,-2.24354 4.21676,-3.12 2.68945,-1.51155 3.67291,-2.81029 2.12807,-2.81029 -0.38901,0 -3.66065,-2.80573 -7.2703,-6.234958 -10.16522,-9.657117 -15.34856,-11.520429 -13.06902,-4.698063 5.09665,15.253551 10.04982,21.222111 13.99449,16.863311 z m -187.19197,0.0406 c -0.98629,-1.59586 -0.66669,-22.991442 0.36196,-24.230889 1.38818,-1.672655 3.64446,-1.374188 6.58882,0.871591 7.23671,5.519707 15.53905,6.699186 20.09834,2.85529 0.1146,-0.09661 -0.81804,-1.274427 -2.07253,-2.617362 -2.4801,-2.654956 -3.64001,-2.621511 -2.20302,0.06352 2.11811,3.957727 -3.97707,4.518764 -10.50323,0.966781 l -3.69853,-2.012994 v -4.355522 c 0,-7.611004 2.85716,-8.655159 16.77761,-6.131411 13.88554,2.517417 14.5406,3.065389 14.5406,12.163373 0,10.442588 -4.79704,15.729525 -16.37004,18.041853 -1.82644,0.36492 -4.19844,1.50434 -5.27112,2.53203 -1.41223,1.35301 -2.6562,1.82633 -4.50876,1.71557 -1.40715,-0.0841 -4.95273,0.10926 -7.87908,0.42976 -3.81778,0.41813 -5.47328,0.33577 -5.86102,-0.29159 z m 9.69032,-2.65997 c 2.40456,-0.324 4.41447,-1.14267 5.66073,-2.30574 1.13178,-1.05622 3.44883,-2.071848 5.59254,-2.451375 8.69685,-1.539703 12.42531,-3.913056 14.33669,-9.126008 3.12266,-8.516531 1.32497,-12.780336 -5.91304,-14.024732 -2.2098,-0.37992 -6.11624,-1.077049 -8.68099,-1.549175 -9.89576,-1.821644 -13.04344,3.605507 -4.66182,8.037812 4.01016,2.120624 3.73246,2.18806 3.73246,-0.906361 0,-3.569885 3.45853,-3.688966 8.09571,-0.278744 6.6588,4.896936 1.48286,10.809224 -8.87472,10.137275 -5.49556,-0.356525 -13.53739,-3.534337 -15.29529,-6.044093 -1.15333,-1.646597 -1.37787,1.205365 -1.07757,13.686405 0.13248,5.505956 0.38666,6.189586 2.11477,5.687786 0.68319,-0.19838 2.91993,-0.58675 4.97053,-0.86305 z"
     id="path817"
     inkscape:connector-curvature="0" />
</svg>
