<?xml version="1.0" encoding="UTF-8" standalone="no"?>
<!-- Created with Inkscape (http://www.inkscape.org/) -->

<svg
   xmlns:dc="http://purl.org/dc/elements/1.1/"
   xmlns:cc="http://creativecommons.org/ns#"
   xmlns:rdf="http://www.w3.org/1999/02/22-rdf-syntax-ns#"
   xmlns:svg="http://www.w3.org/2000/svg"
   xmlns="http://www.w3.org/2000/svg"
   xmlns:sodipodi="http://sodipodi.sourceforge.net/DTD/sodipodi-0.dtd"
   xmlns:inkscape="http://www.inkscape.org/namespaces/inkscape"
   version="1.1"
   id="svg2"
   width="143.40416mm"
   height="185.7375mm"
   viewBox="0 0 542 702"
   sodipodi:docname="calavera-simeon.svg"
   inkscape:version="0.92.3 (2405546, 2018-03-11)">
  <metadata
     id="metadata8">
    <rdf:RDF>
      <cc:Work
         rdf:about="">
        <dc:format>image/svg+xml</dc:format>
        <dc:type
           rdf:resource="http://purl.org/dc/dcmitype/StillImage" />
        <dc:title></dc:title>
      </cc:Work>
    </rdf:RDF>
  </metadata>
  <defs
     id="defs6" />
  <sodipodi:namedview
     pagecolor="#ffffff"
     bordercolor="#666666"
     borderopacity="1"
     objecttolerance="10"
     gridtolerance="10"
     guidetolerance="10"
     inkscape:pageopacity="0"
     inkscape:pageshadow="2"
     inkscape:window-width="1920"
     inkscape:window-height="1017"
     id="namedview4"
     showgrid="false"
     inkscape:document-units="mm"
     units="mm"
     inkscape:zoom="1.6069961"
     inkscape:cx="216.33553"
     inkscape:cy="253.69838"
     inkscape:window-x="-8"
     inkscape:window-y="-8"
     inkscape:window-maximized="1"
     inkscape:current-layer="svg2" />
  <path
     style="fill:none;stroke:#ff0000;stroke-width:0.75590551;stroke-miterlimit:4;stroke-dasharray:none;stroke-opacity:1"
     d="m 167.73143,695.55094 c -13.07424,-2.74303 -20.69444,-5.15603 -24.64512,-7.80411 -1.02688,-0.6883 -3.16408,-1.79222 -4.74932,-2.45314 -1.58525,-0.66093 -5.02275,-2.88382 -7.63889,-4.93977 -2.61615,-2.05595 -4.94623,-3.73809 -5.17796,-3.73809 -1.37264,0 -27.148282,-20.95168 -32.715757,-26.59295 -1.983059,-2.00934 -4.64639,-5.14362 -5.918526,-6.96508 -1.272129,-1.82146 -5.026746,-6.56484 -8.343589,-10.54085 -3.316844,-3.976 -7.678936,-10.04729 -9.693538,-13.49175 -2.014601,-3.44445 -4.187742,-6.87355 -4.829201,-7.62021 -4.376098,-5.09379 -8.648315,-14.51645 -11.574353,-25.52802 -2.333449,-8.78148 -2.663951,-11.31347 -3.460646,-26.51218 -0.484447,-9.24192 -1.147112,-26.88559 -1.472586,-39.20815 -0.325475,-12.32256 -0.795106,-22.90876 -1.043623,-23.52489 -0.248519,-0.61612 -0.769653,-3.41166 -1.158078,-6.2123 -0.388424,-2.80064 -1.055117,-5.51246 -1.48154,-6.02627 -0.426423,-0.51381 -2.673396,-1.91915 -4.993273,-3.12297 -7.271408,-3.77326 -13.616943,-9.72128 -16.822273,-15.76846 -3.733675,-7.04395 -5.139746,-13.41192 -5.139746,-23.27743 0,-13.45768 1.321386,-16.44323 14.592634,-32.97073 3.398489,-4.23234 7.065201,-13.5291 7.065201,-17.91345 0,-1.1842 0.520334,-4.61157 1.156299,-7.61637 1.288653,-6.08863 1.553495,-4.34186 -3.885582,-25.62748 -1.469422,-5.75052 -3.000099,-11.79978 -3.401502,-13.44279 -0.401404,-1.64301 -0.575391,-7.18816 -0.386637,-12.32256 0.305085,-8.29878 0.60594,-9.98738 2.709693,-15.20857 1.784639,-4.42919 2.421659,-7.27538 2.59082,-11.57573 0.123372,-3.13635 0.601754,-7.71887 1.06307,-10.18338 0.461316,-2.46452 1.154434,-7.30117 1.540262,-10.74812 0.572796,-5.11731 1.325512,-7.51524 4.102507,-13.06939 1.87055,-3.74121 4.797056,-8.3119 6.503348,-10.15709 1.706291,-1.8452 3.951848,-5.03786 4.990129,-7.09481 2.666579,-5.28279 11.688386,-15.04594 16.31769,-17.65856 2.131436,-1.20291 6.013048,-4.25366 8.625804,-6.77945 2.612756,-2.52579 6.618298,-5.80003 8.901213,-7.2761 5.231547,-3.38258 10.476626,-7.52997 15.26662,-12.07163 5.32778,-5.05156 13.26971,-8.98051 26.13877,-12.93112 6.16128,-1.89142 15.06713,-4.64126 19.79078,-6.11077 4.72365,-1.46951 9.59666,-2.9666 10.82892,-3.32687 3.63251,-1.06204 29.8149,-1.96792 53.83647,-1.86269 19.77774,0.0866 23.32418,0.28866 30.92781,1.76173 4.72365,0.91512 11.44504,2.21313 14.93644,2.88447 10.32826,1.98596 40.09226,10.8808 49.65396,14.83887 3.45022,1.42823 7.21634,2.59885 8.36916,2.60138 2.12638,0.005 2.90726,0.33532 9.56426,4.04986 5.17862,2.88962 8.7432,5.57568 15.68326,11.81799 7.2989,6.56507 13.4418,12.85019 15.578,15.93865 0.8794,1.27141 2.94318,4.10462 4.58619,6.29603 1.64301,2.1914 3.65943,5.07702 4.48093,6.41248 0.8215,1.33546 3.43285,5.11644 5.80299,8.40218 2.37015,3.28574 5.286,8.09769 6.47968,10.69324 2.3708,5.15507 5.54215,21.08461 6.36641,31.97817 0.26418,3.49139 0.95643,9.03654 1.53834,12.32256 1.10004,6.21185 0.55698,18.97508 -1.01684,23.8983 -1.0738,3.35907 -5.07783,11.37384 -8.20816,16.43008 -4.68855,7.57315 -6.65793,12.92121 -7.91489,21.49374 -1.62466,11.0803 -1.48937,16.12047 0.73957,27.55184 1.92174,9.85586 3.56391,14.34471 5.98187,16.3513 2.92278,2.42553 9.83817,12.7046 10.59798,15.75288 1.47455,5.91581 2.63383,16.11153 2.16517,19.04238 -0.25415,1.58934 -1.31098,4.97887 -2.34853,7.53229 -1.27775,3.14456 -1.88645,6.06071 -1.88645,9.03756 0,3.92414 -0.32605,4.8658 -3.04351,8.78999 -1.67392,2.41726 -3.77436,5.4858 -4.66763,6.81897 -0.89328,1.33316 -2.29628,2.62192 -3.11778,2.86391 -0.82151,0.24198 -7.28044,2.47532 -14.35319,4.96297 -12.18679,4.28638 -12.8993,4.64447 -13.61947,6.84477 -1.31722,4.02449 -3.02064,14.62798 -4.1522,25.84667 -1.52813,15.15049 -2.90977,22.24276 -5.55983,28.53977 -2.1145,5.02445 -3.15972,9.78196 -6.36367,28.96551 -1.34914,8.07799 -5.58035,17.89841 -12.14403,28.1857 -2.15973,3.38496 -3.92677,6.42636 -3.92677,6.75868 0,2.07932 -18.25645,23.29983 -25.19218,29.2823 -3.70842,3.19873 -5.53437,4.45119 -17.37667,11.919 -8.65567,5.45832 -11.5813,7.53662 -23.02918,16.35943 -4.56756,3.52019 -11.6143,7.05917 -15.80556,7.9378 -2.31952,0.48625 -10.22317,3.13079 -20.16419,6.74691 -2.73353,0.99434 -7.26307,1.27222 -24.27171,1.48905 -11.50106,0.14662 -21.75119,0.0903 -22.77807,-0.12513 z m 30.05958,-9.711 c 1.83133,-0.50851 1.6284,-2.33197 -0.62069,-5.57741 -3.35914,-4.84725 -12.01673,-9.3669 -16.37611,-8.54908 -3.5219,0.66071 -10.82231,8.94778 -10.82231,12.28495 0,1.68435 1.13705,2.12148 6.72139,2.58393 3.92287,0.32486 19.18876,-0.21231 21.09772,-0.74239 z m 19.04396,-2.49453 c 1.33494,-0.81393 2.42717,-1.64422 2.42717,-1.84508 0,-0.90938 -4.66926,-2.64404 -7.11706,-2.64404 -2.66668,0 -2.70192,0.0391 -2.18973,2.42717 0.28632,1.33495 0.66892,2.67923 0.85024,2.98729 0.60465,1.02735 3.57421,0.5716 6.02938,-0.92534 z m -57.02507,-1.93632 c 0.76663,-1.9978 0.50314,-5.93841 -0.48021,-7.18199 -1.35407,-1.71241 -6.23636,-3.06122 -9.12149,-2.51997 -2.88675,0.54156 -6.37507,3.04721 -6.37507,4.57919 0,0.58066 2.26847,2.22008 5.04105,3.64318 5.51832,2.83241 10.17483,3.46244 10.93572,1.47959 z m 81.92832,-9.32504 c 1.19297,-0.84948 2.16904,-1.99285 2.16904,-2.54083 0,-0.54797 0.96233,-1.33179 2.13851,-1.7418 1.17618,-0.41002 3.60826,-2.62735 5.40462,-4.92741 3.00418,-3.84652 3.50761,-4.18191 6.27734,-4.18191 4.87549,0 22.77381,-9.76855 22.77381,-12.4295 0,-0.68514 -0.9242,-2.44408 -2.05376,-3.90875 -4.76096,-6.17335 -6.90811,-10.15478 -6.90811,-12.8096 0,-2.85327 1.14075,-4.23617 7.09481,-8.60081 1.64301,-1.20442 4.75521,-3.78988 6.91601,-5.74548 5.31665,-4.81176 8.55096,-4.78499 9.8614,0.0816 0.72893,2.70701 5.83641,7.56506 7.95348,7.56506 0.86669,0 6.26222,-5.97106 6.26222,-6.9302 0,-0.23561 1.70862,-3.00848 3.79692,-6.16194 5.10418,-7.70758 10.12666,-19.05196 11.06634,-24.99577 3.44776,-21.80835 3.45245,-21.82858 7.35399,-31.73993 1.78714,-4.54 3.56624,-13.75698 4.68502,-24.27172 0.4589,-4.31289 1.3031,-10.53018 1.87601,-13.8162 2.15359,-12.35226 2.22735,-12.01653 -2.84853,-12.96481 -4.83735,-0.90371 -7.02327,-0.3421 -7.89151,2.0275 -0.39811,1.0865 -2.40584,3.78633 -4.46163,5.99963 -3.29016,3.54224 -3.84303,4.61553 -4.61641,8.96186 -0.48323,2.71573 -1.66485,8.46642 -2.62582,12.77931 -0.96097,4.3129 -2.62173,13.55482 -3.69057,20.5376 -1.06885,6.98279 -2.46731,15.13936 -3.1077,18.12571 -1.36074,6.34562 -5.30992,14.53737 -9.17528,19.03222 -1.91827,2.23066 -3.22481,4.90405 -4.40771,9.01885 -2.15768,7.50568 -3.27367,9.1271 -7.9139,11.49813 -4.95442,2.53156 -9.67928,2.67479 -12.88172,0.3905 -1.29567,-0.9242 -2.67995,-1.68035 -3.07619,-1.68035 -0.39625,0 -1.93845,1.94262 -3.42711,4.31695 -3.23809,5.16454 -5.86502,6.88537 -10.51083,6.88537 -4.38211,0 -7.91038,-1.46769 -10.10553,-4.20372 -1.03363,-1.28831 -1.84907,-1.78591 -2.04275,-1.24654 -0.78674,2.19086 -3.78547,5.88195 -5.47195,6.73531 -1.01455,0.51337 -4.29783,0.93836 -7.29618,0.94441 -5.4847,0.0111 -8.63197,-0.97218 -10.56425,-3.30044 -1.60571,-1.93476 -3.161,-1.35678 -6.90124,2.56463 -2.759,2.89265 -4.07694,3.73411 -5.84858,3.73411 -3.51316,0 -7.58059,-2.47448 -10.30633,-6.27001 -1.35821,-1.89127 -2.58922,-3.43868 -2.73557,-3.43868 -0.14635,0 -1.03339,1.24152 -1.97121,2.75893 -1.84139,2.97945 -5.24811,6.3186 -7.94014,7.78269 -2.36723,1.28744 -8.035,-1.44445 -14.5107,-6.99421 -2.75587,-2.36183 -5.40831,-4.29423 -5.89431,-4.29423 -0.486,0 -2.1856,1.17625 -3.77688,2.61388 -3.9909,3.60553 -6.67384,3.53748 -10.25833,-0.26019 -1.49199,-1.58074 -3.24238,-3.65587 -3.88973,-4.6114 l -1.17702,-1.73732 -6.2912,2.02512 c -5.82175,1.874 -6.54198,1.95115 -9.6519,1.03395 -2.70988,-0.79921 -4.08383,-1.90018 -7.09481,-5.68518 -4.07118,-5.11775 -4.06119,-5.11492 -12.09637,-3.43022 -4.54647,0.95323 -8.19841,-3.22073 -11.78842,-13.47353 -1.418258,-4.05044 -1.847338,-4.57278 -4.466293,-5.437 -3.208735,-1.05883 -8.257811,-5.31044 -12.531716,-10.55242 -2.693749,-3.30391 -2.792777,-3.63062 -2.7369,-9.02911 0.0348,-3.36023 -0.714477,-9.30038 -1.872756,-14.84727 -1.061903,-5.08535 -1.930733,-10.1512 -1.930733,-11.25742 0,-1.10623 -0.814257,-4.73174 -1.809459,-8.05669 -2.999954,-10.02279 -5.093505,-21.02922 -5.575869,-29.31404 l -0.456302,-7.83718 -4.10752,-2.45544 c -7.595766,-4.54067 -10.891009,-4.61954 -10.174791,-0.24352 0.242154,1.47954 0.622007,12.10002 0.844116,23.60108 0.22211,11.50106 0.723929,23.59957 1.115154,26.88559 0.391225,3.28602 1.008093,11.8558 1.37082,19.04396 0.536596,10.63376 1.054912,14.51469 2.781255,20.82483 1.96335,7.17646 2.29687,7.82862 4.467362,8.73551 1.290084,0.53903 3.31339,2.25816 4.496235,3.82029 6.24871,8.25237 8.647139,9.2288 13.396985,5.45411 3.026876,-2.40547 6.625116,-2.93994 8.798734,-1.30694 0.683424,0.51344 3.606433,4.12619 6.495573,8.02833 4.440195,5.99703 5.223345,7.49844 5.061435,9.70338 -0.15287,2.08177 -0.64401,2.81671 -2.43202,3.63921 -1.232253,0.56685 -3.501486,2.23452 -5.04274,3.70593 -3.680055,3.5133 -3.455799,4.18859 4.75478,14.318 1.49824,1.84839 2.93409,4.55039 3.19078,6.00445 0.33082,1.87393 1.60713,3.73854 4.38312,6.40347 6.231,5.98172 17.97342,15.67129 20.7003,17.08142 2.37858,1.23001 2.69852,1.22629 6.67343,-0.0777 5.39365,-1.76937 7.53577,-3.12484 7.53577,-4.76842 0,-1.36841 -2.72358,-2.68699 -15.42667,-7.4686 -7.19427,-2.70802 -10.12671,-4.5808 -13.25665,-8.46625 -2.23154,-2.7702 -2.31824,-3.15401 -2.55932,-11.33048 -0.19478,-6.60604 0.0127,-9.0158 0.94559,-10.98168 2.81548,-5.93317 10.48224,-6.83787 19.30169,-2.27765 2.96681,1.53402 5.64978,3.13035 5.96217,3.5474 0.31238,0.41704 0.48041,2.25971 0.37341,4.09482 -0.15832,2.71504 -0.55803,3.53972 -2.14584,4.42728 -2.41746,1.35132 -5.26557,0.35884 -9.77006,-3.40456 -3.52469,-2.94478 -6.1955,-3.26125 -6.85191,-0.81187 -1.63353,6.09549 1.13543,11.15027 7.7242,14.10062 1.85946,0.83263 6.57349,2.7042 10.47564,4.15903 3.90214,1.45482 7.41407,2.9406 7.80428,3.30172 0.39022,0.36112 1.60407,0.65658 2.69746,0.65658 1.9045,0 2.00955,-0.2107 2.50211,-5.01835 0.98332,-9.59782 4.66773,-14.30701 11.72408,-14.98504 5.48056,-0.5266 10.4797,2.22407 16.33942,8.99045 2.57764,2.97648 4.96009,5.51777 5.29433,5.64731 0.33424,0.12955 1.43473,-1.07455 2.44555,-2.67578 4.16098,-6.59143 10.05633,-9.45926 18.54757,-9.02257 7.64917,0.39338 10.86273,2.15976 13.4458,7.39063 1.106,2.2397 2.22277,5.41646 2.48172,7.05947 0.94523,5.9972 0.77027,5.83603 5.85691,5.39499 4.59175,-0.39813 15.67423,-3.70288 21.02616,-6.26992 1.56582,-0.75104 3.51695,-2.27197 4.33583,-3.37984 1.36426,-1.8457 1.40101,-2.2452 0.43891,-4.773 -1.77076,-4.65252 -3.12412,-4.88214 -6.90494,-1.17154 -2.76284,2.71152 -3.67101,3.17661 -5.80486,2.97276 -2.31828,-0.22148 -2.54859,-0.46915 -2.75677,-2.96465 -0.18973,-2.27423 0.30665,-3.3819 3.01204,-6.72139 9.52698,-11.75993 21.02137,-7.19284 21.08889,8.37928 0.0217,5.01497 -0.23174,6.07121 -2.23568,9.31553 -1.33098,2.15483 -3.63999,4.51228 -5.61632,5.73415 -4.19921,2.59617 -16.86777,6.98672 -24.21676,8.39282 -5.77335,1.10462 -8.6085,2.2125 -8.6085,3.3639 0,0.89224 1.58875,1.34041 7.88927,2.22545 2.90147,0.40757 6.4302,1.24209 7.84163,1.85447 3.21989,1.39702 2.71609,1.43277 5.25153,-0.37261 z m -37.05538,-4.61679 c 4.82971,-6.9146 7.11108,-11.10196 7.11108,-13.05211 0,-3.58034 -1.50749,-6.89512 -3.62837,-7.97836 -5.20129,-2.65654 -9.79384,-1.93212 -13.54853,2.13714 -1.68854,1.83 -1.86706,2.63473 -1.86706,8.4166 0,5.45134 0.20569,6.51514 1.39629,7.22134 0.76796,0.45552 2.78438,1.74629 4.48093,2.86839 3.76207,2.48821 4.55271,2.53874 6.05566,0.387 z m -28.2644,-5.10196 c 1.38342,-0.85501 2.51532,-2.14917 2.51532,-2.87591 0,-1.69329 -6.31296,-10.04238 -10.34377,-13.67996 -6.6593,-6.00965 -10.9982,-1.91878 -8.29362,7.8195 0.62104,2.23617 1.3855,3.05536 3.91666,4.19714 1.72974,0.78027 4.13206,2.47058 5.33847,3.75623 2.58422,2.75395 3.50753,2.85923 6.86694,0.783 z M 292.7741,636.02383 c 1.46513,-1.78801 2.66387,-3.74745 2.66387,-4.35433 0,-1.20086 -5.99643,-5.83756 -7.54944,-5.83756 -1.34018,0 -5.14653,3.78332 -5.14653,5.11539 0,1.9865 4.57055,8.3274 6.00243,8.3274 0.75119,0 2.56454,-1.46291 4.02967,-3.2509 z M 90.667524,615.23281 c 0.344307,-2.98204 -1.817959,-5.83095 -4.42557,-5.83095 -1.821498,0 -2.154573,0.29967 -2.154573,1.93847 0,4.97019 6.042969,8.54491 6.580143,3.89248 z m 97.759906,-2.84366 c 1.26443,-2.51194 1.21172,-10.65225 -0.0891,-13.76565 -1.21984,-2.91949 -3.9143,-3.8442 -8.9855,-3.08372 -3.14501,0.47162 -3.18989,0.52164 -4.41206,4.91753 -0.6791,2.44258 -1.23472,4.89167 -1.23472,5.44239 0,2.27457 9.1581,8.83559 11.93184,8.54817 1.10231,-0.11422 2.22951,-0.9461 2.78958,-2.05872 z m 24.02273,0.16925 c 0.38984,-0.72842 1.25955,-3.501 1.93268,-6.16128 0.67313,-2.66029 1.37674,-5.36165 1.56358,-6.00301 0.18684,-0.64137 -0.647,-2.2713 -1.85297,-3.62208 -2.04504,-2.29058 -2.41,-2.41948 -5.42009,-1.91433 -5.51653,0.92576 -6.58812,1.57698 -6.58812,4.00363 0,3.41495 2.70189,11.2607 4.55849,13.23697 1.97672,2.10411 4.80657,2.32835 5.80643,0.4601 z m 23.8132,-0.79169 c 0.96251,-0.61097 3.1635,-11.36867 3.15779,-15.43423 -0.004,-3.22822 -1.42229,-7.86311 -2.53594,-8.29047 -1.23058,-0.47222 -9.0619,2.44986 -10.54766,3.93562 -0.94414,0.94415 -1.0545,2.4976 -0.64609,9.09472 0.27089,4.37586 0.85585,8.41378 1.29991,8.97316 1.62622,2.04861 7.14288,3.07268 9.27199,1.7212 z m 28.07797,-5.98481 c 0.8899,-3.03286 0.86634,-3.94981 -0.18526,-7.20896 -0.71318,-2.21032 -1.15174,-5.83319 -1.0747,-8.87799 l 0.13014,-5.14389 -5.7313,0.40927 c -9.55291,0.68217 -9.38342,0.35736 -6.46736,12.39375 2.13722,8.8217 3.59545,11.75185 6.30523,12.66969 3.4102,1.15508 5.87681,-0.33468 7.02325,-4.24187 z m -102.00032,1.04325 c 1.48628,-1.8895 3.62828,-12.47523 2.79663,-13.82087 -0.45703,-0.7395 -7.30154,-3.01979 -9.06415,-3.01979 -3.17196,0 -4.06681,4.54258 -2.15983,10.96407 2.11493,7.12174 5.55886,9.52328 8.42735,5.87659 z m -22.75567,-3.34454 c 2.12536,-0.80806 3.22801,-3.52402 3.92236,-9.66124 0.67609,-5.97589 -0.14211,-7.25007 -5.34974,-8.33117 -4.79968,-0.99641 -8.91414,-0.47278 -9.56257,1.21699 -0.94489,2.46233 -0.37971,9.69997 0.99364,12.7245 2.04082,4.4945 5.327,5.82619 9.99631,4.05092 z m 144.48759,-2.72059 2.77659,-1.17361 -2.12536,-1.12822 c -2.12017,-1.12546 -2.12495,-1.14488 -1.96253,-7.97495 0.25774,-10.83888 0.56964,-10.44223 -6.54879,-8.32828 -3.28779,0.97636 -3.88248,1.44875 -4.31754,3.42958 -0.27751,1.26348 -0.27032,3.85927 0.016,5.7684 0.41975,2.79908 1.2088,4.15944 4.0753,7.02593 1.95512,1.95512 3.94963,3.55477 4.43226,3.55477 0.48263,0 2.12696,-0.52813 3.6541,-1.17362 z m -166.82116,-4.50433 c 1.5094,-0.57922 2.91191,-5.76961 2.3053,-8.53147 -0.47122,-2.14543 -1.22788,-2.57427 -8.95751,-5.07667 -1.23226,-0.39893 -2.88201,-0.98419 -3.66611,-1.30058 -1.31891,-0.53218 -1.38948,-0.31137 -0.94257,2.9492 0.41624,3.03676 2.8234,8.3471 5.20213,11.47619 0.7464,0.98184 4.06893,1.24689 6.05876,0.48333 z m 92.43101,-11.48856 c 2.33025,-0.4616 4.67714,-1.36983 5.2153,-2.01827 0.56555,-0.68144 0.97847,-3.05838 0.97847,-5.63251 0,-4.08151 -0.2027,-4.63464 -2.4265,-6.62161 -1.90126,-1.69877 -3.1399,-2.16809 -5.72209,-2.16809 -1.91106,0 -3.75905,0.46348 -4.3988,1.10324 -1.22064,1.22063 -3.09127,10.95885 -2.82605,14.71197 0.0917,1.29717 1.87405,2.08581 3.82259,1.69135 0.61613,-0.12474 3.02681,-0.60447 5.35708,-1.06608 z m -21.14339,0.0691 c 1.31478,-0.833 2.26994,-5.86426 2.311,-12.173 0.0282,-4.33926 -0.18645,-5.15207 -1.6273,-6.16128 -3.98105,-2.78843 -9.05266,-0.80321 -10.98641,4.3005 -1.09538,2.89104 -1.0057,11.15951 0.13696,12.62832 1.45221,1.86669 8.00735,2.77297 10.16575,1.40546 z m -21.47201,-6.05405 c 1.06096,-3.84509 0.71371,-12.75486 -0.58263,-14.94939 -2.05709,-3.48237 -4.22318,-4.22495 -7.39792,-2.53613 -1.47732,0.78587 -3.04259,2.08709 -3.47837,2.89161 -0.80803,1.49173 -0.93854,10.77205 -0.18488,13.14661 0.55371,1.7446 5.3242,3.68796 8.54425,3.4807 2.0523,-0.1321 2.69044,-0.55073 3.09955,-2.0334 z m 66.18737,0.13889 2.42284,-1.15537 -0.43704,-5.27963 c -0.39601,-4.78401 -0.6795,-5.51186 -3.01996,-7.7535 -3.59439,-3.44263 -5.59502,-3.04066 -6.73706,1.35364 -1.11983,4.30877 -1.22499,11.61505 -0.19489,13.53982 0.89382,1.67011 3.46215,1.44283 7.96611,-0.70496 z m -89.43322,-3.11996 c 2.45463,-1.31369 2.55478,-4.79079 0.36766,-12.76544 l -2.03086,-7.40497 h -2.49796 c -2.59604,0 -7.19582,1.76742 -9.45674,3.63364 -0.86678,0.71547 -1.30694,2.1373 -1.30694,4.22181 0,3.17681 1.22551,10.79591 1.83444,11.40483 1.39235,1.39235 10.94797,2.05672 13.0904,0.91013 z m 118.72394,-1.85328 c 1.62713,-1.00562 1.61653,-5.35392 -0.0247,-10.13112 -1.84679,-5.37556 -2.34878,-5.91769 -5.49472,-5.93411 -2.84173,-0.0149 -8.92317,6.08276 -9.63967,9.66527 -0.82659,4.13291 -0.56778,7.38349 0.64177,8.06038 1.10384,0.61774 13.04013,-0.74747 14.51731,-1.66042 z M 119.4801,572.99429 c 0.216,-0.71881 0.48741,-6.03173 0.60312,-11.80647 0.18041,-9.00415 0.0229,-10.78576 -1.10646,-12.50927 -1.75015,-2.67106 -2.93433,-2.53754 -6.56208,0.73991 -3.47902,3.14308 -5.68249,7.03497 -6.33245,11.18473 -0.42071,2.68602 -0.15754,3.21465 4.12391,8.28358 3.72722,4.41275 4.97179,5.41446 6.72726,5.41446 1.40389,0 2.29072,-0.45511 2.5467,-1.30694 z m 160.12544,-1.33182 c 3.79228,-1.12619 3.87708,-1.21569 5.12935,-5.41446 1.86776,-6.26244 1.6244,-9.77912 -0.8224,-11.88377 -2.45107,-2.10833 -3.05961,-2.12263 -7.46174,-0.17536 -2.21401,0.97936 -3.7534,2.22822 -4.20245,3.40932 -0.7845,2.06338 -0.96843,12.16971 -0.25531,14.02807 0.56992,1.48519 2.69917,1.49532 7.61255,0.0362 z m -58.80185,-13.48849 c 3.15232,-4.21535 4.16413,-4.78376 8.51544,-4.78376 3.999,0 7.64996,1.37193 9.66284,3.63103 0.78247,0.8782 1.76214,1.59672 2.17703,1.59672 0.41489,0 2.86345,-2.02526 5.44124,-4.50058 2.57779,-2.47532 5.87222,-4.99584 7.32096,-5.60116 3.00733,-1.25655 8.34289,-1.46558 9.03002,-0.35377 0.86744,1.40354 4.03963,0.74722 10.82892,-2.24046 7.67576,-3.37778 11.07608,-3.71068 14.31857,-1.40182 1.40333,0.99926 2.48842,1.32364 2.93474,0.87732 0.38948,-0.38949 2.01016,-4.54766 3.60151,-9.24039 1.59135,-4.69274 4.55107,-12.22902 6.57717,-16.74729 2.02611,-4.51827 4.11815,-9.30987 4.64899,-10.64798 1.43256,-3.61111 6.12347,-8.05631 11.21261,-10.6253 6.92097,-3.49369 5.9499,-4.49808 -4.33323,-4.48188 -3.56048,0.006 -7.25686,0.21993 -8.21417,0.47626 -1.82828,0.48955 -1.83028,0.81098 -0.0329,5.28548 0.86587,2.15548 0.8047,2.63076 -0.57665,4.48093 -1.06561,1.42727 -2.21474,2.0697 -3.70216,2.0697 -1.82152,0 -2.47052,-0.58065 -4.17365,-3.73411 -2.55128,-4.72384 -4.05387,-4.93238 -3.72177,-0.51653 0.29434,3.91387 -0.77768,5.37087 -3.95179,5.37087 -2.71425,0 -3.97354,-1.16002 -6.3158,-5.81796 -0.9482,-1.88563 -2.40482,-3.50583 -3.53987,-3.93737 -2.57945,-0.98071 -6.83701,-0.10763 -7.74455,1.58814 -0.40258,0.75222 -0.95015,4.49389 -1.21684,8.31484 -0.61993,8.88201 -1.47424,10.30786 -6.17612,10.30786 -4.08445,0 -11.07343,1.89505 -12.86516,3.48837 -0.68188,0.60637 -1.45209,1.94842 -1.71159,2.98234 -0.2595,1.03392 -1.78957,3.9498 -3.40017,6.47973 -5.6637,8.89655 -21.12214,16.50875 -33.45983,16.47664 -6.08374,-0.0158 -6.36854,-0.10065 -14.64943,-4.36294 l -8.44507,-4.3468 -7.00839,2.66573 c -6.84012,2.60173 -7.34015,2.67746 -20.82461,3.15395 -11.76613,0.41576 -14.34724,0.30564 -17.39504,-0.74214 -9.16086,-3.14933 -14.50116,-8.52331 -16.25419,-16.35666 -0.83938,-3.75076 -1.12449,-4.11112 -4.71978,-5.96558 -2.10453,-1.08553 -4.99743,-2.64702 -6.42865,-3.46998 -1.43121,-0.82297 -3.45687,-1.49631 -4.50145,-1.49631 -3.12153,0 -5.10641,-1.99713 -6.39694,-6.4364 -0.96521,-3.32021 -1.44146,-4.02849 -2.43791,-3.62569 -0.6811,0.27532 -2.49251,0.67893 -4.025355,0.89692 -3.882966,0.55219 -4.338751,-1.08576 -1.763359,-6.3369 2.773458,-5.65497 1.411412,-7.00553 -1.800565,-1.7854 -1.8781,3.05231 -2.924704,3.97214 -5.224026,4.59128 -2.270033,0.61126 -2.972628,1.21699 -3.337256,2.87715 -0.66845,3.04342 1.441262,12.34984 5.611918,24.75548 2.002319,5.9559 3.961674,12.84534 4.354114,15.30985 0.686456,4.31087 1.976143,8.58845 2.589411,8.58845 0.161754,0 1.525838,-1.96455 3.031308,-4.36567 1.50546,-2.40112 3.64991,-5.21422 4.76544,-6.25134 3.64363,-3.38753 9.99814,-7.30671 11.84699,-7.30671 4.0567,0 7.44292,4.18827 9.27783,11.47537 0.47932,1.90358 1.30234,3.46106 1.82892,3.46106 0.52658,0 2.75515,-0.83689 4.95238,-1.85976 6.921,-3.2219 14.8239,-2.20128 14.8239,1.91443 0,2.07087 0.81836,3.67944 1.87191,3.67944 0.5309,0 2.71317,-1.17624 4.84948,-2.61387 6.65012,-4.4752 12.4073,-3.2925 16.52158,3.39406 1.2524,2.03541 2.62868,3.70074 3.05841,3.70074 0.42972,0 1.92394,-0.70618 3.32049,-1.56929 2.16776,-1.33976 3.45519,-1.53093 8.80134,-1.30694 5.1583,0.21611 6.68314,0.57368 8.65034,2.02846 2.34566,1.73465 2.45469,1.74462 6.12231,0.56012 4.70668,-1.52009 6.8218,-1.47199 11.03082,0.25083 1.84838,0.75658 3.55029,1.41044 3.78202,1.45303 0.23172,0.0426 1.576,-1.46664 2.98728,-3.35384 z m 3.33789,-22.63766 c 5.89707,-2.72285 12.09676,-7.21749 13.354,-9.68135 0.55125,-1.08032 1.38401,-3.76744 1.85057,-5.97139 0.46655,-2.20394 1.51563,-4.94438 2.33128,-6.08986 1.8924,-2.65763 1.88244,-4.23856 -0.0305,-4.84572 -4.53309,-1.43875 -5.04624,-9.97473 -0.83109,-13.82467 3.31688,-3.0295 3.07981,-4.95229 -0.82937,-6.72673 -1.74569,-0.7924 -3.58842,-1.44811 -4.09493,-1.45713 -0.50653,-0.009 -1.73046,1.57993 -2.71987,3.531 -2.17191,4.28294 -3.82454,5.81544 -6.89287,6.39181 -3.57935,0.67236 -5.52299,-1.09278 -5.52299,-5.01577 0,-1.7638 0.37493,-4.28242 0.83317,-5.59694 0.45824,-1.31452 0.65979,-2.56341 0.4479,-2.7753 -0.2119,-0.21191 -2.65574,-0.86032 -5.43076,-1.44093 -2.77503,-0.58061 -6.34763,-1.73436 -7.93912,-2.5639 -3.40021,-1.77228 -4.34127,-1.87822 -4.34127,-0.48872 0,2.01942 2.99672,4.86048 5.37499,5.09579 3.01209,0.29803 3.61308,1.91349 0.83057,2.23257 -1.897,0.21752 -2.09014,0.50598 -2.0156,3.01023 0.0457,1.53495 1.29419,5.22205 2.80058,8.27076 3.08565,6.24485 3.3516,9.06184 1.24534,13.19046 -1.89622,3.7169 -4.51735,5.73966 -9.27212,7.15542 -8.40328,2.50212 -8.88463,2.43749 -13.35847,-1.79369 -5.4473,-5.15183 -7.19668,-5.40552 -14.03702,-2.03567 -7.00032,3.44866 -9.82358,3.48728 -14.61569,0.1999 -4.88168,-3.34883 -5.82396,-5.40277 -4.78176,-10.42302 0.44703,-2.15331 1.28211,-4.81974 1.85573,-5.9254 1.31112,-2.52718 3.04816,-10.14675 2.44961,-10.74529 -0.53277,-0.53277 -7.13123,1.88494 -7.71286,2.82604 -0.22222,0.35956 0.15837,2.12638 0.84575,3.92626 1.07935,2.82621 1.11153,3.56096 0.23603,5.38763 -0.55757,1.16332 -1.62432,2.23271 -2.37057,2.37642 -1.50194,0.28925 -4.23296,-1.8186 -4.23296,-3.26709 0,-0.50902 -0.95539,-1.94826 -2.1231,-3.19829 -1.78879,-1.91491 -2.52379,-2.20969 -4.66764,-1.87205 -5.70088,0.89786 -6.6335,3.14371 -2.86881,6.9084 1.3816,1.3816 3.15408,4.65834 4.46945,8.26254 2.43044,6.65958 2.16969,8.69402 -1.35586,10.57843 -2.7355,1.46213 -4.09917,5.10306 -3.04446,8.1286 1.12261,3.22034 8.33005,7.89204 13.14717,8.5217 1.94593,0.25436 7.95608,0.16366 13.35587,-0.20156 9.22426,-0.62388 10.16647,-0.83629 15.58478,-3.51354 3.67291,-1.81481 7.16746,-2.96565 9.62386,-3.16935 3.54173,-0.29371 4.52612,0.0322 12.04762,3.98862 4.50491,2.36966 9.19896,4.56551 10.43121,4.87968 3.20883,0.8181 6.81298,0.1442 11.97425,-2.2389 z m -89.41621,-22.56999 c 0.18663,-1.60994 -0.14807,-2.05682 -1.86288,-2.48721 -2.90257,-0.7285 -3.79528,-1.62803 -4.34379,-4.37699 -1.07811,-5.40325 -2.7539,-9.41562 -4.11258,-9.84685 -0.77356,-0.24552 -2.80348,-0.5021 -4.51092,-0.57019 -3.71572,-0.14818 -4.89622,1.10404 -5.62551,5.96727 -0.61743,4.11735 -0.54662,4.1919 9.02584,9.50129 8.31867,4.61398 11.05479,5.04791 11.42984,1.81268 z m 123.32978,-9.7389 c 1.40047,-3.66746 2.05828,-6.3715 1.64944,-6.78034 -0.37401,-0.37401 -2.03188,-0.86135 -3.68413,-1.08296 -3.56687,-0.47842 -4.28278,0.41867 -5.07001,6.3531 -0.39334,2.9652 -0.22758,4.28234 0.72118,5.73034 2.28691,3.49026 3.82833,2.47124 6.38352,-4.22014 z M 87.680968,495.68965 c 0.185204,-0.96168 -0.248303,-1.29836 -1.671776,-1.29836 -1.825748,0 -2.571576,1.34175 -1.39811,2.51522 0.899256,0.89926 2.808073,0.14263 3.069886,-1.21686 z m 248.808462,-3.35212 c -0.0568,-1.3409 -2.13945,-3.174 -3.60599,-3.174 -2.0643,0 -2.03785,1.10088 0.0618,2.57154 1.75559,1.22966 3.58396,1.54046 3.54418,0.60246 z m 20.87789,-3.04424 c 2.63861,-1.09825 4.92409,-2.38388 5.07883,-2.85697 0.41359,-1.26444 -7.28166,-7.00181 -11.47918,-8.55859 -2.68242,-0.99484 -4.93526,-2.76067 -8.66492,-6.79174 -4.33899,-4.68963 -5.04019,-5.83324 -5.04105,-8.22165 -0.002,-5.51731 6.11422,-5.48789 11.6788,0.0562 1.58577,1.57992 6.29199,5.58433 10.45825,8.89867 4.16626,3.31435 7.79885,6.38824 8.07241,6.83088 1.68645,2.72873 5.89808,-1.24066 8.60618,-8.11117 2.1078,-5.34752 1.96312,-6.59115 -0.91543,-7.86865 -11.24227,-4.98932 -13.25191,-5.62004 -17.90713,-5.62004 -4.34231,0 -4.9905,-0.21158 -7.16695,-2.33946 -3.9146,-3.82724 -4.27387,-8.6708 -0.73509,-9.91013 1.61526,-0.56568 2.76534,-0.31199 5.85679,1.29192 2.11576,1.0977 4.9972,1.99581 6.4032,1.99581 1.406,0 5.94762,1.34428 10.09249,2.98729 4.14489,1.64301 7.83652,2.98729 8.20365,2.98729 0.89842,0 0.81603,-8.53269 -0.12165,-12.59967 -0.7266,-3.15145 -2.88253,-6.30708 -9.32519,-13.6493 -6.9413,-7.91049 -10.44034,-31.93596 -7.49829,-51.48558 1.14179,-7.58711 3.00629,-13.20169 6.23374,-18.77173 7.00799,-12.09465 8.62244,-15.43383 9.92561,-20.52919 0.7993,-3.12523 1.44526,-7.05679 1.43546,-8.73678 -0.0175,-2.99582 -1.02221,-8.45103 -1.67714,-9.10594 -0.18256,-0.18257 -2.58475,-0.95662 -5.33821,-1.72013 -5.91112,-1.63911 -7.56972,-3.04656 -11.75705,-9.97684 -2.89063,-4.78415 -3.21973,-5.08622 -4.15209,-3.81113 -0.55695,0.76166 -2.23707,5.20454 -3.73361,9.87306 -2.47954,7.73501 -2.60957,8.55057 -1.46533,9.19092 2.48273,1.3894 1.55153,5.02547 -2.34197,9.14477 -2.97952,3.1523 -3.82088,4.69582 -4.89695,8.98369 -1.38447,5.51678 -1.14475,9.47226 0.72701,11.99584 0.9477,1.27772 1.20572,1.33092 1.81105,0.37341 0.38824,-0.61412 0.71105,-1.7181 0.71733,-2.45328 0.0176,-2.05985 2.83391,-7.111 4.44571,-7.97361 5.07458,-2.71583 9.81805,3.82267 6.35749,8.7633 -0.92891,1.32621 -1.00344,2.2067 -0.37757,4.4604 1.29361,4.65816 0.97877,7.5396 -1.04498,9.56334 -4.1949,4.19491 -13.12293,1.13001 -18.36155,-6.30332 -2.57455,-3.65316 -3.70363,-7.27916 -3.70363,-11.89408 0,-4.48622 -0.34371,-4.62283 -5.68563,-2.25985 -3.50562,1.5507 -4.27372,1.59052 -21.57704,1.11866 -15.79134,-0.43064 -18.7388,-0.70851 -24.58908,-2.31808 -3.65587,-1.00583 -7.17966,-2.36122 -7.83064,-3.01198 -0.92211,-0.9218 -1.24231,-3.25772 -1.44932,-10.57315 l -0.26573,-9.38995 5.26023,-5.1468 5.26024,-5.14681 h 7.92526 c 8.92095,0 11.10422,0.73041 14.16046,4.73735 1.57497,2.06489 1.90566,3.31145 1.90566,7.18346 0,4.44641 -0.14766,4.83266 -2.89943,7.58443 -2.71224,2.71224 -3.18365,2.89942 -7.30205,2.89942 -5.09308,0 -7.72225,-1.40805 -7.72225,-4.13564 0,-1.37654 0.49225,-1.90999 2.05376,-2.22564 4.86705,-0.98385 5.78784,-1.50756 6.01177,-3.41919 0.12596,-1.0753 -0.41685,-2.70264 -1.24096,-3.72037 -1.16339,-1.43672 -2.16748,-1.80901 -4.87908,-1.80901 -2.95226,0 -3.79486,0.38063 -6.22726,2.81303 -2.72245,2.72244 -2.81304,2.9831 -2.81304,8.09432 0,6.60008 0.84182,7.41961 9.47496,9.22414 4.85029,1.01383 8.90376,1.23949 18.53087,1.03168 13.87445,-0.2995 16.21112,-0.95761 23.57695,-6.64031 3.49654,-2.69756 4.0845,-3.59972 6.19964,-9.51274 2.71556,-7.59154 3.00774,-10.2892 1.02981,-9.50823 -0.71882,0.28382 -4.33157,1.5361 -8.02834,2.78286 -5.91324,1.99428 -7.34996,2.2091 -11.94915,1.78667 -4.15667,-0.38178 -5.50096,-0.82081 -6.56126,-2.14284 -2.77406,-3.45882 -5.03768,-8.87843 -5.71966,-13.69409 -0.38858,-2.74388 -1.03445,-5.31681 -1.43527,-5.71763 -0.47378,-0.47378 -1.99051,-0.27807 -4.33519,0.55941 -3.9115,1.39711 -17.1424,2.37879 -21.37047,1.5856 -5.87715,-1.10256 -11.10077,-9.75046 -7.85197,-12.99926 1.69406,-1.69406 3.75098,-0.88889 7.2499,2.83793 l 3.50577,3.73411 5.5631,-0.009 c 6.83437,-0.0109 11.98456,-1.32489 17.65749,-4.50507 5.60319,-3.14105 8.44322,-5.7998 8.44322,-7.90425 0,-2.18837 -0.13219,-2.24938 -6.91954,-3.19342 -9.15803,-1.27376 -20.96763,-7.57931 -25.1219,-13.41345 -4.61279,-6.47806 1.66802,-15.77604 13.22041,-19.57121 6.06118,-1.99121 9.11235,-3.47677 9.11235,-4.43665 0,-2.25592 -17.51118,-9.72078 -22.71617,-9.6837 -1.2663,0.009 -3.81468,0.72071 -5.66307,1.58153 -7.99387,3.72286 -11.85585,4.4763 -25.15771,4.90809 -18.20665,0.59099 -23.01785,-1.00908 -28.42199,-9.45236 -2.20247,-3.44108 -2.75606,-5.14681 -3.24652,-10.00316 -0.83405,-8.2585 0.3377,-10.62039 6.9512,-14.01154 5.12047,-2.62558 9.52242,-3.13153 15.85861,-1.82276 10.26804,2.12093 16.1057,5.84812 16.07629,10.2643 -0.0181,2.72275 -2.14729,7.95444 -3.78606,9.30301 -1.86296,1.53305 -10.24114,3.98874 -13.60855,3.98874 -4.06341,0 -5.95152,-1.77462 -5.60629,-5.26929 0.33274,-3.3683 1.98055,-4.21962 5.75582,-2.97367 4.20251,1.38696 7.83966,0.34482 8.15416,-2.33638 0.32679,-2.78603 -2.59938,-4.78195 -9.14604,-6.23844 -4.22125,-0.93914 -6.11786,-1.03618 -8.37469,-0.42848 -5.43181,1.46264 -6.12422,2.60594 -5.24339,8.6578 0.57592,3.95695 4.22634,9.8075 7.42842,11.90559 6.08496,3.98701 32.26313,1.80371 38.07252,-3.17532 1.8529,-1.58806 1.61919,-4.08188 -0.56012,-5.97677 -3.55376,-3.08996 -1.68832,-8.35466 2.9603,-8.35466 3.42899,0 4.76475,1.34124 6.31017,6.33605 0.75749,2.44823 1.83811,4.68857 2.40138,4.97853 1.91039,0.98343 14.17953,4.5316 14.51382,4.19731 0.69967,-0.69968 1.89616,-8.97675 1.67676,-11.59962 l -0.23002,-2.74996 -12.32256,-3.95709 c -15.37921,-4.93865 -22.44746,-6.7372 -42.19544,-10.73682 l -15.68326,-3.17638 -20.91101,-0.0478 c -11.50106,-0.0263 -26.45616,0.15484 -33.23357,0.40244 -11.75028,0.42928 -12.86016,0.60679 -23.8983,3.82226 -6.36666,1.85465 -15.60858,4.46048 -20.5376,5.79075 -8.63858,2.33142 -12.15507,3.89549 -18.77113,8.34907 l -3.08787,2.07858 0.0708,7.6783 c 0.0795,8.62287 -1.06013,12.24942 -5.4039,17.19671 l -2.38918,2.72112 2.46809,0.38182 c 10.96935,1.697 14.94399,1.94922 19.37837,1.22967 2.61115,-0.42369 7.6487,-0.77289 11.19455,-0.77599 l 6.44699,-0.006 0.345,-12.50927 c 0.2539,-9.20616 0.0827,-13.29806 -0.64827,-15.49655 -1.28334,-3.85968 -1.27186,-5.95192 0.0386,-7.0395 1.61734,-1.34227 6.02028,-1.81255 7.84199,-0.8376 1.40823,0.75366 1.97688,0.57093 4.14366,-1.33153 3.8161,-3.35057 8.72068,-3.64762 22.12011,-1.33971 5.98821,1.03141 11.77058,2.27758 12.84973,2.76927 5.49482,2.50361 6.7566,15.68865 2.33136,24.36175 -1.99275,3.90563 -2.69888,4.57177 -7.23048,6.82102 -3.57838,1.77611 -5.02207,2.90323 -5.02207,3.92081 0,0.78547 0.29752,1.42813 0.66114,1.42813 0.36363,0 2.10065,2.38247 3.86005,5.29438 3.06023,5.06486 3.15769,5.40836 2.24814,7.92366 -0.81521,2.25445 -0.78247,2.79757 0.22969,3.80974 1.68962,1.68961 2.17994,0.78924 2.81697,-5.17276 0.31035,-2.90452 1.06407,-6.04374 1.67493,-6.97603 0.61086,-0.93229 3.40037,-2.65184 6.1989,-3.82121 4.31161,-1.80162 6.1343,-2.1301 11.94159,-2.15207 5.82503,-0.0221 7.16971,0.2098 8.96186,1.54521 2.10797,1.57075 2.10865,1.57408 2.553,12.69598 0.24446,6.11864 0.49651,11.24323 0.56012,11.38796 0.19252,0.43809 12.96411,-12.79785 14.62791,-15.15974 1.33474,-1.89476 2.48402,-2.40072 8.26869,-3.64022 3.69518,-0.79177 7.89475,-1.48184 9.33238,-1.53348 3.96474,-0.14242 3.85458,2.3717 -0.44797,10.22418 -3.99567,7.29242 -4.55276,7.65232 -15.23529,9.84255 -4.69208,0.96202 -6.78492,1.77462 -8.023,3.11517 -1.78556,1.93332 -2.93665,5.22164 -2.11535,6.04294 0.27309,0.27309 5.54324,0.40039 11.71143,0.28289 14.13121,-0.26921 14.24351,-0.21301 15.61696,7.81628 0.78012,4.56058 0.80762,6.86614 0.12914,10.82277 -1.68941,9.85191 -3.38391,11.12601 -14.81817,11.14186 -8.07802,0.0112 -10.91495,0.4875 -10.51408,1.76524 0.52416,1.67067 7.38511,5.61909 10.6023,6.10153 5.28489,0.79252 6.74782,3.59428 7.57109,14.4999 l 0.49866,6.60561 -2.30512,1.19202 c -3.20134,1.65548 -3.86272,1.55438 -10.13495,-1.5492 l -5.53991,-2.74122 -2.87419,-7.88056 c -3.04003,-8.33526 -5.53233,-12.24326 -6.93182,-10.86931 -0.44047,0.43243 -1.69645,3.79313 -2.79107,7.46822 -1.88078,6.31451 -1.986,7.49782 -1.91311,21.51625 0.0748,14.38137 0.13902,14.97986 2.10434,19.60407 2.12642,5.00327 3.26236,5.70832 5.67671,3.52337 2.00207,-1.81185 8.4824,-2.14235 12.5565,-0.64037 1.84838,0.68144 3.89273,1.40928 4.543,1.61742 0.72414,0.23177 2.48186,-0.88458 4.53575,-2.88073 4.08311,-3.96834 9.2574,-5.81173 16.31319,-5.81173 2.78093,0 6.73508,0.54221 8.78701,1.20491 3.43277,1.10867 4.11455,1.10867 8.53523,0 8.36194,-2.0971 12.93184,-1.20182 16.38448,3.20985 1.83275,2.34181 1.86412,2.35019 5.70831,1.52576 3.13572,-0.67249 4.62264,-0.60886 7.87639,0.33703 6.3979,1.85992 8.33232,4.63015 9.83914,14.09035 l 0.44879,2.81759 4.74829,-0.48648 c 7.27465,-0.7453 9.76346,-0.013 12.45502,3.66461 2.2353,3.05423 2.28578,3.30515 1.93954,9.64116 -0.30465,5.5749 -0.16539,6.67735 0.97365,7.70818 2.16645,1.96059 4.63327,8.61224 4.97644,13.41865 0.39163,5.48533 -1.21002,8.51325 -5.72034,10.81424 -1.65912,0.84642 -3.01658,1.93012 -3.01658,2.40821 0,0.47809 0.68139,2.27683 1.5142,3.99718 1.79894,3.71612 3.30572,11.5746 2.68982,14.02854 -0.2406,0.95864 -1.18059,2.68771 -2.08885,3.84239 -1.89109,2.40413 -10.03732,6.3563 -13.1144,6.36249 -3.45199,0.007 -7.56163,1.45882 -7.98125,2.81965 -0.21771,0.70604 -0.92623,4.61005 -1.5745,8.6756 -1.28711,8.07196 -2.51079,11.15395 -4.9461,12.45729 -2.674,1.43108 -10.29946,0.51316 -14.6545,-1.76402 -2.13368,-1.11567 -4.23288,-2.0285 -4.66489,-2.0285 -0.43199,0 -1.9018,1.11634 -3.26621,2.48077 -2.99808,2.99806 -8.56896,5.73427 -11.67492,5.73427 -3.3056,0 -6.72043,-1.68582 -9.65264,-4.76529 -1.41552,-1.48661 -2.85102,-2.70293 -3.19,-2.70293 -0.33898,0 -1.95089,0.88318 -3.58204,1.96262 -2.50266,1.65618 -3.55501,1.90597 -6.74029,1.59991 -4.53215,-0.43549 -7.1292,-2.59877 -9.69415,-8.07505 l -1.73416,-3.70252 h -3.95184 c -9.21802,0 -16.52884,-5.33681 -18.23983,-13.31484 -0.94182,-4.3916 -2.12782,-5.3557 -6.58832,-5.3557 -3.84821,0 -6.65753,-2.35263 -7.58025,-6.34799 -0.94739,-4.10224 -0.89901,-12.61838 0.084,-14.77577 0.67396,-1.47918 0.49395,-2.24166 -1.07512,-4.5538 -2.30802,-3.40107 -3.81887,-9.7587 -3.18952,-13.42154 0.25732,-1.49761 0.65011,-3.81516 0.87288,-5.1501 0.28337,-1.69809 -0.0578,-3.1693 -1.13568,-4.89778 -1.45005,-2.32525 -1.72655,-2.44343 -4.69925,-2.00843 -3.89538,0.57002 -9.01116,-1.1149 -11.95848,-3.9386 -1.76219,-1.68829 -2.21221,-1.83368 -2.79973,-0.90452 -1.05798,1.67322 -0.84251,5.93613 0.49008,9.69557 0.94594,2.66865 1.09372,5.03108 0.71764,11.47236 -0.50168,8.59229 -0.89733,9.86401 -4.28061,13.75887 -1.86501,2.14701 -2.13095,3.04857 -2.13095,7.22421 0,4.09523 -0.28598,5.11092 -2.01889,7.17037 -2.32708,2.76558 -5.82998,4.43225 -9.34615,4.44688 -4.09803,0.017 -5.64608,0.77114 -6.64079,3.23491 -1.77913,4.40666 -4.64763,8.04007 -7.81109,9.89397 -3.91334,2.29338 -9.86177,3.10463 -13.0577,1.78084 -2.26015,-0.93619 -2.41362,-0.87174 -5.06625,2.12749 -4.5472,5.14134 -10.43925,6.08163 -16.82097,2.68437 l -3.61809,-1.92606 -3.84419,1.68892 c -7.22675,3.175 -19.038846,1.60149 -23.296724,-3.10342 -1.103938,-1.21983 -1.999422,-1.33752 -7.153234,-0.94009 -4.69083,0.36173 -6.472886,0.19206 -8.745283,-0.83264 -4.589133,-2.06942 -5.479329,-4.36273 -5.267864,-13.57103 0.200374,-8.72533 -0.0401,-9.23072 -4.401929,-9.25107 -3.412303,-0.0159 -9.382743,-3.20109 -10.468975,-5.58511 -1.859878,-4.08199 -0.374099,-11.82195 3.158413,-16.45332 1.753639,-2.29913 1.824285,-2.63518 0.738678,-3.51373 -4.603764,-3.72567 -4.792322,-4.08672 -4.792322,-9.17652 0,-7.82655 1.809106,-10.88057 7.762666,-13.1045 l 3.066251,-1.14539 -0.264789,-6.41202 c -0.300998,-7.28884 1.352742,-12.48527 4.488768,-14.10473 0.962828,-0.49721 2.488187,-1.5753 3.389687,-2.39576 1.425266,-1.29713 2.257742,-1.42548 6.381426,-0.98388 l 4.742334,0.50786 1.086797,-2.44579 c 1.144997,-2.57678 4.386892,-4.85722 8.395929,-5.90592 1.319746,-0.34524 3.836528,-1.05092 5.592837,-1.56821 2.810992,-0.82792 3.499017,-0.77587 5.746988,0.43474 1.404536,0.7564 3.083826,1.17184 3.731746,0.9232 1.29354,-0.49637 2.32998,-2.53637 1.63946,-3.22688 -0.82974,-0.82974 -6.882131,-1.72846 -16.17854,-2.40233 -6.11963,-0.4436 -10.276584,-1.12569 -12.067974,-1.98018 -3.314315,-1.58091 -4.919427,-1.09212 -5.506946,1.67702 -0.243389,1.14715 -0.579982,2.75788 -0.747984,3.57938 -1.200245,5.86901 -10.457541,13.72759 -16.241047,13.78713 -3.044889,0.0314 -3.428285,-0.42103 -3.796786,-4.47994 -0.516343,-5.68732 -2.141189,-16.94656 -2.852001,-19.7627 -1.491227,-5.90804 -1.550091,-7.80775 -0.301,-9.7141 0.943784,-1.4404 1.858038,-1.86164 4.040496,-1.86164 1.551389,0 3.22399,0.40329 3.716893,0.89619 0.575247,0.57525 0.917709,3.71778 0.956288,8.77516 0.07411,9.71604 1.178278,14.60037 3.300597,14.60037 1.741341,0 3.252254,-3.64136 3.318546,-7.99782 0.02318,-1.52354 -1.614219,-7.74084 -3.638672,-13.81621 -2.024453,-6.07537 -4.112817,-13.68883 -4.64081,-16.91879 -0.945684,-5.78518 -2.296228,-7.85715 -3.671234,-5.63235 -0.351888,0.56936 -2.250372,1.88561 -4.218854,2.92498 -4.49606,2.37396 -5.347116,4.60925 -5.403961,14.19341 -0.03624,6.10971 0.470131,9.14893 3.608432,21.65784 4.036907,16.09063 5.122936,24.60608 3.917508,30.71678 -0.433789,2.19902 -1.150765,6.18266 -1.593281,8.85255 -1.408282,8.49677 -3.620451,13.3205 -9.781468,21.32891 -3.178814,4.13198 -6.311298,7.95392 -6.961077,8.49319 -0.649779,0.53927 -1.181416,1.58454 -1.181416,2.32283 0,1.22617 0.606013,1.30619 7.002212,0.92459 3.851216,-0.22977 7.878936,-0.19771 8.950488,0.0712 4.165074,1.04537 2.784709,7.92516 -1.593595,7.94254 -1.120099,0.004 -3.716893,0.52333 -5.770653,1.15308 -2.386086,0.73164 -4.966257,0.9797 -7.147235,0.68712 -4.510047,-0.60501 -5.299468,0.41152 -5.357753,6.89916 -0.04578,5.09613 1.234582,11.41675 2.312687,11.41675 0.318475,0 2.742028,-1.44721 5.385673,-3.21601 7.890544,-5.2794 13.220255,-7.71965 14.725646,-6.74226 3.661092,2.377 -1.576777,9.47093 -10.240047,13.86865 -6.532423,3.31603 -7.031441,4.31742 -3.808532,7.64262 1.40553,1.45014 2.91084,2.63661 3.345134,2.63661 2.102294,0 11.648091,-5.46797 14.865678,-8.51528 3.696297,-3.50068 5.457275,-4.13421 7.053808,-2.53768 1.177514,1.17751 1.152225,6.7184 -0.03734,8.1818 -1.088766,1.3394 -5.698246,4.19318 -9.705244,6.00865 -3.436549,1.557 -3.512138,2.4273 -0.376851,4.33892 3.370829,2.05523 4.760758,1.87035 5.675962,-0.75501 0.525612,-1.50777 1.282197,-2.24046 2.313523,-2.24046 1.280717,-3e-5 1.532494,0.4735 1.532494,2.88219 v 2.88221 l 4.814143,1.58037 c 10.536141,3.45877 19.567709,4.66258 46.085573,6.14269 23.40269,1.30623 31.03431,-0.35807 54.27055,-11.83532 8.54552,-4.22096 10.14238,-5.2909 11.30956,-7.57777 2.44789,-4.79613 6.4258,-7.12182 13.59879,-7.95055 3.75494,-0.43383 4.17659,-0.30543 7.58684,2.31018 1.98602,1.52325 7.08895,4.58561 11.33987,6.80525 6.30943,3.2945 9.34964,4.36924 16.55326,5.85171 11.61208,2.38971 14.92079,3.45114 20.55264,6.59324 5.76755,3.2178 17.43253,7.12695 23.09136,7.73834 2.79033,0.30147 7.17685,-0.0673 13.06938,-1.09859 6.24451,-1.09294 13.36229,-1.65376 24.05068,-1.89499 13.79997,-0.31146 15.5875,-0.20545 19.64587,1.16508 2.45553,0.82925 4.62931,1.34301 4.83062,1.14169 0.20132,-0.20131 -0.65766,-2.38053 -1.90885,-4.8427 -3.5024,-6.89227 -2.91885,-11.3867 1.47842,-11.3867 1.9693,0 3.86993,1.6441 6.14122,5.31232 0.66462,1.07339 3.95591,4.85418 7.31398,8.40175 5.55456,5.86801 6.35099,6.44498 8.82487,6.39317 1.4956,-0.0313 4.87814,-0.95552 7.51675,-2.05376 z m -76.3515,-15.77696 c 2.59533,-1.58248 4.25072,-5.739 3.49106,-8.76571 -0.37092,-1.47788 -0.90783,-1.72585 -3.73688,-1.72585 -4.6579,0 -8.46076,1.72251 -8.57199,3.8827 -0.16471,3.19882 0.15232,3.95472 2.52179,6.01269 2.81186,2.4422 3.20708,2.47963 6.29602,0.59617 z m 24.86154,-3.74005 c 0.43079,-0.80494 0.99915,-3.0386 1.26301,-4.96367 0.46772,-3.4124 0.4347,-3.48905 -1.3171,-3.05735 -10.18491,2.50988 -11.07497,3.15116 -8.0387,5.79174 1.67821,1.4595 5.63953,3.60136 6.7757,3.66358 0.29361,0.0161 0.8863,-0.62936 1.31709,-1.4343 z m -48.26302,-1.33705 c 2.18833,-4.28246 2.24316,-6.70902 0.19784,-8.75434 -2.3922,-2.3922 -3.83481,-2.38693 -5.41174,0.0198 -1.58132,2.4134 -1.50345,5.64032 0.20595,8.53411 1.65835,2.80735 3.63539,2.88649 5.00795,0.20044 z m -152.72821,-7.46822 c 0.66357,-1.26217 0.62616,-5.89632 -0.0531,-6.57557 -0.80259,-0.80259 -8.877216,-1.96785 -10.61457,-1.5318 -2.117613,0.53149 -2.455132,2.1863 -1.067208,5.23246 1.585278,3.47931 10.295248,5.61316 11.734868,2.87491 z m 21.81273,-1.0075 c 0.29996,-1.13116 0.0876,-2.95685 -0.50896,-4.37565 -0.90263,-2.14671 -1.26675,-2.37484 -3.07926,-1.92921 -2.8395,0.69815 -5.41627,2.47176 -5.41627,3.72805 0,0.57688 1.09222,1.91841 2.42717,2.98116 3.08294,2.45436 5.8646,2.28334 6.57732,-0.40435 z m 113.52339,-1.44595 c 0.7945,-0.4252 1.44455,-1.23218 1.44455,-1.79329 0,-0.5611 1.17624,-1.71418 2.61387,-2.56241 1.43764,-0.84823 2.61388,-2.09243 2.61388,-2.76491 0,-0.67247 -2.12578,-3.79245 -4.72397,-6.93328 -2.59818,-3.14084 -5.8426,-7.39096 -7.20981,-9.44472 -4.37376,-6.57005 -7.76669,-10.82892 -8.6271,-10.82892 -0.46012,0 -1.57225,0.78307 -2.47137,1.74016 -0.89914,0.95708 -3.22619,2.52634 -5.17124,3.48725 -4.16234,2.05632 -4.63006,2.6224 -4.64524,5.62204 -0.0281,5.5505 4.9429,7.64426 11.599,4.88545 2.39632,-0.99321 5.09036,-1.54917 6.81789,-1.40697 2.60999,0.21484 2.87606,0.44149 3.08774,2.63022 0.18689,1.93252 -0.354,3.03045 -2.80059,5.68468 -3.76603,4.08566 -3.99661,6.78652 -0.86552,10.13835 2.29727,2.45925 5.51656,3.05629 8.33791,1.54635 z M 79.580176,454.85882 c 0.425203,-0.79449 0.773095,-2.94413 0.773095,-4.77697 0,-2.87971 -0.358631,-3.64731 -2.639863,-5.65027 -1.451925,-1.2748 -2.930719,-2.31782 -3.28621,-2.31782 -0.355491,0 -1.02301,1.59633 -1.483377,3.5474 -0.864331,3.66311 -0.271864,7.46549 1.494946,9.59436 1.258901,1.51689 4.240406,1.28684 5.141409,-0.3967 z m 68.327014,0.23382 c 1.74447,-0.66941 3.58825,-4.63568 3.08573,-6.63789 -0.53853,-2.14568 -4.22046,-7.83464 -5.07063,-7.83464 -1.58138,0 -11.05102,5.35482 -11.05102,6.24904 0,0.55139 1.82826,2.73161 4.06281,4.84496 3.97223,3.75676 5.9989,4.51984 8.97311,3.37853 z m 144.21405,-8.06571 c 3.49096,-2.55594 -0.37079,-15.33503 -4.8317,-15.98881 -2.22678,-0.32635 -4.54935,1.86476 -4.54024,4.28328 0.014,3.73449 5.19158,12.76693 7.31818,12.76693 0.33225,0 1.25644,-0.47763 2.05376,-1.0614 z m 36.75754,-1.59482 c 1.65039,-1.15598 2.18248,-4.07463 1.20651,-6.61797 -0.72712,-1.89484 -1.54301,-1.38618 -2.79483,1.74246 -0.64343,1.60807 -1.52009,3.14021 -1.94815,3.40476 -1.27059,0.78527 -0.88517,2.63333 0.54919,2.63333 0.73011,0 2.07439,-0.52317 2.98728,-1.16258 z m -62.02795,-2.40144 c 2.99746,-2.33116 5.43567,-6.33323 5.43567,-8.92212 0,-3.35609 -2.52934,-4.4139 -6.63045,-2.77296 -2.34638,0.93883 -3.04089,1.71326 -3.83992,4.28179 -1.19204,3.83186 -1.1537,3.37962 -0.535,6.30967 0.59492,2.81741 2.80339,3.25502 5.5697,1.10362 z m -137.78481,-4.46432 c 1.81576,-2.06778 2.21277,-4.35543 1.32686,-7.64546 -0.68533,-2.54514 -1.36913,-3.31727 -4.12242,-4.65492 -3.21003,-1.55956 -3.34252,-1.56589 -4.81821,-0.2304 -0.83458,0.75528 -1.51742,1.79189 -1.51742,2.30357 0,0.89502 2.41298,6.36273 4.34863,9.8538 1.11454,2.01016 3.20217,2.17316 4.78256,0.37341 z m 37.49656,0.5786 c 1.57242,-0.59783 1.91567,-1.21575 1.91567,-3.44856 0,-2.16409 -0.59276,-3.31298 -2.89942,-5.61965 -1.59469,-1.59468 -3.40988,-2.89942 -4.03376,-2.89942 -0.62388,0 -1.83191,1.09223 -2.68454,2.42717 -0.85261,1.33494 -1.95855,2.98712 -2.45762,3.67151 -1.19971,1.64514 0.20586,3.37336 4.23371,5.2056 3.52445,1.60324 3.46993,1.59713 5.92596,0.66335 z m -63.60141,-2.7732 c 1.59357,-1.10435 3.53923,-3.266 4.32369,-4.80367 0.78446,-1.53768 1.76717,-3.00645 2.18379,-3.26393 0.41662,-0.25749 0.7575,-1.29394 0.7575,-2.30323 0,-1.35375 -0.66995,-2.15453 -2.55433,-3.05312 -2.53179,-1.20734 -2.5814,-1.19664 -5.62364,1.21287 -3.285734,2.60235 -4.774927,4.9376 -5.603944,8.78774 -1.190255,5.52778 1.466437,6.92333 6.516934,3.42334 z m -37.693701,-5.60969 c 1.615053,-1.61505 1.082021,-6.45409 -0.932881,-8.46899 -1.576843,-1.57684 -2.114137,-1.72068 -3.89634,-1.04309 -3.210163,1.2205 -3.983277,2.17339 -3.983277,4.90952 0,2.05677 0.456661,2.81185 2.427171,4.01329 2.761179,1.68352 5.077329,1.89727 6.385327,0.58927 z m 217.934661,-7.65989 c 3.14056,-3.0092 3.42652,-3.56392 2.98224,-5.78528 -0.27026,-1.35132 -1.08331,-3.04887 -1.80676,-3.77233 -1.47158,-1.47158 -8.97244,-3.29413 -10.74999,-2.61201 -1.83863,0.70554 -4.55762,7.01483 -3.99282,9.26517 0.8119,3.23485 4.38831,6.23278 7.43548,6.23278 2.12914,0 3.34957,-0.66245 6.13185,-3.32833 z m 24.18499,-1.44289 c 2.02146,-0.64185 2.6664,-1.28465 2.8456,-2.83617 0.20294,-1.75695 -0.12185,-2.1052 -2.61387,-2.80267 -1.56508,-0.43804 -5.06348,-1.0071 -7.77423,-1.26456 -4.73736,-0.44995 -4.9471,-0.39916 -5.40427,1.30902 -0.92597,3.45982 -0.56585,6.50417 0.81092,6.8551 1.84756,0.47095 9.03295,-0.2755 12.13585,-1.26072 z m -46.45326,-1.99121 c 0.18774,-2.23407 -0.0966,-2.82597 -1.79396,-3.73411 -2.40963,-1.28924 -8.21733,-1.30353 -9.47987,-0.0233 -0.70272,0.71256 -0.16637,1.55065 2.46227,3.84751 2.72203,2.37845 3.85745,2.90119 5.97458,2.75067 2.41401,-0.17164 2.63093,-0.38885 2.83698,-2.84076 z M 175.66913,418.472 c 0.73281,-2.91976 -0.11448,-10.02935 -1.28345,-10.76935 -2.31623,-1.46628 -3.57216,-0.16329 -4.80054,4.98041 -1.44733,6.06051 -1.41957,6.21985 1.28117,7.35543 2.92507,1.2299 4.20581,0.81217 4.80282,-1.56649 z m -55.12187,-1.5655 c 2.84954,-2.47175 3.23054,-3.17342 3.26253,-6.00849 0.0199,-1.76546 -0.15966,-3.40581 -0.39906,-3.64521 -0.23941,-0.23941 -2.79082,-0.60382 -5.66981,-0.80982 -3.97866,-0.28466 -5.66242,-0.0942 -7.018,0.79405 -3.14738,2.06225 -3.12512,7.66151 0.0444,11.16376 2.08306,2.30176 6.11369,1.68591 9.77997,-1.49429 z m 102.65626,2.24248 c 0.16248,-0.30806 -0.17782,-2.1725 -0.75623,-4.14319 l -1.05165,-3.58308 -4.24075,0.22238 -4.24073,0.22238 v 2.96523 c 0,2.41315 0.34762,3.1411 1.86705,3.90981 2.02937,1.02669 7.94462,1.31217 8.42231,0.40647 z M 98.716927,415.80879 c 2.505703,-1.14166 2.590253,-5.42253 0.120186,-6.08448 -3.607284,-0.96672 -6.587977,-0.48532 -8.435689,1.36239 -4.781819,4.78182 0.990375,8.05965 8.315503,4.72209 z M 335.21492,414.1768 c -0.2317,-3.79834 -1.97407,-6.41685 -4.2698,-6.41685 -2.33108,0 -3.02582,2.17077 -1.85614,5.79959 1.27663,3.96062 1.33664,4.01785 3.94688,3.76448 2.23947,-0.21738 2.34821,-0.37443 2.17906,-3.14722 z m -193.71458,-0.40484 c 2.20836,-0.39825 4.18866,-0.89754 4.40065,-1.10954 0.81928,-0.81927 -1.49447,-2.51645 -4.62596,-3.39321 -5.7303,-1.60438 -11.63151,0.28146 -11.63151,3.71707 0,2.33057 2.40603,2.49 11.85682,0.78568 z m -75.791186,-7.52077 c 0.660728,-1.65132 1.201323,-3.9771 1.201323,-5.16841 0,-1.81167 -0.376072,-2.24861 -2.298848,-2.67093 -8.841029,-1.94182 -11.715774,4.77895 -4.049138,9.46634 3.182974,1.94607 3.794336,1.7528 5.146663,-1.627 z m 202.251626,-0.50986 c 1.55764,-1.521 2.82469,-3.4534 2.81567,-4.29423 -0.026,-2.42103 -2.69757,-7.67794 -4.35194,-8.56333 -2.12364,-1.13654 -2.47804,-1.05159 -4.87141,1.16767 -1.94311,1.80175 -2.10049,2.32659 -1.7966,5.9911 0.25944,3.1285 0.80406,4.50797 2.46373,6.24029 1.17187,1.22317 2.30568,2.22394 2.51958,2.22394 0.2139,0 1.66333,-1.24445 3.22097,-2.76544 z m 25.51867,-1.9022 c 1.0019,-1.58348 2.70535,-8.30757 2.70535,-10.67897 0,-0.68618 -0.75913,-1.08347 -2.07031,-1.08347 -2.57038,0 -6.79693,3.39093 -9.83212,7.88823 l -2.26683,3.35881 1.67017,0.61723 c 0.91859,0.33949 2.17427,0.807 2.7904,1.03892 2.76866,1.04218 5.95003,0.52399 7.00334,-1.14075 z m -67.44907,-5.39805 c 1.20649,-2.66088 2.19362,-5.18564 2.19362,-5.61059 0,-1.50829 -8.43501,-4.6979 -12.57204,-4.75398 -3.38794,-0.0459 -4.19507,0.22119 -5.39786,1.78638 -1.90632,2.48072 -1.80725,5.93857 0.25819,9.01146 1.56334,2.32589 2.08786,2.56877 6.28658,2.91102 2.51951,0.20538 4.8326,0.62547 5.14021,0.93353 1.19799,1.19976 1.97692,0.38532 4.0913,-4.27782 z m -97.27543,2.22872 c 2.5388,-2.13625 5.3695,-7.67226 5.3695,-10.50112 0,-4.31323 -2.29443,-5.7776 -6.23757,-3.98099 -1.37959,0.62859 -2.31509,2.26895 -3.82067,6.69945 -1.94771,5.73156 -1.96238,5.91013 -0.63539,7.73259 1.71579,2.35642 2.5736,2.3645 5.32413,0.05 z m -19.99618,-0.78313 c 0.56673,-0.68287 0.67999,-1.41131 0.27815,-1.78903 -0.97721,-0.91855 -4.03853,0.44333 -4.03853,1.79662 0,1.48378 2.52688,1.47868 3.76038,-0.008 z m 63.85926,-5.10538 c 0.52581,-2.80281 -0.72998,-5.89581 -3.36021,-8.27613 -3.64116,-3.29521 -5.8364,2.29146 -3.04808,7.75703 1.2829,2.51467 1.93209,3.04225 3.74349,3.04225 1.89822,0 2.25479,-0.33761 2.6648,-2.52315 z m 157.02439,0.88014 c 0.95659,-0.95659 1.18996,-4.19065 0.44287,-6.13753 -0.4596,-1.1977 -3.59117,-1.58851 -5.83359,-0.72801 -1.39156,0.534 -1.53383,3.18365 -0.31461,5.85954 0.94714,2.07875 4.08014,2.63119 5.70533,1.006 z M 199.0773,389.47805 c 1.3805,-1.0185 3.05009,-2.67513 3.7102,-3.68141 0.6601,-1.00627 2.5365,-2.88754 4.16978,-4.1806 5.02736,-3.98015 7.20443,-9.89986 5.30909,-14.43605 -1.53681,-3.6781 -5.06926,-4.33664 -11.29207,-2.10513 -5.81032,2.08358 -6.88544,2.01631 -10.41113,-0.65136 -5.70546,-4.31696 -9.75633,-2.1786 -9.71151,5.12648 0.0361,5.89029 1.27299,8.96876 6.35995,15.82954 3.96588,5.34878 4.66182,5.95035 6.8838,5.95035 1.45854,0 3.50087,-0.75915 4.98189,-1.85182 z M 73.885658,385.542 c 1.484799,-1.12957 3.463412,-2.63231 4.396918,-3.33942 l 1.697284,-1.28565 -1.867055,-1.49314 c -3.941869,-3.15244 -8.129215,-4.94358 -9.519793,-4.07209 -1.742669,1.09215 -2.078927,6.11558 -0.639904,9.55964 1.346676,3.22306 2.380438,3.33294 5.93255,0.63066 z m 32.423412,1.12023 c -0.356,-1.08097 -3.55114,-1.74366 -3.55114,-0.73653 0,1.06651 0.87717,1.67006 2.42717,1.67006 0.81121,0 1.2982,-0.40448 1.12397,-0.93353 z m 130.76474,-2.80526 c 3.36783,-2.43965 3.67063,-3.44569 2.00594,-6.66484 -1.73627,-3.35758 -5.40001,-6.02645 -8.27289,-6.02645 -2.88768,0 -4.0765,1.52544 -4.0765,5.2308 0,3.32585 4.2136,9.30685 6.79605,9.64667 0.24644,0.0324 1.84277,-0.95135 3.5474,-2.18618 z m -75.19923,-5.28313 c 2.87638,-1.46742 3.02165,-1.70067 2.61605,-4.20015 -0.23621,-1.45554 -1.03195,-3.32437 -1.76833,-4.15294 -1.74271,-1.96091 -6.75887,-4.2456 -9.36719,-4.26643 -1.76803,-0.0141 -2.05376,0.28232 -2.05376,2.13072 0,4.27069 1.01513,7.03326 3.49606,9.51419 1.39057,1.39057 2.86656,2.52831 3.27998,2.52831 0.41343,0 2.12216,-0.69917 3.79719,-1.5537 z m 148.80651,-0.31336 c 1.07449,-4.28113 -1.05499,-7.0948 -5.36959,-7.0948 -2.46797,0 -4.29657,1.68083 -5.03116,4.62458 -0.47002,1.88356 -0.273,2.08097 3.11581,3.12198 5.37248,1.65035 6.73781,1.52821 7.28494,-0.65176 z m -23.50123,-2.89253 c 2.23817,-1.03268 3.35144,-4.75417 2.27172,-7.59404 -0.72679,-1.91161 -0.97883,-2.00259 -4.58724,-1.65587 -2.68317,0.25782 -4.06409,0.78509 -4.6454,1.77373 -0.7951,1.35222 -2.66992,6.84216 -2.69335,7.88679 -0.0313,1.39462 6.32793,1.12416 9.65427,-0.41061 z m -20.02585,-0.20953 c 1.04708,-1.26167 1.43012,-7.19722 0.523,-8.10435 -0.27608,-0.27608 -1.87902,-0.81137 -3.56208,-1.18952 -6.4699,-1.4537 -14.97991,2.88276 -14.97991,7.63333 0,2.52419 0.60701,2.69811 9.80395,2.80892 5.84937,0.0705 7.38118,-0.14365 8.21504,-1.14838 z M 95.784187,374.38999 c 2.501413,-0.7885 3.986453,-1.6765 3.986453,-2.38376 0,-1.24139 -5.583098,-6.76608 -6.970723,-6.89779 -2.270645,-0.21554 -4.699467,0.29521 -5.616019,1.18098 -1.282427,1.23934 -0.561274,4.84697 1.490253,7.45506 1.770797,2.2512 1.961319,2.2685 7.110036,0.64551 z m 19.544833,-8.75978 c 0.40717,-2.06317 -1.98907,-5.043 -3.84313,-4.77909 -2.07692,0.29563 -2.67478,4.31189 -0.90529,6.08139 1.42582,1.42582 4.36935,0.61853 4.74842,-1.3023 z m 23.25736,1.45084 c 0.72706,-0.87606 0.63255,-1.66671 -0.46868,-3.92082 -1.66721,-3.41264 -4.049,-4.06261 -5.78819,-1.57956 -1.20944,1.72671 -1.60379,5.19052 -0.69447,6.09984 0.93871,0.93871 6.03986,0.49881 6.95134,-0.59946 z m 35.3868,-3.19689 c 0.97876,-1.54032 2.4934,-3.43908 3.36588,-4.21947 2.10475,-1.88261 3.07698,-5.66088 3.09399,-12.0239 0.008,-2.87527 0.67728,-8.42042 1.488,-12.32256 1.49723,-7.20654 1.97492,-21.28069 0.82222,-24.22483 -0.49586,-1.26647 -0.96763,-0.94076 -3.78595,2.61388 -1.77073,2.23335 -4.035,5.28707 -5.03173,6.78605 -1.7391,2.61543 -7.32656,7.7896 -11.36652,10.52575 -2.45189,1.66059 -9.18546,1.78868 -10.5041,0.19981 -2.20258,-2.65394 1.98303,-12.6477 6.3849,-15.24487 2.44361,-1.44176 2.68627,-1.86082 2.32518,-4.01546 -0.22173,-1.32313 -0.61553,-3.79012 -0.87508,-5.48221 -0.48341,-3.15138 -2.36421,-4.76511 -5.55374,-4.76511 -0.75667,0 -2.1163,-0.59965 -3.02141,-1.33257 -1.54213,-1.24874 -1.59686,-1.61283 -0.86992,-5.78787 0.42665,-2.45041 1.14498,-7.41306 1.59629,-11.0281 1.217,-9.74838 1.85962,-10.67781 8.59543,-12.43178 4.59609,-1.19679 15.26275,-0.96605 19.32481,0.41803 3.70118,1.26112 4.66416,1.08233 3.96625,-0.73637 -0.27982,-0.72922 -1.51629,-1.09021 -3.73413,-1.09021 -5.06898,0 -10.08041,-2.98062 -19.26146,-11.45606 -2.54788,-2.35205 -2.77117,-4.87011 -0.66888,-7.54274 0.82151,-1.04438 1.49365,-2.77005 1.49365,-3.83483 0,-1.74285 -0.28232,-1.93596 -2.83038,-1.93596 -1.55672,0 -4.8334,0.53626 -7.28152,1.19168 -3.33291,0.89231 -6.52694,1.09708 -12.71393,0.81508 -7.70642,-0.35125 -18.21723,0.69943 -19.46339,1.9456 -0.27806,0.27805 1.06239,2.18181 2.97875,4.23056 7.64178,8.16968 6.89383,12.33622 -4.10817,22.88483 -7.17081,6.87531 -9.6693,8.1404 -16.0769,8.1404 -6.175865,0 -6.143602,0.32197 0.43941,4.38524 5.23242,3.22963 13.51756,5.34098 18.20197,4.6385 2.85615,-0.4283 4.83722,-1.39045 8.88811,-4.31666 1.53182,-1.10653 4.89455,-0.12402 6.08885,1.77899 1.43184,2.28154 -0.77172,4.78069 -6.5184,7.39281 -5.11638,2.32561 -5.65158,2.41218 -14.05584,2.27351 -4.81367,-0.0794 -10.26815,-0.60499 -12.14691,-1.17041 -4.06281,-1.22272 -4.393809,-0.86849 -5.191221,5.55562 -0.861601,6.94129 -1.778743,9.2496 -5.011989,12.61444 -4.145145,4.31386 -8.079515,6.01924 -13.933792,6.03971 -4.834355,0.0169 -10.62053,-2.14214 -12.809503,-4.77969 -0.537933,-0.64817 -1.487826,-1.17849 -2.110875,-1.17849 -1.712036,0 -0.786705,5.78697 2.211283,13.82925 l 2.500732,6.70835 3.348484,0.22023 c 2.780139,0.18285 3.555199,0.58041 4.56638,2.34229 1.941937,3.38363 8.043737,5.27911 16.994136,5.27911 4.036049,0 9.130535,0.3399 11.321075,0.75532 3.53608,0.67061 4.36423,0.5659 7.38344,-0.93352 5.89559,-2.9279 9.82755,-10.49598 8.66704,-16.68198 -0.4073,-2.17112 -1.01645,-2.88721 -3.2571,-3.82894 -8.10238,-3.40538 -13.87541,0.56248 -11.62962,7.99315 2.00069,6.61973 0.75439,9.3874 -3.97225,8.8212 -3.325414,-0.39835 -5.036204,-3.66454 -5.33208,-10.17984 l -0.260611,-5.73874 2.96327,-3.36646 c 3.608631,-4.09963 8.587711,-6.71306 12.789621,-6.71306 3.57485,0 12.65537,2.07782 14.12918,3.23306 3.54134,2.7759 4.93624,11.47011 2.80804,17.5021 -1.6162,4.58078 -6.21769,11.04175 -9.46826,13.2944 -1.60399,1.11156 -2.90725,2.22737 -2.89614,2.47957 0.0418,0.94975 5.26852,6.05971 6.19811,6.05971 0.53374,0 1.93545,-1.00723 3.1149,-2.23831 2.10302,-2.19508 8.7908,-5.2299 11.52504,-5.2299 0.76167,0 3.06691,1.51231 5.12277,3.36069 2.74075,2.46418 4.35863,3.3607 6.06479,3.3607 5.41606,0 18.60801,4.98532 21.08286,7.96733 1.2788,1.54087 1.9754,1.21803 3.89696,-1.80605 z m 29.93366,-6.7625 c 5.34142,-1.59895 5.63348,-2.28756 4.81307,-11.34793 -0.7632,-8.42857 0.41664,-19.45849 3.11554,-29.12605 1.20404,-4.3129 2.19136,-9.39681 2.19405,-11.29759 0.003,-1.90078 0.42498,-3.79776 0.93842,-4.21551 0.51344,-0.41775 6.64671,-0.97798 13.6295,-1.24493 18.86588,-0.72128 18.05269,-0.49832 19.03253,-5.2182 0.90009,-4.33569 0.0927,-9.85743 -1.61395,-11.03846 -0.57361,-0.39693 -6.96551,-0.4856 -15.22898,-0.21125 -12.91852,0.42889 -14.33965,0.35327 -15.30882,-0.81451 -0.78918,-0.95089 -1.22057,-4.9169 -1.65082,-15.17664 -0.73187,-17.45191 -1.00299,-18.8451 -3.81231,-19.5901 -3.3239,-0.88146 -9.54951,1.45311 -10.78008,4.04247 -0.56559,1.19009 -1.28109,7.08543 -1.67685,13.81621 -0.62239,10.58494 -0.84596,11.86898 -2.27187,13.0473 -2.23901,1.85024 -9.01425,1.68274 -18.48632,-0.45706 -5.89783,-1.33235 -8.52602,-1.59958 -11.06553,-1.12515 -1.83179,0.34222 -3.60888,0.79424 -3.94907,1.00448 -0.34019,0.21026 -1.17347,3.40191 -1.85172,7.09257 -1.30734,7.11384 -0.96082,9.21832 1.65457,10.04841 3.79055,1.20308 14.09573,2.23301 20.59338,2.05816 4.63463,-0.12471 7.72971,0.11279 8.36746,0.64206 1.71704,1.42503 0.635,27.94226 -1.60568,39.34978 -2.61022,13.28889 -2.60225,13.34454 2.50654,17.51544 4.82005,3.93518 6.06547,4.15978 12.45694,2.2465 z M 85.44644,313.35881 c 2.067934,-2.03354 3.079818,-5.93916 3.104053,-11.98084 0.01419,-3.53489 -0.361701,-4.98843 -1.842634,-7.12542 -1.023243,-1.47655 -2.150907,-4.23938 -2.505916,-6.13965 -0.637345,-3.41154 -3.226099,-7.53466 -5.277208,-8.40503 -0.588923,-0.2499 -1.912732,0.3739 -2.99607,1.4118 -1.067517,1.02275 -4.121442,2.9656 -6.786502,4.31746 l -4.845562,2.45791 0.112633,3.73411 c 0.17458,5.78778 4.115442,15.14266 7.925293,18.81317 5.900706,5.6849 9.485786,6.48233 13.111913,2.91649 z m 249.77182,-4.60832 c 5.96418,-2.04066 10.98384,-5.22977 12.28778,-7.80673 0.51385,-1.01552 0.93922,-4.06954 0.94528,-6.78673 0.008,-3.78981 0.35715,-5.38038 1.49736,-6.82993 l 1.48636,-1.88959 -3.16671,-1.26463 c -1.74168,-0.69555 -5.5474,-2.74715 -8.45713,-4.55911 -2.90975,-1.81196 -6.2017,-3.29447 -7.31547,-3.29447 -2.62581,0 -5.46054,2.86516 -6.07493,6.14017 -0.33107,1.76472 -1.72161,3.76882 -4.4268,6.38005 -4.56236,4.40388 -5.20983,6.47059 -3.85419,12.30238 2.4084,10.36059 5.28705,11.64304 17.07845,7.60859 z m 43.37044,-4.07387 c -0.13353,-6.213 -3.37549,-23.3592 -4.72389,-24.98393 -1.03207,-1.24357 -2.97952,-0.23094 -8.21283,4.27049 l -3.24308,2.78953 0.93509,3.12105 c 2.24517,7.49373 8.80921,18.96207 11.47586,20.05002 3.43032,1.39951 3.89772,0.74877 3.76885,-5.24716 z M 48.898093,299.88689 c 1.156344,-4.59226 1.102145,-5.48573 -0.250141,-4.12355 -1.326676,1.33637 -2.425175,7.44155 -1.338953,7.44155 0.414487,0 1.12958,-1.4931 1.589094,-3.318 z m 15.417703,-19.43688 c 2.474347,-1.09428 6.126293,-3.72306 8.983157,-6.46637 4.114768,-3.9512 4.813852,-5.00032 4.813852,-7.22418 0,-6.77889 -5.667048,-18.81939 -8.857634,-18.81939 -1.435486,0 -6.600671,7.26902 -7.164077,10.08209 -2.225713,11.11289 -3.462255,16.28262 -4.608151,19.26571 -1.202534,3.13054 -1.236407,3.67079 -0.268522,4.28279 1.646721,1.04122 2.527152,0.90229 7.101375,-1.12065 z m 301.331884,-5.68996 c 2.45986,-1.67909 4.47248,-3.47515 4.47248,-3.99125 0,-0.5161 -2.45516,-4.44529 -5.45591,-8.73153 -12.0597,-17.22594 -12.63281,-17.83131 -16.88099,-17.83131 -1.89223,0 -2.88928,0.77835 -5.97914,4.66763 -5.23313,6.58705 -7.79681,11.84127 -7.17005,14.69487 0.87921,4.003 12.07065,12.28165 18.30919,13.54386 5.97938,1.20978 8.0468,0.82699 12.70442,-2.35227 z m -255.65434,-1.52662 c 4.56549,-3.37869 7.70103,-7.24332 7.70103,-9.49174 0,-2.37076 -4.85902,-7.33205 -8.44923,-8.62707 -4.37444,-1.57789 -15.810962,-2.88673 -20.086197,-2.29873 -3.415328,0.46973 -3.577553,0.5992 -3.569838,2.84918 0.0045,1.2964 0.520079,4.03744 1.145856,6.0912 0.767367,2.51849 0.979614,5.01236 0.651976,7.66057 -0.647861,5.23649 0.251813,6.31254 4.830384,5.77733 1.895187,-0.22154 5.294183,0.0488 7.553319,0.60076 4.90645,1.19876 5.26199,1.10967 10.2227,-2.5615 z m 215.84958,-4.38235 c 0.51676,-1.02688 0.94451,-3.59472 0.95056,-5.70632 0.006,-2.18096 0.6421,-5.24542 1.4721,-7.09481 1.13466,-2.5282 1.25979,-3.44437 0.56011,-4.10071 -1.72953,-1.62242 -9.89916,-4.13043 -14.79024,-4.54048 -9.01905,-0.75612 -21.58476,4.87797 -21.58476,9.67798 0,4.43085 11.66267,11.29124 21.26475,12.50867 3.22516,0.40891 6.04921,0.92875 6.27566,1.1552 0.22645,0.22645 1.42435,0.31178 2.662,0.18962 1.51907,-0.14992 2.55558,-0.82878 3.18982,-2.08915 z M 89.105508,239.51453 c 5.141488,-5.22719 6.674004,-8.09962 5.689782,-10.66446 -0.748039,-1.94935 -2.34045,-1.13326 -7.965184,4.08207 -3.058571,2.83594 -6.271197,5.53632 -7.139169,6.00085 -0.867972,0.46452 -1.578132,1.12351 -1.578132,1.46442 0,1.2775 3.144233,4.55537 4.369655,4.55537 0.700676,0 3.681048,-2.44721 6.623048,-5.43825 z m 250.312802,1.33227 c 2.5097,-1.84753 4.56309,-3.63518 4.56309,-3.97254 0,-0.99492 -14.03568,-13.83119 -16.6479,-15.22527 -6.19246,-3.30479 -6.78544,-0.30269 -2.15514,10.91095 2.74972,6.65923 6.40662,11.64602 8.54026,11.64602 0.62513,0 3.18999,-1.51162 5.69969,-3.35916 z m -179.1551,-1.18557 c 1.84839,-0.42575 4.05033,-1.42183 4.89321,-2.2135 0.84289,-0.79167 3.19537,-1.75522 5.22775,-2.14121 2.03239,-0.386 5.9265,-1.70344 8.65358,-2.92765 4.76155,-2.1375 5.0101,-2.38173 6.26311,-6.1542 1.53075,-4.60865 1.6666,-8.72339 0.38979,-11.80589 -0.95142,-2.29693 -1.37657,-2.45988 -11.79794,-4.52162 -9.74889,-1.9287 -12.41284,-1.59191 -13.03211,1.64761 -0.55127,2.88378 0.6055,4.85009 3.8172,6.48858 3.97806,2.02945 4.54728,1.93726 4.54728,-0.73642 0,-3.98224 3.58576,-3.69003 8.9397,0.72851 2.41874,1.99616 2.52512,2.26334 1.59402,4.00313 -2.78916,5.21158 -13.32452,5.69391 -22.13874,1.01354 -2.80512,-1.48953 -5.29037,-2.5189 -5.52276,-2.28748 -0.61332,0.61074 -1.01726,15.74646 -0.47762,17.89657 0.52209,2.08018 2.82782,2.34962 8.64353,1.01003 z"
     id="path817"
     inkscape:connector-curvature="0" />
</svg>
