<?xml version="1.0" encoding="UTF-8" standalone="no"?>
<!-- Created with Inkscape (http://www.inkscape.org/) -->

<svg
   xmlns:dc="http://purl.org/dc/elements/1.1/"
   xmlns:cc="http://creativecommons.org/ns#"
   xmlns:rdf="http://www.w3.org/1999/02/22-rdf-syntax-ns#"
   xmlns:svg="http://www.w3.org/2000/svg"
   xmlns="http://www.w3.org/2000/svg"
   xmlns:sodipodi="http://sodipodi.sourceforge.net/DTD/sodipodi-0.dtd"
   xmlns:inkscape="http://www.inkscape.org/namespaces/inkscape"
   width="55.633698mm"
   height="55.723648mm"
   id="svg2"
   version="1.1"
   inkscape:version="0.92.2 (5c3e80d, 2017-08-06)"
   sodipodi:docname="logo.svg">
  <sodipodi:namedview
     id="base"
     pagecolor="#ffffff"
     bordercolor="#666666"
     borderopacity="1.0"
     inkscape:pageopacity="0.0"
     inkscape:pageshadow="2"
     inkscape:zoom="2.8"
     inkscape:cx="92.009586"
     inkscape:cy="84.300291"
     inkscape:document-units="px"
     inkscape:current-layer="layer2"
     showgrid="false"
     inkscape:window-width="1920"
     inkscape:window-height="961"
     inkscape:window-x="0"
     inkscape:window-y="49"
     inkscape:window-maximized="1"
     fit-margin-top="5"
     fit-margin-left="5"
     fit-margin-right="5"
     fit-margin-bottom="5" />
  <defs
     id="defs4" />
  <metadata
     id="metadata7">
    <rdf:RDF>
      <cc:Work
         rdf:about="">
        <dc:format>image/svg+xml</dc:format>
        <dc:type
           rdf:resource="http://purl.org/dc/dcmitype/StillImage" />
        <dc:title></dc:title>
      </cc:Work>
    </rdf:RDF>
  </metadata>
  <g
     inkscape:groupmode="layer"
     id="layer3"
     inkscape:label="engrenage"
     style="display:inline"
     transform="translate(2.6996432,-10.87482)">
    <g
       id="g2990"
       transform="translate(102.25881,116.17935)"
       inkscape:label="Gear25"
       style="fill:#ffffff;fill-opacity:1;stroke:#000000;stroke-opacity:1"
       inkscape:export-filename="C:\Users\Utilisateur\Documents\projets\fabmoments\apprenti-maker-logo\logo-2.png"
       inkscape:export-xdpi="90"
       inkscape:export-ydpi="90">
      <path
         inkscape:connector-curvature="0"
         id="path2992"
         d="m 72.99,-5.685 1.563,-0.122 4.867,0.81 6.493,2.706 v 4.582 l -6.493,2.706 -4.867,0.81 -1.563,-0.122 -0.879,6.96 1.544,0.271 4.513,1.995 5.616,4.236 -1.14,4.438 -6.961,1.006 -4.917,-0.426 -1.483,-0.506 -2.582,6.522 1.427,0.646 3.876,3.055 4.386,5.499 -2.207,4.016 -6.994,-0.757 -4.656,-1.635 -1.31,-0.86 -4.123,5.676 1.222,0.981 2.993,3.923 2.881,6.417 -3.136,3.34 -6.585,-2.473 -4.104,-2.741 -1.055,-1.158 -5.406,4.471 0.94,1.254 1.924,4.545 1.195,6.931 -3.869,2.455 -5.763,-4.032 -3.293,-3.676 -0.734,-1.384 -6.348,2.987 0.599,1.448 0.733,4.88 -0.567,7.011 -4.357,1.416 -4.58,-5.339 -2.275,-4.379 -0.367,-1.523 -6.891,1.314 0.22,1.552 L 9.974,78.95 7.681,85.6 3.108,85.887 0,79.577 -1.114,74.77 l 0.023,-1.567 -7.001,-0.44 -0.173,1.557 -1.709,4.63 -3.874,5.871 -4.501,-0.859 -1.441,-6.885 0.116,-4.933 0.412,-1.512 -6.671,-2.168 -0.555,1.466 -2.806,4.059 -5.213,4.723 -4.146,-1.951 0.316,-7.027 1.34,-4.749 0.775,-1.362 -5.923,-3.759 -0.902,1.281 -3.727,3.235 -6.224,3.278 -3.53,-2.921 2.053,-6.728 2.479,-4.267 1.09,-1.126 -4.802,-5.114 -1.193,1.017 -4.414,2.206 -6.844,1.627 -2.693,-3.707 3.663,-6.005 3.461,-3.517 1.336,-0.82 -3.38,-6.147 -1.407,0.688 -4.825,1.038 -7.033,-0.125 -1.686,-4.26 5.04,-4.906 4.228,-2.546 1.497,-0.462 -1.744,-6.794 -1.535,0.316 -4.931,-0.194 -6.781,-1.87 -0.574,-4.546 6.103,-3.498 4.728,-1.414 1.565,-0.076 v -7.014 l -1.565,-0.076 -4.728,-1.414 -6.103,-3.498 0.574,-4.546 6.781,-1.87 4.931,-0.194 1.535,0.316 1.744,-6.794 -1.497,-0.462 -4.228,-2.546 -5.04,-4.906 1.686,-4.26 7.033,-0.125 4.825,1.038 1.407,0.688 3.38,-6.147 -1.336,-0.82 -3.461,-3.517 -3.663,-6.005 2.693,-3.707 6.844,1.627 4.414,2.206 1.193,1.017 4.802,-5.114 -1.09,-1.126 -2.479,-4.267 -2.053,-6.728 3.53,-2.921 6.224,3.278 3.727,3.235 0.902,1.281 5.923,-3.759 -0.775,-1.362 -1.34,-4.749 -0.316,-7.027 4.146,-1.951 5.213,4.723 2.806,4.059 0.555,1.466 6.671,-2.168 -0.412,-1.512 -0.116,-4.933 1.441,-6.885 4.501,-0.859 3.874,5.871 1.709,4.63 0.173,1.557 7.001,-0.44 -0.023,-1.567 1.114,-4.807 3.108,-6.31 4.573,0.287 2.293,6.65 0.503,4.909 -0.22,1.552 6.891,1.314 0.367,-1.523 2.275,-4.379 4.58,-5.339 4.357,1.416 0.567,7.011 -0.733,4.88 -0.599,1.448 6.348,2.987 0.734,-1.384 3.293,-3.676 5.763,-4.032 3.869,2.455 -1.195,6.931 -1.924,4.545 -0.94,1.254 5.406,4.471 1.055,-1.158 4.104,-2.741 6.585,-2.473 3.136,3.34 -2.881,6.417 -2.993,3.923 -1.222,0.981 4.123,5.676 1.31,-0.86 4.656,-1.635 6.994,-0.757 2.207,4.016 -4.386,5.499 -3.876,3.055 -1.427,0.646 2.582,6.522 1.483,-0.506 4.917,-0.426 6.961,1.006 1.14,4.438 -5.616,4.236 -4.513,1.995 -1.544,0.271 z"
         style="fill:#ffffff;fill-opacity:1;stroke:#000000;stroke-opacity:1" />
    </g>
  </g>
  <g
     id="layer1"
     inkscape:groupmode="layer"
     inkscape:label="A"
     style="display:none"
     sodipodi:insensitive="true"
     transform="translate(2.6996432,-10.87482)">
    <text
       xml:space="preserve"
       style="font-style:normal;font-variant:normal;font-weight:normal;font-stretch:normal;line-height:0%;font-family:'Source Sans Pro';-inkscape-font-specification:'Source Sans Pro';letter-spacing:0px;word-spacing:0px;fill:#ff0000;fill-opacity:1;stroke:#000000;stroke-width:0.90185463;stroke-opacity:1"
       x="58.588459"
       y="151.49861"
       id="text3767"><tspan
         sodipodi:role="line"
         id="tspan3769"
         x="58.588459"
         y="151.49861"
         style="font-style:normal;font-variant:normal;font-weight:bold;font-stretch:normal;font-size:113.35804749px;line-height:1.25;font-family:'DejaVu Sans';-inkscape-font-specification:'DejaVu Sans Bold';fill:#ff0000;fill-opacity:1;stroke:#000000;stroke-width:0.90185463;stroke-opacity:1">A</tspan></text>
  </g>
  <g
     inkscape:groupmode="layer"
     id="layer2"
     inkscape:label="planche gauche"
     style="display:inline"
     transform="translate(2.6996432,-10.87482)">
    <path
       style="fill:#ff0000;fill-opacity:1;stroke:#000000;stroke-width:1px;stroke-linecap:butt;stroke-linejoin:miter;stroke-opacity:1"
       d="M 58.75,151.46933 93.928571,68.790759 H 115.35714 L 80.714285,151.46933 Z"
       id="path3014"
       inkscape:connector-curvature="0"
       sodipodi:nodetypes="ccccc"
       inkscape:export-filename="C:\Users\Utilisateur\Documents\projets\fabmoments\apprenti-maker-logo\logo-2.png"
       inkscape:export-xdpi="90"
       inkscape:export-ydpi="90" />
    <path
       sodipodi:nodetypes="cccc"
       inkscape:connector-curvature="0"
       id="path3858-1"
       d="m 68.794639,142.22826 -3.660719,9.01785 0.892869,0.0893 z"
       style="display:inline;fill:#000000;fill-opacity:1;stroke:none"
       inkscape:export-filename="C:\Users\Utilisateur\Documents\projets\fabmoments\apprenti-maker-logo\logo-2.png"
       inkscape:export-xdpi="90"
       inkscape:export-ydpi="90" />
    <path
       style="display:inline;fill:#000000;fill-opacity:1;stroke:none"
       d="m 76.830353,141.60326 -3.571433,9.64285 1.160727,2e-5 z"
       id="path3878"
       inkscape:connector-curvature="0"
       sodipodi:nodetypes="cccc"
       inkscape:export-filename="C:\Users\Utilisateur\Documents\projets\fabmoments\apprenti-maker-logo\logo-2.png"
       inkscape:export-xdpi="90"
       inkscape:export-ydpi="90" />
    <path
       sodipodi:nodetypes="cccc"
       inkscape:connector-curvature="0"
       id="path3880"
       d="m 71.562496,144.63898 -2.410719,6.60713 0.714298,2e-5 z"
       style="display:inline;fill:#000000;fill-opacity:1;stroke:none"
       inkscape:export-filename="C:\Users\Utilisateur\Documents\projets\fabmoments\apprenti-maker-logo\logo-2.png"
       inkscape:export-xdpi="90"
       inkscape:export-ydpi="90" />
  </g>
  <g
     inkscape:groupmode="layer"
     id="layer4"
     inkscape:label="planche droite"
     style="display:inline"
     transform="translate(2.6996432,-10.87482)">
    <path
       style="fill:#ff0000;fill-opacity:1;stroke:#000000;stroke-width:1px;stroke-linecap:butt;stroke-linejoin:miter;stroke-opacity:1"
       d="m 124.46429,151.46933 21.25,-0.0893 -30.00001,-82.678578 -21.428566,-0.267856 z"
       id="path3022"
       inkscape:connector-curvature="0"
       sodipodi:nodetypes="ccccc"
       inkscape:export-filename="C:\Users\Utilisateur\Documents\projets\fabmoments\apprenti-maker-logo\logo-2.png"
       inkscape:export-xdpi="90"
       inkscape:export-ydpi="90" />
    <path
       transform="translate(29.107144,-42.14286)"
       sodipodi:open="true"
       sodipodi:end="0.086776393"
       sodipodi:start="0.088490505"
       d="m 76.247204,123.67532 a 0.71428573,0.71428573 0 0 1 -0.774311,0.64839 0.71428573,0.71428573 0 0 1 -0.648725,-0.77403 0.71428573,0.71428573 0 0 1 0.773756,-0.64906 0.71428573,0.71428573 0 0 1 0.649387,0.77348"
       sodipodi:ry="0.71428573"
       sodipodi:rx="0.71428573"
       sodipodi:cy="123.61219"
       sodipodi:cx="75.535713"
       id="path3809-5"
       style="display:inline;fill:#000000;fill-opacity:1;stroke:none"
       sodipodi:type="arc"
       inkscape:export-filename="C:\Users\Utilisateur\Documents\projets\fabmoments\apprenti-maker-logo\logo-2.png"
       inkscape:export-xdpi="90"
       inkscape:export-ydpi="90" />
    <path
       transform="translate(26.428573,-49.821432)"
       sodipodi:open="true"
       sodipodi:end="0.086776393"
       sodipodi:start="0.088490505"
       d="m 76.247204,123.67532 a 0.71428573,0.71428573 0 0 1 -0.774311,0.64839 0.71428573,0.71428573 0 0 1 -0.648725,-0.77403 0.71428573,0.71428573 0 0 1 0.773756,-0.64906 0.71428573,0.71428573 0 0 1 0.649387,0.77348"
       sodipodi:ry="0.71428573"
       sodipodi:rx="0.71428573"
       sodipodi:cy="123.61219"
       sodipodi:cx="75.535713"
       id="path3809-2"
       style="display:inline;fill:#000000;fill-opacity:1;stroke:none"
       sodipodi:type="arc"
       inkscape:export-filename="C:\Users\Utilisateur\Documents\projets\fabmoments\apprenti-maker-logo\logo-2.png"
       inkscape:export-xdpi="90"
       inkscape:export-ydpi="90" />
    <path
       style="fill:#000000;fill-opacity:1;stroke:none"
       d="m 109.55357,68.790758 3.125,8.482143 -0.53571,-8.482143 z"
       id="path3836"
       inkscape:connector-curvature="0"
       sodipodi:nodetypes="cccc"
       inkscape:export-filename="C:\Users\Utilisateur\Documents\projets\fabmoments\apprenti-maker-logo\logo-2.png"
       inkscape:export-xdpi="90"
       inkscape:export-ydpi="90" />
    <path
       sodipodi:nodetypes="cccc"
       inkscape:connector-curvature="0"
       id="path3838"
       d="m 102.85714,68.522901 5,11.785714 -3.57142,-11.964285 z"
       style="fill:#000000;fill-opacity:1;stroke:none"
       inkscape:export-filename="C:\Users\Utilisateur\Documents\projets\fabmoments\apprenti-maker-logo\logo-2.png"
       inkscape:export-xdpi="90"
       inkscape:export-ydpi="90" />
    <path
       style="display:inline;fill:#000000;fill-opacity:1;stroke:none"
       d="m 126.74107,141.06754 2.41071,10.17857 2.32144,0.0893 z"
       id="path3836-3"
       inkscape:connector-curvature="0"
       sodipodi:nodetypes="cccc"
       inkscape:export-filename="C:\Users\Utilisateur\Documents\projets\fabmoments\apprenti-maker-logo\logo-2.png"
       inkscape:export-xdpi="90"
       inkscape:export-ydpi="90" />
    <path
       sodipodi:nodetypes="cccc"
       inkscape:connector-curvature="0"
       id="path3858"
       d="m 135.13393,140.88897 2.41071,10.17857 2.32144,0.0893 z"
       style="display:inline;fill:#000000;fill-opacity:1;stroke:none"
       inkscape:export-filename="C:\Users\Utilisateur\Documents\projets\fabmoments\apprenti-maker-logo\logo-2.png"
       inkscape:export-xdpi="90"
       inkscape:export-ydpi="90" />
  </g>
  <g
     inkscape:groupmode="layer"
     id="layer5"
     inkscape:label="planche centrale"
     style="display:inline"
     transform="translate(2.6996432,-10.87482)">
    <path
       style="fill:#ff0000;fill-opacity:1;stroke:#000000;stroke-width:1px;stroke-linecap:butt;stroke-linejoin:miter;stroke-opacity:1"
       d="M 70.178571,121.29076 135,121.46933 l 5.17857,14.46428 -76.071428,-0.17857 z"
       id="path3025"
       inkscape:connector-curvature="0"
       sodipodi:nodetypes="ccccc"
       inkscape:export-filename="C:\Users\Utilisateur\Documents\projets\fabmoments\apprenti-maker-logo\logo-2.png"
       inkscape:export-xdpi="90"
       inkscape:export-ydpi="90" />
    <path
       sodipodi:type="arc"
       style="fill:#000000;fill-opacity:1;stroke:none"
       id="path3803"
       sodipodi:cx="75.535713"
       sodipodi:cy="123.61219"
       sodipodi:rx="0.71428573"
       sodipodi:ry="0.71428573"
       d="m 76.247204,123.67532 a 0.71428573,0.71428573 0 0 1 -0.774311,0.64839 0.71428573,0.71428573 0 0 1 -0.648725,-0.77403 0.71428573,0.71428573 0 0 1 0.773756,-0.64906 0.71428573,0.71428573 0 0 1 0.649387,0.77348"
       sodipodi:start="0.088490505"
       sodipodi:end="0.086776393"
       sodipodi:open="true"
       transform="translate(3.3928571,2.3214286)"
       inkscape:export-filename="C:\Users\Utilisateur\Documents\projets\fabmoments\apprenti-maker-logo\logo-2.png"
       inkscape:export-xdpi="90"
       inkscape:export-ydpi="90" />
    <path
       transform="translate(1.7857143,7.6785714)"
       sodipodi:open="true"
       sodipodi:end="0.086776393"
       sodipodi:start="0.088490505"
       d="m 76.247204,123.67532 a 0.71428573,0.71428573 0 0 1 -0.774311,0.64839 0.71428573,0.71428573 0 0 1 -0.648725,-0.77403 0.71428573,0.71428573 0 0 1 0.773756,-0.64906 0.71428573,0.71428573 0 0 1 0.649387,0.77348"
       sodipodi:ry="0.71428573"
       sodipodi:rx="0.71428573"
       sodipodi:cy="123.61219"
       sodipodi:cx="75.535713"
       id="path3805"
       style="fill:#000000;fill-opacity:1;stroke:none"
       sodipodi:type="arc"
       inkscape:export-filename="C:\Users\Utilisateur\Documents\projets\fabmoments\apprenti-maker-logo\logo-2.png"
       inkscape:export-xdpi="90"
       inkscape:export-ydpi="90" />
    <path
       sodipodi:type="arc"
       style="fill:#000000;fill-opacity:1;stroke:none"
       id="path3807"
       sodipodi:cx="75.535713"
       sodipodi:cy="123.61219"
       sodipodi:rx="0.71428573"
       sodipodi:ry="0.71428573"
       d="m 76.247204,123.67532 a 0.71428573,0.71428573 0 0 1 -0.774311,0.64839 0.71428573,0.71428573 0 0 1 -0.648725,-0.77403 0.71428573,0.71428573 0 0 1 0.773756,-0.64906 0.71428573,0.71428573 0 0 1 0.649387,0.77348"
       sodipodi:start="0.088490505"
       sodipodi:end="0.086776393"
       sodipodi:open="true"
       transform="translate(50.714286,2.3214286)"
       inkscape:export-filename="C:\Users\Utilisateur\Documents\projets\fabmoments\apprenti-maker-logo\logo-2.png"
       inkscape:export-xdpi="90"
       inkscape:export-ydpi="90" />
    <path
       transform="translate(52.5,7.8571429)"
       sodipodi:open="true"
       sodipodi:end="0.086776393"
       sodipodi:start="0.088490505"
       d="m 76.247204,123.67532 a 0.71428573,0.71428573 0 0 1 -0.774311,0.64839 0.71428573,0.71428573 0 0 1 -0.648725,-0.77403 0.71428573,0.71428573 0 0 1 0.773756,-0.64906 0.71428573,0.71428573 0 0 1 0.649387,0.77348"
       sodipodi:ry="0.71428573"
       sodipodi:rx="0.71428573"
       sodipodi:cy="123.61219"
       sodipodi:cx="75.535713"
       id="path3809"
       style="fill:#000000;fill-opacity:1;stroke:none"
       sodipodi:type="arc"
       inkscape:export-filename="C:\Users\Utilisateur\Documents\projets\fabmoments\apprenti-maker-logo\logo-2.png"
       inkscape:export-xdpi="90"
       inkscape:export-ydpi="90" />
  </g>
</svg>
