<?xml version="1.0" encoding="UTF-8" standalone="no"?>
<!-- Created with Inkscape (http://www.inkscape.org/) -->

<svg
   xmlns:dc="http://purl.org/dc/elements/1.1/"
   xmlns:cc="http://creativecommons.org/ns#"
   xmlns:rdf="http://www.w3.org/1999/02/22-rdf-syntax-ns#"
   xmlns:svg="http://www.w3.org/2000/svg"
   xmlns="http://www.w3.org/2000/svg"
   xmlns:xlink="http://www.w3.org/1999/xlink"
   xmlns:sodipodi="http://sodipodi.sourceforge.net/DTD/sodipodi-0.dtd"
   xmlns:inkscape="http://www.inkscape.org/namespaces/inkscape"
   width="210mm"
   height="297mm"
   viewBox="0 0 210 297"
   version="1.1"
   id="svg8"
   inkscape:version="0.92.2 (5c3e80d, 2017-08-06)"
   sodipodi:docname="ours.svg">
  <defs
     id="defs2" />
  <sodipodi:namedview
     id="base"
     pagecolor="#ffffff"
     bordercolor="#666666"
     borderopacity="1.0"
     inkscape:pageopacity="0.0"
     inkscape:pageshadow="2"
     inkscape:zoom="1.4"
     inkscape:cx="399.75544"
     inkscape:cy="737.97265"
     inkscape:document-units="mm"
     inkscape:current-layer="g1103"
     showgrid="false"
     inkscape:window-width="1920"
     inkscape:window-height="961"
     inkscape:window-x="0"
     inkscape:window-y="49"
     inkscape:window-maximized="1" />
  <metadata
     id="metadata5">
    <rdf:RDF>
      <cc:Work
         rdf:about="">
        <dc:format>image/svg+xml</dc:format>
        <dc:type
           rdf:resource="http://purl.org/dc/dcmitype/StillImage" />
        <dc:title></dc:title>
      </cc:Work>
    </rdf:RDF>
  </metadata>
  <g
     inkscape:label="dessin manuel"
     inkscape:groupmode="layer"
     id="layer1"
     sodipodi:insensitive="true"
     style="display:none">
    <image
       sodipodi:absref="/home/loic/projets/fabmoments/ours/ours.jpg"
       xlink:href="ours.jpg"
       width="200"
       height="150"
       preserveAspectRatio="none"
       id="image877"
       x="3.5885913"
       y="2.5301037" />
  </g>
  <g
     inkscape:groupmode="layer"
     id="layer2"
     inkscape:label="traits"
     sodipodi:insensitive="true"
     style="display:none">
    <path
       style="fill:none;fill-opacity:1;fill-rule:evenodd;stroke:#000000;stroke-width:1.5;stroke-linecap:butt;stroke-linejoin:bevel;stroke-miterlimit:4;stroke-dasharray:none;stroke-opacity:1"
       d="m 45.168155,90.247022 -10.583333,1.700892 -7.748513,-4.346726 -5.669643,-15.119045 0.377977,-9.260417 5.669642,-5.10268 -2.645833,-2.456844 0.188988,-3.779763 3.779761,-1.889879 6.236608,5.291666 1.700892,19.654761 -2.83482,2.267857 1.700893,4.157737 3.77976,0.566965 -2.456844,-6.614583 10.583334,-6.236608 -4.346726,-18.331844 20.032736,-1.13393 -15.68601,19.465774 16.81994,-0.755951 -3.212798,22.111607 -6.425594,-12.095239 -7.181548,-9.449403"
       id="path900"
       inkscape:connector-curvature="0" />
    <path
       style="fill:none;fill-rule:evenodd;stroke:#000000;stroke-width:1.5;stroke-linecap:butt;stroke-linejoin:bevel;stroke-miterlimit:4;stroke-dasharray:none;stroke-opacity:1"
       d="M 42.900298,50.748511 33.341873,53.98518"
       id="path902"
       inkscape:connector-curvature="0" />
    <path
       style="fill:none;fill-rule:evenodd;stroke:#000000;stroke-width:1.5;stroke-linecap:butt;stroke-linejoin:bevel;stroke-miterlimit:4;stroke-dasharray:none;stroke-opacity:1"
       d="m 34.773809,55.284226 -7.559524,2.83482 9.449405,17.197917"
       id="path904"
       inkscape:connector-curvature="0" />
    <path
       style="fill:none;fill-rule:evenodd;stroke:#000000;stroke-width:1.5;stroke-linecap:butt;stroke-linejoin:bevel;stroke-miterlimit:4;stroke-dasharray:none;stroke-opacity:1"
       d="M 33.639881,77.206842 21.166666,72.482143"
       id="path906"
       inkscape:connector-curvature="0" />
    <path
       style="fill:none;fill-rule:evenodd;stroke:#000000;stroke-width:1.5;stroke-linecap:butt;stroke-linejoin:bevel;stroke-miterlimit:4;stroke-dasharray:none;stroke-opacity:1"
       d="m 26.836309,87.601186 8.504465,-6.236605"
       id="path908"
       inkscape:connector-curvature="0" />
    <path
       style="fill:none;fill-rule:evenodd;stroke:#000000;stroke-width:1.5;stroke-linecap:butt;stroke-linejoin:bevel;stroke-miterlimit:4;stroke-dasharray:none;stroke-opacity:1"
       d="m 39.120534,81.931546 1.638068,5.796412 13.66997,-9.387186"
       id="path910"
       inkscape:connector-curvature="0" />
    <path
       style="fill:none;fill-rule:evenodd;stroke:#000000;stroke-width:1.5;stroke-linecap:butt;stroke-linejoin:bevel;stroke-miterlimit:4;stroke-dasharray:none;stroke-opacity:1"
       d="m 38.887717,91.269279 -1.536801,-2.00452 3.407686,-1.536803 10.22306,6.48129 9.872504,-3.773235"
       id="path912"
       inkscape:connector-curvature="0" />
    <path
       style="fill:none;fill-rule:evenodd;stroke:#000000;stroke-width:1.5;stroke-linecap:butt;stroke-linejoin:bevel;stroke-miterlimit:4;stroke-dasharray:none;stroke-opacity:1"
       d="M 62.933034,49.614581 64.066964,68.324404 79.178596,65.745039 100.29289,61.13464 98.355186,41.557148 Z"
       id="path914"
       inkscape:connector-curvature="0" />
    <path
       style="fill:none;fill-rule:evenodd;stroke:#000000;stroke-width:1.5;stroke-linecap:butt;stroke-linejoin:bevel;stroke-miterlimit:4;stroke-dasharray:none;stroke-opacity:1"
       d="M 60.854166,90.436011 79.044963,65.678224 97.486559,79.643056 103.76739,64.408692 100.29289,61.13464"
       id="path916"
       inkscape:connector-curvature="0" />
    <path
       style="fill:none;fill-rule:evenodd;stroke:#000000;stroke-width:1.5;stroke-linecap:butt;stroke-linejoin:bevel;stroke-miterlimit:4;stroke-dasharray:none;stroke-opacity:1"
       d="m 60.854166,90.436011 26.409335,13.729019 4.476763,-9.621699 5.746295,-14.900275"
       id="path918"
       inkscape:connector-curvature="0" />
    <path
       style="fill:none;fill-rule:evenodd;stroke:#000000;stroke-width:1.5;stroke-linecap:butt;stroke-linejoin:bevel;stroke-miterlimit:4;stroke-dasharray:none;stroke-opacity:1"
       d="m 91.740264,94.543331 -8.15172,-2.271792 -18.708867,-7.34991"
       id="path920"
       inkscape:connector-curvature="0" />
    <path
       style="fill:none;fill-rule:evenodd;stroke:#000000;stroke-width:1.5;stroke-linecap:butt;stroke-linejoin:bevel;stroke-miterlimit:4;stroke-dasharray:none;stroke-opacity:1"
       d="M 83.588544,92.271537 60.854166,90.436011"
       id="path922"
       inkscape:connector-curvature="0" />
    <path
       style="fill:none;fill-rule:evenodd;stroke:#000000;stroke-width:1.5;stroke-linecap:butt;stroke-linejoin:bevel;stroke-miterlimit:4;stroke-dasharray:none;stroke-opacity:1"
       d="M 97.486559,79.643056 83.588544,92.271537"
       id="path924"
       inkscape:connector-curvature="0" />
    <path
       style="fill:none;fill-rule:evenodd;stroke:#000000;stroke-width:1.5;stroke-linecap:butt;stroke-linejoin:bevel;stroke-miterlimit:4;stroke-dasharray:none;stroke-opacity:1"
       d="m 78.644058,99.68827 -13.02939,12.89575 -5.011303,1.73726 -1.202714,2.00452 -3.073598,0.4009 0.267268,1.60362 3.674957,-0.33409 0.668173,1.26953 -4.142676,1.46998 1.081931,2.15102 4.630953,-1.93386 1.583064,2.12285 -3.961796,2.09426 1.343065,2.11384 4.075858,-2.60588 1.002261,1.26953 -3.140417,3.0736 1.937705,1.60362 3.942226,-2.53906 2.806329,-6.08038 -6.564333,-9.38679"
       id="path926"
       inkscape:connector-curvature="0"
       sodipodi:nodetypes="ccccccccccccccccccccc" />
    <path
       style="fill:none;fill-rule:evenodd;stroke:#000000;stroke-width:1.5;stroke-linecap:butt;stroke-linejoin:bevel;stroke-miterlimit:4;stroke-dasharray:none;stroke-opacity:1"
       d="m 59.400651,116.3258 0.868627,1.67043"
       id="path928"
       inkscape:connector-curvature="0" />
    <path
       style="fill:none;fill-rule:evenodd;stroke:#000000;stroke-width:1.5;stroke-linecap:butt;stroke-linejoin:bevel;stroke-miterlimit:4;stroke-dasharray:none;stroke-opacity:1"
       d="m 60.937451,119.26576 1.570208,1.68714"
       id="path930"
       inkscape:connector-curvature="0"
       sodipodi:nodetypes="cc" />
    <path
       style="fill:none;fill-rule:evenodd;stroke:#000000;stroke-width:1.5;stroke-linecap:butt;stroke-linejoin:bevel;stroke-miterlimit:4;stroke-dasharray:none;stroke-opacity:1"
       d="m 63.476512,122.27255 2.071338,2.40542"
       id="path932"
       inkscape:connector-curvature="0" />
    <path
       style="fill:none;fill-rule:evenodd;stroke:#000000;stroke-width:1.5;stroke-linecap:butt;stroke-linejoin:bevel;stroke-miterlimit:4;stroke-dasharray:none;stroke-opacity:1"
       d="m 66.550111,125.9475 2.739514,2.13816"
       id="path934"
       inkscape:connector-curvature="0" />
    <path
       style="fill:none;fill-rule:evenodd;stroke:#000000;stroke-width:1.5;stroke-linecap:butt;stroke-linejoin:bevel;stroke-miterlimit:4;stroke-dasharray:none;stroke-opacity:1"
       d="m 65.531621,112.61849 21.73188,-8.45346 -15.167547,17.84025"
       id="path936"
       inkscape:connector-curvature="0" />
    <path
       style="fill:none;fill-rule:evenodd;stroke:#000000;stroke-width:1.5;stroke-linecap:butt;stroke-linejoin:bevel;stroke-miterlimit:4;stroke-dasharray:none;stroke-opacity:1"
       d="m 91.740264,94.543331 2.895523,7.798929 -6.378347,12.14249 -16.161486,7.52053"
       id="path938"
       inkscape:connector-curvature="0" />
    <path
       style="fill:none;fill-rule:evenodd;stroke:#000000;stroke-width:1.5;stroke-linecap:butt;stroke-linejoin:bevel;stroke-miterlimit:4;stroke-dasharray:none;stroke-opacity:1"
       d="m 87.263501,104.16503 0.993939,10.31972"
       id="path940"
       inkscape:connector-curvature="0" />
    <path
       style="fill:none;fill-rule:evenodd;stroke:#000000;stroke-width:1.5;stroke-linecap:butt;stroke-linejoin:bevel;stroke-miterlimit:4;stroke-dasharray:none;stroke-opacity:1"
       d="m 23.906994,79.569195 -4.346726,6.567337 7.276041,1.464654"
       id="path942"
       inkscape:connector-curvature="0" />
    <path
       style="fill:none;fill-rule:evenodd;stroke:#000000;stroke-width:1.5;stroke-linecap:butt;stroke-linejoin:bevel;stroke-miterlimit:4;stroke-dasharray:none;stroke-opacity:1"
       d="m 98.355186,41.557148 27.395124,22.250189 3.27405,4.209494 v 1.135896 l 2.20497,2.672695 -3.60813,-1.870886 1.80407,3.942225 -4.2095,-1.737251 2.33861,4.075859 -4.14268,-2.472243 1.5368,4.744034 -4.07586,-3.407687 1.40317,5.078122 -5.7463,-2.338608 -12.76212,-13.430295"
       id="path944"
       inkscape:connector-curvature="0"
       sodipodi:nodetypes="ccccccccccccccc" />
    <path
       style="fill:none;fill-rule:evenodd;stroke:#000000;stroke-width:1.5;stroke-linecap:butt;stroke-linejoin:bevel;stroke-miterlimit:4;stroke-dasharray:none;stroke-opacity:1"
       d="m 100.29289,61.13464 25.45742,2.672697"
       id="path946"
       inkscape:connector-curvature="0" />
    <path
       style="fill:none;fill-rule:evenodd;stroke:#000000;stroke-width:1.5;stroke-linecap:butt;stroke-linejoin:bevel;stroke-miterlimit:4;stroke-dasharray:none;stroke-opacity:1"
       d="M 97.486559,79.643056 116.52951,77.838987"
       id="path948"
       inkscape:connector-curvature="0" />
    <path
       style="fill:none;fill-rule:evenodd;stroke:#000000;stroke-width:1.5;stroke-linecap:butt;stroke-linejoin:bevel;stroke-miterlimit:4;stroke-dasharray:none;stroke-opacity:1"
       d="M 91.740264,94.543331 112.38684,91.202461 97.486559,79.643056"
       id="path950"
       inkscape:connector-curvature="0" />
    <path
       style="fill:none;fill-rule:evenodd;stroke:#000000;stroke-width:1.5;stroke-linecap:butt;stroke-linejoin:bevel;stroke-miterlimit:4;stroke-dasharray:none;stroke-opacity:1"
       d="m 107.10826,48.506157 21.24793,-4.944488 4.07586,24.52198 -2.6727,16.169806 -17.37251,6.949004"
       id="path952"
       inkscape:connector-curvature="0" />
    <path
       style="fill:none;fill-rule:evenodd;stroke:#000000;stroke-width:1.5;stroke-linecap:butt;stroke-linejoin:bevel;stroke-miterlimit:4;stroke-dasharray:none;stroke-opacity:1"
       d="m 144.25873,90.267019 -14.49938,-6.013564 31.62264,-9.906002 z"
       id="path954"
       inkscape:connector-curvature="0"
       sodipodi:nodetypes="cccc" />
    <path
       style="fill:none;fill-rule:evenodd;stroke:#000000;stroke-width:1.5;stroke-linecap:butt;stroke-linejoin:bevel;stroke-miterlimit:4;stroke-dasharray:none;stroke-opacity:1"
       d="m 144.25873,90.267019 26.25923,-6.013564 -1.26953,7.750815 -2.73952,7.617183 z"
       id="path956"
       inkscape:connector-curvature="0" />
    <path
       style="fill:none;fill-rule:evenodd;stroke:#000000;stroke-width:1.5;stroke-linecap:butt;stroke-linejoin:bevel;stroke-miterlimit:4;stroke-dasharray:none;stroke-opacity:1"
       d="M 166.50891,99.621453 144.05827,101.29189 112.38684,91.202459"
       id="path958"
       inkscape:connector-curvature="0" />
    <path
       style="fill:none;fill-rule:evenodd;stroke:#000000;stroke-width:1.5;stroke-linecap:butt;stroke-linejoin:bevel;stroke-miterlimit:4;stroke-dasharray:none;stroke-opacity:1"
       d="m 144.05827,101.29189 0.20046,-11.024871 -31.87189,0.93544"
       id="path960"
       inkscape:connector-curvature="0" />
    <path
       style="fill:none;fill-rule:evenodd;stroke:#000000;stroke-width:1.5;stroke-linecap:butt;stroke-linejoin:bevel;stroke-miterlimit:4;stroke-dasharray:none;stroke-opacity:1"
       d="m 128.35619,43.561669 25.72469,5.679477 32.54007,-1.46998 6.61492,-2.271792 2.87314,13.49711 -4.07586,1.469983 -4.67721,-1.469983 -25.97395,15.350969 -16.32146,-0.450692 -12.62848,-5.813112"
       id="path962"
       inkscape:connector-curvature="0"
       sodipodi:nodetypes="cccccccccc" />
    <path
       style="fill:none;fill-rule:evenodd;stroke:#000000;stroke-width:1.5;stroke-linecap:butt;stroke-linejoin:bevel;stroke-miterlimit:4;stroke-dasharray:none;stroke-opacity:1"
       d="m 187.35594,58.996484 -33.00779,4.744035 -21.9161,4.34313"
       id="path964"
       inkscape:connector-curvature="0" />
    <path
       style="fill:none;fill-rule:evenodd;stroke:#000000;stroke-width:1.5;stroke-linecap:butt;stroke-linejoin:bevel;stroke-miterlimit:4;stroke-dasharray:none;stroke-opacity:1"
       d="m 128.35619,43.561669 25.97621,20.22702 -0.25152,-14.547543"
       id="path966"
       inkscape:connector-curvature="0" />
    <path
       style="fill:none;fill-rule:evenodd;stroke:#000000;stroke-width:1.5;stroke-linecap:butt;stroke-linejoin:bevel;stroke-miterlimit:4;stroke-dasharray:none;stroke-opacity:1"
       d="M 161.38199,74.347453 154.3324,63.788689 145.06053,73.896761"
       id="path968"
       inkscape:connector-curvature="0"
       sodipodi:nodetypes="ccc" />
    <path
       style="fill:none;fill-rule:evenodd;stroke:#000000;stroke-width:1.5;stroke-linecap:butt;stroke-linejoin:bevel;stroke-miterlimit:4;stroke-dasharray:none;stroke-opacity:1"
       d="m 154.3324,63.788689 32.28855,-16.017523 0.73499,11.225318"
       id="path970"
       inkscape:connector-curvature="0" />
    <path
       style="fill:none;fill-rule:evenodd;stroke:#000000;stroke-width:1.5;stroke-linecap:butt;stroke-linejoin:bevel;stroke-miterlimit:4;stroke-dasharray:none;stroke-opacity:1"
       d="m 161.38199,74.347453 9.13597,9.906002 20.87973,3.961945 4.44122,9.165923 -3.16555,4.771947 -7.79576,-5.480652 -18.36869,2.948835"
       id="path972"
       inkscape:connector-curvature="0"
       sodipodi:nodetypes="ccccccc" />
    <path
       style="fill:none;fill-rule:evenodd;stroke:#000000;stroke-width:1.5;stroke-linecap:butt;stroke-linejoin:bevel;stroke-miterlimit:4;stroke-dasharray:none;stroke-opacity:1"
       d="M 184.8776,96.672616 169.24843,92.004268"
       id="path974"
       inkscape:connector-curvature="0" />
    <path
       style="fill:none;fill-rule:evenodd;stroke:#000000;stroke-width:1.5;stroke-linecap:butt;stroke-linejoin:bevel;stroke-miterlimit:4;stroke-dasharray:none;stroke-opacity:1"
       d="M 169.24843,92.004268 191.39769,88.2154 184.8776,96.672618"
       id="path976"
       inkscape:connector-curvature="0" />
  </g>
  <g
     inkscape:label="contours"
     id="g1103"
     inkscape:groupmode="layer">
    <path
       style="color:#000000;font-style:normal;font-variant:normal;font-weight:normal;font-stretch:normal;font-size:medium;line-height:normal;font-family:sans-serif;font-variant-ligatures:normal;font-variant-position:normal;font-variant-caps:normal;font-variant-numeric:normal;font-variant-alternates:normal;font-feature-settings:normal;text-indent:0;text-align:start;text-decoration:none;text-decoration-line:none;text-decoration-style:solid;text-decoration-color:#000000;letter-spacing:normal;word-spacing:normal;text-transform:none;writing-mode:lr-tb;direction:ltr;text-orientation:mixed;dominant-baseline:auto;baseline-shift:baseline;text-anchor:start;white-space:normal;shape-padding:0;clip-rule:nonzero;display:inline;overflow:visible;visibility:visible;opacity:1;isolation:auto;mix-blend-mode:normal;color-interpolation:sRGB;color-interpolation-filters:linearRGB;solid-color:#000000;solid-opacity:1;vector-effect:none;fill:none;fill-opacity:1;fill-rule:evenodd;stroke:#e80000;stroke-width:0.37795275;stroke-linecap:butt;stroke-linejoin:bevel;stroke-miterlimit:4;stroke-dasharray:none;stroke-dashoffset:0;stroke-opacity:1;color-rendering:auto;image-rendering:auto;shape-rendering:auto;text-rendering:auto;enable-background:accumulate"
       d="m 371.10938,154.30273 -133.64258,30.39844 -75.48633,4.27539 -0.54688,0.73438 -0.19921,-0.58789 -34.87305,11.80859 -16.67383,-14.14844 -3.09961,-0.36914 -14.285156,7.13867 -1.564453,2.40039 -0.708984,14.28321 0.900391,2.21484 7.728515,7.18164 -19.125,17.20703 -0.9375,1.99414 -1.425781,34.99805 0.177734,1.11328 9.648438,25.72657 -15.427735,23.31835 1.800782,4.3418 27.044919,5.44336 28.91602,16.21484 1.83203,0.32422 37.63086,-6.04101 22.375,14.18359 2.5332,0.25781 36.11914,-13.80664 62.66797,32.57618 -46.0293,45.56445 -18.33593,6.35547 -1.5,1.21875 -3.84571,6.40039 -10.25195,1.33594 -2.42969,3.27734 1.01172,6.06055 3.04883,2.36132 12.00195,-1.09179 0.11914,0.22851 -12.56445,4.45899 -1.58594,3.9414 4.08789,8.13477 3.625,1.33594 15.45704,-6.45118 2.49609,3.33985 -0.0293,0.0254 0.20508,0.23828 -12.03125,6.36133 -1.07031,4.02344 5.07812,7.98828 3.91992,0.87109 13.23633,-8.46875 0.61914,0.7832 -10.04687,9.83204 0.17773,4.21484 7.32227,6.06055 3.3457,0.19921 14.89649,-9.5957 1.04101,-1.19531 10.17383,-22.04102 60.13867,-27.98633 1.3125,-1.24804 24.10156,-45.89258 0.15625,-2.30273 -9.74804,-26.24805 73.95898,-11.96484 119.0586,37.92382 1.07031,0.12696 84.85547,-6.3125 c 0,0 0,0 0.23632,-0.0293 l 68.28907,-10.96289 28.52343,20.05664 3.99414,-0.75195 11.9668,-18.03321 0.1836,-2.80664 -16.78711,-34.64258 -2.02149,-1.55078 -77.99804,-14.80078 -31.51563,-34.17383 94.0625,-55.58984 16.47656,5.17578 1.8086,-0.0371 15.40625,-5.55859 1.80859,-3.25586 -10.85937,-51.00977 -3.68946,-2.08789 -24.61914,8.45117 -122.19922,5.52149 -96.86523,-21.38477 -0.16211,0.73828 -1.09375,-0.73046 -79.5332,18.5039 -31.42383,-25.52344 -0.60156,0.74219 z m -1.875,6.23829 6.7539,68.29101 -77.27344,16.86719 -53.93164,9.21289 -3.94922,-65.16016 z m 5.99218,3.00781 90.84961,73.79492 -84.42187,-8.86133 z m 107.60156,4.54492 14.83008,89.23242 -1.61328,9.75586 -5.5625,-6.73828 v -3.26953 l -0.58984,-1.74219 -12.38086,-15.9082 -0.44922,-0.46485 -66.54297,-54.04687 z m 13.9375,2.02344 82.78907,18.27343 0.80859,46.81836 z m -7.65429,1.22656 87.375,68.03516 -73.63867,14.5957 z m 239.11914,4.3457 9.68555,45.46485 -12.17969,4.39258 -14.91992,-4.68946 -2.50977,-38.32812 z m -36.19531,8.29883 -105.97657,52.57422 -0.82812,-47.74805 z m 10.75781,0.99414 2.32226,35.5625 -104.20507,14.97852 z m -471.14258,5.72852 -51.6582,64.09765 -14.30664,-60.36132 z m -124.19922,1.60937 18.46289,15.66797 -22.41406,8.4043 -7.742188,-7.19727 0.560547,-11.30859 z m 128.01758,2.68555 3.67187,60.52148 -54.42382,2.45508 z m -75.36719,0.48242 15.22656,64.2207 -34.88085,20.55274 -6.19336,-71.56055 -0.98829,-1.91211 -1.86523,-1.58203 z m -31.17578,17.42578 4.96484,57.34375 -26.9707,-49.08984 z m -26.83203,11.25 32.08203,58.38477 -7.54101,6.0332 -43.720708,-16.55859 1.298829,-31.76563 z m 592.26758,3.6543 -83.54492,49.37695 -22.76172,-34.0957 z m -316.15235,6.32812 10.61719,10.00977 -21.59179,52.375 -61.48829,-46.55859 z m 8.90821,0.61133 86.66015,9.09375 11.03516,14.18946 v 3.32226 l 0.49414,1.37305 -1.65234,-0.85547 -3.88282,3.69726 3.82422,8.34961 -9.25781,-3.8164 -3.54297,4.02929 3.44727,6.00196 -6.34766,-3.78711 -4.15625,3.30664 2.77539,8.57031 -7.85547,-6.56836 -4.54687,2.92969 3.76562,13.64258 -15.82031,-6.4375 -47.8125,-50.31445 -0.0703,0.0684 -0.0391,-0.17968 z m 188.43359,10.5918 -27.97851,30.50586 -37.90625,-17.44727 z m 7.39649,0.32031 21.5957,32.34375 -49.99024,-1.38281 z m -189.79883,2.88477 41.20898,43.36719 -61.49219,5.82617 z m -93.8125,3.66992 64.68554,48.98437 -48.69726,44.25 -65.5625,-25.75781 z m -7.30274,0.36914 -57.59961,78.39453 10.21485,-70.30273 z m -53.1914,8.62891 -10.40235,71.60546 -20.21875,-38.06835 -0.25,-0.38477 -23.34961,-30.7168 z m 263.87695,0.23242 44.35352,20.41406 1.10742,0.25977 44.71875,1.23632 -98.91797,30.98829 z m -324.50586,3.13476 23.44531,30.84961 -45.95898,31.55664 -5.11524,-18.10156 -0.31836,0.0899 0.25196,-0.31055 -8.46094,-22.77344 z m 310.14258,6.11133 6.32617,3.28516 0.2793,-0.34571 -7.07032,42.76172 -62.66796,25.06446 -49.38086,-38.30469 64.16211,-6.08008 21.06836,8.58008 3.80273,-3.38086 -2.87891,-10.4375 8.42969,7.04883 4.51758,-3.04883 -3.48438,-10.76172 9.1836,5.48438 3.91211,-3.84571 -4.70899,-8.20117 8.23828,3.39453 3.66016,-3.80078 z m -403.505861,8.11719 40.134771,15.19922 5.125,12.52539 -27.34376,20.05273 z m 524.943361,6.19336 29.28515,31.75195 -84.17187,19.27539 z m -10.9375,2.43164 -54.22656,50.4043 -45.90039,-19.03907 z m -462.15039,0.33984 6.82031,18.35938 -7.94141,-1.18946 -5.01367,-12.26171 z m 67.99609,12.44336 21.29102,40.07813 L 193,352.91406 l -22.69922,-14.39648 -0.0371,-0.22852 -0.25781,0.041 -10.8125,-6.85547 z m 165.02344,5.36133 48.16406,37.35938 -66.73633,10.79492 z m -280.269532,1.64453 7.527344,20.06836 -18.365234,-3.69336 z m 44.853512,3.26172 11.32032,1.70313 5.02929,17.79687 -10.65234,4.80469 -1.08594,4.30273 2.88477,3.76367 -10.5625,1.69922 -24.59375,-13.79101 z m 227.19532,0.66016 -16.49024,42.75 -23.38281,-6.51563 z m 128.9082,10.33984 41.5293,17.22656 -91.28907,2.67969 z m 156.39258,0.26953 60.61523,11.50586 -64.30469,11.00195 z M 641,322.14648 l -4.07617,24.86914 -9.25586,25.73243 -73.22852,-30.78125 z m -394.71289,2.28125 50.77148,19.94532 -61.76171,-4.98633 z m -92.46289,10.35547 7.73828,4.9043 -13.40039,2.15625 -2.56836,-3.34766 z m 562.89844,2.65039 -19.02735,24.66797 -45.58789,-13.61523 z m 6.11523,1.34571 14.08203,29.06054 -9.45703,14.25391 -24.66016,-17.33398 z m -180.49023,5.3125 -0.63868,34.88867 -100.25195,-31.93555 z m 5.63672,1.30859 69.38085,29.16797 -70,5.21094 z m -304.23829,0.35938 71.6836,5.78906 27.32422,7.61328 -14.25977,30.6543 z m 397.69532,5.45703 44.61328,13.32422 -52.4375,8.41992 z m -295.00196,13.45898 8.14258,21.92774 -19.10156,36.36132 -2.77149,-28.77343 z m -48.66601,15.55664 25.18359,13.08985 -63.27734,24.61328 z m 22.62304,20.16797 -47.6875,56.0918 -20.64453,-29.51172 z m 7.24219,0.22656 2.92188,30.34571 -47.52149,22.11523 z m -81.06836,28.37891 22.66211,32.40625 -8.42578,18.25195 -7.27148,-5.67383 -3.57032,-4.52343 -0.15429,-0.0254 0.0742,-0.0645 -7.31446,-8.5 -4.04687,-5.42968 -0.35156,-0.0957 0.15234,-0.14062 -5.67578,-6.09766 -2.3418,-4.45117 -0.006,-0.0137 h -0.002 l -2.54688,-4.89844 3.19727,-5.32617 z m -23.66406,13.72266 0.41797,0.80078 -7.06445,0.63867 -0.0957,-0.56055 z m 6.60156,11.33203 1.89844,2.03906 -11.31445,4.72266 -1.45508,-2.90235 z m 12.25196,14.5625 1.70117,1.97461 -10.25196,6.55273 -1.9121,-2.99609 z m 9.97851,11.16211 5.25195,4.09765 -9.80078,6.3125 -3.29883,-2.73242 z"
       transform="scale(0.26458333)"
       id="path1025"
       inkscape:connector-curvature="0"
       sodipodi:nodetypes="cccccccccccccccccccccccccccccccccccccccccccccccccccccccccccccccccccccccccccccccccccccccccccccccccccccccccccccccccccccccccccccccccccccccccccccccccccccccccccccccccccccccccccccccccccccccccccccccccccccccccccccccccccccccccccccccccccccccccccccccccccccccccccccccccccccccccccccccccccccccccccccccccccccccccccccccccccccccccccccccccccccccccccccccccccccccccccccccccccccccccccccccccccccccccccccccccccccccccccccccccccccccc" />
  </g>
</svg>
