  0
SECTION
  2
HEADER
  9
$ACADVER
  1
AC1014
  9
$HANDSEED
  5
FFFF
  9
$MEASUREMENT
 70
     1
  0
ENDSEC
  0
SECTION
  2
TABLES
  0
TABLE
  2
VPORT
  5
8
330
0
100
AcDbSymbolTable
 70
     4
  0
VPORT
  5
2E
330
8
100
AcDbSymbolTableRecord
100
AcDbViewportTableRecord
  2
*ACTIVE
 70
     0
 10
0.0
 20
0.0
 11
1.0
 21
1.0
 12
210.0
 22
148.5
 13
0.0
 23
0.0
 14
10.0
 24
10.0
 15
10.0
 25
10.0
 16
0.0
 26
0.0
 36
1.0
 17
0.0
 27
0.0
 37
0.0
 40
341.0
 41
1.24
 42
50.0
 43
0.0
 44
0.0
 50
0.0
 51
0.0
 71
     0
 72
   100
 73
     1
 74
     3
 75
     0
 76
     0
 77
     0
 78
     0
  0
ENDTAB
  0
TABLE
  2
LTYPE
  5
5
330
0
100
AcDbSymbolTable
 70
     1
  0
LTYPE
  5
14
330
5
100
AcDbSymbolTableRecord
100
AcDbLinetypeTableRecord
  2
BYBLOCK
 70
     0
  3

 72
    65
 73
     0
 40
0.0
  0
LTYPE
  5
15
330
5
100
AcDbSymbolTableRecord
100
AcDbLinetypeTableRecord
  2
BYLAYER
 70
     0
  3

 72
    65
 73
     0
 40
0.0
  0
LTYPE
  5
16
330
5
100
AcDbSymbolTableRecord
100
AcDbLinetypeTableRecord
  2
CONTINUOUS
 70
     0
  3
Solid line
 72
    65
 73
     0
 40
0.0
  0
ENDTAB
  0
TABLE
  2
LAYER
  5
2
100
AcDbSymbolTable
 70
2
  0
LAYER
  5
50
100
AcDbSymbolTableRecord
100
AcDbLayerTableRecord
  2
0
 70
0
  6
CONTINUOUS
  0
LAYER
  5
51
100
AcDbSymbolTableRecord
100
AcDbLayerTableRecord
  2
Calque_1
 70
0
  6
CONTINUOUS
  0
ENDTAB
  0
TABLE
  2
STYLE
  5
3
330
0
100
AcDbSymbolTable
 70
     1
  0
STYLE
  5
11
330
3
100
AcDbSymbolTableRecord
100
AcDbTextStyleTableRecord
  2
STANDARD
 70
     0
 40
0.0
 41
1.0
 50
0.0
 71
     0
 42
2.5
  3
txt
  4

  0
ENDTAB
  0
TABLE
  2
VIEW
  5
6
330
0
100
AcDbSymbolTable
 70
     0
  0
ENDTAB
  0
TABLE
  2
UCS
  5
7
330
0
100
AcDbSymbolTable
 70
     0
  0
ENDTAB
  0
TABLE
  2
APPID
  5
9
330
0
100
AcDbSymbolTable
 70
     2
  0
APPID
  5
12
330
9
100
AcDbSymbolTableRecord
100
AcDbRegAppTableRecord
  2
ACAD
 70
     0
  0
ENDTAB
  0
TABLE
  2
DIMSTYLE
  5
A
330
0
100
AcDbSymbolTable
 70
     1
  0
DIMSTYLE
105
27
330
A
100
AcDbSymbolTableRecord
100
AcDbDimStyleTableRecord
  2
ISO-25
 70
     0
  3

  4

  5

  6

  7

 40
1.0
 41
2.5
 42
0.625
 43
3.75
 44
1.25
 45
0.0
 46
0.0
 47
0.0
 48
0.0
140
2.5
141
2.5
142
0.0
143
0.03937007874016
144
1.0
145
0.0
146
1.0
147
0.625
 71
     0
 72
     0
 73
     0
 74
     0
 75
     0
 76
     0
 77
     1
 78
     8
170
     0
171
     3
172
     1
173
     0
174
     0
175
     0
176
     0
177
     0
178
     0
270
     2
271
     2
272
     2
273
     2
274
     3
340
11
275
     0
280
     0
281
     0
282
     0
283
     0
284
     8
285
     0
286
     0
287
     3
288
     0
  0
ENDTAB
  0
TABLE
  2
BLOCK_RECORD
  5
1
330
0
100
AcDbSymbolTable
 70
     1
  0
BLOCK_RECORD
  5
1F
330
1
100
AcDbSymbolTableRecord
100
AcDbBlockTableRecord
  2
*MODEL_SPACE
  0
BLOCK_RECORD
  5
1B
330
1
100
AcDbSymbolTableRecord
100
AcDbBlockTableRecord
  2
*PAPER_SPACE
  0
ENDTAB
  0
ENDSEC
  0
SECTION
  2
BLOCKS
  0
BLOCK
  5
20
330
1F
100
AcDbEntity
  8
0
100
AcDbBlockBegin
  2
*MODEL_SPACE
 70
     0
 10
0.0
 20
0.0
 30
0.0
  3
*MODEL_SPACE
  1

  0
ENDBLK
  5
21
330
1F
100
AcDbEntity
  8
0
100
AcDbBlockEnd
  0
BLOCK
  5
1C
330
1B
100
AcDbEntity
 67
     1
  8
0
100
AcDbBlockBegin
  2
*PAPER_SPACE
  1

  0
ENDBLK
  5
1D
330
1B
100
AcDbEntity
 67
     1
  8
0
100
AcDbBlockEnd
  0
ENDSEC
  0
SECTION
  2
ENTITIES
  0
SPLINE
  5
100
100
AcDbEntity
  8
Calque_1
 62
7
100
AcDbSpline
 70
8
 71
3
 72
8
 73
4
 74
0
 40
0
 40
0
 40
0
 40
0
 40
1
 40
1
 40
1
 40
1
 10
0.549262
 20
5.854675
 30
0.0
 10
0.467803
 20
5.820778
 30
0.0
 10
0.355556
 20
5.762695
 30
0.0
 10
0.355556
 20
5.689593
 30
0.0
  0
SPLINE
  5
101
100
AcDbEntity
  8
Calque_1
 62
7
100
AcDbSpline
 70
8
 71
3
 72
8
 73
4
 74
0
 40
0
 40
0
 40
0
 40
0
 40
1
 40
1
 40
1
 40
1
 10
0.355556
 20
5.689593
 30
0.0
 10
0.355556
 20
5.616491
 30
0.0
 10
0.467803
 20
5.558408
 30
0.0
 10
0.549262
 20
5.524511
 30
0.0
  0
SPLINE
  5
102
100
AcDbEntity
  8
Calque_1
 62
7
100
AcDbSpline
 70
8
 71
3
 72
8
 73
4
 74
0
 40
0
 40
0
 40
0
 40
0
 40
1
 40
1
 40
1
 40
1
 10
0.549262
 20
5.524511
 30
0.0
 10
0.593600
 20
5.506060
 30
0.0
 10
0.631141
 20
5.492740
 30
0.0
 10
0.631141
 20
5.492740
 30
0.0
  0
LWPOLYLINE
  5
103
100
AcDbEntity
  8
Calque_1
 62
7
100
AcDbPolyline
 90
2
 70
0
 10
0.554356
 20
0.178969
 30
0.0
 10
0.549262
 20
5.524511
 30
0.0
  0
LWPOLYLINE
  5
104
100
AcDbEntity
  8
Calque_1
 62
7
100
AcDbPolyline
 90
2
 70
0
 10
0.631141
 20
5.492740
 30
0.0
 10
0.749262
 20
5.571472
 30
0.0
  0
SPLINE
  5
105
100
AcDbEntity
  8
Calque_1
 62
7
100
AcDbSpline
 70
8
 71
3
 72
8
 73
4
 74
0
 40
0
 40
0
 40
0
 40
0
 40
1
 40
1
 40
1
 40
1
 10
0.631141
 20
5.886446
 30
0.0
 10
0.631141
 20
5.886446
 30
0.0
 10
0.593600
 20
5.873126
 30
0.0
 10
0.549262
 20
5.854675
 30
0.0
  0
LWPOLYLINE
  5
106
100
AcDbEntity
  8
Calque_1
 62
7
100
AcDbPolyline
 90
2
 70
0
 10
0.749262
 20
5.807692
 30
0.0
 10
0.631141
 20
5.886446
 30
0.0
  0
LWPOLYLINE
  5
107
100
AcDbEntity
  8
Calque_1
 62
7
100
AcDbPolyline
 90
2
 70
0
 10
0.549262
 20
5.854675
 30
0.0
 10
0.551954
 20
7.655852
 30
0.0
  0
SPLINE
  5
108
100
AcDbEntity
  8
Calque_1
 62
7
100
AcDbSpline
 70
8
 71
3
 72
8
 73
4
 74
0
 40
0
 40
0
 40
0
 40
0
 40
1
 40
1
 40
1
 40
1
 10
2.113238
 20
1.080850
 30
0.0
 10
2.183324
 20
1.027254
 30
0.0
 10
2.289749
 20
0.959085
 30
0.0
 10
2.353057
 20
0.995636
 30
0.0
  0
SPLINE
  5
109
100
AcDbEntity
  8
Calque_1
 62
7
100
AcDbSpline
 70
8
 71
3
 72
8
 73
4
 74
0
 40
0
 40
0
 40
0
 40
0
 40
1
 40
1
 40
1
 40
1
 10
2.353057
 20
0.995636
 30
0.0
 10
2.416365
 20
1.032187
 30
0.0
 10
2.410542
 20
1.158438
 30
0.0
 10
2.399169
 20
1.245932
 30
0.0
  0
LWPOLYLINE
  5
10a
100
AcDbEntity
  8
Calque_1
 62
7
100
AcDbPolyline
 90
4
 70
0
 10
0.864217
 20
2.736833
 30
0.0
 10
0.746107
 20
2.815573
 30
0.0
 10
0.746107
 20
3.051794
 30
0.0
 10
0.864217
 20
3.130534
 30
0.0
  0
SPLINE
  5
10b
100
AcDbEntity
  8
Calque_1
 62
7
100
AcDbSpline
 70
8
 71
3
 72
8
 73
4
 74
0
 40
0
 40
0
 40
0
 40
0
 40
1
 40
1
 40
1
 40
1
 10
2.399169
 20
1.245932
 30
0.0
 10
2.392979
 20
1.293555
 30
0.0
 10
2.385744
 20
1.332727
 30
0.0
 10
2.385744
 20
1.332727
 30
0.0
  0
LWPOLYLINE
  5
10c
100
AcDbEntity
  8
Calque_1
 62
7
100
AcDbPolyline
 90
2
 70
0
 10
7.025997
 20
3.923114
 30
0.0
 10
2.399169
 20
1.245932
 30
0.0
  0
LWPOLYLINE
  5
10d
100
AcDbEntity
  8
Calque_1
 62
7
100
AcDbPolyline
 90
2
 70
0
 10
2.385744
 20
1.332727
 30
0.0
 10
2.258499
 20
1.395657
 30
0.0
  0
SPLINE
  5
10e
100
AcDbEntity
  8
Calque_1
 62
7
100
AcDbSpline
 70
8
 71
3
 72
8
 73
4
 74
0
 40
0
 40
0
 40
0
 40
0
 40
1
 40
1
 40
1
 40
1
 10
2.044784
 20
1.135874
 30
0.0
 10
2.044784
 20
1.135874
 30
0.0
 10
2.075091
 20
1.110022
 30
0.0
 10
2.113238
 20
1.080850
 30
0.0
  0
LWPOLYLINE
  5
10f
100
AcDbEntity
  8
Calque_1
 62
7
100
AcDbPolyline
 90
2
 70
0
 10
2.053927
 20
1.277547
 30
0.0
 10
2.044784
 20
1.135874
 30
0.0
  0
LWPOLYLINE
  5
110
100
AcDbEntity
  8
Calque_1
 62
7
100
AcDbPolyline
 90
2
 70
0
 10
2.113238
 20
1.080850
 30
0.0
 10
0.552027
 20
0.182593
 30
0.0
  0
SPLINE
  5
111
100
AcDbEntity
  8
Calque_1
 62
7
100
AcDbSpline
 70
8
 71
3
 72
8
 73
4
 74
0
 40
0
 40
0
 40
0
 40
0
 40
1
 40
1
 40
1
 40
1
 10
5.469882
 20
4.819836
 30
0.0
 10
5.481255
 20
4.907330
 30
0.0
 10
5.487078
 20
5.033581
 30
0.0
 10
5.423770
 20
5.070132
 30
0.0
  0
SPLINE
  5
112
100
AcDbEntity
  8
Calque_1
 62
7
100
AcDbSpline
 70
8
 71
3
 72
8
 73
4
 74
0
 40
0
 40
0
 40
0
 40
0
 40
1
 40
1
 40
1
 40
1
 10
5.423770
 20
5.070132
 30
0.0
 10
5.360462
 20
5.106683
 30
0.0
 10
5.254037
 20
5.038515
 30
0.0
 10
5.183951
 20
4.984918
 30
0.0
  0
LWPOLYLINE
  5
113
100
AcDbEntity
  8
Calque_1
 62
7
100
AcDbPolyline
 90
4
 70
0
 10
4.655892
 20
2.912530
 30
0.0
 10
4.646756
 20
2.770874
 30
0.0
 10
4.442183
 20
2.652763
 30
0.0
 10
4.314937
 20
2.715680
 30
0.0
  0
SPLINE
  5
114
100
AcDbEntity
  8
Calque_1
 62
7
100
AcDbSpline
 70
8
 71
3
 72
8
 73
4
 74
0
 40
0
 40
0
 40
0
 40
0
 40
1
 40
1
 40
1
 40
1
 10
5.183951
 20
4.984918
 30
0.0
 10
5.145804
 20
4.955746
 30
0.0
 10
5.115497
 20
4.929894
 30
0.0
 10
5.115497
 20
4.929894
 30
0.0
  0
LWPOLYLINE
  5
115
100
AcDbEntity
  8
Calque_1
 62
7
100
AcDbPolyline
 90
2
 70
0
 10
0.552029
 20
7.653278
 30
0.0
 10
5.183951
 20
4.984918
 30
0.0
  0
LWPOLYLINE
  5
116
100
AcDbEntity
  8
Calque_1
 62
7
100
AcDbPolyline
 90
2
 70
0
 10
5.115497
 20
4.929894
 30
0.0
 10
5.124621
 20
4.788232
 30
0.0
  0
SPLINE
  5
117
100
AcDbEntity
  8
Calque_1
 62
7
100
AcDbSpline
 70
8
 71
3
 72
8
 73
4
 74
0
 40
0
 40
0
 40
0
 40
0
 40
1
 40
1
 40
1
 40
1
 10
5.456457
 20
4.733041
 30
0.0
 10
5.456457
 20
4.733041
 30
0.0
 10
5.463692
 20
4.772213
 30
0.0
 10
5.469882
 20
4.819836
 30
0.0
  0
LWPOLYLINE
  5
118
100
AcDbEntity
  8
Calque_1
 62
7
100
AcDbPolyline
 90
2
 70
0
 10
5.329193
 20
4.670122
 30
0.0
 10
5.456457
 20
4.733041
 30
0.0
  0
LWPOLYLINE
  5
119
100
AcDbEntity
  8
Calque_1
 62
7
100
AcDbPolyline
 90
2
 70
0
 10
5.469882
 20
4.819836
 30
0.0
 10
7.028401
 20
3.916916
 30
0.0
  0
SPLINE
  5
11a
100
AcDbEntity
  8
Calque_1
 62
7
100
AcDbSpline
 70
8
 71
3
 72
8
 73
4
 74
0
 40
0
 40
0
 40
0
 40
0
 40
1
 40
1
 40
1
 40
1
 10
7.476368
 20
9.610231
 30
0.0
 10
7.557827
 20
9.576333
 30
0.0
 10
7.670075
 20
9.518251
 30
0.0
 10
7.670075
 20
9.445149
 30
0.0
  0
SPLINE
  5
11b
100
AcDbEntity
  8
Calque_1
 62
7
100
AcDbSpline
 70
8
 71
3
 72
8
 73
4
 74
0
 40
0
 40
0
 40
0
 40
0
 40
1
 40
1
 40
1
 40
1
 10
7.670075
 20
9.445149
 30
0.0
 10
7.670075
 20
9.372046
 30
0.0
 10
7.557827
 20
9.313964
 30
0.0
 10
7.476368
 20
9.280066
 30
0.0
  0
LWPOLYLINE
  5
11c
100
AcDbEntity
  8
Calque_1
 62
7
100
AcDbPolyline
 90
4
 70
0
 10
2.612274
 20
6.105998
 30
0.0
 10
2.739520
 20
6.168914
 30
0.0
 10
2.944093
 20
6.050804
 30
0.0
 10
2.953229
 20
5.909148
 30
0.0
  0
SPLINE
  5
11d
100
AcDbEntity
  8
Calque_1
 62
7
100
AcDbSpline
 70
8
 71
3
 72
8
 73
4
 74
0
 40
0
 40
0
 40
0
 40
0
 40
1
 40
1
 40
1
 40
1
 10
7.476368
 20
9.280066
 30
0.0
 10
7.432031
 20
9.261616
 30
0.0
 10
7.394489
 20
9.248295
 30
0.0
 10
7.394489
 20
9.248295
 30
0.0
  0
LWPOLYLINE
  5
11e
100
AcDbEntity
  8
Calque_1
 62
7
100
AcDbPolyline
 90
2
 70
0
 10
7.471275
 20
3.934524
 30
0.0
 10
7.476368
 20
9.280066
 30
0.0
  0
LWPOLYLINE
  5
11f
100
AcDbEntity
  8
Calque_1
 62
7
100
AcDbPolyline
 90
2
 70
0
 10
7.394489
 20
9.248295
 30
0.0
 10
7.276368
 20
9.327028
 30
0.0
  0
SPLINE
  5
120
100
AcDbEntity
  8
Calque_1
 62
7
100
AcDbSpline
 70
8
 71
3
 72
8
 73
4
 74
0
 40
0
 40
0
 40
0
 40
0
 40
1
 40
1
 40
1
 40
1
 10
7.394489
 20
9.642002
 30
0.0
 10
7.394489
 20
9.642002
 30
0.0
 10
7.432031
 20
9.628681
 30
0.0
 10
7.476368
 20
9.610231
 30
0.0
  0
LWPOLYLINE
  5
121
100
AcDbEntity
  8
Calque_1
 62
7
100
AcDbPolyline
 90
2
 70
0
 10
7.276368
 20
9.563248
 30
0.0
 10
7.394489
 20
9.642002
 30
0.0
  0
LWPOLYLINE
  5
122
100
AcDbEntity
  8
Calque_1
 62
7
100
AcDbPolyline
 90
2
 70
0
 10
7.476368
 20
9.610231
 30
0.0
 10
7.473676
 20
11.411408
 30
0.0
  0
SPLINE
  5
123
100
AcDbEntity
  8
Calque_1
 62
7
100
AcDbSpline
 70
8
 71
3
 72
8
 73
4
 74
0
 40
0
 40
0
 40
0
 40
0
 40
1
 40
1
 40
1
 40
1
 10
5.912392
 20
4.836406
 30
0.0
 10
5.842307
 20
4.782809
 30
0.0
 10
5.735882
 20
4.714641
 30
0.0
 10
5.672573
 20
4.751192
 30
0.0
  0
SPLINE
  5
124
100
AcDbEntity
  8
Calque_1
 62
7
100
AcDbSpline
 70
8
 71
3
 72
8
 73
4
 74
0
 40
0
 40
0
 40
0
 40
0
 40
1
 40
1
 40
1
 40
1
 10
5.672573
 20
4.751192
 30
0.0
 10
5.609265
 20
4.787743
 30
0.0
 10
5.615088
 20
4.913994
 30
0.0
 10
5.626461
 20
5.001488
 30
0.0
  0
LWPOLYLINE
  5
125
100
AcDbEntity
  8
Calque_1
 62
7
100
AcDbPolyline
 90
4
 70
0
 10
7.161413
 20
6.492388
 30
0.0
 10
7.279524
 20
6.571129
 30
0.0
 10
7.279524
 20
6.807349
 30
0.0
 10
7.161413
 20
6.886089
 30
0.0
  0
SPLINE
  5
126
100
AcDbEntity
  8
Calque_1
 62
7
100
AcDbSpline
 70
8
 71
3
 72
8
 73
4
 74
0
 40
0
 40
0
 40
0
 40
0
 40
1
 40
1
 40
1
 40
1
 10
5.626461
 20
5.001488
 30
0.0
 10
5.632652
 20
5.049111
 30
0.0
 10
5.639887
 20
5.088283
 30
0.0
 10
5.639887
 20
5.088283
 30
0.0
  0
LWPOLYLINE
  5
127
100
AcDbEntity
  8
Calque_1
 62
7
100
AcDbPolyline
 90
2
 70
0
 10
0.999633
 20
7.678670
 30
0.0
 10
5.626461
 20
5.001488
 30
0.0
  0
LWPOLYLINE
  5
128
100
AcDbEntity
  8
Calque_1
 62
7
100
AcDbPolyline
 90
2
 70
0
 10
5.639887
 20
5.088283
 30
0.0
 10
5.767131
 20
5.151212
 30
0.0
  0
SPLINE
  5
129
100
AcDbEntity
  8
Calque_1
 62
7
100
AcDbSpline
 70
8
 71
3
 72
8
 73
4
 74
0
 40
0
 40
0
 40
0
 40
0
 40
1
 40
1
 40
1
 40
1
 10
5.980846
 20
4.891430
 30
0.0
 10
5.980846
 20
4.891430
 30
0.0
 10
5.950540
 20
4.865578
 30
0.0
 10
5.912392
 20
4.836406
 30
0.0
  0
LWPOLYLINE
  5
12a
100
AcDbEntity
  8
Calque_1
 62
7
100
AcDbPolyline
 90
2
 70
0
 10
5.971704
 20
5.033102
 30
0.0
 10
5.980846
 20
4.891430
 30
0.0
  0
LWPOLYLINE
  5
12b
100
AcDbEntity
  8
Calque_1
 62
7
100
AcDbPolyline
 90
2
 70
0
 10
5.912392
 20
4.836406
 30
0.0
 10
7.473603
 20
3.938149
 30
0.0
  0
SPLINE
  5
12c
100
AcDbEntity
  8
Calque_1
 62
7
100
AcDbSpline
 70
8
 71
3
 72
8
 73
4
 74
0
 40
0
 40
0
 40
0
 40
0
 40
1
 40
1
 40
1
 40
1
 10
2.555748
 20
8.575391
 30
0.0
 10
2.544375
 20
8.662885
 30
0.0
 10
2.538552
 20
8.789136
 30
0.0
 10
2.601861
 20
8.825687
 30
0.0
  0
SPLINE
  5
12d
100
AcDbEntity
  8
Calque_1
 62
7
100
AcDbSpline
 70
8
 71
3
 72
8
 73
4
 74
0
 40
0
 40
0
 40
0
 40
0
 40
1
 40
1
 40
1
 40
1
 10
2.601861
 20
8.825687
 30
0.0
 10
2.665169
 20
8.862238
 30
0.0
 10
2.771594
 20
8.794070
 30
0.0
 10
2.841679
 20
8.740474
 30
0.0
  0
LWPOLYLINE
  5
12e
100
AcDbEntity
  8
Calque_1
 62
7
100
AcDbPolyline
 90
4
 70
0
 10
3.369739
 20
6.668086
 30
0.0
 10
3.378875
 20
6.526429
 30
0.0
 10
3.583448
 20
6.408319
 30
0.0
 10
3.710694
 20
6.471235
 30
0.0
  0
SPLINE
  5
12f
100
AcDbEntity
  8
Calque_1
 62
7
100
AcDbSpline
 70
8
 71
3
 72
8
 73
4
 74
0
 40
0
 40
0
 40
0
 40
0
 40
1
 40
1
 40
1
 40
1
 10
2.841679
 20
8.740474
 30
0.0
 10
2.879827
 20
8.711301
 30
0.0
 10
2.910133
 20
8.685449
 30
0.0
 10
2.910133
 20
8.685449
 30
0.0
  0
LWPOLYLINE
  5
130
100
AcDbEntity
  8
Calque_1
 62
7
100
AcDbPolyline
 90
2
 70
0
 10
7.473601
 20
11.408833
 30
0.0
 10
2.841679
 20
8.740474
 30
0.0
  0
LWPOLYLINE
  5
131
100
AcDbEntity
  8
Calque_1
 62
7
100
AcDbPolyline
 90
2
 70
0
 10
2.910133
 20
8.685449
 30
0.0
 10
2.901009
 20
8.543788
 30
0.0
  0
SPLINE
  5
132
100
AcDbEntity
  8
Calque_1
 62
7
100
AcDbSpline
 70
8
 71
3
 72
8
 73
4
 74
0
 40
0
 40
0
 40
0
 40
0
 40
1
 40
1
 40
1
 40
1
 10
2.569173
 20
8.488596
 30
0.0
 10
2.569173
 20
8.488596
 30
0.0
 10
2.561939
 20
8.527768
 30
0.0
 10
2.555748
 20
8.575391
 30
0.0
  0
LWPOLYLINE
  5
133
100
AcDbEntity
  8
Calque_1
 62
7
100
AcDbPolyline
 90
2
 70
0
 10
2.696437
 20
8.425678
 30
0.0
 10
2.569173
 20
8.488596
 30
0.0
  0
LWPOLYLINE
  5
134
100
AcDbEntity
  8
Calque_1
 62
7
100
AcDbPolyline
 90
2
 70
0
 10
2.555748
 20
8.575391
 30
0.0
 10
0.997229
 20
7.672471
 30
0.0
  0
LWPOLYLINE
  5
135
100
AcDbEntity
  8
Calque_1
 62
7
100
AcDbPolyline
 90
4
 70
0
 10
5.413356
 20
9.861554
 30
0.0
 10
5.286110
 20
9.924470
 30
0.0
 10
5.081537
 20
9.806360
 30
0.0
 10
5.072402
 20
9.664703
 30
0.0
  0
ENDSEC
  0
SECTION
  2
OBJECTS
  0
DICTIONARY
  5
C
330
0
100
AcDbDictionary
  3
ACAD_GROUP
350
D
  3
ACAD_MLINESTYLE
350
17
  0
DICTIONARY
  5
D
330
C
100
AcDbDictionary
  0
DICTIONARY
  5
1A
330
C
100
AcDbDictionary
  0
DICTIONARY
  5
17
330
C
100
AcDbDictionary
  3
STANDARD
350
18
  0
DICTIONARY
  5
19
330
C
100
AcDbDictionary
  0
ENDSEC
  0
EOF
