<?xml version="1.0" encoding="UTF-8" standalone="no"?>
<!-- Created with Inkscape (http://www.inkscape.org/) -->

<svg
   xmlns:dc="http://purl.org/dc/elements/1.1/"
   xmlns:cc="http://creativecommons.org/ns#"
   xmlns:rdf="http://www.w3.org/1999/02/22-rdf-syntax-ns#"
   xmlns:svg="http://www.w3.org/2000/svg"
   xmlns="http://www.w3.org/2000/svg"
   xmlns:sodipodi="http://sodipodi.sourceforge.net/DTD/sodipodi-0.dtd"
   xmlns:inkscape="http://www.inkscape.org/namespaces/inkscape"
   width="210mm"
   height="297mm"
   viewBox="0 0 744.09448819 1052.3622047"
   id="svg2"
   version="1.1"
   inkscape:version="0.91 r13725"
   sodipodi:docname="base.svg">
  <defs
     id="defs4" />
  <sodipodi:namedview
     id="base"
     pagecolor="#ffffff"
     bordercolor="#666666"
     borderopacity="1.0"
     inkscape:pageopacity="0.0"
     inkscape:pageshadow="2"
     inkscape:zoom="4.6276249"
     inkscape:cx="-92.415388"
     inkscape:cy="511.0098"
     inkscape:document-units="px"
     inkscape:current-layer="layer1"
     showgrid="true"
     objecttolerance="20"
     guidetolerance="10000"
     gridtolerance="10000"
     inkscape:window-width="1920"
     inkscape:window-height="961"
     inkscape:window-x="0"
     inkscape:window-y="49"
     inkscape:window-maximized="1">
    <inkscape:grid
       type="xygrid"
       id="grid4148"
       units="mm"
       spacingx="3.5433071"
       spacingy="3.5433072"
       snapvisiblegridlinesonly="true"
       dotted="false" />
  </sodipodi:namedview>
  <metadata
     id="metadata7">
    <rdf:RDF>
      <cc:Work
         rdf:about="">
        <dc:format>image/svg+xml</dc:format>
        <dc:type
           rdf:resource="http://purl.org/dc/dcmitype/StillImage" />
        <dc:title />
      </cc:Work>
    </rdf:RDF>
  </metadata>
  <g
     inkscape:label="Calque 1"
     inkscape:groupmode="layer"
     id="layer1">
    <path
       sodipodi:nodetypes="ccacc"
       inkscape:connector-curvature="0"
       id="path4171"
       d="m -164.75988,547.6896 -10.62992,-7.08662 c 0,0 -24.80315,7.55631 -24.80315,17.71654 0,10.16023 24.80315,17.71653 24.80315,17.71653 l 10.62992,-7.08661"
       style="fill:none;fill-rule:evenodd;stroke:#000000;stroke-width:1px;stroke-linecap:butt;stroke-linejoin:miter;stroke-opacity:1" />
    <g
       id="g4223"
       transform="translate(14,-16)">
      <g
         id="g4183">
        <path
           style="fill:none;fill-rule:evenodd;stroke:#000000;stroke-width:1px;stroke-linecap:butt;stroke-linejoin:miter;stroke-opacity:1"
           d="m 35.649688,557.86452 c -7.331288,3.05079 -17.217502,8.27823 -17.217501,14.85742 1e-6,6.57919 10.3184,10.72616 17.649688,13.77695"
           id="path4181"
           inkscape:connector-curvature="0"
           sodipodi:nodetypes="csc" />
        <path
           style="fill:none;fill-rule:evenodd;stroke:#000000;stroke-width:1px;stroke-linecap:butt;stroke-linejoin:miter;stroke-opacity:1"
           d="m 35.891998,1052.255 -0.02622,-464.67564 c 3.990401,1.66053 7.36914,2.85937 7.36914,2.85937 l 10.63086,-7.08593 m 0,-21.25977 -10.63086,-7.08789 c 0,0 -3.378739,1.19884 -7.36914,2.85938 L 35.675904,379.33549"
           id="path4154"
           inkscape:connector-curvature="0"
           sodipodi:nodetypes="cccccccc" />
        <path
           style="fill:none;fill-rule:evenodd;stroke:#000000;stroke-width:1px;stroke-linecap:butt;stroke-linejoin:miter;stroke-opacity:1"
           d="m 63.779527,822.04724 -10.629921,-7.08661 0,-21.25985 10.629921,-7.08661"
           id="path4165"
           inkscape:connector-curvature="0" />
      </g>
      <g
         transform="matrix(-0.5,-0.8660254,0.8660254,-0.5,-274.99379,1272.4928)"
         id="g4188">
        <path
           sodipodi:nodetypes="csc"
           inkscape:connector-curvature="0"
           id="path4190"
           d="M 35.433594,541.44141 C 28.102306,544.4922 17.999999,549.71964 18,556.29883 c 1e-6,6.57919 10.102306,11.80663 17.433594,14.85742"
           style="fill:none;fill-rule:evenodd;stroke:#000000;stroke-width:1px;stroke-linecap:butt;stroke-linejoin:miter;stroke-opacity:1" />
        <path
           sodipodi:nodetypes="cccccccc"
           inkscape:connector-curvature="0"
           id="path4192"
           d="M 35.891998,1052.255 35.433594,571.15625 c 3.990401,1.66053 7.36914,2.85937 7.36914,2.85937 l 10.63086,-7.08593 m 0,-21.25977 -10.63086,-7.08789 c 0,0 -3.378739,1.19884 -7.36914,2.85938 l 0.24231,-162.10592"
           style="fill:none;fill-rule:evenodd;stroke:#000000;stroke-width:1px;stroke-linecap:butt;stroke-linejoin:miter;stroke-opacity:1" />
        <path
           inkscape:connector-curvature="0"
           id="path4194"
           d="m 63.779527,822.04724 -10.629921,-7.08661 0,-21.25985 10.629921,-7.08661"
           style="fill:none;fill-rule:evenodd;stroke:#000000;stroke-width:1px;stroke-linecap:butt;stroke-linejoin:miter;stroke-opacity:1" />
      </g>
      <g
         id="g4196"
         transform="matrix(-0.5,0.8660254,-0.8660254,-0.5,964.90821,874.61131)">
        <path
           style="fill:none;fill-rule:evenodd;stroke:#000000;stroke-width:1px;stroke-linecap:butt;stroke-linejoin:miter;stroke-opacity:1"
           d="M 35.433594,541.44141 C 28.102306,544.4922 17.999999,549.71964 18,556.29883 c 1e-6,6.57919 10.102306,11.80663 17.433594,14.85742"
           id="path4198"
           inkscape:connector-curvature="0"
           sodipodi:nodetypes="csc" />
        <path
           style="fill:none;fill-rule:evenodd;stroke:#000000;stroke-width:1px;stroke-linecap:butt;stroke-linejoin:miter;stroke-opacity:1"
           d="M 35.891998,1052.255 35.433594,571.15625 c 3.990401,1.66053 7.36914,2.85937 7.36914,2.85937 l 10.63086,-7.08593 m 0,-21.25977 -10.63086,-7.08789 c 0,0 -3.378739,1.19884 -7.36914,2.85938 l 0.24231,-162.10592"
           id="path4200"
           inkscape:connector-curvature="0"
           sodipodi:nodetypes="cccccccc" />
        <path
           style="fill:none;fill-rule:evenodd;stroke:#000000;stroke-width:1px;stroke-linecap:butt;stroke-linejoin:miter;stroke-opacity:1"
           d="m 63.779527,822.04724 -10.629921,-7.08661 0,-21.25985 10.629921,-7.08661"
           id="path4202"
           inkscape:connector-curvature="0" />
      </g>
    </g>
    <g
       id="g4237"
       transform="matrix(-1,0,0,1,708.30674,-354)">
      <g
         id="g4239">
        <path
           sodipodi:nodetypes="csc"
           inkscape:connector-curvature="0"
           id="path4241"
           d="M 35.433594,541.44141 C 28.102306,544.4922 17.999999,549.71964 18,556.29883 c 1e-6,6.57919 10.102306,11.80663 17.433594,14.85742"
           style="fill:none;fill-rule:evenodd;stroke:#000000;stroke-width:1px;stroke-linecap:butt;stroke-linejoin:miter;stroke-opacity:1" />
        <path
           sodipodi:nodetypes="cccccccc"
           inkscape:connector-curvature="0"
           id="path4243"
           d="M 35.891998,1052.255 35.433594,571.15625 c 3.990401,1.66053 7.36914,2.85937 7.36914,2.85937 l 10.63086,-7.08593 m 0,-21.25977 -10.63086,-7.08789 c 0,0 -3.378739,1.19884 -7.36914,2.85938 l 0.24231,-162.10592"
           style="fill:none;fill-rule:evenodd;stroke:#000000;stroke-width:1px;stroke-linecap:butt;stroke-linejoin:miter;stroke-opacity:1" />
        <path
           inkscape:connector-curvature="0"
           id="path4245"
           d="m 63.779527,822.04724 -10.629921,-7.08661 0,-21.25985 10.629921,-7.08661"
           style="fill:none;fill-rule:evenodd;stroke:#000000;stroke-width:1px;stroke-linecap:butt;stroke-linejoin:miter;stroke-opacity:1" />
      </g>
      <g
         id="g4247"
         transform="matrix(-0.5,-0.8660254,0.8660254,-0.5,-274.99379,1272.4928)">
        <path
           style="fill:none;fill-rule:evenodd;stroke:#000000;stroke-width:1px;stroke-linecap:butt;stroke-linejoin:miter;stroke-opacity:1"
           d="M 35.433594,541.44141 C 28.102306,544.4922 17.999999,549.71964 18,556.29883 c 1e-6,6.57919 10.102306,11.80663 17.433594,14.85742"
           id="path4249"
           inkscape:connector-curvature="0"
           sodipodi:nodetypes="csc" />
        <path
           style="fill:none;fill-rule:evenodd;stroke:#000000;stroke-width:1px;stroke-linecap:butt;stroke-linejoin:miter;stroke-opacity:1"
           d="M 35.891998,1052.255 35.433594,571.15625 c 3.990401,1.66053 7.36914,2.85937 7.36914,2.85937 l 10.63086,-7.08593 m 0,-21.25977 -10.63086,-7.08789 c 0,0 -3.378739,1.19884 -7.36914,2.85938 l 0.24231,-162.10592"
           id="path4251"
           inkscape:connector-curvature="0"
           sodipodi:nodetypes="cccccccc" />
        <path
           style="fill:none;fill-rule:evenodd;stroke:#000000;stroke-width:1px;stroke-linecap:butt;stroke-linejoin:miter;stroke-opacity:1"
           d="m 63.779527,822.04724 -10.629921,-7.08661 0,-21.25985 10.629921,-7.08661"
           id="path4253"
           inkscape:connector-curvature="0" />
      </g>
      <g
         transform="matrix(-0.5,0.8660254,-0.8660254,-0.5,964.90821,874.61131)"
         id="g4255">
        <path
           sodipodi:nodetypes="csc"
           inkscape:connector-curvature="0"
           id="path4257"
           d="M 35.433594,541.44141 C 28.102306,544.4922 17.999999,549.71964 18,556.29883 c 1e-6,6.57919 10.102306,11.80663 17.433594,14.85742"
           style="fill:none;fill-rule:evenodd;stroke:#000000;stroke-width:1px;stroke-linecap:butt;stroke-linejoin:miter;stroke-opacity:1" />
        <path
           sodipodi:nodetypes="cccccccc"
           inkscape:connector-curvature="0"
           id="path4259"
           d="M 35.891998,1052.255 35.433594,571.15625 c 3.990401,1.66053 7.36914,2.85937 7.36914,2.85937 l 10.63086,-7.08593 m 0,-21.25977 -10.63086,-7.08789 c 0,0 -3.378739,1.19884 -7.36914,2.85938 l 0.24231,-162.10592"
           style="fill:none;fill-rule:evenodd;stroke:#000000;stroke-width:1px;stroke-linecap:butt;stroke-linejoin:miter;stroke-opacity:1" />
        <path
           inkscape:connector-curvature="0"
           id="path4261"
           d="m 63.779527,822.04724 -10.629921,-7.08661 0,-21.25985 10.629921,-7.08661"
           style="fill:none;fill-rule:evenodd;stroke:#000000;stroke-width:1px;stroke-linecap:butt;stroke-linejoin:miter;stroke-opacity:1" />
      </g>
    </g>
    <path
       style="fill:none;fill-rule:evenodd;stroke:#000000;stroke-width:1px;stroke-linecap:butt;stroke-linejoin:miter;stroke-opacity:1"
       d="m -389.76378,555.79921 70.86614,0"
       id="path4855"
       inkscape:connector-curvature="0" />
  </g>
</svg>
