  0
SECTION
  2
HEADER
  9
$ACADVER
  1
AC1014
  9
$HANDSEED
  5
FFFF
  9
$MEASUREMENT
 70
     1
  0
ENDSEC
  0
SECTION
  2
TABLES
  0
TABLE
  2
VPORT
  5
8
330
0
100
AcDbSymbolTable
 70
     4
  0
VPORT
  5
2E
330
8
100
AcDbSymbolTableRecord
100
AcDbViewportTableRecord
  2
*ACTIVE
 70
     0
 10
0.0
 20
0.0
 11
1.0
 21
1.0
 12
210.0
 22
148.5
 13
0.0
 23
0.0
 14
10.0
 24
10.0
 15
10.0
 25
10.0
 16
0.0
 26
0.0
 36
1.0
 17
0.0
 27
0.0
 37
0.0
 40
341.0
 41
1.24
 42
50.0
 43
0.0
 44
0.0
 50
0.0
 51
0.0
 71
     0
 72
   100
 73
     1
 74
     3
 75
     0
 76
     0
 77
     0
 78
     0
  0
ENDTAB
  0
TABLE
  2
LTYPE
  5
5
330
0
100
AcDbSymbolTable
 70
     1
  0
LTYPE
  5
14
330
5
100
AcDbSymbolTableRecord
100
AcDbLinetypeTableRecord
  2
BYBLOCK
 70
     0
  3

 72
    65
 73
     0
 40
0.0
  0
LTYPE
  5
15
330
5
100
AcDbSymbolTableRecord
100
AcDbLinetypeTableRecord
  2
BYLAYER
 70
     0
  3

 72
    65
 73
     0
 40
0.0
  0
LTYPE
  5
16
330
5
100
AcDbSymbolTableRecord
100
AcDbLinetypeTableRecord
  2
CONTINUOUS
 70
     0
  3
Solid line
 72
    65
 73
     0
 40
0.0
  0
ENDTAB
  0
TABLE
  2
LAYER
  5
2
100
AcDbSymbolTable
 70
2
  0
LAYER
  5
50
100
AcDbSymbolTableRecord
100
AcDbLayerTableRecord
  2
0
 70
0
  6
CONTINUOUS
  0
LAYER
  5
51
100
AcDbSymbolTableRecord
100
AcDbLayerTableRecord
  2
Calque_1
 70
0
  6
CONTINUOUS
  0
ENDTAB
  0
TABLE
  2
STYLE
  5
3
330
0
100
AcDbSymbolTable
 70
     1
  0
STYLE
  5
11
330
3
100
AcDbSymbolTableRecord
100
AcDbTextStyleTableRecord
  2
STANDARD
 70
     0
 40
0.0
 41
1.0
 50
0.0
 71
     0
 42
2.5
  3
txt
  4

  0
ENDTAB
  0
TABLE
  2
VIEW
  5
6
330
0
100
AcDbSymbolTable
 70
     0
  0
ENDTAB
  0
TABLE
  2
UCS
  5
7
330
0
100
AcDbSymbolTable
 70
     0
  0
ENDTAB
  0
TABLE
  2
APPID
  5
9
330
0
100
AcDbSymbolTable
 70
     2
  0
APPID
  5
12
330
9
100
AcDbSymbolTableRecord
100
AcDbRegAppTableRecord
  2
ACAD
 70
     0
  0
ENDTAB
  0
TABLE
  2
DIMSTYLE
  5
A
330
0
100
AcDbSymbolTable
 70
     1
  0
DIMSTYLE
105
27
330
A
100
AcDbSymbolTableRecord
100
AcDbDimStyleTableRecord
  2
ISO-25
 70
     0
  3

  4

  5

  6

  7

 40
1.0
 41
2.5
 42
0.625
 43
3.75
 44
1.25
 45
0.0
 46
0.0
 47
0.0
 48
0.0
140
2.5
141
2.5
142
0.0
143
0.03937007874016
144
1.0
145
0.0
146
1.0
147
0.625
 71
     0
 72
     0
 73
     0
 74
     0
 75
     0
 76
     0
 77
     1
 78
     8
170
     0
171
     3
172
     1
173
     0
174
     0
175
     0
176
     0
177
     0
178
     0
270
     2
271
     2
272
     2
273
     2
274
     3
340
11
275
     0
280
     0
281
     0
282
     0
283
     0
284
     8
285
     0
286
     0
287
     3
288
     0
  0
ENDTAB
  0
TABLE
  2
BLOCK_RECORD
  5
1
330
0
100
AcDbSymbolTable
 70
     1
  0
BLOCK_RECORD
  5
1F
330
1
100
AcDbSymbolTableRecord
100
AcDbBlockTableRecord
  2
*MODEL_SPACE
  0
BLOCK_RECORD
  5
1B
330
1
100
AcDbSymbolTableRecord
100
AcDbBlockTableRecord
  2
*PAPER_SPACE
  0
ENDTAB
  0
ENDSEC
  0
SECTION
  2
BLOCKS
  0
BLOCK
  5
20
330
1F
100
AcDbEntity
  8
0
100
AcDbBlockBegin
  2
*MODEL_SPACE
 70
     0
 10
0.0
 20
0.0
 30
0.0
  3
*MODEL_SPACE
  1

  0
ENDBLK
  5
21
330
1F
100
AcDbEntity
  8
0
100
AcDbBlockEnd
  0
BLOCK
  5
1C
330
1B
100
AcDbEntity
 67
     1
  8
0
100
AcDbBlockBegin
  2
*PAPER_SPACE
  1

  0
ENDBLK
  5
1D
330
1B
100
AcDbEntity
 67
     1
  8
0
100
AcDbBlockEnd
  0
ENDSEC
  0
SECTION
  2
ENTITIES
  0
LWPOLYLINE
  5
100
100
AcDbEntity
  8
Calque_1
 62
5
100
AcDbPolyline
 90
2
 70
0
 10
0.528117
 20
3.143669
 30
0.0
 10
0.911716
 20
3.143669
 30
0.0
  0
SPLINE
  5
101
100
AcDbEntity
  8
Calque_1
 62
5
100
AcDbSpline
 70
8
 71
3
 72
8
 73
4
 74
0
 40
0
 40
0
 40
0
 40
0
 40
1
 40
1
 40
1
 40
1
 10
1.827255
 20
3.143669
 30
0.0
 10
1.835187
 20
3.146997
 30
0.0
 10
1.844345
 20
3.145197
 30
0.0
 10
1.850427
 20
3.139115
 30
0.0
  0
SPLINE
  5
102
100
AcDbEntity
  8
Calque_1
 62
5
100
AcDbSpline
 70
8
 71
3
 72
8
 73
4
 74
0
 40
0
 40
0
 40
0
 40
0
 40
1
 40
1
 40
1
 40
1
 10
1.850427
 20
3.139115
 30
0.0
 10
1.856510
 20
3.133032
 30
0.0
 10
1.858310
 20
3.123875
 30
0.0
 10
1.854982
 20
3.115943
 30
0.0
  0
LWPOLYLINE
  5
103
100
AcDbEntity
  8
Calque_1
 62
5
100
AcDbPolyline
 90
2
 70
0
 10
0.996463
 20
3.143669
 30
0.0
 10
1.827255
 20
3.143669
 30
0.0
  0
SPLINE
  5
104
100
AcDbEntity
  8
Calque_1
 62
1
100
AcDbSpline
 70
8
 71
3
 72
8
 73
4
 74
0
 40
0
 40
0
 40
0
 40
0
 40
1
 40
1
 40
1
 40
1
 10
1.024705
 20
3.164851
 30
0.0
 10
1.024705
 20
3.249577
 30
0.0
 10
0.883495
 20
3.249577
 30
0.0
 10
0.883495
 20
3.164851
 30
0.0
  0
LWPOLYLINE
  5
105
100
AcDbEntity
  8
Calque_1
 62
1
100
AcDbPolyline
 90
2
 70
0
 10
0.982342
 20
3.122488
 30
0.0
 10
1.024705
 20
3.164851
 30
0.0
  0
LWPOLYLINE
  5
106
100
AcDbEntity
  8
Calque_1
 62
1
100
AcDbPolyline
 90
2
 70
0
 10
0.883495
 20
3.164851
 30
0.0
 10
0.925858
 20
3.122488
 30
0.0
  0
LWPOLYLINE
  5
107
100
AcDbEntity
  8
Calque_1
 62
3
100
AcDbPolyline
 90
4
 70
0
 10
1.330659
 20
3.080124
 30
0.0
 10
1.373023
 20
3.122488
 30
0.0
 10
1.429507
 20
3.122488
 30
0.0
 10
1.471870
 20
3.080124
 30
0.0
  0
LWPOLYLINE
  5
108
100
AcDbEntity
  8
Calque_1
 62
5
100
AcDbPolyline
 90
2
 70
0
 10
1.854982
 20
3.123524
 30
0.0
 10
1.973521
 20
2.758700
 30
0.0
  0
SPLINE
  5
109
100
AcDbEntity
  8
Calque_1
 62
5
100
AcDbSpline
 70
8
 71
3
 72
8
 73
4
 74
0
 40
0
 40
0
 40
0
 40
0
 40
1
 40
1
 40
1
 40
1
 10
2.256438
 20
1.887970
 30
0.0
 10
2.262054
 20
1.881454
 30
0.0
 10
2.263172
 20
1.872189
 30
0.0
 10
2.259267
 20
1.864525
 30
0.0
  0
SPLINE
  5
10a
100
AcDbEntity
  8
Calque_1
 62
5
100
AcDbSpline
 70
8
 71
3
 72
8
 73
4
 74
0
 40
0
 40
0
 40
0
 40
0
 40
1
 40
1
 40
1
 40
1
 10
2.259267
 20
1.864525
 30
0.0
 10
2.255362
 20
1.856860
 30
0.0
 10
2.247209
 20
1.852319
 30
0.0
 10
2.238636
 20
1.853033
 30
0.0
  0
LWPOLYLINE
  5
10b
100
AcDbEntity
  8
Calque_1
 62
5
100
AcDbPolyline
 90
2
 70
0
 10
1.999709
 20
2.678100
 30
0.0
 10
2.256438
 20
1.887970
 30
0.0
  0
SPLINE
  5
10c
100
AcDbEntity
  8
Calque_1
 62
1
100
AcDbSpline
 70
8
 71
3
 72
8
 73
4
 74
0
 40
0
 40
0
 40
0
 40
0
 40
1
 40
1
 40
1
 40
1
 10
2.028581
 20
2.657786
 30
0.0
 10
2.109161
 20
2.683968
 30
0.0
 10
2.065525
 20
2.818267
 30
0.0
 10
1.984945
 20
2.792085
 30
0.0
  0
LWPOLYLINE
  5
10d
100
AcDbEntity
  8
Calque_1
 62
1
100
AcDbPolyline
 90
2
 70
0
 10
1.975201
 20
2.684985
 30
0.0
 10
2.028581
 20
2.657786
 30
0.0
  0
LWPOLYLINE
  5
10e
100
AcDbEntity
  8
Calque_1
 62
1
100
AcDbPolyline
 90
2
 70
0
 10
1.984945
 20
2.792085
 30
0.0
 10
1.957746
 20
2.738705
 30
0.0
  0
LWPOLYLINE
  5
10f
100
AcDbEntity
  8
Calque_1
 62
3
100
AcDbPolyline
 90
4
 70
0
 10
2.042547
 20
2.340624
 30
0.0
 10
2.095928
 20
2.313425
 30
0.0
 10
2.113382
 20
2.259706
 30
0.0
 10
2.086183
 20
2.206325
 30
0.0
  0
LWPOLYLINE
  5
110
100
AcDbEntity
  8
Calque_1
 62
5
100
AcDbPolyline
 90
2
 70
0
 10
2.245847
 20
1.855375
 30
0.0
 10
1.935509
 20
1.629901
 30
0.0
  0
SPLINE
  5
111
100
AcDbEntity
  8
Calque_1
 62
5
100
AcDbSpline
 70
8
 71
3
 72
8
 73
4
 74
0
 40
0
 40
0
 40
0
 40
0
 40
1
 40
1
 40
1
 40
1
 10
1.194822
 20
1.091761
 30
0.0
 10
1.190361
 20
1.084406
 30
0.0
 10
1.181895
 20
1.080480
 30
0.0
 10
1.173398
 20
1.081825
 30
0.0
  0
SPLINE
  5
112
100
AcDbEntity
  8
Calque_1
 62
5
100
AcDbSpline
 70
8
 71
3
 72
8
 73
4
 74
0
 40
0
 40
0
 40
0
 40
0
 40
1
 40
1
 40
1
 40
1
 10
1.173398
 20
1.081825
 30
0.0
 10
1.164902
 20
1.083171
 30
0.0
 10
1.158064
 20
1.089521
 30
0.0
 10
1.156093
 20
1.097895
 30
0.0
  0
LWPOLYLINE
  5
113
100
AcDbEntity
  8
Calque_1
 62
5
100
AcDbPolyline
 90
2
 70
0
 10
1.866947
 20
1.580088
 30
0.0
 10
1.194822
 20
1.091761
 30
0.0
  0
SPLINE
  5
114
100
AcDbEntity
  8
Calque_1
 62
1
100
AcDbSpline
 70
8
 71
3
 72
8
 73
4
 74
0
 40
0
 40
0
 40
0
 40
0
 40
1
 40
1
 40
1
 40
1
 10
1.856549
 20
1.546351
 30
0.0
 10
1.906350
 20
1.477806
 30
0.0
 10
2.020592
 20
1.560808
 30
0.0
 10
1.970791
 20
1.629353
 30
0.0
  0
LWPOLYLINE
  5
115
100
AcDbEntity
  8
Calque_1
 62
1
100
AcDbPolyline
 90
2
 70
0
 10
1.865921
 20
1.605524
 30
0.0
 10
1.856549
 20
1.546351
 30
0.0
  0
LWPOLYLINE
  5
116
100
AcDbEntity
  8
Calque_1
 62
1
100
AcDbPolyline
 90
2
 70
0
 10
1.970791
 20
1.629353
 30
0.0
 10
1.911618
 20
1.638725
 30
0.0
  0
LWPOLYLINE
  5
117
100
AcDbEntity
  8
Calque_1
 62
3
100
AcDbPolyline
 90
4
 70
0
 10
1.559226
 20
1.435061
 30
0.0
 10
1.549854
 20
1.375888
 30
0.0
 10
1.504157
 20
1.342687
 30
0.0
 10
1.444984
 20
1.352060
 30
0.0
  0
LWPOLYLINE
  5
118
100
AcDbEntity
  8
Calque_1
 62
5
100
AcDbPolyline
 90
2
 70
0
 10
1.160550
 20
1.091761
 30
0.0
 10
0.850212
 20
1.317234
 30
0.0
  0
SPLINE
  5
119
100
AcDbEntity
  8
Calque_1
 62
5
100
AcDbSpline
 70
8
 71
3
 72
8
 73
4
 74
0
 40
0
 40
0
 40
0
 40
0
 40
1
 40
1
 40
1
 40
1
 10
0.109524
 20
1.855375
 30
0.0
 10
0.101151
 20
1.857345
 30
0.0
 10
0.094801
 20
1.864184
 30
0.0
 10
0.093455
 20
1.872680
 30
0.0
  0
SPLINE
  5
11a
100
AcDbEntity
  8
Calque_1
 62
5
100
AcDbSpline
 70
8
 71
3
 72
8
 73
4
 74
0
 40
0
 40
0
 40
0
 40
0
 40
1
 40
1
 40
1
 40
1
 10
0.093455
 20
1.872680
 30
0.0
 10
0.092109
 20
1.881176
 30
0.0
 10
0.096036
 20
1.889642
 30
0.0
 10
0.103390
 20
1.894104
 30
0.0
  0
LWPOLYLINE
  5
11b
100
AcDbEntity
  8
Calque_1
 62
5
100
AcDbPolyline
 90
2
 70
0
 10
0.781649
 20
1.367048
 30
0.0
 10
0.109524
 20
1.855375
 30
0.0
  0
SPLINE
  5
11c
100
AcDbEntity
  8
Calque_1
 62
1
100
AcDbSpline
 70
8
 71
3
 72
8
 73
4
 74
0
 40
0
 40
0
 40
0
 40
0
 40
1
 40
1
 40
1
 40
1
 10
0.746351
 20
1.366512
 30
0.0
 10
0.696550
 20
1.297967
 30
0.0
 10
0.810792
 20
1.214965
 30
0.0
 10
0.860593
 20
1.283510
 30
0.0
  0
LWPOLYLINE
  5
11d
100
AcDbEntity
  8
Calque_1
 62
1
100
AcDbPolyline
 90
2
 70
0
 10
0.805524
 20
1.375884
 30
0.0
 10
0.746351
 20
1.366512
 30
0.0
  0
LWPOLYLINE
  5
11e
100
AcDbEntity
  8
Calque_1
 62
1
100
AcDbPolyline
 90
2
 70
0
 10
0.860593
 20
1.283510
 30
0.0
 10
0.851220
 20
1.342683
 30
0.0
  0
LWPOLYLINE
  5
11f
100
AcDbEntity
  8
Calque_1
 62
3
100
AcDbPolyline
 90
4
 70
0
 10
0.548630
 20
1.614892
 30
0.0
 10
0.489457
 20
1.605520
 30
0.0
 10
0.443760
 20
1.638721
 30
0.0
 10
0.434388
 20
1.697894
 30
0.0
  0
LWPOLYLINE
  5
120
100
AcDbEntity
  8
Calque_1
 62
5
100
AcDbPolyline
 90
2
 70
0
 10
0.098934
 20
1.887970
 30
0.0
 10
0.217472
 20
2.252794
 30
0.0
  0
SPLINE
  5
121
100
AcDbEntity
  8
Calque_1
 62
5
100
AcDbSpline
 70
8
 71
3
 72
8
 73
4
 74
0
 40
0
 40
0
 40
0
 40
0
 40
1
 40
1
 40
1
 40
1
 10
0.500390
 20
3.123524
 30
0.0
 10
0.499676
 20
3.132097
 30
0.0
 10
0.504217
 20
3.140249
 30
0.0
 10
0.511882
 20
3.144155
 30
0.0
  0
SPLINE
  5
122
100
AcDbEntity
  8
Calque_1
 62
5
100
AcDbSpline
 70
8
 71
3
 72
8
 73
4
 74
0
 40
0
 40
0
 40
0
 40
0
 40
1
 40
1
 40
1
 40
1
 10
0.511882
 20
3.144155
 30
0.0
 10
0.519546
 20
3.148060
 30
0.0
 10
0.528812
 20
3.146942
 30
0.0
 10
0.535327
 20
3.141326
 30
0.0
  0
LWPOLYLINE
  5
123
100
AcDbEntity
  8
Calque_1
 62
5
100
AcDbPolyline
 90
2
 70
0
 10
0.243661
 20
2.333394
 30
0.0
 10
0.500390
 20
3.123524
 30
0.0
  0
SPLINE
  5
124
100
AcDbEntity
  8
Calque_1
 62
1
100
AcDbSpline
 70
8
 71
3
 72
8
 73
4
 74
0
 40
0
 40
0
 40
0
 40
0
 40
1
 40
1
 40
1
 40
1
 10
0.232243
 20
2.366800
 30
0.0
 10
0.151663
 20
2.392981
 30
0.0
 10
0.108027
 20
2.258682
 30
0.0
 10
0.188607
 20
2.232500
 30
0.0
  0
LWPOLYLINE
  5
125
100
AcDbEntity
  8
Calque_1
 62
1
100
AcDbPolyline
 90
2
 70
0
 10
0.259442
 20
2.313419
 30
0.0
 10
0.232243
 20
2.366800
 30
0.0
  0
LWPOLYLINE
  5
126
100
AcDbEntity
  8
Calque_1
 62
1
100
AcDbPolyline
 90
2
 70
0
 10
0.188607
 20
2.232500
 30
0.0
 10
0.241987
 20
2.259699
 30
0.0
  0
LWPOLYLINE
  5
127
100
AcDbEntity
  8
Calque_1
 62
3
100
AcDbPolyline
 90
4
 70
0
 10
0.407368
 20
2.631597
 30
0.0
 10
0.380169
 20
2.684978
 30
0.0
 10
0.397623
 20
2.738698
 30
0.0
 10
0.451004
 20
2.765897
 30
0.0
  0
ENDSEC
  0
SECTION
  2
OBJECTS
  0
DICTIONARY
  5
C
330
0
100
AcDbDictionary
  3
ACAD_GROUP
350
D
  3
ACAD_MLINESTYLE
350
17
  0
DICTIONARY
  5
D
330
C
100
AcDbDictionary
  0
DICTIONARY
  5
1A
330
C
100
AcDbDictionary
  0
DICTIONARY
  5
17
330
C
100
AcDbDictionary
  3
STANDARD
350
18
  0
DICTIONARY
  5
19
330
C
100
AcDbDictionary
  0
ENDSEC
  0
EOF
