  0
SECTION
  2
HEADER
  9
$ACADVER
  1
AC1014
  9
$HANDSEED
  5
FFFF
  9
$MEASUREMENT
 70
     1
  0
ENDSEC
  0
SECTION
  2
TABLES
  0
TABLE
  2
VPORT
  5
8
330
0
100
AcDbSymbolTable
 70
     4
  0
VPORT
  5
2E
330
8
100
AcDbSymbolTableRecord
100
AcDbViewportTableRecord
  2
*ACTIVE
 70
     0
 10
0.0
 20
0.0
 11
1.0
 21
1.0
 12
210.0
 22
148.5
 13
0.0
 23
0.0
 14
10.0
 24
10.0
 15
10.0
 25
10.0
 16
0.0
 26
0.0
 36
1.0
 17
0.0
 27
0.0
 37
0.0
 40
341.0
 41
1.24
 42
50.0
 43
0.0
 44
0.0
 50
0.0
 51
0.0
 71
     0
 72
   100
 73
     1
 74
     3
 75
     0
 76
     0
 77
     0
 78
     0
  0
ENDTAB
  0
TABLE
  2
LTYPE
  5
5
330
0
100
AcDbSymbolTable
 70
     1
  0
LTYPE
  5
14
330
5
100
AcDbSymbolTableRecord
100
AcDbLinetypeTableRecord
  2
BYBLOCK
 70
     0
  3

 72
    65
 73
     0
 40
0.0
  0
LTYPE
  5
15
330
5
100
AcDbSymbolTableRecord
100
AcDbLinetypeTableRecord
  2
BYLAYER
 70
     0
  3

 72
    65
 73
     0
 40
0.0
  0
LTYPE
  5
16
330
5
100
AcDbSymbolTableRecord
100
AcDbLinetypeTableRecord
  2
CONTINUOUS
 70
     0
  3
Solid line
 72
    65
 73
     0
 40
0.0
  0
ENDTAB
  0
TABLE
  2
LAYER
  5
2
100
AcDbSymbolTable
 70
2
  0
LAYER
  5
50
100
AcDbSymbolTableRecord
100
AcDbLayerTableRecord
  2
0
 70
0
  6
CONTINUOUS
  0
LAYER
  5
51
100
AcDbSymbolTableRecord
100
AcDbLayerTableRecord
  2
Calque_1
 70
0
  6
CONTINUOUS
  0
ENDTAB
  0
TABLE
  2
STYLE
  5
3
330
0
100
AcDbSymbolTable
 70
     1
  0
STYLE
  5
11
330
3
100
AcDbSymbolTableRecord
100
AcDbTextStyleTableRecord
  2
STANDARD
 70
     0
 40
0.0
 41
1.0
 50
0.0
 71
     0
 42
2.5
  3
txt
  4

  0
ENDTAB
  0
TABLE
  2
VIEW
  5
6
330
0
100
AcDbSymbolTable
 70
     0
  0
ENDTAB
  0
TABLE
  2
UCS
  5
7
330
0
100
AcDbSymbolTable
 70
     0
  0
ENDTAB
  0
TABLE
  2
APPID
  5
9
330
0
100
AcDbSymbolTable
 70
     2
  0
APPID
  5
12
330
9
100
AcDbSymbolTableRecord
100
AcDbRegAppTableRecord
  2
ACAD
 70
     0
  0
ENDTAB
  0
TABLE
  2
DIMSTYLE
  5
A
330
0
100
AcDbSymbolTable
 70
     1
  0
DIMSTYLE
105
27
330
A
100
AcDbSymbolTableRecord
100
AcDbDimStyleTableRecord
  2
ISO-25
 70
     0
  3

  4

  5

  6

  7

 40
1.0
 41
2.5
 42
0.625
 43
3.75
 44
1.25
 45
0.0
 46
0.0
 47
0.0
 48
0.0
140
2.5
141
2.5
142
0.0
143
0.03937007874016
144
1.0
145
0.0
146
1.0
147
0.625
 71
     0
 72
     0
 73
     0
 74
     0
 75
     0
 76
     0
 77
     1
 78
     8
170
     0
171
     3
172
     1
173
     0
174
     0
175
     0
176
     0
177
     0
178
     0
270
     2
271
     2
272
     2
273
     2
274
     3
340
11
275
     0
280
     0
281
     0
282
     0
283
     0
284
     8
285
     0
286
     0
287
     3
288
     0
  0
ENDTAB
  0
TABLE
  2
BLOCK_RECORD
  5
1
330
0
100
AcDbSymbolTable
 70
     1
  0
BLOCK_RECORD
  5
1F
330
1
100
AcDbSymbolTableRecord
100
AcDbBlockTableRecord
  2
*MODEL_SPACE
  0
BLOCK_RECORD
  5
1B
330
1
100
AcDbSymbolTableRecord
100
AcDbBlockTableRecord
  2
*PAPER_SPACE
  0
ENDTAB
  0
ENDSEC
  0
SECTION
  2
BLOCKS
  0
BLOCK
  5
20
330
1F
100
AcDbEntity
  8
0
100
AcDbBlockBegin
  2
*MODEL_SPACE
 70
     0
 10
0.0
 20
0.0
 30
0.0
  3
*MODEL_SPACE
  1

  0
ENDBLK
  5
21
330
1F
100
AcDbEntity
  8
0
100
AcDbBlockEnd
  0
BLOCK
  5
1C
330
1B
100
AcDbEntity
 67
     1
  8
0
100
AcDbBlockBegin
  2
*PAPER_SPACE
  1

  0
ENDBLK
  5
1D
330
1B
100
AcDbEntity
 67
     1
  8
0
100
AcDbBlockEnd
  0
ENDSEC
  0
SECTION
  2
ENTITIES
  0
LWPOLYLINE
  5
100
100
AcDbEntity
  8
Calque_1
 62
5
100
AcDbPolyline
 90
2
 70
0
 10
0.133333
 20
1.211111
 30
0.0
 10
0.133333
 20
1.814778
 30
0.0
  0
SPLINE
  5
101
100
AcDbEntity
  8
Calque_1
 62
5
100
AcDbSpline
 70
8
 71
3
 72
8
 73
4
 74
0
 40
0
 40
0
 40
0
 40
0
 40
1
 40
1
 40
1
 40
1
 10
0.133333
 20
3.255556
 30
0.0
 10
0.133333
 20
3.267464
 30
0.0
 10
0.139687
 20
3.278469
 30
0.0
 10
0.150000
 20
3.284423
 30
0.0
  0
SPLINE
  5
102
100
AcDbEntity
  8
Calque_1
 62
5
100
AcDbSpline
 70
8
 71
3
 72
8
 73
4
 74
0
 40
0
 40
0
 40
0
 40
0
 40
1
 40
1
 40
1
 40
1
 10
0.150000
 20
3.284423
 30
0.0
 10
0.160313
 20
3.290377
 30
0.0
 10
0.173020
 20
3.290377
 30
0.0
 10
0.183333
 20
3.284423
 30
0.0
  0
LWPOLYLINE
  5
103
100
AcDbEntity
  8
Calque_1
 62
5
100
AcDbPolyline
 90
2
 70
0
 10
0.133333
 20
1.948144
 30
0.0
 10
0.133333
 20
3.255556
 30
0.0
  0
SPLINE
  5
104
100
AcDbEntity
  8
Calque_1
 62
1
100
AcDbSpline
 70
8
 71
3
 72
8
 73
4
 74
0
 40
0
 40
0
 40
0
 40
0
 40
1
 40
1
 40
1
 40
1
 10
0.100000
 20
1.992589
 30
0.0
 10
-0.033333
 20
1.992589
 30
0.0
 10
-0.033333
 20
1.770367
 30
0.0
 10
0.100000
 20
1.770367
 30
0.0
  0
LWPOLYLINE
  5
105
100
AcDbEntity
  8
Calque_1
 62
1
100
AcDbPolyline
 90
2
 70
0
 10
0.166667
 20
1.925922
 30
0.0
 10
0.100000
 20
1.992589
 30
0.0
  0
LWPOLYLINE
  5
106
100
AcDbEntity
  8
Calque_1
 62
1
100
AcDbPolyline
 90
2
 70
0
 10
0.100000
 20
1.770367
 30
0.0
 10
0.166667
 20
1.837033
 30
0.0
  0
LWPOLYLINE
  5
107
100
AcDbEntity
  8
Calque_1
 62
3
100
AcDbPolyline
 90
4
 70
0
 10
0.233333
 20
2.474067
 30
0.0
 10
0.166667
 20
2.540733
 30
0.0
 10
0.166667
 20
2.629622
 30
0.0
 10
0.233333
 20
2.696289
 30
0.0
  0
LWPOLYLINE
  5
108
100
AcDbEntity
  8
Calque_1
 62
5
100
AcDbPolyline
 90
2
 70
0
 10
0.184423
 20
3.284423
 30
0.0
 10
0.707214
 20
2.982590
 30
0.0
  0
SPLINE
  5
109
100
AcDbEntity
  8
Calque_1
 62
5
100
AcDbSpline
 70
8
 71
3
 72
8
 73
4
 74
0
 40
0
 40
0
 40
0
 40
0
 40
1
 40
1
 40
1
 40
1
 10
1.954964
 20
2.262201
 30
0.0
 10
1.965277
 20
2.256246
 30
0.0
 10
1.971631
 20
2.245242
 30
0.0
 10
1.971631
 20
2.233333
 30
0.0
  0
SPLINE
  5
10a
100
AcDbEntity
  8
Calque_1
 62
5
100
AcDbSpline
 70
8
 71
3
 72
8
 73
4
 74
0
 40
0
 40
0
 40
0
 40
0
 40
1
 40
1
 40
1
 40
1
 10
1.971631
 20
2.233333
 30
0.0
 10
1.971631
 20
2.221424
 30
0.0
 10
1.965277
 20
2.210420
 30
0.0
 10
1.954964
 20
2.204466
 30
0.0
  0
LWPOLYLINE
  5
10b
100
AcDbEntity
  8
Calque_1
 62
5
100
AcDbPolyline
 90
2
 70
0
 10
0.822713
 20
2.915906
 30
0.0
 10
1.954964
 20
2.262201
 30
0.0
  0
SPLINE
  5
10c
100
AcDbEntity
  8
Calque_1
 62
1
100
AcDbSpline
 70
8
 71
3
 72
8
 73
4
 74
0
 40
0
 40
0
 40
0
 40
0
 40
1
 40
1
 40
1
 40
1
 10
0.877869
 20
2.922552
 30
0.0
 10
0.944536
 20
3.038022
 30
0.0
 10
0.752086
 20
3.149133
 30
0.0
 10
0.685419
 20
3.033663
 30
0.0
  0
LWPOLYLINE
  5
10d
100
AcDbEntity
  8
Calque_1
 62
1
100
AcDbPolyline
 90
2
 70
0
 10
0.786801
 20
2.898150
 30
0.0
 10
0.877869
 20
2.922552
 30
0.0
  0
LWPOLYLINE
  5
10e
100
AcDbEntity
  8
Calque_1
 62
1
100
AcDbPolyline
 90
2
 70
0
 10
0.685419
 20
3.033663
 30
0.0
 10
0.709821
 20
2.942594
 30
0.0
  0
LWPOLYLINE
  5
10f
100
AcDbEntity
  8
Calque_1
 62
3
100
AcDbPolyline
 90
4
 70
0
 10
1.228175
 20
2.566343
 30
0.0
 10
1.319243
 20
2.590744
 30
0.0
 10
1.396223
 20
2.546300
 30
0.0
 10
1.420625
 20
2.455232
 30
0.0
  0
LWPOLYLINE
  5
110
100
AcDbEntity
  8
Calque_1
 62
5
100
AcDbPolyline
 90
2
 70
0
 10
1.954466
 20
2.204466
 30
0.0
 10
1.431675
 20
1.902632
 30
0.0
  0
SPLINE
  5
111
100
AcDbEntity
  8
Calque_1
 62
5
100
AcDbSpline
 70
8
 71
3
 72
8
 73
4
 74
0
 40
0
 40
0
 40
0
 40
0
 40
1
 40
1
 40
1
 40
1
 10
0.183925
 20
1.182244
 30
0.0
 10
0.173612
 20
1.176289
 30
0.0
 10
0.160905
 20
1.176289
 30
0.0
 10
0.150592
 20
1.182244
 30
0.0
  0
SPLINE
  5
112
100
AcDbEntity
  8
Calque_1
 62
5
100
AcDbSpline
 70
8
 71
3
 72
8
 73
4
 74
0
 40
0
 40
0
 40
0
 40
0
 40
1
 40
1
 40
1
 40
1
 10
0.150592
 20
1.182244
 30
0.0
 10
0.140278
 20
1.188198
 30
0.0
 10
0.133925
 20
1.199202
 30
0.0
 10
0.133925
 20
1.211111
 30
0.0
  0
LWPOLYLINE
  5
113
100
AcDbEntity
  8
Calque_1
 62
5
100
AcDbPolyline
 90
2
 70
0
 10
1.316176
 20
1.835949
 30
0.0
 10
0.183925
 20
1.182244
 30
0.0
  0
SPLINE
  5
114
100
AcDbEntity
  8
Calque_1
 62
1
100
AcDbSpline
 70
8
 71
3
 72
8
 73
4
 74
0
 40
0
 40
0
 40
0
 40
0
 40
1
 40
1
 40
1
 40
1
 10
1.294353
 20
1.784859
 30
0.0
 10
1.361020
 20
1.669389
 30
0.0
 10
1.553470
 20
1.780500
 30
0.0
 10
1.486803
 20
1.895971
 30
0.0
  0
LWPOLYLINE
  5
115
100
AcDbEntity
  8
Calque_1
 62
1
100
AcDbPolyline
 90
2
 70
0
 10
1.318755
 20
1.875928
 30
0.0
 10
1.294353
 20
1.784859
 30
0.0
  0
LWPOLYLINE
  5
116
100
AcDbEntity
  8
Calque_1
 62
1
100
AcDbPolyline
 90
2
 70
0
 10
1.486803
 20
1.895971
 30
0.0
 10
1.395735
 20
1.920372
 30
0.0
  0
LWPOLYLINE
  5
117
100
AcDbEntity
  8
Calque_1
 62
3
100
AcDbPolyline
 90
4
 70
0
 10
0.810714
 20
1.659591
 30
0.0
 10
0.786313
 20
1.568522
 30
0.0
 10
0.709332
 20
1.524078
 30
0.0
 10
0.618264
 20
1.548479
 30
0.0
  0
LWPOLYLINE
  5
118
100
AcDbEntity
  8
Calque_1
 62
5
100
AcDbPolyline
 90
2
 70
0
 10
2.144444
 20
2.088889
 30
0.0
 10
2.144444
 20
1.485222
 30
0.0
  0
SPLINE
  5
119
100
AcDbEntity
  8
Calque_1
 62
5
100
AcDbSpline
 70
8
 71
3
 72
8
 73
4
 74
0
 40
0
 40
0
 40
0
 40
0
 40
1
 40
1
 40
1
 40
1
 10
2.144444
 20
0.044444
 30
0.0
 10
2.144444
 20
0.032536
 30
0.0
 10
2.138091
 20
0.021531
 30
0.0
 10
2.127778
 20
0.015577
 30
0.0
  0
SPLINE
  5
11a
100
AcDbEntity
  8
Calque_1
 62
5
100
AcDbSpline
 70
8
 71
3
 72
8
 73
4
 74
0
 40
0
 40
0
 40
0
 40
0
 40
1
 40
1
 40
1
 40
1
 10
2.127778
 20
0.015577
 30
0.0
 10
2.117464
 20
0.009623
 30
0.0
 10
2.104758
 20
0.009623
 30
0.0
 10
2.094444
 20
0.015577
 30
0.0
  0
LWPOLYLINE
  5
11b
100
AcDbEntity
  8
Calque_1
 62
5
100
AcDbPolyline
 90
2
 70
0
 10
2.144444
 20
1.351856
 30
0.0
 10
2.144444
 20
0.044444
 30
0.0
  0
SPLINE
  5
11c
100
AcDbEntity
  8
Calque_1
 62
1
100
AcDbSpline
 70
8
 71
3
 72
8
 73
4
 74
0
 40
0
 40
0
 40
0
 40
0
 40
1
 40
1
 40
1
 40
1
 10
2.177778
 20
1.307411
 30
0.0
 10
2.311111
 20
1.307411
 30
0.0
 10
2.311111
 20
1.529633
 30
0.0
 10
2.177778
 20
1.529633
 30
0.0
  0
LWPOLYLINE
  5
11d
100
AcDbEntity
  8
Calque_1
 62
1
100
AcDbPolyline
 90
2
 70
0
 10
2.111111
 20
1.374078
 30
0.0
 10
2.177778
 20
1.307411
 30
0.0
  0
LWPOLYLINE
  5
11e
100
AcDbEntity
  8
Calque_1
 62
1
100
AcDbPolyline
 90
2
 70
0
 10
2.177778
 20
1.529633
 30
0.0
 10
2.111111
 20
1.462967
 30
0.0
  0
LWPOLYLINE
  5
11f
100
AcDbEntity
  8
Calque_1
 62
3
100
AcDbPolyline
 90
4
 70
0
 10
2.044444
 20
0.825933
 30
0.0
 10
2.111111
 20
0.759267
 30
0.0
 10
2.111111
 20
0.670378
 30
0.0
 10
2.044444
 20
0.603711
 30
0.0
  0
LWPOLYLINE
  5
120
100
AcDbEntity
  8
Calque_1
 62
5
100
AcDbPolyline
 90
2
 70
0
 10
2.093355
 20
0.015577
 30
0.0
 10
1.570564
 20
0.317410
 30
0.0
  0
SPLINE
  5
121
100
AcDbEntity
  8
Calque_1
 62
5
100
AcDbSpline
 70
8
 71
3
 72
8
 73
4
 74
0
 40
0
 40
0
 40
0
 40
0
 40
1
 40
1
 40
1
 40
1
 10
0.322814
 20
1.037799
 30
0.0
 10
0.312501
 20
1.043754
 30
0.0
 10
0.306147
 20
1.054758
 30
0.0
 10
0.306147
 20
1.066667
 30
0.0
  0
SPLINE
  5
122
100
AcDbEntity
  8
Calque_1
 62
5
100
AcDbSpline
 70
8
 71
3
 72
8
 73
4
 74
0
 40
0
 40
0
 40
0
 40
0
 40
1
 40
1
 40
1
 40
1
 10
0.306147
 20
1.066667
 30
0.0
 10
0.306147
 20
1.078576
 30
0.0
 10
0.312501
 20
1.089580
 30
0.0
 10
0.322814
 20
1.095534
 30
0.0
  0
LWPOLYLINE
  5
123
100
AcDbEntity
  8
Calque_1
 62
5
100
AcDbPolyline
 90
2
 70
0
 10
1.455065
 20
0.384094
 30
0.0
 10
0.322814
 20
1.037799
 30
0.0
  0
SPLINE
  5
124
100
AcDbEntity
  8
Calque_1
 62
1
100
AcDbSpline
 70
8
 71
3
 72
8
 73
4
 74
0
 40
0
 40
0
 40
0
 40
0
 40
1
 40
1
 40
1
 40
1
 10
1.399908
 20
0.377448
 30
0.0
 10
1.333242
 20
0.261978
 30
0.0
 10
1.525692
 20
0.150867
 30
0.0
 10
1.592359
 20
0.266337
 30
0.0
  0
LWPOLYLINE
  5
125
100
AcDbEntity
  8
Calque_1
 62
1
100
AcDbPolyline
 90
2
 70
0
 10
1.490977
 20
0.401850
 30
0.0
 10
1.399908
 20
0.377448
 30
0.0
  0
LWPOLYLINE
  5
126
100
AcDbEntity
  8
Calque_1
 62
1
100
AcDbPolyline
 90
2
 70
0
 10
1.592359
 20
0.266337
 30
0.0
 10
1.567957
 20
0.357406
 30
0.0
  0
LWPOLYLINE
  5
127
100
AcDbEntity
  8
Calque_1
 62
3
100
AcDbPolyline
 90
4
 70
0
 10
1.049603
 20
0.733657
 30
0.0
 10
0.958535
 20
0.709256
 30
0.0
 10
0.881555
 20
0.753700
 30
0.0
 10
0.857153
 20
0.844768
 30
0.0
  0
LWPOLYLINE
  5
128
100
AcDbEntity
  8
Calque_1
 62
5
100
AcDbPolyline
 90
2
 70
0
 10
0.323312
 20
1.095534
 30
0.0
 10
0.846103
 20
1.397368
 30
0.0
  0
SPLINE
  5
129
100
AcDbEntity
  8
Calque_1
 62
5
100
AcDbSpline
 70
8
 71
3
 72
8
 73
4
 74
0
 40
0
 40
0
 40
0
 40
0
 40
1
 40
1
 40
1
 40
1
 10
2.093853
 20
2.117756
 30
0.0
 10
2.104166
 20
2.123711
 30
0.0
 10
2.116873
 20
2.123711
 30
0.0
 10
2.127186
 20
2.117756
 30
0.0
  0
SPLINE
  5
12a
100
AcDbEntity
  8
Calque_1
 62
5
100
AcDbSpline
 70
8
 71
3
 72
8
 73
4
 74
0
 40
0
 40
0
 40
0
 40
0
 40
1
 40
1
 40
1
 40
1
 10
2.127186
 20
2.117756
 30
0.0
 10
2.137499
 20
2.111802
 30
0.0
 10
2.143853
 20
2.100798
 30
0.0
 10
2.143853
 20
2.088889
 30
0.0
  0
LWPOLYLINE
  5
12b
100
AcDbEntity
  8
Calque_1
 62
5
100
AcDbPolyline
 90
2
 70
0
 10
0.961602
 20
1.464051
 30
0.0
 10
2.093853
 20
2.117756
 30
0.0
  0
SPLINE
  5
12c
100
AcDbEntity
  8
Calque_1
 62
1
100
AcDbSpline
 70
8
 71
3
 72
8
 73
4
 74
0
 40
0
 40
0
 40
0
 40
0
 40
1
 40
1
 40
1
 40
1
 10
0.983425
 20
1.515141
 30
0.0
 10
0.916758
 20
1.630611
 30
0.0
 10
0.724308
 20
1.519500
 30
0.0
 10
0.790975
 20
1.404029
 30
0.0
  0
LWPOLYLINE
  5
12d
100
AcDbEntity
  8
Calque_1
 62
1
100
AcDbPolyline
 90
2
 70
0
 10
0.959023
 20
1.424072
 30
0.0
 10
0.983425
 20
1.515141
 30
0.0
  0
LWPOLYLINE
  5
12e
100
AcDbEntity
  8
Calque_1
 62
1
100
AcDbPolyline
 90
2
 70
0
 10
0.790975
 20
1.404029
 30
0.0
 10
0.882043
 20
1.379628
 30
0.0
  0
LWPOLYLINE
  5
12f
100
AcDbEntity
  8
Calque_1
 62
3
100
AcDbPolyline
 90
4
 70
0
 10
1.467064
 20
1.640409
 30
0.0
 10
1.491465
 20
1.731478
 30
0.0
 10
1.568445
 20
1.775922
 30
0.0
 10
1.659514
 20
1.751521
 30
0.0
  0
ENDSEC
  0
SECTION
  2
OBJECTS
  0
DICTIONARY
  5
C
330
0
100
AcDbDictionary
  3
ACAD_GROUP
350
D
  3
ACAD_MLINESTYLE
350
17
  0
DICTIONARY
  5
D
330
C
100
AcDbDictionary
  0
DICTIONARY
  5
1A
330
C
100
AcDbDictionary
  0
DICTIONARY
  5
17
330
C
100
AcDbDictionary
  3
STANDARD
350
18
  0
DICTIONARY
  5
19
330
C
100
AcDbDictionary
  0
ENDSEC
  0
EOF
